  0
SECTION
  2
HEADER
  9
$ACADVER
  1
AC1014
  9
$HANDSEED
  5
FFFF
  9
$MEASUREMENT
 70
     1
  0
ENDSEC
  0
SECTION
  2
TABLES
  0
TABLE
  2
VPORT
  5
8
330
0
100
AcDbSymbolTable
 70
     4
  0
VPORT
  5
2E
330
8
100
AcDbSymbolTableRecord
100
AcDbViewportTableRecord
  2
*ACTIVE
 70
     0
 10
0.0
 20
0.0
 11
1.0
 21
1.0
 12
210.0
 22
148.5
 13
0.0
 23
0.0
 14
10.0
 24
10.0
 15
10.0
 25
10.0
 16
0.0
 26
0.0
 36
1.0
 17
0.0
 27
0.0
 37
0.0
 40
341.0
 41
1.24
 42
50.0
 43
0.0
 44
0.0
 50
0.0
 51
0.0
 71
     0
 72
   100
 73
     1
 74
     3
 75
     0
 76
     0
 77
     0
 78
     0
  0
ENDTAB
  0
TABLE
  2
LTYPE
  5
5
330
0
100
AcDbSymbolTable
 70
     1
  0
LTYPE
  5
14
330
5
100
AcDbSymbolTableRecord
100
AcDbLinetypeTableRecord
  2
BYBLOCK
 70
     0
  3

 72
    65
 73
     0
 40
0.0
  0
LTYPE
  5
15
330
5
100
AcDbSymbolTableRecord
100
AcDbLinetypeTableRecord
  2
BYLAYER
 70
     0
  3

 72
    65
 73
     0
 40
0.0
  0
LTYPE
  5
16
330
5
100
AcDbSymbolTableRecord
100
AcDbLinetypeTableRecord
  2
CONTINUOUS
 70
     0
  3
Solid line
 72
    65
 73
     0
 40
0.0
  0
ENDTAB
  0
TABLE
  2
LAYER
  5
2
100
AcDbSymbolTable
 70
2
  0
LAYER
  5
50
100
AcDbSymbolTableRecord
100
AcDbLayerTableRecord
  2
0
 70
0
  6
CONTINUOUS
  0
LAYER
  5
51
100
AcDbSymbolTableRecord
100
AcDbLayerTableRecord
  2
Capa_1
 70
0
  6
CONTINUOUS
  0
ENDTAB
  0
TABLE
  2
STYLE
  5
3
330
0
100
AcDbSymbolTable
 70
     1
  0
STYLE
  5
11
330
3
100
AcDbSymbolTableRecord
100
AcDbTextStyleTableRecord
  2
STANDARD
 70
     0
 40
0.0
 41
1.0
 50
0.0
 71
     0
 42
2.5
  3
txt
  4

  0
ENDTAB
  0
TABLE
  2
VIEW
  5
6
330
0
100
AcDbSymbolTable
 70
     0
  0
ENDTAB
  0
TABLE
  2
UCS
  5
7
330
0
100
AcDbSymbolTable
 70
     0
  0
ENDTAB
  0
TABLE
  2
APPID
  5
9
330
0
100
AcDbSymbolTable
 70
     2
  0
APPID
  5
12
330
9
100
AcDbSymbolTableRecord
100
AcDbRegAppTableRecord
  2
ACAD
 70
     0
  0
ENDTAB
  0
TABLE
  2
DIMSTYLE
  5
A
330
0
100
AcDbSymbolTable
 70
     1
  0
DIMSTYLE
105
27
330
A
100
AcDbSymbolTableRecord
100
AcDbDimStyleTableRecord
  2
ISO-25
 70
     0
  3

  4

  5

  6

  7

 40
1.0
 41
2.5
 42
0.625
 43
3.75
 44
1.25
 45
0.0
 46
0.0
 47
0.0
 48
0.0
140
2.5
141
2.5
142
0.0
143
0.03937007874016
144
1.0
145
0.0
146
1.0
147
0.625
 71
     0
 72
     0
 73
     0
 74
     0
 75
     0
 76
     0
 77
     1
 78
     8
170
     0
171
     3
172
     1
173
     0
174
     0
175
     0
176
     0
177
     0
178
     0
270
     2
271
     2
272
     2
273
     2
274
     3
340
11
275
     0
280
     0
281
     0
282
     0
283
     0
284
     8
285
     0
286
     0
287
     3
288
     0
  0
ENDTAB
  0
TABLE
  2
BLOCK_RECORD
  5
1
330
0
100
AcDbSymbolTable
 70
     1
  0
BLOCK_RECORD
  5
1F
330
1
100
AcDbSymbolTableRecord
100
AcDbBlockTableRecord
  2
*MODEL_SPACE
  0
BLOCK_RECORD
  5
1B
330
1
100
AcDbSymbolTableRecord
100
AcDbBlockTableRecord
  2
*PAPER_SPACE
  0
ENDTAB
  0
ENDSEC
  0
SECTION
  2
BLOCKS
  0
BLOCK
  5
20
330
1F
100
AcDbEntity
  8
0
100
AcDbBlockBegin
  2
*MODEL_SPACE
 70
     0
 10
0.0
 20
0.0
 30
0.0
  3
*MODEL_SPACE
  1

  0
ENDBLK
  5
21
330
1F
100
AcDbEntity
  8
0
100
AcDbBlockEnd
  0
BLOCK
  5
1C
330
1B
100
AcDbEntity
 67
     1
  8
0
100
AcDbBlockBegin
  2
*PAPER_SPACE
  1

  0
ENDBLK
  5
1D
330
1B
100
AcDbEntity
 67
     1
  8
0
100
AcDbBlockEnd
  0
ENDSEC
  0
SECTION
  2
ENTITIES
  0
SPLINE
  5
100
100
AcDbEntity
  8
Capa_1
 62
7
100
AcDbSpline
 70
8
 71
3
 72
8
 73
4
 74
0
 40
0
 40
0
 40
0
 40
0
 40
1
 40
1
 40
1
 40
1
 10
189.840810
 20
30.951043
 30
0.0
 10
164.096220
 20
35.415014
 30
0.0
 10
156.497970
 20
37.160674
 30
0.0
 10
142.965811
 20
41.720372
 30
0.0
  0
SPLINE
  5
101
100
AcDbEntity
  8
Capa_1
 62
7
100
AcDbSpline
 70
8
 71
3
 72
8
 73
4
 74
0
 40
0
 40
0
 40
0
 40
0
 40
1
 40
1
 40
1
 40
1
 10
142.965811
 20
41.720372
 30
0.0
 10
123.623175
 20
48.237931
 30
0.0
 10
110.382525
 20
54.425594
 30
0.0
 10
90.195979
 20
66.380995
 30
0.0
  0
SPLINE
  5
102
100
AcDbEntity
  8
Capa_1
 62
7
100
AcDbSpline
 70
8
 71
3
 72
8
 73
4
 74
0
 40
0
 40
0
 40
0
 40
0
 40
1
 40
1
 40
1
 40
1
 10
90.195979
 20
66.380995
 30
0.0
 10
81.502489
 20
71.529676
 30
0.0
 10
57.609113
 20
89.900220
 30
0.0
 10
48.676363
 20
98.303556
 30
0.0
  0
SPLINE
  5
103
100
AcDbEntity
  8
Capa_1
 62
7
100
AcDbSpline
 70
8
 71
3
 72
8
 73
4
 74
0
 40
0
 40
0
 40
0
 40
0
 40
1
 40
1
 40
1
 40
1
 10
48.676363
 20
98.303556
 30
0.0
 10
44.063544
 20
102.642973
 30
0.0
 10
43.965808
 20
102.816142
 30
0.0
 10
43.965808
 20
106.648696
 30
0.0
  0
SPLINE
  5
104
100
AcDbEntity
  8
Capa_1
 62
7
100
AcDbSpline
 70
8
 71
3
 72
8
 73
4
 74
0
 40
0
 40
0
 40
0
 40
0
 40
1
 40
1
 40
1
 40
1
 10
47.528308
 20
112.107572
 30
0.0
 10
55.129609
 20
115.404350
 30
0.0
 10
80.656787
 20
128.190557
 30
0.0
 10
86.715808
 20
131.736019
 30
0.0
  0
SPLINE
  5
105
100
AcDbEntity
  8
Capa_1
 62
7
100
AcDbSpline
 70
8
 71
3
 72
8
 73
4
 74
0
 40
0
 40
0
 40
0
 40
0
 40
1
 40
1
 40
1
 40
1
 10
86.715808
 20
131.736019
 30
0.0
 10
94.620869
 20
136.361679
 30
0.0
 10
104.013096
 20
143.361496
 30
0.0
 10
110.814137
 20
149.695937
 30
0.0
  0
SPLINE
  5
106
100
AcDbEntity
  8
Capa_1
 62
7
100
AcDbSpline
 70
8
 71
3
 72
8
 73
4
 74
0
 40
0
 40
0
 40
0
 40
0
 40
1
 40
1
 40
1
 40
1
 10
110.814137
 20
149.695937
 30
0.0
 10
114.915852
 20
153.516274
 30
0.0
 10
116.185371
 20
154.327606
 30
0.0
 10
116.916840
 20
153.596126
 30
0.0
  0
SPLINE
  5
107
100
AcDbEntity
  8
Capa_1
 62
7
100
AcDbSpline
 70
8
 71
3
 72
8
 73
4
 74
0
 40
0
 40
0
 40
0
 40
0
 40
1
 40
1
 40
1
 40
1
 10
116.916840
 20
153.596126
 30
0.0
 10
118.732343
 20
151.780649
 30
0.0
 10
101.408737
 20
137.220066
 30
0.0
 10
88.215809
 20
129.472781
 30
0.0
  0
SPLINE
  5
108
100
AcDbEntity
  8
Capa_1
 62
7
100
AcDbSpline
 70
8
 71
3
 72
8
 73
4
 74
0
 40
0
 40
0
 40
0
 40
0
 40
1
 40
1
 40
1
 40
1
 10
88.215809
 20
129.472781
 30
0.0
 10
82.269456
 20
125.980894
 30
0.0
 10
66.785559
 20
118.174252
 30
0.0
 10
52.403306
 20
111.416882
 30
0.0
  0
SPLINE
  5
109
100
AcDbEntity
  8
Capa_1
 62
7
100
AcDbSpline
 70
8
 71
3
 72
8
 73
4
 74
0
 40
0
 40
0
 40
0
 40
0
 40
1
 40
1
 40
1
 40
1
 10
52.403306
 20
111.416882
 30
0.0
 10
46.776121
 20
108.773008
 30
0.0
 10
46.215808
 20
108.315751
 30
0.0
 10
46.215808
 20
106.367613
 30
0.0
  0
SPLINE
  5
10a
100
AcDbEntity
  8
Capa_1
 62
7
100
AcDbSpline
 70
8
 71
3
 72
8
 73
4
 74
0
 40
0
 40
0
 40
0
 40
0
 40
1
 40
1
 40
1
 40
1
 10
46.215808
 20
106.367613
 30
0.0
 10
46.215808
 20
104.724992
 30
0.0
 10
47.227842
 20
103.280769
 30
0.0
 10
50.556104
 20
100.173827
 30
0.0
  0
SPLINE
  5
10b
100
AcDbEntity
  8
Capa_1
 62
7
100
AcDbSpline
 70
8
 71
3
 72
8
 73
4
 74
0
 40
0
 40
0
 40
0
 40
0
 40
1
 40
1
 40
1
 40
1
 10
50.556104
 20
100.173827
 30
0.0
 10
59.365797
 20
91.950009
 30
0.0
 10
83.275038
 20
73.618243
 30
0.0
 10
91.695980
 20
68.630995
 30
0.0
  0
SPLINE
  5
10c
100
AcDbEntity
  8
Capa_1
 62
7
100
AcDbSpline
 70
8
 71
3
 72
8
 73
4
 74
0
 40
0
 40
0
 40
0
 40
0
 40
1
 40
1
 40
1
 40
1
 10
91.695980
 20
68.630995
 30
0.0
 10
126.794840
 20
47.843858
 30
0.0
 10
147.329986
 20
40.659506
 30
0.0
 10
194.340810
 20
32.720003
 30
0.0
  0
LWPOLYLINE
  5
10d
100
AcDbEntity
  8
Capa_1
 62
7
100
AcDbPolyline
 90
3
 70
0
 10
43.965808
 20
106.648696
 30
0.0
 10
43.965808
 20
110.562463
 30
0.0
 10
47.528308
 20
112.107572
 30
0.0
  0
SPLINE
  5
10e
100
AcDbEntity
  8
Capa_1
 62
7
100
AcDbSpline
 70
8
 71
3
 72
8
 73
4
 74
0
 40
0
 40
0
 40
0
 40
0
 40
1
 40
1
 40
1
 40
1
 10
286.215817
 20
34.157310
 30
0.0
 10
307.424806
 20
38.807887
 30
0.0
 10
331.576668
 20
46.250589
 30
0.0
 10
348.090803
 20
53.224894
 30
0.0
  0
SPLINE
  5
10f
100
AcDbEntity
  8
Capa_1
 62
7
100
AcDbSpline
 70
8
 71
3
 72
8
 73
4
 74
0
 40
0
 40
0
 40
0
 40
0
 40
1
 40
1
 40
1
 40
1
 10
348.090803
 20
53.224894
 30
0.0
 10
360.991020
 20
58.672942
 30
0.0
 10
389.284498
 20
73.075181
 30
0.0
 10
396.603780
 20
77.919449
 30
0.0
  0
SPLINE
  5
110
100
AcDbEntity
  8
Capa_1
 62
7
100
AcDbSpline
 70
8
 71
3
 72
8
 73
4
 74
0
 40
0
 40
0
 40
0
 40
0
 40
1
 40
1
 40
1
 40
1
 10
396.603780
 20
77.919449
 30
0.0
 10
400.034154
 20
80.189830
 30
0.0
 10
405.030813
 20
83.358000
 30
0.0
 10
407.707455
 20
84.959802
 30
0.0
  0
SPLINE
  5
111
100
AcDbEntity
  8
Capa_1
 62
7
100
AcDbSpline
 70
8
 71
3
 72
8
 73
4
 74
0
 40
0
 40
0
 40
0
 40
0
 40
1
 40
1
 40
1
 40
1
 10
407.707455
 20
84.959802
 30
0.0
 10
412.064646
 20
87.567307
 30
0.0
 10
426.409172
 20
98.412463
 30
0.0
 10
430.778296
 20
102.402482
 30
0.0
  0
SPLINE
  5
112
100
AcDbEntity
  8
Capa_1
 62
7
100
AcDbSpline
 70
8
 71
3
 72
8
 73
4
 74
0
 40
0
 40
0
 40
0
 40
0
 40
1
 40
1
 40
1
 40
1
 10
430.778296
 20
102.402482
 30
0.0
 10
431.706444
 20
103.250098
 30
0.0
 10
432.465817
 20
104.437049
 30
0.0
 10
432.465817
 20
105.040205
 30
0.0
  0
SPLINE
  5
113
100
AcDbEntity
  8
Capa_1
 62
7
100
AcDbSpline
 70
8
 71
3
 72
8
 73
4
 74
0
 40
0
 40
0
 40
0
 40
0
 40
1
 40
1
 40
1
 40
1
 10
432.465817
 20
105.040205
 30
0.0
 10
432.465817
 20
105.722079
 30
0.0
 10
424.452841
 20
110.213745
 30
0.0
 10
411.278315
 20
116.916860
 30
0.0
  0
SPLINE
  5
114
100
AcDbEntity
  8
Capa_1
 62
7
100
AcDbSpline
 70
8
 71
3
 72
8
 73
4
 74
0
 40
0
 40
0
 40
0
 40
0
 40
1
 40
1
 40
1
 40
1
 10
411.278315
 20
116.916860
 30
0.0
 10
399.625172
 20
122.845890
 30
0.0
 10
387.219402
 20
129.588236
 30
0.0
 10
383.709883
 20
131.899805
 30
0.0
  0
SPLINE
  5
115
100
AcDbEntity
  8
Capa_1
 62
7
100
AcDbSpline
 70
8
 71
3
 72
8
 73
4
 74
0
 40
0
 40
0
 40
0
 40
0
 40
1
 40
1
 40
1
 40
1
 10
383.709883
 20
131.899805
 30
0.0
 10
375.946328
 20
137.013420
 30
0.0
 10
362.318513
 20
148.620302
 30
0.0
 10
356.064123
 20
155.445846
 30
0.0
  0
SPLINE
  5
116
100
AcDbEntity
  8
Capa_1
 62
7
100
AcDbSpline
 70
8
 71
3
 72
8
 73
4
 74
0
 40
0
 40
0
 40
0
 40
0
 40
1
 40
1
 40
1
 40
1
 10
356.064123
 20
155.445846
 30
0.0
 10
351.691739
 20
160.217546
 30
0.0
 10
343.965798
 20
171.696728
 30
0.0
 10
343.965798
 20
173.421553
 30
0.0
  0
SPLINE
  5
117
100
AcDbEntity
  8
Capa_1
 62
7
100
AcDbSpline
 70
8
 71
3
 72
8
 73
4
 74
0
 40
0
 40
0
 40
0
 40
0
 40
1
 40
1
 40
1
 40
1
 10
343.965798
 20
173.421553
 30
0.0
 10
343.965798
 20
174.544044
 30
0.0
 10
349.025017
 20
180.342283
 30
0.0
 10
350.862491
 20
181.325679
 30
0.0
  0
SPLINE
  5
118
100
AcDbEntity
  8
Capa_1
 62
7
100
AcDbSpline
 70
8
 71
3
 72
8
 73
4
 74
0
 40
0
 40
0
 40
0
 40
0
 40
1
 40
1
 40
1
 40
1
 10
350.862491
 20
181.325679
 30
0.0
 10
351.953660
 20
181.909644
 30
0.0
 10
352.608463
 20
181.904485
 30
0.0
 10
353.205751
 20
181.305836
 30
0.0
  0
SPLINE
  5
119
100
AcDbEntity
  8
Capa_1
 62
7
100
AcDbSpline
 70
8
 71
3
 72
8
 73
4
 74
0
 40
0
 40
0
 40
0
 40
0
 40
1
 40
1
 40
1
 40
1
 10
353.205751
 20
181.305836
 30
0.0
 10
353.810976
 20
180.700611
 30
0.0
 10
353.282003
 20
179.856397
 30
0.0
 10
351.245169
 20
178.177578
 30
0.0
  0
SPLINE
  5
11a
100
AcDbEntity
  8
Capa_1
 62
7
100
AcDbSpline
 70
8
 71
3
 72
8
 73
4
 74
0
 40
0
 40
0
 40
0
 40
0
 40
1
 40
1
 40
1
 40
1
 10
351.245169
 20
178.177578
 30
0.0
 10
346.491808
 20
174.259446
 30
0.0
 10
346.439424
 20
173.669357
 30
0.0
 10
350.295477
 20
167.482602
 30
0.0
  0
SPLINE
  5
11b
100
AcDbEntity
  8
Capa_1
 62
7
100
AcDbSpline
 70
8
 71
3
 72
8
 73
4
 74
0
 40
0
 40
0
 40
0
 40
0
 40
1
 40
1
 40
1
 40
1
 10
350.295477
 20
167.482602
 30
0.0
 10
354.785613
 20
160.278463
 30
0.0
 10
360.314504
 20
154.263713
 30
0.0
 10
370.486970
 20
145.516791
 30
0.0
  0
SPLINE
  5
11c
100
AcDbEntity
  8
Capa_1
 62
7
100
AcDbSpline
 70
8
 71
3
 72
8
 73
4
 74
0
 40
0
 40
0
 40
0
 40
0
 40
1
 40
1
 40
1
 40
1
 10
370.486970
 20
145.516791
 30
0.0
 10
382.198819
 20
135.446230
 30
0.0
 10
389.106113
 20
131.159083
 30
0.0
 10
413.411783
 20
118.874665
 30
0.0
  0
LWPOLYLINE
  5
11d
100
AcDbEntity
  8
Capa_1
 62
7
100
AcDbPolyline
 90
5
 70
0
 10
194.340810
 20
32.720003
 30
0.0
 10
208.590812
 20
30.313361
 30
0.0
 10
241.965816
 20
31.043027
 30
0.0
 10
275.340821
 20
31.772693
 30
0.0
 10
286.215817
 20
34.157310
 30
0.0
  0
SPLINE
  5
11e
100
AcDbEntity
  8
Capa_1
 62
7
100
AcDbSpline
 70
8
 71
3
 72
8
 73
4
 74
0
 40
0
 40
0
 40
0
 40
0
 40
1
 40
1
 40
1
 40
1
 10
434.703260
 20
105.402557
 30
0.0
 10
434.711764
 20
103.423124
 30
0.0
 10
434.156060
 20
102.126954
 30
0.0
 10
432.654123
 20
100.633493
 30
0.0
  0
SPLINE
  5
11f
100
AcDbEntity
  8
Capa_1
 62
7
100
AcDbSpline
 70
8
 71
3
 72
8
 73
4
 74
0
 40
0
 40
0
 40
0
 40
0
 40
1
 40
1
 40
1
 40
1
 10
432.654123
 20
100.633493
 30
0.0
 10
429.019965
 20
97.019887
 30
0.0
 10
414.236693
 20
85.717616
 30
0.0
 10
409.208258
 20
82.708413
 30
0.0
  0
SPLINE
  5
120
100
AcDbEntity
  8
Capa_1
 62
7
100
AcDbSpline
 70
8
 71
3
 72
8
 73
4
 74
0
 40
0
 40
0
 40
0
 40
0
 40
1
 40
1
 40
1
 40
1
 10
409.208258
 20
82.708413
 30
0.0
 10
406.531616
 20
81.106611
 30
0.0
 10
401.534957
 20
77.938469
 30
0.0
 10
398.104583
 20
75.668060
 30
0.0
  0
SPLINE
  5
121
100
AcDbEntity
  8
Capa_1
 62
7
100
AcDbSpline
 70
8
 71
3
 72
8
 73
4
 74
0
 40
0
 40
0
 40
0
 40
0
 40
1
 40
1
 40
1
 40
1
 10
398.104583
 20
75.668060
 30
0.0
 10
390.785329
 20
70.823792
 30
0.0
 10
362.491824
 20
56.421553
 30
0.0
 10
349.591606
 20
50.973506
 30
0.0
  0
SPLINE
  5
122
100
AcDbEntity
  8
Capa_1
 62
7
100
AcDbSpline
 70
8
 71
3
 72
8
 73
4
 74
0
 40
0
 40
0
 40
0
 40
0
 40
1
 40
1
 40
1
 40
1
 10
349.591606
 20
50.973506
 30
0.0
 10
333.073984
 20
43.997726
 30
0.0
 10
308.916369
 20
36.553606
 30
0.0
 10
287.716620
 20
31.906828
 30
0.0
  0
SPLINE
  5
123
100
AcDbEntity
  8
Capa_1
 62
7
100
AcDbSpline
 70
8
 71
3
 72
8
 73
4
 74
0
 40
0
 40
0
 40
0
 40
0
 40
1
 40
1
 40
1
 40
1
 10
287.716620
 20
31.906828
 30
0.0
 10
277.642865
 20
29.698753
 30
0.0
 10
275.377331
 20
29.482526
 30
0.0
 10
256.966620
 20
28.971893
 30
0.0
  0
SPLINE
  5
124
100
AcDbEntity
  8
Capa_1
 62
7
100
AcDbSpline
 70
8
 71
3
 72
8
 73
4
 74
0
 40
0
 40
0
 40
0
 40
0
 40
1
 40
1
 40
1
 40
1
 10
256.966620
 20
28.971893
 30
0.0
 10
246.035375
 20
28.668728
 30
0.0
 10
229.835375
 20
28.404482
 30
0.0
 10
220.966625
 20
28.384724
 30
0.0
  0
SPLINE
  5
125
100
AcDbEntity
  8
Capa_1
 62
7
100
AcDbSpline
 70
8
 71
3
 72
8
 73
4
 74
0
 40
0
 40
0
 40
0
 40
0
 40
1
 40
1
 40
1
 40
1
 10
220.966625
 20
28.384724
 30
0.0
 10
205.861003
 20
28.350992
 30
0.0
 10
203.893362
 20
28.513134
 30
0.0
 10
189.841626
 20
30.949682
 30
0.0
  0
LWPOLYLINE
  5
126
100
AcDbEntity
  8
Capa_1
 62
7
100
AcDbPolyline
 90
3
 70
0
 10
413.411783
 20
118.874665
 30
0.0
 10
434.689087
 20
108.120784
 30
0.0
 10
434.703260
 20
105.402557
 30
0.0
  0
SPLINE
  5
127
100
AcDbEntity
  8
Capa_1
 62
7
100
AcDbSpline
 70
8
 71
3
 72
8
 73
4
 74
0
 40
0
 40
0
 40
0
 40
0
 40
1
 40
1
 40
1
 40
1
 10
71.715807
 20
81.030331
 30
0.0
 10
71.715807
 20
81.186236
 30
0.0
 10
71.125183
 20
81.776693
 30
0.0
 10
70.403306
 20
82.342857
 30
0.0
  0
SPLINE
  5
128
100
AcDbEntity
  8
Capa_1
 62
7
100
AcDbSpline
 70
8
 71
3
 72
8
 73
4
 74
0
 40
0
 40
0
 40
0
 40
0
 40
1
 40
1
 40
1
 40
1
 10
70.403306
 20
82.342857
 30
0.0
 10
69.213764
 20
83.275739
 30
0.0
 10
69.187238
 20
83.249206
 30
0.0
 10
70.120154
 20
82.059676
 30
0.0
  0
SPLINE
  5
129
100
AcDbEntity
  8
Capa_1
 62
7
100
AcDbSpline
 70
8
 71
3
 72
8
 73
4
 74
0
 40
0
 40
0
 40
0
 40
0
 40
1
 40
1
 40
1
 40
1
 10
70.120154
 20
82.059676
 30
0.0
 10
71.099929
 20
80.810362
 30
0.0
 10
71.715818
 20
80.413058
 30
0.0
 10
71.715818
 20
81.030331
 30
0.0
  0
LWPOLYLINE
  5
12a
100
AcDbEntity
  8
Capa_1
 62
7
100
AcDbPolyline
 90
2
 70
0
 10
189.841626
 20
30.949682
 30
0.0
 10
189.840810
 20
30.951043
 30
0.0
  0
SPLINE
  5
12b
100
AcDbEntity
  8
Capa_1
 62
7
100
AcDbSpline
 70
8
 71
3
 72
8
 73
4
 74
0
 40
0
 40
0
 40
0
 40
0
 40
1
 40
1
 40
1
 40
1
 10
67.965809
 20
84.005943
 30
0.0
 10
67.965809
 20
84.148243
 30
0.0
 10
67.206433
 20
84.907616
 30
0.0
 10
66.278307
 20
85.693436
 30
0.0
  0
LWPOLYLINE
  5
12c
100
AcDbEntity
  8
Capa_1
 62
7
100
AcDbPolyline
 90
1
 70
1
 10
71.715818
 20
81.030331
 30
0.0
  0
SPLINE
  5
12d
100
AcDbEntity
  8
Capa_1
 62
7
100
AcDbSpline
 70
8
 71
3
 72
8
 73
4
 74
0
 40
0
 40
0
 40
0
 40
0
 40
1
 40
1
 40
1
 40
1
 10
66.019550
 20
85.434661
 30
0.0
 10
67.362211
 20
83.848847
 30
0.0
 10
67.965809
 20
83.405735
 30
0.0
 10
67.965809
 20
84.005943
 30
0.0
  0
LWPOLYLINE
  5
12e
100
AcDbEntity
  8
Capa_1
 62
7
100
AcDbPolyline
 90
3
 70
0
 10
66.278307
 20
85.693436
 30
0.0
 10
64.590809
 20
87.122183
 30
0.0
 10
66.019550
 20
85.434661
 30
0.0
  0
SPLINE
  5
12f
100
AcDbEntity
  8
Capa_1
 62
7
100
AcDbSpline
 70
8
 71
3
 72
8
 73
4
 74
0
 40
0
 40
0
 40
0
 40
0
 40
1
 40
1
 40
1
 40
1
 10
63.465809
 20
87.755924
 30
0.0
 10
63.465809
 20
87.898224
 30
0.0
 10
62.706433
 20
88.657625
 30
0.0
 10
61.778307
 20
89.443417
 30
0.0
  0
LWPOLYLINE
  5
130
100
AcDbEntity
  8
Capa_1
 62
7
100
AcDbPolyline
 90
1
 70
1
 10
67.965809
 20
84.005943
 30
0.0
  0
SPLINE
  5
131
100
AcDbEntity
  8
Capa_1
 62
7
100
AcDbSpline
 70
8
 71
3
 72
8
 73
4
 74
0
 40
0
 40
0
 40
0
 40
0
 40
1
 40
1
 40
1
 40
1
 10
61.519550
 20
89.184671
 30
0.0
 10
62.862211
 20
87.598857
 30
0.0
 10
63.465809
 20
87.155745
 30
0.0
 10
63.465809
 20
87.755924
 30
0.0
  0
LWPOLYLINE
  5
132
100
AcDbEntity
  8
Capa_1
 62
7
100
AcDbPolyline
 90
3
 70
0
 10
61.778307
 20
89.443417
 30
0.0
 10
60.090806
 20
90.872164
 30
0.0
 10
61.519550
 20
89.184671
 30
0.0
  0
SPLINE
  5
133
100
AcDbEntity
  8
Capa_1
 62
7
100
AcDbSpline
 70
8
 71
3
 72
8
 73
4
 74
0
 40
0
 40
0
 40
0
 40
0
 40
1
 40
1
 40
1
 40
1
 10
419.061487
 20
91.059676
 30
0.0
 10
419.994369
 20
92.249206
 30
0.0
 10
419.967865
 20
92.275739
 30
0.0
 10
418.778306
 20
91.342857
 30
0.0
  0
SPLINE
  5
134
100
AcDbEntity
  8
Capa_1
 62
7
100
AcDbSpline
 70
8
 71
3
 72
8
 73
4
 74
0
 40
0
 40
0
 40
0
 40
0
 40
1
 40
1
 40
1
 40
1
 10
418.778306
 20
91.342857
 30
0.0
 10
417.528992
 20
90.363061
 30
0.0
 10
417.131688
 20
89.747178
 30
0.0
 10
417.748989
 20
89.747178
 30
0.0
  0
SPLINE
  5
135
100
AcDbEntity
  8
Capa_1
 62
7
100
AcDbSpline
 70
8
 71
3
 72
8
 73
4
 74
0
 40
0
 40
0
 40
0
 40
0
 40
1
 40
1
 40
1
 40
1
 10
417.748989
 20
89.747178
 30
0.0
 10
417.904611
 20
89.747178
 30
0.0
 10
418.495351
 20
90.337805
 30
0.0
 10
419.061487
 20
91.059676
 30
0.0
  0
LWPOLYLINE
  5
136
100
AcDbEntity
  8
Capa_1
 62
7
100
AcDbPolyline
 90
1
 70
1
 10
63.465809
 20
87.755924
 30
0.0
  0
SPLINE
  5
137
100
AcDbEntity
  8
Capa_1
 62
7
100
AcDbSpline
 70
8
 71
3
 72
8
 73
4
 74
0
 40
0
 40
0
 40
0
 40
0
 40
1
 40
1
 40
1
 40
1
 10
423.090794
 20
94.247178
 30
0.0
 10
423.837411
 20
95.072173
 30
0.0
 10
424.279531
 20
95.747159
 30
0.0
 10
424.073282
 20
95.747159
 30
0.0
  0
SPLINE
  5
138
100
AcDbEntity
  8
Capa_1
 62
7
100
AcDbSpline
 70
8
 71
3
 72
8
 73
4
 74
0
 40
0
 40
0
 40
0
 40
0
 40
1
 40
1
 40
1
 40
1
 10
424.073282
 20
95.747159
 30
0.0
 10
423.866920
 20
95.747159
 30
0.0
 10
423.087420
 20
95.072173
 30
0.0
 10
422.340803
 20
94.247178
 30
0.0
  0
SPLINE
  5
139
100
AcDbEntity
  8
Capa_1
 62
7
100
AcDbSpline
 70
8
 71
3
 72
8
 73
4
 74
0
 40
0
 40
0
 40
0
 40
0
 40
1
 40
1
 40
1
 40
1
 10
422.340803
 20
94.247178
 30
0.0
 10
421.594186
 20
93.422183
 30
0.0
 10
421.152066
 20
92.747169
 30
0.0
 10
421.358315
 20
92.747169
 30
0.0
  0
SPLINE
  5
13a
100
AcDbEntity
  8
Capa_1
 62
7
100
AcDbSpline
 70
8
 71
3
 72
8
 73
4
 74
0
 40
0
 40
0
 40
0
 40
0
 40
1
 40
1
 40
1
 40
1
 10
421.358315
 20
92.747169
 30
0.0
 10
421.564677
 20
92.747169
 30
0.0
 10
422.344176
 20
93.422183
 30
0.0
 10
423.090794
 20
94.247178
 30
0.0
  0
LWPOLYLINE
  5
13b
100
AcDbEntity
  8
Capa_1
 62
7
100
AcDbPolyline
 90
1
 70
1
 10
419.061487
 20
91.059676
 30
0.0
  0
SPLINE
  5
13c
100
AcDbEntity
  8
Capa_1
 62
7
100
AcDbSpline
 70
8
 71
3
 72
8
 73
4
 74
0
 40
0
 40
0
 40
0
 40
0
 40
1
 40
1
 40
1
 40
1
 10
52.965808
 20
95.962876
 30
0.0
 10
52.965808
 20
96.081647
 30
0.0
 10
51.193933
 20
97.853386
 30
0.0
 10
49.028306
 20
99.900369
 30
0.0
  0
LWPOLYLINE
  5
13d
100
AcDbEntity
  8
Capa_1
 62
7
100
AcDbPolyline
 90
1
 70
1
 10
423.090794
 20
94.247178
 30
0.0
  0
SPLINE
  5
13e
100
AcDbEntity
  8
Capa_1
 62
7
100
AcDbSpline
 70
8
 71
3
 72
8
 73
4
 74
0
 40
0
 40
0
 40
0
 40
0
 40
1
 40
1
 40
1
 40
1
 10
48.812613
 20
99.684680
 30
0.0
 10
52.270982
 20
96.025890
 30
0.0
 10
52.965808
 20
95.403231
 30
0.0
 10
52.965808
 20
95.962876
 30
0.0
  0
LWPOLYLINE
  5
13f
100
AcDbEntity
  8
Capa_1
 62
7
100
AcDbPolyline
 90
3
 70
0
 10
49.028306
 20
99.900369
 30
0.0
 10
45.090808
 20
103.622173
 30
0.0
 10
48.812613
 20
99.684680
 30
0.0
  0
SPLINE
  5
140
100
AcDbEntity
  8
Capa_1
 62
7
100
AcDbSpline
 70
8
 71
3
 72
8
 73
4
 74
0
 40
0
 40
0
 40
0
 40
0
 40
1
 40
1
 40
1
 40
1
 10
427.311468
 20
97.809676
 30
0.0
 10
428.244378
 20
98.999206
 30
0.0
 10
428.217846
 20
99.025739
 30
0.0
 10
427.028287
 20
98.092857
 30
0.0
  0
SPLINE
  5
141
100
AcDbEntity
  8
Capa_1
 62
7
100
AcDbSpline
 70
8
 71
3
 72
8
 73
4
 74
0
 40
0
 40
0
 40
0
 40
0
 40
1
 40
1
 40
1
 40
1
 10
427.028287
 20
98.092857
 30
0.0
 10
426.306416
 20
97.526721
 30
0.0
 10
425.715789
 20
96.936094
 30
0.0
 10
425.715789
 20
96.780359
 30
0.0
  0
SPLINE
  5
142
100
AcDbEntity
  8
Capa_1
 62
7
100
AcDbSpline
 70
8
 71
3
 72
8
 73
4
 74
0
 40
0
 40
0
 40
0
 40
0
 40
1
 40
1
 40
1
 40
1
 10
425.715789
 20
96.780359
 30
0.0
 10
425.715789
 20
96.163087
 30
0.0
 10
426.331672
 20
96.560391
 30
0.0
 10
427.311439
 20
97.809704
 30
0.0
  0
LWPOLYLINE
  5
143
100
AcDbEntity
  8
Capa_1
 62
7
100
AcDbPolyline
 90
1
 70
1
 10
52.965808
 20
95.962876
 30
0.0
  0
SPLINE
  5
144
100
AcDbEntity
  8
Capa_1
 62
7
100
AcDbSpline
 70
8
 71
3
 72
8
 73
4
 74
0
 40
0
 40
0
 40
0
 40
0
 40
1
 40
1
 40
1
 40
1
 10
45.232801
 20
107.559666
 30
0.0
 10
45.044155
 20
108.281537
 30
0.0
 10
44.889809
 20
107.690910
 30
0.0
 10
44.889809
 20
106.247169
 30
0.0
  0
SPLINE
  5
145
100
AcDbEntity
  8
Capa_1
 62
7
100
AcDbSpline
 70
8
 71
3
 72
8
 73
4
 74
0
 40
0
 40
0
 40
0
 40
0
 40
1
 40
1
 40
1
 40
1
 10
44.889809
 20
106.247169
 30
0.0
 10
44.889809
 20
104.803427
 30
0.0
 10
45.044155
 20
104.212800
 30
0.0
 10
45.232801
 20
104.934671
 30
0.0
  0
SPLINE
  5
146
100
AcDbEntity
  8
Capa_1
 62
7
100
AcDbSpline
 70
8
 71
3
 72
8
 73
4
 74
0
 40
0
 40
0
 40
0
 40
0
 40
1
 40
1
 40
1
 40
1
 10
45.232801
 20
104.934671
 30
0.0
 10
45.421447
 20
105.656542
 30
0.0
 10
45.421447
 20
106.837795
 30
0.0
 10
45.232801
 20
107.559666
 30
0.0
  0
LWPOLYLINE
  5
147
100
AcDbEntity
  8
Capa_1
 62
7
100
AcDbPolyline
 90
1
 70
1
 10
427.311439
 20
97.809704
 30
0.0
  0
SPLINE
  5
148
100
AcDbEntity
  8
Capa_1
 62
7
100
AcDbSpline
 70
8
 71
3
 72
8
 73
4
 74
0
 40
0
 40
0
 40
0
 40
0
 40
1
 40
1
 40
1
 40
1
 10
433.728142
 20
105.637805
 30
0.0
 10
433.488614
 20
106.236085
 30
0.0
 10
433.310995
 20
106.058381
 30
0.0
 10
433.275024
 20
105.184658
 30
0.0
  0
SPLINE
  5
149
100
AcDbEntity
  8
Capa_1
 62
7
100
AcDbSpline
 70
8
 71
3
 72
8
 73
4
 74
0
 40
0
 40
0
 40
0
 40
0
 40
1
 40
1
 40
1
 40
1
 10
433.275024
 20
105.184658
 30
0.0
 10
433.242425
 20
104.394047
 30
0.0
 10
433.419591
 20
103.951077
 30
0.0
 10
433.668926
 20
104.200299
 30
0.0
  0
SPLINE
  5
14a
100
AcDbEntity
  8
Capa_1
 62
7
100
AcDbSpline
 70
8
 71
3
 72
8
 73
4
 74
0
 40
0
 40
0
 40
0
 40
0
 40
1
 40
1
 40
1
 40
1
 10
433.668926
 20
104.200299
 30
0.0
 10
433.918091
 20
104.449465
 30
0.0
 10
433.944737
 20
105.096387
 30
0.0
 10
433.728170
 20
105.637805
 30
0.0
  0
LWPOLYLINE
  5
14b
100
AcDbEntity
  8
Capa_1
 62
7
100
AcDbPolyline
 90
1
 70
1
 10
45.232801
 20
107.559666
 30
0.0
  0
SPLINE
  5
14c
100
AcDbEntity
  8
Capa_1
 62
7
100
AcDbSpline
 70
8
 71
3
 72
8
 73
4
 74
0
 40
0
 40
0
 40
0
 40
0
 40
1
 40
1
 40
1
 40
1
 10
97.311475
 20
136.809666
 30
0.0
 10
98.244377
 20
137.999225
 30
0.0
 10
98.217850
 20
138.025729
 30
0.0
 10
97.028294
 20
137.092847
 30
0.0
  0
SPLINE
  5
14d
100
AcDbEntity
  8
Capa_1
 62
7
100
AcDbSpline
 70
8
 71
3
 72
8
 73
4
 74
0
 40
0
 40
0
 40
0
 40
0
 40
1
 40
1
 40
1
 40
1
 10
97.028294
 20
137.092847
 30
0.0
 10
96.306420
 20
136.526712
 30
0.0
 10
95.715794
 20
135.936085
 30
0.0
 10
95.715794
 20
135.780350
 30
0.0
  0
SPLINE
  5
14e
100
AcDbEntity
  8
Capa_1
 62
7
100
AcDbSpline
 70
8
 71
3
 72
8
 73
4
 74
0
 40
0
 40
0
 40
0
 40
0
 40
1
 40
1
 40
1
 40
1
 10
95.715794
 20
135.780350
 30
0.0
 10
95.715794
 20
135.163049
 30
0.0
 10
96.331683
 20
135.560381
 30
0.0
 10
97.311461
 20
136.809666
 30
0.0
  0
LWPOLYLINE
  5
14f
100
AcDbEntity
  8
Capa_1
 62
7
100
AcDbPolyline
 90
1
 70
1
 10
433.728170
 20
105.637805
 30
0.0
  0
SPLINE
  5
150
100
AcDbEntity
  8
Capa_1
 62
7
100
AcDbSpline
 70
8
 71
3
 72
8
 73
4
 74
0
 40
0
 40
0
 40
0
 40
0
 40
1
 40
1
 40
1
 40
1
 10
101.061473
 20
139.809657
 30
0.0
 10
101.994378
 20
140.999216
 30
0.0
 10
101.967851
 20
141.025748
 30
0.0
 10
100.778321
 20
140.092838
 30
0.0
  0
SPLINE
  5
151
100
AcDbEntity
  8
Capa_1
 62
7
100
AcDbSpline
 70
8
 71
3
 72
8
 73
4
 74
0
 40
0
 40
0
 40
0
 40
0
 40
1
 40
1
 40
1
 40
1
 10
100.778321
 20
140.092838
 30
0.0
 10
100.056444
 20
139.526702
 30
0.0
 10
99.465820
 20
138.936076
 30
0.0
 10
99.465820
 20
138.780340
 30
0.0
  0
SPLINE
  5
152
100
AcDbEntity
  8
Capa_1
 62
7
100
AcDbSpline
 70
8
 71
3
 72
8
 73
4
 74
0
 40
0
 40
0
 40
0
 40
0
 40
1
 40
1
 40
1
 40
1
 10
99.465820
 20
138.780340
 30
0.0
 10
99.465820
 20
138.163068
 30
0.0
 10
100.081709
 20
138.560372
 30
0.0
 10
101.061485
 20
139.809657
 30
0.0
  0
LWPOLYLINE
  5
153
100
AcDbEntity
  8
Capa_1
 62
7
100
AcDbPolyline
 90
1
 70
1
 10
97.311461
 20
136.809666
 30
0.0
  0
SPLINE
  5
154
100
AcDbEntity
  8
Capa_1
 62
7
100
AcDbSpline
 70
8
 71
3
 72
8
 73
4
 74
0
 40
0
 40
0
 40
0
 40
0
 40
1
 40
1
 40
1
 40
1
 10
375.465798
 20
139.505924
 30
0.0
 10
375.465798
 20
139.648224
 30
0.0
 10
374.706425
 20
140.407625
 30
0.0
 10
373.778306
 20
141.193417
 30
0.0
  0
LWPOLYLINE
  5
155
100
AcDbEntity
  8
Capa_1
 62
7
100
AcDbPolyline
 90
1
 70
1
 10
101.061485
 20
139.809657
 30
0.0
  0
SPLINE
  5
156
100
AcDbEntity
  8
Capa_1
 62
7
100
AcDbSpline
 70
8
 71
3
 72
8
 73
4
 74
0
 40
0
 40
0
 40
0
 40
0
 40
1
 40
1
 40
1
 40
1
 10
373.519559
 20
140.934671
 30
0.0
 10
374.862217
 20
139.348828
 30
0.0
 10
375.465798
 20
138.905745
 30
0.0
 10
375.465798
 20
139.505924
 30
0.0
  0
LWPOLYLINE
  5
157
100
AcDbEntity
  8
Capa_1
 62
7
100
AcDbPolyline
 90
3
 70
0
 10
373.778306
 20
141.193417
 30
0.0
 10
372.090813
 20
142.622164
 30
0.0
 10
373.519559
 20
140.934671
 30
0.0
  0
SPLINE
  5
158
100
AcDbEntity
  8
Capa_1
 62
7
100
AcDbSpline
 70
8
 71
3
 72
8
 73
4
 74
0
 40
0
 40
0
 40
0
 40
0
 40
1
 40
1
 40
1
 40
1
 10
370.965798
 20
143.231839
 30
0.0
 10
370.965798
 20
143.360816
 30
0.0
 10
369.868932
 20
144.457795
 30
0.0
 10
368.528315
 20
145.669351
 30
0.0
  0
LWPOLYLINE
  5
159
100
AcDbEntity
  8
Capa_1
 62
7
100
AcDbPolyline
 90
1
 70
1
 10
375.465798
 20
139.505924
 30
0.0
  0
SPLINE
  5
15a
100
AcDbEntity
  8
Capa_1
 62
7
100
AcDbSpline
 70
8
 71
3
 72
8
 73
4
 74
0
 40
0
 40
0
 40
0
 40
0
 40
1
 40
1
 40
1
 40
1
 10
368.293635
 20
145.434671
 30
0.0
 10
370.346967
 20
143.162561
 30
0.0
 10
370.965798
 20
142.652438
 30
0.0
 10
370.965798
 20
143.231839
 30
0.0
  0
LWPOLYLINE
  5
15b
100
AcDbEntity
  8
Capa_1
 62
7
100
AcDbPolyline
 90
3
 70
0
 10
368.528315
 20
145.669351
 30
0.0
 10
366.090803
 20
147.872154
 30
0.0
 10
368.293635
 20
145.434671
 30
0.0
  0
SPLINE
  5
15c
100
AcDbEntity
  8
Capa_1
 62
7
100
AcDbSpline
 70
8
 71
3
 72
8
 73
4
 74
0
 40
0
 40
0
 40
0
 40
0
 40
1
 40
1
 40
1
 40
1
 10
112.215810
 20
148.622173
 30
0.0
 10
114.456376
 20
150.890910
 30
0.0
 10
116.120818
 20
152.747178
 30
0.0
 10
115.914569
 20
152.747178
 30
0.0
  0
SPLINE
  5
15d
100
AcDbEntity
  8
Capa_1
 62
7
100
AcDbSpline
 70
8
 71
3
 72
8
 73
4
 74
0
 40
0
 40
0
 40
0
 40
0
 40
1
 40
1
 40
1
 40
1
 10
115.914569
 20
152.747178
 30
0.0
 10
115.708320
 20
152.747178
 30
0.0
 10
113.706377
 20
150.890910
 30
0.0
 10
111.465808
 20
148.622173
 30
0.0
  0
SPLINE
  5
15e
100
AcDbEntity
  8
Capa_1
 62
7
100
AcDbSpline
 70
8
 71
3
 72
8
 73
4
 74
0
 40
0
 40
0
 40
0
 40
0
 40
1
 40
1
 40
1
 40
1
 10
111.465808
 20
148.622173
 30
0.0
 10
109.225242
 20
146.353408
 30
0.0
 10
107.560797
 20
144.497169
 30
0.0
 10
107.767049
 20
144.497169
 30
0.0
  0
SPLINE
  5
15f
100
AcDbEntity
  8
Capa_1
 62
7
100
AcDbSpline
 70
8
 71
3
 72
8
 73
4
 74
0
 40
0
 40
0
 40
0
 40
0
 40
1
 40
1
 40
1
 40
1
 10
107.767049
 20
144.497169
 30
0.0
 10
107.973298
 20
144.497169
 30
0.0
 10
109.975241
 20
146.353408
 30
0.0
 10
112.215810
 20
148.622173
 30
0.0
  0
LWPOLYLINE
  5
160
100
AcDbEntity
  8
Capa_1
 62
7
100
AcDbPolyline
 90
1
 70
1
 10
370.965798
 20
143.231839
 30
0.0
  0
SPLINE
  5
161
100
AcDbEntity
  8
Capa_1
 62
7
100
AcDbSpline
 70
8
 71
3
 72
8
 73
4
 74
0
 40
0
 40
0
 40
0
 40
0
 40
1
 40
1
 40
1
 40
1
 10
364.965817
 20
148.456346
 30
0.0
 10
364.965817
 20
148.571433
 30
0.0
 10
362.687669
 20
150.849496
 30
0.0
 10
359.903310
 20
153.518825
 30
0.0
  0
LWPOLYLINE
  5
162
100
AcDbEntity
  8
Capa_1
 62
7
100
AcDbPolyline
 90
1
 70
1
 10
112.215810
 20
148.622173
 30
0.0
  0
SPLINE
  5
163
100
AcDbEntity
  8
Capa_1
 62
7
100
AcDbSpline
 70
8
 71
3
 72
8
 73
4
 74
0
 40
0
 40
0
 40
0
 40
0
 40
1
 40
1
 40
1
 40
1
 10
359.694142
 20
153.309657
 30
0.0
 10
364.202135
 20
148.607405
 30
0.0
 10
364.965817
 20
147.904328
 30
0.0
 10
364.965817
 20
148.456346
 30
0.0
  0
LWPOLYLINE
  5
164
100
AcDbEntity
  8
Capa_1
 62
7
100
AcDbPolyline
 90
3
 70
0
 10
359.903310
 20
153.518825
 30
0.0
 10
354.840803
 20
158.372164
 30
0.0
 10
359.694142
 20
153.309657
 30
0.0
  0
SPLINE
  5
165
100
AcDbEntity
  8
Capa_1
 62
7
100
AcDbSpline
 70
8
 71
3
 72
8
 73
4
 74
0
 40
0
 40
0
 40
0
 40
0
 40
1
 40
1
 40
1
 40
1
 10
354.465808
 20
159.780331
 30
0.0
 10
354.465808
 20
159.935953
 30
0.0
 10
353.875181
 20
160.526693
 30
0.0
 10
353.153310
 20
161.092828
 30
0.0
  0
SPLINE
  5
166
100
AcDbEntity
  8
Capa_1
 62
7
100
AcDbSpline
 70
8
 71
3
 72
8
 73
4
 74
0
 40
0
 40
0
 40
0
 40
0
 40
1
 40
1
 40
1
 40
1
 10
353.153310
 20
161.092828
 30
0.0
 10
351.963751
 20
162.025739
 30
0.0
 10
351.937247
 20
161.999206
 30
0.0
 10
352.870129
 20
160.809647
 30
0.0
  0
SPLINE
  5
167
100
AcDbEntity
  8
Capa_1
 62
7
100
AcDbSpline
 70
8
 71
3
 72
8
 73
4
 74
0
 40
0
 40
0
 40
0
 40
0
 40
1
 40
1
 40
1
 40
1
 10
352.870129
 20
160.809647
 30
0.0
 10
353.849924
 20
159.560334
 30
0.0
 10
354.465808
 20
159.163030
 30
0.0
 10
354.465808
 20
159.780302
 30
0.0
  0
LWPOLYLINE
  5
168
100
AcDbEntity
  8
Capa_1
 62
7
100
AcDbPolyline
 90
1
 70
1
 10
364.965817
 20
148.456346
 30
0.0
  0
SPLINE
  5
169
100
AcDbEntity
  8
Capa_1
 62
7
100
AcDbSpline
 70
8
 71
3
 72
8
 73
4
 74
0
 40
0
 40
0
 40
0
 40
0
 40
1
 40
1
 40
1
 40
1
 10
349.215817
 20
177.872173
 30
0.0
 10
350.184614
 20
178.903417
 30
0.0
 10
350.808520
 20
179.747178
 30
0.0
 10
350.602271
 20
179.747178
 30
0.0
  0
SPLINE
  5
16a
100
AcDbEntity
  8
Capa_1
 62
7
100
AcDbSpline
 70
8
 71
3
 72
8
 73
4
 74
0
 40
0
 40
0
 40
0
 40
0
 40
1
 40
1
 40
1
 40
1
 10
350.602271
 20
179.747178
 30
0.0
 10
350.395909
 20
179.747178
 30
0.0
 10
349.434624
 20
178.903417
 30
0.0
 10
348.465798
 20
177.872173
 30
0.0
  0
SPLINE
  5
16b
100
AcDbEntity
  8
Capa_1
 62
7
100
AcDbSpline
 70
8
 71
3
 72
8
 73
4
 74
0
 40
0
 40
0
 40
0
 40
0
 40
1
 40
1
 40
1
 40
1
 10
348.465798
 20
177.872173
 30
0.0
 10
347.497002
 20
176.840929
 30
0.0
 10
346.873096
 20
175.997169
 30
0.0
 10
347.079345
 20
175.997169
 30
0.0
  0
SPLINE
  5
16c
100
AcDbEntity
  8
Capa_1
 62
7
100
AcDbSpline
 70
8
 71
3
 72
8
 73
4
 74
0
 40
0
 40
0
 40
0
 40
0
 40
1
 40
1
 40
1
 40
1
 10
347.079345
 20
175.997169
 30
0.0
 10
347.285707
 20
175.997169
 30
0.0
 10
348.246992
 20
176.840929
 30
0.0
 10
349.215817
 20
177.872173
 30
0.0
  0
LWPOLYLINE
  5
16d
100
AcDbEntity
  8
Capa_1
 62
7
100
AcDbPolyline
 90
1
 70
1
 10
354.465808
 20
159.780302
 30
0.0
  0
SPLINE
  5
16e
100
AcDbEntity
  8
Capa_1
 62
7
100
AcDbSpline
 70
8
 71
3
 72
8
 73
4
 74
0
 40
0
 40
0
 40
0
 40
0
 40
1
 40
1
 40
1
 40
1
 10
116.972385
 20
154.660337
 30
0.0
 10
116.480625
 20
155.941824
 30
0.0
 10
119.387684
 20
159.497178
 30
0.0
 10
120.927283
 20
159.497178
 30
0.0
  0
SPLINE
  5
16f
100
AcDbEntity
  8
Capa_1
 62
7
100
AcDbSpline
 70
8
 71
3
 72
8
 73
4
 74
0
 40
0
 40
0
 40
0
 40
0
 40
1
 40
1
 40
1
 40
1
 10
120.927283
 20
159.497178
 30
0.0
 10
122.862336
 20
159.497178
 30
0.0
 10
122.661839
 20
158.058595
 30
0.0
 10
120.413435
 20
155.810183
 30
0.0
  0
SPLINE
  5
170
100
AcDbEntity
  8
Capa_1
 62
7
100
AcDbSpline
 70
8
 71
3
 72
8
 73
4
 74
0
 40
0
 40
0
 40
0
 40
0
 40
1
 40
1
 40
1
 40
1
 10
120.413435
 20
155.810183
 30
0.0
 10
117.752009
 20
153.148762
 30
0.0
 10
117.575113
 20
153.089631
 30
0.0
 10
116.972385
 20
154.660337
 30
0.0
  0
LWPOLYLINE
  5
171
100
AcDbEntity
  8
Capa_1
 62
7
100
AcDbPolyline
 90
1
 70
1
 10
349.215817
 20
177.872173
 30
0.0
  0
SPLINE
  5
172
100
AcDbEntity
  8
Capa_1
 62
7
100
AcDbSpline
 70
8
 71
3
 72
8
 73
4
 74
0
 40
0
 40
0
 40
0
 40
0
 40
1
 40
1
 40
1
 40
1
 10
119.811478
 20
157.059666
 30
0.0
 10
120.744383
 20
158.249225
 30
0.0
 10
120.717853
 20
158.275729
 30
0.0
 10
119.528297
 20
157.342847
 30
0.0
  0
SPLINE
  5
173
100
AcDbEntity
  8
Capa_1
 62
7
100
AcDbSpline
 70
8
 71
3
 72
8
 73
4
 74
0
 40
0
 40
0
 40
0
 40
0
 40
1
 40
1
 40
1
 40
1
 10
119.528297
 20
157.342847
 30
0.0
 10
118.278984
 20
156.363052
 30
0.0
 10
117.881688
 20
155.747169
 30
0.0
 10
118.498966
 20
155.747169
 30
0.0
  0
SPLINE
  5
174
100
AcDbEntity
  8
Capa_1
 62
7
100
AcDbSpline
 70
8
 71
3
 72
8
 73
4
 74
0
 40
0
 40
0
 40
0
 40
0
 40
1
 40
1
 40
1
 40
1
 10
118.498966
 20
155.747169
 30
0.0
 10
118.654702
 20
155.747169
 30
0.0
 10
119.245331
 20
156.337795
 30
0.0
 10
119.811467
 20
157.059666
 30
0.0
  0
LWPOLYLINE
  5
175
100
AcDbEntity
  8
Capa_1
 62
7
100
AcDbPolyline
 90
1
 70
1
 10
116.972385
 20
154.660337
 30
0.0
  0
SPLINE
  5
176
100
AcDbEntity
  8
Capa_1
 62
7
100
AcDbSpline
 70
8
 71
3
 72
8
 73
4
 74
0
 40
0
 40
0
 40
0
 40
0
 40
1
 40
1
 40
1
 40
1
 10
122.242649
 20
159.857518
 30
0.0
 10
122.007969
 20
160.469065
 30
0.0
 10
122.806596
 20
162.237912
 30
0.0
 10
124.020425
 20
163.795011
 30
0.0
  0
SPLINE
  5
177
100
AcDbEntity
  8
Capa_1
 62
7
100
AcDbSpline
 70
8
 71
3
 72
8
 73
4
 74
0
 40
0
 40
0
 40
0
 40
0
 40
1
 40
1
 40
1
 40
1
 10
124.020425
 20
163.795011
 30
0.0
 10
125.232554
 20
165.349956
 30
0.0
 10
127.177926
 20
168.397540
 30
0.0
 10
128.343478
 20
170.567433
 30
0.0
  0
LWPOLYLINE
  5
178
100
AcDbEntity
  8
Capa_1
 62
7
100
AcDbPolyline
 90
1
 70
1
 10
119.811467
 20
157.059666
 30
0.0
  0
SPLINE
  5
179
100
AcDbEntity
  8
Capa_1
 62
7
100
AcDbSpline
 70
8
 71
3
 72
8
 73
4
 74
0
 40
0
 40
0
 40
0
 40
0
 40
1
 40
1
 40
1
 40
1
 10
128.651737
 20
176.461143
 30
0.0
 10
127.655728
 20
177.532781
 30
0.0
 10
124.647058
 20
179.962186
 30
0.0
 10
121.965809
 20
181.859839
 30
0.0
  0
SPLINE
  5
17a
100
AcDbEntity
  8
Capa_1
 62
7
100
AcDbSpline
 70
8
 71
3
 72
8
 73
4
 74
0
 40
0
 40
0
 40
0
 40
0
 40
1
 40
1
 40
1
 40
1
 10
121.965809
 20
181.859839
 30
0.0
 10
115.401478
 20
186.505710
 30
0.0
 10
111.955660
 20
189.996520
 30
0.0
 10
109.645931
 20
194.340501
 30
0.0
  0
SPLINE
  5
17b
100
AcDbEntity
  8
Capa_1
 62
7
100
AcDbSpline
 70
8
 71
3
 72
8
 73
4
 74
0
 40
0
 40
0
 40
0
 40
0
 40
1
 40
1
 40
1
 40
1
 10
109.645931
 20
194.340501
 30
0.0
 10
106.325612
 20
200.585169
 30
0.0
 10
106.112146
 20
200.336542
 30
0.0
 10
121.033012
 20
207.603496
 30
0.0
  0
SPLINE
  5
17c
100
AcDbEntity
  8
Capa_1
 62
7
100
AcDbSpline
 70
8
 71
3
 72
8
 73
4
 74
0
 40
0
 40
0
 40
0
 40
0
 40
1
 40
1
 40
1
 40
1
 10
121.033012
 20
207.603496
 30
0.0
 10
137.200260
 20
215.477490
 30
0.0
 10
144.856140
 20
220.560038
 30
0.0
 10
157.572315
 20
231.861005
 30
0.0
  0
SPLINE
  5
17d
100
AcDbEntity
  8
Capa_1
 62
7
100
AcDbSpline
 70
8
 71
3
 72
8
 73
4
 74
0
 40
0
 40
0
 40
0
 40
0
 40
1
 40
1
 40
1
 40
1
 10
157.572315
 20
231.861005
 30
0.0
 10
166.708463
 20
239.980394
 30
0.0
 10
168.395956
 20
241.081739
 30
0.0
 10
168.986378
 20
239.310454
 30
0.0
  0
SPLINE
  5
17e
100
AcDbEntity
  8
Capa_1
 62
7
100
AcDbSpline
 70
8
 71
3
 72
8
 73
4
 74
0
 40
0
 40
0
 40
0
 40
0
 40
1
 40
1
 40
1
 40
1
 10
168.986378
 20
239.310454
 30
0.0
 10
169.350795
 20
238.217187
 30
0.0
 10
149.718824
 20
221.205883
 30
0.0
 10
142.347660
 20
216.227735
 30
0.0
  0
SPLINE
  5
17f
100
AcDbEntity
  8
Capa_1
 62
7
100
AcDbSpline
 70
8
 71
3
 72
8
 73
4
 74
0
 40
0
 40
0
 40
0
 40
0
 40
1
 40
1
 40
1
 40
1
 10
142.347660
 20
216.227735
 30
0.0
 10
138.768891
 20
213.810775
 30
0.0
 10
130.192311
 20
209.085789
 30
0.0
 10
123.288599
 20
205.727726
 30
0.0
  0
SPLINE
  5
180
100
AcDbEntity
  8
Capa_1
 62
7
100
AcDbSpline
 70
8
 71
3
 72
8
 73
4
 74
0
 40
0
 40
0
 40
0
 40
0
 40
1
 40
1
 40
1
 40
1
 10
123.288599
 20
205.727726
 30
0.0
 10
116.104003
 20
202.233033
 30
0.0
 10
110.731989
 20
199.178957
 30
0.0
 10
110.726099
 20
198.585694
 30
0.0
  0
SPLINE
  5
181
100
AcDbEntity
  8
Capa_1
 62
7
100
AcDbSpline
 70
8
 71
3
 72
8
 73
4
 74
0
 40
0
 40
0
 40
0
 40
0
 40
1
 40
1
 40
1
 40
1
 10
110.726099
 20
198.585694
 30
0.0
 10
110.697384
 20
195.693279
 30
0.0
 10
116.217179
 20
189.207468
 30
0.0
 10
122.222248
 20
185.077672
 30
0.0
  0
SPLINE
  5
182
100
AcDbEntity
  8
Capa_1
 62
7
100
AcDbSpline
 70
8
 71
3
 72
8
 73
4
 74
0
 40
0
 40
0
 40
0
 40
0
 40
1
 40
1
 40
1
 40
1
 10
122.222248
 20
185.077672
 30
0.0
 10
125.909617
 20
182.541770
 30
0.0
 10
133.418863
 20
176.167134
 30
0.0
 10
133.799046
 20
175.250069
 30
0.0
  0
SPLINE
  5
183
100
AcDbEntity
  8
Capa_1
 62
7
100
AcDbSpline
 70
8
 71
3
 72
8
 73
4
 74
0
 40
0
 40
0
 40
0
 40
0
 40
1
 40
1
 40
1
 40
1
 10
133.799046
 20
175.250069
 30
0.0
 10
134.246594
 20
174.170494
 30
0.0
 10
124.414123
 20
158.797361
 30
0.0
 10
123.254773
 20
158.764025
 30
0.0
  0
SPLINE
  5
184
100
AcDbEntity
  8
Capa_1
 62
7
100
AcDbSpline
 70
8
 71
3
 72
8
 73
4
 74
0
 40
0
 40
0
 40
0
 40
0
 40
1
 40
1
 40
1
 40
1
 10
123.254773
 20
158.764025
 30
0.0
 10
122.932446
 20
158.755521
 30
0.0
 10
122.476995
 20
159.246822
 30
0.0
 10
122.242649
 20
159.857518
 30
0.0
  0
LWPOLYLINE
  5
185
100
AcDbEntity
  8
Capa_1
 62
7
100
AcDbPolyline
 90
3
 70
0
 10
128.343478
 20
170.567433
 30
0.0
 10
130.462671
 20
174.512721
 30
0.0
 10
128.651737
 20
176.461143
 30
0.0
  0
SPLINE
  5
186
100
AcDbEntity
  8
Capa_1
 62
7
100
AcDbSpline
 70
8
 71
3
 72
8
 73
4
 74
0
 40
0
 40
0
 40
0
 40
0
 40
1
 40
1
 40
1
 40
1
 10
130.965809
 20
176.231849
 30
0.0
 10
130.965809
 20
176.360825
 30
0.0
 10
129.868934
 20
177.457805
 30
0.0
 10
128.528308
 20
178.669361
 30
0.0
  0
LWPOLYLINE
  5
187
100
AcDbEntity
  8
Capa_1
 62
7
100
AcDbPolyline
 90
1
 70
1
 10
122.242649
 20
159.857518
 30
0.0
  0
SPLINE
  5
188
100
AcDbEntity
  8
Capa_1
 62
7
100
AcDbSpline
 70
8
 71
3
 72
8
 73
4
 74
0
 40
0
 40
0
 40
0
 40
0
 40
1
 40
1
 40
1
 40
1
 10
128.293625
 20
178.434680
 30
0.0
 10
130.346960
 20
176.162570
 30
0.0
 10
130.965809
 20
175.652419
 30
0.0
 10
130.965809
 20
176.231849
 30
0.0
  0
LWPOLYLINE
  5
189
100
AcDbEntity
  8
Capa_1
 62
7
100
AcDbPolyline
 90
3
 70
0
 10
128.528308
 20
178.669361
 30
0.0
 10
126.090808
 20
180.872164
 30
0.0
 10
128.293625
 20
178.434680
 30
0.0
  0
SPLINE
  5
18a
100
AcDbEntity
  8
Capa_1
 62
7
100
AcDbSpline
 70
8
 71
3
 72
8
 73
4
 74
0
 40
0
 40
0
 40
0
 40
0
 40
1
 40
1
 40
1
 40
1
 10
150.090809
 20
223.247169
 30
0.0
 10
150.837426
 20
224.072164
 30
0.0
 10
151.279546
 20
224.747150
 30
0.0
 10
151.073294
 20
224.747150
 30
0.0
  0
SPLINE
  5
18b
100
AcDbEntity
  8
Capa_1
 62
7
100
AcDbSpline
 70
8
 71
3
 72
8
 73
4
 74
0
 40
0
 40
0
 40
0
 40
0
 40
1
 40
1
 40
1
 40
1
 10
151.073294
 20
224.747150
 30
0.0
 10
150.867045
 20
224.747150
 30
0.0
 10
150.087427
 20
224.072164
 30
0.0
 10
149.340810
 20
223.247169
 30
0.0
  0
SPLINE
  5
18c
100
AcDbEntity
  8
Capa_1
 62
7
100
AcDbSpline
 70
8
 71
3
 72
8
 73
4
 74
0
 40
0
 40
0
 40
0
 40
0
 40
1
 40
1
 40
1
 40
1
 10
149.340810
 20
223.247169
 30
0.0
 10
148.594192
 20
222.422173
 30
0.0
 10
148.152076
 20
221.747159
 30
0.0
 10
148.358324
 20
221.747159
 30
0.0
  0
SPLINE
  5
18d
100
AcDbEntity
  8
Capa_1
 62
7
100
AcDbSpline
 70
8
 71
3
 72
8
 73
4
 74
0
 40
0
 40
0
 40
0
 40
0
 40
1
 40
1
 40
1
 40
1
 10
148.358324
 20
221.747159
 30
0.0
 10
148.564573
 20
221.747159
 30
0.0
 10
149.344191
 20
222.422173
 30
0.0
 10
150.090809
 20
223.247169
 30
0.0
  0
LWPOLYLINE
  5
18e
100
AcDbEntity
  8
Capa_1
 62
7
100
AcDbPolyline
 90
1
 70
1
 10
130.965809
 20
176.231849
 30
0.0
  0
SPLINE
  5
18f
100
AcDbEntity
  8
Capa_1
 62
7
100
AcDbSpline
 70
8
 71
3
 72
8
 73
4
 74
0
 40
0
 40
0
 40
0
 40
0
 40
1
 40
1
 40
1
 40
1
 10
155.715809
 20
228.122164
 30
0.0
 10
157.115146
 20
229.565906
 30
0.0
 10
158.091307
 20
230.747159
 30
0.0
 10
157.885058
 20
230.747159
 30
0.0
  0
SPLINE
  5
190
100
AcDbEntity
  8
Capa_1
 62
7
100
AcDbSpline
 70
8
 71
3
 72
8
 73
4
 74
0
 40
0
 40
0
 40
0
 40
0
 40
1
 40
1
 40
1
 40
1
 10
157.885058
 20
230.747159
 30
0.0
 10
157.678809
 20
230.747159
 30
0.0
 10
156.365144
 20
229.565906
 30
0.0
 10
154.965810
 20
228.122164
 30
0.0
  0
SPLINE
  5
191
100
AcDbEntity
  8
Capa_1
 62
7
100
AcDbSpline
 70
8
 71
3
 72
8
 73
4
 74
0
 40
0
 40
0
 40
0
 40
0
 40
1
 40
1
 40
1
 40
1
 10
154.965810
 20
228.122164
 30
0.0
 10
153.566476
 20
226.678422
 30
0.0
 10
152.590311
 20
225.497169
 30
0.0
 10
152.796563
 20
225.497169
 30
0.0
  0
SPLINE
  5
192
100
AcDbEntity
  8
Capa_1
 62
7
100
AcDbSpline
 70
8
 71
3
 72
8
 73
4
 74
0
 40
0
 40
0
 40
0
 40
0
 40
1
 40
1
 40
1
 40
1
 10
152.796563
 20
225.497169
 30
0.0
 10
153.002812
 20
225.497169
 30
0.0
 10
154.316475
 20
226.678422
 30
0.0
 10
155.715809
 20
228.122164
 30
0.0
  0
LWPOLYLINE
  5
193
100
AcDbEntity
  8
Capa_1
 62
7
100
AcDbPolyline
 90
1
 70
1
 10
150.090809
 20
223.247169
 30
0.0
  0
SPLINE
  5
194
100
AcDbEntity
  8
Capa_1
 62
7
100
AcDbSpline
 70
8
 71
3
 72
8
 73
4
 74
0
 40
0
 40
0
 40
0
 40
0
 40
1
 40
1
 40
1
 40
1
 10
162.465809
 20
234.122173
 30
0.0
 10
163.865146
 20
235.565915
 30
0.0
 10
164.841307
 20
236.747169
 30
0.0
 10
164.635058
 20
236.747169
 30
0.0
  0
SPLINE
  5
195
100
AcDbEntity
  8
Capa_1
 62
7
100
AcDbSpline
 70
8
 71
3
 72
8
 73
4
 74
0
 40
0
 40
0
 40
0
 40
0
 40
1
 40
1
 40
1
 40
1
 10
164.635058
 20
236.747169
 30
0.0
 10
164.428809
 20
236.747169
 30
0.0
 10
163.115144
 20
235.565915
 30
0.0
 10
161.715810
 20
234.122173
 30
0.0
  0
SPLINE
  5
196
100
AcDbEntity
  8
Capa_1
 62
7
100
AcDbSpline
 70
8
 71
3
 72
8
 73
4
 74
0
 40
0
 40
0
 40
0
 40
0
 40
1
 40
1
 40
1
 40
1
 10
161.715810
 20
234.122173
 30
0.0
 10
160.316476
 20
232.678403
 30
0.0
 10
159.340311
 20
231.497150
 30
0.0
 10
159.546563
 20
231.497150
 30
0.0
  0
SPLINE
  5
197
100
AcDbEntity
  8
Capa_1
 62
7
100
AcDbSpline
 70
8
 71
3
 72
8
 73
4
 74
0
 40
0
 40
0
 40
0
 40
0
 40
1
 40
1
 40
1
 40
1
 10
159.546563
 20
231.497150
 30
0.0
 10
159.752812
 20
231.497150
 30
0.0
 10
161.066475
 20
232.678403
 30
0.0
 10
162.465809
 20
234.122173
 30
0.0
  0
LWPOLYLINE
  5
198
100
AcDbEntity
  8
Capa_1
 62
7
100
AcDbPolyline
 90
1
 70
1
 10
155.715809
 20
228.122164
 30
0.0
  0
SPLINE
  5
199
100
AcDbEntity
  8
Capa_1
 62
7
100
AcDbSpline
 70
8
 71
3
 72
8
 73
4
 74
0
 40
0
 40
0
 40
0
 40
0
 40
1
 40
1
 40
1
 40
1
 10
353.337647
 20
182.002280
 30
0.0
 10
352.788123
 20
182.891424
 30
0.0
 10
354.888198
 20
185.978551
 30
0.0
 10
358.152208
 20
189.079710
 30
0.0
  0
SPLINE
  5
19a
100
AcDbEntity
  8
Capa_1
 62
7
100
AcDbSpline
 70
8
 71
3
 72
8
 73
4
 74
0
 40
0
 40
0
 40
0
 40
0
 40
1
 40
1
 40
1
 40
1
 10
358.152208
 20
189.079710
 30
0.0
 10
359.867622
 20
190.709546
 30
0.0
 10
360.695594
 20
191.067364
 30
0.0
 10
361.315956
 20
190.447002
 30
0.0
  0
SPLINE
  5
19b
100
AcDbEntity
  8
Capa_1
 62
7
100
AcDbSpline
 70
8
 71
3
 72
8
 73
4
 74
0
 40
0
 40
0
 40
0
 40
0
 40
1
 40
1
 40
1
 40
1
 10
361.315956
 20
190.447002
 30
0.0
 10
361.936318
 20
189.826639
 30
0.0
 10
361.198885
 20
188.515304
 30
0.0
 10
358.498517
 20
185.436397
 30
0.0
  0
SPLINE
  5
19c
100
AcDbEntity
  8
Capa_1
 62
7
100
AcDbSpline
 70
8
 71
3
 72
8
 73
4
 74
0
 40
0
 40
0
 40
0
 40
0
 40
1
 40
1
 40
1
 40
1
 10
358.498517
 20
185.436397
 30
0.0
 10
354.711713
 20
181.118891
 30
0.0
 10
354.124913
 20
180.728447
 30
0.0
 10
353.337647
 20
182.002280
 30
0.0
  0
LWPOLYLINE
  5
19d
100
AcDbEntity
  8
Capa_1
 62
7
100
AcDbPolyline
 90
1
 70
1
 10
162.465809
 20
234.122173
 30
0.0
  0
LWPOLYLINE
  5
19e
100
AcDbEntity
  8
Capa_1
 62
7
100
AcDbPolyline
 90
1
 70
1
 10
353.337647
 20
182.002280
 30
0.0
  0
SPLINE
  5
19f
100
AcDbEntity
  8
Capa_1
 62
7
100
AcDbSpline
 70
8
 71
3
 72
8
 73
4
 74
0
 40
0
 40
0
 40
0
 40
0
 40
1
 40
1
 40
1
 40
1
 10
358.403301
 20
187.669361
 30
0.0
 10
356.131219
 20
185.616000
 30
0.0
 10
355.621068
 20
184.997169
 30
0.0
 10
356.200498
 20
184.997169
 30
0.0
  0
SPLINE
  5
1a0
100
AcDbEntity
  8
Capa_1
 62
7
100
AcDbSpline
 70
8
 71
3
 72
8
 73
4
 74
0
 40
0
 40
0
 40
0
 40
0
 40
1
 40
1
 40
1
 40
1
 10
356.200498
 20
184.997169
 30
0.0
 10
356.329474
 20
184.997169
 30
0.0
 10
357.426425
 20
186.094035
 30
0.0
 10
358.637981
 20
187.434652
 30
0.0
  0
LWPOLYLINE
  5
1a1
100
AcDbEntity
  8
Capa_1
 62
7
100
AcDbPolyline
 90
3
 70
0
 10
358.637981
 20
187.434652
 30
0.0
 10
360.840813
 20
189.872164
 30
0.0
 10
358.403301
 20
187.669361
 30
0.0
  0
SPLINE
  5
1a2
100
AcDbEntity
  8
Capa_1
 62
7
100
AcDbSpline
 70
8
 71
3
 72
8
 73
4
 74
0
 40
0
 40
0
 40
0
 40
0
 40
1
 40
1
 40
1
 40
1
 10
361.546753
 20
191.068469
 30
0.0
 10
361.267540
 20
191.520170
 30
0.0
 10
361.701524
 20
192.785811
 30
0.0
 10
362.511269
 20
193.880976
 30
0.0
  0
SPLINE
  5
1a3
100
AcDbEntity
  8
Capa_1
 62
7
100
AcDbSpline
 70
8
 71
3
 72
8
 73
4
 74
0
 40
0
 40
0
 40
0
 40
0
 40
1
 40
1
 40
1
 40
1
 10
362.511269
 20
193.880976
 30
0.0
 10
363.320957
 20
194.976113
 30
0.0
 10
364.581609
 20
197.028964
 30
0.0
 10
365.312721
 20
198.442800
 30
0.0
  0
SPLINE
  5
1a4
100
AcDbEntity
  8
Capa_1
 62
7
100
AcDbSpline
 70
8
 71
3
 72
8
 73
4
 74
0
 40
0
 40
0
 40
0
 40
0
 40
1
 40
1
 40
1
 40
1
 10
365.312721
 20
198.442800
 30
0.0
 10
366.594009
 20
200.920592
 30
0.0
 10
366.591430
 20
201.050816
 30
0.0
 10
365.241288
 20
202.048271
 30
0.0
  0
SPLINE
  5
1a5
100
AcDbEntity
  8
Capa_1
 62
7
100
AcDbSpline
 70
8
 71
3
 72
8
 73
4
 74
0
 40
0
 40
0
 40
0
 40
0
 40
1
 40
1
 40
1
 40
1
 10
365.241288
 20
202.048271
 30
0.0
 10
362.636929
 20
203.972457
 30
0.0
 10
343.633861
 20
214.793575
 30
0.0
 10
337.215685
 20
218.007156
 30
0.0
  0
SPLINE
  5
1a6
100
AcDbEntity
  8
Capa_1
 62
7
100
AcDbSpline
 70
8
 71
3
 72
8
 73
4
 74
0
 40
0
 40
0
 40
0
 40
0
 40
1
 40
1
 40
1
 40
1
 10
337.215685
 20
218.007156
 30
0.0
 10
326.711083
 20
223.266841
 30
0.0
 10
314.452517
 20
231.728825
 30
0.0
 10
307.113562
 20
238.786441
 30
0.0
  0
SPLINE
  5
1a7
100
AcDbEntity
  8
Capa_1
 62
7
100
AcDbSpline
 70
8
 71
3
 72
8
 73
4
 74
0
 40
0
 40
0
 40
0
 40
0
 40
1
 40
1
 40
1
 40
1
 10
307.113562
 20
238.786441
 30
0.0
 10
300.525279
 20
245.122129
 30
0.0
 10
292.965704
 20
254.691609
 30
0.0
 10
292.965704
 20
256.695789
 30
0.0
  0
SPLINE
  5
1a8
100
AcDbEntity
  8
Capa_1
 62
7
100
AcDbSpline
 70
8
 71
3
 72
8
 73
4
 74
0
 40
0
 40
0
 40
0
 40
0
 40
1
 40
1
 40
1
 40
1
 10
292.965704
 20
256.695789
 30
0.0
 10
292.965704
 20
257.225669
 30
0.0
 10
295.066035
 20
258.775880
 30
0.0
 10
297.633146
 20
260.140677
 30
0.0
  0
SPLINE
  5
1a9
100
AcDbEntity
  8
Capa_1
 62
7
100
AcDbSpline
 70
8
 71
3
 72
8
 73
4
 74
0
 40
0
 40
0
 40
0
 40
0
 40
1
 40
1
 40
1
 40
1
 10
297.633146
 20
260.140677
 30
0.0
 10
300.200230
 20
261.505502
 30
0.0
 10
304.433858
 20
264.615392
 30
0.0
 10
307.041222
 20
267.051572
 30
0.0
  0
SPLINE
  5
1aa
100
AcDbEntity
  8
Capa_1
 62
7
100
AcDbSpline
 70
8
 71
3
 72
8
 73
4
 74
0
 40
0
 40
0
 40
0
 40
0
 40
1
 40
1
 40
1
 40
1
 10
307.041222
 20
267.051572
 30
0.0
 10
310.646608
 20
270.420321
 30
0.0
 10
311.990854
 20
271.271991
 30
0.0
 10
312.654728
 20
270.608117
 30
0.0
  0
SPLINE
  5
1ab
100
AcDbEntity
  8
Capa_1
 62
7
100
AcDbSpline
 70
8
 71
3
 72
8
 73
4
 74
0
 40
0
 40
0
 40
0
 40
0
 40
1
 40
1
 40
1
 40
1
 10
312.654728
 20
270.608117
 30
0.0
 10
313.895906
 20
269.366967
 30
0.0
 10
306.882907
 20
262.434076
 30
0.0
 10
300.769965
 20
258.859077
 30
0.0
  0
LWPOLYLINE
  5
1ac
100
AcDbEntity
  8
Capa_1
 62
7
100
AcDbPolyline
 90
1
 70
1
 10
358.637981
 20
187.434652
 30
0.0
  0
SPLINE
  5
1ad
100
AcDbEntity
  8
Capa_1
 62
7
100
AcDbSpline
 70
8
 71
3
 72
8
 73
4
 74
0
 40
0
 40
0
 40
0
 40
0
 40
1
 40
1
 40
1
 40
1
 10
299.084854
 20
251.663896
 30
0.0
 10
306.734003
 20
240.759298
 30
0.0
 10
322.077458
 20
228.806022
 30
0.0
 10
340.965694
 20
219.036699
 30
0.0
  0
SPLINE
  5
1ae
100
AcDbEntity
  8
Capa_1
 62
7
100
AcDbSpline
 70
8
 71
3
 72
8
 73
4
 74
0
 40
0
 40
0
 40
0
 40
0
 40
1
 40
1
 40
1
 40
1
 10
340.965694
 20
219.036699
 30
0.0
 10
354.416683
 20
212.079600
 30
0.0
 10
369.465704
 20
202.961622
 30
0.0
 10
369.465704
 20
201.768945
 30
0.0
  0
SPLINE
  5
1af
100
AcDbEntity
  8
Capa_1
 62
7
100
AcDbSpline
 70
8
 71
3
 72
8
 73
4
 74
0
 40
0
 40
0
 40
0
 40
0
 40
1
 40
1
 40
1
 40
1
 10
369.465704
 20
201.768945
 30
0.0
 10
369.465704
 20
199.544315
 30
0.0
 10
363.940894
 20
190.247159
 30
0.0
 10
362.618901
 20
190.247159
 30
0.0
  0
SPLINE
  5
1b0
100
AcDbEntity
  8
Capa_1
 62
7
100
AcDbSpline
 70
8
 71
3
 72
8
 73
4
 74
0
 40
0
 40
0
 40
0
 40
0
 40
1
 40
1
 40
1
 40
1
 10
362.618901
 20
190.247159
 30
0.0
 10
362.308337
 20
190.247159
 30
0.0
 10
361.825795
 20
190.616740
 30
0.0
 10
361.546639
 20
191.068469
 30
0.0
  0
LWPOLYLINE
  5
1b1
100
AcDbEntity
  8
Capa_1
 62
7
100
AcDbPolyline
 90
3
 70
0
 10
300.769965
 20
258.859077
 30
0.0
 10
295.996110
 20
256.067235
 30
0.0
 10
299.084854
 20
251.663896
 30
0.0
  0
SPLINE
  5
1b2
100
AcDbEntity
  8
Capa_1
 62
7
100
AcDbSpline
 70
8
 71
3
 72
8
 73
4
 74
0
 40
0
 40
0
 40
0
 40
0
 40
1
 40
1
 40
1
 40
1
 10
316.215808
 20
232.530321
 30
0.0
 10
316.215808
 20
232.685943
 30
0.0
 10
315.625181
 20
233.276683
 30
0.0
 10
314.903310
 20
233.842819
 30
0.0
  0
SPLINE
  5
1b3
100
AcDbEntity
  8
Capa_1
 62
7
100
AcDbSpline
 70
8
 71
3
 72
8
 73
4
 74
0
 40
0
 40
0
 40
0
 40
0
 40
1
 40
1
 40
1
 40
1
 10
314.903310
 20
233.842819
 30
0.0
 10
313.713751
 20
234.775729
 30
0.0
 10
313.687219
 20
234.749197
 30
0.0
 10
314.620129
 20
233.559638
 30
0.0
  0
SPLINE
  5
1b4
100
AcDbEntity
  8
Capa_1
 62
7
100
AcDbSpline
 70
8
 71
3
 72
8
 73
4
 74
0
 40
0
 40
0
 40
0
 40
0
 40
1
 40
1
 40
1
 40
1
 10
314.620129
 20
233.559638
 30
0.0
 10
315.599924
 20
232.310324
 30
0.0
 10
316.215808
 20
231.913020
 30
0.0
 10
316.215808
 20
232.530293
 30
0.0
  0
LWPOLYLINE
  5
1b5
100
AcDbEntity
  8
Capa_1
 62
7
100
AcDbPolyline
 90
2
 70
0
 10
361.546639
 20
191.068469
 30
0.0
 10
361.546753
 20
191.068469
 30
0.0
  0
SPLINE
  5
1b6
100
AcDbEntity
  8
Capa_1
 62
7
100
AcDbSpline
 70
8
 71
3
 72
8
 73
4
 74
0
 40
0
 40
0
 40
0
 40
0
 40
1
 40
1
 40
1
 40
1
 10
312.465798
 20
235.452246
 30
0.0
 10
312.465798
 20
235.565065
 30
0.0
 10
309.681439
 20
238.349424
 30
0.0
 10
306.278306
 20
241.639767
 30
0.0
  0
LWPOLYLINE
  5
1b7
100
AcDbEntity
  8
Capa_1
 62
7
100
AcDbPolyline
 90
1
 70
1
 10
316.215808
 20
232.530293
 30
0.0
  0
SPLINE
  5
1b8
100
AcDbEntity
  8
Capa_1
 62
7
100
AcDbSpline
 70
8
 71
3
 72
8
 73
4
 74
0
 40
0
 40
0
 40
0
 40
0
 40
1
 40
1
 40
1
 40
1
 10
306.073219
 20
241.434652
 30
0.0
 10
311.629493
 20
235.687890
 30
0.0
 10
312.465798
 20
234.905244
 30
0.0
 10
312.465798
 20
235.452246
 30
0.0
  0
LWPOLYLINE
  5
1b9
100
AcDbEntity
  8
Capa_1
 62
7
100
AcDbPolyline
 90
3
 70
0
 10
306.278306
 20
241.639767
 30
0.0
 10
300.090813
 20
247.622173
 30
0.0
 10
306.073219
 20
241.434652
 30
0.0
  0
SPLINE
  5
1ba
100
AcDbEntity
  8
Capa_1
 62
7
100
AcDbSpline
 70
8
 71
3
 72
8
 73
4
 74
0
 40
0
 40
0
 40
0
 40
0
 40
1
 40
1
 40
1
 40
1
 10
311.715808
 20
269.528315
 30
0.0
 10
311.715808
 20
270.091474
 30
0.0
 10
311.042438
 20
269.496000
 30
0.0
 10
307.934476
 20
266.184652
 30
0.0
  0
LWPOLYLINE
  5
1bb
100
AcDbEntity
  8
Capa_1
 62
7
100
AcDbPolyline
 90
1
 70
1
 10
312.465798
 20
235.452246
 30
0.0
  0
SPLINE
  5
1bc
100
AcDbEntity
  8
Capa_1
 62
7
100
AcDbSpline
 70
8
 71
3
 72
8
 73
4
 74
0
 40
0
 40
0
 40
0
 40
0
 40
1
 40
1
 40
1
 40
1
 10
308.153310
 20
265.965817
 30
0.0
 10
310.112674
 20
267.804822
 30
0.0
 10
311.715808
 20
269.407956
 30
0.0
 10
311.715808
 20
269.528315
 30
0.0
  0
LWPOLYLINE
  5
1bd
100
AcDbEntity
  8
Capa_1
 62
7
100
AcDbPolyline
 90
3
 70
0
 10
307.934476
 20
266.184652
 30
0.0
 10
304.590813
 20
262.622154
 30
0.0
 10
308.153310
 20
265.965817
 30
0.0
  0
SPLINE
  5
1be
100
AcDbEntity
  8
Capa_1
 62
7
100
AcDbSpline
 70
8
 71
3
 72
8
 73
4
 74
0
 40
0
 40
0
 40
0
 40
0
 40
1
 40
1
 40
1
 40
1
 10
168.981435
 20
240.231543
 30
0.0
 10
168.021856
 20
241.191128
 30
0.0
 10
168.455925
 20
241.891795
 30
0.0
 10
174.556987
 20
249.231855
 30
0.0
  0
LWPOLYLINE
  5
1bf
100
AcDbEntity
  8
Capa_1
 62
7
100
AcDbPolyline
 90
1
 70
1
 10
311.715808
 20
269.528315
 30
0.0
  0
SPLINE
  5
1c0
100
AcDbEntity
  8
Capa_1
 62
7
100
AcDbSpline
 70
8
 71
3
 72
8
 73
4
 74
0
 40
0
 40
0
 40
0
 40
0
 40
1
 40
1
 40
1
 40
1
 10
177.422760
 20
257.929824
 30
0.0
 10
171.848611
 20
260.297178
 30
0.0
 10
164.896140
 20
267.141373
 30
0.0
 10
159.323542
 20
275.747159
 30
0.0
  0
SPLINE
  5
1c1
100
AcDbEntity
  8
Capa_1
 62
7
100
AcDbSpline
 70
8
 71
3
 72
8
 73
4
 74
0
 40
0
 40
0
 40
0
 40
0
 40
1
 40
1
 40
1
 40
1
 10
159.323542
 20
275.747159
 30
0.0
 10
156.518887
 20
280.078413
 30
0.0
 10
154.222291
 20
283.973726
 30
0.0
 10
154.219986
 20
284.403430
 30
0.0
  0
SPLINE
  5
1c2
100
AcDbEntity
  8
Capa_1
 62
7
100
AcDbSpline
 70
8
 71
3
 72
8
 73
4
 74
0
 40
0
 40
0
 40
0
 40
0
 40
1
 40
1
 40
1
 40
1
 10
154.219986
 20
284.403430
 30
0.0
 10
154.217738
 20
284.833106
 30
0.0
 10
156.156435
 20
286.119269
 30
0.0
 10
158.528310
 20
287.261546
 30
0.0
  0
SPLINE
  5
1c3
100
AcDbEntity
  8
Capa_1
 62
7
100
AcDbSpline
 70
8
 71
3
 72
8
 73
4
 74
0
 40
0
 40
0
 40
0
 40
0
 40
1
 40
1
 40
1
 40
1
 10
158.528310
 20
287.261546
 30
0.0
 10
167.053439
 20
291.367191
 30
0.0
 10
182.254124
 20
300.971083
 30
0.0
 10
188.238983
 20
306.032967
 30
0.0
  0
SPLINE
  5
1c4
100
AcDbEntity
  8
Capa_1
 62
7
100
AcDbSpline
 70
8
 71
3
 72
8
 73
4
 74
0
 40
0
 40
0
 40
0
 40
0
 40
1
 40
1
 40
1
 40
1
 10
188.238983
 20
306.032967
 30
0.0
 10
196.526041
 20
313.041997
 30
0.0
 10
200.290241
 20
316.600866
 30
0.0
 10
201.410575
 20
315.464570
 30
0.0
  0
SPLINE
  5
1c5
100
AcDbEntity
  8
Capa_1
 62
7
100
AcDbSpline
 70
8
 71
3
 72
8
 73
4
 74
0
 40
0
 40
0
 40
0
 40
0
 40
1
 40
1
 40
1
 40
1
 10
201.410575
 20
315.464570
 30
0.0
 10
202.111546
 20
314.753613
 30
0.0
 10
199.130587
 20
311.309121
 30
0.0
 10
197.501355
 20
310.114658
 30
0.0
  0
SPLINE
  5
1c6
100
AcDbEntity
  8
Capa_1
 62
7
100
AcDbSpline
 70
8
 71
3
 72
8
 73
4
 74
0
 40
0
 40
0
 40
0
 40
0
 40
1
 40
1
 40
1
 40
1
 10
197.501355
 20
310.114658
 30
0.0
 10
196.352161
 20
309.272117
 30
0.0
 10
192.912361
 20
306.458561
 30
0.0
 10
189.857356
 20
303.862280
 30
0.0
  0
SPLINE
  5
1c7
100
AcDbEntity
  8
Capa_1
 62
7
100
AcDbSpline
 70
8
 71
3
 72
8
 73
4
 74
0
 40
0
 40
0
 40
0
 40
0
 40
1
 40
1
 40
1
 40
1
 10
189.857356
 20
303.862280
 30
0.0
 10
183.883119
 20
298.785146
 30
0.0
 10
174.234900
 20
292.539090
 30
0.0
 10
163.883976
 20
287.047672
 30
0.0
  0
LWPOLYLINE
  5
1c8
100
AcDbEntity
  8
Capa_1
 62
7
100
AcDbPolyline
 90
3
 70
0
 10
174.556987
 20
249.231855
 30
0.0
 10
180.648159
 20
256.560009
 30
0.0
 10
177.422760
 20
257.929824
 30
0.0
  0
SPLINE
  5
1c9
100
AcDbEntity
  8
Capa_1
 62
7
100
AcDbSpline
 70
8
 71
3
 72
8
 73
4
 74
0
 40
0
 40
0
 40
0
 40
0
 40
1
 40
1
 40
1
 40
1
 10
162.081082
 20
276.454517
 30
0.0
 10
167.326214
 20
268.376372
 30
0.0
 10
174.246143
 20
261.894132
 30
0.0
 10
179.949991
 20
259.715792
 30
0.0
  0
SPLINE
  5
1ca
100
AcDbEntity
  8
Capa_1
 62
7
100
AcDbSpline
 70
8
 71
3
 72
8
 73
4
 74
0
 40
0
 40
0
 40
0
 40
0
 40
1
 40
1
 40
1
 40
1
 10
179.949991
 20
259.715792
 30
0.0
 10
183.692789
 20
258.286422
 30
0.0
 10
183.960578
 20
257.836450
 30
0.0
 10
182.601624
 20
255.260353
 30
0.0
  0
SPLINE
  5
1cb
100
AcDbEntity
  8
Capa_1
 62
7
100
AcDbSpline
 70
8
 71
3
 72
8
 73
4
 74
0
 40
0
 40
0
 40
0
 40
0
 40
1
 40
1
 40
1
 40
1
 10
182.601624
 20
255.260353
 30
0.0
 10
181.656893
 20
253.469480
 30
0.0
 10
170.787713
 20
240.247446
 30
0.0
 10
169.990291
 20
239.919052
 30
0.0
  0
SPLINE
  5
1cc
100
AcDbEntity
  8
Capa_1
 62
7
100
AcDbSpline
 70
8
 71
3
 72
8
 73
4
 74
0
 40
0
 40
0
 40
0
 40
0
 40
1
 40
1
 40
1
 40
1
 10
169.990291
 20
239.919052
 30
0.0
 10
169.719015
 20
239.807367
 30
0.0
 10
169.265024
 20
239.947965
 30
0.0
 10
168.981435
 20
240.231543
 30
0.0
  0
LWPOLYLINE
  5
1cd
100
AcDbEntity
  8
Capa_1
 62
7
100
AcDbPolyline
 90
3
 70
0
 10
163.883976
 20
287.047672
 30
0.0
 10
157.427144
 20
283.622145
 30
0.0
 10
162.081082
 20
276.454517
 30
0.0
  0
SPLINE
  5
1ce
100
AcDbEntity
  8
Capa_1
 62
7
100
AcDbSpline
 70
8
 71
3
 72
8
 73
4
 74
0
 40
0
 40
0
 40
0
 40
0
 40
1
 40
1
 40
1
 40
1
 10
172.311480
 20
244.059647
 30
0.0
 10
173.244382
 20
245.249206
 30
0.0
 10
173.217855
 20
245.275739
 30
0.0
 10
172.028299
 20
244.342828
 30
0.0
  0
SPLINE
  5
1cf
100
AcDbEntity
  8
Capa_1
 62
7
100
AcDbSpline
 70
8
 71
3
 72
8
 73
4
 74
0
 40
0
 40
0
 40
0
 40
0
 40
1
 40
1
 40
1
 40
1
 10
172.028299
 20
244.342828
 30
0.0
 10
171.306422
 20
243.776693
 30
0.0
 10
170.715798
 20
243.186066
 30
0.0
 10
170.715798
 20
243.030331
 30
0.0
  0
SPLINE
  5
1d0
100
AcDbEntity
  8
Capa_1
 62
7
100
AcDbSpline
 70
8
 71
3
 72
8
 73
4
 74
0
 40
0
 40
0
 40
0
 40
0
 40
1
 40
1
 40
1
 40
1
 10
170.715798
 20
243.030331
 30
0.0
 10
170.715798
 20
242.413058
 30
0.0
 10
171.331690
 20
242.810362
 30
0.0
 10
172.311469
 20
244.059647
 30
0.0
  0
LWPOLYLINE
  5
1d1
100
AcDbEntity
  8
Capa_1
 62
7
100
AcDbPolyline
 90
1
 70
1
 10
168.981435
 20
240.231543
 30
0.0
  0
SPLINE
  5
1d2
100
AcDbEntity
  8
Capa_1
 62
7
100
AcDbSpline
 70
8
 71
3
 72
8
 73
4
 74
0
 40
0
 40
0
 40
0
 40
0
 40
1
 40
1
 40
1
 40
1
 10
175.965809
 20
248.372164
 30
0.0
 10
176.934623
 20
249.403408
 30
0.0
 10
177.558534
 20
250.247169
 30
0.0
 10
177.352282
 20
250.247169
 30
0.0
  0
SPLINE
  5
1d3
100
AcDbEntity
  8
Capa_1
 62
7
100
AcDbSpline
 70
8
 71
3
 72
8
 73
4
 74
0
 40
0
 40
0
 40
0
 40
0
 40
1
 40
1
 40
1
 40
1
 10
177.352282
 20
250.247169
 30
0.0
 10
177.146033
 20
250.247169
 30
0.0
 10
176.184624
 20
249.403408
 30
0.0
 10
175.215810
 20
248.372164
 30
0.0
  0
SPLINE
  5
1d4
100
AcDbEntity
  8
Capa_1
 62
7
100
AcDbSpline
 70
8
 71
3
 72
8
 73
4
 74
0
 40
0
 40
0
 40
0
 40
0
 40
1
 40
1
 40
1
 40
1
 10
175.215810
 20
248.372164
 30
0.0
 10
174.246999
 20
247.340920
 30
0.0
 10
173.623088
 20
246.497159
 30
0.0
 10
173.829336
 20
246.497159
 30
0.0
  0
SPLINE
  5
1d5
100
AcDbEntity
  8
Capa_1
 62
7
100
AcDbSpline
 70
8
 71
3
 72
8
 73
4
 74
0
 40
0
 40
0
 40
0
 40
0
 40
1
 40
1
 40
1
 40
1
 10
173.829336
 20
246.497159
 30
0.0
 10
174.035585
 20
246.497159
 30
0.0
 10
174.996998
 20
247.340920
 30
0.0
 10
175.965809
 20
248.372164
 30
0.0
  0
LWPOLYLINE
  5
1d6
100
AcDbEntity
  8
Capa_1
 62
7
100
AcDbPolyline
 90
1
 70
1
 10
172.311469
 20
244.059647
 30
0.0
  0
SPLINE
  5
1d7
100
AcDbEntity
  8
Capa_1
 62
7
100
AcDbSpline
 70
8
 71
3
 72
8
 73
4
 74
0
 40
0
 40
0
 40
0
 40
0
 40
1
 40
1
 40
1
 40
1
 10
179.811479
 20
253.059647
 30
0.0
 10
180.744384
 20
254.249206
 30
0.0
 10
180.717854
 20
254.275739
 30
0.0
 10
179.528298
 20
253.342828
 30
0.0
  0
SPLINE
  5
1d8
100
AcDbEntity
  8
Capa_1
 62
7
100
AcDbSpline
 70
8
 71
3
 72
8
 73
4
 74
0
 40
0
 40
0
 40
0
 40
0
 40
1
 40
1
 40
1
 40
1
 10
179.528298
 20
253.342828
 30
0.0
 10
178.806424
 20
252.776693
 30
0.0
 10
178.215797
 20
252.186066
 30
0.0
 10
178.215797
 20
252.030331
 30
0.0
  0
SPLINE
  5
1d9
100
AcDbEntity
  8
Capa_1
 62
7
100
AcDbSpline
 70
8
 71
3
 72
8
 73
4
 74
0
 40
0
 40
0
 40
0
 40
0
 40
1
 40
1
 40
1
 40
1
 10
178.215797
 20
252.030331
 30
0.0
 10
178.215797
 20
251.413058
 30
0.0
 10
178.831692
 20
251.810362
 30
0.0
 10
179.811468
 20
253.059647
 30
0.0
  0
LWPOLYLINE
  5
1da
100
AcDbEntity
  8
Capa_1
 62
7
100
AcDbPolyline
 90
1
 70
1
 10
175.965809
 20
248.372164
 30
0.0
  0
SPLINE
  5
1db
100
AcDbEntity
  8
Capa_1
 62
7
100
AcDbSpline
 70
8
 71
3
 72
8
 73
4
 74
0
 40
0
 40
0
 40
0
 40
0
 40
1
 40
1
 40
1
 40
1
 10
174.465811
 20
261.005924
 30
0.0
 10
174.465811
 20
261.148224
 30
0.0
 10
173.706435
 20
261.907625
 30
0.0
 10
172.778309
 20
262.693417
 30
0.0
  0
LWPOLYLINE
  5
1dc
100
AcDbEntity
  8
Capa_1
 62
7
100
AcDbPolyline
 90
1
 70
1
 10
179.811468
 20
253.059647
 30
0.0
  0
SPLINE
  5
1dd
100
AcDbEntity
  8
Capa_1
 62
7
100
AcDbSpline
 70
8
 71
3
 72
8
 73
4
 74
0
 40
0
 40
0
 40
0
 40
0
 40
1
 40
1
 40
1
 40
1
 10
172.519551
 20
262.434671
 30
0.0
 10
173.862218
 20
260.848828
 30
0.0
 10
174.465811
 20
260.405717
 30
0.0
 10
174.465811
 20
261.005924
 30
0.0
  0
LWPOLYLINE
  5
1de
100
AcDbEntity
  8
Capa_1
 62
7
100
AcDbPolyline
 90
3
 70
0
 10
172.778309
 20
262.693417
 30
0.0
 10
171.090811
 20
264.122164
 30
0.0
 10
172.519551
 20
262.434671
 30
0.0
  0
SPLINE
  5
1df
100
AcDbEntity
  8
Capa_1
 62
7
100
AcDbSpline
 70
8
 71
3
 72
8
 73
4
 74
0
 40
0
 40
0
 40
0
 40
0
 40
1
 40
1
 40
1
 40
1
 10
169.965811
 20
264.725036
 30
0.0
 10
169.965811
 20
264.850328
 30
0.0
 10
168.700184
 20
266.115997
 30
0.0
 10
167.153309
 20
267.537543
 30
0.0
  0
LWPOLYLINE
  5
1e0
100
AcDbEntity
  8
Capa_1
 62
7
100
AcDbPolyline
 90
1
 70
1
 10
174.465811
 20
261.005924
 30
0.0
  0
SPLINE
  5
1e1
100
AcDbEntity
  8
Capa_1
 62
7
100
AcDbSpline
 70
8
 71
3
 72
8
 73
4
 74
0
 40
0
 40
0
 40
0
 40
0
 40
1
 40
1
 40
1
 40
1
 10
166.925438
 20
267.309666
 30
0.0
 10
169.331145
 20
264.691843
 30
0.0
 10
169.965811
 20
264.152324
 30
0.0
 10
169.965811
 20
264.725036
 30
0.0
  0
LWPOLYLINE
  5
1e2
100
AcDbEntity
  8
Capa_1
 62
7
100
AcDbPolyline
 90
3
 70
0
 10
167.153309
 20
267.537543
 30
0.0
 10
164.340811
 20
270.122173
 30
0.0
 10
166.925438
 20
267.309666
 30
0.0
  0
SPLINE
  5
1e3
100
AcDbEntity
  8
Capa_1
 62
7
100
AcDbSpline
 70
8
 71
3
 72
8
 73
4
 74
0
 40
0
 40
0
 40
0
 40
0
 40
1
 40
1
 40
1
 40
1
 10
186.840811
 20
302.747159
 30
0.0
 10
187.587428
 20
303.572154
 30
0.0
 10
188.029545
 20
304.247169
 30
0.0
 10
187.823296
 20
304.247169
 30
0.0
  0
SPLINE
  5
1e4
100
AcDbEntity
  8
Capa_1
 62
7
100
AcDbSpline
 70
8
 71
3
 72
8
 73
4
 74
0
 40
0
 40
0
 40
0
 40
0
 40
1
 40
1
 40
1
 40
1
 10
187.823296
 20
304.247169
 30
0.0
 10
187.617047
 20
304.247169
 30
0.0
 10
186.837429
 20
303.572154
 30
0.0
 10
186.090812
 20
302.747159
 30
0.0
  0
SPLINE
  5
1e5
100
AcDbEntity
  8
Capa_1
 62
7
100
AcDbSpline
 70
8
 71
3
 72
8
 73
4
 74
0
 40
0
 40
0
 40
0
 40
0
 40
1
 40
1
 40
1
 40
1
 10
186.090812
 20
302.747159
 30
0.0
 10
185.344191
 20
301.922164
 30
0.0
 10
184.902075
 20
301.247150
 30
0.0
 10
185.108326
 20
301.247150
 30
0.0
  0
SPLINE
  5
1e6
100
AcDbEntity
  8
Capa_1
 62
7
100
AcDbSpline
 70
8
 71
3
 72
8
 73
4
 74
0
 40
0
 40
0
 40
0
 40
0
 40
1
 40
1
 40
1
 40
1
 10
185.108326
 20
301.247150
 30
0.0
 10
185.314575
 20
301.247150
 30
0.0
 10
186.094193
 20
301.922164
 30
0.0
 10
186.840811
 20
302.747159
 30
0.0
  0
LWPOLYLINE
  5
1e7
100
AcDbEntity
  8
Capa_1
 62
7
100
AcDbPolyline
 90
1
 70
1
 10
169.965811
 20
264.725036
 30
0.0
  0
SPLINE
  5
1e8
100
AcDbEntity
  8
Capa_1
 62
7
100
AcDbSpline
 70
8
 71
3
 72
8
 73
4
 74
0
 40
0
 40
0
 40
0
 40
0
 40
1
 40
1
 40
1
 40
1
 10
191.715812
 20
306.872164
 30
0.0
 10
192.684623
 20
307.903408
 30
0.0
 10
193.308534
 20
308.747169
 30
0.0
 10
193.102282
 20
308.747169
 30
0.0
  0
SPLINE
  5
1e9
100
AcDbEntity
  8
Capa_1
 62
7
100
AcDbSpline
 70
8
 71
3
 72
8
 73
4
 74
0
 40
0
 40
0
 40
0
 40
0
 40
1
 40
1
 40
1
 40
1
 10
193.102282
 20
308.747169
 30
0.0
 10
192.896033
 20
308.747169
 30
0.0
 10
191.934624
 20
307.903408
 30
0.0
 10
190.965810
 20
306.872164
 30
0.0
  0
SPLINE
  5
1ea
100
AcDbEntity
  8
Capa_1
 62
7
100
AcDbSpline
 70
8
 71
3
 72
8
 73
4
 74
0
 40
0
 40
0
 40
0
 40
0
 40
1
 40
1
 40
1
 40
1
 10
190.965810
 20
306.872164
 30
0.0
 10
189.996999
 20
305.840920
 30
0.0
 10
189.373088
 20
304.997159
 30
0.0
 10
189.579339
 20
304.997159
 30
0.0
  0
SPLINE
  5
1eb
100
AcDbEntity
  8
Capa_1
 62
7
100
AcDbSpline
 70
8
 71
3
 72
8
 73
4
 74
0
 40
0
 40
0
 40
0
 40
0
 40
1
 40
1
 40
1
 40
1
 10
189.579339
 20
304.997159
 30
0.0
 10
189.785588
 20
304.997159
 30
0.0
 10
190.746998
 20
305.840920
 30
0.0
 10
191.715812
 20
306.872164
 30
0.0
  0
LWPOLYLINE
  5
1ec
100
AcDbEntity
  8
Capa_1
 62
7
100
AcDbPolyline
 90
1
 70
1
 10
186.840811
 20
302.747159
 30
0.0
  0
SPLINE
  5
1ed
100
AcDbEntity
  8
Capa_1
 62
7
100
AcDbSpline
 70
8
 71
3
 72
8
 73
4
 74
0
 40
0
 40
0
 40
0
 40
0
 40
1
 40
1
 40
1
 40
1
 10
312.747250
 20
271.595537
 30
0.0
 10
312.334668
 20
272.670718
 30
0.0
 10
314.250406
 20
275.985553
 30
0.0
 10
317.183386
 20
279.271502
 30
0.0
  0
SPLINE
  5
1ee
100
AcDbEntity
  8
Capa_1
 62
7
100
AcDbSpline
 70
8
 71
3
 72
8
 73
4
 74
0
 40
0
 40
0
 40
0
 40
0
 40
1
 40
1
 40
1
 40
1
 10
317.183386
 20
279.271502
 30
0.0
 10
317.993102
 20
280.178617
 30
0.0
 10
318.477487
 20
281.384957
 30
0.0
 10
318.259814
 20
281.952198
 30
0.0
  0
SPLINE
  5
1ef
100
AcDbEntity
  8
Capa_1
 62
7
100
AcDbSpline
 70
8
 71
3
 72
8
 73
4
 74
0
 40
0
 40
0
 40
0
 40
0
 40
1
 40
1
 40
1
 40
1
 10
318.259814
 20
281.952198
 30
0.0
 10
318.042113
 20
282.519439
 30
0.0
 10
313.971307
 20
285.734324
 30
0.0
 10
309.213524
 20
289.096441
 30
0.0
  0
SPLINE
  5
1f0
100
AcDbEntity
  8
Capa_1
 62
7
100
AcDbSpline
 70
8
 71
3
 72
8
 73
4
 74
0
 40
0
 40
0
 40
0
 40
0
 40
1
 40
1
 40
1
 40
1
 10
309.213524
 20
289.096441
 30
0.0
 10
297.787691
 20
297.170532
 30
0.0
 10
286.765370
 20
306.083934
 30
0.0
 10
278.611889
 20
313.843039
 30
0.0
  0
SPLINE
  5
1f1
100
AcDbEntity
  8
Capa_1
 62
7
100
AcDbSpline
 70
8
 71
3
 72
8
 73
4
 74
0
 40
0
 40
0
 40
0
 40
0
 40
1
 40
1
 40
1
 40
1
 10
278.611889
 20
313.843039
 30
0.0
 10
267.541634
 20
324.377802
 30
0.0
 10
248.715816
 20
348.984964
 30
0.0
 10
248.715816
 20
352.920047
 30
0.0
  0
SPLINE
  5
1f2
100
AcDbEntity
  8
Capa_1
 62
7
100
AcDbSpline
 70
8
 71
3
 72
8
 73
4
 74
0
 40
0
 40
0
 40
0
 40
0
 40
1
 40
1
 40
1
 40
1
 10
248.715816
 20
352.920047
 30
0.0
 10
248.715816
 20
353.317578
 30
0.0
 10
249.475190
 20
353.750683
 30
0.0
 10
250.403309
 20
353.882494
 30
0.0
  0
SPLINE
  5
1f3
100
AcDbEntity
  8
Capa_1
 62
7
100
AcDbSpline
 70
8
 71
3
 72
8
 73
4
 74
0
 40
0
 40
0
 40
0
 40
0
 40
1
 40
1
 40
1
 40
1
 10
250.403309
 20
353.882494
 30
0.0
 10
252.245857
 20
354.144132
 30
0.0
 10
252.281375
 20
354.510142
 30
0.0
 10
251.285734
 20
362.971672
 30
0.0
  0
SPLINE
  5
1f4
100
AcDbEntity
  8
Capa_1
 62
7
100
AcDbSpline
 70
8
 71
3
 72
8
 73
4
 74
0
 40
0
 40
0
 40
0
 40
0
 40
1
 40
1
 40
1
 40
1
 10
251.285734
 20
362.971672
 30
0.0
 10
250.823942
 20
366.896041
 30
0.0
 10
250.948242
 20
367.507843
 30
0.0
 10
252.557357
 20
369.230457
 30
0.0
  0
SPLINE
  5
1f5
100
AcDbEntity
  8
Capa_1
 62
7
100
AcDbSpline
 70
8
 71
3
 72
8
 73
4
 74
0
 40
0
 40
0
 40
0
 40
0
 40
1
 40
1
 40
1
 40
1
 10
252.557357
 20
369.230457
 30
0.0
 10
253.538257
 20
370.280523
 30
0.0
 10
255.263224
 20
371.619581
 30
0.0
 10
256.390620
 20
372.206098
 30
0.0
  0
SPLINE
  5
1f6
100
AcDbEntity
  8
Capa_1
 62
7
100
AcDbSpline
 70
8
 71
3
 72
8
 73
4
 74
0
 40
0
 40
0
 40
0
 40
0
 40
1
 40
1
 40
1
 40
1
 10
256.390620
 20
372.206098
 30
0.0
 10
257.518015
 20
372.792643
 30
0.0
 10
258.947385
 20
374.252910
 30
0.0
 10
259.567010
 20
375.451143
 30
0.0
  0
LWPOLYLINE
  5
1f7
100
AcDbEntity
  8
Capa_1
 62
7
100
AcDbPolyline
 90
1
 70
1
 10
191.715812
 20
306.872164
 30
0.0
  0
SPLINE
  5
1f8
100
AcDbEntity
  8
Capa_1
 62
7
100
AcDbSpline
 70
8
 71
3
 72
8
 73
4
 74
0
 40
0
 40
0
 40
0
 40
0
 40
1
 40
1
 40
1
 40
1
 10
255.769974
 20
378.752854
 30
0.0
 10
249.077007
 20
380.279537
 30
0.0
 10
245.360078
 20
383.008904
 30
0.0
 10
242.642418
 20
388.392520
 30
0.0
  0
SPLINE
  5
1f9
100
AcDbEntity
  8
Capa_1
 62
7
100
AcDbSpline
 70
8
 71
3
 72
8
 73
4
 74
0
 40
0
 40
0
 40
0
 40
0
 40
1
 40
1
 40
1
 40
1
 10
242.642418
 20
388.392520
 30
0.0
 10
241.433413
 20
390.787569
 30
0.0
 10
240.133161
 20
392.747159
 30
0.0
 10
239.753007
 20
392.747159
 30
0.0
  0
SPLINE
  5
1fa
100
AcDbEntity
  8
Capa_1
 62
7
100
AcDbSpline
 70
8
 71
3
 72
8
 73
4
 74
0
 40
0
 40
0
 40
0
 40
0
 40
1
 40
1
 40
1
 40
1
 10
239.753007
 20
392.747159
 30
0.0
 10
239.372824
 20
392.747159
 30
0.0
 10
238.303057
 20
391.397159
 30
0.0
 10
237.375703
 20
389.747140
 30
0.0
  0
SPLINE
  5
1fb
100
AcDbEntity
  8
Capa_1
 62
7
100
AcDbSpline
 70
8
 71
3
 72
8
 73
4
 74
0
 40
0
 40
0
 40
0
 40
0
 40
1
 40
1
 40
1
 40
1
 10
237.375703
 20
389.747140
 30
0.0
 10
236.448349
 20
388.097150
 30
0.0
 10
235.434166
 20
386.747150
 30
0.0
 10
235.121973
 20
386.747150
 30
0.0
  0
SPLINE
  5
1fc
100
AcDbEntity
  8
Capa_1
 62
7
100
AcDbSpline
 70
8
 71
3
 72
8
 73
4
 74
0
 40
0
 40
0
 40
0
 40
0
 40
1
 40
1
 40
1
 40
1
 10
235.121973
 20
386.747150
 30
0.0
 10
233.642582
 20
386.747150
 30
0.0
 10
233.721190
 20
388.650217
 30
0.0
 10
235.325500
 20
391.674359
 30
0.0
  0
SPLINE
  5
1fd
100
AcDbEntity
  8
Capa_1
 62
7
100
AcDbSpline
 70
8
 71
3
 72
8
 73
4
 74
0
 40
0
 40
0
 40
0
 40
0
 40
1
 40
1
 40
1
 40
1
 10
235.325500
 20
391.674359
 30
0.0
 10
236.906456
 20
394.654507
 30
0.0
 10
237.364166
 20
394.997159
 30
0.0
 10
239.764119
 20
394.997159
 30
0.0
  0
SPLINE
  5
1fe
100
AcDbEntity
  8
Capa_1
 62
7
100
AcDbSpline
 70
8
 71
3
 72
8
 73
4
 74
0
 40
0
 40
0
 40
0
 40
0
 40
1
 40
1
 40
1
 40
1
 10
239.764119
 20
394.997159
 30
0.0
 10
242.295032
 20
394.997159
 30
0.0
 10
242.556273
 20
394.753946
 30
0.0
 10
244.586220
 20
390.506769
 30
0.0
  0
SPLINE
  5
1ff
100
AcDbEntity
  8
Capa_1
 62
7
100
AcDbSpline
 70
8
 71
3
 72
8
 73
4
 74
0
 40
0
 40
0
 40
0
 40
0
 40
1
 40
1
 40
1
 40
1
 10
244.586220
 20
390.506769
 30
0.0
 10
247.220711
 20
384.994772
 30
0.0
 10
250.497901
 20
382.547565
 30
0.0
 10
257.332629
 20
380.988567
 30
0.0
  0
SPLINE
  5
200
100
AcDbEntity
  8
Capa_1
 62
7
100
AcDbSpline
 70
8
 71
3
 72
8
 73
4
 74
0
 40
0
 40
0
 40
0
 40
0
 40
1
 40
1
 40
1
 40
1
 10
257.332629
 20
380.988567
 30
0.0
 10
260.075064
 20
380.363017
 30
0.0
 10
262.500840
 20
379.377014
 30
0.0
 10
262.723246
 20
378.797499
 30
0.0
  0
SPLINE
  5
201
100
AcDbEntity
  8
Capa_1
 62
7
100
AcDbSpline
 70
8
 71
3
 72
8
 73
4
 74
0
 40
0
 40
0
 40
0
 40
0
 40
1
 40
1
 40
1
 40
1
 10
262.723246
 20
378.797499
 30
0.0
 10
263.756446
 20
376.104983
 30
0.0
 10
261.278201
 20
372.421134
 30
0.0
 10
255.545243
 20
368.127609
 30
0.0
  0
SPLINE
  5
202
100
AcDbEntity
  8
Capa_1
 62
7
100
AcDbSpline
 70
8
 71
3
 72
8
 73
4
 74
0
 40
0
 40
0
 40
0
 40
0
 40
1
 40
1
 40
1
 40
1
 10
255.545243
 20
368.127609
 30
0.0
 10
252.871492
 20
366.125187
 30
0.0
 10
252.716834
 20
364.836954
 30
0.0
 10
254.478991
 20
359.246693
 30
0.0
  0
SPLINE
  5
203
100
AcDbEntity
  8
Capa_1
 62
7
100
AcDbSpline
 70
8
 71
3
 72
8
 73
4
 74
0
 40
0
 40
0
 40
0
 40
0
 40
1
 40
1
 40
1
 40
1
 10
254.478991
 20
359.246693
 30
0.0
 10
255.720481
 20
355.308236
 30
0.0
 10
255.713706
 20
355.200888
 30
0.0
 10
254.083416
 20
352.995817
 30
0.0
  0
SPLINE
  5
204
100
AcDbEntity
  8
Capa_1
 62
7
100
AcDbSpline
 70
8
 71
3
 72
8
 73
4
 74
0
 40
0
 40
0
 40
0
 40
0
 40
1
 40
1
 40
1
 40
1
 10
254.083416
 20
352.995817
 30
0.0
 10
252.489410
 20
350.839814
 30
0.0
 10
252.473309
 20
350.657008
 30
0.0
 10
253.670749
 20
348.312189
 30
0.0
  0
SPLINE
  5
205
100
AcDbEntity
  8
Capa_1
 62
7
100
AcDbSpline
 70
8
 71
3
 72
8
 73
4
 74
0
 40
0
 40
0
 40
0
 40
0
 40
1
 40
1
 40
1
 40
1
 10
253.670749
 20
348.312189
 30
0.0
 10
255.969533
 20
343.810828
 30
0.0
 10
274.184853
 20
321.689764
 30
0.0
 10
280.568049
 20
315.647518
 30
0.0
  0
SPLINE
  5
206
100
AcDbEntity
  8
Capa_1
 62
7
100
AcDbSpline
 70
8
 71
3
 72
8
 73
4
 74
0
 40
0
 40
0
 40
0
 40
0
 40
1
 40
1
 40
1
 40
1
 10
280.568049
 20
315.647518
 30
0.0
 10
288.694828
 20
307.954857
 30
0.0
 10
299.532246
 20
299.252636
 30
0.0
 10
311.749483
 20
290.609490
 30
0.0
  0
SPLINE
  5
207
100
AcDbEntity
  8
Capa_1
 62
7
100
AcDbSpline
 70
8
 71
3
 72
8
 73
4
 74
0
 40
0
 40
0
 40
0
 40
0
 40
1
 40
1
 40
1
 40
1
 10
311.749483
 20
290.609490
 30
0.0
 10
317.568019
 20
286.493159
 30
0.0
 10
321.465798
 20
283.234252
 30
0.0
 10
321.465798
 20
282.485735
 30
0.0
  0
SPLINE
  5
208
100
AcDbEntity
  8
Capa_1
 62
7
100
AcDbSpline
 70
8
 71
3
 72
8
 73
4
 74
0
 40
0
 40
0
 40
0
 40
0
 40
1
 40
1
 40
1
 40
1
 10
321.465798
 20
282.485735
 30
0.0
 10
321.465798
 20
281.087632
 30
0.0
 10
314.671550
 20
270.538639
 30
0.0
 10
313.754769
 20
270.513326
 30
0.0
  0
SPLINE
  5
209
100
AcDbEntity
  8
Capa_1
 62
7
100
AcDbSpline
 70
8
 71
3
 72
8
 73
4
 74
0
 40
0
 40
0
 40
0
 40
0
 40
1
 40
1
 40
1
 40
1
 10
313.754769
 20
270.513326
 30
0.0
 10
313.432441
 20
270.504822
 30
0.0
 10
312.979068
 20
270.991446
 30
0.0
 10
312.747250
 20
271.595537
 30
0.0
  0
LWPOLYLINE
  5
20a
100
AcDbEntity
  8
Capa_1
 62
7
100
AcDbPolyline
 90
3
 70
0
 10
259.567010
 20
375.451143
 30
0.0
 10
260.693640
 20
377.629767
 30
0.0
 10
255.769974
 20
378.752854
 30
0.0
  0
SPLINE
  5
20b
100
AcDbEntity
  8
Capa_1
 62
7
100
AcDbSpline
 70
8
 71
3
 72
8
 73
4
 74
0
 40
0
 40
0
 40
0
 40
0
 40
1
 40
1
 40
1
 40
1
 10
296.715798
 20
300.030321
 30
0.0
 10
296.715798
 20
300.185943
 30
0.0
 10
296.125172
 20
300.776683
 30
0.0
 10
295.403301
 20
301.342819
 30
0.0
  0
SPLINE
  5
20c
100
AcDbEntity
  8
Capa_1
 62
7
100
AcDbSpline
 70
8
 71
3
 72
8
 73
4
 74
0
 40
0
 40
0
 40
0
 40
0
 40
1
 40
1
 40
1
 40
1
 10
295.403301
 20
301.342819
 30
0.0
 10
294.213770
 20
302.275729
 30
0.0
 10
294.187238
 20
302.249197
 30
0.0
 10
295.120120
 20
301.059638
 30
0.0
  0
SPLINE
  5
20d
100
AcDbEntity
  8
Capa_1
 62
7
100
AcDbSpline
 70
8
 71
3
 72
8
 73
4
 74
0
 40
0
 40
0
 40
0
 40
0
 40
1
 40
1
 40
1
 40
1
 10
295.120120
 20
301.059638
 30
0.0
 10
296.099887
 20
299.810324
 30
0.0
 10
296.715770
 20
299.413020
 30
0.0
 10
296.715770
 20
300.030293
 30
0.0
  0
LWPOLYLINE
  5
20e
100
AcDbEntity
  8
Capa_1
 62
7
100
AcDbPolyline
 90
1
 70
1
 10
312.747250
 20
271.595537
 30
0.0
  0
SPLINE
  5
20f
100
AcDbEntity
  8
Capa_1
 62
7
100
AcDbSpline
 70
8
 71
3
 72
8
 73
4
 74
0
 40
0
 40
0
 40
0
 40
0
 40
1
 40
1
 40
1
 40
1
 10
292.965817
 20
303.005906
 30
0.0
 10
292.965817
 20
303.148205
 30
0.0
 10
292.206416
 20
303.907606
 30
0.0
 10
291.278296
 20
304.693427
 30
0.0
  0
LWPOLYLINE
  5
210
100
AcDbEntity
  8
Capa_1
 62
7
100
AcDbPolyline
 90
1
 70
1
 10
296.715770
 20
300.030293
 30
0.0
  0
SPLINE
  5
211
100
AcDbEntity
  8
Capa_1
 62
7
100
AcDbSpline
 70
8
 71
3
 72
8
 73
4
 74
0
 40
0
 40
0
 40
0
 40
0
 40
1
 40
1
 40
1
 40
1
 10
291.019550
 20
304.434652
 30
0.0
 10
292.362208
 20
302.848838
 30
0.0
 10
292.965817
 20
302.405726
 30
0.0
 10
292.965817
 20
303.005906
 30
0.0
  0
LWPOLYLINE
  5
212
100
AcDbEntity
  8
Capa_1
 62
7
100
AcDbPolyline
 90
3
 70
0
 10
291.278296
 20
304.693427
 30
0.0
 10
289.590803
 20
306.122145
 30
0.0
 10
291.019550
 20
304.434652
 30
0.0
  0
SPLINE
  5
213
100
AcDbEntity
  8
Capa_1
 62
7
100
AcDbSpline
 70
8
 71
3
 72
8
 73
4
 74
0
 40
0
 40
0
 40
0
 40
0
 40
1
 40
1
 40
1
 40
1
 10
288.465817
 20
306.741430
 30
0.0
 10
288.465817
 20
306.875792
 30
0.0
 10
287.537669
 20
307.803883
 30
0.0
 10
286.403301
 20
308.803918
 30
0.0
  0
LWPOLYLINE
  5
214
100
AcDbEntity
  8
Capa_1
 62
7
100
AcDbPolyline
 90
1
 70
1
 10
292.965817
 20
303.005906
 30
0.0
  0
SPLINE
  5
215
100
AcDbEntity
  8
Capa_1
 62
7
100
AcDbSpline
 70
8
 71
3
 72
8
 73
4
 74
0
 40
0
 40
0
 40
0
 40
0
 40
1
 40
1
 40
1
 40
1
 10
286.159039
 20
308.559657
 30
0.0
 10
287.858466
 20
306.631928
 30
0.0
 10
288.465817
 20
306.153213
 30
0.0
 10
288.465817
 20
306.741430
 30
0.0
  0
LWPOLYLINE
  5
216
100
AcDbEntity
  8
Capa_1
 62
7
100
AcDbPolyline
 90
3
 70
0
 10
286.403301
 20
308.803918
 30
0.0
 10
284.340813
 20
310.622145
 30
0.0
 10
286.159039
 20
308.559657
 30
0.0
  0
SPLINE
  5
217
100
AcDbEntity
  8
Capa_1
 62
7
100
AcDbSpline
 70
8
 71
3
 72
8
 73
4
 74
0
 40
0
 40
0
 40
0
 40
0
 40
1
 40
1
 40
1
 40
1
 10
283.215807
 20
311.202255
 30
0.0
 10
283.215807
 20
311.315074
 30
0.0
 10
280.431448
 20
314.099433
 30
0.0
 10
277.028314
 20
317.389748
 30
0.0
  0
LWPOLYLINE
  5
218
100
AcDbEntity
  8
Capa_1
 62
7
100
AcDbPolyline
 90
1
 70
1
 10
288.465817
 20
306.741430
 30
0.0
  0
SPLINE
  5
219
100
AcDbEntity
  8
Capa_1
 62
7
100
AcDbSpline
 70
8
 71
3
 72
8
 73
4
 74
0
 40
0
 40
0
 40
0
 40
0
 40
1
 40
1
 40
1
 40
1
 10
276.823227
 20
317.184661
 30
0.0
 10
282.379501
 20
311.437899
 30
0.0
 10
283.215807
 20
310.655225
 30
0.0
 10
283.215807
 20
311.202255
 30
0.0
  0
LWPOLYLINE
  5
21a
100
AcDbEntity
  8
Capa_1
 62
7
100
AcDbPolyline
 90
3
 70
0
 10
277.028314
 20
317.389748
 30
0.0
 10
270.840821
 20
323.372154
 30
0.0
 10
276.823227
 20
317.184661
 30
0.0
  0
SPLINE
  5
21b
100
AcDbEntity
  8
Capa_1
 62
7
100
AcDbSpline
 70
8
 71
3
 72
8
 73
4
 74
0
 40
0
 40
0
 40
0
 40
0
 40
1
 40
1
 40
1
 40
1
 10
270.465826
 20
324.780321
 30
0.0
 10
270.465826
 20
324.935943
 30
0.0
 10
269.875199
 20
325.526683
 30
0.0
 10
269.153300
 20
326.092819
 30
0.0
  0
SPLINE
  5
21c
100
AcDbEntity
  8
Capa_1
 62
7
100
AcDbSpline
 70
8
 71
3
 72
8
 73
4
 74
0
 40
0
 40
0
 40
0
 40
0
 40
1
 40
1
 40
1
 40
1
 10
269.153300
 20
326.092819
 30
0.0
 10
267.963769
 20
327.025729
 30
0.0
 10
267.937237
 20
326.999197
 30
0.0
 10
268.870119
 20
325.809638
 30
0.0
  0
SPLINE
  5
21d
100
AcDbEntity
  8
Capa_1
 62
7
100
AcDbSpline
 70
8
 71
3
 72
8
 73
4
 74
0
 40
0
 40
0
 40
0
 40
0
 40
1
 40
1
 40
1
 40
1
 10
268.870119
 20
325.809638
 30
0.0
 10
269.849886
 20
324.560324
 30
0.0
 10
270.465797
 20
324.163020
 30
0.0
 10
270.465797
 20
324.780293
 30
0.0
  0
LWPOLYLINE
  5
21e
100
AcDbEntity
  8
Capa_1
 62
7
100
AcDbPolyline
 90
1
 70
1
 10
283.215807
 20
311.202255
 30
0.0
  0
SPLINE
  5
21f
100
AcDbEntity
  8
Capa_1
 62
7
100
AcDbSpline
 70
8
 71
3
 72
8
 73
4
 74
0
 40
0
 40
0
 40
0
 40
0
 40
1
 40
1
 40
1
 40
1
 10
267.465807
 20
328.530331
 30
0.0
 10
267.465807
 20
328.685953
 30
0.0
 10
266.875180
 20
329.276693
 30
0.0
 10
266.153309
 20
329.842828
 30
0.0
  0
SPLINE
  5
220
100
AcDbEntity
  8
Capa_1
 62
7
100
AcDbSpline
 70
8
 71
3
 72
8
 73
4
 74
0
 40
0
 40
0
 40
0
 40
0
 40
1
 40
1
 40
1
 40
1
 10
266.153309
 20
329.842828
 30
0.0
 10
264.963779
 20
330.775710
 30
0.0
 10
264.937246
 20
330.749206
 30
0.0
 10
265.870128
 20
329.559647
 30
0.0
  0
SPLINE
  5
221
100
AcDbEntity
  8
Capa_1
 62
7
100
AcDbSpline
 70
8
 71
3
 72
8
 73
4
 74
0
 40
0
 40
0
 40
0
 40
0
 40
1
 40
1
 40
1
 40
1
 10
265.870128
 20
329.559647
 30
0.0
 10
266.849923
 20
328.310334
 30
0.0
 10
267.465807
 20
327.913058
 30
0.0
 10
267.465807
 20
328.530331
 30
0.0
  0
LWPOLYLINE
  5
222
100
AcDbEntity
  8
Capa_1
 62
7
100
AcDbPolyline
 90
1
 70
1
 10
270.465797
 20
324.780293
 30
0.0
  0
SPLINE
  5
223
100
AcDbEntity
  8
Capa_1
 62
7
100
AcDbSpline
 70
8
 71
3
 72
8
 73
4
 74
0
 40
0
 40
0
 40
0
 40
0
 40
1
 40
1
 40
1
 40
1
 10
264.465816
 20
332.280312
 30
0.0
 10
264.465816
 20
332.435934
 30
0.0
 10
263.875190
 20
333.026674
 30
0.0
 10
263.153319
 20
333.592809
 30
0.0
  0
SPLINE
  5
224
100
AcDbEntity
  8
Capa_1
 62
7
100
AcDbSpline
 70
8
 71
3
 72
8
 73
4
 74
0
 40
0
 40
0
 40
0
 40
0
 40
1
 40
1
 40
1
 40
1
 10
263.153319
 20
333.592809
 30
0.0
 10
261.963760
 20
334.525720
 30
0.0
 10
261.937227
 20
334.499187
 30
0.0
 10
262.870138
 20
333.309628
 30
0.0
  0
SPLINE
  5
225
100
AcDbEntity
  8
Capa_1
 62
7
100
AcDbSpline
 70
8
 71
3
 72
8
 73
4
 74
0
 40
0
 40
0
 40
0
 40
0
 40
1
 40
1
 40
1
 40
1
 10
262.870138
 20
333.309628
 30
0.0
 10
263.849933
 20
332.060315
 30
0.0
 10
264.465816
 20
331.663011
 30
0.0
 10
264.465816
 20
332.280283
 30
0.0
  0
LWPOLYLINE
  5
226
100
AcDbEntity
  8
Capa_1
 62
7
100
AcDbPolyline
 90
1
 70
1
 10
267.465807
 20
328.530331
 30
0.0
  0
SPLINE
  5
227
100
AcDbEntity
  8
Capa_1
 62
7
100
AcDbSpline
 70
8
 71
3
 72
8
 73
4
 74
0
 40
0
 40
0
 40
0
 40
0
 40
1
 40
1
 40
1
 40
1
 10
261.465826
 20
336.030321
 30
0.0
 10
261.465826
 20
336.185943
 30
0.0
 10
260.875199
 20
336.776683
 30
0.0
 10
260.153300
 20
337.342819
 30
0.0
  0
SPLINE
  5
228
100
AcDbEntity
  8
Capa_1
 62
7
100
AcDbSpline
 70
8
 71
3
 72
8
 73
4
 74
0
 40
0
 40
0
 40
0
 40
0
 40
1
 40
1
 40
1
 40
1
 10
260.153300
 20
337.342819
 30
0.0
 10
258.963769
 20
338.275729
 30
0.0
 10
258.937237
 20
338.249197
 30
0.0
 10
259.870119
 20
337.059638
 30
0.0
  0
SPLINE
  5
229
100
AcDbEntity
  8
Capa_1
 62
7
100
AcDbSpline
 70
8
 71
3
 72
8
 73
4
 74
0
 40
0
 40
0
 40
0
 40
0
 40
1
 40
1
 40
1
 40
1
 10
259.870119
 20
337.059638
 30
0.0
 10
260.849886
 20
335.810324
 30
0.0
 10
261.465797
 20
335.413020
 30
0.0
 10
261.465797
 20
336.030293
 30
0.0
  0
LWPOLYLINE
  5
22a
100
AcDbEntity
  8
Capa_1
 62
7
100
AcDbPolyline
 90
1
 70
1
 10
264.465816
 20
332.280283
 30
0.0
  0
SPLINE
  5
22b
100
AcDbEntity
  8
Capa_1
 62
7
100
AcDbSpline
 70
8
 71
3
 72
8
 73
4
 74
0
 40
0
 40
0
 40
0
 40
0
 40
1
 40
1
 40
1
 40
1
 10
258.465807
 20
339.780331
 30
0.0
 10
258.465807
 20
339.935953
 30
0.0
 10
257.875180
 20
340.526693
 30
0.0
 10
257.153309
 20
341.092828
 30
0.0
  0
SPLINE
  5
22c
100
AcDbEntity
  8
Capa_1
 62
7
100
AcDbSpline
 70
8
 71
3
 72
8
 73
4
 74
0
 40
0
 40
0
 40
0
 40
0
 40
1
 40
1
 40
1
 40
1
 10
257.153309
 20
341.092828
 30
0.0
 10
255.963779
 20
342.025710
 30
0.0
 10
255.937246
 20
341.999206
 30
0.0
 10
256.870128
 20
340.809647
 30
0.0
  0
SPLINE
  5
22d
100
AcDbEntity
  8
Capa_1
 62
7
100
AcDbSpline
 70
8
 71
3
 72
8
 73
4
 74
0
 40
0
 40
0
 40
0
 40
0
 40
1
 40
1
 40
1
 40
1
 10
256.870128
 20
340.809647
 30
0.0
 10
257.849923
 20
339.560334
 30
0.0
 10
258.465807
 20
339.163058
 30
0.0
 10
258.465807
 20
339.780331
 30
0.0
  0
LWPOLYLINE
  5
22e
100
AcDbEntity
  8
Capa_1
 62
7
100
AcDbPolyline
 90
1
 70
1
 10
261.465797
 20
336.030293
 30
0.0
  0
SPLINE
  5
22f
100
AcDbEntity
  8
Capa_1
 62
7
100
AcDbSpline
 70
8
 71
3
 72
8
 73
4
 74
0
 40
0
 40
0
 40
0
 40
0
 40
1
 40
1
 40
1
 40
1
 10
252.232818
 20
365.559647
 30
0.0
 10
252.044314
 20
366.281518
 30
0.0
 10
251.889826
 20
365.690891
 30
0.0
 10
251.889826
 20
364.247150
 30
0.0
  0
SPLINE
  5
230
100
AcDbEntity
  8
Capa_1
 62
7
100
AcDbSpline
 70
8
 71
3
 72
8
 73
4
 74
0
 40
0
 40
0
 40
0
 40
0
 40
1
 40
1
 40
1
 40
1
 10
251.889826
 20
364.247150
 30
0.0
 10
251.889826
 20
362.803408
 30
0.0
 10
252.044314
 20
362.212781
 30
0.0
 10
252.232818
 20
362.934652
 30
0.0
  0
SPLINE
  5
231
100
AcDbEntity
  8
Capa_1
 62
7
100
AcDbSpline
 70
8
 71
3
 72
8
 73
4
 74
0
 40
0
 40
0
 40
0
 40
0
 40
1
 40
1
 40
1
 40
1
 10
252.232818
 20
362.934652
 30
0.0
 10
252.421322
 20
363.656523
 30
0.0
 10
252.421322
 20
364.837776
 30
0.0
 10
252.232818
 20
365.559647
 30
0.0
  0
LWPOLYLINE
  5
232
100
AcDbEntity
  8
Capa_1
 62
7
100
AcDbPolyline
 90
1
 70
1
 10
258.465807
 20
339.780331
 30
0.0
  0
SPLINE
  5
233
100
AcDbEntity
  8
Capa_1
 62
7
100
AcDbSpline
 70
8
 71
3
 72
8
 73
4
 74
0
 40
0
 40
0
 40
0
 40
0
 40
1
 40
1
 40
1
 40
1
 10
254.340802
 20
368.747150
 30
0.0
 10
255.087420
 20
369.572145
 30
0.0
 10
255.529539
 20
370.247159
 30
0.0
 10
255.323290
 20
370.247159
 30
0.0
  0
SPLINE
  5
234
100
AcDbEntity
  8
Capa_1
 62
7
100
AcDbSpline
 70
8
 71
3
 72
8
 73
4
 74
0
 40
0
 40
0
 40
0
 40
0
 40
1
 40
1
 40
1
 40
1
 10
255.323290
 20
370.247159
 30
0.0
 10
255.116928
 20
370.247159
 30
0.0
 10
254.337429
 20
369.572145
 30
0.0
 10
253.590812
 20
368.747150
 30
0.0
  0
SPLINE
  5
235
100
AcDbEntity
  8
Capa_1
 62
7
100
AcDbSpline
 70
8
 71
3
 72
8
 73
4
 74
0
 40
0
 40
0
 40
0
 40
0
 40
1
 40
1
 40
1
 40
1
 10
253.590812
 20
368.747150
 30
0.0
 10
252.844194
 20
367.922154
 30
0.0
 10
252.402075
 20
367.247140
 30
0.0
 10
252.608323
 20
367.247140
 30
0.0
  0
SPLINE
  5
236
100
AcDbEntity
  8
Capa_1
 62
7
100
AcDbSpline
 70
8
 71
3
 72
8
 73
4
 74
0
 40
0
 40
0
 40
0
 40
0
 40
1
 40
1
 40
1
 40
1
 10
252.608323
 20
367.247140
 30
0.0
 10
252.814686
 20
367.247140
 30
0.0
 10
253.594185
 20
367.922154
 30
0.0
 10
254.340802
 20
368.747150
 30
0.0
  0
LWPOLYLINE
  5
237
100
AcDbEntity
  8
Capa_1
 62
7
100
AcDbPolyline
 90
1
 70
1
 10
252.232818
 20
365.559647
 30
0.0
  0
SPLINE
  5
238
100
AcDbEntity
  8
Capa_1
 62
7
100
AcDbSpline
 70
8
 71
3
 72
8
 73
4
 74
0
 40
0
 40
0
 40
0
 40
0
 40
1
 40
1
 40
1
 40
1
 10
206.464561
 20
323.422838
 30
0.0
 10
213.253988
 20
331.096082
 30
0.0
 10
221.989657
 20
342.639099
 30
0.0
 10
224.957866
 20
347.859241
 30
0.0
  0
SPLINE
  5
239
100
AcDbEntity
  8
Capa_1
 62
7
100
AcDbSpline
 70
8
 71
3
 72
8
 73
4
 74
0
 40
0
 40
0
 40
0
 40
0
 40
1
 40
1
 40
1
 40
1
 10
224.957866
 20
347.859241
 30
0.0
 10
226.597847
 20
350.743436
 30
0.0
 10
226.748327
 20
351.420123
 30
0.0
 10
225.828232
 20
351.773206
 30
0.0
  0
SPLINE
  5
23a
100
AcDbEntity
  8
Capa_1
 62
7
100
AcDbSpline
 70
8
 71
3
 72
8
 73
4
 74
0
 40
0
 40
0
 40
0
 40
0
 40
1
 40
1
 40
1
 40
1
 10
225.828232
 20
351.773206
 30
0.0
 10
225.039385
 20
352.075918
 30
0.0
 10
224.715699
 20
353.352217
 30
0.0
 10
224.715436
 20
356.161124
 30
0.0
  0
SPLINE
  5
23b
100
AcDbEntity
  8
Capa_1
 62
7
100
AcDbSpline
 70
8
 71
3
 72
8
 73
4
 74
0
 40
0
 40
0
 40
0
 40
0
 40
1
 40
1
 40
1
 40
1
 10
224.715436
 20
356.161124
 30
0.0
 10
224.715047
 20
360.198454
 30
0.0
 10
223.641428
 20
363.633761
 30
0.0
 10
219.529599
 20
372.754573
 30
0.0
  0
SPLINE
  5
23c
100
AcDbEntity
  8
Capa_1
 62
7
100
AcDbSpline
 70
8
 71
3
 72
8
 73
4
 74
0
 40
0
 40
0
 40
0
 40
0
 40
1
 40
1
 40
1
 40
1
 10
219.529599
 20
372.754573
 30
0.0
 10
216.693181
 20
379.046268
 30
0.0
 10
216.666760
 20
379.851109
 30
0.0
 10
219.278307
 20
380.409874
 30
0.0
  0
SPLINE
  5
23d
100
AcDbEntity
  8
Capa_1
 62
7
100
AcDbSpline
 70
8
 71
3
 72
8
 73
4
 74
0
 40
0
 40
0
 40
0
 40
0
 40
1
 40
1
 40
1
 40
1
 10
219.278307
 20
380.409874
 30
0.0
 10
223.727825
 20
381.361918
 30
0.0
 10
227.989964
 20
383.283694
 30
0.0
 10
230.458161
 20
385.450781
 30
0.0
  0
SPLINE
  5
23e
100
AcDbEntity
  8
Capa_1
 62
7
100
AcDbSpline
 70
8
 71
3
 72
8
 73
4
 74
0
 40
0
 40
0
 40
0
 40
0
 40
1
 40
1
 40
1
 40
1
 10
230.458161
 20
385.450781
 30
0.0
 10
232.386772
 20
387.144142
 30
0.0
 10
239.810136
 20
400.842765
 30
0.0
 10
236.815841
 20
390.225628
 30
0.0
  0
SPLINE
  5
23f
100
AcDbEntity
  8
Capa_1
 62
7
100
AcDbSpline
 70
8
 71
3
 72
8
 73
4
 74
0
 40
0
 40
0
 40
0
 40
0
 40
1
 40
1
 40
1
 40
1
 10
236.815841
 20
390.225628
 30
0.0
 10
238.671414
 20
388.370041
 30
0.0
 10
226.447387
 20
378.524211
 30
0.0
 10
221.903308
 20
378.504482
 30
0.0
  0
SPLINE
  5
240
100
AcDbEntity
  8
Capa_1
 62
7
100
AcDbSpline
 70
8
 71
3
 72
8
 73
4
 74
0
 40
0
 40
0
 40
0
 40
0
 40
1
 40
1
 40
1
 40
1
 10
221.903308
 20
378.504482
 30
0.0
 10
219.852757
 20
378.495978
 30
0.0
 10
219.857083
 20
378.688167
 30
0.0
 10
221.807752
 20
374.246844
 30
0.0
  0
SPLINE
  5
241
100
AcDbEntity
  8
Capa_1
 62
7
100
AcDbSpline
 70
8
 71
3
 72
8
 73
4
 74
0
 40
0
 40
0
 40
0
 40
0
 40
1
 40
1
 40
1
 40
1
 10
221.807752
 20
374.246844
 30
0.0
 10
225.919613
 20
364.884633
 30
0.0
 10
226.965804
 20
361.534564
 30
0.0
 10
226.965804
 20
357.729931
 30
0.0
  0
SPLINE
  5
242
100
AcDbEntity
  8
Capa_1
 62
7
100
AcDbSpline
 70
8
 71
3
 72
8
 73
4
 74
0
 40
0
 40
0
 40
0
 40
0
 40
1
 40
1
 40
1
 40
1
 10
226.965804
 20
357.729931
 30
0.0
 10
226.965804
 20
354.247143
 30
0.0
 10
227.154110
 20
353.747140
 30
0.0
 10
228.465802
 20
353.747140
 30
0.0
  0
SPLINE
  5
243
100
AcDbEntity
  8
Capa_1
 62
7
100
AcDbSpline
 70
8
 71
3
 72
8
 73
4
 74
0
 40
0
 40
0
 40
0
 40
0
 40
1
 40
1
 40
1
 40
1
 10
228.465802
 20
353.747140
 30
0.0
 10
229.335885
 20
353.747140
 30
0.0
 10
229.965803
 20
353.247165
 30
0.0
 10
229.965803
 20
352.556504
 30
0.0
  0
SPLINE
  5
244
100
AcDbEntity
  8
Capa_1
 62
7
100
AcDbSpline
 70
8
 71
3
 72
8
 73
4
 74
0
 40
0
 40
0
 40
0
 40
0
 40
1
 40
1
 40
1
 40
1
 10
229.965803
 20
352.556504
 30
0.0
 10
229.965803
 20
350.577241
 30
0.0
 10
224.906686
 20
342.167046
 30
0.0
 10
219.319447
 20
334.858167
 30
0.0
  0
SPLINE
  5
245
100
AcDbEntity
  8
Capa_1
 62
7
100
AcDbSpline
 70
8
 71
3
 72
8
 73
4
 74
0
 40
0
 40
0
 40
0
 40
0
 40
1
 40
1
 40
1
 40
1
 10
219.319447
 20
334.858167
 30
0.0
 10
213.487679
 20
327.229398
 30
0.0
 10
200.645025
 20
312.497150
 30
0.0
 10
199.826521
 20
312.497150
 30
0.0
  0
SPLINE
  5
246
100
AcDbEntity
  8
Capa_1
 62
7
100
AcDbSpline
 70
8
 71
3
 72
8
 73
4
 74
0
 40
0
 40
0
 40
0
 40
0
 40
1
 40
1
 40
1
 40
1
 10
199.826521
 20
312.497150
 30
0.0
 10
198.597591
 20
316.598343
 30
0.0
 10
204.323825
 20
321.003184
 30
0.0
 10
206.464561
 20
323.422838
 30
0.0
  0
LWPOLYLINE
  5
247
100
AcDbEntity
  8
Capa_1
 62
7
100
AcDbPolyline
 90
1
 70
1
 10
254.340802
 20
368.747150
 30
0.0
  0
SPLINE
  5
248
100
AcDbEntity
  8
Capa_1
 62
7
100
AcDbSpline
 70
8
 71
3
 72
8
 73
4
 74
0
 40
0
 40
0
 40
0
 40
0
 40
1
 40
1
 40
1
 40
1
 10
205.215812
 20
319.622145
 30
0.0
 10
206.615146
 20
321.065915
 30
0.0
 10
207.591307
 20
322.247169
 30
0.0
 10
207.385058
 20
322.247169
 30
0.0
  0
SPLINE
  5
249
100
AcDbEntity
  8
Capa_1
 62
7
100
AcDbSpline
 70
8
 71
3
 72
8
 73
4
 74
0
 40
0
 40
0
 40
0
 40
0
 40
1
 40
1
 40
1
 40
1
 10
207.385058
 20
322.247169
 30
0.0
 10
207.178809
 20
322.247169
 30
0.0
 10
205.865147
 20
321.065915
 30
0.0
 10
204.465810
 20
319.622145
 30
0.0
  0
SPLINE
  5
24a
100
AcDbEntity
  8
Capa_1
 62
7
100
AcDbSpline
 70
8
 71
3
 72
8
 73
4
 74
0
 40
0
 40
0
 40
0
 40
0
 40
1
 40
1
 40
1
 40
1
 10
204.465810
 20
319.622145
 30
0.0
 10
203.066476
 20
318.178403
 30
0.0
 10
202.090314
 20
316.997150
 30
0.0
 10
202.296563
 20
316.997150
 30
0.0
  0
SPLINE
  5
24b
100
AcDbEntity
  8
Capa_1
 62
7
100
AcDbSpline
 70
8
 71
3
 72
8
 73
4
 74
0
 40
0
 40
0
 40
0
 40
0
 40
1
 40
1
 40
1
 40
1
 10
202.296563
 20
316.997150
 30
0.0
 10
202.502812
 20
316.997150
 30
0.0
 10
203.816475
 20
318.178403
 30
0.0
 10
205.215812
 20
319.622145
 30
0.0
  0
LWPOLYLINE
  5
24c
100
AcDbEntity
  8
Capa_1
 62
7
100
AcDbPolyline
 90
1
 70
1
 10
206.464561
 20
323.422838
 30
0.0
  0
LWPOLYLINE
  5
24d
100
AcDbEntity
  8
Capa_1
 62
7
100
AcDbPolyline
 90
1
 70
1
 10
205.215812
 20
319.622145
 30
0.0
  0
SPLINE
  5
24e
100
AcDbEntity
  8
Capa_1
 62
7
100
AcDbSpline
 70
8
 71
3
 72
8
 73
4
 74
0
 40
0
 40
0
 40
0
 40
0
 40
1
 40
1
 40
1
 40
1
 10
210.653311
 20
326.419342
 30
0.0
 10
208.381215
 20
324.366009
 30
0.0
 10
207.871072
 20
323.747150
 30
0.0
 10
208.450494
 20
323.747150
 30
0.0
  0
SPLINE
  5
24f
100
AcDbEntity
  8
Capa_1
 62
7
100
AcDbSpline
 70
8
 71
3
 72
8
 73
4
 74
0
 40
0
 40
0
 40
0
 40
0
 40
1
 40
1
 40
1
 40
1
 10
208.450494
 20
323.747150
 30
0.0
 10
208.579584
 20
323.747150
 30
0.0
 10
209.676444
 20
324.844044
 30
0.0
 10
210.887994
 20
326.184661
 30
0.0
  0
LWPOLYLINE
  5
250
100
AcDbEntity
  8
Capa_1
 62
7
100
AcDbPolyline
 90
3
 70
0
 10
210.887994
 20
326.184661
 30
0.0
 10
213.090812
 20
328.622145
 30
0.0
 10
210.653311
 20
326.419342
 30
0.0
  0
SPLINE
  5
251
100
AcDbEntity
  8
Capa_1
 62
7
100
AcDbSpline
 70
8
 71
3
 72
8
 73
4
 74
0
 40
0
 40
0
 40
0
 40
0
 40
1
 40
1
 40
1
 40
1
 10
215.061480
 20
331.059657
 30
0.0
 10
215.994385
 20
332.249187
 30
0.0
 10
215.967855
 20
332.275720
 30
0.0
 10
214.778299
 20
331.342838
 30
0.0
  0
SPLINE
  5
252
100
AcDbEntity
  8
Capa_1
 62
7
100
AcDbSpline
 70
8
 71
3
 72
8
 73
4
 74
0
 40
0
 40
0
 40
0
 40
0
 40
1
 40
1
 40
1
 40
1
 10
214.778299
 20
331.342838
 30
0.0
 10
213.528988
 20
330.363071
 30
0.0
 10
213.131690
 20
329.747187
 30
0.0
 10
213.748971
 20
329.747187
 30
0.0
  0
SPLINE
  5
253
100
AcDbEntity
  8
Capa_1
 62
7
100
AcDbSpline
 70
8
 71
3
 72
8
 73
4
 74
0
 40
0
 40
0
 40
0
 40
0
 40
1
 40
1
 40
1
 40
1
 10
213.748971
 20
329.747187
 30
0.0
 10
213.904706
 20
329.747187
 30
0.0
 10
214.495333
 20
330.337814
 30
0.0
 10
215.061469
 20
331.059685
 30
0.0
  0
LWPOLYLINE
  5
254
100
AcDbEntity
  8
Capa_1
 62
7
100
AcDbPolyline
 90
1
 70
1
 10
210.887994
 20
326.184661
 30
0.0
  0
LWPOLYLINE
  5
255
100
AcDbEntity
  8
Capa_1
 62
7
100
AcDbPolyline
 90
1
 70
1
 10
215.061469
 20
331.059685
 30
0.0
  0
ENDSEC
  0
SECTION
  2
OBJECTS
  0
DICTIONARY
  5
C
330
0
100
AcDbDictionary
  3
ACAD_GROUP
350
D
  3
ACAD_MLINESTYLE
350
17
  0
DICTIONARY
  5
D
330
C
100
AcDbDictionary
  0
DICTIONARY
  5
1A
330
C
100
AcDbDictionary
  0
DICTIONARY
  5
17
330
C
100
AcDbDictionary
  3
STANDARD
350
18
  0
DICTIONARY
  5
19
330
C
100
AcDbDictionary
  0
ENDSEC
  0
EOF
