G04 #@! TF.FileFunction,Soldermask,Bot*
%FSLAX46Y46*%
G04 Gerber Fmt 4.6, Leading zero omitted, Abs format (unit mm)*
G04 Created by KiCad (PCBNEW 4.0.6+dfsg1-1) date Fri Aug 17 18:18:40 2018*
%MOMM*%
%LPD*%
G01*
G04 APERTURE LIST*
%ADD10C,0.100000*%
%ADD11R,1.900000X1.650000*%
%ADD12R,6.400000X7.400000*%
%ADD13R,2.400000X2.400000*%
%ADD14R,1.900000X3.600000*%
%ADD15R,1.600000X1.600000*%
%ADD16R,2.200000X3.900000*%
%ADD17R,0.800000X1.750000*%
%ADD18C,1.000000*%
%ADD19R,2.300000X2.300000*%
%ADD20R,1.400000X3.400000*%
%ADD21R,1.400000X1.400000*%
%ADD22R,1.900000X1.700000*%
%ADD23R,1.700000X1.900000*%
%ADD24R,2.200000X1.500000*%
%ADD25R,1.900000X1.900000*%
%ADD26R,1.950000X1.000000*%
%ADD27R,2.900000X1.400000*%
%ADD28R,4.400000X2.400000*%
%ADD29R,1.050000X1.960000*%
%ADD30R,2.900000X1.500000*%
%ADD31R,1.500000X2.900000*%
%ADD32C,3.100000*%
%ADD33R,0.850000X1.850000*%
%ADD34R,1.200000X1.300000*%
%ADD35R,1.300000X1.200000*%
%ADD36R,1.200000X2.300000*%
G04 APERTURE END LIST*
D10*
D11*
X169906000Y-129921000D03*
X167406000Y-129921000D03*
D12*
X127280000Y-116500000D03*
X209280000Y-116500000D03*
D13*
X166612000Y-99326000D03*
X166612000Y-92326000D03*
X173612000Y-92326000D03*
D11*
X188996000Y-129540000D03*
X191496000Y-129540000D03*
X144970500Y-103124000D03*
X142470500Y-103124000D03*
X189210000Y-103632000D03*
X186710000Y-103632000D03*
D14*
X182626000Y-96806000D03*
X182626000Y-100806000D03*
D11*
X179344000Y-82804000D03*
X181844000Y-82804000D03*
D15*
X150114000Y-130218000D03*
X150114000Y-132418000D03*
X152146000Y-130218000D03*
X152146000Y-132418000D03*
D16*
X162814000Y-98258000D03*
X162814000Y-93258000D03*
D17*
X167356000Y-132425000D03*
X168006000Y-132425000D03*
X169956000Y-132425000D03*
X169306000Y-132425000D03*
D18*
X166656000Y-132950000D03*
X170656000Y-132950000D03*
D17*
X168656000Y-132425000D03*
D19*
X172606000Y-135100000D03*
X164706000Y-135100000D03*
D20*
X170688000Y-58396000D03*
X170688000Y-52856000D03*
X168148000Y-58396000D03*
X168148000Y-52856000D03*
X165608000Y-58396000D03*
X165608000Y-52856000D03*
D21*
X177312000Y-94408000D03*
X177312000Y-97108000D03*
X177312000Y-95758000D03*
D22*
X149769500Y-103124000D03*
X147069500Y-103124000D03*
X158830000Y-132588000D03*
X156130000Y-132588000D03*
X158830000Y-130556000D03*
X156130000Y-130556000D03*
D23*
X175387000Y-131779000D03*
X175387000Y-129079000D03*
D22*
X144974000Y-91694000D03*
X147674000Y-91694000D03*
X179244000Y-72136000D03*
X181944000Y-72136000D03*
D23*
X154769500Y-83900000D03*
X154769500Y-81200000D03*
X152610500Y-83900000D03*
X152610500Y-81200000D03*
X183916000Y-72089000D03*
X183916000Y-69389000D03*
X156972000Y-81200000D03*
X156972000Y-83900000D03*
X157373000Y-77740500D03*
X157373000Y-75040500D03*
D22*
X179137000Y-80264000D03*
X181837000Y-80264000D03*
D24*
X151332000Y-70684000D03*
X157532000Y-70684000D03*
X151332000Y-66984000D03*
X157532000Y-66984000D03*
D25*
X175514000Y-134874000D03*
X195834000Y-129286000D03*
X186837000Y-89344500D03*
X140716000Y-129286000D03*
D26*
X180815000Y-132715000D03*
X180815000Y-131445000D03*
X180815000Y-130175000D03*
X180815000Y-128905000D03*
X186215000Y-128905000D03*
X186215000Y-130175000D03*
X186215000Y-131445000D03*
X186215000Y-132715000D03*
D27*
X186742000Y-100560000D03*
X186742000Y-99060000D03*
X186742000Y-97560000D03*
D28*
X190702000Y-99060000D03*
D10*
G36*
X187777000Y-98360000D02*
X188927000Y-97860000D01*
X188927000Y-100260000D01*
X187777000Y-99760000D01*
X187777000Y-98360000D01*
X187777000Y-98360000D01*
G37*
D29*
X143977000Y-96694000D03*
X144927000Y-96694000D03*
X145877000Y-96694000D03*
X145877000Y-99394000D03*
X143977000Y-99394000D03*
X144927000Y-99394000D03*
D30*
X175706000Y-69088000D03*
X175706000Y-71088000D03*
X175706000Y-73088000D03*
X175706000Y-75088000D03*
X175706000Y-77088000D03*
X175706000Y-79088000D03*
X175706000Y-81088000D03*
X175706000Y-83088000D03*
X160306000Y-83088000D03*
X160306000Y-81088000D03*
X160306000Y-79088000D03*
X160306000Y-77088000D03*
X160306000Y-75088000D03*
X160306000Y-73088000D03*
X160306000Y-71088000D03*
X160306000Y-69088000D03*
D31*
X173016000Y-84788000D03*
X171016000Y-84788000D03*
X169016000Y-84788000D03*
X167016000Y-84788000D03*
X165016000Y-84788000D03*
X163016000Y-84788000D03*
D32*
X168148000Y-43688000D03*
D25*
X183896000Y-89408000D03*
X161798000Y-134874000D03*
D33*
X149712000Y-100105000D03*
X149062000Y-100105000D03*
X148412000Y-100105000D03*
X147762000Y-100105000D03*
X147762000Y-94205000D03*
X148412000Y-94205000D03*
X149062000Y-94205000D03*
X149712000Y-94205000D03*
D11*
X183769000Y-67310000D03*
X181269000Y-67310000D03*
D34*
X180775000Y-69342000D03*
X178675000Y-69342000D03*
D35*
X185694000Y-69757000D03*
X185694000Y-67657000D03*
D36*
X178775000Y-74319000D03*
X180675000Y-74319000D03*
X179725000Y-77319000D03*
X157038000Y-95274000D03*
X158938000Y-95274000D03*
X157988000Y-98274000D03*
D22*
X181456000Y-65151000D03*
X178756000Y-65151000D03*
M02*
