M48
;DRILL file {KiCad 4.0.6+dfsg1-1} date Tue Sep 25 21:42:50 2018
;FORMAT={-:-/ absolute / metric / decimal}
FMAT,2
METRIC,TZ
T1C0.200
T2C0.300
%
G90
G05
M71
T1
X160.612Y-132.588
X160.802Y-130.683
X177.883Y-66.802
X179.471Y-67.056
X182.392Y-68.707
X182.519Y-70.485
X184.043Y-131.445
X184.742Y-131.445
T2
X152.547Y-90.551
X168.422Y-128.397
X169.374Y-54.737
X170.505Y-87.503
X174.721Y-100.66
X179.725Y-78.867
X179.788Y-98.806
X180.055Y-100.711
X184.551Y-98.742
X186.9Y-92.964
X188.615Y-107.759
X194.711Y-103.886
T0
M30
