G04 #@! TF.FileFunction,Legend,Top*
%FSLAX46Y46*%
G04 Gerber Fmt 4.6, Leading zero omitted, Abs format (unit mm)*
G04 Created by KiCad (PCBNEW 4.0.6+dfsg1-1) date Tue Sep 25 21:42:45 2018*
%MOMM*%
%LPD*%
G01*
G04 APERTURE LIST*
%ADD10C,0.100000*%
%ADD11C,0.010000*%
%ADD12C,0.120000*%
G04 APERTURE END LIST*
D10*
D11*
G36*
X170989264Y-49982234D02*
X171547551Y-50539176D01*
X172351862Y-51548239D01*
X173020481Y-52453205D01*
X174472897Y-54433652D01*
X175694274Y-56045361D01*
X176750468Y-57364337D01*
X177707333Y-58466587D01*
X178630723Y-59428117D01*
X179586493Y-60324933D01*
X180594000Y-61194186D01*
X182461190Y-62700806D01*
X184176959Y-63950591D01*
X185945979Y-65085634D01*
X187478737Y-65973935D01*
X188287564Y-66467802D01*
X188715180Y-66870417D01*
X188871357Y-67302370D01*
X188882421Y-67515925D01*
X188648409Y-68375232D01*
X187956431Y-69466516D01*
X186821572Y-70772427D01*
X185258921Y-72275614D01*
X183283562Y-73958727D01*
X183272786Y-73967474D01*
X182449156Y-74635895D01*
X183365574Y-75988072D01*
X185070303Y-78181636D01*
X187206873Y-80408132D01*
X189683654Y-82591298D01*
X192409018Y-84654874D01*
X195291334Y-86522599D01*
X197489346Y-87743018D01*
X198841932Y-88469187D01*
X199989553Y-89143312D01*
X200843813Y-89710064D01*
X201316316Y-90114114D01*
X201350462Y-90159781D01*
X201633066Y-91025702D01*
X201396934Y-91948122D01*
X200653355Y-92912718D01*
X199413619Y-93905166D01*
X197689016Y-94911145D01*
X197549082Y-94982379D01*
X196442437Y-95576647D01*
X195757675Y-96042823D01*
X195416116Y-96440911D01*
X195344335Y-96663755D01*
X195470794Y-97354698D01*
X195971187Y-98312525D01*
X196793510Y-99480826D01*
X197885760Y-100803191D01*
X199195931Y-102223209D01*
X200672019Y-103684471D01*
X202262019Y-105130565D01*
X203913929Y-106505083D01*
X205548314Y-107732240D01*
X206901518Y-108633571D01*
X208548128Y-109646021D01*
X210296332Y-110655967D01*
X211954319Y-111549790D01*
X212232524Y-111691672D01*
X214026899Y-112608939D01*
X215392564Y-113341972D01*
X216385731Y-113931919D01*
X217062611Y-114419927D01*
X217479413Y-114847144D01*
X217692349Y-115254717D01*
X217757629Y-115683795D01*
X217758211Y-115736618D01*
X217696450Y-116171581D01*
X217467868Y-116638181D01*
X217007515Y-117223828D01*
X216250440Y-118015929D01*
X215570109Y-118681319D01*
X211367653Y-122419567D01*
X206967328Y-125729008D01*
X202424258Y-128570458D01*
X199478765Y-130119668D01*
X195610255Y-131897521D01*
X191924441Y-133350536D01*
X188235752Y-134541585D01*
X184358617Y-135533543D01*
X182064526Y-136019840D01*
X180218495Y-136304161D01*
X177984632Y-136517671D01*
X175505564Y-136657068D01*
X172923918Y-136719052D01*
X170382320Y-136700320D01*
X168023396Y-136597572D01*
X165989774Y-136407506D01*
X165888737Y-136394259D01*
X163917585Y-136105082D01*
X161822936Y-135752399D01*
X159707532Y-135357554D01*
X157674115Y-134941894D01*
X155825425Y-134526763D01*
X154264203Y-134133507D01*
X153093192Y-133783470D01*
X152787684Y-133672440D01*
X151381132Y-133072864D01*
X149783572Y-132313706D01*
X148142877Y-131472507D01*
X146606921Y-130626806D01*
X145323576Y-129854145D01*
X144699790Y-129431374D01*
X143976897Y-128820787D01*
X143526921Y-128274010D01*
X143399912Y-127875388D01*
X143645919Y-127709269D01*
X143677462Y-127708526D01*
X144001415Y-127801990D01*
X144728657Y-128059417D01*
X145765912Y-128446362D01*
X147019901Y-128928380D01*
X147671551Y-129183459D01*
X149138736Y-129738522D01*
X150497530Y-130193010D01*
X151836632Y-130562653D01*
X153244739Y-130863183D01*
X154810551Y-131110330D01*
X156622766Y-131319826D01*
X158770082Y-131507402D01*
X161341199Y-131688789D01*
X162057085Y-131734790D01*
X166298575Y-131893438D01*
X170495530Y-131838636D01*
X174567479Y-131579352D01*
X178433948Y-131124552D01*
X182014467Y-130483204D01*
X185228561Y-129664276D01*
X187431584Y-128907153D01*
X188844256Y-128308944D01*
X190381489Y-127586486D01*
X191923722Y-126803164D01*
X193351389Y-126022360D01*
X194544927Y-125307457D01*
X195384774Y-124721838D01*
X195487266Y-124636684D01*
X195896292Y-124271947D01*
X196148952Y-123953577D01*
X196219496Y-123604114D01*
X196082173Y-123146099D01*
X195711233Y-122502073D01*
X195080928Y-121594578D01*
X194165506Y-120346153D01*
X193975310Y-120088526D01*
X192781021Y-118417933D01*
X191722924Y-116808316D01*
X190757710Y-115173781D01*
X189842073Y-113428439D01*
X188932706Y-111486396D01*
X187986301Y-109261763D01*
X186959551Y-106668647D01*
X186198475Y-104664637D01*
X185755870Y-103491202D01*
X185383529Y-102516817D01*
X185119938Y-101841305D01*
X185003583Y-101564495D01*
X185002878Y-101563527D01*
X184731285Y-101570954D01*
X184018675Y-101640176D01*
X182953930Y-101761233D01*
X181625935Y-101924165D01*
X180561983Y-102061119D01*
X175994776Y-102468602D01*
X171658387Y-102449876D01*
X167451886Y-101998120D01*
X163274342Y-101106512D01*
X162256775Y-100823987D01*
X160530997Y-100273508D01*
X159202188Y-99742494D01*
X158309933Y-99250157D01*
X157893819Y-98815713D01*
X157867684Y-98693619D01*
X157926971Y-98584063D01*
X158139043Y-98496330D01*
X158555215Y-98428103D01*
X159226804Y-98377066D01*
X160205126Y-98340902D01*
X161541496Y-98317295D01*
X163287232Y-98303927D01*
X165493649Y-98298483D01*
X166631014Y-98298000D01*
X168859436Y-98289616D01*
X171016684Y-98265864D01*
X173017974Y-98228844D01*
X174778521Y-98180658D01*
X176213542Y-98123407D01*
X177238253Y-98059191D01*
X177552586Y-98027379D01*
X178591550Y-97848164D01*
X179837351Y-97558269D01*
X181191962Y-97189694D01*
X182557353Y-96774437D01*
X183835496Y-96344496D01*
X184928362Y-95931871D01*
X185737923Y-95568559D01*
X186166151Y-95286559D01*
X186208737Y-95201836D01*
X186063115Y-94913362D01*
X185700683Y-94378050D01*
X185571825Y-94202792D01*
X184536887Y-92703783D01*
X183370377Y-90819626D01*
X182132207Y-88664451D01*
X180882291Y-86352386D01*
X179680541Y-83997562D01*
X178586870Y-81714105D01*
X177661192Y-79616147D01*
X176963419Y-77817815D01*
X176949582Y-77778168D01*
X176182421Y-75573074D01*
X174630991Y-75572379D01*
X173055704Y-75467293D01*
X171471748Y-75178345D01*
X169973872Y-74742927D01*
X168656825Y-74198433D01*
X167615355Y-73582257D01*
X166944210Y-72931794D01*
X166742907Y-72459241D01*
X166741604Y-72175909D01*
X166903503Y-71990106D01*
X167330113Y-71865753D01*
X168122946Y-71766773D01*
X168881854Y-71699028D01*
X169834875Y-71600474D01*
X171031774Y-71450433D01*
X172364547Y-71265639D01*
X173725194Y-71062824D01*
X175005713Y-70858724D01*
X176098102Y-70670072D01*
X176894361Y-70513601D01*
X177286486Y-70406046D01*
X177305090Y-70393928D01*
X177232016Y-70132641D01*
X176975630Y-69456204D01*
X176566266Y-68439668D01*
X176034259Y-67158085D01*
X175409946Y-65686506D01*
X175280324Y-65384480D01*
X173684817Y-61490026D01*
X172390956Y-57933555D01*
X171408502Y-54743742D01*
X170803662Y-52235056D01*
X170584201Y-51003823D01*
X170528224Y-50216588D01*
X170656367Y-49875381D01*
X170989264Y-49982234D01*
X170989264Y-49982234D01*
G37*
X170989264Y-49982234D02*
X171547551Y-50539176D01*
X172351862Y-51548239D01*
X173020481Y-52453205D01*
X174472897Y-54433652D01*
X175694274Y-56045361D01*
X176750468Y-57364337D01*
X177707333Y-58466587D01*
X178630723Y-59428117D01*
X179586493Y-60324933D01*
X180594000Y-61194186D01*
X182461190Y-62700806D01*
X184176959Y-63950591D01*
X185945979Y-65085634D01*
X187478737Y-65973935D01*
X188287564Y-66467802D01*
X188715180Y-66870417D01*
X188871357Y-67302370D01*
X188882421Y-67515925D01*
X188648409Y-68375232D01*
X187956431Y-69466516D01*
X186821572Y-70772427D01*
X185258921Y-72275614D01*
X183283562Y-73958727D01*
X183272786Y-73967474D01*
X182449156Y-74635895D01*
X183365574Y-75988072D01*
X185070303Y-78181636D01*
X187206873Y-80408132D01*
X189683654Y-82591298D01*
X192409018Y-84654874D01*
X195291334Y-86522599D01*
X197489346Y-87743018D01*
X198841932Y-88469187D01*
X199989553Y-89143312D01*
X200843813Y-89710064D01*
X201316316Y-90114114D01*
X201350462Y-90159781D01*
X201633066Y-91025702D01*
X201396934Y-91948122D01*
X200653355Y-92912718D01*
X199413619Y-93905166D01*
X197689016Y-94911145D01*
X197549082Y-94982379D01*
X196442437Y-95576647D01*
X195757675Y-96042823D01*
X195416116Y-96440911D01*
X195344335Y-96663755D01*
X195470794Y-97354698D01*
X195971187Y-98312525D01*
X196793510Y-99480826D01*
X197885760Y-100803191D01*
X199195931Y-102223209D01*
X200672019Y-103684471D01*
X202262019Y-105130565D01*
X203913929Y-106505083D01*
X205548314Y-107732240D01*
X206901518Y-108633571D01*
X208548128Y-109646021D01*
X210296332Y-110655967D01*
X211954319Y-111549790D01*
X212232524Y-111691672D01*
X214026899Y-112608939D01*
X215392564Y-113341972D01*
X216385731Y-113931919D01*
X217062611Y-114419927D01*
X217479413Y-114847144D01*
X217692349Y-115254717D01*
X217757629Y-115683795D01*
X217758211Y-115736618D01*
X217696450Y-116171581D01*
X217467868Y-116638181D01*
X217007515Y-117223828D01*
X216250440Y-118015929D01*
X215570109Y-118681319D01*
X211367653Y-122419567D01*
X206967328Y-125729008D01*
X202424258Y-128570458D01*
X199478765Y-130119668D01*
X195610255Y-131897521D01*
X191924441Y-133350536D01*
X188235752Y-134541585D01*
X184358617Y-135533543D01*
X182064526Y-136019840D01*
X180218495Y-136304161D01*
X177984632Y-136517671D01*
X175505564Y-136657068D01*
X172923918Y-136719052D01*
X170382320Y-136700320D01*
X168023396Y-136597572D01*
X165989774Y-136407506D01*
X165888737Y-136394259D01*
X163917585Y-136105082D01*
X161822936Y-135752399D01*
X159707532Y-135357554D01*
X157674115Y-134941894D01*
X155825425Y-134526763D01*
X154264203Y-134133507D01*
X153093192Y-133783470D01*
X152787684Y-133672440D01*
X151381132Y-133072864D01*
X149783572Y-132313706D01*
X148142877Y-131472507D01*
X146606921Y-130626806D01*
X145323576Y-129854145D01*
X144699790Y-129431374D01*
X143976897Y-128820787D01*
X143526921Y-128274010D01*
X143399912Y-127875388D01*
X143645919Y-127709269D01*
X143677462Y-127708526D01*
X144001415Y-127801990D01*
X144728657Y-128059417D01*
X145765912Y-128446362D01*
X147019901Y-128928380D01*
X147671551Y-129183459D01*
X149138736Y-129738522D01*
X150497530Y-130193010D01*
X151836632Y-130562653D01*
X153244739Y-130863183D01*
X154810551Y-131110330D01*
X156622766Y-131319826D01*
X158770082Y-131507402D01*
X161341199Y-131688789D01*
X162057085Y-131734790D01*
X166298575Y-131893438D01*
X170495530Y-131838636D01*
X174567479Y-131579352D01*
X178433948Y-131124552D01*
X182014467Y-130483204D01*
X185228561Y-129664276D01*
X187431584Y-128907153D01*
X188844256Y-128308944D01*
X190381489Y-127586486D01*
X191923722Y-126803164D01*
X193351389Y-126022360D01*
X194544927Y-125307457D01*
X195384774Y-124721838D01*
X195487266Y-124636684D01*
X195896292Y-124271947D01*
X196148952Y-123953577D01*
X196219496Y-123604114D01*
X196082173Y-123146099D01*
X195711233Y-122502073D01*
X195080928Y-121594578D01*
X194165506Y-120346153D01*
X193975310Y-120088526D01*
X192781021Y-118417933D01*
X191722924Y-116808316D01*
X190757710Y-115173781D01*
X189842073Y-113428439D01*
X188932706Y-111486396D01*
X187986301Y-109261763D01*
X186959551Y-106668647D01*
X186198475Y-104664637D01*
X185755870Y-103491202D01*
X185383529Y-102516817D01*
X185119938Y-101841305D01*
X185003583Y-101564495D01*
X185002878Y-101563527D01*
X184731285Y-101570954D01*
X184018675Y-101640176D01*
X182953930Y-101761233D01*
X181625935Y-101924165D01*
X180561983Y-102061119D01*
X175994776Y-102468602D01*
X171658387Y-102449876D01*
X167451886Y-101998120D01*
X163274342Y-101106512D01*
X162256775Y-100823987D01*
X160530997Y-100273508D01*
X159202188Y-99742494D01*
X158309933Y-99250157D01*
X157893819Y-98815713D01*
X157867684Y-98693619D01*
X157926971Y-98584063D01*
X158139043Y-98496330D01*
X158555215Y-98428103D01*
X159226804Y-98377066D01*
X160205126Y-98340902D01*
X161541496Y-98317295D01*
X163287232Y-98303927D01*
X165493649Y-98298483D01*
X166631014Y-98298000D01*
X168859436Y-98289616D01*
X171016684Y-98265864D01*
X173017974Y-98228844D01*
X174778521Y-98180658D01*
X176213542Y-98123407D01*
X177238253Y-98059191D01*
X177552586Y-98027379D01*
X178591550Y-97848164D01*
X179837351Y-97558269D01*
X181191962Y-97189694D01*
X182557353Y-96774437D01*
X183835496Y-96344496D01*
X184928362Y-95931871D01*
X185737923Y-95568559D01*
X186166151Y-95286559D01*
X186208737Y-95201836D01*
X186063115Y-94913362D01*
X185700683Y-94378050D01*
X185571825Y-94202792D01*
X184536887Y-92703783D01*
X183370377Y-90819626D01*
X182132207Y-88664451D01*
X180882291Y-86352386D01*
X179680541Y-83997562D01*
X178586870Y-81714105D01*
X177661192Y-79616147D01*
X176963419Y-77817815D01*
X176949582Y-77778168D01*
X176182421Y-75573074D01*
X174630991Y-75572379D01*
X173055704Y-75467293D01*
X171471748Y-75178345D01*
X169973872Y-74742927D01*
X168656825Y-74198433D01*
X167615355Y-73582257D01*
X166944210Y-72931794D01*
X166742907Y-72459241D01*
X166741604Y-72175909D01*
X166903503Y-71990106D01*
X167330113Y-71865753D01*
X168122946Y-71766773D01*
X168881854Y-71699028D01*
X169834875Y-71600474D01*
X171031774Y-71450433D01*
X172364547Y-71265639D01*
X173725194Y-71062824D01*
X175005713Y-70858724D01*
X176098102Y-70670072D01*
X176894361Y-70513601D01*
X177286486Y-70406046D01*
X177305090Y-70393928D01*
X177232016Y-70132641D01*
X176975630Y-69456204D01*
X176566266Y-68439668D01*
X176034259Y-67158085D01*
X175409946Y-65686506D01*
X175280324Y-65384480D01*
X173684817Y-61490026D01*
X172390956Y-57933555D01*
X171408502Y-54743742D01*
X170803662Y-52235056D01*
X170584201Y-51003823D01*
X170528224Y-50216588D01*
X170656367Y-49875381D01*
X170989264Y-49982234D01*
D12*
X166952000Y-125824000D02*
X169852000Y-125824000D01*
X166502000Y-126274000D02*
X166952000Y-125824000D01*
X165702000Y-129524000D02*
X165702000Y-127524000D01*
X166952000Y-131224000D02*
X166502000Y-130774000D01*
X169852000Y-131224000D02*
X166952000Y-131224000D01*
X170302000Y-130774000D02*
X169852000Y-131224000D01*
X171102000Y-127524000D02*
X171102000Y-129524000D01*
X169852000Y-125824000D02*
X170302000Y-126274000D01*
X165250500Y-58427500D02*
X165250500Y-51427500D01*
X170450500Y-58427500D02*
X170450500Y-51427500D01*
X170450500Y-51427500D02*
X169450500Y-51427500D01*
X157122500Y-75572500D02*
X157122500Y-68572500D01*
X162322500Y-75572500D02*
X162322500Y-68572500D01*
X162322500Y-68572500D02*
X161322500Y-68572500D01*
X167155500Y-90749000D02*
X167155500Y-83749000D01*
X172355500Y-90749000D02*
X172355500Y-83749000D01*
X172355500Y-83749000D02*
X171355500Y-83749000D01*
X146708500Y-100591500D02*
X146708500Y-93591500D01*
X151908500Y-100591500D02*
X151908500Y-93591500D01*
X151908500Y-93591500D02*
X150908500Y-93591500D01*
X157757500Y-117927000D02*
X157757500Y-110927000D01*
X162957500Y-117927000D02*
X162957500Y-110927000D01*
X162957500Y-110927000D02*
X161957500Y-110927000D01*
X179538000Y-124213500D02*
X179538000Y-117213500D01*
X184738000Y-124213500D02*
X184738000Y-117213500D01*
X184738000Y-117213500D02*
X183738000Y-117213500D01*
D11*
G36*
X145898120Y-109608272D02*
X145909272Y-109616223D01*
X145933581Y-109668584D01*
X145972828Y-109783030D01*
X146020377Y-109939481D01*
X146045480Y-110028234D01*
X146115929Y-110268209D01*
X146205429Y-110544738D01*
X146318032Y-110869695D01*
X146457793Y-111254951D01*
X146540005Y-111476254D01*
X146596964Y-111620379D01*
X146674749Y-111806610D01*
X146758646Y-111999890D01*
X146777923Y-112043137D01*
X146855327Y-112213737D01*
X146915957Y-112318748D01*
X146978252Y-112362968D01*
X147060650Y-112351199D01*
X147181587Y-112288240D01*
X147341652Y-112189905D01*
X147513751Y-112066993D01*
X147722296Y-111892359D01*
X147951815Y-111681523D01*
X148186837Y-111450003D01*
X148411894Y-111213320D01*
X148611514Y-110986991D01*
X148770227Y-110786536D01*
X148835465Y-110691378D01*
X148956368Y-110507408D01*
X149049224Y-110385862D01*
X149125526Y-110313980D01*
X149196769Y-110278998D01*
X149209961Y-110275633D01*
X149259223Y-110273112D01*
X149274991Y-110301327D01*
X149254091Y-110370067D01*
X149193349Y-110489122D01*
X149089590Y-110668283D01*
X149074359Y-110693849D01*
X148915784Y-110934981D01*
X148715901Y-111192923D01*
X148461811Y-111484239D01*
X148443303Y-111504516D01*
X148278994Y-111685485D01*
X148165684Y-111814953D01*
X148096024Y-111903157D01*
X148062657Y-111960333D01*
X148058233Y-111996717D01*
X148072913Y-112020139D01*
X148138234Y-112107355D01*
X148156767Y-112142486D01*
X148178961Y-112166012D01*
X148206536Y-112132277D01*
X148246043Y-112030897D01*
X148267154Y-111967547D01*
X148395543Y-111697593D01*
X148584733Y-111486310D01*
X148831863Y-111336626D01*
X148916574Y-111304271D01*
X149051311Y-111254626D01*
X149131267Y-111207693D01*
X149183385Y-111143022D01*
X149218116Y-111075445D01*
X149350444Y-110867353D01*
X149517645Y-110714812D01*
X149704963Y-110629126D01*
X149819878Y-110614504D01*
X149971507Y-110633114D01*
X150113491Y-110694970D01*
X150257983Y-110809119D01*
X150417134Y-110984601D01*
X150551041Y-111158655D01*
X150744527Y-111412752D01*
X150903452Y-111601739D01*
X151025622Y-111723357D01*
X151108848Y-111775341D01*
X151142534Y-111769317D01*
X151184711Y-111673916D01*
X151191557Y-111523945D01*
X151167269Y-111340026D01*
X151116044Y-111142785D01*
X151109851Y-111126884D01*
X151410354Y-110826381D01*
X151444685Y-110801668D01*
X151478119Y-110757191D01*
X151468331Y-110746474D01*
X151420963Y-110779501D01*
X151408394Y-110801668D01*
X151410354Y-110826381D01*
X151109851Y-111126884D01*
X151042080Y-110952841D01*
X151012495Y-110901026D01*
X151476017Y-110437503D01*
X151632251Y-110558035D01*
X151808855Y-110610733D01*
X151951759Y-110599427D01*
X152084062Y-110559655D01*
X152151280Y-110513291D01*
X152172841Y-110445142D01*
X152173386Y-110426108D01*
X152144998Y-110349104D01*
X152075642Y-110256595D01*
X152065565Y-110246205D01*
X151901121Y-110038092D01*
X151755253Y-109771103D01*
X151638865Y-109470962D01*
X151562860Y-109163396D01*
X151543326Y-109013924D01*
X151528407Y-108840654D01*
X151461044Y-108952195D01*
X151362662Y-109147401D01*
X151282438Y-109366877D01*
X151229756Y-109579678D01*
X151214000Y-109754857D01*
X151214535Y-109765104D01*
X151258660Y-110031419D01*
X151348654Y-110258759D01*
X151476017Y-110437503D01*
X151012495Y-110901026D01*
X150949572Y-110790821D01*
X150940987Y-110778996D01*
X150804308Y-110526410D01*
X150733608Y-110238359D01*
X150726058Y-109929188D01*
X150778821Y-109613240D01*
X150889068Y-109304863D01*
X151053965Y-109018402D01*
X151270678Y-108768201D01*
X151352183Y-108696769D01*
X151459351Y-108597317D01*
X151536598Y-108503422D01*
X151558528Y-108461168D01*
X151606302Y-108383517D01*
X151649271Y-108371762D01*
X151688366Y-108403581D01*
X151712443Y-108504510D01*
X151722667Y-108649324D01*
X151764364Y-109083695D01*
X151856144Y-109458501D01*
X151996685Y-109769700D01*
X152162290Y-109990514D01*
X152308488Y-110129102D01*
X152423248Y-110200935D01*
X152519109Y-110211939D01*
X152579873Y-110187712D01*
X152666538Y-110088384D01*
X152713185Y-109926197D01*
X152719977Y-109713136D01*
X152687079Y-109461187D01*
X152614652Y-109182338D01*
X152564219Y-109038027D01*
X152528178Y-108906156D01*
X152540175Y-108835530D01*
X152597385Y-108831177D01*
X152659764Y-108867960D01*
X152751819Y-108977567D01*
X152833677Y-109148897D01*
X152900042Y-109358867D01*
X152945618Y-109584393D01*
X152965109Y-109802389D01*
X152953221Y-109989773D01*
X152934132Y-110063999D01*
X152846748Y-110221912D01*
X152718778Y-110350295D01*
X152574465Y-110427879D01*
X152504522Y-110440937D01*
X152428366Y-110452941D01*
X152408770Y-110496249D01*
X152410865Y-110533465D01*
X152388956Y-110707630D01*
X152303847Y-110889529D01*
X152171897Y-111057119D01*
X152009467Y-111188359D01*
X151879838Y-111248932D01*
X151734913Y-111271843D01*
X151581231Y-111264282D01*
X151569828Y-111262090D01*
X151407369Y-111228285D01*
X151407368Y-111516555D01*
X151402130Y-111681744D01*
X151380923Y-111790713D01*
X151335512Y-111871838D01*
X151289478Y-111922715D01*
X151187044Y-112002008D01*
X151096636Y-112033226D01*
X151089118Y-112032940D01*
X150965546Y-111984323D01*
X150813489Y-111861129D01*
X150637032Y-111667236D01*
X150462156Y-111437490D01*
X150257605Y-111174705D01*
X150073986Y-110991833D01*
X149908180Y-110887316D01*
X149757065Y-110859592D01*
X149617524Y-110907101D01*
X149535172Y-110973934D01*
X149451165Y-111073046D01*
X149396557Y-111164769D01*
X149392330Y-111176568D01*
X149383054Y-111239007D01*
X149419395Y-111276348D01*
X149495013Y-111305338D01*
X149707341Y-111415531D01*
X149909736Y-111590885D01*
X150087875Y-111811723D01*
X150227436Y-112058369D01*
X150314098Y-112311148D01*
X150334823Y-112459078D01*
X150318021Y-112678661D01*
X150249765Y-112856369D01*
X150139358Y-112981851D01*
X149996106Y-113044757D01*
X149829311Y-113034739D01*
X149819851Y-113031931D01*
X149695474Y-112958203D01*
X149683408Y-112945845D01*
X149854005Y-112775248D01*
X149924014Y-112826949D01*
X149947716Y-112807752D01*
X149924182Y-112718176D01*
X149864002Y-112582246D01*
X149784613Y-112446301D01*
X149672809Y-112287822D01*
X149596638Y-112193931D01*
X149922816Y-111867754D01*
X149944794Y-111881487D01*
X149962862Y-111867754D01*
X149976594Y-111832043D01*
X149962861Y-111827708D01*
X149923623Y-111859758D01*
X149922816Y-111867754D01*
X149596638Y-112193931D01*
X149574218Y-112166295D01*
X149377600Y-111942432D01*
X149460897Y-112185085D01*
X149594851Y-112461029D01*
X149738618Y-112652132D01*
X149854005Y-112775248D01*
X149683408Y-112945845D01*
X149560258Y-112819717D01*
X149425403Y-112633756D01*
X149302108Y-112417602D01*
X149201574Y-112188540D01*
X149138731Y-111980896D01*
X149093911Y-111823067D01*
X149037463Y-111732711D01*
X148952592Y-111692509D01*
X148851593Y-111684818D01*
X148701124Y-111723212D01*
X148577567Y-111828313D01*
X148485028Y-111984992D01*
X148427616Y-112178122D01*
X148409440Y-112392575D01*
X148434607Y-112613227D01*
X148507227Y-112824948D01*
X148530012Y-112868884D01*
X148670287Y-113119537D01*
X148781676Y-113313597D01*
X148875108Y-113469512D01*
X148961509Y-113605730D01*
X149008633Y-113676912D01*
X149081556Y-113795922D01*
X149127114Y-113890383D01*
X149135644Y-113930502D01*
X149086921Y-113977873D01*
X148984254Y-113975169D01*
X148841284Y-113923777D01*
X148784772Y-113894831D01*
X148605958Y-113796755D01*
X148650383Y-113936328D01*
X148674022Y-114061329D01*
X148684391Y-114223000D01*
X148683010Y-114308440D01*
X148666828Y-114460421D01*
X148627115Y-114566038D01*
X148548524Y-114663483D01*
X148534711Y-114677482D01*
X148425594Y-114769091D01*
X148322526Y-114805599D01*
X148245087Y-114808164D01*
X148138135Y-114798763D01*
X148074040Y-114783218D01*
X148069983Y-114780364D01*
X148019655Y-114751339D01*
X147922672Y-114707118D01*
X147895875Y-114695918D01*
X147768406Y-114643577D01*
X148013146Y-114398837D01*
X148082697Y-114460799D01*
X148153105Y-114506341D01*
X148259700Y-114559751D01*
X148328705Y-114564162D01*
X148391347Y-114520384D01*
X148399124Y-114512727D01*
X148460314Y-114406114D01*
X148473184Y-114247281D01*
X148472346Y-114232729D01*
X148447461Y-114050251D01*
X148399023Y-113837404D01*
X148335679Y-113623767D01*
X148266076Y-113438919D01*
X148206595Y-113323678D01*
X148081463Y-113067728D01*
X148067189Y-113012569D01*
X148175821Y-112903938D01*
X148205855Y-112903937D01*
X148205855Y-112873904D01*
X148175821Y-112873903D01*
X148175821Y-112903938D01*
X148067189Y-113012569D01*
X148000405Y-112754483D01*
X147967965Y-112401843D01*
X147967690Y-112382514D01*
X147964741Y-112206356D01*
X147952329Y-112100008D01*
X147918502Y-112059801D01*
X147851305Y-112082066D01*
X147738788Y-112163135D01*
X147604268Y-112270956D01*
X147460808Y-112377936D01*
X147314509Y-112473546D01*
X147225964Y-112522482D01*
X147123023Y-112576709D01*
X147079197Y-112620426D01*
X147074773Y-112674781D01*
X147076000Y-112683328D01*
X147106531Y-112783127D01*
X147172315Y-112940022D01*
X147265339Y-113138002D01*
X147377590Y-113361056D01*
X147501055Y-113593173D01*
X147627722Y-113818344D01*
X147727760Y-113985606D01*
X147848241Y-114176622D01*
X147939182Y-114309238D01*
X148013146Y-114398837D01*
X147768406Y-114643577D01*
X147743748Y-114633452D01*
X147735487Y-114815865D01*
X147711159Y-114961206D01*
X147642253Y-115097177D01*
X147577541Y-115183959D01*
X147491101Y-115300191D01*
X147429376Y-115399896D01*
X147411077Y-115442967D01*
X147299347Y-115781490D01*
X147132573Y-116078540D01*
X146920096Y-116319618D01*
X146774200Y-116431598D01*
X146593890Y-116520740D01*
X146426058Y-116553398D01*
X146288994Y-116527577D01*
X146235831Y-116490260D01*
X146200878Y-116466913D01*
X146186006Y-116496590D01*
X146188693Y-116591354D01*
X146196838Y-116676524D01*
X146196401Y-116887957D01*
X146137049Y-117054439D01*
X146008245Y-117199248D01*
X145934224Y-117256818D01*
X145763292Y-117339196D01*
X145565219Y-117373066D01*
X145367588Y-117358911D01*
X145197980Y-117297213D01*
X145126135Y-117242690D01*
X145043712Y-117160266D01*
X144989898Y-117331710D01*
X144895850Y-117514580D01*
X144750742Y-117660867D01*
X144573654Y-117761154D01*
X144383666Y-117806029D01*
X144199860Y-117786080D01*
X144129384Y-117756261D01*
X144052182Y-117710133D01*
X143997510Y-117658066D01*
X143952611Y-117579626D01*
X143910535Y-117469566D01*
X144001053Y-117379048D01*
X144031087Y-117379048D01*
X144031087Y-117349014D01*
X144001053Y-117349014D01*
X144001053Y-117379048D01*
X143910535Y-117469566D01*
X143904730Y-117454382D01*
X143863301Y-117330045D01*
X143790392Y-117131885D01*
X143722576Y-117010934D01*
X143652011Y-116960443D01*
X143570854Y-116973664D01*
X143501587Y-117018744D01*
X143398971Y-117149632D01*
X143340202Y-117335402D01*
X143330680Y-117555191D01*
X143340684Y-117640732D01*
X143373670Y-117780134D01*
X143433878Y-117935850D01*
X143529205Y-118125536D01*
X143658759Y-118352062D01*
X143809550Y-118606065D01*
X143922032Y-118796580D01*
X144000711Y-118933495D01*
X144050091Y-119026697D01*
X144074676Y-119086071D01*
X144078973Y-119121502D01*
X144067484Y-119142879D01*
X144044717Y-119160086D01*
X144031297Y-119169622D01*
X143955772Y-119194474D01*
X143847258Y-119168204D01*
X143769765Y-119132767D01*
X143583528Y-119039375D01*
X143616322Y-119214936D01*
X143622440Y-119424763D01*
X143567169Y-119608459D01*
X143462935Y-119755138D01*
X143322169Y-119853911D01*
X143157298Y-119893891D01*
X142980750Y-119864191D01*
X142912145Y-119831785D01*
X142764899Y-119726894D01*
X142590723Y-119568771D01*
X142453058Y-119423264D01*
X142550235Y-119326088D01*
X142584567Y-119301375D01*
X142617999Y-119256898D01*
X142608212Y-119246181D01*
X142560845Y-119279209D01*
X142548275Y-119301375D01*
X142550235Y-119326088D01*
X142453058Y-119423264D01*
X142408235Y-119375887D01*
X142307181Y-119253126D01*
X142529372Y-119030935D01*
X142559406Y-119030935D01*
X142559406Y-119000900D01*
X142529372Y-119000901D01*
X142529372Y-119030935D01*
X142307181Y-119253126D01*
X142236051Y-119166718D01*
X142218584Y-119143566D01*
X142171028Y-119088935D01*
X142289097Y-118970866D01*
X142319132Y-118970866D01*
X142319132Y-118940832D01*
X142289098Y-118940832D01*
X142289097Y-118970866D01*
X142171028Y-119088935D01*
X142060958Y-118962484D01*
X141920725Y-118864501D01*
X141797704Y-118849604D01*
X141691712Y-118917781D01*
X141602571Y-119069017D01*
X141590657Y-119098825D01*
X141551605Y-119265192D01*
X141544253Y-119450303D01*
X141568405Y-119615438D01*
X141593607Y-119681049D01*
X141628658Y-119743031D01*
X141697279Y-119861192D01*
X141789634Y-120018689D01*
X141895887Y-120198681D01*
X141898251Y-120202673D01*
X142030597Y-120434100D01*
X142116001Y-120604576D01*
X142157114Y-120722125D01*
X142156585Y-120794769D01*
X142117065Y-120830531D01*
X142106602Y-120833533D01*
X142068227Y-120823615D01*
X142003476Y-120776308D01*
X141905056Y-120684842D01*
X141765677Y-120542449D01*
X141581160Y-120345718D01*
X141237632Y-119954711D01*
X140952407Y-119581236D01*
X140709759Y-119201167D01*
X140493961Y-118790374D01*
X140333495Y-118431522D01*
X140312622Y-118420067D01*
X140274843Y-118458578D01*
X140214808Y-118555026D01*
X140127164Y-118717375D01*
X140079726Y-118809294D01*
X139977014Y-119017291D01*
X139913225Y-119166668D01*
X139883424Y-119271555D01*
X139882677Y-119346085D01*
X139886650Y-119362291D01*
X139914560Y-119430528D01*
X139958674Y-119448826D01*
X140046379Y-119424307D01*
X140078648Y-119412199D01*
X140280476Y-119366650D01*
X140458098Y-119396270D01*
X140617082Y-119503895D01*
X140762995Y-119692359D01*
X140817636Y-119788528D01*
X140895776Y-119962732D01*
X140940693Y-120140201D01*
X140961541Y-120358870D01*
X140962895Y-120390607D01*
X140962175Y-120611098D01*
X140946311Y-120848093D01*
X140918374Y-121077970D01*
X140881430Y-121277107D01*
X140838546Y-121421883D01*
X140825259Y-121450661D01*
X140808736Y-121506273D01*
X140826595Y-121570296D01*
X140887671Y-121662375D01*
X140962628Y-121756181D01*
X141174437Y-121976240D01*
X141399241Y-122144444D01*
X141625359Y-122256002D01*
X141841110Y-122306123D01*
X142034814Y-122290016D01*
X142144582Y-122240986D01*
X142254865Y-122121746D01*
X142334660Y-121927229D01*
X142383362Y-121661680D01*
X142400375Y-121329340D01*
X142385093Y-120934452D01*
X142363317Y-120697762D01*
X142344030Y-120497457D01*
X142332381Y-120328795D01*
X142329249Y-120209152D01*
X142335514Y-120155904D01*
X142335877Y-120155493D01*
X142382785Y-120149162D01*
X142426040Y-120227661D01*
X142462852Y-120376027D01*
X142490094Y-120494744D01*
X142516915Y-120574773D01*
X142525492Y-120588839D01*
X142541715Y-120640835D01*
X142561723Y-120756376D01*
X142582103Y-120914358D01*
X142589694Y-120985692D01*
X142604695Y-121262297D01*
X142597037Y-121536023D01*
X142568740Y-121782663D01*
X142521827Y-121978007D01*
X142502733Y-122026803D01*
X142405116Y-122179695D01*
X142266027Y-122320766D01*
X142113571Y-122424641D01*
X142023469Y-122459525D01*
X141826458Y-122483121D01*
X141592263Y-122476694D01*
X141361951Y-122443279D01*
X141208311Y-122399241D01*
X141073439Y-122333149D01*
X140915996Y-122236333D01*
X140813054Y-122162404D01*
X140598138Y-121995292D01*
X140294806Y-122292646D01*
X140141621Y-122438455D01*
X140022831Y-122537551D01*
X139915540Y-122605941D01*
X139796855Y-122659637D01*
X139738993Y-122681337D01*
X139505875Y-122739935D01*
X139308426Y-122728187D01*
X139130416Y-122643004D01*
X139013859Y-122543225D01*
X139006198Y-122532716D01*
X139137010Y-122401904D01*
X139269765Y-122514728D01*
X139444419Y-122564195D01*
X139646078Y-122550131D01*
X139859852Y-122472358D01*
X139963354Y-122411709D01*
X140058920Y-122347334D01*
X140123129Y-122296631D01*
X140178120Y-122236868D01*
X140246033Y-122145312D01*
X140306946Y-122058901D01*
X140389811Y-121934017D01*
X140424596Y-121857518D01*
X140417238Y-121812228D01*
X140398189Y-121794939D01*
X140330093Y-121730643D01*
X140252802Y-121640862D01*
X140623684Y-121269980D01*
X140654401Y-121286190D01*
X140678788Y-121255095D01*
X140702033Y-121163948D01*
X140726783Y-121016659D01*
X140760206Y-120640865D01*
X140741327Y-120304246D01*
X140671983Y-120015608D01*
X140554009Y-119783758D01*
X140444087Y-119660504D01*
X140338518Y-119579119D01*
X140254910Y-119551427D01*
X140165401Y-119564755D01*
X140077324Y-119602394D01*
X140029366Y-119662865D01*
X140020407Y-119759598D01*
X140049331Y-119906022D01*
X140115024Y-120115564D01*
X140118697Y-120126314D01*
X140177838Y-120287401D01*
X140253887Y-120478044D01*
X140339125Y-120680764D01*
X140425837Y-120878081D01*
X140506304Y-121052519D01*
X140572808Y-121186596D01*
X140617630Y-121262836D01*
X140623684Y-121269980D01*
X140252802Y-121640862D01*
X140230117Y-121614509D01*
X140113000Y-121465716D01*
X139993481Y-121303439D01*
X139886301Y-121146858D01*
X139827061Y-121051849D01*
X139709943Y-120852690D01*
X139712012Y-121036081D01*
X139699503Y-121178967D01*
X139657105Y-121243198D01*
X139583696Y-121230050D01*
X139556973Y-121212336D01*
X139520192Y-121146979D01*
X139501366Y-121014245D01*
X139499540Y-120806638D01*
X139500620Y-120770178D01*
X139501023Y-120575750D01*
X139490831Y-120395119D01*
X139472088Y-120258236D01*
X139463416Y-120224737D01*
X139429598Y-120126627D01*
X139407250Y-120098733D01*
X139381826Y-120130402D01*
X139368603Y-120155318D01*
X139300667Y-120302782D01*
X139220222Y-120503287D01*
X139137022Y-120729490D01*
X139060820Y-120954049D01*
X139001368Y-121149623D01*
X138972788Y-121265006D01*
X138931553Y-121615628D01*
X138952026Y-121937310D01*
X139032430Y-122217768D01*
X139137010Y-122401904D01*
X139006198Y-122532716D01*
X138855573Y-122326105D01*
X138757079Y-122054164D01*
X138720791Y-121735221D01*
X138723817Y-121603272D01*
X138754534Y-121375366D01*
X138819502Y-121096594D01*
X138911524Y-120790238D01*
X139023404Y-120479584D01*
X139147946Y-120187916D01*
X139185086Y-120110847D01*
X139321564Y-119835998D01*
X139256073Y-119472990D01*
X139792241Y-118936822D01*
X139816377Y-118909819D01*
X139864992Y-118823610D01*
X139929046Y-118697046D01*
X139999502Y-118548978D01*
X140067320Y-118398259D01*
X140123463Y-118263739D01*
X140151748Y-118186999D01*
X140162643Y-118077987D01*
X140146959Y-117928853D01*
X140122600Y-117824209D01*
X140073440Y-117628633D01*
X140049951Y-117513876D01*
X140414725Y-117149102D01*
X140436611Y-117003061D01*
X140442981Y-116878304D01*
X140435935Y-116713977D01*
X140424395Y-116603814D01*
X140381384Y-116370280D01*
X140322292Y-116210253D01*
X140241370Y-116112921D01*
X140139908Y-116068857D01*
X140012828Y-116042387D01*
X140126725Y-116368395D01*
X140194999Y-116560903D01*
X140266297Y-116757335D01*
X140325638Y-116916431D01*
X140327673Y-116921752D01*
X140414725Y-117149102D01*
X140049951Y-117513876D01*
X140021575Y-117375241D01*
X139971763Y-117090835D01*
X139928767Y-116802221D01*
X139902065Y-116582445D01*
X139881492Y-116402131D01*
X139864091Y-116296927D01*
X139846014Y-116257283D01*
X139823412Y-116273650D01*
X139797949Y-116324066D01*
X139683034Y-116669323D01*
X139618771Y-117077765D01*
X139605765Y-117543939D01*
X139625513Y-117880163D01*
X139645136Y-118067867D01*
X139671184Y-118273722D01*
X139700777Y-118479456D01*
X139731028Y-118666795D01*
X139759056Y-118817464D01*
X139781977Y-118913192D01*
X139792241Y-118936822D01*
X139256073Y-119472990D01*
X139223540Y-119292658D01*
X139163384Y-118851211D01*
X139139231Y-118407578D01*
X139148945Y-117971280D01*
X139190381Y-117551836D01*
X139261402Y-117158766D01*
X139359867Y-116801588D01*
X139483635Y-116489821D01*
X139630565Y-116232987D01*
X139798519Y-116040603D01*
X139980928Y-115923984D01*
X140154255Y-115890275D01*
X140309415Y-115932333D01*
X140441919Y-116042081D01*
X140547274Y-116211445D01*
X140620988Y-116432351D01*
X140658573Y-116696721D01*
X140655533Y-116996482D01*
X140643214Y-117114743D01*
X140617507Y-117325552D01*
X140606165Y-117476629D01*
X140611543Y-117592339D01*
X140636000Y-117697046D01*
X140681892Y-117815115D01*
X140719074Y-117898906D01*
X140779788Y-118031528D01*
X140858649Y-118200810D01*
X140948296Y-118391304D01*
X141041367Y-118587558D01*
X141130496Y-118774124D01*
X141208324Y-118935552D01*
X141267485Y-119056391D01*
X141300618Y-119121192D01*
X141304721Y-119127793D01*
X141319898Y-119095476D01*
X141350537Y-119002609D01*
X141383613Y-118891325D01*
X141441147Y-118728254D01*
X141512792Y-118575506D01*
X141556712Y-118503905D01*
X141698549Y-118363166D01*
X141872877Y-118271038D01*
X142053703Y-118238362D01*
X142158483Y-118252949D01*
X142308531Y-118330982D01*
X142478436Y-118476654D01*
X142657506Y-118678332D01*
X142835054Y-118924386D01*
X142953209Y-119117681D01*
X143049417Y-119281615D01*
X143137398Y-119422611D01*
X143204335Y-119520537D01*
X143227745Y-119548951D01*
X143300860Y-119584306D01*
X143361864Y-119547135D01*
X143400003Y-119449852D01*
X143407031Y-119342000D01*
X143388300Y-119193499D01*
X143347294Y-119017275D01*
X143292569Y-118840649D01*
X143232684Y-118690942D01*
X143176197Y-118595472D01*
X143171619Y-118590520D01*
X143104553Y-118493197D01*
X143028529Y-118339001D01*
X142954064Y-118153745D01*
X142891674Y-117963247D01*
X142855748Y-117815174D01*
X142836950Y-117674757D01*
X142825581Y-117508215D01*
X142821819Y-117339315D01*
X142825838Y-117191819D01*
X142837818Y-117089495D01*
X142850105Y-117058315D01*
X142894667Y-117064071D01*
X142959115Y-117120156D01*
X143021327Y-117203063D01*
X143055887Y-117276948D01*
X143073972Y-117320388D01*
X143092791Y-117309263D01*
X143120145Y-117232718D01*
X143142217Y-117156809D01*
X143249579Y-116879412D01*
X143394082Y-116661648D01*
X143568719Y-116510129D01*
X143766488Y-116431474D01*
X143918611Y-116423616D01*
X144033329Y-116441863D01*
X144118797Y-116485461D01*
X144208799Y-116574023D01*
X144239888Y-116610110D01*
X144321139Y-116718898D01*
X144372553Y-116829780D01*
X144405829Y-116974033D01*
X144423242Y-117100230D01*
X144447386Y-117281084D01*
X144471820Y-117392745D01*
X144503988Y-117450666D01*
X144551335Y-117470298D01*
X144601025Y-117469217D01*
X144701303Y-117421848D01*
X144765198Y-117311590D01*
X144790317Y-117153409D01*
X144774264Y-116962269D01*
X144715318Y-116754886D01*
X144654497Y-116562959D01*
X144604933Y-116342419D01*
X144568334Y-116111357D01*
X144546403Y-115887861D01*
X144540848Y-115690016D01*
X144553373Y-115535914D01*
X144585685Y-115443643D01*
X144591078Y-115437480D01*
X144644773Y-115407809D01*
X144696558Y-115438713D01*
X144754243Y-115538297D01*
X144804562Y-115659008D01*
X144876159Y-115817225D01*
X144982690Y-116020148D01*
X145109872Y-116243241D01*
X145243417Y-116461974D01*
X145369041Y-116651812D01*
X145435845Y-116743157D01*
X145571797Y-116887089D01*
X145709528Y-116977974D01*
X145832891Y-117006727D01*
X145883702Y-116995161D01*
X145955848Y-116918723D01*
X145978623Y-116780231D01*
X145959634Y-116637494D01*
X146597609Y-115999518D01*
X146688859Y-116017115D01*
X146809466Y-115988201D01*
X146925147Y-115922543D01*
X146952445Y-115898452D01*
X147013700Y-115814617D01*
X147076112Y-115695425D01*
X147086197Y-115671793D01*
X147117244Y-115581089D01*
X147110511Y-115538450D01*
X147056964Y-115543429D01*
X146947573Y-115595580D01*
X146833962Y-115659322D01*
X146692270Y-115757796D01*
X146600372Y-115856339D01*
X146567210Y-115942079D01*
X146597609Y-115999518D01*
X145959634Y-116637494D01*
X145952810Y-116586196D01*
X145879191Y-116343132D01*
X145775297Y-116093443D01*
X145704217Y-115910062D01*
X145684360Y-115791346D01*
X145708844Y-115739983D01*
X145770788Y-115758671D01*
X145863312Y-115850096D01*
X145977848Y-116014204D01*
X146050702Y-116132822D01*
X146128292Y-115996041D01*
X146243207Y-115851821D01*
X146423438Y-115697713D01*
X146652290Y-115545966D01*
X146913065Y-115408827D01*
X146954465Y-115390023D01*
X147053849Y-115341393D01*
X147091416Y-115304248D01*
X147084820Y-115260047D01*
X147082743Y-115255269D01*
X147022475Y-115208994D01*
X146902253Y-115175170D01*
X146854027Y-115168394D01*
X146738470Y-115164724D01*
X146622189Y-115185334D01*
X146481078Y-115236936D01*
X146295914Y-115323826D01*
X146012048Y-115453629D01*
X145784175Y-115531490D01*
X145601967Y-115558561D01*
X145531957Y-115547802D01*
X145773077Y-115306682D01*
X145803111Y-115306681D01*
X145803111Y-115276647D01*
X145773077Y-115276647D01*
X145773077Y-115306682D01*
X145531957Y-115547802D01*
X145455104Y-115535992D01*
X145333260Y-115464933D01*
X145300482Y-115434773D01*
X145233462Y-115317491D01*
X145202229Y-115155929D01*
X145210457Y-114984460D01*
X145240992Y-114878501D01*
X145364754Y-114677823D01*
X145548653Y-114492712D01*
X145768318Y-114347371D01*
X145783333Y-114339838D01*
X145929910Y-114285943D01*
X146102413Y-114248942D01*
X146275876Y-114231033D01*
X146425332Y-114234417D01*
X146525817Y-114261292D01*
X146541504Y-114273050D01*
X146575815Y-114331063D01*
X146541304Y-114373833D01*
X146432210Y-114404850D01*
X146294417Y-114422858D01*
X146129133Y-114448011D01*
X145972648Y-114485805D01*
X145909352Y-114507582D01*
X145788118Y-114574106D01*
X145668191Y-114666416D01*
X145569315Y-114765654D01*
X145511229Y-114852960D01*
X145504647Y-114894161D01*
X145550502Y-114927528D01*
X145644617Y-114938838D01*
X145753509Y-114929154D01*
X145843695Y-114899537D01*
X145866715Y-114882667D01*
X145965770Y-114820696D01*
X146122021Y-114762142D01*
X146307806Y-114714326D01*
X146495461Y-114684575D01*
X146636009Y-114678970D01*
X146878333Y-114723110D01*
X147081639Y-114828638D01*
X147230539Y-114986568D01*
X147263658Y-115045612D01*
X147308506Y-115125807D01*
X147345225Y-115138115D01*
X147388870Y-115102275D01*
X147479150Y-114954567D01*
X147503184Y-114768774D01*
X147462911Y-114557480D01*
X147360269Y-114333272D01*
X147244588Y-114165548D01*
X146970904Y-113787207D01*
X146718767Y-113374037D01*
X146580245Y-113108488D01*
X146420728Y-112778007D01*
X146201812Y-112679646D01*
X146011898Y-112568510D01*
X145994410Y-112551022D01*
X146144228Y-112401203D01*
X146172237Y-112421689D01*
X146249203Y-112467636D01*
X146286981Y-112480135D01*
X146280079Y-112437672D01*
X146251714Y-112336181D01*
X146207891Y-112197021D01*
X146204615Y-112187072D01*
X146160574Y-112033449D01*
X146107714Y-111818214D01*
X146050610Y-111563613D01*
X145993835Y-111291894D01*
X145941963Y-111025302D01*
X145899569Y-110786087D01*
X145871225Y-110596491D01*
X145864039Y-110530612D01*
X145846940Y-110358265D01*
X145830968Y-110269373D01*
X145813290Y-110262533D01*
X145791068Y-110336343D01*
X145763030Y-110480658D01*
X145725170Y-110806581D01*
X145723207Y-111139627D01*
X145754067Y-111465211D01*
X145814674Y-111768747D01*
X145901953Y-112035649D01*
X146012830Y-112251330D01*
X146144228Y-112401203D01*
X145994410Y-112551022D01*
X145859926Y-112416540D01*
X145735210Y-112209531D01*
X145627058Y-111933276D01*
X145617181Y-111902675D01*
X145509346Y-111423915D01*
X145484294Y-110926512D01*
X145542021Y-110410861D01*
X145642749Y-110002047D01*
X145704819Y-109833711D01*
X145774338Y-109702897D01*
X145841906Y-109623213D01*
X145898120Y-109608272D01*
X145898120Y-109608272D01*
G37*
X145898120Y-109608272D02*
X145909272Y-109616223D01*
X145933581Y-109668584D01*
X145972828Y-109783030D01*
X146020377Y-109939481D01*
X146045480Y-110028234D01*
X146115929Y-110268209D01*
X146205429Y-110544738D01*
X146318032Y-110869695D01*
X146457793Y-111254951D01*
X146540005Y-111476254D01*
X146596964Y-111620379D01*
X146674749Y-111806610D01*
X146758646Y-111999890D01*
X146777923Y-112043137D01*
X146855327Y-112213737D01*
X146915957Y-112318748D01*
X146978252Y-112362968D01*
X147060650Y-112351199D01*
X147181587Y-112288240D01*
X147341652Y-112189905D01*
X147513751Y-112066993D01*
X147722296Y-111892359D01*
X147951815Y-111681523D01*
X148186837Y-111450003D01*
X148411894Y-111213320D01*
X148611514Y-110986991D01*
X148770227Y-110786536D01*
X148835465Y-110691378D01*
X148956368Y-110507408D01*
X149049224Y-110385862D01*
X149125526Y-110313980D01*
X149196769Y-110278998D01*
X149209961Y-110275633D01*
X149259223Y-110273112D01*
X149274991Y-110301327D01*
X149254091Y-110370067D01*
X149193349Y-110489122D01*
X149089590Y-110668283D01*
X149074359Y-110693849D01*
X148915784Y-110934981D01*
X148715901Y-111192923D01*
X148461811Y-111484239D01*
X148443303Y-111504516D01*
X148278994Y-111685485D01*
X148165684Y-111814953D01*
X148096024Y-111903157D01*
X148062657Y-111960333D01*
X148058233Y-111996717D01*
X148072913Y-112020139D01*
X148138234Y-112107355D01*
X148156767Y-112142486D01*
X148178961Y-112166012D01*
X148206536Y-112132277D01*
X148246043Y-112030897D01*
X148267154Y-111967547D01*
X148395543Y-111697593D01*
X148584733Y-111486310D01*
X148831863Y-111336626D01*
X148916574Y-111304271D01*
X149051311Y-111254626D01*
X149131267Y-111207693D01*
X149183385Y-111143022D01*
X149218116Y-111075445D01*
X149350444Y-110867353D01*
X149517645Y-110714812D01*
X149704963Y-110629126D01*
X149819878Y-110614504D01*
X149971507Y-110633114D01*
X150113491Y-110694970D01*
X150257983Y-110809119D01*
X150417134Y-110984601D01*
X150551041Y-111158655D01*
X150744527Y-111412752D01*
X150903452Y-111601739D01*
X151025622Y-111723357D01*
X151108848Y-111775341D01*
X151142534Y-111769317D01*
X151184711Y-111673916D01*
X151191557Y-111523945D01*
X151167269Y-111340026D01*
X151116044Y-111142785D01*
X151109851Y-111126884D01*
X151410354Y-110826381D01*
X151444685Y-110801668D01*
X151478119Y-110757191D01*
X151468331Y-110746474D01*
X151420963Y-110779501D01*
X151408394Y-110801668D01*
X151410354Y-110826381D01*
X151109851Y-111126884D01*
X151042080Y-110952841D01*
X151012495Y-110901026D01*
X151476017Y-110437503D01*
X151632251Y-110558035D01*
X151808855Y-110610733D01*
X151951759Y-110599427D01*
X152084062Y-110559655D01*
X152151280Y-110513291D01*
X152172841Y-110445142D01*
X152173386Y-110426108D01*
X152144998Y-110349104D01*
X152075642Y-110256595D01*
X152065565Y-110246205D01*
X151901121Y-110038092D01*
X151755253Y-109771103D01*
X151638865Y-109470962D01*
X151562860Y-109163396D01*
X151543326Y-109013924D01*
X151528407Y-108840654D01*
X151461044Y-108952195D01*
X151362662Y-109147401D01*
X151282438Y-109366877D01*
X151229756Y-109579678D01*
X151214000Y-109754857D01*
X151214535Y-109765104D01*
X151258660Y-110031419D01*
X151348654Y-110258759D01*
X151476017Y-110437503D01*
X151012495Y-110901026D01*
X150949572Y-110790821D01*
X150940987Y-110778996D01*
X150804308Y-110526410D01*
X150733608Y-110238359D01*
X150726058Y-109929188D01*
X150778821Y-109613240D01*
X150889068Y-109304863D01*
X151053965Y-109018402D01*
X151270678Y-108768201D01*
X151352183Y-108696769D01*
X151459351Y-108597317D01*
X151536598Y-108503422D01*
X151558528Y-108461168D01*
X151606302Y-108383517D01*
X151649271Y-108371762D01*
X151688366Y-108403581D01*
X151712443Y-108504510D01*
X151722667Y-108649324D01*
X151764364Y-109083695D01*
X151856144Y-109458501D01*
X151996685Y-109769700D01*
X152162290Y-109990514D01*
X152308488Y-110129102D01*
X152423248Y-110200935D01*
X152519109Y-110211939D01*
X152579873Y-110187712D01*
X152666538Y-110088384D01*
X152713185Y-109926197D01*
X152719977Y-109713136D01*
X152687079Y-109461187D01*
X152614652Y-109182338D01*
X152564219Y-109038027D01*
X152528178Y-108906156D01*
X152540175Y-108835530D01*
X152597385Y-108831177D01*
X152659764Y-108867960D01*
X152751819Y-108977567D01*
X152833677Y-109148897D01*
X152900042Y-109358867D01*
X152945618Y-109584393D01*
X152965109Y-109802389D01*
X152953221Y-109989773D01*
X152934132Y-110063999D01*
X152846748Y-110221912D01*
X152718778Y-110350295D01*
X152574465Y-110427879D01*
X152504522Y-110440937D01*
X152428366Y-110452941D01*
X152408770Y-110496249D01*
X152410865Y-110533465D01*
X152388956Y-110707630D01*
X152303847Y-110889529D01*
X152171897Y-111057119D01*
X152009467Y-111188359D01*
X151879838Y-111248932D01*
X151734913Y-111271843D01*
X151581231Y-111264282D01*
X151569828Y-111262090D01*
X151407369Y-111228285D01*
X151407368Y-111516555D01*
X151402130Y-111681744D01*
X151380923Y-111790713D01*
X151335512Y-111871838D01*
X151289478Y-111922715D01*
X151187044Y-112002008D01*
X151096636Y-112033226D01*
X151089118Y-112032940D01*
X150965546Y-111984323D01*
X150813489Y-111861129D01*
X150637032Y-111667236D01*
X150462156Y-111437490D01*
X150257605Y-111174705D01*
X150073986Y-110991833D01*
X149908180Y-110887316D01*
X149757065Y-110859592D01*
X149617524Y-110907101D01*
X149535172Y-110973934D01*
X149451165Y-111073046D01*
X149396557Y-111164769D01*
X149392330Y-111176568D01*
X149383054Y-111239007D01*
X149419395Y-111276348D01*
X149495013Y-111305338D01*
X149707341Y-111415531D01*
X149909736Y-111590885D01*
X150087875Y-111811723D01*
X150227436Y-112058369D01*
X150314098Y-112311148D01*
X150334823Y-112459078D01*
X150318021Y-112678661D01*
X150249765Y-112856369D01*
X150139358Y-112981851D01*
X149996106Y-113044757D01*
X149829311Y-113034739D01*
X149819851Y-113031931D01*
X149695474Y-112958203D01*
X149683408Y-112945845D01*
X149854005Y-112775248D01*
X149924014Y-112826949D01*
X149947716Y-112807752D01*
X149924182Y-112718176D01*
X149864002Y-112582246D01*
X149784613Y-112446301D01*
X149672809Y-112287822D01*
X149596638Y-112193931D01*
X149922816Y-111867754D01*
X149944794Y-111881487D01*
X149962862Y-111867754D01*
X149976594Y-111832043D01*
X149962861Y-111827708D01*
X149923623Y-111859758D01*
X149922816Y-111867754D01*
X149596638Y-112193931D01*
X149574218Y-112166295D01*
X149377600Y-111942432D01*
X149460897Y-112185085D01*
X149594851Y-112461029D01*
X149738618Y-112652132D01*
X149854005Y-112775248D01*
X149683408Y-112945845D01*
X149560258Y-112819717D01*
X149425403Y-112633756D01*
X149302108Y-112417602D01*
X149201574Y-112188540D01*
X149138731Y-111980896D01*
X149093911Y-111823067D01*
X149037463Y-111732711D01*
X148952592Y-111692509D01*
X148851593Y-111684818D01*
X148701124Y-111723212D01*
X148577567Y-111828313D01*
X148485028Y-111984992D01*
X148427616Y-112178122D01*
X148409440Y-112392575D01*
X148434607Y-112613227D01*
X148507227Y-112824948D01*
X148530012Y-112868884D01*
X148670287Y-113119537D01*
X148781676Y-113313597D01*
X148875108Y-113469512D01*
X148961509Y-113605730D01*
X149008633Y-113676912D01*
X149081556Y-113795922D01*
X149127114Y-113890383D01*
X149135644Y-113930502D01*
X149086921Y-113977873D01*
X148984254Y-113975169D01*
X148841284Y-113923777D01*
X148784772Y-113894831D01*
X148605958Y-113796755D01*
X148650383Y-113936328D01*
X148674022Y-114061329D01*
X148684391Y-114223000D01*
X148683010Y-114308440D01*
X148666828Y-114460421D01*
X148627115Y-114566038D01*
X148548524Y-114663483D01*
X148534711Y-114677482D01*
X148425594Y-114769091D01*
X148322526Y-114805599D01*
X148245087Y-114808164D01*
X148138135Y-114798763D01*
X148074040Y-114783218D01*
X148069983Y-114780364D01*
X148019655Y-114751339D01*
X147922672Y-114707118D01*
X147895875Y-114695918D01*
X147768406Y-114643577D01*
X148013146Y-114398837D01*
X148082697Y-114460799D01*
X148153105Y-114506341D01*
X148259700Y-114559751D01*
X148328705Y-114564162D01*
X148391347Y-114520384D01*
X148399124Y-114512727D01*
X148460314Y-114406114D01*
X148473184Y-114247281D01*
X148472346Y-114232729D01*
X148447461Y-114050251D01*
X148399023Y-113837404D01*
X148335679Y-113623767D01*
X148266076Y-113438919D01*
X148206595Y-113323678D01*
X148081463Y-113067728D01*
X148067189Y-113012569D01*
X148175821Y-112903938D01*
X148205855Y-112903937D01*
X148205855Y-112873904D01*
X148175821Y-112873903D01*
X148175821Y-112903938D01*
X148067189Y-113012569D01*
X148000405Y-112754483D01*
X147967965Y-112401843D01*
X147967690Y-112382514D01*
X147964741Y-112206356D01*
X147952329Y-112100008D01*
X147918502Y-112059801D01*
X147851305Y-112082066D01*
X147738788Y-112163135D01*
X147604268Y-112270956D01*
X147460808Y-112377936D01*
X147314509Y-112473546D01*
X147225964Y-112522482D01*
X147123023Y-112576709D01*
X147079197Y-112620426D01*
X147074773Y-112674781D01*
X147076000Y-112683328D01*
X147106531Y-112783127D01*
X147172315Y-112940022D01*
X147265339Y-113138002D01*
X147377590Y-113361056D01*
X147501055Y-113593173D01*
X147627722Y-113818344D01*
X147727760Y-113985606D01*
X147848241Y-114176622D01*
X147939182Y-114309238D01*
X148013146Y-114398837D01*
X147768406Y-114643577D01*
X147743748Y-114633452D01*
X147735487Y-114815865D01*
X147711159Y-114961206D01*
X147642253Y-115097177D01*
X147577541Y-115183959D01*
X147491101Y-115300191D01*
X147429376Y-115399896D01*
X147411077Y-115442967D01*
X147299347Y-115781490D01*
X147132573Y-116078540D01*
X146920096Y-116319618D01*
X146774200Y-116431598D01*
X146593890Y-116520740D01*
X146426058Y-116553398D01*
X146288994Y-116527577D01*
X146235831Y-116490260D01*
X146200878Y-116466913D01*
X146186006Y-116496590D01*
X146188693Y-116591354D01*
X146196838Y-116676524D01*
X146196401Y-116887957D01*
X146137049Y-117054439D01*
X146008245Y-117199248D01*
X145934224Y-117256818D01*
X145763292Y-117339196D01*
X145565219Y-117373066D01*
X145367588Y-117358911D01*
X145197980Y-117297213D01*
X145126135Y-117242690D01*
X145043712Y-117160266D01*
X144989898Y-117331710D01*
X144895850Y-117514580D01*
X144750742Y-117660867D01*
X144573654Y-117761154D01*
X144383666Y-117806029D01*
X144199860Y-117786080D01*
X144129384Y-117756261D01*
X144052182Y-117710133D01*
X143997510Y-117658066D01*
X143952611Y-117579626D01*
X143910535Y-117469566D01*
X144001053Y-117379048D01*
X144031087Y-117379048D01*
X144031087Y-117349014D01*
X144001053Y-117349014D01*
X144001053Y-117379048D01*
X143910535Y-117469566D01*
X143904730Y-117454382D01*
X143863301Y-117330045D01*
X143790392Y-117131885D01*
X143722576Y-117010934D01*
X143652011Y-116960443D01*
X143570854Y-116973664D01*
X143501587Y-117018744D01*
X143398971Y-117149632D01*
X143340202Y-117335402D01*
X143330680Y-117555191D01*
X143340684Y-117640732D01*
X143373670Y-117780134D01*
X143433878Y-117935850D01*
X143529205Y-118125536D01*
X143658759Y-118352062D01*
X143809550Y-118606065D01*
X143922032Y-118796580D01*
X144000711Y-118933495D01*
X144050091Y-119026697D01*
X144074676Y-119086071D01*
X144078973Y-119121502D01*
X144067484Y-119142879D01*
X144044717Y-119160086D01*
X144031297Y-119169622D01*
X143955772Y-119194474D01*
X143847258Y-119168204D01*
X143769765Y-119132767D01*
X143583528Y-119039375D01*
X143616322Y-119214936D01*
X143622440Y-119424763D01*
X143567169Y-119608459D01*
X143462935Y-119755138D01*
X143322169Y-119853911D01*
X143157298Y-119893891D01*
X142980750Y-119864191D01*
X142912145Y-119831785D01*
X142764899Y-119726894D01*
X142590723Y-119568771D01*
X142453058Y-119423264D01*
X142550235Y-119326088D01*
X142584567Y-119301375D01*
X142617999Y-119256898D01*
X142608212Y-119246181D01*
X142560845Y-119279209D01*
X142548275Y-119301375D01*
X142550235Y-119326088D01*
X142453058Y-119423264D01*
X142408235Y-119375887D01*
X142307181Y-119253126D01*
X142529372Y-119030935D01*
X142559406Y-119030935D01*
X142559406Y-119000900D01*
X142529372Y-119000901D01*
X142529372Y-119030935D01*
X142307181Y-119253126D01*
X142236051Y-119166718D01*
X142218584Y-119143566D01*
X142171028Y-119088935D01*
X142289097Y-118970866D01*
X142319132Y-118970866D01*
X142319132Y-118940832D01*
X142289098Y-118940832D01*
X142289097Y-118970866D01*
X142171028Y-119088935D01*
X142060958Y-118962484D01*
X141920725Y-118864501D01*
X141797704Y-118849604D01*
X141691712Y-118917781D01*
X141602571Y-119069017D01*
X141590657Y-119098825D01*
X141551605Y-119265192D01*
X141544253Y-119450303D01*
X141568405Y-119615438D01*
X141593607Y-119681049D01*
X141628658Y-119743031D01*
X141697279Y-119861192D01*
X141789634Y-120018689D01*
X141895887Y-120198681D01*
X141898251Y-120202673D01*
X142030597Y-120434100D01*
X142116001Y-120604576D01*
X142157114Y-120722125D01*
X142156585Y-120794769D01*
X142117065Y-120830531D01*
X142106602Y-120833533D01*
X142068227Y-120823615D01*
X142003476Y-120776308D01*
X141905056Y-120684842D01*
X141765677Y-120542449D01*
X141581160Y-120345718D01*
X141237632Y-119954711D01*
X140952407Y-119581236D01*
X140709759Y-119201167D01*
X140493961Y-118790374D01*
X140333495Y-118431522D01*
X140312622Y-118420067D01*
X140274843Y-118458578D01*
X140214808Y-118555026D01*
X140127164Y-118717375D01*
X140079726Y-118809294D01*
X139977014Y-119017291D01*
X139913225Y-119166668D01*
X139883424Y-119271555D01*
X139882677Y-119346085D01*
X139886650Y-119362291D01*
X139914560Y-119430528D01*
X139958674Y-119448826D01*
X140046379Y-119424307D01*
X140078648Y-119412199D01*
X140280476Y-119366650D01*
X140458098Y-119396270D01*
X140617082Y-119503895D01*
X140762995Y-119692359D01*
X140817636Y-119788528D01*
X140895776Y-119962732D01*
X140940693Y-120140201D01*
X140961541Y-120358870D01*
X140962895Y-120390607D01*
X140962175Y-120611098D01*
X140946311Y-120848093D01*
X140918374Y-121077970D01*
X140881430Y-121277107D01*
X140838546Y-121421883D01*
X140825259Y-121450661D01*
X140808736Y-121506273D01*
X140826595Y-121570296D01*
X140887671Y-121662375D01*
X140962628Y-121756181D01*
X141174437Y-121976240D01*
X141399241Y-122144444D01*
X141625359Y-122256002D01*
X141841110Y-122306123D01*
X142034814Y-122290016D01*
X142144582Y-122240986D01*
X142254865Y-122121746D01*
X142334660Y-121927229D01*
X142383362Y-121661680D01*
X142400375Y-121329340D01*
X142385093Y-120934452D01*
X142363317Y-120697762D01*
X142344030Y-120497457D01*
X142332381Y-120328795D01*
X142329249Y-120209152D01*
X142335514Y-120155904D01*
X142335877Y-120155493D01*
X142382785Y-120149162D01*
X142426040Y-120227661D01*
X142462852Y-120376027D01*
X142490094Y-120494744D01*
X142516915Y-120574773D01*
X142525492Y-120588839D01*
X142541715Y-120640835D01*
X142561723Y-120756376D01*
X142582103Y-120914358D01*
X142589694Y-120985692D01*
X142604695Y-121262297D01*
X142597037Y-121536023D01*
X142568740Y-121782663D01*
X142521827Y-121978007D01*
X142502733Y-122026803D01*
X142405116Y-122179695D01*
X142266027Y-122320766D01*
X142113571Y-122424641D01*
X142023469Y-122459525D01*
X141826458Y-122483121D01*
X141592263Y-122476694D01*
X141361951Y-122443279D01*
X141208311Y-122399241D01*
X141073439Y-122333149D01*
X140915996Y-122236333D01*
X140813054Y-122162404D01*
X140598138Y-121995292D01*
X140294806Y-122292646D01*
X140141621Y-122438455D01*
X140022831Y-122537551D01*
X139915540Y-122605941D01*
X139796855Y-122659637D01*
X139738993Y-122681337D01*
X139505875Y-122739935D01*
X139308426Y-122728187D01*
X139130416Y-122643004D01*
X139013859Y-122543225D01*
X139006198Y-122532716D01*
X139137010Y-122401904D01*
X139269765Y-122514728D01*
X139444419Y-122564195D01*
X139646078Y-122550131D01*
X139859852Y-122472358D01*
X139963354Y-122411709D01*
X140058920Y-122347334D01*
X140123129Y-122296631D01*
X140178120Y-122236868D01*
X140246033Y-122145312D01*
X140306946Y-122058901D01*
X140389811Y-121934017D01*
X140424596Y-121857518D01*
X140417238Y-121812228D01*
X140398189Y-121794939D01*
X140330093Y-121730643D01*
X140252802Y-121640862D01*
X140623684Y-121269980D01*
X140654401Y-121286190D01*
X140678788Y-121255095D01*
X140702033Y-121163948D01*
X140726783Y-121016659D01*
X140760206Y-120640865D01*
X140741327Y-120304246D01*
X140671983Y-120015608D01*
X140554009Y-119783758D01*
X140444087Y-119660504D01*
X140338518Y-119579119D01*
X140254910Y-119551427D01*
X140165401Y-119564755D01*
X140077324Y-119602394D01*
X140029366Y-119662865D01*
X140020407Y-119759598D01*
X140049331Y-119906022D01*
X140115024Y-120115564D01*
X140118697Y-120126314D01*
X140177838Y-120287401D01*
X140253887Y-120478044D01*
X140339125Y-120680764D01*
X140425837Y-120878081D01*
X140506304Y-121052519D01*
X140572808Y-121186596D01*
X140617630Y-121262836D01*
X140623684Y-121269980D01*
X140252802Y-121640862D01*
X140230117Y-121614509D01*
X140113000Y-121465716D01*
X139993481Y-121303439D01*
X139886301Y-121146858D01*
X139827061Y-121051849D01*
X139709943Y-120852690D01*
X139712012Y-121036081D01*
X139699503Y-121178967D01*
X139657105Y-121243198D01*
X139583696Y-121230050D01*
X139556973Y-121212336D01*
X139520192Y-121146979D01*
X139501366Y-121014245D01*
X139499540Y-120806638D01*
X139500620Y-120770178D01*
X139501023Y-120575750D01*
X139490831Y-120395119D01*
X139472088Y-120258236D01*
X139463416Y-120224737D01*
X139429598Y-120126627D01*
X139407250Y-120098733D01*
X139381826Y-120130402D01*
X139368603Y-120155318D01*
X139300667Y-120302782D01*
X139220222Y-120503287D01*
X139137022Y-120729490D01*
X139060820Y-120954049D01*
X139001368Y-121149623D01*
X138972788Y-121265006D01*
X138931553Y-121615628D01*
X138952026Y-121937310D01*
X139032430Y-122217768D01*
X139137010Y-122401904D01*
X139006198Y-122532716D01*
X138855573Y-122326105D01*
X138757079Y-122054164D01*
X138720791Y-121735221D01*
X138723817Y-121603272D01*
X138754534Y-121375366D01*
X138819502Y-121096594D01*
X138911524Y-120790238D01*
X139023404Y-120479584D01*
X139147946Y-120187916D01*
X139185086Y-120110847D01*
X139321564Y-119835998D01*
X139256073Y-119472990D01*
X139792241Y-118936822D01*
X139816377Y-118909819D01*
X139864992Y-118823610D01*
X139929046Y-118697046D01*
X139999502Y-118548978D01*
X140067320Y-118398259D01*
X140123463Y-118263739D01*
X140151748Y-118186999D01*
X140162643Y-118077987D01*
X140146959Y-117928853D01*
X140122600Y-117824209D01*
X140073440Y-117628633D01*
X140049951Y-117513876D01*
X140414725Y-117149102D01*
X140436611Y-117003061D01*
X140442981Y-116878304D01*
X140435935Y-116713977D01*
X140424395Y-116603814D01*
X140381384Y-116370280D01*
X140322292Y-116210253D01*
X140241370Y-116112921D01*
X140139908Y-116068857D01*
X140012828Y-116042387D01*
X140126725Y-116368395D01*
X140194999Y-116560903D01*
X140266297Y-116757335D01*
X140325638Y-116916431D01*
X140327673Y-116921752D01*
X140414725Y-117149102D01*
X140049951Y-117513876D01*
X140021575Y-117375241D01*
X139971763Y-117090835D01*
X139928767Y-116802221D01*
X139902065Y-116582445D01*
X139881492Y-116402131D01*
X139864091Y-116296927D01*
X139846014Y-116257283D01*
X139823412Y-116273650D01*
X139797949Y-116324066D01*
X139683034Y-116669323D01*
X139618771Y-117077765D01*
X139605765Y-117543939D01*
X139625513Y-117880163D01*
X139645136Y-118067867D01*
X139671184Y-118273722D01*
X139700777Y-118479456D01*
X139731028Y-118666795D01*
X139759056Y-118817464D01*
X139781977Y-118913192D01*
X139792241Y-118936822D01*
X139256073Y-119472990D01*
X139223540Y-119292658D01*
X139163384Y-118851211D01*
X139139231Y-118407578D01*
X139148945Y-117971280D01*
X139190381Y-117551836D01*
X139261402Y-117158766D01*
X139359867Y-116801588D01*
X139483635Y-116489821D01*
X139630565Y-116232987D01*
X139798519Y-116040603D01*
X139980928Y-115923984D01*
X140154255Y-115890275D01*
X140309415Y-115932333D01*
X140441919Y-116042081D01*
X140547274Y-116211445D01*
X140620988Y-116432351D01*
X140658573Y-116696721D01*
X140655533Y-116996482D01*
X140643214Y-117114743D01*
X140617507Y-117325552D01*
X140606165Y-117476629D01*
X140611543Y-117592339D01*
X140636000Y-117697046D01*
X140681892Y-117815115D01*
X140719074Y-117898906D01*
X140779788Y-118031528D01*
X140858649Y-118200810D01*
X140948296Y-118391304D01*
X141041367Y-118587558D01*
X141130496Y-118774124D01*
X141208324Y-118935552D01*
X141267485Y-119056391D01*
X141300618Y-119121192D01*
X141304721Y-119127793D01*
X141319898Y-119095476D01*
X141350537Y-119002609D01*
X141383613Y-118891325D01*
X141441147Y-118728254D01*
X141512792Y-118575506D01*
X141556712Y-118503905D01*
X141698549Y-118363166D01*
X141872877Y-118271038D01*
X142053703Y-118238362D01*
X142158483Y-118252949D01*
X142308531Y-118330982D01*
X142478436Y-118476654D01*
X142657506Y-118678332D01*
X142835054Y-118924386D01*
X142953209Y-119117681D01*
X143049417Y-119281615D01*
X143137398Y-119422611D01*
X143204335Y-119520537D01*
X143227745Y-119548951D01*
X143300860Y-119584306D01*
X143361864Y-119547135D01*
X143400003Y-119449852D01*
X143407031Y-119342000D01*
X143388300Y-119193499D01*
X143347294Y-119017275D01*
X143292569Y-118840649D01*
X143232684Y-118690942D01*
X143176197Y-118595472D01*
X143171619Y-118590520D01*
X143104553Y-118493197D01*
X143028529Y-118339001D01*
X142954064Y-118153745D01*
X142891674Y-117963247D01*
X142855748Y-117815174D01*
X142836950Y-117674757D01*
X142825581Y-117508215D01*
X142821819Y-117339315D01*
X142825838Y-117191819D01*
X142837818Y-117089495D01*
X142850105Y-117058315D01*
X142894667Y-117064071D01*
X142959115Y-117120156D01*
X143021327Y-117203063D01*
X143055887Y-117276948D01*
X143073972Y-117320388D01*
X143092791Y-117309263D01*
X143120145Y-117232718D01*
X143142217Y-117156809D01*
X143249579Y-116879412D01*
X143394082Y-116661648D01*
X143568719Y-116510129D01*
X143766488Y-116431474D01*
X143918611Y-116423616D01*
X144033329Y-116441863D01*
X144118797Y-116485461D01*
X144208799Y-116574023D01*
X144239888Y-116610110D01*
X144321139Y-116718898D01*
X144372553Y-116829780D01*
X144405829Y-116974033D01*
X144423242Y-117100230D01*
X144447386Y-117281084D01*
X144471820Y-117392745D01*
X144503988Y-117450666D01*
X144551335Y-117470298D01*
X144601025Y-117469217D01*
X144701303Y-117421848D01*
X144765198Y-117311590D01*
X144790317Y-117153409D01*
X144774264Y-116962269D01*
X144715318Y-116754886D01*
X144654497Y-116562959D01*
X144604933Y-116342419D01*
X144568334Y-116111357D01*
X144546403Y-115887861D01*
X144540848Y-115690016D01*
X144553373Y-115535914D01*
X144585685Y-115443643D01*
X144591078Y-115437480D01*
X144644773Y-115407809D01*
X144696558Y-115438713D01*
X144754243Y-115538297D01*
X144804562Y-115659008D01*
X144876159Y-115817225D01*
X144982690Y-116020148D01*
X145109872Y-116243241D01*
X145243417Y-116461974D01*
X145369041Y-116651812D01*
X145435845Y-116743157D01*
X145571797Y-116887089D01*
X145709528Y-116977974D01*
X145832891Y-117006727D01*
X145883702Y-116995161D01*
X145955848Y-116918723D01*
X145978623Y-116780231D01*
X145959634Y-116637494D01*
X146597609Y-115999518D01*
X146688859Y-116017115D01*
X146809466Y-115988201D01*
X146925147Y-115922543D01*
X146952445Y-115898452D01*
X147013700Y-115814617D01*
X147076112Y-115695425D01*
X147086197Y-115671793D01*
X147117244Y-115581089D01*
X147110511Y-115538450D01*
X147056964Y-115543429D01*
X146947573Y-115595580D01*
X146833962Y-115659322D01*
X146692270Y-115757796D01*
X146600372Y-115856339D01*
X146567210Y-115942079D01*
X146597609Y-115999518D01*
X145959634Y-116637494D01*
X145952810Y-116586196D01*
X145879191Y-116343132D01*
X145775297Y-116093443D01*
X145704217Y-115910062D01*
X145684360Y-115791346D01*
X145708844Y-115739983D01*
X145770788Y-115758671D01*
X145863312Y-115850096D01*
X145977848Y-116014204D01*
X146050702Y-116132822D01*
X146128292Y-115996041D01*
X146243207Y-115851821D01*
X146423438Y-115697713D01*
X146652290Y-115545966D01*
X146913065Y-115408827D01*
X146954465Y-115390023D01*
X147053849Y-115341393D01*
X147091416Y-115304248D01*
X147084820Y-115260047D01*
X147082743Y-115255269D01*
X147022475Y-115208994D01*
X146902253Y-115175170D01*
X146854027Y-115168394D01*
X146738470Y-115164724D01*
X146622189Y-115185334D01*
X146481078Y-115236936D01*
X146295914Y-115323826D01*
X146012048Y-115453629D01*
X145784175Y-115531490D01*
X145601967Y-115558561D01*
X145531957Y-115547802D01*
X145773077Y-115306682D01*
X145803111Y-115306681D01*
X145803111Y-115276647D01*
X145773077Y-115276647D01*
X145773077Y-115306682D01*
X145531957Y-115547802D01*
X145455104Y-115535992D01*
X145333260Y-115464933D01*
X145300482Y-115434773D01*
X145233462Y-115317491D01*
X145202229Y-115155929D01*
X145210457Y-114984460D01*
X145240992Y-114878501D01*
X145364754Y-114677823D01*
X145548653Y-114492712D01*
X145768318Y-114347371D01*
X145783333Y-114339838D01*
X145929910Y-114285943D01*
X146102413Y-114248942D01*
X146275876Y-114231033D01*
X146425332Y-114234417D01*
X146525817Y-114261292D01*
X146541504Y-114273050D01*
X146575815Y-114331063D01*
X146541304Y-114373833D01*
X146432210Y-114404850D01*
X146294417Y-114422858D01*
X146129133Y-114448011D01*
X145972648Y-114485805D01*
X145909352Y-114507582D01*
X145788118Y-114574106D01*
X145668191Y-114666416D01*
X145569315Y-114765654D01*
X145511229Y-114852960D01*
X145504647Y-114894161D01*
X145550502Y-114927528D01*
X145644617Y-114938838D01*
X145753509Y-114929154D01*
X145843695Y-114899537D01*
X145866715Y-114882667D01*
X145965770Y-114820696D01*
X146122021Y-114762142D01*
X146307806Y-114714326D01*
X146495461Y-114684575D01*
X146636009Y-114678970D01*
X146878333Y-114723110D01*
X147081639Y-114828638D01*
X147230539Y-114986568D01*
X147263658Y-115045612D01*
X147308506Y-115125807D01*
X147345225Y-115138115D01*
X147388870Y-115102275D01*
X147479150Y-114954567D01*
X147503184Y-114768774D01*
X147462911Y-114557480D01*
X147360269Y-114333272D01*
X147244588Y-114165548D01*
X146970904Y-113787207D01*
X146718767Y-113374037D01*
X146580245Y-113108488D01*
X146420728Y-112778007D01*
X146201812Y-112679646D01*
X146011898Y-112568510D01*
X145994410Y-112551022D01*
X146144228Y-112401203D01*
X146172237Y-112421689D01*
X146249203Y-112467636D01*
X146286981Y-112480135D01*
X146280079Y-112437672D01*
X146251714Y-112336181D01*
X146207891Y-112197021D01*
X146204615Y-112187072D01*
X146160574Y-112033449D01*
X146107714Y-111818214D01*
X146050610Y-111563613D01*
X145993835Y-111291894D01*
X145941963Y-111025302D01*
X145899569Y-110786087D01*
X145871225Y-110596491D01*
X145864039Y-110530612D01*
X145846940Y-110358265D01*
X145830968Y-110269373D01*
X145813290Y-110262533D01*
X145791068Y-110336343D01*
X145763030Y-110480658D01*
X145725170Y-110806581D01*
X145723207Y-111139627D01*
X145754067Y-111465211D01*
X145814674Y-111768747D01*
X145901953Y-112035649D01*
X146012830Y-112251330D01*
X146144228Y-112401203D01*
X145994410Y-112551022D01*
X145859926Y-112416540D01*
X145735210Y-112209531D01*
X145627058Y-111933276D01*
X145617181Y-111902675D01*
X145509346Y-111423915D01*
X145484294Y-110926512D01*
X145542021Y-110410861D01*
X145642749Y-110002047D01*
X145704819Y-109833711D01*
X145774338Y-109702897D01*
X145841906Y-109623213D01*
X145898120Y-109608272D01*
G36*
X152477361Y-107578150D02*
X152643401Y-107464091D01*
X152762211Y-107410231D01*
X152920314Y-107373678D01*
X153091983Y-107354736D01*
X153251254Y-107353961D01*
X153372165Y-107371910D01*
X153420301Y-107396138D01*
X153452014Y-107460471D01*
X153406707Y-107505590D01*
X153291025Y-107526992D01*
X153225851Y-107527888D01*
X153054256Y-107546505D01*
X152870153Y-107602202D01*
X152692316Y-107684527D01*
X152539514Y-107783033D01*
X152430521Y-107887268D01*
X152384106Y-107986780D01*
X152383626Y-107996775D01*
X152417850Y-108051717D01*
X152506862Y-108067942D01*
X152630171Y-108046101D01*
X152767286Y-107986843D01*
X152771421Y-107984481D01*
X153077027Y-107849751D01*
X153395671Y-107793996D01*
X153467026Y-107791785D01*
X153716367Y-107822789D01*
X153925055Y-107924534D01*
X154104956Y-108101451D01*
X154236832Y-108268761D01*
X154313256Y-108154123D01*
X154379539Y-107984477D01*
X154384422Y-107787471D01*
X154328188Y-107594154D01*
X154307753Y-107555391D01*
X154214201Y-107385642D01*
X154166542Y-107276104D01*
X154161850Y-107217469D01*
X154196103Y-107200424D01*
X154261668Y-107232479D01*
X154359001Y-107318801D01*
X154427359Y-107392912D01*
X154540157Y-107542659D01*
X154600523Y-107680486D01*
X154619422Y-107775166D01*
X154631558Y-107928632D01*
X154613303Y-108050858D01*
X154554948Y-108171597D01*
X154446786Y-108320604D01*
X154437687Y-108332121D01*
X154315168Y-108522397D01*
X154259874Y-108689831D01*
X154225296Y-108801061D01*
X154154065Y-108953688D01*
X154061041Y-109121559D01*
X153961084Y-109278522D01*
X153869053Y-109398424D01*
X153840804Y-109427403D01*
X153774458Y-109476319D01*
X153665091Y-109545944D01*
X153601123Y-109583833D01*
X153407145Y-109662996D01*
X153236332Y-109661556D01*
X153084260Y-109579260D01*
X153075892Y-109571569D01*
X153505358Y-109142103D01*
X153606609Y-109127967D01*
X153649846Y-109112381D01*
X153789394Y-109044263D01*
X153880694Y-108956723D01*
X153953253Y-108819855D01*
X153964052Y-108793938D01*
X153995071Y-108703501D01*
X153988609Y-108660772D01*
X153935605Y-108665372D01*
X153826994Y-108716920D01*
X153708660Y-108783243D01*
X153578737Y-108869515D01*
X153506654Y-108951373D01*
X153485748Y-108995829D01*
X153465611Y-109098440D01*
X153505358Y-109142103D01*
X153075892Y-109571569D01*
X153054789Y-109552172D01*
X152962269Y-109413266D01*
X152953561Y-109262462D01*
X153028412Y-109100091D01*
X153186568Y-108926479D01*
X153427778Y-108741955D01*
X153751787Y-108546847D01*
X153884623Y-108476163D01*
X153967634Y-108427227D01*
X153984784Y-108390489D01*
X153956372Y-108352689D01*
X153836709Y-108290437D01*
X153665244Y-108281464D01*
X153455173Y-108324348D01*
X153219691Y-108417668D01*
X153182938Y-108435956D01*
X152914490Y-108563928D01*
X152700760Y-108642646D01*
X152528850Y-108674280D01*
X152525889Y-108674005D01*
X152921240Y-108278655D01*
X152951275Y-108278655D01*
X152951274Y-108248621D01*
X152921240Y-108248621D01*
X152921240Y-108278655D01*
X152525889Y-108674005D01*
X152415961Y-108663798D01*
X152650932Y-108428827D01*
X152680965Y-108428827D01*
X152680966Y-108398792D01*
X152650931Y-108398792D01*
X152650932Y-108428827D01*
X152415961Y-108663798D01*
X152385862Y-108661003D01*
X152258899Y-108604984D01*
X152242312Y-108594284D01*
X152149741Y-108485974D01*
X152097189Y-108326701D01*
X152090453Y-108143255D01*
X152116551Y-108013385D01*
X152190628Y-107874571D01*
X152318667Y-107722235D01*
X152477361Y-107578150D01*
X152477361Y-107578150D01*
G37*
X152477361Y-107578150D02*
X152643401Y-107464091D01*
X152762211Y-107410231D01*
X152920314Y-107373678D01*
X153091983Y-107354736D01*
X153251254Y-107353961D01*
X153372165Y-107371910D01*
X153420301Y-107396138D01*
X153452014Y-107460471D01*
X153406707Y-107505590D01*
X153291025Y-107526992D01*
X153225851Y-107527888D01*
X153054256Y-107546505D01*
X152870153Y-107602202D01*
X152692316Y-107684527D01*
X152539514Y-107783033D01*
X152430521Y-107887268D01*
X152384106Y-107986780D01*
X152383626Y-107996775D01*
X152417850Y-108051717D01*
X152506862Y-108067942D01*
X152630171Y-108046101D01*
X152767286Y-107986843D01*
X152771421Y-107984481D01*
X153077027Y-107849751D01*
X153395671Y-107793996D01*
X153467026Y-107791785D01*
X153716367Y-107822789D01*
X153925055Y-107924534D01*
X154104956Y-108101451D01*
X154236832Y-108268761D01*
X154313256Y-108154123D01*
X154379539Y-107984477D01*
X154384422Y-107787471D01*
X154328188Y-107594154D01*
X154307753Y-107555391D01*
X154214201Y-107385642D01*
X154166542Y-107276104D01*
X154161850Y-107217469D01*
X154196103Y-107200424D01*
X154261668Y-107232479D01*
X154359001Y-107318801D01*
X154427359Y-107392912D01*
X154540157Y-107542659D01*
X154600523Y-107680486D01*
X154619422Y-107775166D01*
X154631558Y-107928632D01*
X154613303Y-108050858D01*
X154554948Y-108171597D01*
X154446786Y-108320604D01*
X154437687Y-108332121D01*
X154315168Y-108522397D01*
X154259874Y-108689831D01*
X154225296Y-108801061D01*
X154154065Y-108953688D01*
X154061041Y-109121559D01*
X153961084Y-109278522D01*
X153869053Y-109398424D01*
X153840804Y-109427403D01*
X153774458Y-109476319D01*
X153665091Y-109545944D01*
X153601123Y-109583833D01*
X153407145Y-109662996D01*
X153236332Y-109661556D01*
X153084260Y-109579260D01*
X153075892Y-109571569D01*
X153505358Y-109142103D01*
X153606609Y-109127967D01*
X153649846Y-109112381D01*
X153789394Y-109044263D01*
X153880694Y-108956723D01*
X153953253Y-108819855D01*
X153964052Y-108793938D01*
X153995071Y-108703501D01*
X153988609Y-108660772D01*
X153935605Y-108665372D01*
X153826994Y-108716920D01*
X153708660Y-108783243D01*
X153578737Y-108869515D01*
X153506654Y-108951373D01*
X153485748Y-108995829D01*
X153465611Y-109098440D01*
X153505358Y-109142103D01*
X153075892Y-109571569D01*
X153054789Y-109552172D01*
X152962269Y-109413266D01*
X152953561Y-109262462D01*
X153028412Y-109100091D01*
X153186568Y-108926479D01*
X153427778Y-108741955D01*
X153751787Y-108546847D01*
X153884623Y-108476163D01*
X153967634Y-108427227D01*
X153984784Y-108390489D01*
X153956372Y-108352689D01*
X153836709Y-108290437D01*
X153665244Y-108281464D01*
X153455173Y-108324348D01*
X153219691Y-108417668D01*
X153182938Y-108435956D01*
X152914490Y-108563928D01*
X152700760Y-108642646D01*
X152528850Y-108674280D01*
X152525889Y-108674005D01*
X152921240Y-108278655D01*
X152951275Y-108278655D01*
X152951274Y-108248621D01*
X152921240Y-108248621D01*
X152921240Y-108278655D01*
X152525889Y-108674005D01*
X152415961Y-108663798D01*
X152650932Y-108428827D01*
X152680965Y-108428827D01*
X152680966Y-108398792D01*
X152650931Y-108398792D01*
X152650932Y-108428827D01*
X152415961Y-108663798D01*
X152385862Y-108661003D01*
X152258899Y-108604984D01*
X152242312Y-108594284D01*
X152149741Y-108485974D01*
X152097189Y-108326701D01*
X152090453Y-108143255D01*
X152116551Y-108013385D01*
X152190628Y-107874571D01*
X152318667Y-107722235D01*
X152477361Y-107578150D01*
G36*
X144091929Y-114196057D02*
X144307159Y-114141672D01*
X144336665Y-114139294D01*
X144506172Y-114151223D01*
X144625707Y-114221731D01*
X144716453Y-114363618D01*
X144719690Y-114370752D01*
X144743374Y-114518504D01*
X144704444Y-114684924D01*
X144613275Y-114845209D01*
X144480241Y-114974559D01*
X144462036Y-114986773D01*
X144297927Y-115049327D01*
X144135786Y-115040429D01*
X143991308Y-114972460D01*
X143880187Y-114857805D01*
X143818119Y-114708843D01*
X143820796Y-114537958D01*
X143834073Y-114491352D01*
X143934544Y-114312399D01*
X144091929Y-114196057D01*
X144091929Y-114196057D01*
G37*
X144091929Y-114196057D02*
X144307159Y-114141672D01*
X144336665Y-114139294D01*
X144506172Y-114151223D01*
X144625707Y-114221731D01*
X144716453Y-114363618D01*
X144719690Y-114370752D01*
X144743374Y-114518504D01*
X144704444Y-114684924D01*
X144613275Y-114845209D01*
X144480241Y-114974559D01*
X144462036Y-114986773D01*
X144297927Y-115049327D01*
X144135786Y-115040429D01*
X143991308Y-114972460D01*
X143880187Y-114857805D01*
X143818119Y-114708843D01*
X143820796Y-114537958D01*
X143834073Y-114491352D01*
X143934544Y-114312399D01*
X144091929Y-114196057D01*
G36*
X138356349Y-112231571D02*
X138418271Y-112310335D01*
X138484067Y-112439113D01*
X138506671Y-112456107D01*
X138538889Y-112413161D01*
X138586113Y-112301388D01*
X138614398Y-112224307D01*
X138734488Y-111968790D01*
X138886005Y-111774094D01*
X139060607Y-111645936D01*
X139249952Y-111590037D01*
X139445697Y-111612113D01*
X139486001Y-111626848D01*
X139656085Y-111738358D01*
X139772563Y-111912675D01*
X139837413Y-112152823D01*
X139839314Y-112166455D01*
X139868174Y-112374331D01*
X139892261Y-112511376D01*
X139917614Y-112591020D01*
X139950271Y-112626690D01*
X139996266Y-112631817D01*
X140044723Y-112623369D01*
X140158625Y-112561993D01*
X140220241Y-112441619D01*
X140229289Y-112270418D01*
X140185484Y-112056564D01*
X140088543Y-111808230D01*
X140074031Y-111777943D01*
X139985022Y-111565496D01*
X139917471Y-111344845D01*
X139874345Y-111134011D01*
X139858611Y-110951012D01*
X139873237Y-110813872D01*
X139905217Y-110752638D01*
X139975350Y-110710049D01*
X140026436Y-110745548D01*
X140061656Y-110861884D01*
X140066607Y-110891952D01*
X140141025Y-111158632D01*
X140273448Y-111406566D01*
X140449852Y-111617601D01*
X140656216Y-111773585D01*
X140795425Y-111835457D01*
X140998342Y-111860774D01*
X141206143Y-111819001D01*
X141388548Y-111718805D01*
X141465691Y-111643622D01*
X141552744Y-111537890D01*
X141162554Y-111147188D01*
X141069417Y-111052481D01*
X141205902Y-110915996D01*
X141371423Y-111079480D01*
X141514152Y-111188437D01*
X141632726Y-111267487D01*
X141622959Y-111093819D01*
X141599112Y-110956746D01*
X141548233Y-110789772D01*
X141505087Y-110682794D01*
X141382436Y-110447643D01*
X141257643Y-110270703D01*
X141136967Y-110157661D01*
X141026667Y-110114202D01*
X140933004Y-110146014D01*
X140923660Y-110154676D01*
X140881104Y-110253437D01*
X140895937Y-110392756D01*
X140960272Y-110558826D01*
X141066222Y-110737842D01*
X141205902Y-110915996D01*
X141069417Y-111052481D01*
X140994836Y-110976641D01*
X140877024Y-110848597D01*
X140796984Y-110747525D01*
X140742585Y-110657897D01*
X140701692Y-110564182D01*
X140696780Y-110551010D01*
X140656517Y-110354498D01*
X140677396Y-110177254D01*
X140748838Y-110031293D01*
X140860269Y-109928635D01*
X141001113Y-109881297D01*
X141160794Y-109901295D01*
X141237656Y-109936411D01*
X141353552Y-110022937D01*
X141470319Y-110155358D01*
X141594304Y-110343030D01*
X141731859Y-110595312D01*
X141852093Y-110841765D01*
X141939081Y-111021154D01*
X142015310Y-111168445D01*
X142072715Y-111268725D01*
X142103231Y-111307076D01*
X142103665Y-111307113D01*
X142127066Y-111268825D01*
X142137908Y-111168583D01*
X142136995Y-111028332D01*
X142125129Y-110870010D01*
X142103115Y-110715560D01*
X142078038Y-110607133D01*
X142047807Y-110442066D01*
X142062945Y-110341285D01*
X142109917Y-110309169D01*
X142175189Y-110350103D01*
X142245228Y-110468471D01*
X142273317Y-110543891D01*
X142328164Y-110777315D01*
X142347260Y-111012596D01*
X142331796Y-111228520D01*
X142282960Y-111403871D01*
X142219605Y-111501749D01*
X142195881Y-111566694D01*
X142214270Y-111681378D01*
X142259182Y-111814242D01*
X142308676Y-111959776D01*
X142368973Y-112160168D01*
X142431968Y-112387456D01*
X142482567Y-112584923D01*
X142539624Y-112800256D01*
X142600352Y-113000463D01*
X142657318Y-113162571D01*
X142701289Y-113260557D01*
X142816708Y-113530096D01*
X142887730Y-113846926D01*
X142912130Y-114184601D01*
X142887690Y-114516675D01*
X142828101Y-114770993D01*
X142713999Y-115013099D01*
X142541369Y-115249045D01*
X142331657Y-115455216D01*
X142106309Y-115607998D01*
X142039088Y-115639797D01*
X141720327Y-115732390D01*
X141496122Y-115739245D01*
X141868618Y-115366750D01*
X141898651Y-115366750D01*
X141898652Y-115336715D01*
X141868618Y-115336716D01*
X141868618Y-115366750D01*
X141496122Y-115739245D01*
X141406740Y-115741978D01*
X141103394Y-115670504D01*
X140815360Y-115519911D01*
X140547707Y-115292144D01*
X140305504Y-114989146D01*
X140293010Y-114970317D01*
X140180636Y-114793107D01*
X140107557Y-114655072D01*
X140062617Y-114527038D01*
X140034660Y-114379835D01*
X140019896Y-114256160D01*
X140014421Y-114060482D01*
X140038948Y-113898354D01*
X140089355Y-113789132D01*
X140125743Y-113759030D01*
X140195653Y-113757893D01*
X140234371Y-113828806D01*
X140238189Y-113963441D01*
X140233832Y-114001867D01*
X140235914Y-114158733D01*
X140272149Y-114355411D01*
X140309815Y-114483313D01*
X140447114Y-114779297D01*
X140632655Y-115009353D01*
X140861430Y-115169907D01*
X141128428Y-115257383D01*
X141411546Y-115269648D01*
X141683338Y-115208552D01*
X141919457Y-115072270D01*
X142116675Y-114864121D01*
X142271764Y-114587430D01*
X142373364Y-114279679D01*
X142408940Y-114135049D01*
X142286671Y-114295447D01*
X142136519Y-114450501D01*
X141952531Y-114579640D01*
X141764710Y-114663823D01*
X141675135Y-114683554D01*
X141589696Y-114684573D01*
X142319132Y-113955138D01*
X142349167Y-113955138D01*
X142349166Y-113925103D01*
X142319132Y-113925103D01*
X142319132Y-113955138D01*
X141589696Y-114684573D01*
X141476041Y-114685930D01*
X141423408Y-114670656D01*
X141868618Y-114225447D01*
X141898652Y-114225446D01*
X141898652Y-114195413D01*
X141988755Y-114105309D01*
X142018789Y-114105309D01*
X142018789Y-114075275D01*
X141988754Y-114075275D01*
X141988755Y-114105309D01*
X141898652Y-114195413D01*
X141868618Y-114195412D01*
X141868618Y-114225447D01*
X141423408Y-114670656D01*
X141300411Y-114634964D01*
X141287380Y-114626478D01*
X142198995Y-113714864D01*
X142229028Y-113714864D01*
X142229029Y-113684829D01*
X142198994Y-113684829D01*
X142198995Y-113714864D01*
X141287380Y-114626478D01*
X141126412Y-114521666D01*
X140998365Y-114404910D01*
X140922731Y-114313382D01*
X141113402Y-114122711D01*
X141198298Y-114169432D01*
X141321878Y-114188619D01*
X141349442Y-114190563D01*
X141493560Y-114187230D01*
X141615540Y-114147203D01*
X141748343Y-114057829D01*
X141795413Y-114019342D01*
X141843389Y-113956043D01*
X141907045Y-113843391D01*
X141950425Y-113753872D01*
X142007868Y-113581871D01*
X142050534Y-113366685D01*
X142067870Y-113196561D01*
X142086237Y-112857786D01*
X141925258Y-112815513D01*
X141715023Y-112802174D01*
X141489862Y-112861736D01*
X141266100Y-112988105D01*
X141113536Y-113118520D01*
X140992006Y-113250184D01*
X140923336Y-113355130D01*
X140892167Y-113457260D01*
X140891014Y-113464771D01*
X140886868Y-113709472D01*
X140954753Y-113918688D01*
X141027714Y-114028583D01*
X141113402Y-114122711D01*
X140922731Y-114313382D01*
X140793764Y-114157309D01*
X140669883Y-113902971D01*
X140628192Y-113646000D01*
X140654317Y-113443897D01*
X140754072Y-113216364D01*
X140920331Y-113005307D01*
X141134702Y-112824092D01*
X141378797Y-112686086D01*
X141634224Y-112604656D01*
X141830407Y-112589052D01*
X141950796Y-112589875D01*
X142030691Y-112582527D01*
X142045527Y-112576856D01*
X142045233Y-112530372D01*
X142029530Y-112423873D01*
X142003082Y-112279887D01*
X141970558Y-112120942D01*
X141936624Y-111969566D01*
X141905949Y-111848287D01*
X141883196Y-111779633D01*
X141879007Y-111773032D01*
X141852737Y-111797147D01*
X141805227Y-111879885D01*
X141762276Y-111969486D01*
X141622544Y-112195724D01*
X141439147Y-112365960D01*
X141226074Y-112473559D01*
X140997313Y-112511883D01*
X140766855Y-112474296D01*
X140728532Y-112459886D01*
X140615993Y-112404962D01*
X140533837Y-112349773D01*
X140528864Y-112345077D01*
X140491159Y-112314398D01*
X140467386Y-112331580D01*
X140443180Y-112412069D01*
X140434809Y-112446243D01*
X140358981Y-112617452D01*
X140229829Y-112771169D01*
X140067267Y-112893709D01*
X139891215Y-112971382D01*
X139721587Y-112990503D01*
X139660006Y-112978693D01*
X139517784Y-112893180D01*
X139394361Y-112733782D01*
X139297535Y-112510845D01*
X139290462Y-112488252D01*
X139239472Y-112342018D01*
X139186585Y-112223815D01*
X139150113Y-112167697D01*
X139064255Y-112130434D01*
X138967786Y-112164825D01*
X138872926Y-112260703D01*
X138791892Y-112407893D01*
X138762540Y-112490308D01*
X138748977Y-112663762D01*
X138794889Y-112888014D01*
X138897966Y-113155558D01*
X139055896Y-113458892D01*
X139066330Y-113476810D01*
X139178795Y-113669696D01*
X139288009Y-113858386D01*
X139379351Y-114017548D01*
X139426076Y-114100056D01*
X139492576Y-114247319D01*
X139495570Y-114339177D01*
X139434901Y-114376819D01*
X139389721Y-114376685D01*
X139306075Y-114349393D01*
X139185789Y-114288945D01*
X139054692Y-114211102D01*
X138938620Y-114131622D01*
X138863404Y-114066266D01*
X138850631Y-114047807D01*
X138828717Y-114016829D01*
X138806123Y-114045618D01*
X138777918Y-114126439D01*
X138698204Y-114280033D01*
X138570223Y-114429061D01*
X138419744Y-114548803D01*
X138272536Y-114614537D01*
X138268138Y-114615479D01*
X138081296Y-114629596D01*
X137929667Y-114582645D01*
X137805454Y-114468258D01*
X137700861Y-114280064D01*
X137633971Y-114097320D01*
X137580653Y-113936348D01*
X137540506Y-113840498D01*
X137503372Y-113793214D01*
X137459090Y-113777937D01*
X137437493Y-113777078D01*
X137321745Y-113816331D01*
X137217184Y-113921564D01*
X137140482Y-114073980D01*
X137124444Y-114130065D01*
X137104721Y-114240358D01*
X137101999Y-114349798D01*
X137120202Y-114468270D01*
X137163257Y-114605655D01*
X137235088Y-114771835D01*
X137339622Y-114976696D01*
X137480783Y-115230118D01*
X137662496Y-115541985D01*
X137731578Y-115658649D01*
X137820430Y-115824150D01*
X137855559Y-115932684D01*
X137847063Y-115982396D01*
X137777120Y-116015736D01*
X137661348Y-115994712D01*
X137514157Y-115924856D01*
X137349957Y-115811700D01*
X137303941Y-115773900D01*
X137099426Y-115599780D01*
X137090034Y-115867449D01*
X137059582Y-116206781D01*
X136995850Y-116524465D01*
X136903996Y-116803782D01*
X136789179Y-117028014D01*
X136695791Y-117145364D01*
X136484065Y-117305120D01*
X136253582Y-117390175D01*
X136018073Y-117400142D01*
X135791270Y-117334640D01*
X135586904Y-117193279D01*
X135570212Y-117176956D01*
X135370646Y-116918764D01*
X135244974Y-116619353D01*
X135235377Y-116556332D01*
X135621063Y-116170645D01*
X135642438Y-116177305D01*
X135680244Y-116134466D01*
X135746661Y-116032308D01*
X135775786Y-115985742D01*
X135865743Y-115839900D01*
X135948664Y-115702571D01*
X135993359Y-115626402D01*
X136057109Y-115468695D01*
X136065512Y-115330819D01*
X136022964Y-115228320D01*
X135933857Y-115176744D01*
X135866023Y-115175793D01*
X135731548Y-115235114D01*
X135628687Y-115364819D01*
X135593264Y-115451149D01*
X135571246Y-115580821D01*
X135564780Y-115756350D01*
X135573269Y-115940193D01*
X135596117Y-116094806D01*
X135603946Y-116124305D01*
X135621063Y-116170645D01*
X135235377Y-116556332D01*
X135193017Y-116278153D01*
X135200342Y-116014859D01*
X135240849Y-115722953D01*
X135306762Y-115492109D01*
X135405865Y-115300289D01*
X135493959Y-115183507D01*
X135663225Y-115033239D01*
X135850350Y-114946318D01*
X136040790Y-114919819D01*
X136220000Y-114950820D01*
X136373433Y-115036395D01*
X136486546Y-115173623D01*
X136544794Y-115359580D01*
X136548166Y-115395407D01*
X136545564Y-115546181D01*
X136510264Y-115680323D01*
X136433023Y-115813153D01*
X136304592Y-115959992D01*
X136115729Y-116136159D01*
X136084812Y-116163274D01*
X135749462Y-116455826D01*
X135844117Y-116550482D01*
X136027134Y-116683887D01*
X136221142Y-116741728D01*
X136411126Y-116728001D01*
X136582075Y-116646697D01*
X136718975Y-116501809D01*
X136806813Y-116297332D01*
X136807586Y-116294217D01*
X136850539Y-116010956D01*
X136856831Y-115688662D01*
X136828228Y-115363496D01*
X136766496Y-115071624D01*
X136744586Y-115003807D01*
X136665187Y-114707831D01*
X136621282Y-114387644D01*
X136616902Y-114305548D01*
X136617846Y-114084120D01*
X136636952Y-113938381D01*
X136672764Y-113870240D01*
X136723817Y-113881604D01*
X136788651Y-113974382D01*
X136820414Y-114039805D01*
X136866934Y-114143399D01*
X136965055Y-113869086D01*
X137091278Y-113603067D01*
X137252459Y-113406118D01*
X137443408Y-113282370D01*
X137658934Y-113235955D01*
X137754716Y-113240417D01*
X137920910Y-113301266D01*
X138053918Y-113439370D01*
X138152992Y-113653473D01*
X138217388Y-113942315D01*
X138229515Y-114040322D01*
X138253625Y-114192338D01*
X138292566Y-114270553D01*
X138356933Y-114286008D01*
X138438761Y-114258405D01*
X138536340Y-114170936D01*
X138581391Y-114028544D01*
X138573713Y-113843222D01*
X138513111Y-113626964D01*
X138451442Y-113487703D01*
X138379219Y-113308712D01*
X138321077Y-113097363D01*
X138279131Y-112872717D01*
X138255491Y-112653839D01*
X138252271Y-112459791D01*
X138271586Y-112309637D01*
X138311593Y-112226126D01*
X138356349Y-112231571D01*
X138356349Y-112231571D01*
G37*
X138356349Y-112231571D02*
X138418271Y-112310335D01*
X138484067Y-112439113D01*
X138506671Y-112456107D01*
X138538889Y-112413161D01*
X138586113Y-112301388D01*
X138614398Y-112224307D01*
X138734488Y-111968790D01*
X138886005Y-111774094D01*
X139060607Y-111645936D01*
X139249952Y-111590037D01*
X139445697Y-111612113D01*
X139486001Y-111626848D01*
X139656085Y-111738358D01*
X139772563Y-111912675D01*
X139837413Y-112152823D01*
X139839314Y-112166455D01*
X139868174Y-112374331D01*
X139892261Y-112511376D01*
X139917614Y-112591020D01*
X139950271Y-112626690D01*
X139996266Y-112631817D01*
X140044723Y-112623369D01*
X140158625Y-112561993D01*
X140220241Y-112441619D01*
X140229289Y-112270418D01*
X140185484Y-112056564D01*
X140088543Y-111808230D01*
X140074031Y-111777943D01*
X139985022Y-111565496D01*
X139917471Y-111344845D01*
X139874345Y-111134011D01*
X139858611Y-110951012D01*
X139873237Y-110813872D01*
X139905217Y-110752638D01*
X139975350Y-110710049D01*
X140026436Y-110745548D01*
X140061656Y-110861884D01*
X140066607Y-110891952D01*
X140141025Y-111158632D01*
X140273448Y-111406566D01*
X140449852Y-111617601D01*
X140656216Y-111773585D01*
X140795425Y-111835457D01*
X140998342Y-111860774D01*
X141206143Y-111819001D01*
X141388548Y-111718805D01*
X141465691Y-111643622D01*
X141552744Y-111537890D01*
X141162554Y-111147188D01*
X141069417Y-111052481D01*
X141205902Y-110915996D01*
X141371423Y-111079480D01*
X141514152Y-111188437D01*
X141632726Y-111267487D01*
X141622959Y-111093819D01*
X141599112Y-110956746D01*
X141548233Y-110789772D01*
X141505087Y-110682794D01*
X141382436Y-110447643D01*
X141257643Y-110270703D01*
X141136967Y-110157661D01*
X141026667Y-110114202D01*
X140933004Y-110146014D01*
X140923660Y-110154676D01*
X140881104Y-110253437D01*
X140895937Y-110392756D01*
X140960272Y-110558826D01*
X141066222Y-110737842D01*
X141205902Y-110915996D01*
X141069417Y-111052481D01*
X140994836Y-110976641D01*
X140877024Y-110848597D01*
X140796984Y-110747525D01*
X140742585Y-110657897D01*
X140701692Y-110564182D01*
X140696780Y-110551010D01*
X140656517Y-110354498D01*
X140677396Y-110177254D01*
X140748838Y-110031293D01*
X140860269Y-109928635D01*
X141001113Y-109881297D01*
X141160794Y-109901295D01*
X141237656Y-109936411D01*
X141353552Y-110022937D01*
X141470319Y-110155358D01*
X141594304Y-110343030D01*
X141731859Y-110595312D01*
X141852093Y-110841765D01*
X141939081Y-111021154D01*
X142015310Y-111168445D01*
X142072715Y-111268725D01*
X142103231Y-111307076D01*
X142103665Y-111307113D01*
X142127066Y-111268825D01*
X142137908Y-111168583D01*
X142136995Y-111028332D01*
X142125129Y-110870010D01*
X142103115Y-110715560D01*
X142078038Y-110607133D01*
X142047807Y-110442066D01*
X142062945Y-110341285D01*
X142109917Y-110309169D01*
X142175189Y-110350103D01*
X142245228Y-110468471D01*
X142273317Y-110543891D01*
X142328164Y-110777315D01*
X142347260Y-111012596D01*
X142331796Y-111228520D01*
X142282960Y-111403871D01*
X142219605Y-111501749D01*
X142195881Y-111566694D01*
X142214270Y-111681378D01*
X142259182Y-111814242D01*
X142308676Y-111959776D01*
X142368973Y-112160168D01*
X142431968Y-112387456D01*
X142482567Y-112584923D01*
X142539624Y-112800256D01*
X142600352Y-113000463D01*
X142657318Y-113162571D01*
X142701289Y-113260557D01*
X142816708Y-113530096D01*
X142887730Y-113846926D01*
X142912130Y-114184601D01*
X142887690Y-114516675D01*
X142828101Y-114770993D01*
X142713999Y-115013099D01*
X142541369Y-115249045D01*
X142331657Y-115455216D01*
X142106309Y-115607998D01*
X142039088Y-115639797D01*
X141720327Y-115732390D01*
X141496122Y-115739245D01*
X141868618Y-115366750D01*
X141898651Y-115366750D01*
X141898652Y-115336715D01*
X141868618Y-115336716D01*
X141868618Y-115366750D01*
X141496122Y-115739245D01*
X141406740Y-115741978D01*
X141103394Y-115670504D01*
X140815360Y-115519911D01*
X140547707Y-115292144D01*
X140305504Y-114989146D01*
X140293010Y-114970317D01*
X140180636Y-114793107D01*
X140107557Y-114655072D01*
X140062617Y-114527038D01*
X140034660Y-114379835D01*
X140019896Y-114256160D01*
X140014421Y-114060482D01*
X140038948Y-113898354D01*
X140089355Y-113789132D01*
X140125743Y-113759030D01*
X140195653Y-113757893D01*
X140234371Y-113828806D01*
X140238189Y-113963441D01*
X140233832Y-114001867D01*
X140235914Y-114158733D01*
X140272149Y-114355411D01*
X140309815Y-114483313D01*
X140447114Y-114779297D01*
X140632655Y-115009353D01*
X140861430Y-115169907D01*
X141128428Y-115257383D01*
X141411546Y-115269648D01*
X141683338Y-115208552D01*
X141919457Y-115072270D01*
X142116675Y-114864121D01*
X142271764Y-114587430D01*
X142373364Y-114279679D01*
X142408940Y-114135049D01*
X142286671Y-114295447D01*
X142136519Y-114450501D01*
X141952531Y-114579640D01*
X141764710Y-114663823D01*
X141675135Y-114683554D01*
X141589696Y-114684573D01*
X142319132Y-113955138D01*
X142349167Y-113955138D01*
X142349166Y-113925103D01*
X142319132Y-113925103D01*
X142319132Y-113955138D01*
X141589696Y-114684573D01*
X141476041Y-114685930D01*
X141423408Y-114670656D01*
X141868618Y-114225447D01*
X141898652Y-114225446D01*
X141898652Y-114195413D01*
X141988755Y-114105309D01*
X142018789Y-114105309D01*
X142018789Y-114075275D01*
X141988754Y-114075275D01*
X141988755Y-114105309D01*
X141898652Y-114195413D01*
X141868618Y-114195412D01*
X141868618Y-114225447D01*
X141423408Y-114670656D01*
X141300411Y-114634964D01*
X141287380Y-114626478D01*
X142198995Y-113714864D01*
X142229028Y-113714864D01*
X142229029Y-113684829D01*
X142198994Y-113684829D01*
X142198995Y-113714864D01*
X141287380Y-114626478D01*
X141126412Y-114521666D01*
X140998365Y-114404910D01*
X140922731Y-114313382D01*
X141113402Y-114122711D01*
X141198298Y-114169432D01*
X141321878Y-114188619D01*
X141349442Y-114190563D01*
X141493560Y-114187230D01*
X141615540Y-114147203D01*
X141748343Y-114057829D01*
X141795413Y-114019342D01*
X141843389Y-113956043D01*
X141907045Y-113843391D01*
X141950425Y-113753872D01*
X142007868Y-113581871D01*
X142050534Y-113366685D01*
X142067870Y-113196561D01*
X142086237Y-112857786D01*
X141925258Y-112815513D01*
X141715023Y-112802174D01*
X141489862Y-112861736D01*
X141266100Y-112988105D01*
X141113536Y-113118520D01*
X140992006Y-113250184D01*
X140923336Y-113355130D01*
X140892167Y-113457260D01*
X140891014Y-113464771D01*
X140886868Y-113709472D01*
X140954753Y-113918688D01*
X141027714Y-114028583D01*
X141113402Y-114122711D01*
X140922731Y-114313382D01*
X140793764Y-114157309D01*
X140669883Y-113902971D01*
X140628192Y-113646000D01*
X140654317Y-113443897D01*
X140754072Y-113216364D01*
X140920331Y-113005307D01*
X141134702Y-112824092D01*
X141378797Y-112686086D01*
X141634224Y-112604656D01*
X141830407Y-112589052D01*
X141950796Y-112589875D01*
X142030691Y-112582527D01*
X142045527Y-112576856D01*
X142045233Y-112530372D01*
X142029530Y-112423873D01*
X142003082Y-112279887D01*
X141970558Y-112120942D01*
X141936624Y-111969566D01*
X141905949Y-111848287D01*
X141883196Y-111779633D01*
X141879007Y-111773032D01*
X141852737Y-111797147D01*
X141805227Y-111879885D01*
X141762276Y-111969486D01*
X141622544Y-112195724D01*
X141439147Y-112365960D01*
X141226074Y-112473559D01*
X140997313Y-112511883D01*
X140766855Y-112474296D01*
X140728532Y-112459886D01*
X140615993Y-112404962D01*
X140533837Y-112349773D01*
X140528864Y-112345077D01*
X140491159Y-112314398D01*
X140467386Y-112331580D01*
X140443180Y-112412069D01*
X140434809Y-112446243D01*
X140358981Y-112617452D01*
X140229829Y-112771169D01*
X140067267Y-112893709D01*
X139891215Y-112971382D01*
X139721587Y-112990503D01*
X139660006Y-112978693D01*
X139517784Y-112893180D01*
X139394361Y-112733782D01*
X139297535Y-112510845D01*
X139290462Y-112488252D01*
X139239472Y-112342018D01*
X139186585Y-112223815D01*
X139150113Y-112167697D01*
X139064255Y-112130434D01*
X138967786Y-112164825D01*
X138872926Y-112260703D01*
X138791892Y-112407893D01*
X138762540Y-112490308D01*
X138748977Y-112663762D01*
X138794889Y-112888014D01*
X138897966Y-113155558D01*
X139055896Y-113458892D01*
X139066330Y-113476810D01*
X139178795Y-113669696D01*
X139288009Y-113858386D01*
X139379351Y-114017548D01*
X139426076Y-114100056D01*
X139492576Y-114247319D01*
X139495570Y-114339177D01*
X139434901Y-114376819D01*
X139389721Y-114376685D01*
X139306075Y-114349393D01*
X139185789Y-114288945D01*
X139054692Y-114211102D01*
X138938620Y-114131622D01*
X138863404Y-114066266D01*
X138850631Y-114047807D01*
X138828717Y-114016829D01*
X138806123Y-114045618D01*
X138777918Y-114126439D01*
X138698204Y-114280033D01*
X138570223Y-114429061D01*
X138419744Y-114548803D01*
X138272536Y-114614537D01*
X138268138Y-114615479D01*
X138081296Y-114629596D01*
X137929667Y-114582645D01*
X137805454Y-114468258D01*
X137700861Y-114280064D01*
X137633971Y-114097320D01*
X137580653Y-113936348D01*
X137540506Y-113840498D01*
X137503372Y-113793214D01*
X137459090Y-113777937D01*
X137437493Y-113777078D01*
X137321745Y-113816331D01*
X137217184Y-113921564D01*
X137140482Y-114073980D01*
X137124444Y-114130065D01*
X137104721Y-114240358D01*
X137101999Y-114349798D01*
X137120202Y-114468270D01*
X137163257Y-114605655D01*
X137235088Y-114771835D01*
X137339622Y-114976696D01*
X137480783Y-115230118D01*
X137662496Y-115541985D01*
X137731578Y-115658649D01*
X137820430Y-115824150D01*
X137855559Y-115932684D01*
X137847063Y-115982396D01*
X137777120Y-116015736D01*
X137661348Y-115994712D01*
X137514157Y-115924856D01*
X137349957Y-115811700D01*
X137303941Y-115773900D01*
X137099426Y-115599780D01*
X137090034Y-115867449D01*
X137059582Y-116206781D01*
X136995850Y-116524465D01*
X136903996Y-116803782D01*
X136789179Y-117028014D01*
X136695791Y-117145364D01*
X136484065Y-117305120D01*
X136253582Y-117390175D01*
X136018073Y-117400142D01*
X135791270Y-117334640D01*
X135586904Y-117193279D01*
X135570212Y-117176956D01*
X135370646Y-116918764D01*
X135244974Y-116619353D01*
X135235377Y-116556332D01*
X135621063Y-116170645D01*
X135642438Y-116177305D01*
X135680244Y-116134466D01*
X135746661Y-116032308D01*
X135775786Y-115985742D01*
X135865743Y-115839900D01*
X135948664Y-115702571D01*
X135993359Y-115626402D01*
X136057109Y-115468695D01*
X136065512Y-115330819D01*
X136022964Y-115228320D01*
X135933857Y-115176744D01*
X135866023Y-115175793D01*
X135731548Y-115235114D01*
X135628687Y-115364819D01*
X135593264Y-115451149D01*
X135571246Y-115580821D01*
X135564780Y-115756350D01*
X135573269Y-115940193D01*
X135596117Y-116094806D01*
X135603946Y-116124305D01*
X135621063Y-116170645D01*
X135235377Y-116556332D01*
X135193017Y-116278153D01*
X135200342Y-116014859D01*
X135240849Y-115722953D01*
X135306762Y-115492109D01*
X135405865Y-115300289D01*
X135493959Y-115183507D01*
X135663225Y-115033239D01*
X135850350Y-114946318D01*
X136040790Y-114919819D01*
X136220000Y-114950820D01*
X136373433Y-115036395D01*
X136486546Y-115173623D01*
X136544794Y-115359580D01*
X136548166Y-115395407D01*
X136545564Y-115546181D01*
X136510264Y-115680323D01*
X136433023Y-115813153D01*
X136304592Y-115959992D01*
X136115729Y-116136159D01*
X136084812Y-116163274D01*
X135749462Y-116455826D01*
X135844117Y-116550482D01*
X136027134Y-116683887D01*
X136221142Y-116741728D01*
X136411126Y-116728001D01*
X136582075Y-116646697D01*
X136718975Y-116501809D01*
X136806813Y-116297332D01*
X136807586Y-116294217D01*
X136850539Y-116010956D01*
X136856831Y-115688662D01*
X136828228Y-115363496D01*
X136766496Y-115071624D01*
X136744586Y-115003807D01*
X136665187Y-114707831D01*
X136621282Y-114387644D01*
X136616902Y-114305548D01*
X136617846Y-114084120D01*
X136636952Y-113938381D01*
X136672764Y-113870240D01*
X136723817Y-113881604D01*
X136788651Y-113974382D01*
X136820414Y-114039805D01*
X136866934Y-114143399D01*
X136965055Y-113869086D01*
X137091278Y-113603067D01*
X137252459Y-113406118D01*
X137443408Y-113282370D01*
X137658934Y-113235955D01*
X137754716Y-113240417D01*
X137920910Y-113301266D01*
X138053918Y-113439370D01*
X138152992Y-113653473D01*
X138217388Y-113942315D01*
X138229515Y-114040322D01*
X138253625Y-114192338D01*
X138292566Y-114270553D01*
X138356933Y-114286008D01*
X138438761Y-114258405D01*
X138536340Y-114170936D01*
X138581391Y-114028544D01*
X138573713Y-113843222D01*
X138513111Y-113626964D01*
X138451442Y-113487703D01*
X138379219Y-113308712D01*
X138321077Y-113097363D01*
X138279131Y-112872717D01*
X138255491Y-112653839D01*
X138252271Y-112459791D01*
X138271586Y-112309637D01*
X138311593Y-112226126D01*
X138356349Y-112231571D01*
G36*
X132288240Y-113455591D02*
X132363818Y-113405992D01*
X132431952Y-113408027D01*
X132527644Y-113463479D01*
X132534416Y-113468124D01*
X132671239Y-113586099D01*
X132842158Y-113773038D01*
X133042269Y-114022434D01*
X133266668Y-114327781D01*
X133510452Y-114682574D01*
X133768719Y-115080306D01*
X133863923Y-115232148D01*
X134131774Y-115662553D01*
X134362334Y-116031436D01*
X134562601Y-116349762D01*
X134739575Y-116628501D01*
X134900251Y-116878619D01*
X135051629Y-117111087D01*
X135200709Y-117336870D01*
X135338003Y-117542392D01*
X135488987Y-117767051D01*
X135629625Y-117975762D01*
X135750840Y-118155097D01*
X135843557Y-118291630D01*
X135898698Y-118371935D01*
X135900882Y-118375054D01*
X135993334Y-118506807D01*
X136075485Y-118301106D01*
X136219670Y-117978855D01*
X136378520Y-117691620D01*
X136544731Y-117448932D01*
X136711006Y-117260320D01*
X136870042Y-117135312D01*
X137007806Y-117084145D01*
X137094193Y-117079156D01*
X137159684Y-117098710D01*
X137229116Y-117156926D01*
X137323794Y-117263777D01*
X137447264Y-117448991D01*
X137564921Y-117700488D01*
X137670162Y-117999606D01*
X137756383Y-118327680D01*
X137815121Y-118652469D01*
X137846763Y-118949778D01*
X137848326Y-119186934D01*
X137818858Y-119383585D01*
X137772996Y-119523262D01*
X137691736Y-119678192D01*
X137584169Y-119784122D01*
X137423289Y-119866123D01*
X137389682Y-119879116D01*
X137187141Y-119921730D01*
X136966912Y-119900821D01*
X136722067Y-119814062D01*
X136445684Y-119659123D01*
X136197768Y-119484149D01*
X136528640Y-119153277D01*
X136790223Y-119394393D01*
X137037668Y-119567345D01*
X137264308Y-119666880D01*
X137311706Y-119678611D01*
X137448552Y-119668862D01*
X137560804Y-119583567D01*
X137641209Y-119430342D01*
X137672683Y-119299647D01*
X137684419Y-119062781D01*
X137656450Y-118768149D01*
X137591167Y-118431769D01*
X137490966Y-118069658D01*
X137487008Y-118057189D01*
X137374909Y-117739820D01*
X137266207Y-117503442D01*
X137158786Y-117344276D01*
X137050528Y-117258543D01*
X137035976Y-117252480D01*
X136927636Y-117252928D01*
X136807184Y-117331949D01*
X136673423Y-117490857D01*
X136525157Y-117730963D01*
X136423556Y-117924932D01*
X136301378Y-118170362D01*
X136213593Y-118352613D01*
X136157827Y-118485083D01*
X136131702Y-118581174D01*
X136132840Y-118654284D01*
X136158865Y-118717814D01*
X136207400Y-118785162D01*
X136259591Y-118849257D01*
X136528640Y-119153277D01*
X136197768Y-119484149D01*
X136182366Y-119473280D01*
X136044217Y-119371264D01*
X135933235Y-119294792D01*
X135865102Y-119254392D01*
X135851666Y-119251265D01*
X135828936Y-119294526D01*
X135779807Y-119399386D01*
X135711777Y-119549550D01*
X135641364Y-119708204D01*
X135441085Y-120165547D01*
X135272969Y-120554502D01*
X135133538Y-120883797D01*
X135019320Y-121162157D01*
X134926840Y-121398308D01*
X134852620Y-121600977D01*
X134793188Y-121778891D01*
X134745068Y-121940774D01*
X134729571Y-121997839D01*
X134666433Y-122224498D01*
X134615627Y-122376422D01*
X134572937Y-122462199D01*
X134534145Y-122490418D01*
X134496952Y-122471617D01*
X134490100Y-122414225D01*
X134506607Y-122292324D01*
X134542614Y-122121875D01*
X134594264Y-121918841D01*
X134657697Y-121699184D01*
X134729057Y-121478868D01*
X134754188Y-121407345D01*
X134823430Y-121225383D01*
X134918872Y-120989508D01*
X135030860Y-120722819D01*
X135149743Y-120448417D01*
X135232179Y-120263483D01*
X135380501Y-119934882D01*
X135497010Y-119674743D01*
X135584897Y-119474129D01*
X135647354Y-119324099D01*
X135687572Y-119215715D01*
X135708741Y-119140038D01*
X135714054Y-119088128D01*
X135706703Y-119051046D01*
X135689878Y-119019852D01*
X135680906Y-119006578D01*
X135619516Y-118922846D01*
X135527867Y-118804047D01*
X135457024Y-118714844D01*
X135351943Y-118570688D01*
X135215798Y-118363016D01*
X135055787Y-118104157D01*
X134879112Y-117806441D01*
X134851588Y-117758497D01*
X134930694Y-117679391D01*
X134960728Y-117679391D01*
X134960727Y-117649357D01*
X134930694Y-117649357D01*
X134930694Y-117679391D01*
X134851588Y-117758497D01*
X134692969Y-117482196D01*
X134504558Y-117143749D01*
X134321079Y-116803432D01*
X134159341Y-116492459D01*
X133874498Y-115937961D01*
X133621841Y-115456013D01*
X133398547Y-115041770D01*
X133201786Y-114690382D01*
X133028736Y-114397005D01*
X132876568Y-114156790D01*
X132742458Y-113964889D01*
X132623579Y-113816456D01*
X132558050Y-113745905D01*
X132408885Y-113595799D01*
X132444225Y-113780995D01*
X132487747Y-113951631D01*
X132564115Y-114187703D01*
X132668893Y-114478310D01*
X132797652Y-114812553D01*
X132945957Y-115179532D01*
X133109377Y-115568348D01*
X133283480Y-115968102D01*
X133463834Y-116367892D01*
X133646006Y-116756821D01*
X133699583Y-116868169D01*
X133801008Y-117082913D01*
X133888068Y-117277380D01*
X133954118Y-117435925D01*
X133992517Y-117542902D01*
X133999464Y-117574438D01*
X133970576Y-117688565D01*
X133888724Y-117782659D01*
X133781509Y-117828472D01*
X133750955Y-117828825D01*
X133709793Y-117813252D01*
X133643905Y-117768693D01*
X133547296Y-117689839D01*
X133413972Y-117571386D01*
X133237939Y-117408024D01*
X133013201Y-117194450D01*
X132771163Y-116961507D01*
X131882212Y-116102591D01*
X132156835Y-116518756D01*
X132293313Y-116722820D01*
X132439783Y-116937355D01*
X132574987Y-117131416D01*
X132646039Y-117230925D01*
X132936925Y-117635356D01*
X133182697Y-117985095D01*
X133390782Y-118292203D01*
X133568607Y-118568743D01*
X133723601Y-118826774D01*
X133863189Y-119078358D01*
X133994800Y-119335555D01*
X134125859Y-119610427D01*
X134168439Y-119703087D01*
X134245396Y-119893951D01*
X134325313Y-120128669D01*
X134399550Y-120377909D01*
X134459466Y-120612339D01*
X134496421Y-120802630D01*
X134499688Y-120827547D01*
X134512036Y-121203901D01*
X134457803Y-121539762D01*
X134340441Y-121829653D01*
X134163397Y-122068096D01*
X133930118Y-122249613D01*
X133644057Y-122368728D01*
X133510393Y-122398590D01*
X133273408Y-122402626D01*
X132982176Y-122342353D01*
X132637669Y-122218016D01*
X132424995Y-122122012D01*
X132197348Y-121989006D01*
X131945227Y-121802354D01*
X131688899Y-121580626D01*
X131448629Y-121342388D01*
X131244687Y-121106210D01*
X131116316Y-120923062D01*
X130971327Y-120625687D01*
X130888976Y-120323720D01*
X130870116Y-120031485D01*
X130915602Y-119763311D01*
X131026287Y-119533524D01*
X131032930Y-119524156D01*
X131082597Y-119430007D01*
X131100348Y-119314436D01*
X131089818Y-119149577D01*
X131085902Y-119117933D01*
X131071608Y-118845985D01*
X131089557Y-118548954D01*
X131136062Y-118269104D01*
X131170947Y-118142447D01*
X131258752Y-117970745D01*
X131385582Y-117842982D01*
X131533443Y-117771149D01*
X131684340Y-117767243D01*
X131718436Y-117777531D01*
X131853603Y-117859856D01*
X132002879Y-118000790D01*
X132150918Y-118179265D01*
X132282372Y-118374210D01*
X132381893Y-118564557D01*
X132434133Y-118729238D01*
X132438088Y-118765456D01*
X132425157Y-118854833D01*
X132388190Y-118928248D01*
X132343436Y-118964561D01*
X132307146Y-118942631D01*
X132305290Y-118938234D01*
X132207399Y-118692878D01*
X132126799Y-118510169D01*
X132053662Y-118372247D01*
X131978167Y-118261254D01*
X131890487Y-118159329D01*
X131858400Y-118125864D01*
X131699829Y-117988076D01*
X131567931Y-117928730D01*
X131460748Y-117948818D01*
X131376322Y-118049334D01*
X131312692Y-118231271D01*
X131277659Y-118420203D01*
X131264003Y-118570248D01*
X131259431Y-118744568D01*
X131263069Y-118920144D01*
X131274045Y-119073952D01*
X131291488Y-119182973D01*
X131308004Y-119221238D01*
X131357219Y-119221154D01*
X131452595Y-119196970D01*
X131472420Y-119190430D01*
X131675097Y-119164777D01*
X131885469Y-119223398D01*
X132102829Y-119366036D01*
X132203108Y-119457940D01*
X132418618Y-119699711D01*
X132580170Y-119938424D01*
X132683863Y-120164441D01*
X132725796Y-120368122D01*
X132702065Y-120539828D01*
X132667801Y-120605748D01*
X132534398Y-120747063D01*
X132379756Y-120807145D01*
X132197179Y-120788455D01*
X132182705Y-120784112D01*
X132008050Y-120696567D01*
X131818722Y-120545899D01*
X131663022Y-120382717D01*
X131797722Y-120248018D01*
X131995521Y-120441196D01*
X132192942Y-120568767D01*
X132379923Y-120622674D01*
X132391977Y-120623461D01*
X132478007Y-120623051D01*
X132516897Y-120592594D01*
X132541666Y-120521930D01*
X132539937Y-120425054D01*
X132501538Y-120279853D01*
X132435674Y-120109497D01*
X132351554Y-119937159D01*
X132258386Y-119786006D01*
X132238521Y-119759110D01*
X132029522Y-119533570D01*
X131813358Y-119392151D01*
X131590487Y-119335153D01*
X131590477Y-119335152D01*
X131468549Y-119332855D01*
X131385505Y-119341680D01*
X131369024Y-119348901D01*
X131363774Y-119406741D01*
X131390682Y-119517959D01*
X131441772Y-119661064D01*
X131509068Y-119814557D01*
X131584596Y-119956947D01*
X131609608Y-119997284D01*
X131797722Y-120248018D01*
X131663022Y-120382717D01*
X131630261Y-120348380D01*
X131458206Y-120120283D01*
X131318915Y-119879558D01*
X131247490Y-119738057D01*
X131189535Y-119631884D01*
X131155182Y-119579348D01*
X131151340Y-119576734D01*
X131123526Y-119614869D01*
X131090788Y-119714685D01*
X131059561Y-119853675D01*
X131042903Y-119955951D01*
X131047019Y-120135827D01*
X131095675Y-120357914D01*
X131181039Y-120597537D01*
X131295280Y-120830019D01*
X131347586Y-120915915D01*
X131558611Y-121195227D01*
X131807627Y-121450283D01*
X132082943Y-121674680D01*
X132372868Y-121862016D01*
X132665710Y-122005888D01*
X132949779Y-122099892D01*
X133213384Y-122137625D01*
X133444835Y-122112684D01*
X133499679Y-122094613D01*
X133683752Y-121980015D01*
X133820117Y-121800940D01*
X133908444Y-121563418D01*
X133948407Y-121273481D01*
X133939676Y-120937160D01*
X133900153Y-120679380D01*
X134058132Y-120521400D01*
X134082224Y-120530877D01*
X134144709Y-120532879D01*
X134155481Y-120508879D01*
X134151574Y-120504388D01*
X134104838Y-120500317D01*
X134082225Y-120504388D01*
X134058132Y-120521400D01*
X133900153Y-120679380D01*
X133881924Y-120560489D01*
X133774823Y-120149497D01*
X133628093Y-119735336D01*
X133540214Y-119520474D01*
X133448595Y-119310761D01*
X133439290Y-119290932D01*
X133669253Y-119060969D01*
X133699288Y-119060969D01*
X133699287Y-119030935D01*
X133669253Y-119030935D01*
X133669253Y-119060969D01*
X133439290Y-119290932D01*
X133348445Y-119097343D01*
X133234975Y-118871365D01*
X133103395Y-118623976D01*
X132948914Y-118346320D01*
X132766742Y-118029544D01*
X132552090Y-117664795D01*
X132300167Y-117243217D01*
X132101295Y-116913225D01*
X131898344Y-116576211D01*
X131709543Y-116260543D01*
X131539355Y-115973843D01*
X131392243Y-115723728D01*
X131272671Y-115517818D01*
X131185102Y-115363735D01*
X131134001Y-115269096D01*
X131122293Y-115242008D01*
X131156573Y-115183364D01*
X131194979Y-115169321D01*
X131220024Y-115170979D01*
X131256968Y-115188828D01*
X131311444Y-115228110D01*
X131389084Y-115294069D01*
X131495521Y-115391947D01*
X131636385Y-115526984D01*
X131817311Y-115704426D01*
X132043930Y-115929511D01*
X132321873Y-116207484D01*
X132469859Y-116355905D01*
X132733948Y-116619670D01*
X132981161Y-116864158D01*
X133204729Y-117082853D01*
X133397879Y-117269241D01*
X133553844Y-117416804D01*
X133665854Y-117519028D01*
X133727139Y-117569397D01*
X133734951Y-117573504D01*
X133758956Y-117572195D01*
X133766949Y-117549387D01*
X133755614Y-117496602D01*
X133721629Y-117405364D01*
X133661675Y-117267197D01*
X133572432Y-117073624D01*
X133450582Y-116816167D01*
X133382845Y-116674323D01*
X133201627Y-116286726D01*
X133023009Y-115888305D01*
X132851475Y-115490315D01*
X132691513Y-115104012D01*
X132547607Y-114740653D01*
X132424244Y-114411493D01*
X132325908Y-114127789D01*
X132257085Y-113900795D01*
X132227760Y-113775766D01*
X132207162Y-113635087D01*
X132214344Y-113547872D01*
X132254688Y-113485636D01*
X132288240Y-113455591D01*
X132288240Y-113455591D01*
G37*
X132288240Y-113455591D02*
X132363818Y-113405992D01*
X132431952Y-113408027D01*
X132527644Y-113463479D01*
X132534416Y-113468124D01*
X132671239Y-113586099D01*
X132842158Y-113773038D01*
X133042269Y-114022434D01*
X133266668Y-114327781D01*
X133510452Y-114682574D01*
X133768719Y-115080306D01*
X133863923Y-115232148D01*
X134131774Y-115662553D01*
X134362334Y-116031436D01*
X134562601Y-116349762D01*
X134739575Y-116628501D01*
X134900251Y-116878619D01*
X135051629Y-117111087D01*
X135200709Y-117336870D01*
X135338003Y-117542392D01*
X135488987Y-117767051D01*
X135629625Y-117975762D01*
X135750840Y-118155097D01*
X135843557Y-118291630D01*
X135898698Y-118371935D01*
X135900882Y-118375054D01*
X135993334Y-118506807D01*
X136075485Y-118301106D01*
X136219670Y-117978855D01*
X136378520Y-117691620D01*
X136544731Y-117448932D01*
X136711006Y-117260320D01*
X136870042Y-117135312D01*
X137007806Y-117084145D01*
X137094193Y-117079156D01*
X137159684Y-117098710D01*
X137229116Y-117156926D01*
X137323794Y-117263777D01*
X137447264Y-117448991D01*
X137564921Y-117700488D01*
X137670162Y-117999606D01*
X137756383Y-118327680D01*
X137815121Y-118652469D01*
X137846763Y-118949778D01*
X137848326Y-119186934D01*
X137818858Y-119383585D01*
X137772996Y-119523262D01*
X137691736Y-119678192D01*
X137584169Y-119784122D01*
X137423289Y-119866123D01*
X137389682Y-119879116D01*
X137187141Y-119921730D01*
X136966912Y-119900821D01*
X136722067Y-119814062D01*
X136445684Y-119659123D01*
X136197768Y-119484149D01*
X136528640Y-119153277D01*
X136790223Y-119394393D01*
X137037668Y-119567345D01*
X137264308Y-119666880D01*
X137311706Y-119678611D01*
X137448552Y-119668862D01*
X137560804Y-119583567D01*
X137641209Y-119430342D01*
X137672683Y-119299647D01*
X137684419Y-119062781D01*
X137656450Y-118768149D01*
X137591167Y-118431769D01*
X137490966Y-118069658D01*
X137487008Y-118057189D01*
X137374909Y-117739820D01*
X137266207Y-117503442D01*
X137158786Y-117344276D01*
X137050528Y-117258543D01*
X137035976Y-117252480D01*
X136927636Y-117252928D01*
X136807184Y-117331949D01*
X136673423Y-117490857D01*
X136525157Y-117730963D01*
X136423556Y-117924932D01*
X136301378Y-118170362D01*
X136213593Y-118352613D01*
X136157827Y-118485083D01*
X136131702Y-118581174D01*
X136132840Y-118654284D01*
X136158865Y-118717814D01*
X136207400Y-118785162D01*
X136259591Y-118849257D01*
X136528640Y-119153277D01*
X136197768Y-119484149D01*
X136182366Y-119473280D01*
X136044217Y-119371264D01*
X135933235Y-119294792D01*
X135865102Y-119254392D01*
X135851666Y-119251265D01*
X135828936Y-119294526D01*
X135779807Y-119399386D01*
X135711777Y-119549550D01*
X135641364Y-119708204D01*
X135441085Y-120165547D01*
X135272969Y-120554502D01*
X135133538Y-120883797D01*
X135019320Y-121162157D01*
X134926840Y-121398308D01*
X134852620Y-121600977D01*
X134793188Y-121778891D01*
X134745068Y-121940774D01*
X134729571Y-121997839D01*
X134666433Y-122224498D01*
X134615627Y-122376422D01*
X134572937Y-122462199D01*
X134534145Y-122490418D01*
X134496952Y-122471617D01*
X134490100Y-122414225D01*
X134506607Y-122292324D01*
X134542614Y-122121875D01*
X134594264Y-121918841D01*
X134657697Y-121699184D01*
X134729057Y-121478868D01*
X134754188Y-121407345D01*
X134823430Y-121225383D01*
X134918872Y-120989508D01*
X135030860Y-120722819D01*
X135149743Y-120448417D01*
X135232179Y-120263483D01*
X135380501Y-119934882D01*
X135497010Y-119674743D01*
X135584897Y-119474129D01*
X135647354Y-119324099D01*
X135687572Y-119215715D01*
X135708741Y-119140038D01*
X135714054Y-119088128D01*
X135706703Y-119051046D01*
X135689878Y-119019852D01*
X135680906Y-119006578D01*
X135619516Y-118922846D01*
X135527867Y-118804047D01*
X135457024Y-118714844D01*
X135351943Y-118570688D01*
X135215798Y-118363016D01*
X135055787Y-118104157D01*
X134879112Y-117806441D01*
X134851588Y-117758497D01*
X134930694Y-117679391D01*
X134960728Y-117679391D01*
X134960727Y-117649357D01*
X134930694Y-117649357D01*
X134930694Y-117679391D01*
X134851588Y-117758497D01*
X134692969Y-117482196D01*
X134504558Y-117143749D01*
X134321079Y-116803432D01*
X134159341Y-116492459D01*
X133874498Y-115937961D01*
X133621841Y-115456013D01*
X133398547Y-115041770D01*
X133201786Y-114690382D01*
X133028736Y-114397005D01*
X132876568Y-114156790D01*
X132742458Y-113964889D01*
X132623579Y-113816456D01*
X132558050Y-113745905D01*
X132408885Y-113595799D01*
X132444225Y-113780995D01*
X132487747Y-113951631D01*
X132564115Y-114187703D01*
X132668893Y-114478310D01*
X132797652Y-114812553D01*
X132945957Y-115179532D01*
X133109377Y-115568348D01*
X133283480Y-115968102D01*
X133463834Y-116367892D01*
X133646006Y-116756821D01*
X133699583Y-116868169D01*
X133801008Y-117082913D01*
X133888068Y-117277380D01*
X133954118Y-117435925D01*
X133992517Y-117542902D01*
X133999464Y-117574438D01*
X133970576Y-117688565D01*
X133888724Y-117782659D01*
X133781509Y-117828472D01*
X133750955Y-117828825D01*
X133709793Y-117813252D01*
X133643905Y-117768693D01*
X133547296Y-117689839D01*
X133413972Y-117571386D01*
X133237939Y-117408024D01*
X133013201Y-117194450D01*
X132771163Y-116961507D01*
X131882212Y-116102591D01*
X132156835Y-116518756D01*
X132293313Y-116722820D01*
X132439783Y-116937355D01*
X132574987Y-117131416D01*
X132646039Y-117230925D01*
X132936925Y-117635356D01*
X133182697Y-117985095D01*
X133390782Y-118292203D01*
X133568607Y-118568743D01*
X133723601Y-118826774D01*
X133863189Y-119078358D01*
X133994800Y-119335555D01*
X134125859Y-119610427D01*
X134168439Y-119703087D01*
X134245396Y-119893951D01*
X134325313Y-120128669D01*
X134399550Y-120377909D01*
X134459466Y-120612339D01*
X134496421Y-120802630D01*
X134499688Y-120827547D01*
X134512036Y-121203901D01*
X134457803Y-121539762D01*
X134340441Y-121829653D01*
X134163397Y-122068096D01*
X133930118Y-122249613D01*
X133644057Y-122368728D01*
X133510393Y-122398590D01*
X133273408Y-122402626D01*
X132982176Y-122342353D01*
X132637669Y-122218016D01*
X132424995Y-122122012D01*
X132197348Y-121989006D01*
X131945227Y-121802354D01*
X131688899Y-121580626D01*
X131448629Y-121342388D01*
X131244687Y-121106210D01*
X131116316Y-120923062D01*
X130971327Y-120625687D01*
X130888976Y-120323720D01*
X130870116Y-120031485D01*
X130915602Y-119763311D01*
X131026287Y-119533524D01*
X131032930Y-119524156D01*
X131082597Y-119430007D01*
X131100348Y-119314436D01*
X131089818Y-119149577D01*
X131085902Y-119117933D01*
X131071608Y-118845985D01*
X131089557Y-118548954D01*
X131136062Y-118269104D01*
X131170947Y-118142447D01*
X131258752Y-117970745D01*
X131385582Y-117842982D01*
X131533443Y-117771149D01*
X131684340Y-117767243D01*
X131718436Y-117777531D01*
X131853603Y-117859856D01*
X132002879Y-118000790D01*
X132150918Y-118179265D01*
X132282372Y-118374210D01*
X132381893Y-118564557D01*
X132434133Y-118729238D01*
X132438088Y-118765456D01*
X132425157Y-118854833D01*
X132388190Y-118928248D01*
X132343436Y-118964561D01*
X132307146Y-118942631D01*
X132305290Y-118938234D01*
X132207399Y-118692878D01*
X132126799Y-118510169D01*
X132053662Y-118372247D01*
X131978167Y-118261254D01*
X131890487Y-118159329D01*
X131858400Y-118125864D01*
X131699829Y-117988076D01*
X131567931Y-117928730D01*
X131460748Y-117948818D01*
X131376322Y-118049334D01*
X131312692Y-118231271D01*
X131277659Y-118420203D01*
X131264003Y-118570248D01*
X131259431Y-118744568D01*
X131263069Y-118920144D01*
X131274045Y-119073952D01*
X131291488Y-119182973D01*
X131308004Y-119221238D01*
X131357219Y-119221154D01*
X131452595Y-119196970D01*
X131472420Y-119190430D01*
X131675097Y-119164777D01*
X131885469Y-119223398D01*
X132102829Y-119366036D01*
X132203108Y-119457940D01*
X132418618Y-119699711D01*
X132580170Y-119938424D01*
X132683863Y-120164441D01*
X132725796Y-120368122D01*
X132702065Y-120539828D01*
X132667801Y-120605748D01*
X132534398Y-120747063D01*
X132379756Y-120807145D01*
X132197179Y-120788455D01*
X132182705Y-120784112D01*
X132008050Y-120696567D01*
X131818722Y-120545899D01*
X131663022Y-120382717D01*
X131797722Y-120248018D01*
X131995521Y-120441196D01*
X132192942Y-120568767D01*
X132379923Y-120622674D01*
X132391977Y-120623461D01*
X132478007Y-120623051D01*
X132516897Y-120592594D01*
X132541666Y-120521930D01*
X132539937Y-120425054D01*
X132501538Y-120279853D01*
X132435674Y-120109497D01*
X132351554Y-119937159D01*
X132258386Y-119786006D01*
X132238521Y-119759110D01*
X132029522Y-119533570D01*
X131813358Y-119392151D01*
X131590487Y-119335153D01*
X131590477Y-119335152D01*
X131468549Y-119332855D01*
X131385505Y-119341680D01*
X131369024Y-119348901D01*
X131363774Y-119406741D01*
X131390682Y-119517959D01*
X131441772Y-119661064D01*
X131509068Y-119814557D01*
X131584596Y-119956947D01*
X131609608Y-119997284D01*
X131797722Y-120248018D01*
X131663022Y-120382717D01*
X131630261Y-120348380D01*
X131458206Y-120120283D01*
X131318915Y-119879558D01*
X131247490Y-119738057D01*
X131189535Y-119631884D01*
X131155182Y-119579348D01*
X131151340Y-119576734D01*
X131123526Y-119614869D01*
X131090788Y-119714685D01*
X131059561Y-119853675D01*
X131042903Y-119955951D01*
X131047019Y-120135827D01*
X131095675Y-120357914D01*
X131181039Y-120597537D01*
X131295280Y-120830019D01*
X131347586Y-120915915D01*
X131558611Y-121195227D01*
X131807627Y-121450283D01*
X132082943Y-121674680D01*
X132372868Y-121862016D01*
X132665710Y-122005888D01*
X132949779Y-122099892D01*
X133213384Y-122137625D01*
X133444835Y-122112684D01*
X133499679Y-122094613D01*
X133683752Y-121980015D01*
X133820117Y-121800940D01*
X133908444Y-121563418D01*
X133948407Y-121273481D01*
X133939676Y-120937160D01*
X133900153Y-120679380D01*
X134058132Y-120521400D01*
X134082224Y-120530877D01*
X134144709Y-120532879D01*
X134155481Y-120508879D01*
X134151574Y-120504388D01*
X134104838Y-120500317D01*
X134082225Y-120504388D01*
X134058132Y-120521400D01*
X133900153Y-120679380D01*
X133881924Y-120560489D01*
X133774823Y-120149497D01*
X133628093Y-119735336D01*
X133540214Y-119520474D01*
X133448595Y-119310761D01*
X133439290Y-119290932D01*
X133669253Y-119060969D01*
X133699288Y-119060969D01*
X133699287Y-119030935D01*
X133669253Y-119030935D01*
X133669253Y-119060969D01*
X133439290Y-119290932D01*
X133348445Y-119097343D01*
X133234975Y-118871365D01*
X133103395Y-118623976D01*
X132948914Y-118346320D01*
X132766742Y-118029544D01*
X132552090Y-117664795D01*
X132300167Y-117243217D01*
X132101295Y-116913225D01*
X131898344Y-116576211D01*
X131709543Y-116260543D01*
X131539355Y-115973843D01*
X131392243Y-115723728D01*
X131272671Y-115517818D01*
X131185102Y-115363735D01*
X131134001Y-115269096D01*
X131122293Y-115242008D01*
X131156573Y-115183364D01*
X131194979Y-115169321D01*
X131220024Y-115170979D01*
X131256968Y-115188828D01*
X131311444Y-115228110D01*
X131389084Y-115294069D01*
X131495521Y-115391947D01*
X131636385Y-115526984D01*
X131817311Y-115704426D01*
X132043930Y-115929511D01*
X132321873Y-116207484D01*
X132469859Y-116355905D01*
X132733948Y-116619670D01*
X132981161Y-116864158D01*
X133204729Y-117082853D01*
X133397879Y-117269241D01*
X133553844Y-117416804D01*
X133665854Y-117519028D01*
X133727139Y-117569397D01*
X133734951Y-117573504D01*
X133758956Y-117572195D01*
X133766949Y-117549387D01*
X133755614Y-117496602D01*
X133721629Y-117405364D01*
X133661675Y-117267197D01*
X133572432Y-117073624D01*
X133450582Y-116816167D01*
X133382845Y-116674323D01*
X133201627Y-116286726D01*
X133023009Y-115888305D01*
X132851475Y-115490315D01*
X132691513Y-115104012D01*
X132547607Y-114740653D01*
X132424244Y-114411493D01*
X132325908Y-114127789D01*
X132257085Y-113900795D01*
X132227760Y-113775766D01*
X132207162Y-113635087D01*
X132214344Y-113547872D01*
X132254688Y-113485636D01*
X132288240Y-113455591D01*
D12*
X168541000Y-49442000D02*
X167541000Y-49442000D01*
X167541000Y-51142000D02*
X168541000Y-51142000D01*
X160413000Y-66587000D02*
X159413000Y-66587000D01*
X159413000Y-68287000D02*
X160413000Y-68287000D01*
X170065000Y-81827000D02*
X169065000Y-81827000D01*
X169065000Y-83527000D02*
X170065000Y-83527000D01*
X149999000Y-91606000D02*
X148999000Y-91606000D01*
X148999000Y-93306000D02*
X149999000Y-93306000D01*
X160921000Y-109005000D02*
X159921000Y-109005000D01*
X159921000Y-110705000D02*
X160921000Y-110705000D01*
X182638000Y-115228000D02*
X181638000Y-115228000D01*
X181638000Y-116928000D02*
X182638000Y-116928000D01*
M02*
