G04 #@! TF.FileFunction,Legend,Bot*
%FSLAX46Y46*%
G04 Gerber Fmt 4.6, Leading zero omitted, Abs format (unit mm)*
G04 Created by KiCad (PCBNEW 4.0.6+dfsg1-1) date Fri Aug 17 18:18:40 2018*
%MOMM*%
%LPD*%
G01*
G04 APERTURE LIST*
%ADD10C,0.100000*%
%ADD11C,0.150000*%
%ADD12C,0.200000*%
%ADD13C,0.300000*%
%ADD14C,0.120000*%
%ADD15C,0.010000*%
%ADD16C,0.203200*%
%ADD17C,0.152400*%
G04 APERTURE END LIST*
D10*
D11*
X164307190Y-59416905D02*
X164573857Y-59035952D01*
X164764333Y-59416905D02*
X164764333Y-58616905D01*
X164459571Y-58616905D01*
X164383380Y-58655000D01*
X164345285Y-58693095D01*
X164307190Y-58769286D01*
X164307190Y-58883571D01*
X164345285Y-58959762D01*
X164383380Y-58997857D01*
X164459571Y-59035952D01*
X164764333Y-59035952D01*
X164040523Y-59416905D02*
X163621476Y-58883571D01*
X164040523Y-58883571D02*
X163621476Y-59416905D01*
X169990381Y-58743905D02*
X169533238Y-58743905D01*
X169761809Y-59543905D02*
X169761809Y-58743905D01*
X169342761Y-59543905D02*
X168923714Y-59010571D01*
X169342761Y-59010571D02*
X168923714Y-59543905D01*
X172282762Y-58985143D02*
X171673238Y-58985143D01*
X172028762Y-52508143D02*
X171419238Y-52508143D01*
X171724000Y-52812905D02*
X171724000Y-52203381D01*
D12*
X123508275Y-115887500D02*
G75*
G03X123508275Y-115887500I-1631775J0D01*
G01*
X216154775Y-115760500D02*
G75*
G03X216154775Y-115760500I-1631775J0D01*
G01*
D13*
X120733643Y-115911286D02*
X123019357Y-115911286D01*
X213443643Y-115784286D02*
X215729357Y-115784286D01*
X214586500Y-116927143D02*
X214586500Y-114641429D01*
D14*
X168156000Y-129071000D02*
X169156000Y-129071000D01*
X169156000Y-130771000D02*
X168156000Y-130771000D01*
D15*
G36*
X195016806Y-89284684D02*
X194993853Y-89297307D01*
X194962985Y-89321227D01*
X194921198Y-89358800D01*
X194865484Y-89412382D01*
X194858275Y-89419453D01*
X194717350Y-89557907D01*
X194572290Y-89419453D01*
X194511293Y-89362239D01*
X194464628Y-89321718D01*
X194429020Y-89296276D01*
X194401198Y-89284296D01*
X194377887Y-89284164D01*
X194355815Y-89294263D01*
X194340932Y-89305264D01*
X194310950Y-89329529D01*
X194307276Y-89743298D01*
X194303602Y-90157066D01*
X194275526Y-90163033D01*
X194247943Y-90168567D01*
X194205910Y-90176652D01*
X194171250Y-90183164D01*
X194097397Y-90198543D01*
X194007086Y-90219877D01*
X193907973Y-90245132D01*
X193807715Y-90272277D01*
X193713964Y-90299280D01*
X193634377Y-90324109D01*
X193612450Y-90331505D01*
X193509200Y-90368190D01*
X193428434Y-90399167D01*
X193368123Y-90425380D01*
X193326238Y-90447769D01*
X193300749Y-90467275D01*
X193291214Y-90480485D01*
X193285187Y-90513840D01*
X193286548Y-90567973D01*
X193294569Y-90639595D01*
X193308523Y-90725418D01*
X193327680Y-90822152D01*
X193351313Y-90926506D01*
X193378693Y-91035193D01*
X193409092Y-91144922D01*
X193441783Y-91252404D01*
X193476037Y-91354349D01*
X193497668Y-91413144D01*
X193620008Y-91699930D01*
X193766144Y-91983748D01*
X193934479Y-92262317D01*
X194123419Y-92533360D01*
X194331368Y-92794595D01*
X194556732Y-93043744D01*
X194797914Y-93278528D01*
X194812600Y-93291879D01*
X194882455Y-93354040D01*
X194937112Y-93399921D01*
X194979151Y-93431388D01*
X195011151Y-93450305D01*
X195035691Y-93458534D01*
X195044204Y-93459252D01*
X195063427Y-93451463D01*
X195095818Y-93430630D01*
X195135593Y-93400623D01*
X195152154Y-93387019D01*
X195306373Y-93251926D01*
X195456170Y-93110518D01*
X195593328Y-92970624D01*
X195623035Y-92938600D01*
X195848558Y-92677111D01*
X196051246Y-92409768D01*
X196230704Y-92137298D01*
X196386540Y-91860427D01*
X196518358Y-91579883D01*
X196625765Y-91296391D01*
X196708367Y-91010679D01*
X196736827Y-90884089D01*
X196754320Y-90793254D01*
X196768849Y-90706791D01*
X196779900Y-90628776D01*
X196786325Y-90569157D01*
X196617633Y-90569157D01*
X196609443Y-90633103D01*
X196568013Y-90871624D01*
X196504315Y-91117174D01*
X196419339Y-91366577D01*
X196314076Y-91616657D01*
X196280481Y-91687650D01*
X196175836Y-91891578D01*
X196064814Y-92083660D01*
X195943992Y-92268937D01*
X195809944Y-92452451D01*
X195659246Y-92639242D01*
X195542176Y-92774465D01*
X195497638Y-92823296D01*
X195445819Y-92877955D01*
X195389703Y-92935527D01*
X195332272Y-92993100D01*
X195276509Y-93047760D01*
X195225398Y-93096595D01*
X195181921Y-93136690D01*
X195149061Y-93165133D01*
X195129801Y-93179010D01*
X195127036Y-93179900D01*
X195124853Y-93167666D01*
X195122844Y-93132828D01*
X195121065Y-93078184D01*
X195119574Y-93006528D01*
X195118428Y-92920657D01*
X195117685Y-92823367D01*
X195117402Y-92717454D01*
X195117400Y-92710326D01*
X195117400Y-92242524D01*
X194952300Y-92242524D01*
X194952300Y-92711212D01*
X194952084Y-92817485D01*
X194951467Y-92915315D01*
X194950499Y-93001903D01*
X194949231Y-93074449D01*
X194947710Y-93130157D01*
X194945988Y-93166225D01*
X194944114Y-93179856D01*
X194944000Y-93179900D01*
X194932587Y-93171439D01*
X194906406Y-93148062D01*
X194868687Y-93112772D01*
X194822660Y-93068573D01*
X194790362Y-93037025D01*
X194550410Y-92786105D01*
X194332134Y-92526684D01*
X194136023Y-92259630D01*
X193962566Y-91985810D01*
X193812253Y-91706093D01*
X193685573Y-91421346D01*
X193583015Y-91132438D01*
X193505068Y-90840237D01*
X193478492Y-90709750D01*
X193468170Y-90651892D01*
X193462752Y-90613839D01*
X193462149Y-90590493D01*
X193466275Y-90576753D01*
X193475043Y-90567521D01*
X193476039Y-90566751D01*
X193501897Y-90553110D01*
X193548475Y-90534611D01*
X193611819Y-90512412D01*
X193687971Y-90487675D01*
X193772975Y-90461557D01*
X193862877Y-90435219D01*
X193953719Y-90409819D01*
X194041546Y-90386518D01*
X194122402Y-90366474D01*
X194192330Y-90350848D01*
X194246594Y-90340914D01*
X194304600Y-90332215D01*
X194304789Y-90501932D01*
X194311534Y-90766511D01*
X194331076Y-91012324D01*
X194363283Y-91238775D01*
X194408025Y-91445269D01*
X194465170Y-91631208D01*
X194534587Y-91795997D01*
X194616146Y-91939038D01*
X194622392Y-91948348D01*
X194675377Y-92017559D01*
X194738343Y-92085896D01*
X194804633Y-92146868D01*
X194867589Y-92193983D01*
X194885370Y-92204751D01*
X194952300Y-92242524D01*
X195117400Y-92242524D01*
X195117400Y-92240752D01*
X195158675Y-92219878D01*
X195257157Y-92156685D01*
X195350085Y-92070301D01*
X195436089Y-91962587D01*
X195513797Y-91835407D01*
X195581839Y-91690622D01*
X195616932Y-91597583D01*
X195658299Y-91465389D01*
X195691866Y-91329107D01*
X195718245Y-91184658D01*
X195738048Y-91027966D01*
X195751886Y-90854956D01*
X195760370Y-90661549D01*
X195761064Y-90636511D01*
X195768961Y-90334673D01*
X195814656Y-90342519D01*
X196022364Y-90385062D01*
X196239177Y-90442324D01*
X196455558Y-90511769D01*
X196467592Y-90516011D01*
X196617633Y-90569157D01*
X196786325Y-90569157D01*
X196786958Y-90563289D01*
X196789510Y-90514408D01*
X196787042Y-90486212D01*
X196787009Y-90486109D01*
X196771773Y-90466713D01*
X196741248Y-90443784D01*
X196718273Y-90430690D01*
X196654589Y-90402144D01*
X196570802Y-90370201D01*
X196471743Y-90336320D01*
X196397978Y-90313171D01*
X195590160Y-90313171D01*
X195583895Y-90657510D01*
X195581328Y-90775449D01*
X195578158Y-90872406D01*
X195574093Y-90952802D01*
X195568839Y-91021052D01*
X195562104Y-91081576D01*
X195553595Y-91138790D01*
X195550954Y-91154250D01*
X195512044Y-91344619D01*
X195465619Y-91512443D01*
X195410918Y-91659664D01*
X195347175Y-91788224D01*
X195273629Y-91900064D01*
X195242282Y-91939381D01*
X195207705Y-91975229D01*
X195164876Y-92012196D01*
X195119816Y-92045894D01*
X195078545Y-92071937D01*
X195047083Y-92085936D01*
X195039473Y-92087179D01*
X195019165Y-92080706D01*
X194985221Y-92063179D01*
X194944699Y-92038275D01*
X194941463Y-92036126D01*
X194851612Y-91961499D01*
X194770605Y-91864208D01*
X194698837Y-91745543D01*
X194636702Y-91606794D01*
X194584596Y-91449251D01*
X194542914Y-91274203D01*
X194512051Y-91082941D01*
X194492401Y-90876753D01*
X194484360Y-90656930D01*
X194484776Y-90544650D01*
X194488750Y-90303350D01*
X194558600Y-90294606D01*
X194634476Y-90287218D01*
X194726176Y-90281689D01*
X194829485Y-90277971D01*
X194940189Y-90276019D01*
X195054074Y-90275784D01*
X195166924Y-90277222D01*
X195274524Y-90280285D01*
X195372660Y-90284928D01*
X195457118Y-90291102D01*
X195523681Y-90298763D01*
X195560155Y-90305661D01*
X195590160Y-90313171D01*
X196397978Y-90313171D01*
X196362241Y-90301956D01*
X196247125Y-90268569D01*
X196131225Y-90237614D01*
X196019370Y-90210550D01*
X195917500Y-90189046D01*
X195865575Y-90178845D01*
X195821429Y-90169745D01*
X195792413Y-90163278D01*
X195787325Y-90161957D01*
X195781148Y-90158642D01*
X195776229Y-90150881D01*
X195772426Y-90136054D01*
X195769597Y-90111543D01*
X195767600Y-90074731D01*
X195766294Y-90023000D01*
X195765537Y-89953731D01*
X195765186Y-89864305D01*
X195765101Y-89752106D01*
X195765100Y-89751756D01*
X195765040Y-89639660D01*
X195764807Y-89568695D01*
X195587300Y-89568695D01*
X195587300Y-90133225D01*
X195476175Y-90123037D01*
X195432757Y-90120255D01*
X195368786Y-90117763D01*
X195289109Y-90115669D01*
X195198572Y-90114082D01*
X195102021Y-90113110D01*
X195022150Y-90112850D01*
X194925194Y-90113203D01*
X194831127Y-90114200D01*
X194744601Y-90115739D01*
X194670262Y-90117724D01*
X194612761Y-90120055D01*
X194580825Y-90122213D01*
X194482400Y-90131576D01*
X194482400Y-89568695D01*
X194582542Y-89666147D01*
X194629453Y-89711130D01*
X194666508Y-89742094D01*
X194697905Y-89758482D01*
X194727837Y-89759738D01*
X194760501Y-89745305D01*
X194800092Y-89714626D01*
X194850806Y-89667146D01*
X194893926Y-89624839D01*
X195034850Y-89486079D01*
X195177568Y-89624839D01*
X195237224Y-89681730D01*
X195282360Y-89721958D01*
X195315609Y-89747597D01*
X195339600Y-89760719D01*
X195353651Y-89763600D01*
X195376282Y-89757583D01*
X195406861Y-89738057D01*
X195448424Y-89702805D01*
X195487159Y-89666147D01*
X195587300Y-89568695D01*
X195764807Y-89568695D01*
X195764745Y-89550140D01*
X195764046Y-89480372D01*
X195762773Y-89427534D01*
X195760756Y-89388803D01*
X195757824Y-89361353D01*
X195753809Y-89342363D01*
X195748539Y-89329008D01*
X195741846Y-89318465D01*
X195738779Y-89314462D01*
X195718577Y-89292926D01*
X195697772Y-89282281D01*
X195673421Y-89283833D01*
X195642581Y-89298892D01*
X195602309Y-89328763D01*
X195549663Y-89374755D01*
X195500672Y-89420251D01*
X195352780Y-89559503D01*
X195211640Y-89420251D01*
X195154258Y-89364559D01*
X195111113Y-89325157D01*
X195079205Y-89299682D01*
X195055533Y-89285771D01*
X195037097Y-89281060D01*
X195034851Y-89281000D01*
X195016806Y-89284684D01*
X195016806Y-89284684D01*
G37*
X195016806Y-89284684D02*
X194993853Y-89297307D01*
X194962985Y-89321227D01*
X194921198Y-89358800D01*
X194865484Y-89412382D01*
X194858275Y-89419453D01*
X194717350Y-89557907D01*
X194572290Y-89419453D01*
X194511293Y-89362239D01*
X194464628Y-89321718D01*
X194429020Y-89296276D01*
X194401198Y-89284296D01*
X194377887Y-89284164D01*
X194355815Y-89294263D01*
X194340932Y-89305264D01*
X194310950Y-89329529D01*
X194307276Y-89743298D01*
X194303602Y-90157066D01*
X194275526Y-90163033D01*
X194247943Y-90168567D01*
X194205910Y-90176652D01*
X194171250Y-90183164D01*
X194097397Y-90198543D01*
X194007086Y-90219877D01*
X193907973Y-90245132D01*
X193807715Y-90272277D01*
X193713964Y-90299280D01*
X193634377Y-90324109D01*
X193612450Y-90331505D01*
X193509200Y-90368190D01*
X193428434Y-90399167D01*
X193368123Y-90425380D01*
X193326238Y-90447769D01*
X193300749Y-90467275D01*
X193291214Y-90480485D01*
X193285187Y-90513840D01*
X193286548Y-90567973D01*
X193294569Y-90639595D01*
X193308523Y-90725418D01*
X193327680Y-90822152D01*
X193351313Y-90926506D01*
X193378693Y-91035193D01*
X193409092Y-91144922D01*
X193441783Y-91252404D01*
X193476037Y-91354349D01*
X193497668Y-91413144D01*
X193620008Y-91699930D01*
X193766144Y-91983748D01*
X193934479Y-92262317D01*
X194123419Y-92533360D01*
X194331368Y-92794595D01*
X194556732Y-93043744D01*
X194797914Y-93278528D01*
X194812600Y-93291879D01*
X194882455Y-93354040D01*
X194937112Y-93399921D01*
X194979151Y-93431388D01*
X195011151Y-93450305D01*
X195035691Y-93458534D01*
X195044204Y-93459252D01*
X195063427Y-93451463D01*
X195095818Y-93430630D01*
X195135593Y-93400623D01*
X195152154Y-93387019D01*
X195306373Y-93251926D01*
X195456170Y-93110518D01*
X195593328Y-92970624D01*
X195623035Y-92938600D01*
X195848558Y-92677111D01*
X196051246Y-92409768D01*
X196230704Y-92137298D01*
X196386540Y-91860427D01*
X196518358Y-91579883D01*
X196625765Y-91296391D01*
X196708367Y-91010679D01*
X196736827Y-90884089D01*
X196754320Y-90793254D01*
X196768849Y-90706791D01*
X196779900Y-90628776D01*
X196786325Y-90569157D01*
X196617633Y-90569157D01*
X196609443Y-90633103D01*
X196568013Y-90871624D01*
X196504315Y-91117174D01*
X196419339Y-91366577D01*
X196314076Y-91616657D01*
X196280481Y-91687650D01*
X196175836Y-91891578D01*
X196064814Y-92083660D01*
X195943992Y-92268937D01*
X195809944Y-92452451D01*
X195659246Y-92639242D01*
X195542176Y-92774465D01*
X195497638Y-92823296D01*
X195445819Y-92877955D01*
X195389703Y-92935527D01*
X195332272Y-92993100D01*
X195276509Y-93047760D01*
X195225398Y-93096595D01*
X195181921Y-93136690D01*
X195149061Y-93165133D01*
X195129801Y-93179010D01*
X195127036Y-93179900D01*
X195124853Y-93167666D01*
X195122844Y-93132828D01*
X195121065Y-93078184D01*
X195119574Y-93006528D01*
X195118428Y-92920657D01*
X195117685Y-92823367D01*
X195117402Y-92717454D01*
X195117400Y-92710326D01*
X195117400Y-92242524D01*
X194952300Y-92242524D01*
X194952300Y-92711212D01*
X194952084Y-92817485D01*
X194951467Y-92915315D01*
X194950499Y-93001903D01*
X194949231Y-93074449D01*
X194947710Y-93130157D01*
X194945988Y-93166225D01*
X194944114Y-93179856D01*
X194944000Y-93179900D01*
X194932587Y-93171439D01*
X194906406Y-93148062D01*
X194868687Y-93112772D01*
X194822660Y-93068573D01*
X194790362Y-93037025D01*
X194550410Y-92786105D01*
X194332134Y-92526684D01*
X194136023Y-92259630D01*
X193962566Y-91985810D01*
X193812253Y-91706093D01*
X193685573Y-91421346D01*
X193583015Y-91132438D01*
X193505068Y-90840237D01*
X193478492Y-90709750D01*
X193468170Y-90651892D01*
X193462752Y-90613839D01*
X193462149Y-90590493D01*
X193466275Y-90576753D01*
X193475043Y-90567521D01*
X193476039Y-90566751D01*
X193501897Y-90553110D01*
X193548475Y-90534611D01*
X193611819Y-90512412D01*
X193687971Y-90487675D01*
X193772975Y-90461557D01*
X193862877Y-90435219D01*
X193953719Y-90409819D01*
X194041546Y-90386518D01*
X194122402Y-90366474D01*
X194192330Y-90350848D01*
X194246594Y-90340914D01*
X194304600Y-90332215D01*
X194304789Y-90501932D01*
X194311534Y-90766511D01*
X194331076Y-91012324D01*
X194363283Y-91238775D01*
X194408025Y-91445269D01*
X194465170Y-91631208D01*
X194534587Y-91795997D01*
X194616146Y-91939038D01*
X194622392Y-91948348D01*
X194675377Y-92017559D01*
X194738343Y-92085896D01*
X194804633Y-92146868D01*
X194867589Y-92193983D01*
X194885370Y-92204751D01*
X194952300Y-92242524D01*
X195117400Y-92242524D01*
X195117400Y-92240752D01*
X195158675Y-92219878D01*
X195257157Y-92156685D01*
X195350085Y-92070301D01*
X195436089Y-91962587D01*
X195513797Y-91835407D01*
X195581839Y-91690622D01*
X195616932Y-91597583D01*
X195658299Y-91465389D01*
X195691866Y-91329107D01*
X195718245Y-91184658D01*
X195738048Y-91027966D01*
X195751886Y-90854956D01*
X195760370Y-90661549D01*
X195761064Y-90636511D01*
X195768961Y-90334673D01*
X195814656Y-90342519D01*
X196022364Y-90385062D01*
X196239177Y-90442324D01*
X196455558Y-90511769D01*
X196467592Y-90516011D01*
X196617633Y-90569157D01*
X196786325Y-90569157D01*
X196786958Y-90563289D01*
X196789510Y-90514408D01*
X196787042Y-90486212D01*
X196787009Y-90486109D01*
X196771773Y-90466713D01*
X196741248Y-90443784D01*
X196718273Y-90430690D01*
X196654589Y-90402144D01*
X196570802Y-90370201D01*
X196471743Y-90336320D01*
X196397978Y-90313171D01*
X195590160Y-90313171D01*
X195583895Y-90657510D01*
X195581328Y-90775449D01*
X195578158Y-90872406D01*
X195574093Y-90952802D01*
X195568839Y-91021052D01*
X195562104Y-91081576D01*
X195553595Y-91138790D01*
X195550954Y-91154250D01*
X195512044Y-91344619D01*
X195465619Y-91512443D01*
X195410918Y-91659664D01*
X195347175Y-91788224D01*
X195273629Y-91900064D01*
X195242282Y-91939381D01*
X195207705Y-91975229D01*
X195164876Y-92012196D01*
X195119816Y-92045894D01*
X195078545Y-92071937D01*
X195047083Y-92085936D01*
X195039473Y-92087179D01*
X195019165Y-92080706D01*
X194985221Y-92063179D01*
X194944699Y-92038275D01*
X194941463Y-92036126D01*
X194851612Y-91961499D01*
X194770605Y-91864208D01*
X194698837Y-91745543D01*
X194636702Y-91606794D01*
X194584596Y-91449251D01*
X194542914Y-91274203D01*
X194512051Y-91082941D01*
X194492401Y-90876753D01*
X194484360Y-90656930D01*
X194484776Y-90544650D01*
X194488750Y-90303350D01*
X194558600Y-90294606D01*
X194634476Y-90287218D01*
X194726176Y-90281689D01*
X194829485Y-90277971D01*
X194940189Y-90276019D01*
X195054074Y-90275784D01*
X195166924Y-90277222D01*
X195274524Y-90280285D01*
X195372660Y-90284928D01*
X195457118Y-90291102D01*
X195523681Y-90298763D01*
X195560155Y-90305661D01*
X195590160Y-90313171D01*
X196397978Y-90313171D01*
X196362241Y-90301956D01*
X196247125Y-90268569D01*
X196131225Y-90237614D01*
X196019370Y-90210550D01*
X195917500Y-90189046D01*
X195865575Y-90178845D01*
X195821429Y-90169745D01*
X195792413Y-90163278D01*
X195787325Y-90161957D01*
X195781148Y-90158642D01*
X195776229Y-90150881D01*
X195772426Y-90136054D01*
X195769597Y-90111543D01*
X195767600Y-90074731D01*
X195766294Y-90023000D01*
X195765537Y-89953731D01*
X195765186Y-89864305D01*
X195765101Y-89752106D01*
X195765100Y-89751756D01*
X195765040Y-89639660D01*
X195764807Y-89568695D01*
X195587300Y-89568695D01*
X195587300Y-90133225D01*
X195476175Y-90123037D01*
X195432757Y-90120255D01*
X195368786Y-90117763D01*
X195289109Y-90115669D01*
X195198572Y-90114082D01*
X195102021Y-90113110D01*
X195022150Y-90112850D01*
X194925194Y-90113203D01*
X194831127Y-90114200D01*
X194744601Y-90115739D01*
X194670262Y-90117724D01*
X194612761Y-90120055D01*
X194580825Y-90122213D01*
X194482400Y-90131576D01*
X194482400Y-89568695D01*
X194582542Y-89666147D01*
X194629453Y-89711130D01*
X194666508Y-89742094D01*
X194697905Y-89758482D01*
X194727837Y-89759738D01*
X194760501Y-89745305D01*
X194800092Y-89714626D01*
X194850806Y-89667146D01*
X194893926Y-89624839D01*
X195034850Y-89486079D01*
X195177568Y-89624839D01*
X195237224Y-89681730D01*
X195282360Y-89721958D01*
X195315609Y-89747597D01*
X195339600Y-89760719D01*
X195353651Y-89763600D01*
X195376282Y-89757583D01*
X195406861Y-89738057D01*
X195448424Y-89702805D01*
X195487159Y-89666147D01*
X195587300Y-89568695D01*
X195764807Y-89568695D01*
X195764745Y-89550140D01*
X195764046Y-89480372D01*
X195762773Y-89427534D01*
X195760756Y-89388803D01*
X195757824Y-89361353D01*
X195753809Y-89342363D01*
X195748539Y-89329008D01*
X195741846Y-89318465D01*
X195738779Y-89314462D01*
X195718577Y-89292926D01*
X195697772Y-89282281D01*
X195673421Y-89283833D01*
X195642581Y-89298892D01*
X195602309Y-89328763D01*
X195549663Y-89374755D01*
X195500672Y-89420251D01*
X195352780Y-89559503D01*
X195211640Y-89420251D01*
X195154258Y-89364559D01*
X195111113Y-89325157D01*
X195079205Y-89299682D01*
X195055533Y-89285771D01*
X195037097Y-89281060D01*
X195034851Y-89281000D01*
X195016806Y-89284684D01*
D10*
X174762000Y-96326000D02*
X174762000Y-95326000D01*
X175762000Y-95826000D02*
X174762000Y-95326000D01*
X174762000Y-96326000D02*
X175762000Y-95826000D01*
X174462000Y-98476000D02*
X174462000Y-98576000D01*
X174462000Y-98576000D02*
X172862000Y-100176000D01*
X172862000Y-100176000D02*
X167762000Y-100176000D01*
X167762000Y-91476000D02*
X172462000Y-91476000D01*
X165762000Y-98176000D02*
X165762000Y-93476000D01*
X174462000Y-98476000D02*
X174462000Y-93476000D01*
D14*
X190746000Y-130390000D02*
X189746000Y-130390000D01*
X189746000Y-128690000D02*
X190746000Y-128690000D01*
X143220500Y-102274000D02*
X144220500Y-102274000D01*
X144220500Y-103974000D02*
X143220500Y-103974000D01*
X187460000Y-102782000D02*
X188460000Y-102782000D01*
X188460000Y-104482000D02*
X187460000Y-104482000D01*
X181576000Y-94906000D02*
X181576000Y-100406000D01*
X183676000Y-94906000D02*
X183676000Y-100406000D01*
X181576000Y-94906000D02*
X183676000Y-94906000D01*
X181094000Y-83654000D02*
X180094000Y-83654000D01*
X180094000Y-81954000D02*
X181094000Y-81954000D01*
X150814000Y-133118000D02*
X149414000Y-133118000D01*
X149414000Y-133118000D02*
X149414000Y-130318000D01*
X150814000Y-133118000D02*
X150814000Y-130318000D01*
X152846000Y-133118000D02*
X151446000Y-133118000D01*
X151446000Y-133118000D02*
X151446000Y-130318000D01*
X152846000Y-133118000D02*
X152846000Y-130318000D01*
X164464000Y-100158000D02*
X161164000Y-100158000D01*
X161164000Y-100158000D02*
X161164000Y-93258000D01*
X164464000Y-100158000D02*
X164464000Y-93258000D01*
D11*
X172156000Y-132300000D02*
X172156000Y-137000000D01*
X172156000Y-137000000D02*
X165256000Y-137000000D01*
X165256000Y-137000000D02*
X165256000Y-132300000D01*
X165256000Y-132300000D02*
X172156000Y-132300000D01*
D14*
X171488000Y-58226000D02*
X172018000Y-58226000D01*
X172018000Y-58226000D02*
X172018000Y-53026000D01*
X172018000Y-53026000D02*
X171488000Y-53026000D01*
X164808000Y-58226000D02*
X164278000Y-58226000D01*
X164278000Y-58226000D02*
X164278000Y-53026000D01*
X164278000Y-53026000D02*
X164808000Y-53026000D01*
X171488000Y-59896000D02*
X171488000Y-58226000D01*
D16*
X176312000Y-95358000D02*
X178312000Y-95358000D01*
X178312000Y-95358000D02*
X178312000Y-96158000D01*
X178312000Y-96158000D02*
X176312000Y-96158000D01*
X176312000Y-96158000D02*
X176312000Y-95358000D01*
X178328000Y-96712000D02*
X176296000Y-96712000D01*
X176296000Y-94804000D02*
X178328000Y-94804000D01*
X178328000Y-96712000D02*
G75*
G02X177312000Y-97728000I-1016000J0D01*
G01*
X177312000Y-97728000D02*
G75*
G02X176296000Y-96712000I0J1016000D01*
G01*
X176296000Y-94804000D02*
G75*
G02X177312000Y-93788000I1016000J0D01*
G01*
X177312000Y-93788000D02*
G75*
G02X178328000Y-94804000I0J-1016000D01*
G01*
D14*
X147819500Y-104004000D02*
X149019500Y-104004000D01*
X149019500Y-102244000D02*
X147819500Y-102244000D01*
X156880000Y-133468000D02*
X158080000Y-133468000D01*
X158080000Y-131708000D02*
X156880000Y-131708000D01*
X156880000Y-131436000D02*
X158080000Y-131436000D01*
X158080000Y-129676000D02*
X156880000Y-129676000D01*
X174507000Y-129829000D02*
X174507000Y-131029000D01*
X176267000Y-131029000D02*
X176267000Y-129829000D01*
X146924000Y-90814000D02*
X145724000Y-90814000D01*
X145724000Y-92574000D02*
X146924000Y-92574000D01*
X181194000Y-71256000D02*
X179994000Y-71256000D01*
X179994000Y-73016000D02*
X181194000Y-73016000D01*
X153889500Y-81950000D02*
X153889500Y-83150000D01*
X155649500Y-83150000D02*
X155649500Y-81950000D01*
X151730500Y-81950000D02*
X151730500Y-83150000D01*
X153490500Y-83150000D02*
X153490500Y-81950000D01*
X183036000Y-70139000D02*
X183036000Y-71339000D01*
X184796000Y-71339000D02*
X184796000Y-70139000D01*
X157852000Y-83150000D02*
X157852000Y-81950000D01*
X156092000Y-81950000D02*
X156092000Y-83150000D01*
X156493000Y-75790500D02*
X156493000Y-76990500D01*
X158253000Y-76990500D02*
X158253000Y-75790500D01*
X181087000Y-79384000D02*
X179887000Y-79384000D01*
X179887000Y-81144000D02*
X181087000Y-81144000D01*
X152982000Y-71534000D02*
X155882000Y-71534000D01*
X152532000Y-71084000D02*
X152982000Y-71534000D01*
X151732000Y-67834000D02*
X151732000Y-69834000D01*
X152982000Y-66134000D02*
X152532000Y-66584000D01*
X155882000Y-66134000D02*
X152982000Y-66134000D01*
X156332000Y-66584000D02*
X155882000Y-66134000D01*
X157132000Y-69834000D02*
X157132000Y-67834000D01*
X155882000Y-71534000D02*
X156332000Y-71084000D01*
D11*
X181440000Y-133385000D02*
X181440000Y-133335000D01*
X185590000Y-133385000D02*
X185590000Y-133240000D01*
X185590000Y-128235000D02*
X185590000Y-128380000D01*
X181440000Y-128235000D02*
X181440000Y-128380000D01*
X181440000Y-133385000D02*
X185590000Y-133385000D01*
X181440000Y-128235000D02*
X185590000Y-128235000D01*
X181440000Y-133335000D02*
X180040000Y-133335000D01*
D14*
X190502000Y-97860000D02*
X190502000Y-96660000D01*
X190502000Y-96660000D02*
X187802000Y-96660000D01*
X186502000Y-101460000D02*
X190502000Y-101460000D01*
X190502000Y-101460000D02*
X190502000Y-100260000D01*
X146537000Y-97144000D02*
X146537000Y-98944000D01*
X143317000Y-98944000D02*
X143317000Y-95994000D01*
D17*
X176022000Y-83947000D02*
X176022000Y-84709000D01*
X176022000Y-84709000D02*
X160020000Y-84709000D01*
X160020000Y-84709000D02*
X160020000Y-83947000D01*
D11*
X150362000Y-99480000D02*
X150262000Y-99480000D01*
X150362000Y-94830000D02*
X150162000Y-94830000D01*
X147112000Y-94830000D02*
X147312000Y-94830000D01*
X147112000Y-99480000D02*
X147312000Y-99480000D01*
X150362000Y-99480000D02*
X150362000Y-94830000D01*
X147112000Y-99480000D02*
X147112000Y-94830000D01*
X150262000Y-99480000D02*
X150262000Y-100830000D01*
D14*
X182019000Y-66460000D02*
X183019000Y-66460000D01*
X183019000Y-68160000D02*
X182019000Y-68160000D01*
X181325000Y-68542000D02*
X181325000Y-70142000D01*
X181325000Y-70142000D02*
X178725000Y-70142000D01*
X181325000Y-68542000D02*
X178725000Y-68542000D01*
X186494000Y-70307000D02*
X184894000Y-70307000D01*
X184894000Y-70307000D02*
X184894000Y-67707000D01*
X186494000Y-70307000D02*
X186494000Y-67707000D01*
X181305000Y-76579000D02*
X180375000Y-76579000D01*
X178145000Y-76579000D02*
X179075000Y-76579000D01*
X178145000Y-76579000D02*
X178145000Y-73419000D01*
X181305000Y-76579000D02*
X181305000Y-75119000D01*
X159568000Y-97534000D02*
X158638000Y-97534000D01*
X156408000Y-97534000D02*
X157338000Y-97534000D01*
X156408000Y-97534000D02*
X156408000Y-94374000D01*
X159568000Y-97534000D02*
X159568000Y-96074000D01*
X179506000Y-66031000D02*
X180706000Y-66031000D01*
X180706000Y-64271000D02*
X179506000Y-64271000D01*
D11*
X168822666Y-128528143D02*
X168870285Y-128575762D01*
X169013142Y-128623381D01*
X169108380Y-128623381D01*
X169251238Y-128575762D01*
X169346476Y-128480524D01*
X169394095Y-128385286D01*
X169441714Y-128194810D01*
X169441714Y-128051952D01*
X169394095Y-127861476D01*
X169346476Y-127766238D01*
X169251238Y-127671000D01*
X169108380Y-127623381D01*
X169013142Y-127623381D01*
X168870285Y-127671000D01*
X168822666Y-127718619D01*
X167870285Y-128623381D02*
X168441714Y-128623381D01*
X168156000Y-128623381D02*
X168156000Y-127623381D01*
X168251238Y-127766238D01*
X168346476Y-127861476D01*
X168441714Y-127909095D01*
X199116214Y-105021071D02*
X198973357Y-105068690D01*
X198925738Y-105116310D01*
X198878119Y-105211548D01*
X198878119Y-105354405D01*
X198925738Y-105449643D01*
X198973357Y-105497262D01*
X199068595Y-105544881D01*
X199449548Y-105544881D01*
X199449548Y-104544881D01*
X199116214Y-104544881D01*
X199020976Y-104592500D01*
X198973357Y-104640119D01*
X198925738Y-104735357D01*
X198925738Y-104830595D01*
X198973357Y-104925833D01*
X199020976Y-104973452D01*
X199116214Y-105021071D01*
X199449548Y-105021071D01*
X198592405Y-104544881D02*
X198020976Y-104544881D01*
X198306691Y-105544881D02*
X198306691Y-104544881D01*
X197163833Y-105544881D02*
X197735262Y-105544881D01*
X197449548Y-105544881D02*
X197449548Y-104544881D01*
X197544786Y-104687738D01*
X197640024Y-104782976D01*
X197735262Y-104830595D01*
X170699952Y-101020571D02*
X170557095Y-101068190D01*
X170509476Y-101115810D01*
X170461857Y-101211048D01*
X170461857Y-101353905D01*
X170509476Y-101449143D01*
X170557095Y-101496762D01*
X170652333Y-101544381D01*
X171033286Y-101544381D01*
X171033286Y-100544381D01*
X170699952Y-100544381D01*
X170604714Y-100592000D01*
X170557095Y-100639619D01*
X170509476Y-100734857D01*
X170509476Y-100830095D01*
X170557095Y-100925333D01*
X170604714Y-100972952D01*
X170699952Y-101020571D01*
X171033286Y-101020571D01*
X170128524Y-100544381D02*
X169461857Y-100544381D01*
X170128524Y-101544381D01*
X169461857Y-101544381D01*
X168557095Y-101544381D02*
X169128524Y-101544381D01*
X168842810Y-101544381D02*
X168842810Y-100544381D01*
X168938048Y-100687238D01*
X169033286Y-100782476D01*
X169128524Y-100830095D01*
X190412666Y-131647143D02*
X190460285Y-131694762D01*
X190603142Y-131742381D01*
X190698380Y-131742381D01*
X190841238Y-131694762D01*
X190936476Y-131599524D01*
X190984095Y-131504286D01*
X191031714Y-131313810D01*
X191031714Y-131170952D01*
X190984095Y-130980476D01*
X190936476Y-130885238D01*
X190841238Y-130790000D01*
X190698380Y-130742381D01*
X190603142Y-130742381D01*
X190460285Y-130790000D01*
X190412666Y-130837619D01*
X190031714Y-130837619D02*
X189984095Y-130790000D01*
X189888857Y-130742381D01*
X189650761Y-130742381D01*
X189555523Y-130790000D01*
X189507904Y-130837619D01*
X189460285Y-130932857D01*
X189460285Y-131028095D01*
X189507904Y-131170952D01*
X190079333Y-131742381D01*
X189460285Y-131742381D01*
X143887166Y-105068643D02*
X143934785Y-105116262D01*
X144077642Y-105163881D01*
X144172880Y-105163881D01*
X144315738Y-105116262D01*
X144410976Y-105021024D01*
X144458595Y-104925786D01*
X144506214Y-104735310D01*
X144506214Y-104592452D01*
X144458595Y-104401976D01*
X144410976Y-104306738D01*
X144315738Y-104211500D01*
X144172880Y-104163881D01*
X144077642Y-104163881D01*
X143934785Y-104211500D01*
X143887166Y-104259119D01*
X143553833Y-104163881D02*
X142934785Y-104163881D01*
X143268119Y-104544833D01*
X143125261Y-104544833D01*
X143030023Y-104592452D01*
X142982404Y-104640071D01*
X142934785Y-104735310D01*
X142934785Y-104973405D01*
X142982404Y-105068643D01*
X143030023Y-105116262D01*
X143125261Y-105163881D01*
X143410976Y-105163881D01*
X143506214Y-105116262D01*
X143553833Y-105068643D01*
X191448666Y-103925643D02*
X191496285Y-103973262D01*
X191639142Y-104020881D01*
X191734380Y-104020881D01*
X191877238Y-103973262D01*
X191972476Y-103878024D01*
X192020095Y-103782786D01*
X192067714Y-103592310D01*
X192067714Y-103449452D01*
X192020095Y-103258976D01*
X191972476Y-103163738D01*
X191877238Y-103068500D01*
X191734380Y-103020881D01*
X191639142Y-103020881D01*
X191496285Y-103068500D01*
X191448666Y-103116119D01*
X190591523Y-103354214D02*
X190591523Y-104020881D01*
X190829619Y-102973262D02*
X191067714Y-103687548D01*
X190448666Y-103687548D01*
X181225143Y-98575834D02*
X181272762Y-98528215D01*
X181320381Y-98385358D01*
X181320381Y-98290120D01*
X181272762Y-98147262D01*
X181177524Y-98052024D01*
X181082286Y-98004405D01*
X180891810Y-97956786D01*
X180748952Y-97956786D01*
X180558476Y-98004405D01*
X180463238Y-98052024D01*
X180368000Y-98147262D01*
X180320381Y-98290120D01*
X180320381Y-98385358D01*
X180368000Y-98528215D01*
X180415619Y-98575834D01*
X180320381Y-99480596D02*
X180320381Y-99004405D01*
X180796571Y-98956786D01*
X180748952Y-99004405D01*
X180701333Y-99099643D01*
X180701333Y-99337739D01*
X180748952Y-99432977D01*
X180796571Y-99480596D01*
X180891810Y-99528215D01*
X181129905Y-99528215D01*
X181225143Y-99480596D01*
X181272762Y-99432977D01*
X181320381Y-99337739D01*
X181320381Y-99099643D01*
X181272762Y-99004405D01*
X181225143Y-98956786D01*
X184209666Y-83161143D02*
X184257285Y-83208762D01*
X184400142Y-83256381D01*
X184495380Y-83256381D01*
X184638238Y-83208762D01*
X184733476Y-83113524D01*
X184781095Y-83018286D01*
X184828714Y-82827810D01*
X184828714Y-82684952D01*
X184781095Y-82494476D01*
X184733476Y-82399238D01*
X184638238Y-82304000D01*
X184495380Y-82256381D01*
X184400142Y-82256381D01*
X184257285Y-82304000D01*
X184209666Y-82351619D01*
X183352523Y-82256381D02*
X183543000Y-82256381D01*
X183638238Y-82304000D01*
X183685857Y-82351619D01*
X183781095Y-82494476D01*
X183828714Y-82684952D01*
X183828714Y-83065905D01*
X183781095Y-83161143D01*
X183733476Y-83208762D01*
X183638238Y-83256381D01*
X183447761Y-83256381D01*
X183352523Y-83208762D01*
X183304904Y-83161143D01*
X183257285Y-83065905D01*
X183257285Y-82827810D01*
X183304904Y-82732571D01*
X183352523Y-82684952D01*
X183447761Y-82637333D01*
X183638238Y-82637333D01*
X183733476Y-82684952D01*
X183781095Y-82732571D01*
X183828714Y-82827810D01*
X149125881Y-130516405D02*
X148125881Y-130516405D01*
X148125881Y-130754500D01*
X148173500Y-130897358D01*
X148268738Y-130992596D01*
X148363976Y-131040215D01*
X148554452Y-131087834D01*
X148697310Y-131087834D01*
X148887786Y-131040215D01*
X148983024Y-130992596D01*
X149078262Y-130897358D01*
X149125881Y-130754500D01*
X149125881Y-130516405D01*
X149125881Y-132040215D02*
X149125881Y-131468786D01*
X149125881Y-131754500D02*
X148125881Y-131754500D01*
X148268738Y-131659262D01*
X148363976Y-131564024D01*
X148411595Y-131468786D01*
X154048381Y-130579905D02*
X153048381Y-130579905D01*
X153048381Y-130818000D01*
X153096000Y-130960858D01*
X153191238Y-131056096D01*
X153286476Y-131103715D01*
X153476952Y-131151334D01*
X153619810Y-131151334D01*
X153810286Y-131103715D01*
X153905524Y-131056096D01*
X154000762Y-130960858D01*
X154048381Y-130818000D01*
X154048381Y-130579905D01*
X153143619Y-131532286D02*
X153096000Y-131579905D01*
X153048381Y-131675143D01*
X153048381Y-131913239D01*
X153096000Y-132008477D01*
X153143619Y-132056096D01*
X153238857Y-132103715D01*
X153334095Y-132103715D01*
X153476952Y-132056096D01*
X154048381Y-131484667D01*
X154048381Y-132103715D01*
X163572095Y-101544381D02*
X163572095Y-100544381D01*
X163334000Y-100544381D01*
X163191142Y-100592000D01*
X163095904Y-100687238D01*
X163048285Y-100782476D01*
X163000666Y-100972952D01*
X163000666Y-101115810D01*
X163048285Y-101306286D01*
X163095904Y-101401524D01*
X163191142Y-101496762D01*
X163334000Y-101544381D01*
X163572095Y-101544381D01*
X162667333Y-100544381D02*
X162048285Y-100544381D01*
X162381619Y-100925333D01*
X162238761Y-100925333D01*
X162143523Y-100972952D01*
X162095904Y-101020571D01*
X162048285Y-101115810D01*
X162048285Y-101353905D01*
X162095904Y-101449143D01*
X162143523Y-101496762D01*
X162238761Y-101544381D01*
X162524476Y-101544381D01*
X162619714Y-101496762D01*
X162667333Y-101449143D01*
X164627833Y-131341881D02*
X164627833Y-132056167D01*
X164675453Y-132199024D01*
X164770691Y-132294262D01*
X164913548Y-132341881D01*
X165008786Y-132341881D01*
X163627833Y-132341881D02*
X164199262Y-132341881D01*
X163913548Y-132341881D02*
X163913548Y-131341881D01*
X164008786Y-131484738D01*
X164104024Y-131579976D01*
X164199262Y-131627595D01*
X172470381Y-55292667D02*
X173184667Y-55292667D01*
X173327524Y-55245047D01*
X173422762Y-55149809D01*
X173470381Y-55006952D01*
X173470381Y-54911714D01*
X172565619Y-55721238D02*
X172518000Y-55768857D01*
X172470381Y-55864095D01*
X172470381Y-56102191D01*
X172518000Y-56197429D01*
X172565619Y-56245048D01*
X172660857Y-56292667D01*
X172756095Y-56292667D01*
X172898952Y-56245048D01*
X173470381Y-55673619D01*
X173470381Y-56292667D01*
D17*
X178799714Y-95123001D02*
X179344000Y-95123001D01*
X179452857Y-95086715D01*
X179525429Y-95014144D01*
X179561714Y-94905287D01*
X179561714Y-94832715D01*
X179561714Y-95485858D02*
X178799714Y-95485858D01*
X178799714Y-95776143D01*
X178836000Y-95848715D01*
X178872286Y-95885000D01*
X178944857Y-95921286D01*
X179053714Y-95921286D01*
X179126286Y-95885000D01*
X179162571Y-95848715D01*
X179198857Y-95776143D01*
X179198857Y-95485858D01*
X179561714Y-96647000D02*
X179561714Y-96211572D01*
X179561714Y-96429286D02*
X178799714Y-96429286D01*
X178908571Y-96356715D01*
X178981143Y-96284143D01*
X179017429Y-96211572D01*
D11*
X148649666Y-105227381D02*
X148983000Y-104751190D01*
X149221095Y-105227381D02*
X149221095Y-104227381D01*
X148840142Y-104227381D01*
X148744904Y-104275000D01*
X148697285Y-104322619D01*
X148649666Y-104417857D01*
X148649666Y-104560714D01*
X148697285Y-104655952D01*
X148744904Y-104703571D01*
X148840142Y-104751190D01*
X149221095Y-104751190D01*
X147697285Y-105227381D02*
X148268714Y-105227381D01*
X147983000Y-105227381D02*
X147983000Y-104227381D01*
X148078238Y-104370238D01*
X148173476Y-104465476D01*
X148268714Y-104513095D01*
X161032166Y-133103881D02*
X161365500Y-132627690D01*
X161603595Y-133103881D02*
X161603595Y-132103881D01*
X161222642Y-132103881D01*
X161127404Y-132151500D01*
X161079785Y-132199119D01*
X161032166Y-132294357D01*
X161032166Y-132437214D01*
X161079785Y-132532452D01*
X161127404Y-132580071D01*
X161222642Y-132627690D01*
X161603595Y-132627690D01*
X160651214Y-132199119D02*
X160603595Y-132151500D01*
X160508357Y-132103881D01*
X160270261Y-132103881D01*
X160175023Y-132151500D01*
X160127404Y-132199119D01*
X160079785Y-132294357D01*
X160079785Y-132389595D01*
X160127404Y-132532452D01*
X160698833Y-133103881D01*
X160079785Y-133103881D01*
X160968666Y-131008381D02*
X161302000Y-130532190D01*
X161540095Y-131008381D02*
X161540095Y-130008381D01*
X161159142Y-130008381D01*
X161063904Y-130056000D01*
X161016285Y-130103619D01*
X160968666Y-130198857D01*
X160968666Y-130341714D01*
X161016285Y-130436952D01*
X161063904Y-130484571D01*
X161159142Y-130532190D01*
X161540095Y-130532190D01*
X160635333Y-130008381D02*
X160016285Y-130008381D01*
X160349619Y-130389333D01*
X160206761Y-130389333D01*
X160111523Y-130436952D01*
X160063904Y-130484571D01*
X160016285Y-130579810D01*
X160016285Y-130817905D01*
X160063904Y-130913143D01*
X160111523Y-130960762D01*
X160206761Y-131008381D01*
X160492476Y-131008381D01*
X160587714Y-130960762D01*
X160635333Y-130913143D01*
X177539381Y-130262334D02*
X177063190Y-129929000D01*
X177539381Y-129690905D02*
X176539381Y-129690905D01*
X176539381Y-130071858D01*
X176587000Y-130167096D01*
X176634619Y-130214715D01*
X176729857Y-130262334D01*
X176872714Y-130262334D01*
X176967952Y-130214715D01*
X177015571Y-130167096D01*
X177063190Y-130071858D01*
X177063190Y-129690905D01*
X176872714Y-131119477D02*
X177539381Y-131119477D01*
X176491762Y-130881381D02*
X177206048Y-130643286D01*
X177206048Y-131262334D01*
X146490666Y-90558881D02*
X146824000Y-90082690D01*
X147062095Y-90558881D02*
X147062095Y-89558881D01*
X146681142Y-89558881D01*
X146585904Y-89606500D01*
X146538285Y-89654119D01*
X146490666Y-89749357D01*
X146490666Y-89892214D01*
X146538285Y-89987452D01*
X146585904Y-90035071D01*
X146681142Y-90082690D01*
X147062095Y-90082690D01*
X145585904Y-89558881D02*
X146062095Y-89558881D01*
X146109714Y-90035071D01*
X146062095Y-89987452D01*
X145966857Y-89939833D01*
X145728761Y-89939833D01*
X145633523Y-89987452D01*
X145585904Y-90035071D01*
X145538285Y-90130310D01*
X145538285Y-90368405D01*
X145585904Y-90463643D01*
X145633523Y-90511262D01*
X145728761Y-90558881D01*
X145966857Y-90558881D01*
X146062095Y-90511262D01*
X146109714Y-90463643D01*
X180620333Y-71100905D02*
X180887000Y-70719952D01*
X181077476Y-71100905D02*
X181077476Y-70300905D01*
X180772714Y-70300905D01*
X180696523Y-70339000D01*
X180658428Y-70377095D01*
X180620333Y-70453286D01*
X180620333Y-70567571D01*
X180658428Y-70643762D01*
X180696523Y-70681857D01*
X180772714Y-70719952D01*
X181077476Y-70719952D01*
X179934619Y-70300905D02*
X180087000Y-70300905D01*
X180163190Y-70339000D01*
X180201285Y-70377095D01*
X180277476Y-70491381D01*
X180315571Y-70643762D01*
X180315571Y-70948524D01*
X180277476Y-71024714D01*
X180239381Y-71062810D01*
X180163190Y-71100905D01*
X180010809Y-71100905D01*
X179934619Y-71062810D01*
X179896523Y-71024714D01*
X179858428Y-70948524D01*
X179858428Y-70758048D01*
X179896523Y-70681857D01*
X179934619Y-70643762D01*
X180010809Y-70605667D01*
X180163190Y-70605667D01*
X180239381Y-70643762D01*
X180277476Y-70681857D01*
X180315571Y-70758048D01*
X155285381Y-85875834D02*
X154809190Y-85542500D01*
X155285381Y-85304405D02*
X154285381Y-85304405D01*
X154285381Y-85685358D01*
X154333000Y-85780596D01*
X154380619Y-85828215D01*
X154475857Y-85875834D01*
X154618714Y-85875834D01*
X154713952Y-85828215D01*
X154761571Y-85780596D01*
X154809190Y-85685358D01*
X154809190Y-85304405D01*
X154285381Y-86209167D02*
X154285381Y-86875834D01*
X155285381Y-86447262D01*
X153189881Y-85875834D02*
X152713690Y-85542500D01*
X153189881Y-85304405D02*
X152189881Y-85304405D01*
X152189881Y-85685358D01*
X152237500Y-85780596D01*
X152285119Y-85828215D01*
X152380357Y-85875834D01*
X152523214Y-85875834D01*
X152618452Y-85828215D01*
X152666071Y-85780596D01*
X152713690Y-85685358D01*
X152713690Y-85304405D01*
X152618452Y-86447262D02*
X152570833Y-86352024D01*
X152523214Y-86304405D01*
X152427976Y-86256786D01*
X152380357Y-86256786D01*
X152285119Y-86304405D01*
X152237500Y-86352024D01*
X152189881Y-86447262D01*
X152189881Y-86637739D01*
X152237500Y-86732977D01*
X152285119Y-86780596D01*
X152380357Y-86828215D01*
X152427976Y-86828215D01*
X152523214Y-86780596D01*
X152570833Y-86732977D01*
X152618452Y-86637739D01*
X152618452Y-86447262D01*
X152666071Y-86352024D01*
X152713690Y-86304405D01*
X152808929Y-86256786D01*
X152999405Y-86256786D01*
X153094643Y-86304405D01*
X153142262Y-86352024D01*
X153189881Y-86447262D01*
X153189881Y-86637739D01*
X153142262Y-86732977D01*
X153094643Y-86780596D01*
X152999405Y-86828215D01*
X152808929Y-86828215D01*
X152713690Y-86780596D01*
X152666071Y-86732977D01*
X152618452Y-86637739D01*
X185674905Y-71367667D02*
X185293952Y-71101000D01*
X185674905Y-70910524D02*
X184874905Y-70910524D01*
X184874905Y-71215286D01*
X184913000Y-71291477D01*
X184951095Y-71329572D01*
X185027286Y-71367667D01*
X185141571Y-71367667D01*
X185217762Y-71329572D01*
X185255857Y-71291477D01*
X185293952Y-71215286D01*
X185293952Y-70910524D01*
X185674905Y-71748619D02*
X185674905Y-71901000D01*
X185636810Y-71977191D01*
X185598714Y-72015286D01*
X185484429Y-72091477D01*
X185332048Y-72129572D01*
X185027286Y-72129572D01*
X184951095Y-72091477D01*
X184913000Y-72053381D01*
X184874905Y-71977191D01*
X184874905Y-71824810D01*
X184913000Y-71748619D01*
X184951095Y-71710524D01*
X185027286Y-71672429D01*
X185217762Y-71672429D01*
X185293952Y-71710524D01*
X185332048Y-71748619D01*
X185370143Y-71824810D01*
X185370143Y-71977191D01*
X185332048Y-72053381D01*
X185293952Y-72091477D01*
X185217762Y-72129572D01*
X157571381Y-85844143D02*
X157095190Y-85510809D01*
X157571381Y-85272714D02*
X156571381Y-85272714D01*
X156571381Y-85653667D01*
X156619000Y-85748905D01*
X156666619Y-85796524D01*
X156761857Y-85844143D01*
X156904714Y-85844143D01*
X156999952Y-85796524D01*
X157047571Y-85748905D01*
X157095190Y-85653667D01*
X157095190Y-85272714D01*
X157571381Y-86796524D02*
X157571381Y-86225095D01*
X157571381Y-86510809D02*
X156571381Y-86510809D01*
X156714238Y-86415571D01*
X156809476Y-86320333D01*
X156857095Y-86225095D01*
X156571381Y-87415571D02*
X156571381Y-87510810D01*
X156619000Y-87606048D01*
X156666619Y-87653667D01*
X156761857Y-87701286D01*
X156952333Y-87748905D01*
X157190429Y-87748905D01*
X157380905Y-87701286D01*
X157476143Y-87653667D01*
X157523762Y-87606048D01*
X157571381Y-87510810D01*
X157571381Y-87415571D01*
X157523762Y-87320333D01*
X157476143Y-87272714D01*
X157380905Y-87225095D01*
X157190429Y-87177476D01*
X156952333Y-87177476D01*
X156761857Y-87225095D01*
X156666619Y-87272714D01*
X156619000Y-87320333D01*
X156571381Y-87415571D01*
X156237881Y-75557143D02*
X155761690Y-75223809D01*
X156237881Y-74985714D02*
X155237881Y-74985714D01*
X155237881Y-75366667D01*
X155285500Y-75461905D01*
X155333119Y-75509524D01*
X155428357Y-75557143D01*
X155571214Y-75557143D01*
X155666452Y-75509524D01*
X155714071Y-75461905D01*
X155761690Y-75366667D01*
X155761690Y-74985714D01*
X156237881Y-76509524D02*
X156237881Y-75938095D01*
X156237881Y-76223809D02*
X155237881Y-76223809D01*
X155380738Y-76128571D01*
X155475976Y-76033333D01*
X155523595Y-75938095D01*
X156237881Y-77461905D02*
X156237881Y-76890476D01*
X156237881Y-77176190D02*
X155237881Y-77176190D01*
X155380738Y-77080952D01*
X155475976Y-76985714D01*
X155523595Y-76890476D01*
X184939857Y-80843381D02*
X185273191Y-80367190D01*
X185511286Y-80843381D02*
X185511286Y-79843381D01*
X185130333Y-79843381D01*
X185035095Y-79891000D01*
X184987476Y-79938619D01*
X184939857Y-80033857D01*
X184939857Y-80176714D01*
X184987476Y-80271952D01*
X185035095Y-80319571D01*
X185130333Y-80367190D01*
X185511286Y-80367190D01*
X183987476Y-80843381D02*
X184558905Y-80843381D01*
X184273191Y-80843381D02*
X184273191Y-79843381D01*
X184368429Y-79986238D01*
X184463667Y-80081476D01*
X184558905Y-80129095D01*
X183654143Y-79843381D02*
X183035095Y-79843381D01*
X183368429Y-80224333D01*
X183225571Y-80224333D01*
X183130333Y-80271952D01*
X183082714Y-80319571D01*
X183035095Y-80414810D01*
X183035095Y-80652905D01*
X183082714Y-80748143D01*
X183130333Y-80795762D01*
X183225571Y-80843381D01*
X183511286Y-80843381D01*
X183606524Y-80795762D01*
X183654143Y-80748143D01*
X155765333Y-72838762D02*
X155622476Y-72886381D01*
X155384380Y-72886381D01*
X155289142Y-72838762D01*
X155241523Y-72791143D01*
X155193904Y-72695905D01*
X155193904Y-72600667D01*
X155241523Y-72505429D01*
X155289142Y-72457810D01*
X155384380Y-72410190D01*
X155574857Y-72362571D01*
X155670095Y-72314952D01*
X155717714Y-72267333D01*
X155765333Y-72172095D01*
X155765333Y-72076857D01*
X155717714Y-71981619D01*
X155670095Y-71934000D01*
X155574857Y-71886381D01*
X155336761Y-71886381D01*
X155193904Y-71934000D01*
X154860571Y-71886381D02*
X154622476Y-72886381D01*
X154431999Y-72172095D01*
X154241523Y-72886381D01*
X154003428Y-71886381D01*
X153098666Y-72886381D02*
X153670095Y-72886381D01*
X153384381Y-72886381D02*
X153384381Y-71886381D01*
X153479619Y-72029238D01*
X153574857Y-72124476D01*
X153670095Y-72172095D01*
X179534333Y-134326381D02*
X179201000Y-135326381D01*
X178867666Y-134326381D01*
X177962904Y-135231143D02*
X178010523Y-135278762D01*
X178153380Y-135326381D01*
X178248618Y-135326381D01*
X178391476Y-135278762D01*
X178486714Y-135183524D01*
X178534333Y-135088286D01*
X178581952Y-134897810D01*
X178581952Y-134754952D01*
X178534333Y-134564476D01*
X178486714Y-134469238D01*
X178391476Y-134374000D01*
X178248618Y-134326381D01*
X178153380Y-134326381D01*
X178010523Y-134374000D01*
X177962904Y-134421619D01*
X176962904Y-135231143D02*
X177010523Y-135278762D01*
X177153380Y-135326381D01*
X177248618Y-135326381D01*
X177391476Y-135278762D01*
X177486714Y-135183524D01*
X177534333Y-135088286D01*
X177581952Y-134897810D01*
X177581952Y-134754952D01*
X177534333Y-134564476D01*
X177486714Y-134469238D01*
X177391476Y-134374000D01*
X177248618Y-134326381D01*
X177153380Y-134326381D01*
X177010523Y-134374000D01*
X176962904Y-134421619D01*
X200132142Y-128071571D02*
X199989285Y-128119190D01*
X199941666Y-128166810D01*
X199894047Y-128262048D01*
X199894047Y-128404905D01*
X199941666Y-128500143D01*
X199989285Y-128547762D01*
X200084523Y-128595381D01*
X200465476Y-128595381D01*
X200465476Y-127595381D01*
X200132142Y-127595381D01*
X200036904Y-127643000D01*
X199989285Y-127690619D01*
X199941666Y-127785857D01*
X199941666Y-127881095D01*
X199989285Y-127976333D01*
X200036904Y-128023952D01*
X200132142Y-128071571D01*
X200465476Y-128071571D01*
X199513095Y-128309667D02*
X199036904Y-128309667D01*
X199608333Y-128595381D02*
X199275000Y-127595381D01*
X198941666Y-128595381D01*
X198751190Y-127595381D02*
X198179761Y-127595381D01*
X198465476Y-128595381D02*
X198465476Y-127595381D01*
X197846428Y-128214429D02*
X197084523Y-128214429D01*
X197465475Y-128595381D02*
X197465475Y-127833476D01*
X187598904Y-86844500D02*
X187694142Y-86796881D01*
X187836999Y-86796881D01*
X187979857Y-86844500D01*
X188075095Y-86939738D01*
X188122714Y-87034976D01*
X188170333Y-87225452D01*
X188170333Y-87368310D01*
X188122714Y-87558786D01*
X188075095Y-87654024D01*
X187979857Y-87749262D01*
X187836999Y-87796881D01*
X187741761Y-87796881D01*
X187598904Y-87749262D01*
X187551285Y-87701643D01*
X187551285Y-87368310D01*
X187741761Y-87368310D01*
X187122714Y-87796881D02*
X187122714Y-86796881D01*
X186551285Y-87796881D01*
X186551285Y-86796881D01*
X186075095Y-87796881D02*
X186075095Y-86796881D01*
X185837000Y-86796881D01*
X185694142Y-86844500D01*
X185598904Y-86939738D01*
X185551285Y-87034976D01*
X185503666Y-87225452D01*
X185503666Y-87368310D01*
X185551285Y-87558786D01*
X185598904Y-87654024D01*
X185694142Y-87749262D01*
X185837000Y-87796881D01*
X186075095Y-87796881D01*
X139172142Y-128198571D02*
X139029285Y-128246190D01*
X138981666Y-128293810D01*
X138934047Y-128389048D01*
X138934047Y-128531905D01*
X138981666Y-128627143D01*
X139029285Y-128674762D01*
X139124523Y-128722381D01*
X139505476Y-128722381D01*
X139505476Y-127722381D01*
X139172142Y-127722381D01*
X139076904Y-127770000D01*
X139029285Y-127817619D01*
X138981666Y-127912857D01*
X138981666Y-128008095D01*
X139029285Y-128103333D01*
X139076904Y-128150952D01*
X139172142Y-128198571D01*
X139505476Y-128198571D01*
X138553095Y-128436667D02*
X138076904Y-128436667D01*
X138648333Y-128722381D02*
X138315000Y-127722381D01*
X137981666Y-128722381D01*
X137791190Y-127722381D02*
X137219761Y-127722381D01*
X137505476Y-128722381D02*
X137505476Y-127722381D01*
X136886428Y-128341429D02*
X136124523Y-128341429D01*
X184233405Y-133627881D02*
X184233405Y-134437405D01*
X184185786Y-134532643D01*
X184138167Y-134580262D01*
X184042929Y-134627881D01*
X183852452Y-134627881D01*
X183757214Y-134580262D01*
X183709595Y-134532643D01*
X183661976Y-134437405D01*
X183661976Y-133627881D01*
X182661976Y-134627881D02*
X183233405Y-134627881D01*
X182947691Y-134627881D02*
X182947691Y-133627881D01*
X183042929Y-133770738D01*
X183138167Y-133865976D01*
X183233405Y-133913595D01*
X192805905Y-100544381D02*
X192805905Y-101353905D01*
X192758286Y-101449143D01*
X192710667Y-101496762D01*
X192615429Y-101544381D01*
X192424952Y-101544381D01*
X192329714Y-101496762D01*
X192282095Y-101449143D01*
X192234476Y-101353905D01*
X192234476Y-100544381D01*
X191805905Y-100639619D02*
X191758286Y-100592000D01*
X191663048Y-100544381D01*
X191424952Y-100544381D01*
X191329714Y-100592000D01*
X191282095Y-100639619D01*
X191234476Y-100734857D01*
X191234476Y-100830095D01*
X191282095Y-100972952D01*
X191853524Y-101544381D01*
X191234476Y-101544381D01*
X141839381Y-97282095D02*
X142648905Y-97282095D01*
X142744143Y-97329714D01*
X142791762Y-97377333D01*
X142839381Y-97472571D01*
X142839381Y-97663048D01*
X142791762Y-97758286D01*
X142744143Y-97805905D01*
X142648905Y-97853524D01*
X141839381Y-97853524D01*
X141839381Y-98234476D02*
X141839381Y-98853524D01*
X142220333Y-98520190D01*
X142220333Y-98663048D01*
X142267952Y-98758286D01*
X142315571Y-98805905D01*
X142410810Y-98853524D01*
X142648905Y-98853524D01*
X142744143Y-98805905D01*
X142791762Y-98758286D01*
X142839381Y-98663048D01*
X142839381Y-98377333D01*
X142791762Y-98282095D01*
X142744143Y-98234476D01*
X161436905Y-85367881D02*
X161436905Y-86177405D01*
X161389286Y-86272643D01*
X161341667Y-86320262D01*
X161246429Y-86367881D01*
X161055952Y-86367881D01*
X160960714Y-86320262D01*
X160913095Y-86272643D01*
X160865476Y-86177405D01*
X160865476Y-85367881D01*
X159960714Y-85701214D02*
X159960714Y-86367881D01*
X160198810Y-85320262D02*
X160436905Y-86034548D01*
X159817857Y-86034548D01*
X185134095Y-86860381D02*
X184515047Y-86860381D01*
X184848381Y-87241333D01*
X184705523Y-87241333D01*
X184610285Y-87288952D01*
X184562666Y-87336571D01*
X184515047Y-87431810D01*
X184515047Y-87669905D01*
X184562666Y-87765143D01*
X184610285Y-87812762D01*
X184705523Y-87860381D01*
X184991238Y-87860381D01*
X185086476Y-87812762D01*
X185134095Y-87765143D01*
X184229333Y-86860381D02*
X183896000Y-87860381D01*
X183562666Y-86860381D01*
X183324571Y-86860381D02*
X182705523Y-86860381D01*
X183038857Y-87241333D01*
X182895999Y-87241333D01*
X182800761Y-87288952D01*
X182753142Y-87336571D01*
X182705523Y-87431810D01*
X182705523Y-87669905D01*
X182753142Y-87765143D01*
X182800761Y-87812762D01*
X182895999Y-87860381D01*
X183181714Y-87860381D01*
X183276952Y-87812762D01*
X183324571Y-87765143D01*
X160039904Y-134374000D02*
X160135142Y-134326381D01*
X160277999Y-134326381D01*
X160420857Y-134374000D01*
X160516095Y-134469238D01*
X160563714Y-134564476D01*
X160611333Y-134754952D01*
X160611333Y-134897810D01*
X160563714Y-135088286D01*
X160516095Y-135183524D01*
X160420857Y-135278762D01*
X160277999Y-135326381D01*
X160182761Y-135326381D01*
X160039904Y-135278762D01*
X159992285Y-135231143D01*
X159992285Y-134897810D01*
X160182761Y-134897810D01*
X159563714Y-135326381D02*
X159563714Y-134326381D01*
X158992285Y-135326381D01*
X158992285Y-134326381D01*
X158516095Y-135326381D02*
X158516095Y-134326381D01*
X158278000Y-134326381D01*
X158135142Y-134374000D01*
X158039904Y-134469238D01*
X157992285Y-134564476D01*
X157944666Y-134754952D01*
X157944666Y-134897810D01*
X157992285Y-135088286D01*
X158039904Y-135183524D01*
X158135142Y-135278762D01*
X158278000Y-135326381D01*
X158516095Y-135326381D01*
X151834619Y-97059762D02*
X151787000Y-96964524D01*
X151691762Y-96869286D01*
X151548905Y-96726429D01*
X151501286Y-96631190D01*
X151501286Y-96535952D01*
X151739381Y-96583571D02*
X151691762Y-96488333D01*
X151596524Y-96393095D01*
X151406048Y-96345476D01*
X151072714Y-96345476D01*
X150882238Y-96393095D01*
X150787000Y-96488333D01*
X150739381Y-96583571D01*
X150739381Y-96774048D01*
X150787000Y-96869286D01*
X150882238Y-96964524D01*
X151072714Y-97012143D01*
X151406048Y-97012143D01*
X151596524Y-96964524D01*
X151691762Y-96869286D01*
X151739381Y-96774048D01*
X151739381Y-96583571D01*
X151739381Y-97964524D02*
X151739381Y-97393095D01*
X151739381Y-97678809D02*
X150739381Y-97678809D01*
X150882238Y-97583571D01*
X150977476Y-97488333D01*
X151025095Y-97393095D01*
X179604286Y-67595714D02*
X179642381Y-67633810D01*
X179756667Y-67671905D01*
X179832857Y-67671905D01*
X179947143Y-67633810D01*
X180023334Y-67557619D01*
X180061429Y-67481429D01*
X180099524Y-67329048D01*
X180099524Y-67214762D01*
X180061429Y-67062381D01*
X180023334Y-66986190D01*
X179947143Y-66910000D01*
X179832857Y-66871905D01*
X179756667Y-66871905D01*
X179642381Y-66910000D01*
X179604286Y-66948095D01*
X178842381Y-67671905D02*
X179299524Y-67671905D01*
X179070953Y-67671905D02*
X179070953Y-66871905D01*
X179147143Y-66986190D01*
X179223334Y-67062381D01*
X179299524Y-67100476D01*
X178575714Y-66871905D02*
X178080476Y-66871905D01*
X178347143Y-67176667D01*
X178232857Y-67176667D01*
X178156667Y-67214762D01*
X178118571Y-67252857D01*
X178080476Y-67329048D01*
X178080476Y-67519524D01*
X178118571Y-67595714D01*
X178156667Y-67633810D01*
X178232857Y-67671905D01*
X178461429Y-67671905D01*
X178537619Y-67633810D01*
X178575714Y-67595714D01*
X182728476Y-69703905D02*
X182728476Y-68903905D01*
X182538000Y-68903905D01*
X182423714Y-68942000D01*
X182347523Y-69018190D01*
X182309428Y-69094381D01*
X182271333Y-69246762D01*
X182271333Y-69361048D01*
X182309428Y-69513429D01*
X182347523Y-69589619D01*
X182423714Y-69665810D01*
X182538000Y-69703905D01*
X182728476Y-69703905D01*
X181585619Y-69170571D02*
X181585619Y-69703905D01*
X181776095Y-68865810D02*
X181966571Y-69437238D01*
X181471333Y-69437238D01*
X187579905Y-67989524D02*
X186779905Y-67989524D01*
X186779905Y-68180000D01*
X186818000Y-68294286D01*
X186894190Y-68370477D01*
X186970381Y-68408572D01*
X187122762Y-68446667D01*
X187237048Y-68446667D01*
X187389429Y-68408572D01*
X187465619Y-68370477D01*
X187541810Y-68294286D01*
X187579905Y-68180000D01*
X187579905Y-67989524D01*
X186779905Y-69170477D02*
X186779905Y-68789524D01*
X187160857Y-68751429D01*
X187122762Y-68789524D01*
X187084667Y-68865715D01*
X187084667Y-69056191D01*
X187122762Y-69132381D01*
X187160857Y-69170477D01*
X187237048Y-69208572D01*
X187427524Y-69208572D01*
X187503714Y-69170477D01*
X187541810Y-69132381D01*
X187579905Y-69056191D01*
X187579905Y-68865715D01*
X187541810Y-68789524D01*
X187503714Y-68751429D01*
X181852238Y-77954119D02*
X181947476Y-77906500D01*
X182042714Y-77811262D01*
X182185571Y-77668405D01*
X182280810Y-77620786D01*
X182376048Y-77620786D01*
X182328429Y-77858881D02*
X182423667Y-77811262D01*
X182518905Y-77716024D01*
X182566524Y-77525548D01*
X182566524Y-77192214D01*
X182518905Y-77001738D01*
X182423667Y-76906500D01*
X182328429Y-76858881D01*
X182137952Y-76858881D01*
X182042714Y-76906500D01*
X181947476Y-77001738D01*
X181899857Y-77192214D01*
X181899857Y-77525548D01*
X181947476Y-77716024D01*
X182042714Y-77811262D01*
X182137952Y-77858881D01*
X182328429Y-77858881D01*
X181518905Y-76954119D02*
X181471286Y-76906500D01*
X181376048Y-76858881D01*
X181137952Y-76858881D01*
X181042714Y-76906500D01*
X180995095Y-76954119D01*
X180947476Y-77049357D01*
X180947476Y-77144595D01*
X180995095Y-77287452D01*
X181566524Y-77858881D01*
X180947476Y-77858881D01*
X156035619Y-96678762D02*
X155988000Y-96583524D01*
X155892762Y-96488286D01*
X155749905Y-96345429D01*
X155702286Y-96250190D01*
X155702286Y-96154952D01*
X155940381Y-96202571D02*
X155892762Y-96107333D01*
X155797524Y-96012095D01*
X155607048Y-95964476D01*
X155273714Y-95964476D01*
X155083238Y-96012095D01*
X154988000Y-96107333D01*
X154940381Y-96202571D01*
X154940381Y-96393048D01*
X154988000Y-96488286D01*
X155083238Y-96583524D01*
X155273714Y-96631143D01*
X155607048Y-96631143D01*
X155797524Y-96583524D01*
X155892762Y-96488286D01*
X155940381Y-96393048D01*
X155940381Y-96202571D01*
X154940381Y-96964476D02*
X154940381Y-97583524D01*
X155321333Y-97250190D01*
X155321333Y-97393048D01*
X155368952Y-97488286D01*
X155416571Y-97535905D01*
X155511810Y-97583524D01*
X155749905Y-97583524D01*
X155845143Y-97535905D01*
X155892762Y-97488286D01*
X155940381Y-97393048D01*
X155940381Y-97107333D01*
X155892762Y-97012095D01*
X155845143Y-96964476D01*
X180239286Y-63988905D02*
X180505953Y-63607952D01*
X180696429Y-63988905D02*
X180696429Y-63188905D01*
X180391667Y-63188905D01*
X180315476Y-63227000D01*
X180277381Y-63265095D01*
X180239286Y-63341286D01*
X180239286Y-63455571D01*
X180277381Y-63531762D01*
X180315476Y-63569857D01*
X180391667Y-63607952D01*
X180696429Y-63607952D01*
X179477381Y-63988905D02*
X179934524Y-63988905D01*
X179705953Y-63988905D02*
X179705953Y-63188905D01*
X179782143Y-63303190D01*
X179858334Y-63379381D01*
X179934524Y-63417476D01*
X178791667Y-63455571D02*
X178791667Y-63988905D01*
X178982143Y-63150810D02*
X179172619Y-63722238D01*
X178677381Y-63722238D01*
M02*
