G04 #@! TF.FileFunction,Profile,NP*
%FSLAX46Y46*%
G04 Gerber Fmt 4.6, Leading zero omitted, Abs format (unit mm)*
G04 Created by KiCad (PCBNEW 4.0.6+dfsg1-1) date Fri Aug 17 18:18:40 2018*
%MOMM*%
%LPD*%
G01*
G04 APERTURE LIST*
%ADD10C,0.100000*%
G04 APERTURE END LIST*
D10*
X171488729Y-50919330D02*
X171488726Y-50920230D01*
X171087543Y-50362120D02*
X171488729Y-50919330D01*
X170738278Y-49902350D02*
X171087543Y-50362120D01*
X170663848Y-49801900D02*
X170738278Y-49902350D01*
X170595848Y-49707100D02*
X170663848Y-49801900D01*
X170534908Y-49617700D02*
X170595848Y-49707100D01*
X170481668Y-49533700D02*
X170534908Y-49617700D01*
X170436768Y-49455100D02*
X170481668Y-49533700D01*
X170400838Y-49381700D02*
X170436768Y-49455100D01*
X170374528Y-49313400D02*
X170400838Y-49381700D01*
X170358458Y-49250100D02*
X170374528Y-49313400D01*
X170344318Y-49143670D02*
X170358458Y-49250100D01*
X170343512Y-49062370D02*
X170344318Y-49143670D01*
X170354092Y-48997770D02*
X170343512Y-49062370D01*
X170374102Y-48941670D02*
X170354092Y-48997770D01*
X170405212Y-48894270D02*
X170374102Y-48941670D01*
X170451162Y-48861070D02*
X170405212Y-48894270D01*
X170513092Y-48840970D02*
X170451162Y-48861070D01*
X170592162Y-48833970D02*
X170513092Y-48840970D01*
X170778113Y-48834970D02*
X170592162Y-48833970D01*
X170972634Y-48840970D02*
X170778113Y-48834970D01*
X171158883Y-48841970D02*
X170972634Y-48840970D01*
X171320017Y-48828470D02*
X171158883Y-48841970D01*
X171385177Y-48817870D02*
X171320017Y-48828470D01*
X171451577Y-48806470D02*
X171385177Y-48817870D01*
X171518067Y-48793070D02*
X171451577Y-48806470D01*
X171583487Y-48776370D02*
X171518067Y-48793070D01*
X171646687Y-48754870D02*
X171583487Y-48776370D01*
X171706517Y-48727370D02*
X171646687Y-48754870D01*
X171761807Y-48692470D02*
X171706517Y-48727370D01*
X171811427Y-48648970D02*
X171761807Y-48692470D01*
X171845437Y-48612170D02*
X171811427Y-48648970D01*
X171877027Y-48574970D02*
X171845437Y-48612170D01*
X171906237Y-48536970D02*
X171877027Y-48574970D01*
X171933087Y-48498170D02*
X171906237Y-48536970D01*
X171957617Y-48458070D02*
X171933087Y-48498170D01*
X171979857Y-48416470D02*
X171957617Y-48458070D01*
X171999837Y-48373170D02*
X171979857Y-48416470D01*
X172017577Y-48327870D02*
X171999837Y-48373170D01*
X172033117Y-48280270D02*
X172017577Y-48327870D01*
X172046487Y-48230170D02*
X172033117Y-48280270D01*
X172057717Y-48177170D02*
X172046487Y-48230170D01*
X172066817Y-48121070D02*
X172057717Y-48177170D01*
X172073817Y-48061670D02*
X172066817Y-48121070D01*
X172078817Y-47998670D02*
X172073817Y-48061670D01*
X172081817Y-47931870D02*
X172078817Y-47998670D01*
X172082801Y-47860870D02*
X172081817Y-47931870D01*
X172009461Y-47509650D02*
X172082801Y-47860870D01*
X171848102Y-47117450D02*
X172009461Y-47509650D01*
X171686743Y-46798430D02*
X171848102Y-47117450D01*
X171613403Y-46666720D02*
X171686743Y-46798430D01*
X171614321Y-46562340D02*
X171613403Y-46666720D01*
X171615239Y-46457960D02*
X171614321Y-46562340D01*
X171616156Y-46353570D02*
X171615239Y-46457960D01*
X171617074Y-46249190D02*
X171616156Y-46353570D01*
X171617993Y-46144800D02*
X171617074Y-46249190D01*
X171618911Y-46040420D02*
X171617993Y-46144800D01*
X171619829Y-45936040D02*
X171618911Y-46040420D01*
X171620747Y-45831650D02*
X171619829Y-45936040D01*
X171621665Y-45727270D02*
X171620747Y-45831650D01*
X171622583Y-45622890D02*
X171621665Y-45727270D01*
X171623501Y-45518500D02*
X171622583Y-45622890D01*
X171624419Y-45414120D02*
X171623501Y-45518500D01*
X171625338Y-45309740D02*
X171624419Y-45414120D01*
X171626256Y-45205350D02*
X171625338Y-45309740D01*
X171627173Y-45100970D02*
X171626256Y-45205350D01*
X171628091Y-44996590D02*
X171627173Y-45100970D01*
X171655161Y-44973390D02*
X171628091Y-44996590D01*
X171731861Y-44907390D02*
X171655161Y-44973390D01*
X171851454Y-44804070D02*
X171731861Y-44907390D01*
X172007190Y-44669020D02*
X171851454Y-44804070D01*
X172192321Y-44507730D02*
X172007190Y-44669020D01*
X172400101Y-44325710D02*
X172192321Y-44507730D01*
X172623781Y-44128440D02*
X172400101Y-44325710D01*
X172856615Y-43921460D02*
X172623781Y-44128440D01*
X173091855Y-43710270D02*
X172856615Y-43921460D01*
X173322755Y-43500400D02*
X173091855Y-43710270D01*
X173542568Y-43297320D02*
X173322755Y-43500400D01*
X173744546Y-43106580D02*
X173542568Y-43297320D01*
X173921942Y-42933670D02*
X173744546Y-43106580D01*
X174068007Y-42784110D02*
X173921942Y-42933670D01*
X174175998Y-42663400D02*
X174068007Y-42784110D01*
X174239158Y-42577100D02*
X174175998Y-42663400D01*
X174268228Y-42509500D02*
X174239158Y-42577100D01*
X174279848Y-42441800D02*
X174268228Y-42509500D01*
X174276148Y-42374500D02*
X174279848Y-42441800D01*
X174259318Y-42308400D02*
X174276148Y-42374500D01*
X174231478Y-42244000D02*
X174259318Y-42308400D01*
X174194788Y-42182100D02*
X174231478Y-42244000D01*
X174151398Y-42123000D02*
X174194788Y-42182100D01*
X174103448Y-42067600D02*
X174151398Y-42123000D01*
X174053088Y-42016400D02*
X174103448Y-42067600D01*
X174002478Y-41970000D02*
X174053088Y-42016400D01*
X173953758Y-41929000D02*
X174002478Y-41970000D01*
X173909078Y-41894100D02*
X173953758Y-41929000D01*
X173870578Y-41865900D02*
X173909078Y-41894100D01*
X173840418Y-41844900D02*
X173870578Y-41865900D01*
X173820748Y-41831900D02*
X173840418Y-41844900D01*
X173813748Y-41827900D02*
X173820748Y-41831900D01*
X173797118Y-41826900D02*
X173813748Y-41827900D01*
X173748788Y-41823900D02*
X173797118Y-41826900D01*
X173671118Y-41817900D02*
X173748788Y-41823900D01*
X173566433Y-41807100D02*
X173671118Y-41817900D01*
X173437081Y-41791700D02*
X173566433Y-41807100D01*
X173285402Y-41770800D02*
X173437081Y-41791700D01*
X173113740Y-41743900D02*
X173285402Y-41770800D01*
X172924436Y-41710200D02*
X173113740Y-41743900D01*
X172719834Y-41669000D02*
X172924436Y-41710200D01*
X172502274Y-41619600D02*
X172719834Y-41669000D01*
X172274099Y-41561300D02*
X172502274Y-41619600D01*
X172037652Y-41493400D02*
X172274099Y-41561300D01*
X171795273Y-41415100D02*
X172037652Y-41493400D01*
X171549306Y-41325800D02*
X171795273Y-41415100D01*
X171302093Y-41224720D02*
X171549306Y-41325800D01*
X171055976Y-41111180D02*
X171302093Y-41224720D01*
X170817272Y-40968550D02*
X171055976Y-41111180D01*
X170591011Y-40785240D02*
X170817272Y-40968550D01*
X170377598Y-40568130D02*
X170591011Y-40785240D01*
X170177444Y-40324110D02*
X170377598Y-40568130D01*
X169990955Y-40060060D02*
X170177444Y-40324110D01*
X169818541Y-39782850D02*
X169990955Y-40060060D01*
X169660610Y-39499390D02*
X169818541Y-39782850D01*
X169517570Y-39216550D02*
X169660610Y-39499390D01*
X169389829Y-38941190D02*
X169517570Y-39216550D01*
X169277795Y-38680230D02*
X169389829Y-38941190D01*
X169181875Y-38440530D02*
X169277795Y-38680230D01*
X169102485Y-38228980D02*
X169181875Y-38440530D01*
X169040015Y-38052450D02*
X169102485Y-38228980D01*
X168994895Y-37917850D02*
X169040015Y-38052450D01*
X168967515Y-37832050D02*
X168994895Y-37917850D01*
X168958315Y-37801950D02*
X168967515Y-37832050D01*
X168900555Y-37803950D02*
X168958315Y-37801950D01*
X168842795Y-37805950D02*
X168900555Y-37803950D01*
X168785035Y-37807950D02*
X168842795Y-37805950D01*
X168727275Y-37809950D02*
X168785035Y-37807950D01*
X168669515Y-37811950D02*
X168727275Y-37809950D01*
X168611755Y-37813950D02*
X168669515Y-37811950D01*
X168553995Y-37815950D02*
X168611755Y-37813950D01*
X168496235Y-37817950D02*
X168553995Y-37815950D01*
X168438475Y-37819950D02*
X168496235Y-37817950D01*
X168380715Y-37821950D02*
X168438475Y-37819950D01*
X168322955Y-37823950D02*
X168380715Y-37821950D01*
X168265195Y-37825950D02*
X168322955Y-37823950D01*
X168207435Y-37827950D02*
X168265195Y-37825950D01*
X168149675Y-37829950D02*
X168207435Y-37827950D01*
X168091915Y-37831950D02*
X168149675Y-37829950D01*
X168034155Y-37833950D02*
X168091915Y-37831950D01*
X168028855Y-37845050D02*
X168034155Y-37833950D01*
X168013245Y-37877250D02*
X168028855Y-37845050D01*
X167987615Y-37929050D02*
X168013245Y-37877250D01*
X167952295Y-37998950D02*
X167987615Y-37929050D01*
X167907605Y-38085450D02*
X167952295Y-37998950D01*
X167853875Y-38186960D02*
X167907605Y-38085450D01*
X167791425Y-38301970D02*
X167853875Y-38186960D01*
X167720575Y-38428940D02*
X167791425Y-38301970D01*
X167641645Y-38566340D02*
X167720575Y-38428940D01*
X167554955Y-38712630D02*
X167641645Y-38566340D01*
X167460825Y-38866290D02*
X167554955Y-38712630D01*
X167359586Y-39025770D02*
X167460825Y-38866290D01*
X167251556Y-39189560D02*
X167359586Y-39025770D01*
X167137059Y-39356110D02*
X167251556Y-39189560D01*
X167016415Y-39523890D02*
X167137059Y-39356110D01*
X166889949Y-39691390D02*
X167016415Y-39523890D01*
X166751902Y-39860960D02*
X166889949Y-39691390D01*
X166597631Y-40034560D02*
X166751902Y-39860960D01*
X166429134Y-40209990D02*
X166597631Y-40034560D01*
X166248411Y-40385060D02*
X166429134Y-40209990D01*
X166057461Y-40557570D02*
X166248411Y-40385060D01*
X165858280Y-40725310D02*
X166057461Y-40557570D01*
X165652868Y-40886110D02*
X165858280Y-40725310D01*
X165443223Y-41037760D02*
X165652868Y-40886110D01*
X165231344Y-41178070D02*
X165443223Y-41037760D01*
X165019227Y-41304840D02*
X165231344Y-41178070D01*
X164808873Y-41415870D02*
X165019227Y-41304840D01*
X164602278Y-41508970D02*
X164808873Y-41415870D01*
X164401443Y-41581970D02*
X164602278Y-41508970D01*
X164208365Y-41632570D02*
X164401443Y-41581970D01*
X164025042Y-41658770D02*
X164208365Y-41632570D01*
X163853473Y-41658210D02*
X164025042Y-41658770D01*
X163696318Y-41649210D02*
X163853473Y-41658210D01*
X163554764Y-41650210D02*
X163696318Y-41649210D01*
X163428596Y-41661310D02*
X163554764Y-41650210D01*
X163317597Y-41680610D02*
X163428596Y-41661310D01*
X163221557Y-41707010D02*
X163317597Y-41680610D01*
X163140257Y-41739510D02*
X163221557Y-41707010D01*
X163073487Y-41776710D02*
X163140257Y-41739510D01*
X163021017Y-41817710D02*
X163073487Y-41776710D01*
X162982647Y-41861210D02*
X163021017Y-41817710D01*
X162958157Y-41906110D02*
X162982647Y-41861210D01*
X162947337Y-41951310D02*
X162958157Y-41906110D01*
X162949937Y-41995710D02*
X162947337Y-41951310D01*
X162965807Y-42038010D02*
X162949937Y-41995710D01*
X162994697Y-42077210D02*
X162965807Y-42038010D01*
X163222984Y-42311360D02*
X162994697Y-42077210D01*
X163318384Y-42460440D02*
X163222984Y-42311360D01*
X163385144Y-42602930D02*
X163318384Y-42460440D01*
X163522493Y-42893590D02*
X163385144Y-42602930D01*
X163672563Y-43232100D02*
X163522493Y-42893590D01*
X163831229Y-43606070D02*
X163672563Y-43232100D01*
X163994364Y-44003130D02*
X163831229Y-43606070D01*
X164157843Y-44410920D02*
X163994364Y-44003130D01*
X164317540Y-44817070D02*
X164157843Y-44410920D01*
X164469329Y-45209190D02*
X164317540Y-44817070D01*
X164609086Y-45574930D02*
X164469329Y-45209190D01*
X164732683Y-45901910D02*
X164609086Y-45574930D01*
X164835996Y-46177760D02*
X164732683Y-45901910D01*
X164914896Y-46390110D02*
X164835996Y-46177760D01*
X164965256Y-46526590D02*
X164914896Y-46390110D01*
X164969356Y-46537690D02*
X164965256Y-46526590D01*
X164972956Y-46547690D02*
X164969356Y-46537690D01*
X164975956Y-46556690D02*
X164972956Y-46547690D01*
X164978456Y-46562690D02*
X164975956Y-46556690D01*
X164980456Y-46567690D02*
X164978456Y-46562690D01*
X164981856Y-46571690D02*
X164980456Y-46567690D01*
X164982709Y-46573690D02*
X164981856Y-46571690D01*
X164982995Y-46574460D02*
X164982709Y-46573690D01*
X164951565Y-46639860D02*
X164982995Y-46574460D01*
X164871335Y-46816330D02*
X164951565Y-46639860D01*
X164763365Y-47073870D02*
X164871335Y-46816330D01*
X164648725Y-47382610D02*
X164763365Y-47073870D01*
X164548484Y-47712640D02*
X164648725Y-47382610D01*
X164483714Y-48034060D02*
X164548484Y-47712640D01*
X164475514Y-48316960D02*
X164483714Y-48034060D01*
X164544874Y-48531450D02*
X164475514Y-48316960D01*
X164707388Y-48665370D02*
X164544874Y-48531450D01*
X164941186Y-48741170D02*
X164707388Y-48665370D01*
X165211214Y-48780570D02*
X164941186Y-48741170D01*
X165482415Y-48805370D02*
X165211214Y-48780570D01*
X165719735Y-48837570D02*
X165482415Y-48805370D01*
X165888117Y-48898970D02*
X165719735Y-48837570D01*
X165952497Y-49011480D02*
X165888117Y-48898970D01*
X165877837Y-49196920D02*
X165952497Y-49011480D01*
X165676139Y-49493510D02*
X165877837Y-49196920D01*
X165474440Y-49790100D02*
X165676139Y-49493510D01*
X165272742Y-50086680D02*
X165474440Y-49790100D01*
X165071043Y-50383280D02*
X165272742Y-50086680D01*
X164869345Y-50679860D02*
X165071043Y-50383280D01*
X164667648Y-50976440D02*
X164869345Y-50679860D01*
X164465949Y-51273040D02*
X164667648Y-50976440D01*
X164264251Y-51569620D02*
X164465949Y-51273040D01*
X164062553Y-51866200D02*
X164264251Y-51569620D01*
X163860854Y-52162800D02*
X164062553Y-51866200D01*
X163659156Y-52459380D02*
X163860854Y-52162800D01*
X163457457Y-52755970D02*
X163659156Y-52459380D01*
X163255760Y-53052560D02*
X163457457Y-52755970D01*
X163054062Y-53349140D02*
X163255760Y-53052560D01*
X162852363Y-53645730D02*
X163054062Y-53349140D01*
X162650665Y-53942320D02*
X162852363Y-53645730D01*
X162494472Y-54187550D02*
X162650665Y-53942320D01*
X162312892Y-54453930D02*
X162494472Y-54187550D01*
X162107352Y-54739940D02*
X162312892Y-54453930D01*
X161879282Y-55044030D02*
X162107352Y-54739940D01*
X161630113Y-55364680D02*
X161879282Y-55044030D01*
X161361270Y-55700350D02*
X161630113Y-55364680D01*
X161074185Y-56049510D02*
X161361270Y-55700350D01*
X160770286Y-56410630D02*
X161074185Y-56049510D01*
X160451001Y-56782170D02*
X160770286Y-56410630D01*
X160117760Y-57162610D02*
X160451001Y-56782170D01*
X159771991Y-57550420D02*
X160117760Y-57162610D01*
X159415125Y-57944050D02*
X159771991Y-57550420D01*
X159048588Y-58341990D02*
X159415125Y-57944050D01*
X158673812Y-58742690D02*
X159048588Y-58341990D01*
X158292223Y-59144620D02*
X158673812Y-58742690D01*
X157905252Y-59546260D02*
X158292223Y-59144620D01*
X157514327Y-59946070D02*
X157905252Y-59546260D01*
X157120878Y-60342520D02*
X157514327Y-59946070D01*
X156726332Y-60734070D02*
X157120878Y-60342520D01*
X156332120Y-61119200D02*
X156726332Y-60734070D01*
X155939669Y-61496370D02*
X156332120Y-61119200D01*
X155550409Y-61864050D02*
X155939669Y-61496370D01*
X155165770Y-62220710D02*
X155550409Y-61864050D01*
X154787179Y-62564820D02*
X155165770Y-62220710D01*
X154416065Y-62894840D02*
X154787179Y-62564820D01*
X154053859Y-63209240D02*
X154416065Y-62894840D01*
X153701988Y-63506500D02*
X154053859Y-63209240D01*
X153361882Y-63785070D02*
X153701988Y-63506500D01*
X153034970Y-64043430D02*
X153361882Y-63785070D01*
X152722679Y-64280040D02*
X153034970Y-64043430D01*
X152426439Y-64493370D02*
X152722679Y-64280040D01*
X152147681Y-64681900D02*
X152426439Y-64493370D01*
X151880922Y-64853280D02*
X152147681Y-64681900D01*
X151619852Y-65016430D02*
X151880922Y-64853280D01*
X151364657Y-65171650D02*
X151619852Y-65016430D01*
X151115521Y-65319310D02*
X151364657Y-65171650D01*
X150872629Y-65459730D02*
X151115521Y-65319310D01*
X150636167Y-65593230D02*
X150872629Y-65459730D01*
X150406321Y-65720160D02*
X150636167Y-65593230D01*
X150183273Y-65840830D02*
X150406321Y-65720160D01*
X149967209Y-65955590D02*
X150183273Y-65840830D01*
X149758315Y-66064760D02*
X149967209Y-65955590D01*
X149556775Y-66168720D02*
X149758315Y-66064760D01*
X149362775Y-66267720D02*
X149556775Y-66168720D01*
X149176498Y-66362120D02*
X149362775Y-66267720D01*
X148998133Y-66452220D02*
X149176498Y-66362120D01*
X148827860Y-66538520D02*
X148998133Y-66452220D01*
X148665868Y-66621220D02*
X148827860Y-66538520D01*
X148512339Y-66700620D02*
X148665868Y-66621220D01*
X148367460Y-66777120D02*
X148512339Y-66700620D01*
X148231415Y-66850920D02*
X148367460Y-66777120D01*
X148104390Y-66922520D02*
X148231415Y-66850920D01*
X147986569Y-66992220D02*
X148104390Y-66922520D01*
X147878137Y-67060320D02*
X147986569Y-66992220D01*
X147779277Y-67127120D02*
X147878137Y-67060320D01*
X147690177Y-67193020D02*
X147779277Y-67127120D01*
X147611027Y-67258220D02*
X147690177Y-67193020D01*
X147542007Y-67323220D02*
X147611027Y-67258220D01*
X147483307Y-67388220D02*
X147542007Y-67323220D01*
X147435087Y-67453620D02*
X147483307Y-67388220D01*
X147397557Y-67519820D02*
X147435087Y-67453620D01*
X147370897Y-67587120D02*
X147397557Y-67519820D01*
X147355297Y-67655720D02*
X147370897Y-67587120D01*
X147350897Y-67726020D02*
X147355297Y-67655720D01*
X147360397Y-67852780D02*
X147350897Y-67726020D01*
X147384077Y-67989070D02*
X147360397Y-67852780D01*
X147421437Y-68134320D02*
X147384077Y-67989070D01*
X147471967Y-68287980D02*
X147421437Y-68134320D01*
X147535167Y-68449450D02*
X147471967Y-68287980D01*
X147610537Y-68618180D02*
X147535167Y-68449450D01*
X147697587Y-68793580D02*
X147610537Y-68618180D01*
X147795817Y-68975070D02*
X147697587Y-68793580D01*
X147904720Y-69162110D02*
X147795817Y-68975070D01*
X148023799Y-69354100D02*
X147904720Y-69162110D01*
X148152554Y-69550470D02*
X148023799Y-69354100D01*
X148290486Y-69750660D02*
X148152554Y-69550470D01*
X148437093Y-69954100D02*
X148290486Y-69750660D01*
X148591876Y-70160190D02*
X148437093Y-69954100D01*
X148754336Y-70368370D02*
X148591876Y-70160190D01*
X148923973Y-70578100D02*
X148754336Y-70368370D01*
X149100287Y-70788760D02*
X148923973Y-70578100D01*
X149282777Y-70999800D02*
X149100287Y-70788760D01*
X149470945Y-71210650D02*
X149282777Y-70999800D01*
X149664290Y-71420720D02*
X149470945Y-71210650D01*
X149862313Y-71629470D02*
X149664290Y-71420720D01*
X150064513Y-71836290D02*
X149862313Y-71629470D01*
X150270392Y-72040630D02*
X150064513Y-71836290D01*
X150479448Y-72241910D02*
X150270392Y-72040630D01*
X150691182Y-72439560D02*
X150479448Y-72241910D01*
X150905095Y-72633020D02*
X150691182Y-72439560D01*
X151120685Y-72821680D02*
X150905095Y-72633020D01*
X151337455Y-73005010D02*
X151120685Y-72821680D01*
X151554903Y-73182420D02*
X151337455Y-73005010D01*
X151772531Y-73353330D02*
X151554903Y-73182420D01*
X151989837Y-73517180D02*
X151772531Y-73353330D01*
X152206323Y-73673380D02*
X151989837Y-73517180D01*
X152395337Y-73817270D02*
X152206323Y-73673380D01*
X152570017Y-73952880D02*
X152395337Y-73817270D01*
X152730735Y-74080660D02*
X152570017Y-73952880D01*
X152877862Y-74201040D02*
X152730735Y-74080660D01*
X153011770Y-74314510D02*
X152877862Y-74201040D01*
X153132830Y-74421490D02*
X153011770Y-74314510D01*
X153241416Y-74522470D02*
X153132830Y-74421490D01*
X153337896Y-74617770D02*
X153241416Y-74522470D01*
X153422646Y-74707970D02*
X153337896Y-74617770D01*
X153496036Y-74793570D02*
X153422646Y-74707970D01*
X153558436Y-74874870D02*
X153496036Y-74793570D01*
X153610226Y-74952470D02*
X153558436Y-74874870D01*
X153651776Y-75026770D02*
X153610226Y-74952470D01*
X153683446Y-75098170D02*
X153651776Y-75026770D01*
X153705616Y-75167170D02*
X153683446Y-75098170D01*
X153718656Y-75234070D02*
X153705616Y-75167170D01*
X153722956Y-75299470D02*
X153718656Y-75234070D01*
X153718856Y-75363870D02*
X153722956Y-75299470D01*
X153706746Y-75427570D02*
X153718856Y-75363870D01*
X153686986Y-75491070D02*
X153706746Y-75427570D01*
X153659956Y-75554870D02*
X153686986Y-75491070D01*
X153626036Y-75619470D02*
X153659956Y-75554870D01*
X153585586Y-75685270D02*
X153626036Y-75619470D01*
X153538976Y-75752670D02*
X153585586Y-75685270D01*
X153486586Y-75822070D02*
X153538976Y-75752670D01*
X153428796Y-75893970D02*
X153486586Y-75822070D01*
X153365966Y-75968870D02*
X153428796Y-75893970D01*
X153298466Y-76047170D02*
X153365966Y-75968870D01*
X153226676Y-76129370D02*
X153298466Y-76047170D01*
X153150966Y-76215870D02*
X153226676Y-76129370D01*
X153071696Y-76307170D02*
X153150966Y-76215870D01*
X152989256Y-76403670D02*
X153071696Y-76307170D01*
X152914186Y-76492570D02*
X152989256Y-76403670D01*
X152855576Y-76562170D02*
X152914186Y-76492570D01*
X152811636Y-76614470D02*
X152855576Y-76562170D01*
X152780556Y-76651670D02*
X152811636Y-76614470D01*
X152760536Y-76675870D02*
X152780556Y-76651670D01*
X152749766Y-76689170D02*
X152760536Y-76675870D01*
X152746466Y-76693170D02*
X152749766Y-76689170D01*
X152748766Y-76691170D02*
X152746466Y-76693170D01*
X152754866Y-76685170D02*
X152748766Y-76691170D01*
X152763066Y-76675170D02*
X152754866Y-76685170D01*
X152771466Y-76665170D02*
X152763066Y-76675170D01*
X152778266Y-76656170D02*
X152771466Y-76665170D01*
X152781666Y-76652170D02*
X152778266Y-76656170D01*
X152779866Y-76654170D02*
X152781666Y-76652170D01*
X152771066Y-76664170D02*
X152779866Y-76654170D01*
X152753476Y-76684070D02*
X152771066Y-76664170D01*
X152725266Y-76716270D02*
X152753476Y-76684070D01*
X152684636Y-76762870D02*
X152725266Y-76716270D01*
X152629786Y-76825970D02*
X152684636Y-76762870D01*
X152558906Y-76907570D02*
X152629786Y-76825970D01*
X152470186Y-77009930D02*
X152558906Y-76907570D01*
X152361822Y-77135060D02*
X152470186Y-77009930D01*
X152232010Y-77285100D02*
X152361822Y-77135060D01*
X152078942Y-77462160D02*
X152232010Y-77285100D01*
X151900815Y-77668340D02*
X152078942Y-77462160D01*
X151695820Y-77905770D02*
X151900815Y-77668340D01*
X151462154Y-78176510D02*
X151695820Y-77905770D01*
X151198010Y-78482720D02*
X151462154Y-78176510D01*
X150901582Y-78826480D02*
X151198010Y-78482720D01*
X150571064Y-79209900D02*
X150901582Y-78826480D01*
X150204651Y-79635090D02*
X150571064Y-79209900D01*
X149800537Y-80104160D02*
X150204651Y-79635090D01*
X149368632Y-80590370D02*
X149800537Y-80104160D01*
X148921072Y-81065510D02*
X149368632Y-80590370D01*
X148459395Y-81529490D02*
X148921072Y-81065510D01*
X147985138Y-81982220D02*
X148459395Y-81529490D01*
X147499835Y-82423610D02*
X147985138Y-81982220D01*
X147005024Y-82853560D02*
X147499835Y-82423610D01*
X146502242Y-83272000D02*
X147005024Y-82853560D01*
X145993023Y-83678820D02*
X146502242Y-83272000D01*
X145478906Y-84073920D02*
X145993023Y-83678820D01*
X144961424Y-84457230D02*
X145478906Y-84073920D01*
X144442118Y-84828650D02*
X144961424Y-84457230D01*
X143922521Y-85188090D02*
X144442118Y-84828650D01*
X143404170Y-85535460D02*
X143922521Y-85188090D01*
X142888602Y-85870660D02*
X143404170Y-85535460D01*
X142377353Y-86193600D02*
X142888602Y-85870660D01*
X141871959Y-86504190D02*
X142377353Y-86193600D01*
X141373957Y-86802350D02*
X141871959Y-86504190D01*
X140884884Y-87087980D02*
X141373957Y-86802350D01*
X140406274Y-87360990D02*
X140884884Y-87087980D01*
X139939666Y-87621280D02*
X140406274Y-87360990D01*
X139486596Y-87868760D02*
X139939666Y-87621280D01*
X139048598Y-88103350D02*
X139486596Y-87868760D01*
X138627210Y-88324950D02*
X139048598Y-88103350D01*
X138223970Y-88533480D02*
X138627210Y-88324950D01*
X137840411Y-88728830D02*
X138223970Y-88533480D01*
X137478072Y-88910920D02*
X137840411Y-88728830D01*
X137138489Y-89079650D02*
X137478072Y-88910920D01*
X136823198Y-89234940D02*
X137138489Y-89079650D01*
X136533734Y-89376700D02*
X136823198Y-89234940D01*
X136271636Y-89504830D02*
X136533734Y-89376700D01*
X136038437Y-89619230D02*
X136271636Y-89504830D01*
X135835678Y-89719790D02*
X136038437Y-89619230D01*
X135255231Y-90087660D02*
X135835678Y-89719790D01*
X134902409Y-90449080D02*
X135255231Y-90087660D01*
X134755663Y-90814640D02*
X134902409Y-90449080D01*
X134793453Y-91194940D02*
X134755663Y-90814640D01*
X134994224Y-91600600D02*
X134793453Y-91194940D01*
X135336434Y-92042220D02*
X134994224Y-91600600D01*
X135798536Y-92530390D02*
X135336434Y-92042220D01*
X136358983Y-93075720D02*
X135798536Y-92530390D01*
X136684276Y-93358760D02*
X136358983Y-93075720D01*
X137051351Y-93631300D02*
X136684276Y-93358760D01*
X137450669Y-93894700D02*
X137051351Y-93631300D01*
X137872688Y-94150250D02*
X137450669Y-93894700D01*
X138307861Y-94399290D02*
X137872688Y-94150250D01*
X138746647Y-94643140D02*
X138307861Y-94399290D01*
X139179506Y-94883130D02*
X138746647Y-94643140D01*
X139596891Y-95120580D02*
X139179506Y-94883130D01*
X139989263Y-95356810D02*
X139596891Y-95120580D01*
X140347076Y-95593160D02*
X139989263Y-95356810D01*
X140660791Y-95830930D02*
X140347076Y-95593160D01*
X140920862Y-96071460D02*
X140660791Y-95830930D01*
X141117747Y-96316070D02*
X140920862Y-96071460D01*
X141241903Y-96566090D02*
X141117747Y-96316070D01*
X141283793Y-96822840D02*
X141241903Y-96566090D01*
X141233863Y-97087640D02*
X141283793Y-96822840D01*
X140898311Y-97759350D02*
X141233863Y-97087640D01*
X140320720Y-98656430D02*
X140898311Y-97759350D01*
X139550599Y-99717420D02*
X140320720Y-98656430D01*
X138637456Y-100880840D02*
X139550599Y-99717420D01*
X137630797Y-102085240D02*
X138637456Y-100880840D01*
X136580132Y-103269150D02*
X137630797Y-102085240D01*
X135534968Y-104371110D02*
X136580132Y-103269150D01*
X134544812Y-105329650D02*
X135534968Y-104371110D01*
X133201570Y-106371560D02*
X134544812Y-105329650D01*
X131221044Y-107685830D02*
X133201570Y-106371560D01*
X128838578Y-109154370D02*
X131221044Y-107685830D01*
X126289525Y-110659080D02*
X128838578Y-109154370D01*
X123809233Y-112081820D02*
X126289525Y-110659080D01*
X121633050Y-113304510D02*
X123809233Y-112081820D01*
X119996327Y-114209030D02*
X121633050Y-113304510D01*
X119134411Y-114677270D02*
X119996327Y-114209030D01*
X118962570Y-114789710D02*
X119134411Y-114677270D01*
X118839631Y-114914520D02*
X118962570Y-114789710D01*
X118760376Y-115048970D02*
X118839631Y-114914520D01*
X118719587Y-115190370D02*
X118760376Y-115048970D01*
X118712047Y-115336020D02*
X118719587Y-115190370D01*
X118732535Y-115483190D02*
X118712047Y-115336020D01*
X118775831Y-115629180D02*
X118732535Y-115483190D01*
X118836734Y-115771300D02*
X118775831Y-115629180D01*
X118910012Y-115906840D02*
X118836734Y-115771300D01*
X118990442Y-116033080D02*
X118910012Y-115906840D01*
X119072811Y-116147330D02*
X118990442Y-116033080D01*
X119151914Y-116246830D02*
X119072811Y-116147330D01*
X119222517Y-116328930D02*
X119151914Y-116246830D01*
X119279408Y-116390930D02*
X119222517Y-116328930D01*
X119317369Y-116430230D02*
X119279408Y-116390930D01*
X119331183Y-116443830D02*
X119317369Y-116430230D01*
X119399918Y-116512930D02*
X119331183Y-116443830D01*
X119597713Y-116710580D02*
X119399918Y-116512930D01*
X120330019Y-117434130D02*
X119597713Y-116710580D01*
X121427175Y-118499640D02*
X120330019Y-117434130D01*
X122788253Y-119792210D02*
X121427175Y-118499640D01*
X124312327Y-121196980D02*
X122788253Y-119792210D01*
X125898469Y-122599070D02*
X124312327Y-121196980D01*
X127445752Y-123883570D02*
X125898469Y-122599070D01*
X128853251Y-124935630D02*
X127445752Y-123883570D01*
X130582367Y-126084800D02*
X128853251Y-124935630D01*
X132346915Y-127177060D02*
X130582367Y-126084800D01*
X134144107Y-128211620D02*
X132346915Y-127177060D01*
X135971159Y-129187690D02*
X134144107Y-128211620D01*
X137825283Y-130104440D02*
X135971159Y-129187690D01*
X139703692Y-130961090D02*
X137825283Y-130104440D01*
X141603601Y-131756810D02*
X139703692Y-130961090D01*
X143522222Y-132490800D02*
X141603601Y-131756810D01*
X145535106Y-133181130D02*
X143522222Y-132490800D01*
X147570701Y-133796650D02*
X145535106Y-133181130D01*
X149625571Y-134343060D02*
X147570701Y-133796650D01*
X151696282Y-134826030D02*
X149625571Y-134343060D01*
X153779398Y-135251250D02*
X151696282Y-134826030D01*
X155871484Y-135624390D02*
X153779398Y-135251250D01*
X157969103Y-135951140D02*
X155871484Y-135624390D01*
X160068819Y-136237170D02*
X157969103Y-135951140D01*
X162335548Y-136439490D02*
X160068819Y-136237170D01*
X164639455Y-136516690D02*
X162335548Y-136439490D01*
X166891396Y-136521690D02*
X164639455Y-136516690D01*
X169002224Y-136509490D02*
X166891396Y-136521690D01*
X170916782Y-136512490D02*
X169002224Y-136509490D01*
X172692468Y-136501090D02*
X170916782Y-136512490D01*
X174408974Y-136433290D02*
X172692468Y-136501090D01*
X176145995Y-136267290D02*
X174408974Y-136433290D01*
X178245412Y-135978630D02*
X176145995Y-136267290D01*
X180342891Y-135650640D02*
X178245412Y-135978630D01*
X182434957Y-135277330D02*
X180342891Y-135650640D01*
X184518141Y-134852710D02*
X182434957Y-135277330D01*
X186588968Y-134370760D02*
X184518141Y-134852710D01*
X188643967Y-133825480D02*
X186588968Y-134370760D01*
X190679666Y-133210870D02*
X188643967Y-133825480D01*
X192692592Y-132520930D02*
X190679666Y-133210870D01*
X194611213Y-131786930D02*
X192692592Y-132520930D01*
X196511122Y-130991220D02*
X194611213Y-131786930D01*
X198389530Y-130134570D02*
X196511122Y-130991220D01*
X200243655Y-129217820D02*
X198389530Y-130134570D01*
X202070707Y-128241750D02*
X200243655Y-129217820D01*
X203867900Y-127207180D02*
X202070707Y-128241750D01*
X205632449Y-126114930D02*
X203867900Y-127207180D01*
X207361567Y-124965760D02*
X205632449Y-126114930D01*
X208769066Y-123913700D02*
X207361567Y-124965760D01*
X210316350Y-122629200D02*
X208769066Y-123913700D01*
X211902493Y-121227120D02*
X210316350Y-122629200D01*
X213426568Y-119822340D02*
X211902493Y-121227120D01*
X214787647Y-118529760D02*
X213426568Y-119822340D01*
X215884803Y-117464250D02*
X214787647Y-118529760D01*
X216617111Y-116740710D02*
X215884803Y-117464250D01*
X216883638Y-116473990D02*
X216617111Y-116740710D01*
X216935438Y-116421090D02*
X216883638Y-116473990D01*
X217062938Y-116276940D02*
X216935438Y-116421090D01*
X217224408Y-116063170D02*
X217062938Y-116276940D01*
X217378115Y-115801390D02*
X217224408Y-116063170D01*
X217482315Y-115513270D02*
X217378115Y-115801390D01*
X217495315Y-115220460D02*
X217482315Y-115513270D01*
X217375265Y-114944600D02*
X217495315Y-115220460D01*
X217080488Y-114707350D02*
X217375265Y-114944600D01*
X216761087Y-114535150D02*
X217080488Y-114707350D01*
X216218570Y-114239120D02*
X216761087Y-114535150D01*
X215482349Y-113834010D02*
X216218570Y-114239120D01*
X214581847Y-113334600D02*
X215482349Y-113834010D01*
X213546479Y-112755640D02*
X214581847Y-113334600D01*
X212405664Y-112111910D02*
X213546479Y-112755640D01*
X211188822Y-111418160D02*
X212405664Y-112111910D01*
X209925371Y-110689160D02*
X211188822Y-111418160D01*
X208644730Y-109939670D02*
X209925371Y-110689160D01*
X207376317Y-109184460D02*
X208644730Y-109939670D01*
X206149551Y-108438290D02*
X207376317Y-109184460D01*
X204993851Y-107715920D02*
X206149551Y-108438290D01*
X203938635Y-107032120D02*
X204993851Y-107715920D01*
X203013323Y-106401640D02*
X203938635Y-107032120D01*
X202247331Y-105839260D02*
X203013323Y-106401640D01*
X201670080Y-105359740D02*
X202247331Y-105839260D01*
X200679924Y-104401200D02*
X201670080Y-105359740D01*
X199634761Y-103299230D02*
X200679924Y-104401200D01*
X198584096Y-102115330D02*
X199634761Y-103299230D01*
X197577437Y-100910930D02*
X198584096Y-102115330D01*
X196664295Y-99747510D02*
X197577437Y-100910930D01*
X195894174Y-98686520D02*
X196664295Y-99747510D01*
X195729793Y-98444480D02*
X195894174Y-98686520D01*
X195578218Y-98213640D02*
X195729793Y-98444480D01*
X195440224Y-97994980D02*
X195578218Y-98213640D01*
X195316583Y-97789440D02*
X195440224Y-97994980D01*
X195208071Y-97597980D02*
X195316583Y-97789440D01*
X195115461Y-97421560D02*
X195208071Y-97597980D01*
X195039531Y-97261160D02*
X195115461Y-97421560D01*
X194981041Y-97117720D02*
X195039531Y-97261160D01*
X194944001Y-96984240D02*
X194981041Y-97117720D01*
X194931111Y-96852920D02*
X194944001Y-96984240D01*
X194941171Y-96723620D02*
X194931111Y-96852920D01*
X194973001Y-96596180D02*
X194941171Y-96723620D01*
X195025391Y-96470410D02*
X194973001Y-96596180D01*
X195097151Y-96346160D02*
X195025391Y-96470410D01*
X195187101Y-96223260D02*
X195097151Y-96346160D01*
X195294038Y-96101540D02*
X195187101Y-96223260D01*
X195416772Y-95980850D02*
X195294038Y-96101540D01*
X195554109Y-95861020D02*
X195416772Y-95980850D01*
X195704857Y-95741860D02*
X195554109Y-95861020D01*
X195867823Y-95623240D02*
X195704857Y-95741860D01*
X196041815Y-95504970D02*
X195867823Y-95623240D01*
X196086895Y-95475470D02*
X196041815Y-95504970D01*
X196132575Y-95445970D02*
X196086895Y-95475470D01*
X196178835Y-95416470D02*
X196132575Y-95445970D01*
X196225655Y-95386970D02*
X196178835Y-95416470D01*
X196273015Y-95357470D02*
X196225655Y-95386970D01*
X196320895Y-95327970D02*
X196273015Y-95357470D01*
X196369275Y-95298470D02*
X196320895Y-95327970D01*
X196418135Y-95268970D02*
X196369275Y-95298470D01*
X196467465Y-95239470D02*
X196418135Y-95268970D01*
X196517235Y-95209870D02*
X196467465Y-95239470D01*
X196567445Y-95180270D02*
X196517235Y-95209870D01*
X196618055Y-95150670D02*
X196567445Y-95180270D01*
X196824217Y-95032180D02*
X196618055Y-95150670D01*
X197035441Y-94913220D02*
X196824217Y-95032180D01*
X197250533Y-94793630D02*
X197035441Y-94913220D01*
X197468300Y-94673230D02*
X197250533Y-94793630D01*
X197687548Y-94551880D02*
X197468300Y-94673230D01*
X197907086Y-94429390D02*
X197687548Y-94551880D01*
X198125722Y-94305590D02*
X197907086Y-94429390D01*
X198342260Y-94180340D02*
X198125722Y-94305590D01*
X198555510Y-94053470D02*
X198342260Y-94180340D01*
X198764278Y-93924790D02*
X198555510Y-94053470D01*
X198967371Y-93794160D02*
X198764278Y-93924790D01*
X199163597Y-93661400D02*
X198967371Y-93794160D01*
X199351763Y-93526360D02*
X199163597Y-93661400D01*
X199530674Y-93388850D02*
X199351763Y-93526360D01*
X199699140Y-93248730D02*
X199530674Y-93388850D01*
X199855967Y-93105810D02*
X199699140Y-93248730D01*
X200147136Y-92825340D02*
X199855967Y-93105810D01*
X200416413Y-92560490D02*
X200147136Y-92825340D01*
X200661103Y-92309920D02*
X200416413Y-92560490D01*
X200878514Y-92072320D02*
X200661103Y-92309920D01*
X201065951Y-91846360D02*
X200878514Y-92072320D01*
X201220723Y-91630710D02*
X201065951Y-91846360D01*
X201340135Y-91424040D02*
X201220723Y-91630710D01*
X201421485Y-91225040D02*
X201340135Y-91424040D01*
X201462105Y-91032380D02*
X201421485Y-91225040D01*
X201459305Y-90844740D02*
X201462105Y-91032380D01*
X201410345Y-90660770D02*
X201459305Y-90844740D01*
X201312565Y-90479170D02*
X201410345Y-90660770D01*
X201163260Y-90298600D02*
X201312565Y-90479170D01*
X200959742Y-90117750D02*
X201163260Y-90298600D01*
X200699318Y-89935290D02*
X200959742Y-90117750D01*
X200379294Y-89749880D02*
X200699318Y-89935290D01*
X200176535Y-89649330D02*
X200379294Y-89749880D01*
X199943337Y-89534920D02*
X200176535Y-89649330D01*
X199681239Y-89406800D02*
X199943337Y-89534920D01*
X199391775Y-89265030D02*
X199681239Y-89406800D01*
X199076484Y-89109750D02*
X199391775Y-89265030D01*
X198736901Y-88941010D02*
X199076484Y-89109750D01*
X198374562Y-88758920D02*
X198736901Y-88941010D01*
X197991004Y-88563570D02*
X198374562Y-88758920D01*
X197587763Y-88355050D02*
X197991004Y-88563570D01*
X197166376Y-88133450D02*
X197587763Y-88355050D01*
X196728379Y-87898860D02*
X197166376Y-88133450D01*
X196275308Y-87651370D02*
X196728379Y-87898860D01*
X195808700Y-87391080D02*
X196275308Y-87651370D01*
X195330091Y-87118080D02*
X195808700Y-87391080D01*
X194841018Y-86832440D02*
X195330091Y-87118080D01*
X194343016Y-86534290D02*
X194841018Y-86832440D01*
X193837622Y-86223690D02*
X194343016Y-86534290D01*
X193326373Y-85900750D02*
X193837622Y-86223690D01*
X192810805Y-85565550D02*
X193326373Y-85900750D01*
X192292454Y-85218180D02*
X192810805Y-85565550D01*
X191772857Y-84858750D02*
X192292454Y-85218180D01*
X191253550Y-84487330D02*
X191772857Y-84858750D01*
X190736069Y-84104010D02*
X191253550Y-84487330D01*
X190221952Y-83708910D02*
X190736069Y-84104010D01*
X189712733Y-83302090D02*
X190221952Y-83708910D01*
X189209951Y-82883650D02*
X189712733Y-83302090D01*
X188715140Y-82453700D02*
X189209951Y-82883650D01*
X188229837Y-82012310D02*
X188715140Y-82453700D01*
X187755580Y-81559580D02*
X188229837Y-82012310D01*
X187293903Y-81095600D02*
X187755580Y-81559580D01*
X186846343Y-80620460D02*
X187293903Y-81095600D01*
X186414437Y-80134250D02*
X186846343Y-80620460D01*
X185643911Y-79239990D02*
X186414437Y-80134250D01*
X185016965Y-78512810D02*
X185643911Y-79239990D01*
X184519154Y-77935860D02*
X185016965Y-78512810D01*
X184136033Y-77492260D02*
X184519154Y-77935860D01*
X183853154Y-77165160D02*
X184136033Y-77492260D01*
X183656071Y-76937680D02*
X183853154Y-77165160D01*
X183530336Y-76792990D02*
X183656071Y-76937680D01*
X183461506Y-76714290D02*
X183530336Y-76792990D01*
X183435126Y-76684490D02*
X183461506Y-76714290D01*
X183436726Y-76686490D02*
X183435126Y-76684490D01*
X183451926Y-76704290D02*
X183436726Y-76686490D01*
X183466246Y-76720590D02*
X183451926Y-76704290D01*
X183465246Y-76718590D02*
X183466246Y-76720590D01*
X183434456Y-76681190D02*
X183465246Y-76718590D01*
X183359456Y-76591690D02*
X183434456Y-76681190D01*
X183225780Y-76433170D02*
X183359456Y-76591690D01*
X182916554Y-76076520D02*
X183225780Y-76433170D01*
X182786222Y-75923260D02*
X182916554Y-76076520D01*
X182676044Y-75781900D02*
X182786222Y-75923260D01*
X182588994Y-75648840D02*
X182676044Y-75781900D01*
X182528054Y-75520480D02*
X182588994Y-75648840D01*
X182496184Y-75393220D02*
X182528054Y-75520480D01*
X182496369Y-75263440D02*
X182496184Y-75393220D01*
X182531579Y-75127580D02*
X182496369Y-75263440D01*
X182604789Y-74981980D02*
X182531579Y-75127580D01*
X182718979Y-74823090D02*
X182604789Y-74981980D01*
X182877122Y-74647270D02*
X182718979Y-74823090D01*
X183082191Y-74450940D02*
X182877122Y-74647270D01*
X183337159Y-74230480D02*
X183082191Y-74450940D01*
X184008698Y-73702820D02*
X183337159Y-74230480D01*
X184442490Y-73382770D02*
X184008698Y-73702820D01*
X184877566Y-73034450D02*
X184442490Y-73382770D01*
X185309926Y-72662460D02*
X184877566Y-73034450D01*
X185735573Y-72271350D02*
X185309926Y-72662460D01*
X186150507Y-71865730D02*
X185735573Y-72271350D01*
X186550729Y-71450160D02*
X186150507Y-71865730D01*
X186932241Y-71029240D02*
X186550729Y-71450160D01*
X187291045Y-70607540D02*
X186932241Y-71029240D01*
X187623142Y-70189630D02*
X187291045Y-70607540D01*
X187924532Y-69780100D02*
X187623142Y-70189630D01*
X188191219Y-69383540D02*
X187924532Y-69780100D01*
X188419201Y-69004510D02*
X188191219Y-69383540D01*
X188517431Y-68823020D02*
X188419201Y-69004510D01*
X188604481Y-68647620D02*
X188517431Y-68823020D01*
X188679851Y-68478890D02*
X188604481Y-68647620D01*
X188743051Y-68317430D02*
X188679851Y-68478890D01*
X188793581Y-68163770D02*
X188743051Y-68317430D01*
X188830941Y-68018510D02*
X188793581Y-68163770D01*
X188854621Y-67882220D02*
X188830941Y-68018510D01*
X188864121Y-67755460D02*
X188854621Y-67882220D01*
X188844151Y-67616530D02*
X188864121Y-67755460D01*
X188779971Y-67483180D02*
X188844151Y-67616530D01*
X188673049Y-67352700D02*
X188779971Y-67483180D01*
X188524870Y-67222460D02*
X188673049Y-67352700D01*
X188336915Y-67089810D02*
X188524870Y-67222460D01*
X188110661Y-66952080D02*
X188336915Y-67089810D01*
X187549184Y-66650790D02*
X188110661Y-66952080D01*
X186852276Y-66297330D02*
X187549184Y-66650790D01*
X186031778Y-65870470D02*
X186852276Y-66297330D01*
X185099529Y-65348950D02*
X186031778Y-65870470D01*
X184067369Y-64711540D02*
X185099529Y-65348950D01*
X183492371Y-64309680D02*
X184067369Y-64711540D01*
X182853168Y-63814700D02*
X183492371Y-64309680D01*
X182161191Y-63238880D02*
X182853168Y-63814700D01*
X181427871Y-62594460D02*
X182161191Y-63238880D01*
X180664641Y-61893680D02*
X181427871Y-62594460D01*
X179882930Y-61148840D02*
X180664641Y-61893680D01*
X179094172Y-60372160D02*
X179882930Y-61148840D01*
X178309798Y-59575890D02*
X179094172Y-60372160D01*
X177541238Y-58772320D02*
X178309798Y-59575890D01*
X176799925Y-57973690D02*
X177541238Y-58772320D01*
X176097290Y-57192250D02*
X176799925Y-57973690D01*
X175444763Y-56440260D02*
X176097290Y-57192250D01*
X174853778Y-55729990D02*
X175444763Y-56440260D01*
X174335766Y-55073670D02*
X174853778Y-55729990D01*
X173902157Y-54483570D02*
X174335766Y-55073670D01*
X173564384Y-53971950D02*
X173902157Y-54483570D01*
X173045469Y-53209030D02*
X173564384Y-53971950D01*
X172526555Y-52446090D02*
X173045469Y-53209030D01*
X172007641Y-51683170D02*
X172526555Y-52446090D01*
X171488726Y-50920230D02*
X172007641Y-51683170D01*
M02*
