G04 #@! TF.FileFunction,Copper,L2,Bot,Signal*
%FSLAX46Y46*%
G04 Gerber Fmt 4.6, Leading zero omitted, Abs format (unit mm)*
G04 Created by KiCad (PCBNEW 4.0.6+dfsg1-1) date Tue Sep 25 21:42:45 2018*
%MOMM*%
%LPD*%
G01*
G04 APERTURE LIST*
%ADD10C,0.100000*%
%ADD11R,1.500000X1.250000*%
%ADD12R,6.000000X7.000000*%
%ADD13R,2.000000X2.000000*%
%ADD14R,1.500000X3.200000*%
%ADD15R,1.200000X1.200000*%
%ADD16R,1.800000X3.500000*%
%ADD17R,0.400000X1.350000*%
%ADD18R,1.900000X1.900000*%
%ADD19R,1.000000X3.000000*%
%ADD20R,1.000000X1.000000*%
%ADD21R,1.500000X1.300000*%
%ADD22R,1.300000X1.500000*%
%ADD23R,1.800000X1.100000*%
%ADD24R,1.500000X1.500000*%
%ADD25R,1.550000X0.600000*%
%ADD26R,2.500000X1.000000*%
%ADD27R,4.000000X2.000000*%
%ADD28R,0.650000X1.560000*%
%ADD29R,2.500000X1.100000*%
%ADD30R,1.100000X2.500000*%
%ADD31R,0.450000X1.450000*%
%ADD32R,0.800000X0.900000*%
%ADD33R,0.900000X0.800000*%
%ADD34R,0.800000X1.900000*%
%ADD35C,0.600000*%
%ADD36C,0.400000*%
%ADD37C,0.300000*%
%ADD38C,0.500000*%
%ADD39C,0.150000*%
%ADD40C,0.250000*%
G04 APERTURE END LIST*
D10*
D11*
X169906000Y-129921000D03*
X167406000Y-129921000D03*
D12*
X127280000Y-116500000D03*
X209280000Y-116500000D03*
D13*
X166612000Y-99326000D03*
X166612000Y-92326000D03*
X173612000Y-92326000D03*
D11*
X188996000Y-129540000D03*
X191496000Y-129540000D03*
X144970500Y-103124000D03*
X142470500Y-103124000D03*
X189210000Y-103632000D03*
X186710000Y-103632000D03*
D14*
X182626000Y-96806000D03*
X182626000Y-100806000D03*
D11*
X179344000Y-82804000D03*
X181844000Y-82804000D03*
D15*
X150114000Y-130218000D03*
X150114000Y-132418000D03*
X152146000Y-130218000D03*
X152146000Y-132418000D03*
D16*
X162814000Y-98258000D03*
X162814000Y-93258000D03*
D17*
X167356000Y-132425000D03*
X168006000Y-132425000D03*
X169956000Y-132425000D03*
X169306000Y-132425000D03*
X168656000Y-132425000D03*
D18*
X172606000Y-135100000D03*
X164706000Y-135100000D03*
D19*
X170688000Y-58396000D03*
X170688000Y-52856000D03*
X168148000Y-58396000D03*
X168148000Y-52856000D03*
X165608000Y-58396000D03*
X165608000Y-52856000D03*
D20*
X177312000Y-94408000D03*
X177312000Y-97108000D03*
X177312000Y-95758000D03*
D21*
X149769500Y-103124000D03*
X147069500Y-103124000D03*
X158830000Y-132588000D03*
X156130000Y-132588000D03*
X158830000Y-130556000D03*
X156130000Y-130556000D03*
D22*
X175387000Y-131779000D03*
X175387000Y-129079000D03*
D21*
X144974000Y-91694000D03*
X147674000Y-91694000D03*
X179244000Y-72136000D03*
X181944000Y-72136000D03*
D22*
X154769500Y-83900000D03*
X154769500Y-81200000D03*
X152610500Y-83900000D03*
X152610500Y-81200000D03*
X183916000Y-72089000D03*
X183916000Y-69389000D03*
X156972000Y-81200000D03*
X156972000Y-83900000D03*
X157373000Y-77740500D03*
X157373000Y-75040500D03*
D21*
X179137000Y-80264000D03*
X181837000Y-80264000D03*
D23*
X151332000Y-70684000D03*
X157532000Y-70684000D03*
X151332000Y-66984000D03*
X157532000Y-66984000D03*
D24*
X175514000Y-134874000D03*
X195834000Y-129286000D03*
X186837000Y-89344500D03*
X140716000Y-129286000D03*
D25*
X180815000Y-132715000D03*
X180815000Y-131445000D03*
X180815000Y-130175000D03*
X180815000Y-128905000D03*
X186215000Y-128905000D03*
X186215000Y-130175000D03*
X186215000Y-131445000D03*
X186215000Y-132715000D03*
D26*
X186742000Y-100560000D03*
X186742000Y-99060000D03*
X186742000Y-97560000D03*
D27*
X190702000Y-99060000D03*
D10*
G36*
X187977000Y-98560000D02*
X188727000Y-98060000D01*
X188727000Y-100060000D01*
X187977000Y-99560000D01*
X187977000Y-98560000D01*
X187977000Y-98560000D01*
G37*
D28*
X143977000Y-96694000D03*
X144927000Y-96694000D03*
X145877000Y-96694000D03*
X145877000Y-99394000D03*
X143977000Y-99394000D03*
X144927000Y-99394000D03*
D29*
X175706000Y-69088000D03*
X175706000Y-71088000D03*
X175706000Y-73088000D03*
X175706000Y-75088000D03*
X175706000Y-77088000D03*
X175706000Y-79088000D03*
X175706000Y-81088000D03*
X175706000Y-83088000D03*
X160306000Y-83088000D03*
X160306000Y-81088000D03*
X160306000Y-79088000D03*
X160306000Y-77088000D03*
X160306000Y-75088000D03*
X160306000Y-73088000D03*
X160306000Y-71088000D03*
X160306000Y-69088000D03*
D30*
X173016000Y-84788000D03*
X171016000Y-84788000D03*
X169016000Y-84788000D03*
X167016000Y-84788000D03*
X165016000Y-84788000D03*
X163016000Y-84788000D03*
D24*
X183896000Y-89408000D03*
X161798000Y-134874000D03*
D31*
X149712000Y-100105000D03*
X149062000Y-100105000D03*
X148412000Y-100105000D03*
X147762000Y-100105000D03*
X147762000Y-94205000D03*
X148412000Y-94205000D03*
X149062000Y-94205000D03*
X149712000Y-94205000D03*
D11*
X183769000Y-67310000D03*
X181269000Y-67310000D03*
D32*
X180775000Y-69342000D03*
X178675000Y-69342000D03*
D33*
X185694000Y-69757000D03*
X185694000Y-67657000D03*
D34*
X178775000Y-74319000D03*
X180675000Y-74319000D03*
X179725000Y-77319000D03*
X157038000Y-95274000D03*
X158938000Y-95274000D03*
X157988000Y-98274000D03*
D21*
X181456000Y-65151000D03*
X178756000Y-65151000D03*
D35*
X174721200Y-100660200D03*
X180055200Y-100711000D03*
X184551000Y-98742500D03*
X179788500Y-98806000D03*
X168422000Y-128397000D03*
X194711000Y-103886000D03*
X188615000Y-107759500D03*
X186900500Y-92964000D03*
X152547000Y-90551000D03*
X170504800Y-87503000D03*
X169374500Y-54737000D03*
X179725000Y-78867000D03*
D36*
X184741500Y-131445000D03*
X160611500Y-132588000D03*
X160802000Y-130683000D03*
X184043000Y-131445000D03*
X177883500Y-66802000D03*
X182519000Y-70485000D03*
X182392000Y-68707000D03*
X179471000Y-67056000D03*
D37*
X179953600Y-100711000D02*
X180055200Y-100711000D01*
X149062000Y-100105000D02*
X149062000Y-100767000D01*
X149062000Y-100767000D02*
X148412000Y-101417000D01*
X148412000Y-100105000D02*
X148412000Y-101417000D01*
X148412000Y-101417000D02*
X148412000Y-104338000D01*
X145625500Y-107124500D02*
X142895000Y-107124500D01*
X148412000Y-104338000D02*
X145625500Y-107124500D01*
X142895000Y-107124500D02*
X142768000Y-107124500D01*
X142768000Y-107124500D02*
X142470500Y-106827000D01*
X142895000Y-107124500D02*
X141752000Y-108267500D01*
X127280000Y-116500000D02*
X133519500Y-116500000D01*
X133519500Y-116500000D02*
X141752000Y-108267500D01*
X142470500Y-107549000D02*
X142470500Y-106827000D01*
X141752000Y-108267500D02*
X142470500Y-107549000D01*
X142470500Y-106827000D02*
X142470500Y-103124000D01*
X143977000Y-99394000D02*
X143977000Y-99502000D01*
X143977000Y-99502000D02*
X142470500Y-101008500D01*
X142470500Y-101008500D02*
X142470500Y-103124000D01*
X127280000Y-116500000D02*
X133265500Y-116500000D01*
X133265500Y-116500000D02*
X133391000Y-116500000D01*
X133391000Y-116500000D02*
X140716000Y-123825000D01*
X140716000Y-123825000D02*
X140716000Y-129286000D01*
D38*
X127280000Y-116500000D02*
X127930000Y-116500000D01*
D37*
X149769500Y-103124000D02*
X175470500Y-103124000D01*
X175470500Y-103124000D02*
X179788500Y-98806000D01*
X190702000Y-99060000D02*
X188352000Y-99060000D01*
X188352000Y-99060000D02*
X186742000Y-99060000D01*
X177312000Y-97108000D02*
X178090500Y-97108000D01*
X184868500Y-99060000D02*
X186742000Y-99060000D01*
X184551000Y-98742500D02*
X184868500Y-99060000D01*
X178090500Y-97108000D02*
X179788500Y-98806000D01*
X189210000Y-103525000D02*
X190702000Y-102033000D01*
X190702000Y-102033000D02*
X190702000Y-99060000D01*
X189210000Y-103632000D02*
X190754000Y-103632000D01*
X190754000Y-103632000D02*
X203622000Y-116500000D01*
X203622000Y-116500000D02*
X209280000Y-116500000D01*
X189210000Y-103632000D02*
X189210000Y-103525000D01*
D38*
X190702000Y-99060000D02*
X191770000Y-99060000D01*
D37*
X188996000Y-129540000D02*
X188996000Y-130111500D01*
X188996000Y-130111500D02*
X190139000Y-131254500D01*
X194774500Y-129286000D02*
X195834000Y-129286000D01*
X192806000Y-131254500D02*
X194774500Y-129286000D01*
X190139000Y-131254500D02*
X192806000Y-131254500D01*
X186215000Y-128905000D02*
X188361000Y-128905000D01*
X188361000Y-128905000D02*
X188996000Y-129540000D01*
X195834000Y-129286000D02*
X195834000Y-124104400D01*
X195834000Y-124104400D02*
X203438400Y-116500000D01*
X203438400Y-116500000D02*
X209280000Y-116500000D01*
D39*
X166612000Y-99326000D02*
X169045000Y-99326000D01*
X172613000Y-95758000D02*
X177312000Y-95758000D01*
X169045000Y-99326000D02*
X172613000Y-95758000D01*
X162814000Y-98258000D02*
X165544000Y-98258000D01*
X165544000Y-98258000D02*
X166612000Y-99326000D01*
X157988000Y-97774000D02*
X159357500Y-97774000D01*
X159357500Y-97774000D02*
X162814000Y-94317500D01*
X162814000Y-94317500D02*
X162814000Y-93258000D01*
X162814000Y-93258000D02*
X165680000Y-93258000D01*
X165680000Y-93258000D02*
X166612000Y-92326000D01*
D37*
X152146000Y-130218000D02*
X153139000Y-130218000D01*
X179291000Y-127381000D02*
X180815000Y-128905000D01*
X155976000Y-127381000D02*
X179291000Y-127381000D01*
X153139000Y-130218000D02*
X155976000Y-127381000D01*
X180815000Y-128905000D02*
X181947500Y-128905000D01*
X181947500Y-128905000D02*
X183408000Y-130365500D01*
X183408000Y-130365500D02*
X183408000Y-132270500D01*
X183408000Y-132270500D02*
X183852500Y-132715000D01*
X175514000Y-134874000D02*
X181503000Y-134874000D01*
X181503000Y-134874000D02*
X183662000Y-132715000D01*
X183662000Y-132715000D02*
X183852500Y-132715000D01*
X183852500Y-132715000D02*
X186215000Y-132715000D01*
X180815000Y-128905000D02*
X179598000Y-128905000D01*
X179598000Y-128905000D02*
X178074000Y-130429000D01*
X178074000Y-130429000D02*
X170414000Y-130429000D01*
X170414000Y-130429000D02*
X169906000Y-129921000D01*
X169956000Y-132425000D02*
X169956000Y-129971000D01*
X169956000Y-129971000D02*
X169906000Y-129921000D01*
X150114000Y-130218000D02*
X152146000Y-130218000D01*
X181269000Y-67310000D02*
X180487000Y-67310000D01*
X180487000Y-67310000D02*
X180106000Y-67691000D01*
X178582000Y-61468000D02*
X180106000Y-62992000D01*
X175510000Y-58396000D02*
X178582000Y-61468000D01*
X170688000Y-58396000D02*
X175510000Y-58396000D01*
X180106000Y-67691000D02*
X179725000Y-68072000D01*
X180106000Y-62992000D02*
X180106000Y-67691000D01*
X180675000Y-74319000D02*
X180675000Y-75499000D01*
X181376000Y-76200000D02*
X181376000Y-79803000D01*
X180675000Y-75499000D02*
X181376000Y-76200000D01*
X181376000Y-79803000D02*
X181837000Y-80264000D01*
X180675000Y-71308000D02*
X180675000Y-74319000D01*
X179725000Y-68072000D02*
X179725000Y-70358000D01*
X179725000Y-70358000D02*
X180675000Y-71308000D01*
X179725000Y-68072000D02*
X179725000Y-68072000D01*
X148412000Y-94205000D02*
X148412000Y-93416000D01*
X148610000Y-93218000D02*
X148864000Y-93218000D01*
X148412000Y-93416000D02*
X148610000Y-93218000D01*
X149062000Y-94205000D02*
X149062000Y-96972000D01*
X153436000Y-98044000D02*
X154388500Y-97091500D01*
X150134000Y-98044000D02*
X153436000Y-98044000D01*
X149062000Y-96972000D02*
X150134000Y-98044000D01*
X154388500Y-97091500D02*
X154325000Y-97091500D01*
X147674000Y-91694000D02*
X147975000Y-91694000D01*
X147975000Y-91694000D02*
X149062000Y-92781000D01*
X149062000Y-92781000D02*
X149062000Y-94205000D01*
X168422000Y-128397000D02*
X168485500Y-128333500D01*
X186837000Y-89344500D02*
X186837000Y-92900500D01*
X186710000Y-105854500D02*
X186710000Y-103632000D01*
X188615000Y-107759500D02*
X186710000Y-105854500D01*
X186837000Y-92900500D02*
X186900500Y-92964000D01*
X186710000Y-103632000D02*
X186710000Y-122491500D01*
X191496000Y-127277500D02*
X191496000Y-129540000D01*
X186710000Y-122491500D02*
X191496000Y-127277500D01*
X157532000Y-66984000D02*
X157532000Y-60737500D01*
X169057000Y-55372000D02*
X170688000Y-57003000D01*
X162897500Y-55372000D02*
X169057000Y-55372000D01*
X157532000Y-60737500D02*
X162897500Y-55372000D01*
X170688000Y-57003000D02*
X170688000Y-58396000D01*
X154325000Y-97091500D02*
X154388500Y-97091500D01*
X154388500Y-97091500D02*
X154706000Y-96774000D01*
X154007500Y-96774000D02*
X153499500Y-96774000D01*
X154325000Y-97091500D02*
X154007500Y-96774000D01*
X186837000Y-89344500D02*
X186837000Y-87797000D01*
X186837000Y-87797000D02*
X181844000Y-82804000D01*
X151332000Y-66984000D02*
X151840000Y-66984000D01*
X151840000Y-66984000D02*
X154706000Y-69850000D01*
X154706000Y-69850000D02*
X154706000Y-76454000D01*
X154706000Y-76454000D02*
X151404000Y-79756000D01*
X151404000Y-79756000D02*
X151404000Y-91821000D01*
X157938000Y-96774000D02*
X158938000Y-95774000D01*
X154706000Y-96774000D02*
X157938000Y-96774000D01*
X153499500Y-96774000D02*
X154706000Y-96774000D01*
X151404000Y-94678500D02*
X153499500Y-96774000D01*
X151404000Y-92519500D02*
X151404000Y-94678500D01*
X151404000Y-91821000D02*
X151404000Y-92519500D01*
X151332000Y-66984000D02*
X157532000Y-66984000D01*
X181944000Y-82704000D02*
X181844000Y-82804000D01*
X158830000Y-92456000D02*
X158830000Y-85758000D01*
X158830000Y-85758000D02*
X156972000Y-83900000D01*
X156972000Y-83900000D02*
X158055000Y-83900000D01*
X158055000Y-83900000D02*
X158867000Y-83088000D01*
X158867000Y-83088000D02*
X161006000Y-83088000D01*
X158830000Y-92456000D02*
X158830000Y-95666000D01*
X158830000Y-95666000D02*
X158938000Y-95774000D01*
X186496000Y-100806000D02*
X182626000Y-100806000D01*
X186710000Y-103632000D02*
X186710000Y-100592000D01*
X186710000Y-100592000D02*
X186496000Y-100806000D01*
X167406000Y-129921000D02*
X161754500Y-129921000D01*
X161754500Y-129921000D02*
X160611500Y-128778000D01*
X160611500Y-128778000D02*
X155531500Y-128778000D01*
X155531500Y-128778000D02*
X153055000Y-131254500D01*
X153055000Y-131254500D02*
X146641500Y-131254500D01*
X146641500Y-131254500D02*
X145816000Y-130429000D01*
X145816000Y-130429000D02*
X145816000Y-129476500D01*
X145816000Y-129476500D02*
X148610000Y-126682500D01*
X148610000Y-126682500D02*
X188638500Y-126682500D01*
X188638500Y-126682500D02*
X191496000Y-129540000D01*
X161798000Y-134874000D02*
X161798000Y-132036500D01*
X163913500Y-129921000D02*
X167406000Y-129921000D01*
X161798000Y-132036500D02*
X163913500Y-129921000D01*
X175387000Y-129079000D02*
X173549000Y-129079000D01*
X172803500Y-128333500D02*
X168485500Y-128333500D01*
X173549000Y-129079000D02*
X172803500Y-128333500D01*
X168485500Y-128397000D02*
X168422000Y-128397000D01*
X168485500Y-128333500D02*
X168485500Y-128397000D01*
X180815000Y-132715000D02*
X178455000Y-132715000D01*
X163512500Y-133159500D02*
X161798000Y-134874000D01*
X165564500Y-133159500D02*
X163512500Y-133159500D01*
X166834500Y-134429500D02*
X165564500Y-133159500D01*
X170454000Y-134429500D02*
X166834500Y-134429500D01*
X171597000Y-133286500D02*
X170454000Y-134429500D01*
X177883500Y-133286500D02*
X171597000Y-133286500D01*
X178455000Y-132715000D02*
X177883500Y-133286500D01*
X167406000Y-129921000D02*
X167406000Y-129413000D01*
X167406000Y-129413000D02*
X168422000Y-128397000D01*
X167356000Y-132425000D02*
X167356000Y-129971000D01*
X167356000Y-129971000D02*
X167406000Y-129921000D01*
D39*
X144927000Y-99394000D02*
X144927000Y-103080500D01*
X144927000Y-103080500D02*
X144970500Y-103124000D01*
X147069500Y-103124000D02*
X144970500Y-103124000D01*
D37*
X170688000Y-54463000D02*
X170688000Y-52856000D01*
X174010000Y-57785000D02*
X170688000Y-54463000D01*
X175788000Y-57785000D02*
X174010000Y-57785000D01*
X181456000Y-63453000D02*
X175788000Y-57785000D01*
X181456000Y-65151000D02*
X181456000Y-63453000D01*
X183916000Y-72089000D02*
X185106000Y-72089000D01*
X184551000Y-65786000D02*
X182091000Y-65786000D01*
X185313000Y-66548000D02*
X184551000Y-65786000D01*
X186329000Y-66548000D02*
X185313000Y-66548000D01*
X187345000Y-67564000D02*
X186329000Y-66548000D01*
X187345000Y-69850000D02*
X187345000Y-67564000D01*
X185106000Y-72089000D02*
X187345000Y-69850000D01*
X182091000Y-65786000D02*
X181456000Y-65151000D01*
X181944000Y-72136000D02*
X183869000Y-72136000D01*
X183869000Y-72136000D02*
X183916000Y-72089000D01*
X152610500Y-83900000D02*
X152610500Y-90487500D01*
X152610500Y-90487500D02*
X152547000Y-90551000D01*
X175076800Y-87503000D02*
X179344000Y-83235800D01*
X170504800Y-87503000D02*
X175076800Y-87503000D01*
X179344000Y-83235800D02*
X179344000Y-82804000D01*
X170688000Y-52856000D02*
X170688000Y-53423500D01*
X170688000Y-53423500D02*
X169374500Y-54737000D01*
X170732000Y-52856000D02*
X170688000Y-52856000D01*
X177312000Y-94408000D02*
X180228000Y-94408000D01*
X180228000Y-94408000D02*
X182626000Y-96806000D01*
X181944000Y-72136000D02*
X181944000Y-76641000D01*
X188615000Y-95687000D02*
X186742000Y-97560000D01*
X188615000Y-87185500D02*
X188615000Y-95687000D01*
X183535000Y-82105500D02*
X188615000Y-87185500D01*
X183535000Y-78232000D02*
X183535000Y-82105500D01*
X181944000Y-76641000D02*
X183535000Y-78232000D01*
X183896000Y-89408000D02*
X183896000Y-89324500D01*
X183896000Y-89324500D02*
X179344000Y-84772500D01*
X179344000Y-84772500D02*
X179344000Y-82804000D01*
X152610500Y-83900000D02*
X154769500Y-83900000D01*
X186742000Y-97560000D02*
X187067000Y-97560000D01*
X179344000Y-82804000D02*
X177883500Y-82804000D01*
X177599500Y-83088000D02*
X175006000Y-83088000D01*
X177883500Y-82804000D02*
X177599500Y-83088000D01*
X183896000Y-89408000D02*
X183896000Y-92285500D01*
X182626000Y-93555500D02*
X182626000Y-96806000D01*
X183896000Y-92285500D02*
X182626000Y-93555500D01*
X186742000Y-97560000D02*
X183380000Y-97560000D01*
X183380000Y-97560000D02*
X182626000Y-96806000D01*
D39*
X156130000Y-132588000D02*
X155448000Y-132588000D01*
X155448000Y-132588000D02*
X154051000Y-133985000D01*
X154051000Y-133985000D02*
X151003000Y-133985000D01*
X151003000Y-133985000D02*
X150114000Y-133096000D01*
X150114000Y-133096000D02*
X150114000Y-132418000D01*
X156130000Y-130556000D02*
X155194000Y-130556000D01*
X153332000Y-132418000D02*
X152146000Y-132418000D01*
X155194000Y-130556000D02*
X153332000Y-132418000D01*
X161006000Y-69088000D02*
X160294000Y-69088000D01*
X160294000Y-69088000D02*
X159087500Y-67881500D01*
X159087500Y-67881500D02*
X159087500Y-60579000D01*
X159087500Y-60579000D02*
X163405500Y-56261000D01*
X163405500Y-56261000D02*
X167025000Y-56261000D01*
X167025000Y-56261000D02*
X168148000Y-57384000D01*
X168148000Y-57384000D02*
X168148000Y-58396000D01*
X165608000Y-58396000D02*
X161715000Y-58396000D01*
X162421500Y-71088000D02*
X161006000Y-71088000D01*
X162770500Y-70739000D02*
X162421500Y-71088000D01*
X162770500Y-68643500D02*
X162770500Y-70739000D01*
X162072000Y-67945000D02*
X162770500Y-68643500D01*
X160357500Y-67945000D02*
X162072000Y-67945000D01*
X159387502Y-66975002D02*
X160357500Y-67945000D01*
X159387502Y-60723498D02*
X159387502Y-66975002D01*
X161715000Y-58396000D02*
X159387502Y-60723498D01*
X143977000Y-96694000D02*
X143977000Y-97602000D01*
X147762000Y-98847000D02*
X147762000Y-100105000D01*
X146832000Y-97917000D02*
X147762000Y-98847000D01*
X144292000Y-97917000D02*
X146832000Y-97917000D01*
X143977000Y-97602000D02*
X144292000Y-97917000D01*
X145877000Y-96694000D02*
X147260000Y-96694000D01*
X147762000Y-96192000D02*
X147762000Y-94205000D01*
X147260000Y-96694000D02*
X147762000Y-96192000D01*
X178775000Y-74319000D02*
X178775000Y-79902000D01*
X178775000Y-79902000D02*
X179137000Y-80264000D01*
X175006000Y-79088000D02*
X177961000Y-79088000D01*
X177961000Y-79088000D02*
X179137000Y-80264000D01*
X175166000Y-79248000D02*
X175006000Y-79088000D01*
D37*
X179725000Y-76819000D02*
X179725000Y-78867000D01*
D39*
X157373000Y-77740500D02*
X156785000Y-77740500D01*
X156785000Y-77740500D02*
X154769500Y-79756000D01*
X154769500Y-79756000D02*
X154007500Y-79756000D01*
X154007500Y-79756000D02*
X153690000Y-80073500D01*
X153690000Y-80073500D02*
X153690000Y-82169000D01*
X153690000Y-82169000D02*
X154007500Y-82486500D01*
X154007500Y-82486500D02*
X155595000Y-82486500D01*
X155595000Y-82486500D02*
X155849000Y-82740500D01*
X155849000Y-82740500D02*
X155849000Y-92175000D01*
X155849000Y-92175000D02*
X156130000Y-92456000D01*
X155849000Y-92175000D02*
X156130000Y-92456000D01*
X156130000Y-92456000D02*
X156130000Y-94866000D01*
X156130000Y-94866000D02*
X157038000Y-95774000D01*
X186215000Y-131445000D02*
X184741500Y-131445000D01*
X160611500Y-132588000D02*
X158830000Y-132588000D01*
X160802000Y-130683000D02*
X160675000Y-130556000D01*
X158830000Y-130556000D02*
X160675000Y-130556000D01*
X185313000Y-130175000D02*
X186215000Y-130175000D01*
X184805000Y-130683000D02*
X185313000Y-130175000D01*
X184043000Y-131445000D02*
X184805000Y-130683000D01*
X159532000Y-130683000D02*
X158830000Y-130556000D01*
X158830000Y-130556000D02*
X159405000Y-130556000D01*
X158830000Y-130556000D02*
X159131000Y-130556000D01*
X158830000Y-130556000D02*
X159258000Y-130556000D01*
X175387000Y-131779000D02*
X177847000Y-131779000D01*
X178181000Y-131445000D02*
X180815000Y-131445000D01*
X177847000Y-131779000D02*
X178181000Y-131445000D01*
X144927000Y-96694000D02*
X144927000Y-91741000D01*
X144927000Y-91741000D02*
X144974000Y-91694000D01*
X144974000Y-96647000D02*
X144927000Y-96694000D01*
X179244000Y-72136000D02*
X178518500Y-72136000D01*
X178518500Y-72136000D02*
X177566500Y-73088000D01*
X177566500Y-73088000D02*
X175006000Y-73088000D01*
X154769500Y-81200000D02*
X154769500Y-80518000D01*
X154769500Y-80518000D02*
X156199500Y-79088000D01*
X156199500Y-79088000D02*
X161006000Y-79088000D01*
X154940000Y-81200000D02*
X154940000Y-80665000D01*
X155849000Y-76708000D02*
X155849000Y-76644500D01*
X155849000Y-76644500D02*
X155976000Y-76517500D01*
X155976000Y-76517500D02*
X155849000Y-76390500D01*
X155849000Y-76390500D02*
X155849000Y-76327000D01*
X161006000Y-77088000D02*
X159277000Y-77088000D01*
X159277000Y-77088000D02*
X158706500Y-76517500D01*
X158706500Y-76517500D02*
X155976000Y-76517500D01*
X155976000Y-76517500D02*
X155849000Y-76517500D01*
X157532000Y-70684000D02*
X157532000Y-72675500D01*
X157532000Y-72675500D02*
X155849000Y-74358500D01*
X155849000Y-74358500D02*
X155849000Y-76327000D01*
X152610500Y-80010000D02*
X152610500Y-81200000D01*
X153245500Y-79375000D02*
X152610500Y-80010000D01*
X154325000Y-79375000D02*
X153245500Y-79375000D01*
X155849000Y-77851000D02*
X154325000Y-79375000D01*
X155849000Y-76327000D02*
X155849000Y-76517500D01*
X155849000Y-76517500D02*
X155849000Y-76708000D01*
X155849000Y-76708000D02*
X155849000Y-77851000D01*
X151332000Y-70684000D02*
X151539500Y-70684000D01*
X175006000Y-69088000D02*
X178421000Y-69088000D01*
X178421000Y-69088000D02*
X178675000Y-69342000D01*
X175006000Y-75088000D02*
X174041000Y-75088000D01*
X173946500Y-69088000D02*
X175006000Y-69088000D01*
X172803500Y-70231000D02*
X173946500Y-69088000D01*
X172803500Y-73850500D02*
X172803500Y-70231000D01*
X174041000Y-75088000D02*
X172803500Y-73850500D01*
X156972000Y-81200000D02*
X160894000Y-81200000D01*
X160894000Y-81200000D02*
X161006000Y-81088000D01*
X157373000Y-75040500D02*
X160958500Y-75040500D01*
X160958500Y-75040500D02*
X161006000Y-75088000D01*
X177883500Y-66802000D02*
X176931000Y-67754500D01*
X176931000Y-67754500D02*
X174391000Y-67754500D01*
X174391000Y-67754500D02*
X172168500Y-69977000D01*
X172168500Y-69977000D02*
X172168500Y-75501500D01*
X172168500Y-75501500D02*
X173755000Y-77088000D01*
X173755000Y-77088000D02*
X175006000Y-77088000D01*
D37*
X165477000Y-52856000D02*
X165608000Y-52856000D01*
X165608000Y-54336000D02*
X165608000Y-52856000D01*
X165608000Y-53868000D02*
X165608000Y-52856000D01*
D39*
X185326000Y-69389000D02*
X185694000Y-69757000D01*
X183916000Y-69389000D02*
X185326000Y-69389000D01*
X182519000Y-70485000D02*
X183615000Y-69389000D01*
X183615000Y-69389000D02*
X183916000Y-69389000D01*
X180775000Y-69342000D02*
X183869000Y-69342000D01*
X183869000Y-69342000D02*
X183916000Y-69389000D01*
X178756000Y-65151000D02*
X178756000Y-66341000D01*
X182392000Y-68707000D02*
X183769000Y-67330000D01*
X178756000Y-66341000D02*
X179471000Y-67056000D01*
X183769000Y-67330000D02*
X183769000Y-67310000D01*
X185694000Y-67657000D02*
X184116000Y-67657000D01*
X184116000Y-67657000D02*
X183769000Y-67310000D01*
X161006000Y-73088000D02*
X168486000Y-73088000D01*
X176597000Y-67310000D02*
X178756000Y-65151000D01*
X174264000Y-67310000D02*
X176597000Y-67310000D01*
X168486000Y-73088000D02*
X174264000Y-67310000D01*
X185694000Y-67657000D02*
X185474000Y-67657000D01*
D40*
G36*
X156054200Y-68148200D02*
X156062749Y-68193632D01*
X156089599Y-68235359D01*
X156130568Y-68263352D01*
X156179200Y-68273200D01*
X158783068Y-68273200D01*
X158703777Y-68389246D01*
X158673654Y-68538000D01*
X158673654Y-69638000D01*
X158699802Y-69776966D01*
X158781931Y-69904599D01*
X158907246Y-69990223D01*
X159056000Y-70020346D01*
X161556000Y-70020346D01*
X161694966Y-69994198D01*
X161822599Y-69912069D01*
X161908223Y-69786754D01*
X161938346Y-69638000D01*
X161938346Y-68538000D01*
X161917427Y-68426823D01*
X162320500Y-68829896D01*
X162320500Y-70552604D01*
X162235104Y-70638000D01*
X161938346Y-70638000D01*
X161938346Y-70538000D01*
X161912198Y-70399034D01*
X161830069Y-70271401D01*
X161704754Y-70185777D01*
X161556000Y-70155654D01*
X159056000Y-70155654D01*
X158917034Y-70181802D01*
X158814346Y-70247879D01*
X158814346Y-70134000D01*
X158788198Y-69995034D01*
X158706069Y-69867401D01*
X158580754Y-69781777D01*
X158432000Y-69751654D01*
X156632000Y-69751654D01*
X156493034Y-69777802D01*
X156365401Y-69859931D01*
X156279777Y-69985246D01*
X156249654Y-70134000D01*
X156249654Y-71234000D01*
X156275802Y-71372966D01*
X156357931Y-71500599D01*
X156483246Y-71586223D01*
X156632000Y-71616346D01*
X157082000Y-71616346D01*
X157082000Y-72489104D01*
X155530802Y-74040302D01*
X155433254Y-74186292D01*
X155399000Y-74358500D01*
X155399000Y-77664604D01*
X154138604Y-78925000D01*
X153245500Y-78925000D01*
X153073293Y-78959253D01*
X152927302Y-79056802D01*
X152292302Y-79691802D01*
X152194754Y-79837792D01*
X152160500Y-80010000D01*
X152160500Y-80067654D01*
X151960500Y-80067654D01*
X151821534Y-80093802D01*
X151693901Y-80175931D01*
X151608277Y-80301246D01*
X151578154Y-80450000D01*
X151578154Y-81950000D01*
X151604302Y-82088966D01*
X151686431Y-82216599D01*
X151811746Y-82302223D01*
X151960500Y-82332346D01*
X153260500Y-82332346D01*
X153272059Y-82330171D01*
X153274254Y-82341208D01*
X153338391Y-82437195D01*
X153371802Y-82487198D01*
X153689302Y-82804698D01*
X153835037Y-82902076D01*
X153767277Y-83001246D01*
X153737154Y-83150000D01*
X153737154Y-83375000D01*
X153642846Y-83375000D01*
X153642846Y-83150000D01*
X153616698Y-83011034D01*
X153534569Y-82883401D01*
X153409254Y-82797777D01*
X153260500Y-82767654D01*
X151960500Y-82767654D01*
X151821534Y-82793802D01*
X151693901Y-82875931D01*
X151608277Y-83001246D01*
X151578154Y-83150000D01*
X151578154Y-84650000D01*
X151604302Y-84788966D01*
X151686431Y-84916599D01*
X151811746Y-85002223D01*
X151960500Y-85032346D01*
X152085500Y-85032346D01*
X152085500Y-90057933D01*
X151975097Y-90168144D01*
X151872117Y-90416145D01*
X151871883Y-90684677D01*
X151974429Y-90932857D01*
X152164144Y-91122903D01*
X152412145Y-91225883D01*
X152680677Y-91226117D01*
X152928857Y-91123571D01*
X153118903Y-90933856D01*
X153221883Y-90685855D01*
X153222117Y-90417323D01*
X153135500Y-90207694D01*
X153135500Y-85032346D01*
X153260500Y-85032346D01*
X153399466Y-85006198D01*
X153527099Y-84924069D01*
X153612723Y-84798754D01*
X153642846Y-84650000D01*
X153642846Y-84425000D01*
X153737154Y-84425000D01*
X153737154Y-84650000D01*
X153763302Y-84788966D01*
X153845431Y-84916599D01*
X153970746Y-85002223D01*
X154119500Y-85032346D01*
X155399000Y-85032346D01*
X155399000Y-92175000D01*
X155433254Y-92347208D01*
X155500888Y-92448429D01*
X155530802Y-92493198D01*
X155680000Y-92642396D01*
X155680000Y-94866000D01*
X155714254Y-95038208D01*
X155795907Y-95160410D01*
X155811802Y-95184198D01*
X156255654Y-95628050D01*
X156255654Y-96224000D01*
X156281802Y-96362966D01*
X156363931Y-96490599D01*
X156489246Y-96576223D01*
X156638000Y-96606346D01*
X157438000Y-96606346D01*
X157576966Y-96580198D01*
X157704599Y-96498069D01*
X157790223Y-96372754D01*
X157820346Y-96224000D01*
X157820346Y-95480250D01*
X158013000Y-95480250D01*
X158013000Y-96328429D01*
X158092926Y-96521389D01*
X158240611Y-96669074D01*
X158433571Y-96749000D01*
X158731750Y-96749000D01*
X158863000Y-96617750D01*
X158863000Y-95349000D01*
X159013000Y-95349000D01*
X159013000Y-96617750D01*
X159144250Y-96749000D01*
X159442429Y-96749000D01*
X159635389Y-96669074D01*
X159783074Y-96521389D01*
X159863000Y-96328429D01*
X159863000Y-95480250D01*
X159731750Y-95349000D01*
X159013000Y-95349000D01*
X158863000Y-95349000D01*
X158144250Y-95349000D01*
X158013000Y-95480250D01*
X157820346Y-95480250D01*
X157820346Y-94324000D01*
X157800697Y-94219571D01*
X158013000Y-94219571D01*
X158013000Y-95067750D01*
X158144250Y-95199000D01*
X158863000Y-95199000D01*
X158863000Y-93930250D01*
X159013000Y-93930250D01*
X159013000Y-95199000D01*
X159731750Y-95199000D01*
X159863000Y-95067750D01*
X159863000Y-94219571D01*
X159783074Y-94026611D01*
X159635389Y-93878926D01*
X159442429Y-93799000D01*
X159144250Y-93799000D01*
X159013000Y-93930250D01*
X158863000Y-93930250D01*
X158731750Y-93799000D01*
X158433571Y-93799000D01*
X158240611Y-93878926D01*
X158092926Y-94026611D01*
X158013000Y-94219571D01*
X157800697Y-94219571D01*
X157794198Y-94185034D01*
X157712069Y-94057401D01*
X157586754Y-93971777D01*
X157438000Y-93941654D01*
X156638000Y-93941654D01*
X156580000Y-93952567D01*
X156580000Y-92456000D01*
X156545746Y-92283792D01*
X156448198Y-92137802D01*
X156299000Y-91988604D01*
X156299000Y-85175000D01*
X156765750Y-85175000D01*
X156897000Y-85043750D01*
X156897000Y-83975000D01*
X157047000Y-83975000D01*
X157047000Y-85043750D01*
X157178250Y-85175000D01*
X157726429Y-85175000D01*
X157919389Y-85095074D01*
X158067074Y-84947389D01*
X158147000Y-84754429D01*
X158147000Y-84106250D01*
X158015750Y-83975000D01*
X157047000Y-83975000D01*
X156897000Y-83975000D01*
X156877000Y-83975000D01*
X156877000Y-83825000D01*
X156897000Y-83825000D01*
X156897000Y-82756250D01*
X157047000Y-82756250D01*
X157047000Y-83825000D01*
X158015750Y-83825000D01*
X158147000Y-83693750D01*
X158147000Y-83294250D01*
X158531000Y-83294250D01*
X158531000Y-83742429D01*
X158610926Y-83935389D01*
X158758611Y-84083074D01*
X158951571Y-84163000D01*
X160099750Y-84163000D01*
X160231000Y-84031750D01*
X160231000Y-83163000D01*
X160381000Y-83163000D01*
X160381000Y-84031750D01*
X160512250Y-84163000D01*
X161660429Y-84163000D01*
X161853389Y-84083074D01*
X162001074Y-83935389D01*
X162081000Y-83742429D01*
X162081000Y-83538000D01*
X162083654Y-83538000D01*
X162083654Y-86038000D01*
X162109802Y-86176966D01*
X162191931Y-86304599D01*
X162317246Y-86390223D01*
X162466000Y-86420346D01*
X163566000Y-86420346D01*
X163704966Y-86394198D01*
X163832599Y-86312069D01*
X163918223Y-86186754D01*
X163948346Y-86038000D01*
X163948346Y-83538000D01*
X164083654Y-83538000D01*
X164083654Y-86038000D01*
X164109802Y-86176966D01*
X164191931Y-86304599D01*
X164317246Y-86390223D01*
X164466000Y-86420346D01*
X165566000Y-86420346D01*
X165704966Y-86394198D01*
X165832599Y-86312069D01*
X165918223Y-86186754D01*
X165948346Y-86038000D01*
X165948346Y-83538000D01*
X166083654Y-83538000D01*
X166083654Y-86038000D01*
X166109802Y-86176966D01*
X166191931Y-86304599D01*
X166317246Y-86390223D01*
X166466000Y-86420346D01*
X167566000Y-86420346D01*
X167704966Y-86394198D01*
X167832599Y-86312069D01*
X167918223Y-86186754D01*
X167948346Y-86038000D01*
X167948346Y-83538000D01*
X168083654Y-83538000D01*
X168083654Y-86038000D01*
X168109802Y-86176966D01*
X168191931Y-86304599D01*
X168317246Y-86390223D01*
X168466000Y-86420346D01*
X169566000Y-86420346D01*
X169704966Y-86394198D01*
X169832599Y-86312069D01*
X169918223Y-86186754D01*
X169948346Y-86038000D01*
X169948346Y-83538000D01*
X170083654Y-83538000D01*
X170083654Y-86038000D01*
X170109802Y-86176966D01*
X170191931Y-86304599D01*
X170317246Y-86390223D01*
X170466000Y-86420346D01*
X171566000Y-86420346D01*
X171704966Y-86394198D01*
X171832599Y-86312069D01*
X171918223Y-86186754D01*
X171948346Y-86038000D01*
X171948346Y-83538000D01*
X172083654Y-83538000D01*
X172083654Y-86038000D01*
X172109802Y-86176966D01*
X172191931Y-86304599D01*
X172317246Y-86390223D01*
X172466000Y-86420346D01*
X173566000Y-86420346D01*
X173704966Y-86394198D01*
X173832599Y-86312069D01*
X173918223Y-86186754D01*
X173948346Y-86038000D01*
X173948346Y-83538000D01*
X173922198Y-83399034D01*
X173840069Y-83271401D01*
X173714754Y-83185777D01*
X173566000Y-83155654D01*
X172466000Y-83155654D01*
X172327034Y-83181802D01*
X172199401Y-83263931D01*
X172113777Y-83389246D01*
X172083654Y-83538000D01*
X171948346Y-83538000D01*
X171922198Y-83399034D01*
X171840069Y-83271401D01*
X171714754Y-83185777D01*
X171566000Y-83155654D01*
X170466000Y-83155654D01*
X170327034Y-83181802D01*
X170199401Y-83263931D01*
X170113777Y-83389246D01*
X170083654Y-83538000D01*
X169948346Y-83538000D01*
X169922198Y-83399034D01*
X169840069Y-83271401D01*
X169714754Y-83185777D01*
X169566000Y-83155654D01*
X168466000Y-83155654D01*
X168327034Y-83181802D01*
X168199401Y-83263931D01*
X168113777Y-83389246D01*
X168083654Y-83538000D01*
X167948346Y-83538000D01*
X167922198Y-83399034D01*
X167840069Y-83271401D01*
X167714754Y-83185777D01*
X167566000Y-83155654D01*
X166466000Y-83155654D01*
X166327034Y-83181802D01*
X166199401Y-83263931D01*
X166113777Y-83389246D01*
X166083654Y-83538000D01*
X165948346Y-83538000D01*
X165922198Y-83399034D01*
X165840069Y-83271401D01*
X165714754Y-83185777D01*
X165566000Y-83155654D01*
X164466000Y-83155654D01*
X164327034Y-83181802D01*
X164199401Y-83263931D01*
X164113777Y-83389246D01*
X164083654Y-83538000D01*
X163948346Y-83538000D01*
X163922198Y-83399034D01*
X163840069Y-83271401D01*
X163714754Y-83185777D01*
X163566000Y-83155654D01*
X162466000Y-83155654D01*
X162327034Y-83181802D01*
X162199401Y-83263931D01*
X162113777Y-83389246D01*
X162083654Y-83538000D01*
X162081000Y-83538000D01*
X162081000Y-83294250D01*
X161949750Y-83163000D01*
X160381000Y-83163000D01*
X160231000Y-83163000D01*
X158662250Y-83163000D01*
X158531000Y-83294250D01*
X158147000Y-83294250D01*
X158147000Y-83045571D01*
X158067074Y-82852611D01*
X157919389Y-82704926D01*
X157726429Y-82625000D01*
X157178250Y-82625000D01*
X157047000Y-82756250D01*
X156897000Y-82756250D01*
X156765750Y-82625000D01*
X156276026Y-82625000D01*
X156264746Y-82568292D01*
X156167198Y-82422302D01*
X155913198Y-82168302D01*
X155877202Y-82144250D01*
X155776179Y-82076748D01*
X155801846Y-81950000D01*
X155801846Y-80450000D01*
X155939654Y-80450000D01*
X155939654Y-81950000D01*
X155965802Y-82088966D01*
X156047931Y-82216599D01*
X156173246Y-82302223D01*
X156322000Y-82332346D01*
X157622000Y-82332346D01*
X157760966Y-82306198D01*
X157888599Y-82224069D01*
X157974223Y-82098754D01*
X158004346Y-81950000D01*
X158004346Y-81650000D01*
X158675912Y-81650000D01*
X158699802Y-81776966D01*
X158781931Y-81904599D01*
X158907246Y-81990223D01*
X159019724Y-82013000D01*
X158951571Y-82013000D01*
X158758611Y-82092926D01*
X158610926Y-82240611D01*
X158531000Y-82433571D01*
X158531000Y-82881750D01*
X158662250Y-83013000D01*
X160231000Y-83013000D01*
X160231000Y-82993000D01*
X160381000Y-82993000D01*
X160381000Y-83013000D01*
X161949750Y-83013000D01*
X162081000Y-82881750D01*
X162081000Y-82433571D01*
X162001074Y-82240611D01*
X161853389Y-82092926D01*
X161660429Y-82013000D01*
X161595041Y-82013000D01*
X161694966Y-81994198D01*
X161822599Y-81912069D01*
X161908223Y-81786754D01*
X161938346Y-81638000D01*
X161938346Y-80538000D01*
X174073654Y-80538000D01*
X174073654Y-81638000D01*
X174099802Y-81776966D01*
X174181931Y-81904599D01*
X174307246Y-81990223D01*
X174456000Y-82020346D01*
X176956000Y-82020346D01*
X177094966Y-81994198D01*
X177222599Y-81912069D01*
X177308223Y-81786754D01*
X177338346Y-81638000D01*
X177338346Y-80538000D01*
X177312198Y-80399034D01*
X177230069Y-80271401D01*
X177104754Y-80185777D01*
X176956000Y-80155654D01*
X174456000Y-80155654D01*
X174317034Y-80181802D01*
X174189401Y-80263931D01*
X174103777Y-80389246D01*
X174073654Y-80538000D01*
X161938346Y-80538000D01*
X161912198Y-80399034D01*
X161830069Y-80271401D01*
X161704754Y-80185777D01*
X161556000Y-80155654D01*
X159056000Y-80155654D01*
X158917034Y-80181802D01*
X158789401Y-80263931D01*
X158703777Y-80389246D01*
X158673654Y-80538000D01*
X158673654Y-80750000D01*
X158004346Y-80750000D01*
X158004346Y-80450000D01*
X157978198Y-80311034D01*
X157896069Y-80183401D01*
X157770754Y-80097777D01*
X157622000Y-80067654D01*
X156322000Y-80067654D01*
X156183034Y-80093802D01*
X156055401Y-80175931D01*
X155969777Y-80301246D01*
X155939654Y-80450000D01*
X155801846Y-80450000D01*
X155775698Y-80311034D01*
X155711942Y-80211954D01*
X156385896Y-79538000D01*
X158673654Y-79538000D01*
X158673654Y-79638000D01*
X158699802Y-79776966D01*
X158781931Y-79904599D01*
X158907246Y-79990223D01*
X159056000Y-80020346D01*
X161556000Y-80020346D01*
X161694966Y-79994198D01*
X161822599Y-79912069D01*
X161908223Y-79786754D01*
X161938346Y-79638000D01*
X161938346Y-78538000D01*
X161912198Y-78399034D01*
X161830069Y-78271401D01*
X161704754Y-78185777D01*
X161556000Y-78155654D01*
X159056000Y-78155654D01*
X158917034Y-78181802D01*
X158789401Y-78263931D01*
X158703777Y-78389246D01*
X158673654Y-78538000D01*
X158673654Y-78638000D01*
X158375477Y-78638000D01*
X158405346Y-78490500D01*
X158405346Y-76990500D01*
X158401018Y-76967500D01*
X158520104Y-76967500D01*
X158673654Y-77121050D01*
X158673654Y-77638000D01*
X158699802Y-77776966D01*
X158781931Y-77904599D01*
X158907246Y-77990223D01*
X159056000Y-78020346D01*
X161556000Y-78020346D01*
X161694966Y-77994198D01*
X161822599Y-77912069D01*
X161908223Y-77786754D01*
X161938346Y-77638000D01*
X161938346Y-76538000D01*
X161912198Y-76399034D01*
X161830069Y-76271401D01*
X161704754Y-76185777D01*
X161556000Y-76155654D01*
X159056000Y-76155654D01*
X158980606Y-76169840D01*
X158878708Y-76101754D01*
X158706500Y-76067500D01*
X158285044Y-76067500D01*
X158289599Y-76064569D01*
X158375223Y-75939254D01*
X158405346Y-75790500D01*
X158405346Y-75490500D01*
X158673654Y-75490500D01*
X158673654Y-75638000D01*
X158699802Y-75776966D01*
X158781931Y-75904599D01*
X158907246Y-75990223D01*
X159056000Y-76020346D01*
X161556000Y-76020346D01*
X161694966Y-75994198D01*
X161822599Y-75912069D01*
X161908223Y-75786754D01*
X161938346Y-75638000D01*
X161938346Y-74538000D01*
X161912198Y-74399034D01*
X161830069Y-74271401D01*
X161704754Y-74185777D01*
X161556000Y-74155654D01*
X159056000Y-74155654D01*
X158917034Y-74181802D01*
X158789401Y-74263931D01*
X158703777Y-74389246D01*
X158673654Y-74538000D01*
X158673654Y-74590500D01*
X158405346Y-74590500D01*
X158405346Y-74290500D01*
X158379198Y-74151534D01*
X158297069Y-74023901D01*
X158171754Y-73938277D01*
X158023000Y-73908154D01*
X156935742Y-73908154D01*
X157850198Y-72993698D01*
X157947746Y-72847708D01*
X157982000Y-72675500D01*
X157982000Y-71616346D01*
X158432000Y-71616346D01*
X158570966Y-71590198D01*
X158673654Y-71524121D01*
X158673654Y-71638000D01*
X158699802Y-71776966D01*
X158781931Y-71904599D01*
X158907246Y-71990223D01*
X159056000Y-72020346D01*
X161556000Y-72020346D01*
X161694966Y-71994198D01*
X161822599Y-71912069D01*
X161908223Y-71786754D01*
X161938346Y-71638000D01*
X161938346Y-71538000D01*
X162421500Y-71538000D01*
X162593708Y-71503746D01*
X162739698Y-71406198D01*
X163088698Y-71057198D01*
X163186247Y-70911207D01*
X163220500Y-70739000D01*
X163220500Y-68643500D01*
X163186246Y-68471292D01*
X163088698Y-68325302D01*
X163036596Y-68273200D01*
X172664404Y-68273200D01*
X168299604Y-72638000D01*
X161938346Y-72638000D01*
X161938346Y-72538000D01*
X161912198Y-72399034D01*
X161830069Y-72271401D01*
X161704754Y-72185777D01*
X161556000Y-72155654D01*
X159056000Y-72155654D01*
X158917034Y-72181802D01*
X158789401Y-72263931D01*
X158703777Y-72389246D01*
X158673654Y-72538000D01*
X158673654Y-73638000D01*
X158699802Y-73776966D01*
X158781931Y-73904599D01*
X158907246Y-73990223D01*
X159056000Y-74020346D01*
X161556000Y-74020346D01*
X161694966Y-73994198D01*
X161822599Y-73912069D01*
X161908223Y-73786754D01*
X161938346Y-73638000D01*
X161938346Y-73538000D01*
X168486000Y-73538000D01*
X168658208Y-73503746D01*
X168804198Y-73406198D01*
X171718500Y-70491896D01*
X171718500Y-75501500D01*
X171752754Y-75673708D01*
X171831743Y-75791923D01*
X171850302Y-75819698D01*
X173436802Y-77406198D01*
X173582792Y-77503746D01*
X173755000Y-77538000D01*
X174073654Y-77538000D01*
X174073654Y-77638000D01*
X174099802Y-77776966D01*
X174181931Y-77904599D01*
X174307246Y-77990223D01*
X174456000Y-78020346D01*
X176956000Y-78020346D01*
X177094966Y-77994198D01*
X177222599Y-77912069D01*
X177308223Y-77786754D01*
X177338346Y-77638000D01*
X177338346Y-76538000D01*
X177312198Y-76399034D01*
X177230069Y-76271401D01*
X177104754Y-76185777D01*
X176956000Y-76155654D01*
X174456000Y-76155654D01*
X174317034Y-76181802D01*
X174189401Y-76263931D01*
X174103777Y-76389246D01*
X174073654Y-76538000D01*
X174073654Y-76638000D01*
X173941396Y-76638000D01*
X172618500Y-75315104D01*
X172618500Y-74301896D01*
X173722802Y-75406198D01*
X173868792Y-75503746D01*
X174041000Y-75538000D01*
X174073654Y-75538000D01*
X174073654Y-75638000D01*
X174099802Y-75776966D01*
X174181931Y-75904599D01*
X174307246Y-75990223D01*
X174456000Y-76020346D01*
X176956000Y-76020346D01*
X177094966Y-75994198D01*
X177222599Y-75912069D01*
X177308223Y-75786754D01*
X177338346Y-75638000D01*
X177338346Y-74538000D01*
X177312198Y-74399034D01*
X177230069Y-74271401D01*
X177104754Y-74185777D01*
X176956000Y-74155654D01*
X174456000Y-74155654D01*
X174317034Y-74181802D01*
X174189401Y-74263931D01*
X174103777Y-74389246D01*
X174082704Y-74493308D01*
X173253500Y-73664104D01*
X173253500Y-72538000D01*
X174073654Y-72538000D01*
X174073654Y-73638000D01*
X174099802Y-73776966D01*
X174181931Y-73904599D01*
X174307246Y-73990223D01*
X174456000Y-74020346D01*
X176956000Y-74020346D01*
X177094966Y-73994198D01*
X177222599Y-73912069D01*
X177308223Y-73786754D01*
X177338346Y-73638000D01*
X177338346Y-73538000D01*
X177566500Y-73538000D01*
X177738708Y-73503746D01*
X177884698Y-73406198D01*
X178010621Y-73280275D01*
X177992654Y-73369000D01*
X177992654Y-75269000D01*
X178018802Y-75407966D01*
X178100931Y-75535599D01*
X178226246Y-75621223D01*
X178325000Y-75641221D01*
X178325000Y-78815604D01*
X178279198Y-78769802D01*
X178260187Y-78757099D01*
X178133208Y-78672254D01*
X177961000Y-78638000D01*
X177338346Y-78638000D01*
X177338346Y-78538000D01*
X177312198Y-78399034D01*
X177230069Y-78271401D01*
X177104754Y-78185777D01*
X176956000Y-78155654D01*
X174456000Y-78155654D01*
X174317034Y-78181802D01*
X174189401Y-78263931D01*
X174103777Y-78389246D01*
X174073654Y-78538000D01*
X174073654Y-79638000D01*
X174099802Y-79776966D01*
X174181931Y-79904599D01*
X174307246Y-79990223D01*
X174456000Y-80020346D01*
X176956000Y-80020346D01*
X177094966Y-79994198D01*
X177222599Y-79912069D01*
X177308223Y-79786754D01*
X177338346Y-79638000D01*
X177338346Y-79538000D01*
X177774604Y-79538000D01*
X178004654Y-79768050D01*
X178004654Y-80914000D01*
X178030802Y-81052966D01*
X178112931Y-81180599D01*
X178238246Y-81266223D01*
X178387000Y-81296346D01*
X179887000Y-81296346D01*
X180025966Y-81270198D01*
X180153599Y-81188069D01*
X180239223Y-81062754D01*
X180269346Y-80914000D01*
X180269346Y-80470250D01*
X180562000Y-80470250D01*
X180562000Y-81018429D01*
X180641926Y-81211389D01*
X180789611Y-81359074D01*
X180982571Y-81439000D01*
X181630750Y-81439000D01*
X181762000Y-81307750D01*
X181762000Y-80339000D01*
X180693250Y-80339000D01*
X180562000Y-80470250D01*
X180269346Y-80470250D01*
X180269346Y-79614000D01*
X180249697Y-79509571D01*
X180562000Y-79509571D01*
X180562000Y-80057750D01*
X180693250Y-80189000D01*
X181762000Y-80189000D01*
X181762000Y-79220250D01*
X181630750Y-79089000D01*
X180982571Y-79089000D01*
X180789611Y-79168926D01*
X180641926Y-79316611D01*
X180562000Y-79509571D01*
X180249697Y-79509571D01*
X180243198Y-79475034D01*
X180175978Y-79370570D01*
X180296903Y-79249856D01*
X180399883Y-79001855D01*
X180400117Y-78733323D01*
X180336228Y-78578699D01*
X180391599Y-78543069D01*
X180477223Y-78417754D01*
X180507346Y-78269000D01*
X180507346Y-76369000D01*
X180481198Y-76230034D01*
X180399069Y-76102401D01*
X180273754Y-76016777D01*
X180125000Y-75986654D01*
X179325000Y-75986654D01*
X179225000Y-76005470D01*
X179225000Y-75641938D01*
X179313966Y-75625198D01*
X179441599Y-75543069D01*
X179527223Y-75417754D01*
X179557346Y-75269000D01*
X179557346Y-74525250D01*
X179750000Y-74525250D01*
X179750000Y-75373429D01*
X179829926Y-75566389D01*
X179977611Y-75714074D01*
X180170571Y-75794000D01*
X180468750Y-75794000D01*
X180600000Y-75662750D01*
X180600000Y-74394000D01*
X179881250Y-74394000D01*
X179750000Y-74525250D01*
X179557346Y-74525250D01*
X179557346Y-73369000D01*
X179531198Y-73230034D01*
X179491503Y-73168346D01*
X179789857Y-73168346D01*
X179750000Y-73264571D01*
X179750000Y-74112750D01*
X179881250Y-74244000D01*
X180600000Y-74244000D01*
X180600000Y-72975250D01*
X180468750Y-72844000D01*
X180364601Y-72844000D01*
X180376346Y-72786000D01*
X180376346Y-71486000D01*
X180350198Y-71347034D01*
X180268069Y-71219401D01*
X180142754Y-71133777D01*
X179994000Y-71103654D01*
X178494000Y-71103654D01*
X178355034Y-71129802D01*
X178227401Y-71211931D01*
X178141777Y-71337246D01*
X178111654Y-71486000D01*
X178111654Y-71906450D01*
X177380104Y-72638000D01*
X177338346Y-72638000D01*
X177338346Y-72538000D01*
X177312198Y-72399034D01*
X177230069Y-72271401D01*
X177104754Y-72185777D01*
X176956000Y-72155654D01*
X174456000Y-72155654D01*
X174317034Y-72181802D01*
X174189401Y-72263931D01*
X174103777Y-72389246D01*
X174073654Y-72538000D01*
X173253500Y-72538000D01*
X173253500Y-70538000D01*
X174073654Y-70538000D01*
X174073654Y-71638000D01*
X174099802Y-71776966D01*
X174181931Y-71904599D01*
X174307246Y-71990223D01*
X174456000Y-72020346D01*
X176956000Y-72020346D01*
X177094966Y-71994198D01*
X177222599Y-71912069D01*
X177308223Y-71786754D01*
X177338346Y-71638000D01*
X177338346Y-70538000D01*
X177312198Y-70399034D01*
X177230069Y-70271401D01*
X177104754Y-70185777D01*
X176956000Y-70155654D01*
X174456000Y-70155654D01*
X174317034Y-70181802D01*
X174189401Y-70263931D01*
X174103777Y-70389246D01*
X174073654Y-70538000D01*
X173253500Y-70538000D01*
X173253500Y-70417396D01*
X174073654Y-69597242D01*
X174073654Y-69638000D01*
X174099802Y-69776966D01*
X174181931Y-69904599D01*
X174307246Y-69990223D01*
X174456000Y-70020346D01*
X176956000Y-70020346D01*
X177094966Y-69994198D01*
X177222599Y-69912069D01*
X177308223Y-69786754D01*
X177338346Y-69638000D01*
X177338346Y-69538000D01*
X177892654Y-69538000D01*
X177892654Y-69792000D01*
X177918802Y-69930966D01*
X178000931Y-70058599D01*
X178126246Y-70144223D01*
X178275000Y-70174346D01*
X179075000Y-70174346D01*
X179213966Y-70148198D01*
X179341599Y-70066069D01*
X179427223Y-69940754D01*
X179457346Y-69792000D01*
X179457346Y-68892000D01*
X179431198Y-68753034D01*
X179349069Y-68625401D01*
X179223754Y-68539777D01*
X179075000Y-68509654D01*
X178275000Y-68509654D01*
X178136034Y-68535802D01*
X178008401Y-68617931D01*
X177994688Y-68638000D01*
X177338346Y-68638000D01*
X177338346Y-68538000D01*
X177312198Y-68399034D01*
X177231227Y-68273200D01*
X180114737Y-68273200D01*
X180221611Y-68380074D01*
X180414571Y-68460000D01*
X181062750Y-68460000D01*
X181194000Y-68328750D01*
X181194000Y-67385000D01*
X181174000Y-67385000D01*
X181174000Y-67235000D01*
X181194000Y-67235000D01*
X181194000Y-67215000D01*
X181344000Y-67215000D01*
X181344000Y-67235000D01*
X182412750Y-67235000D01*
X182544000Y-67103750D01*
X182544000Y-66580571D01*
X182486494Y-66441738D01*
X182727880Y-66446819D01*
X182666777Y-66536246D01*
X182636654Y-66685000D01*
X182636654Y-67825950D01*
X182544000Y-67918604D01*
X182544000Y-67516250D01*
X182412750Y-67385000D01*
X181344000Y-67385000D01*
X181344000Y-68328750D01*
X181475250Y-68460000D01*
X181871963Y-68460000D01*
X181817100Y-68592124D01*
X181816900Y-68820873D01*
X181846289Y-68892000D01*
X181557346Y-68892000D01*
X181531198Y-68753034D01*
X181449069Y-68625401D01*
X181323754Y-68539777D01*
X181175000Y-68509654D01*
X180375000Y-68509654D01*
X180236034Y-68535802D01*
X180108401Y-68617931D01*
X180022777Y-68743246D01*
X179992654Y-68892000D01*
X179992654Y-69792000D01*
X180018802Y-69930966D01*
X180100931Y-70058599D01*
X180226246Y-70144223D01*
X180375000Y-70174346D01*
X181175000Y-70174346D01*
X181313966Y-70148198D01*
X181441599Y-70066069D01*
X181527223Y-69940754D01*
X181557346Y-69792000D01*
X182575604Y-69792000D01*
X182457658Y-69909946D01*
X182405127Y-69909900D01*
X182193714Y-69997254D01*
X182031823Y-70158863D01*
X181944100Y-70370124D01*
X181943900Y-70598873D01*
X182031254Y-70810286D01*
X182192863Y-70972177D01*
X182404124Y-71059900D01*
X182632873Y-71060100D01*
X182844286Y-70972746D01*
X183006177Y-70811137D01*
X183093900Y-70599876D01*
X183093947Y-70546449D01*
X183143796Y-70496600D01*
X183266000Y-70521346D01*
X184566000Y-70521346D01*
X184704966Y-70495198D01*
X184832599Y-70413069D01*
X184899835Y-70314666D01*
X184969931Y-70423599D01*
X185095246Y-70509223D01*
X185244000Y-70539346D01*
X185913192Y-70539346D01*
X184948346Y-71504192D01*
X184948346Y-71339000D01*
X184922198Y-71200034D01*
X184840069Y-71072401D01*
X184714754Y-70986777D01*
X184566000Y-70956654D01*
X183266000Y-70956654D01*
X183127034Y-70982802D01*
X182999401Y-71064931D01*
X182917476Y-71184832D01*
X182842754Y-71133777D01*
X182694000Y-71103654D01*
X181194000Y-71103654D01*
X181055034Y-71129802D01*
X180927401Y-71211931D01*
X180841777Y-71337246D01*
X180811654Y-71486000D01*
X180811654Y-72786000D01*
X180831861Y-72893389D01*
X180750000Y-72975250D01*
X180750000Y-74244000D01*
X180770000Y-74244000D01*
X180770000Y-74394000D01*
X180750000Y-74394000D01*
X180750000Y-75662750D01*
X180881250Y-75794000D01*
X181179429Y-75794000D01*
X181372389Y-75714074D01*
X181419000Y-75667463D01*
X181419000Y-76641000D01*
X181458963Y-76841909D01*
X181572769Y-77012231D01*
X183010000Y-78449462D01*
X183010000Y-79294537D01*
X182884389Y-79168926D01*
X182691429Y-79089000D01*
X182043250Y-79089000D01*
X181912000Y-79220250D01*
X181912000Y-80189000D01*
X181932000Y-80189000D01*
X181932000Y-80339000D01*
X181912000Y-80339000D01*
X181912000Y-81307750D01*
X182043250Y-81439000D01*
X182691429Y-81439000D01*
X182884389Y-81359074D01*
X183010000Y-81233463D01*
X183010000Y-81852537D01*
X182891389Y-81733926D01*
X182698429Y-81654000D01*
X182050250Y-81654000D01*
X181919000Y-81785250D01*
X181919000Y-82729000D01*
X182987750Y-82729000D01*
X183119000Y-82597750D01*
X183119000Y-82409730D01*
X183163769Y-82476731D01*
X188090000Y-87402962D01*
X188090000Y-88436958D01*
X188032074Y-88297111D01*
X187884389Y-88149426D01*
X187691429Y-88069500D01*
X187043250Y-88069500D01*
X186912000Y-88200750D01*
X186912000Y-89269500D01*
X186932000Y-89269500D01*
X186932000Y-89419500D01*
X186912000Y-89419500D01*
X186912000Y-90488250D01*
X187043250Y-90619500D01*
X187691429Y-90619500D01*
X187884389Y-90539574D01*
X188032074Y-90391889D01*
X188090000Y-90252042D01*
X188090000Y-95469538D01*
X186881884Y-96677654D01*
X185492000Y-96677654D01*
X185353034Y-96703802D01*
X185225401Y-96785931D01*
X185139777Y-96911246D01*
X185114717Y-97035000D01*
X183758346Y-97035000D01*
X183758346Y-95206000D01*
X183732198Y-95067034D01*
X183650069Y-94939401D01*
X183524754Y-94853777D01*
X183376000Y-94823654D01*
X183151000Y-94823654D01*
X183151000Y-93772962D01*
X184267231Y-92656731D01*
X184381037Y-92486409D01*
X184421000Y-92285500D01*
X184421000Y-90540346D01*
X184646000Y-90540346D01*
X184784966Y-90514198D01*
X184912599Y-90432069D01*
X184998223Y-90306754D01*
X185028346Y-90158000D01*
X185028346Y-89550750D01*
X185562000Y-89550750D01*
X185562000Y-90198929D01*
X185641926Y-90391889D01*
X185789611Y-90539574D01*
X185982571Y-90619500D01*
X186630750Y-90619500D01*
X186762000Y-90488250D01*
X186762000Y-89419500D01*
X185693250Y-89419500D01*
X185562000Y-89550750D01*
X185028346Y-89550750D01*
X185028346Y-88658000D01*
X185002198Y-88519034D01*
X184983561Y-88490071D01*
X185562000Y-88490071D01*
X185562000Y-89138250D01*
X185693250Y-89269500D01*
X186762000Y-89269500D01*
X186762000Y-88200750D01*
X186630750Y-88069500D01*
X185982571Y-88069500D01*
X185789611Y-88149426D01*
X185641926Y-88297111D01*
X185562000Y-88490071D01*
X184983561Y-88490071D01*
X184920069Y-88391401D01*
X184794754Y-88305777D01*
X184646000Y-88275654D01*
X183589616Y-88275654D01*
X179869000Y-84555038D01*
X179869000Y-83811346D01*
X180094000Y-83811346D01*
X180232966Y-83785198D01*
X180360599Y-83703069D01*
X180446223Y-83577754D01*
X180476346Y-83429000D01*
X180476346Y-83010250D01*
X180569000Y-83010250D01*
X180569000Y-83533429D01*
X180648926Y-83726389D01*
X180796611Y-83874074D01*
X180989571Y-83954000D01*
X181637750Y-83954000D01*
X181769000Y-83822750D01*
X181769000Y-82879000D01*
X181919000Y-82879000D01*
X181919000Y-83822750D01*
X182050250Y-83954000D01*
X182698429Y-83954000D01*
X182891389Y-83874074D01*
X183039074Y-83726389D01*
X183119000Y-83533429D01*
X183119000Y-83010250D01*
X182987750Y-82879000D01*
X181919000Y-82879000D01*
X181769000Y-82879000D01*
X180700250Y-82879000D01*
X180569000Y-83010250D01*
X180476346Y-83010250D01*
X180476346Y-82179000D01*
X180456697Y-82074571D01*
X180569000Y-82074571D01*
X180569000Y-82597750D01*
X180700250Y-82729000D01*
X181769000Y-82729000D01*
X181769000Y-81785250D01*
X181637750Y-81654000D01*
X180989571Y-81654000D01*
X180796611Y-81733926D01*
X180648926Y-81881611D01*
X180569000Y-82074571D01*
X180456697Y-82074571D01*
X180450198Y-82040034D01*
X180368069Y-81912401D01*
X180242754Y-81826777D01*
X180094000Y-81796654D01*
X178594000Y-81796654D01*
X178455034Y-81822802D01*
X178327401Y-81904931D01*
X178241777Y-82030246D01*
X178211654Y-82179000D01*
X178211654Y-82279000D01*
X177883500Y-82279000D01*
X177682591Y-82318963D01*
X177512269Y-82432769D01*
X177382038Y-82563000D01*
X177338346Y-82563000D01*
X177338346Y-82538000D01*
X177312198Y-82399034D01*
X177230069Y-82271401D01*
X177104754Y-82185777D01*
X176956000Y-82155654D01*
X174456000Y-82155654D01*
X174317034Y-82181802D01*
X174189401Y-82263931D01*
X174103777Y-82389246D01*
X174073654Y-82538000D01*
X174073654Y-83638000D01*
X174099802Y-83776966D01*
X174181931Y-83904599D01*
X174307246Y-83990223D01*
X174456000Y-84020346D01*
X176956000Y-84020346D01*
X177094966Y-83994198D01*
X177222599Y-83912069D01*
X177308223Y-83786754D01*
X177338346Y-83638000D01*
X177338346Y-83613000D01*
X177599500Y-83613000D01*
X177800409Y-83573037D01*
X177970731Y-83459231D01*
X178100962Y-83329000D01*
X178211654Y-83329000D01*
X178211654Y-83429000D01*
X178237802Y-83567966D01*
X178250163Y-83587175D01*
X174859338Y-86978000D01*
X170934477Y-86978000D01*
X170887656Y-86931097D01*
X170639655Y-86828117D01*
X170371123Y-86827883D01*
X170122943Y-86930429D01*
X169932897Y-87120144D01*
X169829917Y-87368145D01*
X169829683Y-87636677D01*
X169932229Y-87884857D01*
X170121944Y-88074903D01*
X170369945Y-88177883D01*
X170638477Y-88178117D01*
X170886657Y-88075571D01*
X170934311Y-88028000D01*
X175076800Y-88028000D01*
X175277709Y-87988037D01*
X175448031Y-87874231D01*
X178819000Y-84503262D01*
X178819000Y-84772500D01*
X178858963Y-84973409D01*
X178972769Y-85143731D01*
X182763654Y-88934616D01*
X182763654Y-90158000D01*
X182789802Y-90296966D01*
X182871931Y-90424599D01*
X182997246Y-90510223D01*
X183146000Y-90540346D01*
X183371000Y-90540346D01*
X183371000Y-92068038D01*
X182254769Y-93184269D01*
X182140963Y-93354591D01*
X182101000Y-93555500D01*
X182101000Y-94823654D01*
X181876000Y-94823654D01*
X181737034Y-94849802D01*
X181609401Y-94931931D01*
X181562717Y-95000255D01*
X180599231Y-94036769D01*
X180428909Y-93922963D01*
X180228000Y-93883000D01*
X178189642Y-93883000D01*
X178168198Y-93769034D01*
X178086069Y-93641401D01*
X177960754Y-93555777D01*
X177812000Y-93525654D01*
X176812000Y-93525654D01*
X176673034Y-93551802D01*
X176545401Y-93633931D01*
X176459777Y-93759246D01*
X176429654Y-93908000D01*
X176429654Y-94908000D01*
X176455802Y-95046966D01*
X176478369Y-95082036D01*
X176459777Y-95109246D01*
X176429654Y-95258000D01*
X176429654Y-95308000D01*
X172613000Y-95308000D01*
X172440792Y-95342254D01*
X172324441Y-95419998D01*
X172294802Y-95439802D01*
X168858604Y-98876000D01*
X167994346Y-98876000D01*
X167994346Y-98326000D01*
X167968198Y-98187034D01*
X167886069Y-98059401D01*
X167760754Y-97973777D01*
X167612000Y-97943654D01*
X165866050Y-97943654D01*
X165862198Y-97939802D01*
X165849371Y-97931231D01*
X165716208Y-97842254D01*
X165544000Y-97808000D01*
X164096346Y-97808000D01*
X164096346Y-96508000D01*
X164070198Y-96369034D01*
X163988069Y-96241401D01*
X163862754Y-96155777D01*
X163714000Y-96125654D01*
X161914000Y-96125654D01*
X161775034Y-96151802D01*
X161647401Y-96233931D01*
X161561777Y-96359246D01*
X161531654Y-96508000D01*
X161531654Y-100008000D01*
X161557802Y-100146966D01*
X161639931Y-100274599D01*
X161765246Y-100360223D01*
X161914000Y-100390346D01*
X163714000Y-100390346D01*
X163852966Y-100364198D01*
X163980599Y-100282069D01*
X164066223Y-100156754D01*
X164096346Y-100008000D01*
X164096346Y-98708000D01*
X165229654Y-98708000D01*
X165229654Y-100326000D01*
X165255802Y-100464966D01*
X165337931Y-100592599D01*
X165463246Y-100678223D01*
X165612000Y-100708346D01*
X167612000Y-100708346D01*
X167750966Y-100682198D01*
X167878599Y-100600069D01*
X167964223Y-100474754D01*
X167994346Y-100326000D01*
X167994346Y-99776000D01*
X169045000Y-99776000D01*
X169217208Y-99741746D01*
X169363198Y-99644198D01*
X172799396Y-96208000D01*
X176429654Y-96208000D01*
X176429654Y-96258000D01*
X176455802Y-96396966D01*
X176478369Y-96432036D01*
X176459777Y-96459246D01*
X176429654Y-96608000D01*
X176429654Y-97608000D01*
X176455802Y-97746966D01*
X176537931Y-97874599D01*
X176663246Y-97960223D01*
X176812000Y-97990346D01*
X177812000Y-97990346D01*
X177950966Y-97964198D01*
X178078599Y-97882069D01*
X178096260Y-97856222D01*
X179046038Y-98806000D01*
X175253038Y-102599000D01*
X150901846Y-102599000D01*
X150901846Y-102474000D01*
X150875698Y-102335034D01*
X150793569Y-102207401D01*
X150668254Y-102121777D01*
X150519500Y-102091654D01*
X149019500Y-102091654D01*
X148937000Y-102107177D01*
X148937000Y-101634462D01*
X149375830Y-101195632D01*
X149390671Y-101192839D01*
X149487000Y-101212346D01*
X149937000Y-101212346D01*
X150075966Y-101186198D01*
X150203599Y-101104069D01*
X150289223Y-100978754D01*
X150319346Y-100830000D01*
X150319346Y-100793877D01*
X174046083Y-100793877D01*
X174148629Y-101042057D01*
X174338344Y-101232103D01*
X174586345Y-101335083D01*
X174854877Y-101335317D01*
X175103057Y-101232771D01*
X175293103Y-101043056D01*
X175396083Y-100795055D01*
X175396317Y-100526523D01*
X175293771Y-100278343D01*
X175104056Y-100088297D01*
X174856055Y-99985317D01*
X174587523Y-99985083D01*
X174339343Y-100087629D01*
X174149297Y-100277344D01*
X174046317Y-100525345D01*
X174046083Y-100793877D01*
X150319346Y-100793877D01*
X150319346Y-99380000D01*
X150293198Y-99241034D01*
X150211069Y-99113401D01*
X150085754Y-99027777D01*
X149937000Y-98997654D01*
X149487000Y-98997654D01*
X149383329Y-99017161D01*
X149287000Y-98997654D01*
X148837000Y-98997654D01*
X148733329Y-99017161D01*
X148637000Y-98997654D01*
X148212000Y-98997654D01*
X148212000Y-98847000D01*
X148203845Y-98806000D01*
X148177747Y-98674793D01*
X148080198Y-98528802D01*
X147150198Y-97598802D01*
X147116261Y-97576126D01*
X147004208Y-97501254D01*
X146832000Y-97467000D01*
X146584346Y-97467000D01*
X146584346Y-97324000D01*
X157205654Y-97324000D01*
X157205654Y-99224000D01*
X157231802Y-99362966D01*
X157313931Y-99490599D01*
X157439246Y-99576223D01*
X157588000Y-99606346D01*
X158388000Y-99606346D01*
X158526966Y-99580198D01*
X158654599Y-99498069D01*
X158740223Y-99372754D01*
X158770346Y-99224000D01*
X158770346Y-98224000D01*
X159357500Y-98224000D01*
X159529708Y-98189746D01*
X159675698Y-98092198D01*
X162377550Y-95390346D01*
X163714000Y-95390346D01*
X163852966Y-95364198D01*
X163980599Y-95282069D01*
X164066223Y-95156754D01*
X164096346Y-95008000D01*
X164096346Y-93708000D01*
X165610291Y-93708000D01*
X165612000Y-93708346D01*
X167612000Y-93708346D01*
X167750966Y-93682198D01*
X167878599Y-93600069D01*
X167964223Y-93474754D01*
X167994346Y-93326000D01*
X167994346Y-91326000D01*
X172229654Y-91326000D01*
X172229654Y-93326000D01*
X172255802Y-93464966D01*
X172337931Y-93592599D01*
X172463246Y-93678223D01*
X172612000Y-93708346D01*
X174612000Y-93708346D01*
X174750966Y-93682198D01*
X174878599Y-93600069D01*
X174964223Y-93474754D01*
X174994346Y-93326000D01*
X174994346Y-91326000D01*
X174968198Y-91187034D01*
X174886069Y-91059401D01*
X174760754Y-90973777D01*
X174612000Y-90943654D01*
X172612000Y-90943654D01*
X172473034Y-90969802D01*
X172345401Y-91051931D01*
X172259777Y-91177246D01*
X172229654Y-91326000D01*
X167994346Y-91326000D01*
X167968198Y-91187034D01*
X167886069Y-91059401D01*
X167760754Y-90973777D01*
X167612000Y-90943654D01*
X165612000Y-90943654D01*
X165473034Y-90969802D01*
X165345401Y-91051931D01*
X165259777Y-91177246D01*
X165229654Y-91326000D01*
X165229654Y-92808000D01*
X164096346Y-92808000D01*
X164096346Y-91508000D01*
X164070198Y-91369034D01*
X163988069Y-91241401D01*
X163862754Y-91155777D01*
X163714000Y-91125654D01*
X161914000Y-91125654D01*
X161775034Y-91151802D01*
X161647401Y-91233931D01*
X161561777Y-91359246D01*
X161531654Y-91508000D01*
X161531654Y-94963450D01*
X159171104Y-97324000D01*
X158770346Y-97324000D01*
X158744198Y-97185034D01*
X158662069Y-97057401D01*
X158536754Y-96971777D01*
X158388000Y-96941654D01*
X157588000Y-96941654D01*
X157449034Y-96967802D01*
X157321401Y-97049931D01*
X157235777Y-97175246D01*
X157205654Y-97324000D01*
X146584346Y-97324000D01*
X146584346Y-97144000D01*
X147260000Y-97144000D01*
X147432208Y-97109746D01*
X147578198Y-97012198D01*
X148080198Y-96510198D01*
X148177746Y-96364208D01*
X148212000Y-96192000D01*
X148212000Y-95448750D01*
X148337000Y-95323750D01*
X148337000Y-95094785D01*
X148391926Y-95227389D01*
X148487000Y-95322463D01*
X148487000Y-95323750D01*
X148618250Y-95455000D01*
X148855750Y-95455000D01*
X148987000Y-95323750D01*
X148987000Y-95322463D01*
X149082074Y-95227389D01*
X149137000Y-95094785D01*
X149137000Y-95323750D01*
X149268250Y-95455000D01*
X149391429Y-95455000D01*
X149584389Y-95375074D01*
X149647117Y-95312346D01*
X149937000Y-95312346D01*
X150075966Y-95286198D01*
X150203599Y-95204069D01*
X150289223Y-95078754D01*
X150319346Y-94930000D01*
X150319346Y-93480000D01*
X150293198Y-93341034D01*
X150211069Y-93213401D01*
X150085754Y-93127777D01*
X149937000Y-93097654D01*
X149647117Y-93097654D01*
X149584389Y-93034926D01*
X149391429Y-92955000D01*
X149268250Y-92955000D01*
X149137000Y-93086250D01*
X149137000Y-93315215D01*
X149082074Y-93182611D01*
X148987000Y-93087537D01*
X148987000Y-93086250D01*
X148855750Y-92955000D01*
X148618250Y-92955000D01*
X148487000Y-93086250D01*
X148487000Y-93087537D01*
X148391926Y-93182611D01*
X148337000Y-93315215D01*
X148337000Y-93086250D01*
X148205750Y-92955000D01*
X148082571Y-92955000D01*
X147889611Y-93034926D01*
X147826883Y-93097654D01*
X147537000Y-93097654D01*
X147398034Y-93123802D01*
X147270401Y-93205931D01*
X147184777Y-93331246D01*
X147154654Y-93480000D01*
X147154654Y-94930000D01*
X147180802Y-95068966D01*
X147262931Y-95196599D01*
X147312000Y-95230126D01*
X147312000Y-96005604D01*
X147073604Y-96244000D01*
X146584346Y-96244000D01*
X146584346Y-95914000D01*
X146558198Y-95775034D01*
X146476069Y-95647401D01*
X146350754Y-95561777D01*
X146202000Y-95531654D01*
X145552000Y-95531654D01*
X145413034Y-95557802D01*
X145403714Y-95563799D01*
X145400754Y-95561777D01*
X145377000Y-95556967D01*
X145377000Y-92726346D01*
X145724000Y-92726346D01*
X145862966Y-92700198D01*
X145990599Y-92618069D01*
X146076223Y-92492754D01*
X146106346Y-92344000D01*
X146106346Y-91900250D01*
X146399000Y-91900250D01*
X146399000Y-92448429D01*
X146478926Y-92641389D01*
X146626611Y-92789074D01*
X146819571Y-92869000D01*
X147467750Y-92869000D01*
X147599000Y-92737750D01*
X147599000Y-91769000D01*
X147749000Y-91769000D01*
X147749000Y-92737750D01*
X147880250Y-92869000D01*
X148528429Y-92869000D01*
X148721389Y-92789074D01*
X148869074Y-92641389D01*
X148949000Y-92448429D01*
X148949000Y-91900250D01*
X148817750Y-91769000D01*
X147749000Y-91769000D01*
X147599000Y-91769000D01*
X146530250Y-91769000D01*
X146399000Y-91900250D01*
X146106346Y-91900250D01*
X146106346Y-91044000D01*
X146086697Y-90939571D01*
X146399000Y-90939571D01*
X146399000Y-91487750D01*
X146530250Y-91619000D01*
X147599000Y-91619000D01*
X147599000Y-90650250D01*
X147749000Y-90650250D01*
X147749000Y-91619000D01*
X148817750Y-91619000D01*
X148949000Y-91487750D01*
X148949000Y-90939571D01*
X148869074Y-90746611D01*
X148721389Y-90598926D01*
X148528429Y-90519000D01*
X147880250Y-90519000D01*
X147749000Y-90650250D01*
X147599000Y-90650250D01*
X147467750Y-90519000D01*
X146819571Y-90519000D01*
X146626611Y-90598926D01*
X146478926Y-90746611D01*
X146399000Y-90939571D01*
X146086697Y-90939571D01*
X146080198Y-90905034D01*
X145998069Y-90777401D01*
X145872754Y-90691777D01*
X145724000Y-90661654D01*
X144224000Y-90661654D01*
X144085034Y-90687802D01*
X143957401Y-90769931D01*
X143871777Y-90895246D01*
X143841654Y-91044000D01*
X143841654Y-92344000D01*
X143867802Y-92482966D01*
X143949931Y-92610599D01*
X144075246Y-92696223D01*
X144224000Y-92726346D01*
X144477000Y-92726346D01*
X144477000Y-95555174D01*
X144463034Y-95557802D01*
X144453714Y-95563799D01*
X144450754Y-95561777D01*
X144302000Y-95531654D01*
X143652000Y-95531654D01*
X143513034Y-95557802D01*
X143385401Y-95639931D01*
X143299777Y-95765246D01*
X143269654Y-95914000D01*
X143269654Y-97474000D01*
X143295802Y-97612966D01*
X143377931Y-97740599D01*
X143503246Y-97826223D01*
X143610525Y-97847947D01*
X143616137Y-97856346D01*
X143658802Y-97920198D01*
X143970258Y-98231654D01*
X143652000Y-98231654D01*
X143513034Y-98257802D01*
X143385401Y-98339931D01*
X143299777Y-98465246D01*
X143269654Y-98614000D01*
X143269654Y-99466884D01*
X142099269Y-100637269D01*
X141985463Y-100807591D01*
X141945500Y-101008500D01*
X141945500Y-102116654D01*
X141720500Y-102116654D01*
X141581534Y-102142802D01*
X141453901Y-102224931D01*
X141368277Y-102350246D01*
X141338154Y-102499000D01*
X141338154Y-103749000D01*
X141364302Y-103887966D01*
X141446431Y-104015599D01*
X141571746Y-104101223D01*
X141720500Y-104131346D01*
X141945500Y-104131346D01*
X141945500Y-107331538D01*
X133302038Y-115975000D01*
X130662346Y-115975000D01*
X130662346Y-113000000D01*
X130636198Y-112861034D01*
X130554069Y-112733401D01*
X130428754Y-112647777D01*
X130280000Y-112617654D01*
X124280000Y-112617654D01*
X124141034Y-112643802D01*
X124013401Y-112725931D01*
X123927777Y-112851246D01*
X123897654Y-113000000D01*
X123897654Y-120000000D01*
X123923802Y-120138966D01*
X124005931Y-120266599D01*
X124131246Y-120352223D01*
X124280000Y-120382346D01*
X130280000Y-120382346D01*
X130418966Y-120356198D01*
X130546599Y-120274069D01*
X130632223Y-120148754D01*
X130662346Y-120000000D01*
X130662346Y-117025000D01*
X133173538Y-117025000D01*
X140191000Y-124042462D01*
X140191000Y-128153654D01*
X139966000Y-128153654D01*
X139827034Y-128179802D01*
X139699401Y-128261931D01*
X139613777Y-128387246D01*
X139583654Y-128536000D01*
X139583654Y-130036000D01*
X139609802Y-130174966D01*
X139691931Y-130302599D01*
X139817246Y-130388223D01*
X139966000Y-130418346D01*
X141466000Y-130418346D01*
X141604966Y-130392198D01*
X141732599Y-130310069D01*
X141818223Y-130184754D01*
X141848346Y-130036000D01*
X141848346Y-128536000D01*
X141822198Y-128397034D01*
X141740069Y-128269401D01*
X141614754Y-128183777D01*
X141466000Y-128153654D01*
X141241000Y-128153654D01*
X141241000Y-123825000D01*
X141201037Y-123624091D01*
X141087231Y-123453769D01*
X134197712Y-116564250D01*
X143112462Y-107649500D01*
X145625500Y-107649500D01*
X145826409Y-107609537D01*
X145996731Y-107495731D01*
X148783231Y-104709231D01*
X148897037Y-104538909D01*
X148937000Y-104338000D01*
X148937000Y-104139640D01*
X149019500Y-104156346D01*
X150519500Y-104156346D01*
X150658466Y-104130198D01*
X150786099Y-104048069D01*
X150871723Y-103922754D01*
X150888835Y-103838250D01*
X185435000Y-103838250D01*
X185435000Y-104361429D01*
X185514926Y-104554389D01*
X185662611Y-104702074D01*
X185855571Y-104782000D01*
X186503750Y-104782000D01*
X186635000Y-104650750D01*
X186635000Y-103707000D01*
X186785000Y-103707000D01*
X186785000Y-104650750D01*
X186916250Y-104782000D01*
X187564429Y-104782000D01*
X187757389Y-104702074D01*
X187905074Y-104554389D01*
X187985000Y-104361429D01*
X187985000Y-103838250D01*
X187853750Y-103707000D01*
X186785000Y-103707000D01*
X186635000Y-103707000D01*
X185566250Y-103707000D01*
X185435000Y-103838250D01*
X150888835Y-103838250D01*
X150901846Y-103774000D01*
X150901846Y-103649000D01*
X175470500Y-103649000D01*
X175671409Y-103609037D01*
X175841731Y-103495231D01*
X178492285Y-100844677D01*
X179380083Y-100844677D01*
X179482629Y-101092857D01*
X179672344Y-101282903D01*
X179920345Y-101385883D01*
X180188877Y-101386117D01*
X180437057Y-101283571D01*
X180627103Y-101093856D01*
X180660989Y-101012250D01*
X181351000Y-101012250D01*
X181351000Y-102510429D01*
X181430926Y-102703389D01*
X181578611Y-102851074D01*
X181771571Y-102931000D01*
X182419750Y-102931000D01*
X182551000Y-102799750D01*
X182551000Y-100881000D01*
X182701000Y-100881000D01*
X182701000Y-102799750D01*
X182832250Y-102931000D01*
X183480429Y-102931000D01*
X183549063Y-102902571D01*
X185435000Y-102902571D01*
X185435000Y-103425750D01*
X185566250Y-103557000D01*
X186635000Y-103557000D01*
X186635000Y-102613250D01*
X186785000Y-102613250D01*
X186785000Y-103557000D01*
X187853750Y-103557000D01*
X187985000Y-103425750D01*
X187985000Y-102902571D01*
X187905074Y-102709611D01*
X187757389Y-102561926D01*
X187564429Y-102482000D01*
X186916250Y-102482000D01*
X186785000Y-102613250D01*
X186635000Y-102613250D01*
X186503750Y-102482000D01*
X185855571Y-102482000D01*
X185662611Y-102561926D01*
X185514926Y-102709611D01*
X185435000Y-102902571D01*
X183549063Y-102902571D01*
X183673389Y-102851074D01*
X183821074Y-102703389D01*
X183901000Y-102510429D01*
X183901000Y-101012250D01*
X183769750Y-100881000D01*
X182701000Y-100881000D01*
X182551000Y-100881000D01*
X181482250Y-100881000D01*
X181351000Y-101012250D01*
X180660989Y-101012250D01*
X180730083Y-100845855D01*
X180730152Y-100766250D01*
X184967000Y-100766250D01*
X184967000Y-101164429D01*
X185046926Y-101357389D01*
X185194611Y-101505074D01*
X185387571Y-101585000D01*
X186535750Y-101585000D01*
X186667000Y-101453750D01*
X186667000Y-100635000D01*
X186817000Y-100635000D01*
X186817000Y-101453750D01*
X186948250Y-101585000D01*
X188096429Y-101585000D01*
X188289389Y-101505074D01*
X188437074Y-101357389D01*
X188517000Y-101164429D01*
X188517000Y-100766250D01*
X188385750Y-100635000D01*
X186817000Y-100635000D01*
X186667000Y-100635000D01*
X185098250Y-100635000D01*
X184967000Y-100766250D01*
X180730152Y-100766250D01*
X180730317Y-100577323D01*
X180627771Y-100329143D01*
X180438056Y-100139097D01*
X180190055Y-100036117D01*
X179921523Y-100035883D01*
X179673343Y-100138429D01*
X179483297Y-100328144D01*
X179380317Y-100576145D01*
X179380083Y-100844677D01*
X178492285Y-100844677D01*
X179855903Y-99481059D01*
X179922177Y-99481117D01*
X180170357Y-99378571D01*
X180360403Y-99188856D01*
X180463383Y-98940855D01*
X180463617Y-98672323D01*
X180361071Y-98424143D01*
X180171356Y-98234097D01*
X179923355Y-98131117D01*
X179856020Y-98131058D01*
X178461731Y-96736769D01*
X178291409Y-96622963D01*
X178193497Y-96603487D01*
X178168198Y-96469034D01*
X178145631Y-96433964D01*
X178164223Y-96406754D01*
X178194346Y-96258000D01*
X178194346Y-95258000D01*
X178168198Y-95119034D01*
X178145631Y-95083964D01*
X178164223Y-95056754D01*
X178189283Y-94933000D01*
X180010538Y-94933000D01*
X181493654Y-96416116D01*
X181493654Y-98406000D01*
X181519802Y-98544966D01*
X181601931Y-98672599D01*
X181673611Y-98721576D01*
X181578611Y-98760926D01*
X181430926Y-98908611D01*
X181351000Y-99101571D01*
X181351000Y-100599750D01*
X181482250Y-100731000D01*
X182551000Y-100731000D01*
X182551000Y-100711000D01*
X182701000Y-100711000D01*
X182701000Y-100731000D01*
X183769750Y-100731000D01*
X183901000Y-100599750D01*
X183901000Y-99101571D01*
X183821074Y-98908611D01*
X183673389Y-98760926D01*
X183578210Y-98721502D01*
X183642599Y-98680069D01*
X183728223Y-98554754D01*
X183758346Y-98406000D01*
X183758346Y-98085000D01*
X184374687Y-98085000D01*
X184169143Y-98169929D01*
X183979097Y-98359644D01*
X183876117Y-98607645D01*
X183875883Y-98876177D01*
X183978429Y-99124357D01*
X184168144Y-99314403D01*
X184416145Y-99417383D01*
X184483480Y-99417442D01*
X184497269Y-99431231D01*
X184667591Y-99545037D01*
X184868500Y-99585000D01*
X185114358Y-99585000D01*
X185131806Y-99677731D01*
X185046926Y-99762611D01*
X184967000Y-99955571D01*
X184967000Y-100353750D01*
X185098250Y-100485000D01*
X186667000Y-100485000D01*
X186667000Y-100465000D01*
X186817000Y-100465000D01*
X186817000Y-100485000D01*
X188385750Y-100485000D01*
X188496975Y-100373775D01*
X188553246Y-100412223D01*
X188702000Y-100442346D01*
X190177000Y-100442346D01*
X190177000Y-101815538D01*
X189367884Y-102624654D01*
X188460000Y-102624654D01*
X188321034Y-102650802D01*
X188193401Y-102732931D01*
X188107777Y-102858246D01*
X188077654Y-103007000D01*
X188077654Y-104257000D01*
X188103802Y-104395966D01*
X188185931Y-104523599D01*
X188311246Y-104609223D01*
X188460000Y-104639346D01*
X189960000Y-104639346D01*
X190098966Y-104613198D01*
X190226599Y-104531069D01*
X190312223Y-104405754D01*
X190342346Y-104257000D01*
X190342346Y-104157000D01*
X190536538Y-104157000D01*
X202787738Y-116408200D01*
X195462769Y-123733169D01*
X195348963Y-123903491D01*
X195309000Y-124104400D01*
X195309000Y-128153654D01*
X195084000Y-128153654D01*
X194945034Y-128179802D01*
X194817401Y-128261931D01*
X194731777Y-128387246D01*
X194701654Y-128536000D01*
X194701654Y-128775490D01*
X194573591Y-128800963D01*
X194403269Y-128914769D01*
X192588538Y-130729500D01*
X190356462Y-130729500D01*
X190034288Y-130407326D01*
X190098223Y-130313754D01*
X190128346Y-130165000D01*
X190128346Y-129746250D01*
X190221000Y-129746250D01*
X190221000Y-130269429D01*
X190300926Y-130462389D01*
X190448611Y-130610074D01*
X190641571Y-130690000D01*
X191289750Y-130690000D01*
X191421000Y-130558750D01*
X191421000Y-129615000D01*
X191571000Y-129615000D01*
X191571000Y-130558750D01*
X191702250Y-130690000D01*
X192350429Y-130690000D01*
X192543389Y-130610074D01*
X192691074Y-130462389D01*
X192771000Y-130269429D01*
X192771000Y-129746250D01*
X192639750Y-129615000D01*
X191571000Y-129615000D01*
X191421000Y-129615000D01*
X190352250Y-129615000D01*
X190221000Y-129746250D01*
X190128346Y-129746250D01*
X190128346Y-128915000D01*
X190108697Y-128810571D01*
X190221000Y-128810571D01*
X190221000Y-129333750D01*
X190352250Y-129465000D01*
X191421000Y-129465000D01*
X191421000Y-128521250D01*
X191571000Y-128521250D01*
X191571000Y-129465000D01*
X192639750Y-129465000D01*
X192771000Y-129333750D01*
X192771000Y-128810571D01*
X192691074Y-128617611D01*
X192543389Y-128469926D01*
X192350429Y-128390000D01*
X191702250Y-128390000D01*
X191571000Y-128521250D01*
X191421000Y-128521250D01*
X191289750Y-128390000D01*
X190641571Y-128390000D01*
X190448611Y-128469926D01*
X190300926Y-128617611D01*
X190221000Y-128810571D01*
X190108697Y-128810571D01*
X190102198Y-128776034D01*
X190020069Y-128648401D01*
X189894754Y-128562777D01*
X189746000Y-128532654D01*
X188730562Y-128532654D01*
X188561909Y-128419963D01*
X188361000Y-128380000D01*
X187290837Y-128380000D01*
X187264069Y-128338401D01*
X187138754Y-128252777D01*
X186990000Y-128222654D01*
X185440000Y-128222654D01*
X185301034Y-128248802D01*
X185173401Y-128330931D01*
X185087777Y-128456246D01*
X185057654Y-128605000D01*
X185057654Y-129205000D01*
X185083802Y-129343966D01*
X185165931Y-129471599D01*
X185267034Y-129540680D01*
X185173401Y-129600931D01*
X185087777Y-129726246D01*
X185071751Y-129805386D01*
X184994802Y-129856802D01*
X183981658Y-130869946D01*
X183933000Y-130869903D01*
X183933000Y-130365500D01*
X183893037Y-130164591D01*
X183779231Y-129994269D01*
X182318731Y-128533769D01*
X182148409Y-128419963D01*
X181947500Y-128380000D01*
X181890837Y-128380000D01*
X181864069Y-128338401D01*
X181738754Y-128252777D01*
X181590000Y-128222654D01*
X180875116Y-128222654D01*
X179662231Y-127009769D01*
X179491909Y-126895963D01*
X179291000Y-126856000D01*
X155976000Y-126856000D01*
X155775091Y-126895963D01*
X155604769Y-127009769D01*
X153107472Y-129507066D01*
X153102198Y-129479034D01*
X153020069Y-129351401D01*
X152894754Y-129265777D01*
X152746000Y-129235654D01*
X151546000Y-129235654D01*
X151407034Y-129261802D01*
X151279401Y-129343931D01*
X151193777Y-129469246D01*
X151163654Y-129618000D01*
X151163654Y-129693000D01*
X151096346Y-129693000D01*
X151096346Y-129618000D01*
X151070198Y-129479034D01*
X150988069Y-129351401D01*
X150862754Y-129265777D01*
X150714000Y-129235654D01*
X149514000Y-129235654D01*
X149375034Y-129261802D01*
X149247401Y-129343931D01*
X149161777Y-129469246D01*
X149131654Y-129618000D01*
X149131654Y-130818000D01*
X149157802Y-130956966D01*
X149239931Y-131084599D01*
X149365246Y-131170223D01*
X149514000Y-131200346D01*
X150714000Y-131200346D01*
X150852966Y-131174198D01*
X150980599Y-131092069D01*
X151066223Y-130966754D01*
X151096346Y-130818000D01*
X151096346Y-130743000D01*
X151163654Y-130743000D01*
X151163654Y-130818000D01*
X151189802Y-130956966D01*
X151271931Y-131084599D01*
X151397246Y-131170223D01*
X151546000Y-131200346D01*
X152746000Y-131200346D01*
X152884966Y-131174198D01*
X153012599Y-131092069D01*
X153098223Y-130966754D01*
X153128346Y-130818000D01*
X153128346Y-130743000D01*
X153139000Y-130743000D01*
X153339909Y-130703037D01*
X153510231Y-130589231D01*
X154907891Y-129191571D01*
X166131000Y-129191571D01*
X166131000Y-129714750D01*
X166262250Y-129846000D01*
X167331000Y-129846000D01*
X167331000Y-128902250D01*
X167481000Y-128902250D01*
X167481000Y-129846000D01*
X168549750Y-129846000D01*
X168681000Y-129714750D01*
X168681000Y-129191571D01*
X168601074Y-128998611D01*
X168453389Y-128850926D01*
X168260429Y-128771000D01*
X167612250Y-128771000D01*
X167481000Y-128902250D01*
X167331000Y-128902250D01*
X167199750Y-128771000D01*
X166551571Y-128771000D01*
X166358611Y-128850926D01*
X166210926Y-128998611D01*
X166131000Y-129191571D01*
X154907891Y-129191571D01*
X156193462Y-127906000D01*
X174417537Y-127906000D01*
X174291926Y-128031611D01*
X174212000Y-128224571D01*
X174212000Y-128872750D01*
X174343250Y-129004000D01*
X175312000Y-129004000D01*
X175312000Y-128984000D01*
X175462000Y-128984000D01*
X175462000Y-129004000D01*
X176430750Y-129004000D01*
X176562000Y-128872750D01*
X176562000Y-128224571D01*
X176482074Y-128031611D01*
X176356463Y-127906000D01*
X179073538Y-127906000D01*
X179555910Y-128388372D01*
X179397091Y-128419963D01*
X179226769Y-128533769D01*
X177856538Y-129904000D01*
X176562000Y-129904000D01*
X176562000Y-129285250D01*
X176430750Y-129154000D01*
X175462000Y-129154000D01*
X175462000Y-129174000D01*
X175312000Y-129174000D01*
X175312000Y-129154000D01*
X174343250Y-129154000D01*
X174212000Y-129285250D01*
X174212000Y-129904000D01*
X171038346Y-129904000D01*
X171038346Y-129296000D01*
X171012198Y-129157034D01*
X170930069Y-129029401D01*
X170804754Y-128943777D01*
X170656000Y-128913654D01*
X169156000Y-128913654D01*
X169017034Y-128939802D01*
X168889401Y-129021931D01*
X168803777Y-129147246D01*
X168773654Y-129296000D01*
X168773654Y-130546000D01*
X168799802Y-130684966D01*
X168881931Y-130812599D01*
X169007246Y-130898223D01*
X169156000Y-130928346D01*
X169431000Y-130928346D01*
X169431000Y-131367654D01*
X169106000Y-131367654D01*
X168976411Y-131392038D01*
X168856000Y-131367654D01*
X168456000Y-131367654D01*
X168326411Y-131392038D01*
X168206000Y-131367654D01*
X167916117Y-131367654D01*
X167853389Y-131304926D01*
X167660429Y-131225000D01*
X167562250Y-131225000D01*
X167431000Y-131356250D01*
X167431000Y-131713724D01*
X167423654Y-131750000D01*
X167423654Y-133100000D01*
X167431000Y-133139041D01*
X167431000Y-133493750D01*
X167562250Y-133625000D01*
X167660429Y-133625000D01*
X167853389Y-133545074D01*
X167916117Y-133482346D01*
X168206000Y-133482346D01*
X168335589Y-133457962D01*
X168456000Y-133482346D01*
X168856000Y-133482346D01*
X168985589Y-133457962D01*
X169106000Y-133482346D01*
X169506000Y-133482346D01*
X169635589Y-133457962D01*
X169756000Y-133482346D01*
X170156000Y-133482346D01*
X170221376Y-133470045D01*
X170273144Y-133521903D01*
X170521145Y-133624883D01*
X170789677Y-133625117D01*
X171037857Y-133522571D01*
X171227903Y-133332856D01*
X171330883Y-133084855D01*
X171331025Y-132921250D01*
X179515000Y-132921250D01*
X179515000Y-133119429D01*
X179594926Y-133312389D01*
X179742611Y-133460074D01*
X179935571Y-133540000D01*
X180608750Y-133540000D01*
X180740000Y-133408750D01*
X180740000Y-132790000D01*
X180890000Y-132790000D01*
X180890000Y-133408750D01*
X181021250Y-133540000D01*
X181694429Y-133540000D01*
X181887389Y-133460074D01*
X182035074Y-133312389D01*
X182115000Y-133119429D01*
X182115000Y-132921250D01*
X181983750Y-132790000D01*
X180890000Y-132790000D01*
X180740000Y-132790000D01*
X179646250Y-132790000D01*
X179515000Y-132921250D01*
X171331025Y-132921250D01*
X171331117Y-132816323D01*
X171228571Y-132568143D01*
X171038856Y-132378097D01*
X170790855Y-132275117D01*
X170538346Y-132274897D01*
X170538346Y-131750000D01*
X170512198Y-131611034D01*
X170481000Y-131562551D01*
X170481000Y-130954000D01*
X174369842Y-130954000D01*
X174354654Y-131029000D01*
X174354654Y-132529000D01*
X174380802Y-132667966D01*
X174462931Y-132795599D01*
X174588246Y-132881223D01*
X174737000Y-132911346D01*
X176037000Y-132911346D01*
X176175966Y-132885198D01*
X176303599Y-132803069D01*
X176389223Y-132677754D01*
X176419346Y-132529000D01*
X176419346Y-132229000D01*
X177847000Y-132229000D01*
X178019208Y-132194746D01*
X178165198Y-132097198D01*
X178367396Y-131895000D01*
X179690902Y-131895000D01*
X179740484Y-131972053D01*
X179594926Y-132117611D01*
X179515000Y-132310571D01*
X179515000Y-132508750D01*
X179646250Y-132640000D01*
X180740000Y-132640000D01*
X180740000Y-132620000D01*
X180890000Y-132620000D01*
X180890000Y-132640000D01*
X181983750Y-132640000D01*
X182115000Y-132508750D01*
X182115000Y-132310571D01*
X182035074Y-132117611D01*
X181889045Y-131971582D01*
X181942223Y-131893754D01*
X181972346Y-131745000D01*
X181972346Y-131145000D01*
X181946198Y-131006034D01*
X181889516Y-130917947D01*
X182035074Y-130772389D01*
X182115000Y-130579429D01*
X182115000Y-130381250D01*
X181983750Y-130250000D01*
X180890000Y-130250000D01*
X180890000Y-130270000D01*
X180740000Y-130270000D01*
X180740000Y-130250000D01*
X179646250Y-130250000D01*
X179515000Y-130381250D01*
X179515000Y-130579429D01*
X179594926Y-130772389D01*
X179740955Y-130918418D01*
X179688628Y-130995000D01*
X178181000Y-130995000D01*
X178008792Y-131029254D01*
X177862802Y-131126802D01*
X177660604Y-131329000D01*
X176419346Y-131329000D01*
X176419346Y-131029000D01*
X176405234Y-130954000D01*
X178074000Y-130954000D01*
X178274909Y-130914037D01*
X178445231Y-130800231D01*
X179543361Y-129702101D01*
X179515000Y-129770571D01*
X179515000Y-129968750D01*
X179646250Y-130100000D01*
X180740000Y-130100000D01*
X180740000Y-130080000D01*
X180890000Y-130080000D01*
X180890000Y-130100000D01*
X181983750Y-130100000D01*
X182115000Y-129968750D01*
X182115000Y-129814962D01*
X182883000Y-130582962D01*
X182883000Y-132270500D01*
X182922963Y-132471409D01*
X183019160Y-132615378D01*
X181285538Y-134349000D01*
X176646346Y-134349000D01*
X176646346Y-134124000D01*
X176620198Y-133985034D01*
X176538069Y-133857401D01*
X176412754Y-133771777D01*
X176264000Y-133741654D01*
X174764000Y-133741654D01*
X174625034Y-133767802D01*
X174497401Y-133849931D01*
X174411777Y-133975246D01*
X174381654Y-134124000D01*
X174381654Y-135624000D01*
X174407802Y-135762966D01*
X174489931Y-135890599D01*
X174615246Y-135976223D01*
X174650200Y-135983301D01*
X174380361Y-136009089D01*
X173938346Y-136026548D01*
X173938346Y-134150000D01*
X173912198Y-134011034D01*
X173830069Y-133883401D01*
X173704754Y-133797777D01*
X173556000Y-133767654D01*
X171656000Y-133767654D01*
X171517034Y-133793802D01*
X171389401Y-133875931D01*
X171303777Y-134001246D01*
X171273654Y-134150000D01*
X171273654Y-136050000D01*
X171280267Y-136085148D01*
X170915721Y-136087488D01*
X169002890Y-136084491D01*
X169001331Y-136084799D01*
X168999767Y-136084497D01*
X166890634Y-136096687D01*
X166029279Y-136094775D01*
X166038346Y-136050000D01*
X166038346Y-134150000D01*
X166012198Y-134011034D01*
X165930069Y-133883401D01*
X165804754Y-133797777D01*
X165656000Y-133767654D01*
X163756000Y-133767654D01*
X163617034Y-133793802D01*
X163489401Y-133875931D01*
X163403777Y-134001246D01*
X163373654Y-134150000D01*
X163373654Y-136049036D01*
X162881904Y-136032559D01*
X162993074Y-135921389D01*
X163073000Y-135728429D01*
X163073000Y-135080250D01*
X162941750Y-134949000D01*
X161873000Y-134949000D01*
X161873000Y-134969000D01*
X161723000Y-134969000D01*
X161723000Y-134949000D01*
X160654250Y-134949000D01*
X160523000Y-135080250D01*
X160523000Y-135728429D01*
X160575727Y-135855725D01*
X160116427Y-135814730D01*
X158030499Y-135530578D01*
X155941496Y-135205170D01*
X153859239Y-134833783D01*
X151905632Y-134435000D01*
X154051000Y-134435000D01*
X154223208Y-134400746D01*
X154369198Y-134303198D01*
X154652825Y-134019571D01*
X160523000Y-134019571D01*
X160523000Y-134667750D01*
X160654250Y-134799000D01*
X161723000Y-134799000D01*
X161723000Y-133730250D01*
X161873000Y-133730250D01*
X161873000Y-134799000D01*
X162941750Y-134799000D01*
X163073000Y-134667750D01*
X163073000Y-134019571D01*
X162993074Y-133826611D01*
X162845389Y-133678926D01*
X162652429Y-133599000D01*
X162004250Y-133599000D01*
X161873000Y-133730250D01*
X161723000Y-133730250D01*
X161591750Y-133599000D01*
X160943571Y-133599000D01*
X160750611Y-133678926D01*
X160602926Y-133826611D01*
X160523000Y-134019571D01*
X154652825Y-134019571D01*
X155142684Y-133529712D01*
X155231246Y-133590223D01*
X155380000Y-133620346D01*
X156880000Y-133620346D01*
X157018966Y-133594198D01*
X157146599Y-133512069D01*
X157232223Y-133386754D01*
X157262346Y-133238000D01*
X157262346Y-131938000D01*
X157236198Y-131799034D01*
X157154069Y-131671401D01*
X157028754Y-131585777D01*
X156963683Y-131572600D01*
X157018966Y-131562198D01*
X157146599Y-131480069D01*
X157232223Y-131354754D01*
X157262346Y-131206000D01*
X157262346Y-129906000D01*
X157697654Y-129906000D01*
X157697654Y-131206000D01*
X157723802Y-131344966D01*
X157805931Y-131472599D01*
X157931246Y-131558223D01*
X157996317Y-131571400D01*
X157941034Y-131581802D01*
X157813401Y-131663931D01*
X157727777Y-131789246D01*
X157697654Y-131938000D01*
X157697654Y-133238000D01*
X157723802Y-133376966D01*
X157805931Y-133504599D01*
X157931246Y-133590223D01*
X158080000Y-133620346D01*
X159580000Y-133620346D01*
X159718966Y-133594198D01*
X159846599Y-133512069D01*
X159932223Y-133386754D01*
X159962346Y-133238000D01*
X159962346Y-133038000D01*
X160248251Y-133038000D01*
X160285363Y-133075177D01*
X160496624Y-133162900D01*
X160725373Y-133163100D01*
X160917591Y-133083677D01*
X165980883Y-133083677D01*
X166083429Y-133331857D01*
X166273144Y-133521903D01*
X166521145Y-133624883D01*
X166789677Y-133625117D01*
X166920927Y-133570886D01*
X167051571Y-133625000D01*
X167149750Y-133625000D01*
X167281000Y-133493750D01*
X167281000Y-133204985D01*
X167330883Y-133084855D01*
X167331117Y-132816323D01*
X167281000Y-132695031D01*
X167281000Y-132500000D01*
X167261000Y-132500000D01*
X167261000Y-132350000D01*
X167281000Y-132350000D01*
X167281000Y-131356250D01*
X167149750Y-131225000D01*
X167051571Y-131225000D01*
X166858611Y-131304926D01*
X166710926Y-131452611D01*
X166631000Y-131645571D01*
X166631000Y-132218750D01*
X166687277Y-132275027D01*
X166522323Y-132274883D01*
X166274143Y-132377429D01*
X166084097Y-132567144D01*
X165981117Y-132815145D01*
X165980883Y-133083677D01*
X160917591Y-133083677D01*
X160936786Y-133075746D01*
X161098677Y-132914137D01*
X161186400Y-132702876D01*
X161186600Y-132474127D01*
X161099246Y-132262714D01*
X160937637Y-132100823D01*
X160726376Y-132013100D01*
X160497627Y-132012900D01*
X160286214Y-132100254D01*
X160248402Y-132138000D01*
X159962346Y-132138000D01*
X159962346Y-131938000D01*
X159936198Y-131799034D01*
X159854069Y-131671401D01*
X159728754Y-131585777D01*
X159663683Y-131572600D01*
X159718966Y-131562198D01*
X159846599Y-131480069D01*
X159932223Y-131354754D01*
X159962346Y-131206000D01*
X159962346Y-131006000D01*
X160313309Y-131006000D01*
X160314254Y-131008286D01*
X160475863Y-131170177D01*
X160687124Y-131257900D01*
X160915873Y-131258100D01*
X161127286Y-131170746D01*
X161289177Y-131009137D01*
X161376900Y-130797876D01*
X161377100Y-130569127D01*
X161289746Y-130357714D01*
X161128137Y-130195823D01*
X160962995Y-130127250D01*
X166131000Y-130127250D01*
X166131000Y-130650429D01*
X166210926Y-130843389D01*
X166358611Y-130991074D01*
X166551571Y-131071000D01*
X167199750Y-131071000D01*
X167331000Y-130939750D01*
X167331000Y-129996000D01*
X167481000Y-129996000D01*
X167481000Y-130939750D01*
X167612250Y-131071000D01*
X168260429Y-131071000D01*
X168453389Y-130991074D01*
X168601074Y-130843389D01*
X168681000Y-130650429D01*
X168681000Y-130127250D01*
X168549750Y-129996000D01*
X167481000Y-129996000D01*
X167331000Y-129996000D01*
X166262250Y-129996000D01*
X166131000Y-130127250D01*
X160962995Y-130127250D01*
X160916876Y-130108100D01*
X160688127Y-130107900D01*
X160686965Y-130108380D01*
X160675000Y-130106000D01*
X159962346Y-130106000D01*
X159962346Y-129906000D01*
X159936198Y-129767034D01*
X159854069Y-129639401D01*
X159728754Y-129553777D01*
X159580000Y-129523654D01*
X158080000Y-129523654D01*
X157941034Y-129549802D01*
X157813401Y-129631931D01*
X157727777Y-129757246D01*
X157697654Y-129906000D01*
X157262346Y-129906000D01*
X157236198Y-129767034D01*
X157154069Y-129639401D01*
X157028754Y-129553777D01*
X156880000Y-129523654D01*
X155380000Y-129523654D01*
X155241034Y-129549802D01*
X155113401Y-129631931D01*
X155027777Y-129757246D01*
X154997654Y-129906000D01*
X154997654Y-130156382D01*
X154875802Y-130237802D01*
X153145604Y-131968000D01*
X153128346Y-131968000D01*
X153128346Y-131818000D01*
X153102198Y-131679034D01*
X153020069Y-131551401D01*
X152894754Y-131465777D01*
X152746000Y-131435654D01*
X151546000Y-131435654D01*
X151407034Y-131461802D01*
X151279401Y-131543931D01*
X151193777Y-131669246D01*
X151163654Y-131818000D01*
X151163654Y-133018000D01*
X151189802Y-133156966D01*
X151271931Y-133284599D01*
X151397246Y-133370223D01*
X151546000Y-133400346D01*
X152746000Y-133400346D01*
X152884966Y-133374198D01*
X153012599Y-133292069D01*
X153098223Y-133166754D01*
X153128346Y-133018000D01*
X153128346Y-132868000D01*
X153332000Y-132868000D01*
X153504208Y-132833746D01*
X153650198Y-132736198D01*
X155030704Y-131355692D01*
X155105931Y-131472599D01*
X155231246Y-131558223D01*
X155296317Y-131571400D01*
X155241034Y-131581802D01*
X155113401Y-131663931D01*
X155027777Y-131789246D01*
X154997654Y-131938000D01*
X154997654Y-132401950D01*
X153864604Y-133535000D01*
X151189396Y-133535000D01*
X150959830Y-133305434D01*
X150980599Y-133292069D01*
X151066223Y-133166754D01*
X151096346Y-133018000D01*
X151096346Y-131818000D01*
X151070198Y-131679034D01*
X150988069Y-131551401D01*
X150862754Y-131465777D01*
X150714000Y-131435654D01*
X149514000Y-131435654D01*
X149375034Y-131461802D01*
X149247401Y-131543931D01*
X149161777Y-131669246D01*
X149131654Y-131818000D01*
X149131654Y-133018000D01*
X149157802Y-133156966D01*
X149239931Y-133284599D01*
X149365246Y-133370223D01*
X149514000Y-133400346D01*
X149786546Y-133400346D01*
X149795802Y-133414198D01*
X150489838Y-134108234D01*
X149728473Y-133930654D01*
X147686855Y-133387768D01*
X145665592Y-132776582D01*
X143667123Y-132091195D01*
X141761661Y-131362239D01*
X139873991Y-130571645D01*
X138007680Y-129720512D01*
X136165524Y-128809680D01*
X134350305Y-127839931D01*
X132564836Y-126812120D01*
X130811885Y-125727038D01*
X129098274Y-124588172D01*
X127708879Y-123549644D01*
X126175016Y-122276285D01*
X124597121Y-120881485D01*
X123078626Y-119481858D01*
X121721613Y-118193149D01*
X120627455Y-117130552D01*
X119897201Y-116409029D01*
X119700793Y-116212763D01*
X119632498Y-116144106D01*
X119630619Y-116142843D01*
X119629348Y-116140973D01*
X119619359Y-116131139D01*
X119588852Y-116099556D01*
X119540306Y-116046651D01*
X119479483Y-115975922D01*
X119411712Y-115890676D01*
X119342320Y-115794426D01*
X119276631Y-115691323D01*
X119219773Y-115586155D01*
X119176240Y-115484568D01*
X119149074Y-115392967D01*
X119138573Y-115317539D01*
X119141491Y-115261179D01*
X119153817Y-115218448D01*
X119179161Y-115175453D01*
X119233385Y-115120404D01*
X119352565Y-115042422D01*
X120199205Y-114582481D01*
X120200408Y-114581480D01*
X120201896Y-114581006D01*
X121838619Y-113676486D01*
X121839782Y-113675504D01*
X121841228Y-113675032D01*
X124017412Y-112452342D01*
X124018875Y-112451089D01*
X124020700Y-112450475D01*
X126500992Y-111027735D01*
X126503025Y-111025963D01*
X126505570Y-111025071D01*
X129054623Y-109520361D01*
X129057706Y-109517604D01*
X129061584Y-109516162D01*
X131444051Y-108047621D01*
X131449349Y-108042698D01*
X131456038Y-108039952D01*
X133436564Y-106725683D01*
X133447837Y-106714481D01*
X133462053Y-106707378D01*
X134805295Y-105665468D01*
X134820685Y-105647733D01*
X134840418Y-105635006D01*
X135830573Y-104676466D01*
X135835811Y-104668896D01*
X135843330Y-104663579D01*
X136888494Y-103561619D01*
X136892309Y-103555569D01*
X136898007Y-103551250D01*
X137948673Y-102367339D01*
X137951907Y-102361812D01*
X137956892Y-102357796D01*
X138963551Y-101153396D01*
X138966735Y-101147566D01*
X138971777Y-101143241D01*
X139884920Y-99979821D01*
X139888588Y-99972583D01*
X139894544Y-99967073D01*
X140664665Y-98906083D01*
X140669697Y-98895156D01*
X140678058Y-98886505D01*
X141255649Y-97989425D01*
X141264211Y-97967719D01*
X141278511Y-97949279D01*
X141614063Y-97277569D01*
X141629563Y-97220891D01*
X141651503Y-97166389D01*
X141701433Y-96901589D01*
X141700699Y-96827978D01*
X141703247Y-96754404D01*
X141661357Y-96497654D01*
X141639133Y-96438266D01*
X141622553Y-96377065D01*
X141498397Y-96127045D01*
X141470197Y-96090504D01*
X141448825Y-96049588D01*
X141251939Y-95804978D01*
X141227873Y-95784842D01*
X141209432Y-95759446D01*
X140949361Y-95518916D01*
X140931448Y-95507933D01*
X140917504Y-95492222D01*
X140603789Y-95254452D01*
X140591239Y-95248356D01*
X140581318Y-95238539D01*
X140223504Y-95002189D01*
X140215149Y-94998780D01*
X140208474Y-94992706D01*
X139816102Y-94756476D01*
X139811081Y-94754668D01*
X139807046Y-94751175D01*
X139389660Y-94513725D01*
X139387402Y-94512975D01*
X139385584Y-94511435D01*
X138953097Y-94271652D01*
X138516657Y-94029106D01*
X138088356Y-93783999D01*
X137677822Y-93535404D01*
X137295232Y-93283038D01*
X136950840Y-93027340D01*
X136646891Y-92762872D01*
X136101178Y-92231879D01*
X135659517Y-91765303D01*
X135356243Y-91373930D01*
X135208711Y-91075839D01*
X135188882Y-90876285D01*
X135265413Y-90685638D01*
X135524670Y-90420063D01*
X136044416Y-90090663D01*
X136226512Y-90000351D01*
X136458613Y-89886490D01*
X136720391Y-89758517D01*
X136720512Y-89758425D01*
X136720658Y-89758386D01*
X137010122Y-89616626D01*
X137010509Y-89616330D01*
X137010982Y-89616204D01*
X137326273Y-89460914D01*
X137326874Y-89460453D01*
X137327602Y-89460256D01*
X137667186Y-89291526D01*
X137667963Y-89290926D01*
X137668909Y-89290665D01*
X138031248Y-89108575D01*
X138032168Y-89107858D01*
X138033292Y-89107541D01*
X138416851Y-88912191D01*
X138417904Y-88911361D01*
X138419193Y-88910989D01*
X138822433Y-88702459D01*
X138823596Y-88701531D01*
X138825024Y-88701108D01*
X139246412Y-88479508D01*
X139247689Y-88478474D01*
X139249258Y-88477997D01*
X139687256Y-88243407D01*
X139688631Y-88242277D01*
X139690331Y-88241744D01*
X140143401Y-87994264D01*
X140144879Y-87993029D01*
X140146710Y-87992437D01*
X140613319Y-87732147D01*
X140614893Y-87730807D01*
X140616853Y-87730153D01*
X141095463Y-87457143D01*
X141097130Y-87455696D01*
X141099218Y-87454976D01*
X141588291Y-87169346D01*
X141590056Y-87167783D01*
X141592272Y-87166991D01*
X142090275Y-86868831D01*
X142092131Y-86867150D01*
X142094481Y-86866280D01*
X142599876Y-86555689D01*
X142601833Y-86553875D01*
X142604323Y-86552918D01*
X143115572Y-86229978D01*
X143117628Y-86228025D01*
X143120261Y-86226973D01*
X143635829Y-85891773D01*
X143637985Y-85889671D01*
X143640767Y-85888514D01*
X144159118Y-85541144D01*
X144161376Y-85538880D01*
X144164307Y-85537610D01*
X144683904Y-85178170D01*
X144686265Y-85175731D01*
X144689359Y-85174333D01*
X145208665Y-84802913D01*
X145211132Y-84800284D01*
X145214391Y-84798745D01*
X145731873Y-84415435D01*
X145734445Y-84412601D01*
X145737879Y-84410904D01*
X146251996Y-84015804D01*
X146254680Y-84012739D01*
X146258298Y-84010866D01*
X146767517Y-83604046D01*
X146770309Y-83600734D01*
X146774111Y-83598668D01*
X147276894Y-83180228D01*
X147279788Y-83176652D01*
X147283782Y-83174370D01*
X147778592Y-82744420D01*
X147781593Y-82740546D01*
X147785794Y-82738018D01*
X148271097Y-82296628D01*
X148274198Y-82292432D01*
X148278600Y-82289636D01*
X148752858Y-81836906D01*
X148756051Y-81832360D01*
X148760662Y-81829262D01*
X149222339Y-81365282D01*
X149225615Y-81360353D01*
X149230437Y-81356918D01*
X149677997Y-80881777D01*
X149681343Y-80876430D01*
X149686372Y-80872622D01*
X150118277Y-80386412D01*
X150119937Y-80383579D01*
X150122523Y-80381558D01*
X150526637Y-79912489D01*
X150893012Y-79487343D01*
X150893013Y-79487341D01*
X151223488Y-79103972D01*
X151223488Y-79103971D01*
X151519871Y-78760264D01*
X151783893Y-78454195D01*
X151783895Y-78454193D01*
X152017561Y-78183453D01*
X152017561Y-78183452D01*
X152222504Y-77946084D01*
X152222505Y-77946082D01*
X152400544Y-77740004D01*
X152553411Y-77563175D01*
X152553414Y-77563173D01*
X152683226Y-77413133D01*
X152683227Y-77413132D01*
X152791458Y-77288155D01*
X152880062Y-77185930D01*
X152880063Y-77185929D01*
X152950540Y-77104791D01*
X152950543Y-77104789D01*
X153005262Y-77041840D01*
X153045251Y-76995975D01*
X153047115Y-76993847D01*
X153052892Y-76988164D01*
X153055663Y-76984090D01*
X153071790Y-76965682D01*
X153074300Y-76963633D01*
X153077600Y-76959632D01*
X153077723Y-76959403D01*
X153083505Y-76954654D01*
X153090093Y-76946620D01*
X153096891Y-76938527D01*
X153098770Y-76935106D01*
X153098919Y-76934937D01*
X153099995Y-76933081D01*
X153102090Y-76931421D01*
X153105490Y-76927420D01*
X153107183Y-76924381D01*
X153110560Y-76921374D01*
X153117360Y-76912374D01*
X153118470Y-76910081D01*
X153137538Y-76887258D01*
X153180976Y-76835556D01*
X153180977Y-76835555D01*
X153239275Y-76766326D01*
X153313248Y-76678725D01*
X153393763Y-76584480D01*
X153471333Y-76495139D01*
X153546480Y-76409282D01*
X153546597Y-76409079D01*
X153546781Y-76408937D01*
X153618572Y-76326737D01*
X153619268Y-76325526D01*
X153620365Y-76324669D01*
X153687865Y-76246369D01*
X153689301Y-76243833D01*
X153691575Y-76242007D01*
X153754405Y-76167107D01*
X153756584Y-76163134D01*
X153760058Y-76160223D01*
X153817848Y-76088323D01*
X153820884Y-76082500D01*
X153825787Y-76078132D01*
X153878176Y-76008733D01*
X153882083Y-76000651D01*
X153888533Y-75994404D01*
X153935143Y-75927003D01*
X153939754Y-75916355D01*
X153947645Y-75907843D01*
X153988095Y-75842042D01*
X153993158Y-75828378D01*
X154002318Y-75817047D01*
X154036238Y-75752447D01*
X154041278Y-75735380D01*
X154051284Y-75720663D01*
X154078314Y-75656863D01*
X154082631Y-75636035D01*
X154092792Y-75617349D01*
X154112552Y-75553850D01*
X154115118Y-75529575D01*
X154124268Y-75506945D01*
X154136378Y-75443245D01*
X154136152Y-75416611D01*
X154142997Y-75390873D01*
X154147097Y-75326473D01*
X154143432Y-75299033D01*
X154147040Y-75271587D01*
X154142740Y-75206187D01*
X154135701Y-75179937D01*
X154135805Y-75152760D01*
X154122766Y-75085860D01*
X154113143Y-75062374D01*
X154110243Y-75037161D01*
X154088073Y-74968162D01*
X154076961Y-74948168D01*
X154071944Y-74925849D01*
X154040274Y-74854449D01*
X154028839Y-74838221D01*
X154022715Y-74819334D01*
X153981164Y-74745034D01*
X153970190Y-74732169D01*
X153963728Y-74716544D01*
X153911938Y-74638944D01*
X153901876Y-74628871D01*
X153895578Y-74616104D01*
X153833178Y-74534804D01*
X153824408Y-74527115D01*
X153818686Y-74516943D01*
X153745295Y-74431343D01*
X153737576Y-74425281D01*
X153732378Y-74416952D01*
X153647628Y-74326753D01*
X153641076Y-74322074D01*
X153636562Y-74315407D01*
X153540082Y-74220106D01*
X153534649Y-74216524D01*
X153530839Y-74211247D01*
X153422253Y-74110267D01*
X153417582Y-74107385D01*
X153414259Y-74103021D01*
X153293199Y-73996041D01*
X153289320Y-73993782D01*
X153286526Y-73990266D01*
X153152618Y-73876796D01*
X153149359Y-73874987D01*
X153146992Y-73872112D01*
X152999866Y-73751732D01*
X152997187Y-73750305D01*
X152995226Y-73747990D01*
X152834509Y-73620210D01*
X152832280Y-73619063D01*
X152830640Y-73617171D01*
X152655960Y-73481561D01*
X152654128Y-73480645D01*
X152652769Y-73479107D01*
X152463755Y-73335217D01*
X152458773Y-73332784D01*
X152454998Y-73328727D01*
X152242124Y-73175133D01*
X152031740Y-73016502D01*
X151820477Y-72850590D01*
X151609037Y-72678082D01*
X151397898Y-72499514D01*
X151187619Y-72315503D01*
X150978750Y-72126604D01*
X150771874Y-71933491D01*
X150567501Y-71736721D01*
X150446221Y-71616346D01*
X152232000Y-71616346D01*
X152370966Y-71590198D01*
X152498599Y-71508069D01*
X152584223Y-71382754D01*
X152614346Y-71234000D01*
X152614346Y-70134000D01*
X152588198Y-69995034D01*
X152506069Y-69867401D01*
X152380754Y-69781777D01*
X152232000Y-69751654D01*
X150432000Y-69751654D01*
X150293034Y-69777802D01*
X150165401Y-69859931D01*
X150079777Y-69985246D01*
X150049654Y-70134000D01*
X150049654Y-71209425D01*
X149974833Y-71130550D01*
X149785862Y-70925233D01*
X149602105Y-70719326D01*
X149424000Y-70513358D01*
X149252176Y-70308062D01*
X149087119Y-70103995D01*
X148929340Y-69901814D01*
X148779472Y-69702268D01*
X148637917Y-69505840D01*
X148505289Y-69313348D01*
X148382144Y-69125533D01*
X148269011Y-68943129D01*
X148166437Y-68766959D01*
X148074929Y-68597890D01*
X147995073Y-68436986D01*
X147927290Y-68285241D01*
X147872020Y-68144032D01*
X147829549Y-68014878D01*
X147799902Y-67899616D01*
X147782662Y-67800391D01*
X147776892Y-67723404D01*
X147777324Y-67716511D01*
X147778067Y-67713243D01*
X147781823Y-67703761D01*
X147792258Y-67685356D01*
X147812862Y-67657411D01*
X147845903Y-67620823D01*
X147892140Y-67577280D01*
X147951832Y-67528109D01*
X148024719Y-67474201D01*
X148110195Y-67416444D01*
X148207800Y-67355144D01*
X148316941Y-67290579D01*
X148437060Y-67222870D01*
X148497192Y-67190250D01*
X149907000Y-67190250D01*
X149907000Y-67638429D01*
X149986926Y-67831389D01*
X150134611Y-67979074D01*
X150327571Y-68059000D01*
X151125750Y-68059000D01*
X151257000Y-67927750D01*
X151257000Y-67059000D01*
X151407000Y-67059000D01*
X151407000Y-67927750D01*
X151538250Y-68059000D01*
X152336429Y-68059000D01*
X152529389Y-67979074D01*
X152677074Y-67831389D01*
X152757000Y-67638429D01*
X152757000Y-67190250D01*
X152625750Y-67059000D01*
X151407000Y-67059000D01*
X151257000Y-67059000D01*
X150038250Y-67059000D01*
X149907000Y-67190250D01*
X148497192Y-67190250D01*
X148568026Y-67151825D01*
X148709236Y-67077263D01*
X148860034Y-66999275D01*
X149020583Y-66917312D01*
X149190045Y-66831423D01*
X149368123Y-66741468D01*
X149368344Y-66741295D01*
X149368615Y-66741219D01*
X149554892Y-66646819D01*
X149555370Y-66646444D01*
X149555956Y-66646278D01*
X149749956Y-66547278D01*
X149750699Y-66546691D01*
X149751608Y-66546430D01*
X149907000Y-66466274D01*
X149907000Y-66777750D01*
X150038250Y-66909000D01*
X151257000Y-66909000D01*
X151257000Y-66040250D01*
X151407000Y-66040250D01*
X151407000Y-66909000D01*
X152625750Y-66909000D01*
X152757000Y-66777750D01*
X152757000Y-66329571D01*
X152677074Y-66136611D01*
X152529389Y-65988926D01*
X152336429Y-65909000D01*
X151538250Y-65909000D01*
X151407000Y-66040250D01*
X151257000Y-66040250D01*
X151125750Y-65909000D01*
X150941327Y-65909000D01*
X151081573Y-65829821D01*
X151083247Y-65828381D01*
X151085341Y-65827669D01*
X151328233Y-65687248D01*
X151329996Y-65685700D01*
X151332213Y-65684919D01*
X151426386Y-65629104D01*
X156054200Y-65605000D01*
X156054200Y-68148200D01*
X156054200Y-68148200D01*
G37*
X156054200Y-68148200D02*
X156062749Y-68193632D01*
X156089599Y-68235359D01*
X156130568Y-68263352D01*
X156179200Y-68273200D01*
X158783068Y-68273200D01*
X158703777Y-68389246D01*
X158673654Y-68538000D01*
X158673654Y-69638000D01*
X158699802Y-69776966D01*
X158781931Y-69904599D01*
X158907246Y-69990223D01*
X159056000Y-70020346D01*
X161556000Y-70020346D01*
X161694966Y-69994198D01*
X161822599Y-69912069D01*
X161908223Y-69786754D01*
X161938346Y-69638000D01*
X161938346Y-68538000D01*
X161917427Y-68426823D01*
X162320500Y-68829896D01*
X162320500Y-70552604D01*
X162235104Y-70638000D01*
X161938346Y-70638000D01*
X161938346Y-70538000D01*
X161912198Y-70399034D01*
X161830069Y-70271401D01*
X161704754Y-70185777D01*
X161556000Y-70155654D01*
X159056000Y-70155654D01*
X158917034Y-70181802D01*
X158814346Y-70247879D01*
X158814346Y-70134000D01*
X158788198Y-69995034D01*
X158706069Y-69867401D01*
X158580754Y-69781777D01*
X158432000Y-69751654D01*
X156632000Y-69751654D01*
X156493034Y-69777802D01*
X156365401Y-69859931D01*
X156279777Y-69985246D01*
X156249654Y-70134000D01*
X156249654Y-71234000D01*
X156275802Y-71372966D01*
X156357931Y-71500599D01*
X156483246Y-71586223D01*
X156632000Y-71616346D01*
X157082000Y-71616346D01*
X157082000Y-72489104D01*
X155530802Y-74040302D01*
X155433254Y-74186292D01*
X155399000Y-74358500D01*
X155399000Y-77664604D01*
X154138604Y-78925000D01*
X153245500Y-78925000D01*
X153073293Y-78959253D01*
X152927302Y-79056802D01*
X152292302Y-79691802D01*
X152194754Y-79837792D01*
X152160500Y-80010000D01*
X152160500Y-80067654D01*
X151960500Y-80067654D01*
X151821534Y-80093802D01*
X151693901Y-80175931D01*
X151608277Y-80301246D01*
X151578154Y-80450000D01*
X151578154Y-81950000D01*
X151604302Y-82088966D01*
X151686431Y-82216599D01*
X151811746Y-82302223D01*
X151960500Y-82332346D01*
X153260500Y-82332346D01*
X153272059Y-82330171D01*
X153274254Y-82341208D01*
X153338391Y-82437195D01*
X153371802Y-82487198D01*
X153689302Y-82804698D01*
X153835037Y-82902076D01*
X153767277Y-83001246D01*
X153737154Y-83150000D01*
X153737154Y-83375000D01*
X153642846Y-83375000D01*
X153642846Y-83150000D01*
X153616698Y-83011034D01*
X153534569Y-82883401D01*
X153409254Y-82797777D01*
X153260500Y-82767654D01*
X151960500Y-82767654D01*
X151821534Y-82793802D01*
X151693901Y-82875931D01*
X151608277Y-83001246D01*
X151578154Y-83150000D01*
X151578154Y-84650000D01*
X151604302Y-84788966D01*
X151686431Y-84916599D01*
X151811746Y-85002223D01*
X151960500Y-85032346D01*
X152085500Y-85032346D01*
X152085500Y-90057933D01*
X151975097Y-90168144D01*
X151872117Y-90416145D01*
X151871883Y-90684677D01*
X151974429Y-90932857D01*
X152164144Y-91122903D01*
X152412145Y-91225883D01*
X152680677Y-91226117D01*
X152928857Y-91123571D01*
X153118903Y-90933856D01*
X153221883Y-90685855D01*
X153222117Y-90417323D01*
X153135500Y-90207694D01*
X153135500Y-85032346D01*
X153260500Y-85032346D01*
X153399466Y-85006198D01*
X153527099Y-84924069D01*
X153612723Y-84798754D01*
X153642846Y-84650000D01*
X153642846Y-84425000D01*
X153737154Y-84425000D01*
X153737154Y-84650000D01*
X153763302Y-84788966D01*
X153845431Y-84916599D01*
X153970746Y-85002223D01*
X154119500Y-85032346D01*
X155399000Y-85032346D01*
X155399000Y-92175000D01*
X155433254Y-92347208D01*
X155500888Y-92448429D01*
X155530802Y-92493198D01*
X155680000Y-92642396D01*
X155680000Y-94866000D01*
X155714254Y-95038208D01*
X155795907Y-95160410D01*
X155811802Y-95184198D01*
X156255654Y-95628050D01*
X156255654Y-96224000D01*
X156281802Y-96362966D01*
X156363931Y-96490599D01*
X156489246Y-96576223D01*
X156638000Y-96606346D01*
X157438000Y-96606346D01*
X157576966Y-96580198D01*
X157704599Y-96498069D01*
X157790223Y-96372754D01*
X157820346Y-96224000D01*
X157820346Y-95480250D01*
X158013000Y-95480250D01*
X158013000Y-96328429D01*
X158092926Y-96521389D01*
X158240611Y-96669074D01*
X158433571Y-96749000D01*
X158731750Y-96749000D01*
X158863000Y-96617750D01*
X158863000Y-95349000D01*
X159013000Y-95349000D01*
X159013000Y-96617750D01*
X159144250Y-96749000D01*
X159442429Y-96749000D01*
X159635389Y-96669074D01*
X159783074Y-96521389D01*
X159863000Y-96328429D01*
X159863000Y-95480250D01*
X159731750Y-95349000D01*
X159013000Y-95349000D01*
X158863000Y-95349000D01*
X158144250Y-95349000D01*
X158013000Y-95480250D01*
X157820346Y-95480250D01*
X157820346Y-94324000D01*
X157800697Y-94219571D01*
X158013000Y-94219571D01*
X158013000Y-95067750D01*
X158144250Y-95199000D01*
X158863000Y-95199000D01*
X158863000Y-93930250D01*
X159013000Y-93930250D01*
X159013000Y-95199000D01*
X159731750Y-95199000D01*
X159863000Y-95067750D01*
X159863000Y-94219571D01*
X159783074Y-94026611D01*
X159635389Y-93878926D01*
X159442429Y-93799000D01*
X159144250Y-93799000D01*
X159013000Y-93930250D01*
X158863000Y-93930250D01*
X158731750Y-93799000D01*
X158433571Y-93799000D01*
X158240611Y-93878926D01*
X158092926Y-94026611D01*
X158013000Y-94219571D01*
X157800697Y-94219571D01*
X157794198Y-94185034D01*
X157712069Y-94057401D01*
X157586754Y-93971777D01*
X157438000Y-93941654D01*
X156638000Y-93941654D01*
X156580000Y-93952567D01*
X156580000Y-92456000D01*
X156545746Y-92283792D01*
X156448198Y-92137802D01*
X156299000Y-91988604D01*
X156299000Y-85175000D01*
X156765750Y-85175000D01*
X156897000Y-85043750D01*
X156897000Y-83975000D01*
X157047000Y-83975000D01*
X157047000Y-85043750D01*
X157178250Y-85175000D01*
X157726429Y-85175000D01*
X157919389Y-85095074D01*
X158067074Y-84947389D01*
X158147000Y-84754429D01*
X158147000Y-84106250D01*
X158015750Y-83975000D01*
X157047000Y-83975000D01*
X156897000Y-83975000D01*
X156877000Y-83975000D01*
X156877000Y-83825000D01*
X156897000Y-83825000D01*
X156897000Y-82756250D01*
X157047000Y-82756250D01*
X157047000Y-83825000D01*
X158015750Y-83825000D01*
X158147000Y-83693750D01*
X158147000Y-83294250D01*
X158531000Y-83294250D01*
X158531000Y-83742429D01*
X158610926Y-83935389D01*
X158758611Y-84083074D01*
X158951571Y-84163000D01*
X160099750Y-84163000D01*
X160231000Y-84031750D01*
X160231000Y-83163000D01*
X160381000Y-83163000D01*
X160381000Y-84031750D01*
X160512250Y-84163000D01*
X161660429Y-84163000D01*
X161853389Y-84083074D01*
X162001074Y-83935389D01*
X162081000Y-83742429D01*
X162081000Y-83538000D01*
X162083654Y-83538000D01*
X162083654Y-86038000D01*
X162109802Y-86176966D01*
X162191931Y-86304599D01*
X162317246Y-86390223D01*
X162466000Y-86420346D01*
X163566000Y-86420346D01*
X163704966Y-86394198D01*
X163832599Y-86312069D01*
X163918223Y-86186754D01*
X163948346Y-86038000D01*
X163948346Y-83538000D01*
X164083654Y-83538000D01*
X164083654Y-86038000D01*
X164109802Y-86176966D01*
X164191931Y-86304599D01*
X164317246Y-86390223D01*
X164466000Y-86420346D01*
X165566000Y-86420346D01*
X165704966Y-86394198D01*
X165832599Y-86312069D01*
X165918223Y-86186754D01*
X165948346Y-86038000D01*
X165948346Y-83538000D01*
X166083654Y-83538000D01*
X166083654Y-86038000D01*
X166109802Y-86176966D01*
X166191931Y-86304599D01*
X166317246Y-86390223D01*
X166466000Y-86420346D01*
X167566000Y-86420346D01*
X167704966Y-86394198D01*
X167832599Y-86312069D01*
X167918223Y-86186754D01*
X167948346Y-86038000D01*
X167948346Y-83538000D01*
X168083654Y-83538000D01*
X168083654Y-86038000D01*
X168109802Y-86176966D01*
X168191931Y-86304599D01*
X168317246Y-86390223D01*
X168466000Y-86420346D01*
X169566000Y-86420346D01*
X169704966Y-86394198D01*
X169832599Y-86312069D01*
X169918223Y-86186754D01*
X169948346Y-86038000D01*
X169948346Y-83538000D01*
X170083654Y-83538000D01*
X170083654Y-86038000D01*
X170109802Y-86176966D01*
X170191931Y-86304599D01*
X170317246Y-86390223D01*
X170466000Y-86420346D01*
X171566000Y-86420346D01*
X171704966Y-86394198D01*
X171832599Y-86312069D01*
X171918223Y-86186754D01*
X171948346Y-86038000D01*
X171948346Y-83538000D01*
X172083654Y-83538000D01*
X172083654Y-86038000D01*
X172109802Y-86176966D01*
X172191931Y-86304599D01*
X172317246Y-86390223D01*
X172466000Y-86420346D01*
X173566000Y-86420346D01*
X173704966Y-86394198D01*
X173832599Y-86312069D01*
X173918223Y-86186754D01*
X173948346Y-86038000D01*
X173948346Y-83538000D01*
X173922198Y-83399034D01*
X173840069Y-83271401D01*
X173714754Y-83185777D01*
X173566000Y-83155654D01*
X172466000Y-83155654D01*
X172327034Y-83181802D01*
X172199401Y-83263931D01*
X172113777Y-83389246D01*
X172083654Y-83538000D01*
X171948346Y-83538000D01*
X171922198Y-83399034D01*
X171840069Y-83271401D01*
X171714754Y-83185777D01*
X171566000Y-83155654D01*
X170466000Y-83155654D01*
X170327034Y-83181802D01*
X170199401Y-83263931D01*
X170113777Y-83389246D01*
X170083654Y-83538000D01*
X169948346Y-83538000D01*
X169922198Y-83399034D01*
X169840069Y-83271401D01*
X169714754Y-83185777D01*
X169566000Y-83155654D01*
X168466000Y-83155654D01*
X168327034Y-83181802D01*
X168199401Y-83263931D01*
X168113777Y-83389246D01*
X168083654Y-83538000D01*
X167948346Y-83538000D01*
X167922198Y-83399034D01*
X167840069Y-83271401D01*
X167714754Y-83185777D01*
X167566000Y-83155654D01*
X166466000Y-83155654D01*
X166327034Y-83181802D01*
X166199401Y-83263931D01*
X166113777Y-83389246D01*
X166083654Y-83538000D01*
X165948346Y-83538000D01*
X165922198Y-83399034D01*
X165840069Y-83271401D01*
X165714754Y-83185777D01*
X165566000Y-83155654D01*
X164466000Y-83155654D01*
X164327034Y-83181802D01*
X164199401Y-83263931D01*
X164113777Y-83389246D01*
X164083654Y-83538000D01*
X163948346Y-83538000D01*
X163922198Y-83399034D01*
X163840069Y-83271401D01*
X163714754Y-83185777D01*
X163566000Y-83155654D01*
X162466000Y-83155654D01*
X162327034Y-83181802D01*
X162199401Y-83263931D01*
X162113777Y-83389246D01*
X162083654Y-83538000D01*
X162081000Y-83538000D01*
X162081000Y-83294250D01*
X161949750Y-83163000D01*
X160381000Y-83163000D01*
X160231000Y-83163000D01*
X158662250Y-83163000D01*
X158531000Y-83294250D01*
X158147000Y-83294250D01*
X158147000Y-83045571D01*
X158067074Y-82852611D01*
X157919389Y-82704926D01*
X157726429Y-82625000D01*
X157178250Y-82625000D01*
X157047000Y-82756250D01*
X156897000Y-82756250D01*
X156765750Y-82625000D01*
X156276026Y-82625000D01*
X156264746Y-82568292D01*
X156167198Y-82422302D01*
X155913198Y-82168302D01*
X155877202Y-82144250D01*
X155776179Y-82076748D01*
X155801846Y-81950000D01*
X155801846Y-80450000D01*
X155939654Y-80450000D01*
X155939654Y-81950000D01*
X155965802Y-82088966D01*
X156047931Y-82216599D01*
X156173246Y-82302223D01*
X156322000Y-82332346D01*
X157622000Y-82332346D01*
X157760966Y-82306198D01*
X157888599Y-82224069D01*
X157974223Y-82098754D01*
X158004346Y-81950000D01*
X158004346Y-81650000D01*
X158675912Y-81650000D01*
X158699802Y-81776966D01*
X158781931Y-81904599D01*
X158907246Y-81990223D01*
X159019724Y-82013000D01*
X158951571Y-82013000D01*
X158758611Y-82092926D01*
X158610926Y-82240611D01*
X158531000Y-82433571D01*
X158531000Y-82881750D01*
X158662250Y-83013000D01*
X160231000Y-83013000D01*
X160231000Y-82993000D01*
X160381000Y-82993000D01*
X160381000Y-83013000D01*
X161949750Y-83013000D01*
X162081000Y-82881750D01*
X162081000Y-82433571D01*
X162001074Y-82240611D01*
X161853389Y-82092926D01*
X161660429Y-82013000D01*
X161595041Y-82013000D01*
X161694966Y-81994198D01*
X161822599Y-81912069D01*
X161908223Y-81786754D01*
X161938346Y-81638000D01*
X161938346Y-80538000D01*
X174073654Y-80538000D01*
X174073654Y-81638000D01*
X174099802Y-81776966D01*
X174181931Y-81904599D01*
X174307246Y-81990223D01*
X174456000Y-82020346D01*
X176956000Y-82020346D01*
X177094966Y-81994198D01*
X177222599Y-81912069D01*
X177308223Y-81786754D01*
X177338346Y-81638000D01*
X177338346Y-80538000D01*
X177312198Y-80399034D01*
X177230069Y-80271401D01*
X177104754Y-80185777D01*
X176956000Y-80155654D01*
X174456000Y-80155654D01*
X174317034Y-80181802D01*
X174189401Y-80263931D01*
X174103777Y-80389246D01*
X174073654Y-80538000D01*
X161938346Y-80538000D01*
X161912198Y-80399034D01*
X161830069Y-80271401D01*
X161704754Y-80185777D01*
X161556000Y-80155654D01*
X159056000Y-80155654D01*
X158917034Y-80181802D01*
X158789401Y-80263931D01*
X158703777Y-80389246D01*
X158673654Y-80538000D01*
X158673654Y-80750000D01*
X158004346Y-80750000D01*
X158004346Y-80450000D01*
X157978198Y-80311034D01*
X157896069Y-80183401D01*
X157770754Y-80097777D01*
X157622000Y-80067654D01*
X156322000Y-80067654D01*
X156183034Y-80093802D01*
X156055401Y-80175931D01*
X155969777Y-80301246D01*
X155939654Y-80450000D01*
X155801846Y-80450000D01*
X155775698Y-80311034D01*
X155711942Y-80211954D01*
X156385896Y-79538000D01*
X158673654Y-79538000D01*
X158673654Y-79638000D01*
X158699802Y-79776966D01*
X158781931Y-79904599D01*
X158907246Y-79990223D01*
X159056000Y-80020346D01*
X161556000Y-80020346D01*
X161694966Y-79994198D01*
X161822599Y-79912069D01*
X161908223Y-79786754D01*
X161938346Y-79638000D01*
X161938346Y-78538000D01*
X161912198Y-78399034D01*
X161830069Y-78271401D01*
X161704754Y-78185777D01*
X161556000Y-78155654D01*
X159056000Y-78155654D01*
X158917034Y-78181802D01*
X158789401Y-78263931D01*
X158703777Y-78389246D01*
X158673654Y-78538000D01*
X158673654Y-78638000D01*
X158375477Y-78638000D01*
X158405346Y-78490500D01*
X158405346Y-76990500D01*
X158401018Y-76967500D01*
X158520104Y-76967500D01*
X158673654Y-77121050D01*
X158673654Y-77638000D01*
X158699802Y-77776966D01*
X158781931Y-77904599D01*
X158907246Y-77990223D01*
X159056000Y-78020346D01*
X161556000Y-78020346D01*
X161694966Y-77994198D01*
X161822599Y-77912069D01*
X161908223Y-77786754D01*
X161938346Y-77638000D01*
X161938346Y-76538000D01*
X161912198Y-76399034D01*
X161830069Y-76271401D01*
X161704754Y-76185777D01*
X161556000Y-76155654D01*
X159056000Y-76155654D01*
X158980606Y-76169840D01*
X158878708Y-76101754D01*
X158706500Y-76067500D01*
X158285044Y-76067500D01*
X158289599Y-76064569D01*
X158375223Y-75939254D01*
X158405346Y-75790500D01*
X158405346Y-75490500D01*
X158673654Y-75490500D01*
X158673654Y-75638000D01*
X158699802Y-75776966D01*
X158781931Y-75904599D01*
X158907246Y-75990223D01*
X159056000Y-76020346D01*
X161556000Y-76020346D01*
X161694966Y-75994198D01*
X161822599Y-75912069D01*
X161908223Y-75786754D01*
X161938346Y-75638000D01*
X161938346Y-74538000D01*
X161912198Y-74399034D01*
X161830069Y-74271401D01*
X161704754Y-74185777D01*
X161556000Y-74155654D01*
X159056000Y-74155654D01*
X158917034Y-74181802D01*
X158789401Y-74263931D01*
X158703777Y-74389246D01*
X158673654Y-74538000D01*
X158673654Y-74590500D01*
X158405346Y-74590500D01*
X158405346Y-74290500D01*
X158379198Y-74151534D01*
X158297069Y-74023901D01*
X158171754Y-73938277D01*
X158023000Y-73908154D01*
X156935742Y-73908154D01*
X157850198Y-72993698D01*
X157947746Y-72847708D01*
X157982000Y-72675500D01*
X157982000Y-71616346D01*
X158432000Y-71616346D01*
X158570966Y-71590198D01*
X158673654Y-71524121D01*
X158673654Y-71638000D01*
X158699802Y-71776966D01*
X158781931Y-71904599D01*
X158907246Y-71990223D01*
X159056000Y-72020346D01*
X161556000Y-72020346D01*
X161694966Y-71994198D01*
X161822599Y-71912069D01*
X161908223Y-71786754D01*
X161938346Y-71638000D01*
X161938346Y-71538000D01*
X162421500Y-71538000D01*
X162593708Y-71503746D01*
X162739698Y-71406198D01*
X163088698Y-71057198D01*
X163186247Y-70911207D01*
X163220500Y-70739000D01*
X163220500Y-68643500D01*
X163186246Y-68471292D01*
X163088698Y-68325302D01*
X163036596Y-68273200D01*
X172664404Y-68273200D01*
X168299604Y-72638000D01*
X161938346Y-72638000D01*
X161938346Y-72538000D01*
X161912198Y-72399034D01*
X161830069Y-72271401D01*
X161704754Y-72185777D01*
X161556000Y-72155654D01*
X159056000Y-72155654D01*
X158917034Y-72181802D01*
X158789401Y-72263931D01*
X158703777Y-72389246D01*
X158673654Y-72538000D01*
X158673654Y-73638000D01*
X158699802Y-73776966D01*
X158781931Y-73904599D01*
X158907246Y-73990223D01*
X159056000Y-74020346D01*
X161556000Y-74020346D01*
X161694966Y-73994198D01*
X161822599Y-73912069D01*
X161908223Y-73786754D01*
X161938346Y-73638000D01*
X161938346Y-73538000D01*
X168486000Y-73538000D01*
X168658208Y-73503746D01*
X168804198Y-73406198D01*
X171718500Y-70491896D01*
X171718500Y-75501500D01*
X171752754Y-75673708D01*
X171831743Y-75791923D01*
X171850302Y-75819698D01*
X173436802Y-77406198D01*
X173582792Y-77503746D01*
X173755000Y-77538000D01*
X174073654Y-77538000D01*
X174073654Y-77638000D01*
X174099802Y-77776966D01*
X174181931Y-77904599D01*
X174307246Y-77990223D01*
X174456000Y-78020346D01*
X176956000Y-78020346D01*
X177094966Y-77994198D01*
X177222599Y-77912069D01*
X177308223Y-77786754D01*
X177338346Y-77638000D01*
X177338346Y-76538000D01*
X177312198Y-76399034D01*
X177230069Y-76271401D01*
X177104754Y-76185777D01*
X176956000Y-76155654D01*
X174456000Y-76155654D01*
X174317034Y-76181802D01*
X174189401Y-76263931D01*
X174103777Y-76389246D01*
X174073654Y-76538000D01*
X174073654Y-76638000D01*
X173941396Y-76638000D01*
X172618500Y-75315104D01*
X172618500Y-74301896D01*
X173722802Y-75406198D01*
X173868792Y-75503746D01*
X174041000Y-75538000D01*
X174073654Y-75538000D01*
X174073654Y-75638000D01*
X174099802Y-75776966D01*
X174181931Y-75904599D01*
X174307246Y-75990223D01*
X174456000Y-76020346D01*
X176956000Y-76020346D01*
X177094966Y-75994198D01*
X177222599Y-75912069D01*
X177308223Y-75786754D01*
X177338346Y-75638000D01*
X177338346Y-74538000D01*
X177312198Y-74399034D01*
X177230069Y-74271401D01*
X177104754Y-74185777D01*
X176956000Y-74155654D01*
X174456000Y-74155654D01*
X174317034Y-74181802D01*
X174189401Y-74263931D01*
X174103777Y-74389246D01*
X174082704Y-74493308D01*
X173253500Y-73664104D01*
X173253500Y-72538000D01*
X174073654Y-72538000D01*
X174073654Y-73638000D01*
X174099802Y-73776966D01*
X174181931Y-73904599D01*
X174307246Y-73990223D01*
X174456000Y-74020346D01*
X176956000Y-74020346D01*
X177094966Y-73994198D01*
X177222599Y-73912069D01*
X177308223Y-73786754D01*
X177338346Y-73638000D01*
X177338346Y-73538000D01*
X177566500Y-73538000D01*
X177738708Y-73503746D01*
X177884698Y-73406198D01*
X178010621Y-73280275D01*
X177992654Y-73369000D01*
X177992654Y-75269000D01*
X178018802Y-75407966D01*
X178100931Y-75535599D01*
X178226246Y-75621223D01*
X178325000Y-75641221D01*
X178325000Y-78815604D01*
X178279198Y-78769802D01*
X178260187Y-78757099D01*
X178133208Y-78672254D01*
X177961000Y-78638000D01*
X177338346Y-78638000D01*
X177338346Y-78538000D01*
X177312198Y-78399034D01*
X177230069Y-78271401D01*
X177104754Y-78185777D01*
X176956000Y-78155654D01*
X174456000Y-78155654D01*
X174317034Y-78181802D01*
X174189401Y-78263931D01*
X174103777Y-78389246D01*
X174073654Y-78538000D01*
X174073654Y-79638000D01*
X174099802Y-79776966D01*
X174181931Y-79904599D01*
X174307246Y-79990223D01*
X174456000Y-80020346D01*
X176956000Y-80020346D01*
X177094966Y-79994198D01*
X177222599Y-79912069D01*
X177308223Y-79786754D01*
X177338346Y-79638000D01*
X177338346Y-79538000D01*
X177774604Y-79538000D01*
X178004654Y-79768050D01*
X178004654Y-80914000D01*
X178030802Y-81052966D01*
X178112931Y-81180599D01*
X178238246Y-81266223D01*
X178387000Y-81296346D01*
X179887000Y-81296346D01*
X180025966Y-81270198D01*
X180153599Y-81188069D01*
X180239223Y-81062754D01*
X180269346Y-80914000D01*
X180269346Y-80470250D01*
X180562000Y-80470250D01*
X180562000Y-81018429D01*
X180641926Y-81211389D01*
X180789611Y-81359074D01*
X180982571Y-81439000D01*
X181630750Y-81439000D01*
X181762000Y-81307750D01*
X181762000Y-80339000D01*
X180693250Y-80339000D01*
X180562000Y-80470250D01*
X180269346Y-80470250D01*
X180269346Y-79614000D01*
X180249697Y-79509571D01*
X180562000Y-79509571D01*
X180562000Y-80057750D01*
X180693250Y-80189000D01*
X181762000Y-80189000D01*
X181762000Y-79220250D01*
X181630750Y-79089000D01*
X180982571Y-79089000D01*
X180789611Y-79168926D01*
X180641926Y-79316611D01*
X180562000Y-79509571D01*
X180249697Y-79509571D01*
X180243198Y-79475034D01*
X180175978Y-79370570D01*
X180296903Y-79249856D01*
X180399883Y-79001855D01*
X180400117Y-78733323D01*
X180336228Y-78578699D01*
X180391599Y-78543069D01*
X180477223Y-78417754D01*
X180507346Y-78269000D01*
X180507346Y-76369000D01*
X180481198Y-76230034D01*
X180399069Y-76102401D01*
X180273754Y-76016777D01*
X180125000Y-75986654D01*
X179325000Y-75986654D01*
X179225000Y-76005470D01*
X179225000Y-75641938D01*
X179313966Y-75625198D01*
X179441599Y-75543069D01*
X179527223Y-75417754D01*
X179557346Y-75269000D01*
X179557346Y-74525250D01*
X179750000Y-74525250D01*
X179750000Y-75373429D01*
X179829926Y-75566389D01*
X179977611Y-75714074D01*
X180170571Y-75794000D01*
X180468750Y-75794000D01*
X180600000Y-75662750D01*
X180600000Y-74394000D01*
X179881250Y-74394000D01*
X179750000Y-74525250D01*
X179557346Y-74525250D01*
X179557346Y-73369000D01*
X179531198Y-73230034D01*
X179491503Y-73168346D01*
X179789857Y-73168346D01*
X179750000Y-73264571D01*
X179750000Y-74112750D01*
X179881250Y-74244000D01*
X180600000Y-74244000D01*
X180600000Y-72975250D01*
X180468750Y-72844000D01*
X180364601Y-72844000D01*
X180376346Y-72786000D01*
X180376346Y-71486000D01*
X180350198Y-71347034D01*
X180268069Y-71219401D01*
X180142754Y-71133777D01*
X179994000Y-71103654D01*
X178494000Y-71103654D01*
X178355034Y-71129802D01*
X178227401Y-71211931D01*
X178141777Y-71337246D01*
X178111654Y-71486000D01*
X178111654Y-71906450D01*
X177380104Y-72638000D01*
X177338346Y-72638000D01*
X177338346Y-72538000D01*
X177312198Y-72399034D01*
X177230069Y-72271401D01*
X177104754Y-72185777D01*
X176956000Y-72155654D01*
X174456000Y-72155654D01*
X174317034Y-72181802D01*
X174189401Y-72263931D01*
X174103777Y-72389246D01*
X174073654Y-72538000D01*
X173253500Y-72538000D01*
X173253500Y-70538000D01*
X174073654Y-70538000D01*
X174073654Y-71638000D01*
X174099802Y-71776966D01*
X174181931Y-71904599D01*
X174307246Y-71990223D01*
X174456000Y-72020346D01*
X176956000Y-72020346D01*
X177094966Y-71994198D01*
X177222599Y-71912069D01*
X177308223Y-71786754D01*
X177338346Y-71638000D01*
X177338346Y-70538000D01*
X177312198Y-70399034D01*
X177230069Y-70271401D01*
X177104754Y-70185777D01*
X176956000Y-70155654D01*
X174456000Y-70155654D01*
X174317034Y-70181802D01*
X174189401Y-70263931D01*
X174103777Y-70389246D01*
X174073654Y-70538000D01*
X173253500Y-70538000D01*
X173253500Y-70417396D01*
X174073654Y-69597242D01*
X174073654Y-69638000D01*
X174099802Y-69776966D01*
X174181931Y-69904599D01*
X174307246Y-69990223D01*
X174456000Y-70020346D01*
X176956000Y-70020346D01*
X177094966Y-69994198D01*
X177222599Y-69912069D01*
X177308223Y-69786754D01*
X177338346Y-69638000D01*
X177338346Y-69538000D01*
X177892654Y-69538000D01*
X177892654Y-69792000D01*
X177918802Y-69930966D01*
X178000931Y-70058599D01*
X178126246Y-70144223D01*
X178275000Y-70174346D01*
X179075000Y-70174346D01*
X179213966Y-70148198D01*
X179341599Y-70066069D01*
X179427223Y-69940754D01*
X179457346Y-69792000D01*
X179457346Y-68892000D01*
X179431198Y-68753034D01*
X179349069Y-68625401D01*
X179223754Y-68539777D01*
X179075000Y-68509654D01*
X178275000Y-68509654D01*
X178136034Y-68535802D01*
X178008401Y-68617931D01*
X177994688Y-68638000D01*
X177338346Y-68638000D01*
X177338346Y-68538000D01*
X177312198Y-68399034D01*
X177231227Y-68273200D01*
X180114737Y-68273200D01*
X180221611Y-68380074D01*
X180414571Y-68460000D01*
X181062750Y-68460000D01*
X181194000Y-68328750D01*
X181194000Y-67385000D01*
X181174000Y-67385000D01*
X181174000Y-67235000D01*
X181194000Y-67235000D01*
X181194000Y-67215000D01*
X181344000Y-67215000D01*
X181344000Y-67235000D01*
X182412750Y-67235000D01*
X182544000Y-67103750D01*
X182544000Y-66580571D01*
X182486494Y-66441738D01*
X182727880Y-66446819D01*
X182666777Y-66536246D01*
X182636654Y-66685000D01*
X182636654Y-67825950D01*
X182544000Y-67918604D01*
X182544000Y-67516250D01*
X182412750Y-67385000D01*
X181344000Y-67385000D01*
X181344000Y-68328750D01*
X181475250Y-68460000D01*
X181871963Y-68460000D01*
X181817100Y-68592124D01*
X181816900Y-68820873D01*
X181846289Y-68892000D01*
X181557346Y-68892000D01*
X181531198Y-68753034D01*
X181449069Y-68625401D01*
X181323754Y-68539777D01*
X181175000Y-68509654D01*
X180375000Y-68509654D01*
X180236034Y-68535802D01*
X180108401Y-68617931D01*
X180022777Y-68743246D01*
X179992654Y-68892000D01*
X179992654Y-69792000D01*
X180018802Y-69930966D01*
X180100931Y-70058599D01*
X180226246Y-70144223D01*
X180375000Y-70174346D01*
X181175000Y-70174346D01*
X181313966Y-70148198D01*
X181441599Y-70066069D01*
X181527223Y-69940754D01*
X181557346Y-69792000D01*
X182575604Y-69792000D01*
X182457658Y-69909946D01*
X182405127Y-69909900D01*
X182193714Y-69997254D01*
X182031823Y-70158863D01*
X181944100Y-70370124D01*
X181943900Y-70598873D01*
X182031254Y-70810286D01*
X182192863Y-70972177D01*
X182404124Y-71059900D01*
X182632873Y-71060100D01*
X182844286Y-70972746D01*
X183006177Y-70811137D01*
X183093900Y-70599876D01*
X183093947Y-70546449D01*
X183143796Y-70496600D01*
X183266000Y-70521346D01*
X184566000Y-70521346D01*
X184704966Y-70495198D01*
X184832599Y-70413069D01*
X184899835Y-70314666D01*
X184969931Y-70423599D01*
X185095246Y-70509223D01*
X185244000Y-70539346D01*
X185913192Y-70539346D01*
X184948346Y-71504192D01*
X184948346Y-71339000D01*
X184922198Y-71200034D01*
X184840069Y-71072401D01*
X184714754Y-70986777D01*
X184566000Y-70956654D01*
X183266000Y-70956654D01*
X183127034Y-70982802D01*
X182999401Y-71064931D01*
X182917476Y-71184832D01*
X182842754Y-71133777D01*
X182694000Y-71103654D01*
X181194000Y-71103654D01*
X181055034Y-71129802D01*
X180927401Y-71211931D01*
X180841777Y-71337246D01*
X180811654Y-71486000D01*
X180811654Y-72786000D01*
X180831861Y-72893389D01*
X180750000Y-72975250D01*
X180750000Y-74244000D01*
X180770000Y-74244000D01*
X180770000Y-74394000D01*
X180750000Y-74394000D01*
X180750000Y-75662750D01*
X180881250Y-75794000D01*
X181179429Y-75794000D01*
X181372389Y-75714074D01*
X181419000Y-75667463D01*
X181419000Y-76641000D01*
X181458963Y-76841909D01*
X181572769Y-77012231D01*
X183010000Y-78449462D01*
X183010000Y-79294537D01*
X182884389Y-79168926D01*
X182691429Y-79089000D01*
X182043250Y-79089000D01*
X181912000Y-79220250D01*
X181912000Y-80189000D01*
X181932000Y-80189000D01*
X181932000Y-80339000D01*
X181912000Y-80339000D01*
X181912000Y-81307750D01*
X182043250Y-81439000D01*
X182691429Y-81439000D01*
X182884389Y-81359074D01*
X183010000Y-81233463D01*
X183010000Y-81852537D01*
X182891389Y-81733926D01*
X182698429Y-81654000D01*
X182050250Y-81654000D01*
X181919000Y-81785250D01*
X181919000Y-82729000D01*
X182987750Y-82729000D01*
X183119000Y-82597750D01*
X183119000Y-82409730D01*
X183163769Y-82476731D01*
X188090000Y-87402962D01*
X188090000Y-88436958D01*
X188032074Y-88297111D01*
X187884389Y-88149426D01*
X187691429Y-88069500D01*
X187043250Y-88069500D01*
X186912000Y-88200750D01*
X186912000Y-89269500D01*
X186932000Y-89269500D01*
X186932000Y-89419500D01*
X186912000Y-89419500D01*
X186912000Y-90488250D01*
X187043250Y-90619500D01*
X187691429Y-90619500D01*
X187884389Y-90539574D01*
X188032074Y-90391889D01*
X188090000Y-90252042D01*
X188090000Y-95469538D01*
X186881884Y-96677654D01*
X185492000Y-96677654D01*
X185353034Y-96703802D01*
X185225401Y-96785931D01*
X185139777Y-96911246D01*
X185114717Y-97035000D01*
X183758346Y-97035000D01*
X183758346Y-95206000D01*
X183732198Y-95067034D01*
X183650069Y-94939401D01*
X183524754Y-94853777D01*
X183376000Y-94823654D01*
X183151000Y-94823654D01*
X183151000Y-93772962D01*
X184267231Y-92656731D01*
X184381037Y-92486409D01*
X184421000Y-92285500D01*
X184421000Y-90540346D01*
X184646000Y-90540346D01*
X184784966Y-90514198D01*
X184912599Y-90432069D01*
X184998223Y-90306754D01*
X185028346Y-90158000D01*
X185028346Y-89550750D01*
X185562000Y-89550750D01*
X185562000Y-90198929D01*
X185641926Y-90391889D01*
X185789611Y-90539574D01*
X185982571Y-90619500D01*
X186630750Y-90619500D01*
X186762000Y-90488250D01*
X186762000Y-89419500D01*
X185693250Y-89419500D01*
X185562000Y-89550750D01*
X185028346Y-89550750D01*
X185028346Y-88658000D01*
X185002198Y-88519034D01*
X184983561Y-88490071D01*
X185562000Y-88490071D01*
X185562000Y-89138250D01*
X185693250Y-89269500D01*
X186762000Y-89269500D01*
X186762000Y-88200750D01*
X186630750Y-88069500D01*
X185982571Y-88069500D01*
X185789611Y-88149426D01*
X185641926Y-88297111D01*
X185562000Y-88490071D01*
X184983561Y-88490071D01*
X184920069Y-88391401D01*
X184794754Y-88305777D01*
X184646000Y-88275654D01*
X183589616Y-88275654D01*
X179869000Y-84555038D01*
X179869000Y-83811346D01*
X180094000Y-83811346D01*
X180232966Y-83785198D01*
X180360599Y-83703069D01*
X180446223Y-83577754D01*
X180476346Y-83429000D01*
X180476346Y-83010250D01*
X180569000Y-83010250D01*
X180569000Y-83533429D01*
X180648926Y-83726389D01*
X180796611Y-83874074D01*
X180989571Y-83954000D01*
X181637750Y-83954000D01*
X181769000Y-83822750D01*
X181769000Y-82879000D01*
X181919000Y-82879000D01*
X181919000Y-83822750D01*
X182050250Y-83954000D01*
X182698429Y-83954000D01*
X182891389Y-83874074D01*
X183039074Y-83726389D01*
X183119000Y-83533429D01*
X183119000Y-83010250D01*
X182987750Y-82879000D01*
X181919000Y-82879000D01*
X181769000Y-82879000D01*
X180700250Y-82879000D01*
X180569000Y-83010250D01*
X180476346Y-83010250D01*
X180476346Y-82179000D01*
X180456697Y-82074571D01*
X180569000Y-82074571D01*
X180569000Y-82597750D01*
X180700250Y-82729000D01*
X181769000Y-82729000D01*
X181769000Y-81785250D01*
X181637750Y-81654000D01*
X180989571Y-81654000D01*
X180796611Y-81733926D01*
X180648926Y-81881611D01*
X180569000Y-82074571D01*
X180456697Y-82074571D01*
X180450198Y-82040034D01*
X180368069Y-81912401D01*
X180242754Y-81826777D01*
X180094000Y-81796654D01*
X178594000Y-81796654D01*
X178455034Y-81822802D01*
X178327401Y-81904931D01*
X178241777Y-82030246D01*
X178211654Y-82179000D01*
X178211654Y-82279000D01*
X177883500Y-82279000D01*
X177682591Y-82318963D01*
X177512269Y-82432769D01*
X177382038Y-82563000D01*
X177338346Y-82563000D01*
X177338346Y-82538000D01*
X177312198Y-82399034D01*
X177230069Y-82271401D01*
X177104754Y-82185777D01*
X176956000Y-82155654D01*
X174456000Y-82155654D01*
X174317034Y-82181802D01*
X174189401Y-82263931D01*
X174103777Y-82389246D01*
X174073654Y-82538000D01*
X174073654Y-83638000D01*
X174099802Y-83776966D01*
X174181931Y-83904599D01*
X174307246Y-83990223D01*
X174456000Y-84020346D01*
X176956000Y-84020346D01*
X177094966Y-83994198D01*
X177222599Y-83912069D01*
X177308223Y-83786754D01*
X177338346Y-83638000D01*
X177338346Y-83613000D01*
X177599500Y-83613000D01*
X177800409Y-83573037D01*
X177970731Y-83459231D01*
X178100962Y-83329000D01*
X178211654Y-83329000D01*
X178211654Y-83429000D01*
X178237802Y-83567966D01*
X178250163Y-83587175D01*
X174859338Y-86978000D01*
X170934477Y-86978000D01*
X170887656Y-86931097D01*
X170639655Y-86828117D01*
X170371123Y-86827883D01*
X170122943Y-86930429D01*
X169932897Y-87120144D01*
X169829917Y-87368145D01*
X169829683Y-87636677D01*
X169932229Y-87884857D01*
X170121944Y-88074903D01*
X170369945Y-88177883D01*
X170638477Y-88178117D01*
X170886657Y-88075571D01*
X170934311Y-88028000D01*
X175076800Y-88028000D01*
X175277709Y-87988037D01*
X175448031Y-87874231D01*
X178819000Y-84503262D01*
X178819000Y-84772500D01*
X178858963Y-84973409D01*
X178972769Y-85143731D01*
X182763654Y-88934616D01*
X182763654Y-90158000D01*
X182789802Y-90296966D01*
X182871931Y-90424599D01*
X182997246Y-90510223D01*
X183146000Y-90540346D01*
X183371000Y-90540346D01*
X183371000Y-92068038D01*
X182254769Y-93184269D01*
X182140963Y-93354591D01*
X182101000Y-93555500D01*
X182101000Y-94823654D01*
X181876000Y-94823654D01*
X181737034Y-94849802D01*
X181609401Y-94931931D01*
X181562717Y-95000255D01*
X180599231Y-94036769D01*
X180428909Y-93922963D01*
X180228000Y-93883000D01*
X178189642Y-93883000D01*
X178168198Y-93769034D01*
X178086069Y-93641401D01*
X177960754Y-93555777D01*
X177812000Y-93525654D01*
X176812000Y-93525654D01*
X176673034Y-93551802D01*
X176545401Y-93633931D01*
X176459777Y-93759246D01*
X176429654Y-93908000D01*
X176429654Y-94908000D01*
X176455802Y-95046966D01*
X176478369Y-95082036D01*
X176459777Y-95109246D01*
X176429654Y-95258000D01*
X176429654Y-95308000D01*
X172613000Y-95308000D01*
X172440792Y-95342254D01*
X172324441Y-95419998D01*
X172294802Y-95439802D01*
X168858604Y-98876000D01*
X167994346Y-98876000D01*
X167994346Y-98326000D01*
X167968198Y-98187034D01*
X167886069Y-98059401D01*
X167760754Y-97973777D01*
X167612000Y-97943654D01*
X165866050Y-97943654D01*
X165862198Y-97939802D01*
X165849371Y-97931231D01*
X165716208Y-97842254D01*
X165544000Y-97808000D01*
X164096346Y-97808000D01*
X164096346Y-96508000D01*
X164070198Y-96369034D01*
X163988069Y-96241401D01*
X163862754Y-96155777D01*
X163714000Y-96125654D01*
X161914000Y-96125654D01*
X161775034Y-96151802D01*
X161647401Y-96233931D01*
X161561777Y-96359246D01*
X161531654Y-96508000D01*
X161531654Y-100008000D01*
X161557802Y-100146966D01*
X161639931Y-100274599D01*
X161765246Y-100360223D01*
X161914000Y-100390346D01*
X163714000Y-100390346D01*
X163852966Y-100364198D01*
X163980599Y-100282069D01*
X164066223Y-100156754D01*
X164096346Y-100008000D01*
X164096346Y-98708000D01*
X165229654Y-98708000D01*
X165229654Y-100326000D01*
X165255802Y-100464966D01*
X165337931Y-100592599D01*
X165463246Y-100678223D01*
X165612000Y-100708346D01*
X167612000Y-100708346D01*
X167750966Y-100682198D01*
X167878599Y-100600069D01*
X167964223Y-100474754D01*
X167994346Y-100326000D01*
X167994346Y-99776000D01*
X169045000Y-99776000D01*
X169217208Y-99741746D01*
X169363198Y-99644198D01*
X172799396Y-96208000D01*
X176429654Y-96208000D01*
X176429654Y-96258000D01*
X176455802Y-96396966D01*
X176478369Y-96432036D01*
X176459777Y-96459246D01*
X176429654Y-96608000D01*
X176429654Y-97608000D01*
X176455802Y-97746966D01*
X176537931Y-97874599D01*
X176663246Y-97960223D01*
X176812000Y-97990346D01*
X177812000Y-97990346D01*
X177950966Y-97964198D01*
X178078599Y-97882069D01*
X178096260Y-97856222D01*
X179046038Y-98806000D01*
X175253038Y-102599000D01*
X150901846Y-102599000D01*
X150901846Y-102474000D01*
X150875698Y-102335034D01*
X150793569Y-102207401D01*
X150668254Y-102121777D01*
X150519500Y-102091654D01*
X149019500Y-102091654D01*
X148937000Y-102107177D01*
X148937000Y-101634462D01*
X149375830Y-101195632D01*
X149390671Y-101192839D01*
X149487000Y-101212346D01*
X149937000Y-101212346D01*
X150075966Y-101186198D01*
X150203599Y-101104069D01*
X150289223Y-100978754D01*
X150319346Y-100830000D01*
X150319346Y-100793877D01*
X174046083Y-100793877D01*
X174148629Y-101042057D01*
X174338344Y-101232103D01*
X174586345Y-101335083D01*
X174854877Y-101335317D01*
X175103057Y-101232771D01*
X175293103Y-101043056D01*
X175396083Y-100795055D01*
X175396317Y-100526523D01*
X175293771Y-100278343D01*
X175104056Y-100088297D01*
X174856055Y-99985317D01*
X174587523Y-99985083D01*
X174339343Y-100087629D01*
X174149297Y-100277344D01*
X174046317Y-100525345D01*
X174046083Y-100793877D01*
X150319346Y-100793877D01*
X150319346Y-99380000D01*
X150293198Y-99241034D01*
X150211069Y-99113401D01*
X150085754Y-99027777D01*
X149937000Y-98997654D01*
X149487000Y-98997654D01*
X149383329Y-99017161D01*
X149287000Y-98997654D01*
X148837000Y-98997654D01*
X148733329Y-99017161D01*
X148637000Y-98997654D01*
X148212000Y-98997654D01*
X148212000Y-98847000D01*
X148203845Y-98806000D01*
X148177747Y-98674793D01*
X148080198Y-98528802D01*
X147150198Y-97598802D01*
X147116261Y-97576126D01*
X147004208Y-97501254D01*
X146832000Y-97467000D01*
X146584346Y-97467000D01*
X146584346Y-97324000D01*
X157205654Y-97324000D01*
X157205654Y-99224000D01*
X157231802Y-99362966D01*
X157313931Y-99490599D01*
X157439246Y-99576223D01*
X157588000Y-99606346D01*
X158388000Y-99606346D01*
X158526966Y-99580198D01*
X158654599Y-99498069D01*
X158740223Y-99372754D01*
X158770346Y-99224000D01*
X158770346Y-98224000D01*
X159357500Y-98224000D01*
X159529708Y-98189746D01*
X159675698Y-98092198D01*
X162377550Y-95390346D01*
X163714000Y-95390346D01*
X163852966Y-95364198D01*
X163980599Y-95282069D01*
X164066223Y-95156754D01*
X164096346Y-95008000D01*
X164096346Y-93708000D01*
X165610291Y-93708000D01*
X165612000Y-93708346D01*
X167612000Y-93708346D01*
X167750966Y-93682198D01*
X167878599Y-93600069D01*
X167964223Y-93474754D01*
X167994346Y-93326000D01*
X167994346Y-91326000D01*
X172229654Y-91326000D01*
X172229654Y-93326000D01*
X172255802Y-93464966D01*
X172337931Y-93592599D01*
X172463246Y-93678223D01*
X172612000Y-93708346D01*
X174612000Y-93708346D01*
X174750966Y-93682198D01*
X174878599Y-93600069D01*
X174964223Y-93474754D01*
X174994346Y-93326000D01*
X174994346Y-91326000D01*
X174968198Y-91187034D01*
X174886069Y-91059401D01*
X174760754Y-90973777D01*
X174612000Y-90943654D01*
X172612000Y-90943654D01*
X172473034Y-90969802D01*
X172345401Y-91051931D01*
X172259777Y-91177246D01*
X172229654Y-91326000D01*
X167994346Y-91326000D01*
X167968198Y-91187034D01*
X167886069Y-91059401D01*
X167760754Y-90973777D01*
X167612000Y-90943654D01*
X165612000Y-90943654D01*
X165473034Y-90969802D01*
X165345401Y-91051931D01*
X165259777Y-91177246D01*
X165229654Y-91326000D01*
X165229654Y-92808000D01*
X164096346Y-92808000D01*
X164096346Y-91508000D01*
X164070198Y-91369034D01*
X163988069Y-91241401D01*
X163862754Y-91155777D01*
X163714000Y-91125654D01*
X161914000Y-91125654D01*
X161775034Y-91151802D01*
X161647401Y-91233931D01*
X161561777Y-91359246D01*
X161531654Y-91508000D01*
X161531654Y-94963450D01*
X159171104Y-97324000D01*
X158770346Y-97324000D01*
X158744198Y-97185034D01*
X158662069Y-97057401D01*
X158536754Y-96971777D01*
X158388000Y-96941654D01*
X157588000Y-96941654D01*
X157449034Y-96967802D01*
X157321401Y-97049931D01*
X157235777Y-97175246D01*
X157205654Y-97324000D01*
X146584346Y-97324000D01*
X146584346Y-97144000D01*
X147260000Y-97144000D01*
X147432208Y-97109746D01*
X147578198Y-97012198D01*
X148080198Y-96510198D01*
X148177746Y-96364208D01*
X148212000Y-96192000D01*
X148212000Y-95448750D01*
X148337000Y-95323750D01*
X148337000Y-95094785D01*
X148391926Y-95227389D01*
X148487000Y-95322463D01*
X148487000Y-95323750D01*
X148618250Y-95455000D01*
X148855750Y-95455000D01*
X148987000Y-95323750D01*
X148987000Y-95322463D01*
X149082074Y-95227389D01*
X149137000Y-95094785D01*
X149137000Y-95323750D01*
X149268250Y-95455000D01*
X149391429Y-95455000D01*
X149584389Y-95375074D01*
X149647117Y-95312346D01*
X149937000Y-95312346D01*
X150075966Y-95286198D01*
X150203599Y-95204069D01*
X150289223Y-95078754D01*
X150319346Y-94930000D01*
X150319346Y-93480000D01*
X150293198Y-93341034D01*
X150211069Y-93213401D01*
X150085754Y-93127777D01*
X149937000Y-93097654D01*
X149647117Y-93097654D01*
X149584389Y-93034926D01*
X149391429Y-92955000D01*
X149268250Y-92955000D01*
X149137000Y-93086250D01*
X149137000Y-93315215D01*
X149082074Y-93182611D01*
X148987000Y-93087537D01*
X148987000Y-93086250D01*
X148855750Y-92955000D01*
X148618250Y-92955000D01*
X148487000Y-93086250D01*
X148487000Y-93087537D01*
X148391926Y-93182611D01*
X148337000Y-93315215D01*
X148337000Y-93086250D01*
X148205750Y-92955000D01*
X148082571Y-92955000D01*
X147889611Y-93034926D01*
X147826883Y-93097654D01*
X147537000Y-93097654D01*
X147398034Y-93123802D01*
X147270401Y-93205931D01*
X147184777Y-93331246D01*
X147154654Y-93480000D01*
X147154654Y-94930000D01*
X147180802Y-95068966D01*
X147262931Y-95196599D01*
X147312000Y-95230126D01*
X147312000Y-96005604D01*
X147073604Y-96244000D01*
X146584346Y-96244000D01*
X146584346Y-95914000D01*
X146558198Y-95775034D01*
X146476069Y-95647401D01*
X146350754Y-95561777D01*
X146202000Y-95531654D01*
X145552000Y-95531654D01*
X145413034Y-95557802D01*
X145403714Y-95563799D01*
X145400754Y-95561777D01*
X145377000Y-95556967D01*
X145377000Y-92726346D01*
X145724000Y-92726346D01*
X145862966Y-92700198D01*
X145990599Y-92618069D01*
X146076223Y-92492754D01*
X146106346Y-92344000D01*
X146106346Y-91900250D01*
X146399000Y-91900250D01*
X146399000Y-92448429D01*
X146478926Y-92641389D01*
X146626611Y-92789074D01*
X146819571Y-92869000D01*
X147467750Y-92869000D01*
X147599000Y-92737750D01*
X147599000Y-91769000D01*
X147749000Y-91769000D01*
X147749000Y-92737750D01*
X147880250Y-92869000D01*
X148528429Y-92869000D01*
X148721389Y-92789074D01*
X148869074Y-92641389D01*
X148949000Y-92448429D01*
X148949000Y-91900250D01*
X148817750Y-91769000D01*
X147749000Y-91769000D01*
X147599000Y-91769000D01*
X146530250Y-91769000D01*
X146399000Y-91900250D01*
X146106346Y-91900250D01*
X146106346Y-91044000D01*
X146086697Y-90939571D01*
X146399000Y-90939571D01*
X146399000Y-91487750D01*
X146530250Y-91619000D01*
X147599000Y-91619000D01*
X147599000Y-90650250D01*
X147749000Y-90650250D01*
X147749000Y-91619000D01*
X148817750Y-91619000D01*
X148949000Y-91487750D01*
X148949000Y-90939571D01*
X148869074Y-90746611D01*
X148721389Y-90598926D01*
X148528429Y-90519000D01*
X147880250Y-90519000D01*
X147749000Y-90650250D01*
X147599000Y-90650250D01*
X147467750Y-90519000D01*
X146819571Y-90519000D01*
X146626611Y-90598926D01*
X146478926Y-90746611D01*
X146399000Y-90939571D01*
X146086697Y-90939571D01*
X146080198Y-90905034D01*
X145998069Y-90777401D01*
X145872754Y-90691777D01*
X145724000Y-90661654D01*
X144224000Y-90661654D01*
X144085034Y-90687802D01*
X143957401Y-90769931D01*
X143871777Y-90895246D01*
X143841654Y-91044000D01*
X143841654Y-92344000D01*
X143867802Y-92482966D01*
X143949931Y-92610599D01*
X144075246Y-92696223D01*
X144224000Y-92726346D01*
X144477000Y-92726346D01*
X144477000Y-95555174D01*
X144463034Y-95557802D01*
X144453714Y-95563799D01*
X144450754Y-95561777D01*
X144302000Y-95531654D01*
X143652000Y-95531654D01*
X143513034Y-95557802D01*
X143385401Y-95639931D01*
X143299777Y-95765246D01*
X143269654Y-95914000D01*
X143269654Y-97474000D01*
X143295802Y-97612966D01*
X143377931Y-97740599D01*
X143503246Y-97826223D01*
X143610525Y-97847947D01*
X143616137Y-97856346D01*
X143658802Y-97920198D01*
X143970258Y-98231654D01*
X143652000Y-98231654D01*
X143513034Y-98257802D01*
X143385401Y-98339931D01*
X143299777Y-98465246D01*
X143269654Y-98614000D01*
X143269654Y-99466884D01*
X142099269Y-100637269D01*
X141985463Y-100807591D01*
X141945500Y-101008500D01*
X141945500Y-102116654D01*
X141720500Y-102116654D01*
X141581534Y-102142802D01*
X141453901Y-102224931D01*
X141368277Y-102350246D01*
X141338154Y-102499000D01*
X141338154Y-103749000D01*
X141364302Y-103887966D01*
X141446431Y-104015599D01*
X141571746Y-104101223D01*
X141720500Y-104131346D01*
X141945500Y-104131346D01*
X141945500Y-107331538D01*
X133302038Y-115975000D01*
X130662346Y-115975000D01*
X130662346Y-113000000D01*
X130636198Y-112861034D01*
X130554069Y-112733401D01*
X130428754Y-112647777D01*
X130280000Y-112617654D01*
X124280000Y-112617654D01*
X124141034Y-112643802D01*
X124013401Y-112725931D01*
X123927777Y-112851246D01*
X123897654Y-113000000D01*
X123897654Y-120000000D01*
X123923802Y-120138966D01*
X124005931Y-120266599D01*
X124131246Y-120352223D01*
X124280000Y-120382346D01*
X130280000Y-120382346D01*
X130418966Y-120356198D01*
X130546599Y-120274069D01*
X130632223Y-120148754D01*
X130662346Y-120000000D01*
X130662346Y-117025000D01*
X133173538Y-117025000D01*
X140191000Y-124042462D01*
X140191000Y-128153654D01*
X139966000Y-128153654D01*
X139827034Y-128179802D01*
X139699401Y-128261931D01*
X139613777Y-128387246D01*
X139583654Y-128536000D01*
X139583654Y-130036000D01*
X139609802Y-130174966D01*
X139691931Y-130302599D01*
X139817246Y-130388223D01*
X139966000Y-130418346D01*
X141466000Y-130418346D01*
X141604966Y-130392198D01*
X141732599Y-130310069D01*
X141818223Y-130184754D01*
X141848346Y-130036000D01*
X141848346Y-128536000D01*
X141822198Y-128397034D01*
X141740069Y-128269401D01*
X141614754Y-128183777D01*
X141466000Y-128153654D01*
X141241000Y-128153654D01*
X141241000Y-123825000D01*
X141201037Y-123624091D01*
X141087231Y-123453769D01*
X134197712Y-116564250D01*
X143112462Y-107649500D01*
X145625500Y-107649500D01*
X145826409Y-107609537D01*
X145996731Y-107495731D01*
X148783231Y-104709231D01*
X148897037Y-104538909D01*
X148937000Y-104338000D01*
X148937000Y-104139640D01*
X149019500Y-104156346D01*
X150519500Y-104156346D01*
X150658466Y-104130198D01*
X150786099Y-104048069D01*
X150871723Y-103922754D01*
X150888835Y-103838250D01*
X185435000Y-103838250D01*
X185435000Y-104361429D01*
X185514926Y-104554389D01*
X185662611Y-104702074D01*
X185855571Y-104782000D01*
X186503750Y-104782000D01*
X186635000Y-104650750D01*
X186635000Y-103707000D01*
X186785000Y-103707000D01*
X186785000Y-104650750D01*
X186916250Y-104782000D01*
X187564429Y-104782000D01*
X187757389Y-104702074D01*
X187905074Y-104554389D01*
X187985000Y-104361429D01*
X187985000Y-103838250D01*
X187853750Y-103707000D01*
X186785000Y-103707000D01*
X186635000Y-103707000D01*
X185566250Y-103707000D01*
X185435000Y-103838250D01*
X150888835Y-103838250D01*
X150901846Y-103774000D01*
X150901846Y-103649000D01*
X175470500Y-103649000D01*
X175671409Y-103609037D01*
X175841731Y-103495231D01*
X178492285Y-100844677D01*
X179380083Y-100844677D01*
X179482629Y-101092857D01*
X179672344Y-101282903D01*
X179920345Y-101385883D01*
X180188877Y-101386117D01*
X180437057Y-101283571D01*
X180627103Y-101093856D01*
X180660989Y-101012250D01*
X181351000Y-101012250D01*
X181351000Y-102510429D01*
X181430926Y-102703389D01*
X181578611Y-102851074D01*
X181771571Y-102931000D01*
X182419750Y-102931000D01*
X182551000Y-102799750D01*
X182551000Y-100881000D01*
X182701000Y-100881000D01*
X182701000Y-102799750D01*
X182832250Y-102931000D01*
X183480429Y-102931000D01*
X183549063Y-102902571D01*
X185435000Y-102902571D01*
X185435000Y-103425750D01*
X185566250Y-103557000D01*
X186635000Y-103557000D01*
X186635000Y-102613250D01*
X186785000Y-102613250D01*
X186785000Y-103557000D01*
X187853750Y-103557000D01*
X187985000Y-103425750D01*
X187985000Y-102902571D01*
X187905074Y-102709611D01*
X187757389Y-102561926D01*
X187564429Y-102482000D01*
X186916250Y-102482000D01*
X186785000Y-102613250D01*
X186635000Y-102613250D01*
X186503750Y-102482000D01*
X185855571Y-102482000D01*
X185662611Y-102561926D01*
X185514926Y-102709611D01*
X185435000Y-102902571D01*
X183549063Y-102902571D01*
X183673389Y-102851074D01*
X183821074Y-102703389D01*
X183901000Y-102510429D01*
X183901000Y-101012250D01*
X183769750Y-100881000D01*
X182701000Y-100881000D01*
X182551000Y-100881000D01*
X181482250Y-100881000D01*
X181351000Y-101012250D01*
X180660989Y-101012250D01*
X180730083Y-100845855D01*
X180730152Y-100766250D01*
X184967000Y-100766250D01*
X184967000Y-101164429D01*
X185046926Y-101357389D01*
X185194611Y-101505074D01*
X185387571Y-101585000D01*
X186535750Y-101585000D01*
X186667000Y-101453750D01*
X186667000Y-100635000D01*
X186817000Y-100635000D01*
X186817000Y-101453750D01*
X186948250Y-101585000D01*
X188096429Y-101585000D01*
X188289389Y-101505074D01*
X188437074Y-101357389D01*
X188517000Y-101164429D01*
X188517000Y-100766250D01*
X188385750Y-100635000D01*
X186817000Y-100635000D01*
X186667000Y-100635000D01*
X185098250Y-100635000D01*
X184967000Y-100766250D01*
X180730152Y-100766250D01*
X180730317Y-100577323D01*
X180627771Y-100329143D01*
X180438056Y-100139097D01*
X180190055Y-100036117D01*
X179921523Y-100035883D01*
X179673343Y-100138429D01*
X179483297Y-100328144D01*
X179380317Y-100576145D01*
X179380083Y-100844677D01*
X178492285Y-100844677D01*
X179855903Y-99481059D01*
X179922177Y-99481117D01*
X180170357Y-99378571D01*
X180360403Y-99188856D01*
X180463383Y-98940855D01*
X180463617Y-98672323D01*
X180361071Y-98424143D01*
X180171356Y-98234097D01*
X179923355Y-98131117D01*
X179856020Y-98131058D01*
X178461731Y-96736769D01*
X178291409Y-96622963D01*
X178193497Y-96603487D01*
X178168198Y-96469034D01*
X178145631Y-96433964D01*
X178164223Y-96406754D01*
X178194346Y-96258000D01*
X178194346Y-95258000D01*
X178168198Y-95119034D01*
X178145631Y-95083964D01*
X178164223Y-95056754D01*
X178189283Y-94933000D01*
X180010538Y-94933000D01*
X181493654Y-96416116D01*
X181493654Y-98406000D01*
X181519802Y-98544966D01*
X181601931Y-98672599D01*
X181673611Y-98721576D01*
X181578611Y-98760926D01*
X181430926Y-98908611D01*
X181351000Y-99101571D01*
X181351000Y-100599750D01*
X181482250Y-100731000D01*
X182551000Y-100731000D01*
X182551000Y-100711000D01*
X182701000Y-100711000D01*
X182701000Y-100731000D01*
X183769750Y-100731000D01*
X183901000Y-100599750D01*
X183901000Y-99101571D01*
X183821074Y-98908611D01*
X183673389Y-98760926D01*
X183578210Y-98721502D01*
X183642599Y-98680069D01*
X183728223Y-98554754D01*
X183758346Y-98406000D01*
X183758346Y-98085000D01*
X184374687Y-98085000D01*
X184169143Y-98169929D01*
X183979097Y-98359644D01*
X183876117Y-98607645D01*
X183875883Y-98876177D01*
X183978429Y-99124357D01*
X184168144Y-99314403D01*
X184416145Y-99417383D01*
X184483480Y-99417442D01*
X184497269Y-99431231D01*
X184667591Y-99545037D01*
X184868500Y-99585000D01*
X185114358Y-99585000D01*
X185131806Y-99677731D01*
X185046926Y-99762611D01*
X184967000Y-99955571D01*
X184967000Y-100353750D01*
X185098250Y-100485000D01*
X186667000Y-100485000D01*
X186667000Y-100465000D01*
X186817000Y-100465000D01*
X186817000Y-100485000D01*
X188385750Y-100485000D01*
X188496975Y-100373775D01*
X188553246Y-100412223D01*
X188702000Y-100442346D01*
X190177000Y-100442346D01*
X190177000Y-101815538D01*
X189367884Y-102624654D01*
X188460000Y-102624654D01*
X188321034Y-102650802D01*
X188193401Y-102732931D01*
X188107777Y-102858246D01*
X188077654Y-103007000D01*
X188077654Y-104257000D01*
X188103802Y-104395966D01*
X188185931Y-104523599D01*
X188311246Y-104609223D01*
X188460000Y-104639346D01*
X189960000Y-104639346D01*
X190098966Y-104613198D01*
X190226599Y-104531069D01*
X190312223Y-104405754D01*
X190342346Y-104257000D01*
X190342346Y-104157000D01*
X190536538Y-104157000D01*
X202787738Y-116408200D01*
X195462769Y-123733169D01*
X195348963Y-123903491D01*
X195309000Y-124104400D01*
X195309000Y-128153654D01*
X195084000Y-128153654D01*
X194945034Y-128179802D01*
X194817401Y-128261931D01*
X194731777Y-128387246D01*
X194701654Y-128536000D01*
X194701654Y-128775490D01*
X194573591Y-128800963D01*
X194403269Y-128914769D01*
X192588538Y-130729500D01*
X190356462Y-130729500D01*
X190034288Y-130407326D01*
X190098223Y-130313754D01*
X190128346Y-130165000D01*
X190128346Y-129746250D01*
X190221000Y-129746250D01*
X190221000Y-130269429D01*
X190300926Y-130462389D01*
X190448611Y-130610074D01*
X190641571Y-130690000D01*
X191289750Y-130690000D01*
X191421000Y-130558750D01*
X191421000Y-129615000D01*
X191571000Y-129615000D01*
X191571000Y-130558750D01*
X191702250Y-130690000D01*
X192350429Y-130690000D01*
X192543389Y-130610074D01*
X192691074Y-130462389D01*
X192771000Y-130269429D01*
X192771000Y-129746250D01*
X192639750Y-129615000D01*
X191571000Y-129615000D01*
X191421000Y-129615000D01*
X190352250Y-129615000D01*
X190221000Y-129746250D01*
X190128346Y-129746250D01*
X190128346Y-128915000D01*
X190108697Y-128810571D01*
X190221000Y-128810571D01*
X190221000Y-129333750D01*
X190352250Y-129465000D01*
X191421000Y-129465000D01*
X191421000Y-128521250D01*
X191571000Y-128521250D01*
X191571000Y-129465000D01*
X192639750Y-129465000D01*
X192771000Y-129333750D01*
X192771000Y-128810571D01*
X192691074Y-128617611D01*
X192543389Y-128469926D01*
X192350429Y-128390000D01*
X191702250Y-128390000D01*
X191571000Y-128521250D01*
X191421000Y-128521250D01*
X191289750Y-128390000D01*
X190641571Y-128390000D01*
X190448611Y-128469926D01*
X190300926Y-128617611D01*
X190221000Y-128810571D01*
X190108697Y-128810571D01*
X190102198Y-128776034D01*
X190020069Y-128648401D01*
X189894754Y-128562777D01*
X189746000Y-128532654D01*
X188730562Y-128532654D01*
X188561909Y-128419963D01*
X188361000Y-128380000D01*
X187290837Y-128380000D01*
X187264069Y-128338401D01*
X187138754Y-128252777D01*
X186990000Y-128222654D01*
X185440000Y-128222654D01*
X185301034Y-128248802D01*
X185173401Y-128330931D01*
X185087777Y-128456246D01*
X185057654Y-128605000D01*
X185057654Y-129205000D01*
X185083802Y-129343966D01*
X185165931Y-129471599D01*
X185267034Y-129540680D01*
X185173401Y-129600931D01*
X185087777Y-129726246D01*
X185071751Y-129805386D01*
X184994802Y-129856802D01*
X183981658Y-130869946D01*
X183933000Y-130869903D01*
X183933000Y-130365500D01*
X183893037Y-130164591D01*
X183779231Y-129994269D01*
X182318731Y-128533769D01*
X182148409Y-128419963D01*
X181947500Y-128380000D01*
X181890837Y-128380000D01*
X181864069Y-128338401D01*
X181738754Y-128252777D01*
X181590000Y-128222654D01*
X180875116Y-128222654D01*
X179662231Y-127009769D01*
X179491909Y-126895963D01*
X179291000Y-126856000D01*
X155976000Y-126856000D01*
X155775091Y-126895963D01*
X155604769Y-127009769D01*
X153107472Y-129507066D01*
X153102198Y-129479034D01*
X153020069Y-129351401D01*
X152894754Y-129265777D01*
X152746000Y-129235654D01*
X151546000Y-129235654D01*
X151407034Y-129261802D01*
X151279401Y-129343931D01*
X151193777Y-129469246D01*
X151163654Y-129618000D01*
X151163654Y-129693000D01*
X151096346Y-129693000D01*
X151096346Y-129618000D01*
X151070198Y-129479034D01*
X150988069Y-129351401D01*
X150862754Y-129265777D01*
X150714000Y-129235654D01*
X149514000Y-129235654D01*
X149375034Y-129261802D01*
X149247401Y-129343931D01*
X149161777Y-129469246D01*
X149131654Y-129618000D01*
X149131654Y-130818000D01*
X149157802Y-130956966D01*
X149239931Y-131084599D01*
X149365246Y-131170223D01*
X149514000Y-131200346D01*
X150714000Y-131200346D01*
X150852966Y-131174198D01*
X150980599Y-131092069D01*
X151066223Y-130966754D01*
X151096346Y-130818000D01*
X151096346Y-130743000D01*
X151163654Y-130743000D01*
X151163654Y-130818000D01*
X151189802Y-130956966D01*
X151271931Y-131084599D01*
X151397246Y-131170223D01*
X151546000Y-131200346D01*
X152746000Y-131200346D01*
X152884966Y-131174198D01*
X153012599Y-131092069D01*
X153098223Y-130966754D01*
X153128346Y-130818000D01*
X153128346Y-130743000D01*
X153139000Y-130743000D01*
X153339909Y-130703037D01*
X153510231Y-130589231D01*
X154907891Y-129191571D01*
X166131000Y-129191571D01*
X166131000Y-129714750D01*
X166262250Y-129846000D01*
X167331000Y-129846000D01*
X167331000Y-128902250D01*
X167481000Y-128902250D01*
X167481000Y-129846000D01*
X168549750Y-129846000D01*
X168681000Y-129714750D01*
X168681000Y-129191571D01*
X168601074Y-128998611D01*
X168453389Y-128850926D01*
X168260429Y-128771000D01*
X167612250Y-128771000D01*
X167481000Y-128902250D01*
X167331000Y-128902250D01*
X167199750Y-128771000D01*
X166551571Y-128771000D01*
X166358611Y-128850926D01*
X166210926Y-128998611D01*
X166131000Y-129191571D01*
X154907891Y-129191571D01*
X156193462Y-127906000D01*
X174417537Y-127906000D01*
X174291926Y-128031611D01*
X174212000Y-128224571D01*
X174212000Y-128872750D01*
X174343250Y-129004000D01*
X175312000Y-129004000D01*
X175312000Y-128984000D01*
X175462000Y-128984000D01*
X175462000Y-129004000D01*
X176430750Y-129004000D01*
X176562000Y-128872750D01*
X176562000Y-128224571D01*
X176482074Y-128031611D01*
X176356463Y-127906000D01*
X179073538Y-127906000D01*
X179555910Y-128388372D01*
X179397091Y-128419963D01*
X179226769Y-128533769D01*
X177856538Y-129904000D01*
X176562000Y-129904000D01*
X176562000Y-129285250D01*
X176430750Y-129154000D01*
X175462000Y-129154000D01*
X175462000Y-129174000D01*
X175312000Y-129174000D01*
X175312000Y-129154000D01*
X174343250Y-129154000D01*
X174212000Y-129285250D01*
X174212000Y-129904000D01*
X171038346Y-129904000D01*
X171038346Y-129296000D01*
X171012198Y-129157034D01*
X170930069Y-129029401D01*
X170804754Y-128943777D01*
X170656000Y-128913654D01*
X169156000Y-128913654D01*
X169017034Y-128939802D01*
X168889401Y-129021931D01*
X168803777Y-129147246D01*
X168773654Y-129296000D01*
X168773654Y-130546000D01*
X168799802Y-130684966D01*
X168881931Y-130812599D01*
X169007246Y-130898223D01*
X169156000Y-130928346D01*
X169431000Y-130928346D01*
X169431000Y-131367654D01*
X169106000Y-131367654D01*
X168976411Y-131392038D01*
X168856000Y-131367654D01*
X168456000Y-131367654D01*
X168326411Y-131392038D01*
X168206000Y-131367654D01*
X167916117Y-131367654D01*
X167853389Y-131304926D01*
X167660429Y-131225000D01*
X167562250Y-131225000D01*
X167431000Y-131356250D01*
X167431000Y-131713724D01*
X167423654Y-131750000D01*
X167423654Y-133100000D01*
X167431000Y-133139041D01*
X167431000Y-133493750D01*
X167562250Y-133625000D01*
X167660429Y-133625000D01*
X167853389Y-133545074D01*
X167916117Y-133482346D01*
X168206000Y-133482346D01*
X168335589Y-133457962D01*
X168456000Y-133482346D01*
X168856000Y-133482346D01*
X168985589Y-133457962D01*
X169106000Y-133482346D01*
X169506000Y-133482346D01*
X169635589Y-133457962D01*
X169756000Y-133482346D01*
X170156000Y-133482346D01*
X170221376Y-133470045D01*
X170273144Y-133521903D01*
X170521145Y-133624883D01*
X170789677Y-133625117D01*
X171037857Y-133522571D01*
X171227903Y-133332856D01*
X171330883Y-133084855D01*
X171331025Y-132921250D01*
X179515000Y-132921250D01*
X179515000Y-133119429D01*
X179594926Y-133312389D01*
X179742611Y-133460074D01*
X179935571Y-133540000D01*
X180608750Y-133540000D01*
X180740000Y-133408750D01*
X180740000Y-132790000D01*
X180890000Y-132790000D01*
X180890000Y-133408750D01*
X181021250Y-133540000D01*
X181694429Y-133540000D01*
X181887389Y-133460074D01*
X182035074Y-133312389D01*
X182115000Y-133119429D01*
X182115000Y-132921250D01*
X181983750Y-132790000D01*
X180890000Y-132790000D01*
X180740000Y-132790000D01*
X179646250Y-132790000D01*
X179515000Y-132921250D01*
X171331025Y-132921250D01*
X171331117Y-132816323D01*
X171228571Y-132568143D01*
X171038856Y-132378097D01*
X170790855Y-132275117D01*
X170538346Y-132274897D01*
X170538346Y-131750000D01*
X170512198Y-131611034D01*
X170481000Y-131562551D01*
X170481000Y-130954000D01*
X174369842Y-130954000D01*
X174354654Y-131029000D01*
X174354654Y-132529000D01*
X174380802Y-132667966D01*
X174462931Y-132795599D01*
X174588246Y-132881223D01*
X174737000Y-132911346D01*
X176037000Y-132911346D01*
X176175966Y-132885198D01*
X176303599Y-132803069D01*
X176389223Y-132677754D01*
X176419346Y-132529000D01*
X176419346Y-132229000D01*
X177847000Y-132229000D01*
X178019208Y-132194746D01*
X178165198Y-132097198D01*
X178367396Y-131895000D01*
X179690902Y-131895000D01*
X179740484Y-131972053D01*
X179594926Y-132117611D01*
X179515000Y-132310571D01*
X179515000Y-132508750D01*
X179646250Y-132640000D01*
X180740000Y-132640000D01*
X180740000Y-132620000D01*
X180890000Y-132620000D01*
X180890000Y-132640000D01*
X181983750Y-132640000D01*
X182115000Y-132508750D01*
X182115000Y-132310571D01*
X182035074Y-132117611D01*
X181889045Y-131971582D01*
X181942223Y-131893754D01*
X181972346Y-131745000D01*
X181972346Y-131145000D01*
X181946198Y-131006034D01*
X181889516Y-130917947D01*
X182035074Y-130772389D01*
X182115000Y-130579429D01*
X182115000Y-130381250D01*
X181983750Y-130250000D01*
X180890000Y-130250000D01*
X180890000Y-130270000D01*
X180740000Y-130270000D01*
X180740000Y-130250000D01*
X179646250Y-130250000D01*
X179515000Y-130381250D01*
X179515000Y-130579429D01*
X179594926Y-130772389D01*
X179740955Y-130918418D01*
X179688628Y-130995000D01*
X178181000Y-130995000D01*
X178008792Y-131029254D01*
X177862802Y-131126802D01*
X177660604Y-131329000D01*
X176419346Y-131329000D01*
X176419346Y-131029000D01*
X176405234Y-130954000D01*
X178074000Y-130954000D01*
X178274909Y-130914037D01*
X178445231Y-130800231D01*
X179543361Y-129702101D01*
X179515000Y-129770571D01*
X179515000Y-129968750D01*
X179646250Y-130100000D01*
X180740000Y-130100000D01*
X180740000Y-130080000D01*
X180890000Y-130080000D01*
X180890000Y-130100000D01*
X181983750Y-130100000D01*
X182115000Y-129968750D01*
X182115000Y-129814962D01*
X182883000Y-130582962D01*
X182883000Y-132270500D01*
X182922963Y-132471409D01*
X183019160Y-132615378D01*
X181285538Y-134349000D01*
X176646346Y-134349000D01*
X176646346Y-134124000D01*
X176620198Y-133985034D01*
X176538069Y-133857401D01*
X176412754Y-133771777D01*
X176264000Y-133741654D01*
X174764000Y-133741654D01*
X174625034Y-133767802D01*
X174497401Y-133849931D01*
X174411777Y-133975246D01*
X174381654Y-134124000D01*
X174381654Y-135624000D01*
X174407802Y-135762966D01*
X174489931Y-135890599D01*
X174615246Y-135976223D01*
X174650200Y-135983301D01*
X174380361Y-136009089D01*
X173938346Y-136026548D01*
X173938346Y-134150000D01*
X173912198Y-134011034D01*
X173830069Y-133883401D01*
X173704754Y-133797777D01*
X173556000Y-133767654D01*
X171656000Y-133767654D01*
X171517034Y-133793802D01*
X171389401Y-133875931D01*
X171303777Y-134001246D01*
X171273654Y-134150000D01*
X171273654Y-136050000D01*
X171280267Y-136085148D01*
X170915721Y-136087488D01*
X169002890Y-136084491D01*
X169001331Y-136084799D01*
X168999767Y-136084497D01*
X166890634Y-136096687D01*
X166029279Y-136094775D01*
X166038346Y-136050000D01*
X166038346Y-134150000D01*
X166012198Y-134011034D01*
X165930069Y-133883401D01*
X165804754Y-133797777D01*
X165656000Y-133767654D01*
X163756000Y-133767654D01*
X163617034Y-133793802D01*
X163489401Y-133875931D01*
X163403777Y-134001246D01*
X163373654Y-134150000D01*
X163373654Y-136049036D01*
X162881904Y-136032559D01*
X162993074Y-135921389D01*
X163073000Y-135728429D01*
X163073000Y-135080250D01*
X162941750Y-134949000D01*
X161873000Y-134949000D01*
X161873000Y-134969000D01*
X161723000Y-134969000D01*
X161723000Y-134949000D01*
X160654250Y-134949000D01*
X160523000Y-135080250D01*
X160523000Y-135728429D01*
X160575727Y-135855725D01*
X160116427Y-135814730D01*
X158030499Y-135530578D01*
X155941496Y-135205170D01*
X153859239Y-134833783D01*
X151905632Y-134435000D01*
X154051000Y-134435000D01*
X154223208Y-134400746D01*
X154369198Y-134303198D01*
X154652825Y-134019571D01*
X160523000Y-134019571D01*
X160523000Y-134667750D01*
X160654250Y-134799000D01*
X161723000Y-134799000D01*
X161723000Y-133730250D01*
X161873000Y-133730250D01*
X161873000Y-134799000D01*
X162941750Y-134799000D01*
X163073000Y-134667750D01*
X163073000Y-134019571D01*
X162993074Y-133826611D01*
X162845389Y-133678926D01*
X162652429Y-133599000D01*
X162004250Y-133599000D01*
X161873000Y-133730250D01*
X161723000Y-133730250D01*
X161591750Y-133599000D01*
X160943571Y-133599000D01*
X160750611Y-133678926D01*
X160602926Y-133826611D01*
X160523000Y-134019571D01*
X154652825Y-134019571D01*
X155142684Y-133529712D01*
X155231246Y-133590223D01*
X155380000Y-133620346D01*
X156880000Y-133620346D01*
X157018966Y-133594198D01*
X157146599Y-133512069D01*
X157232223Y-133386754D01*
X157262346Y-133238000D01*
X157262346Y-131938000D01*
X157236198Y-131799034D01*
X157154069Y-131671401D01*
X157028754Y-131585777D01*
X156963683Y-131572600D01*
X157018966Y-131562198D01*
X157146599Y-131480069D01*
X157232223Y-131354754D01*
X157262346Y-131206000D01*
X157262346Y-129906000D01*
X157697654Y-129906000D01*
X157697654Y-131206000D01*
X157723802Y-131344966D01*
X157805931Y-131472599D01*
X157931246Y-131558223D01*
X157996317Y-131571400D01*
X157941034Y-131581802D01*
X157813401Y-131663931D01*
X157727777Y-131789246D01*
X157697654Y-131938000D01*
X157697654Y-133238000D01*
X157723802Y-133376966D01*
X157805931Y-133504599D01*
X157931246Y-133590223D01*
X158080000Y-133620346D01*
X159580000Y-133620346D01*
X159718966Y-133594198D01*
X159846599Y-133512069D01*
X159932223Y-133386754D01*
X159962346Y-133238000D01*
X159962346Y-133038000D01*
X160248251Y-133038000D01*
X160285363Y-133075177D01*
X160496624Y-133162900D01*
X160725373Y-133163100D01*
X160917591Y-133083677D01*
X165980883Y-133083677D01*
X166083429Y-133331857D01*
X166273144Y-133521903D01*
X166521145Y-133624883D01*
X166789677Y-133625117D01*
X166920927Y-133570886D01*
X167051571Y-133625000D01*
X167149750Y-133625000D01*
X167281000Y-133493750D01*
X167281000Y-133204985D01*
X167330883Y-133084855D01*
X167331117Y-132816323D01*
X167281000Y-132695031D01*
X167281000Y-132500000D01*
X167261000Y-132500000D01*
X167261000Y-132350000D01*
X167281000Y-132350000D01*
X167281000Y-131356250D01*
X167149750Y-131225000D01*
X167051571Y-131225000D01*
X166858611Y-131304926D01*
X166710926Y-131452611D01*
X166631000Y-131645571D01*
X166631000Y-132218750D01*
X166687277Y-132275027D01*
X166522323Y-132274883D01*
X166274143Y-132377429D01*
X166084097Y-132567144D01*
X165981117Y-132815145D01*
X165980883Y-133083677D01*
X160917591Y-133083677D01*
X160936786Y-133075746D01*
X161098677Y-132914137D01*
X161186400Y-132702876D01*
X161186600Y-132474127D01*
X161099246Y-132262714D01*
X160937637Y-132100823D01*
X160726376Y-132013100D01*
X160497627Y-132012900D01*
X160286214Y-132100254D01*
X160248402Y-132138000D01*
X159962346Y-132138000D01*
X159962346Y-131938000D01*
X159936198Y-131799034D01*
X159854069Y-131671401D01*
X159728754Y-131585777D01*
X159663683Y-131572600D01*
X159718966Y-131562198D01*
X159846599Y-131480069D01*
X159932223Y-131354754D01*
X159962346Y-131206000D01*
X159962346Y-131006000D01*
X160313309Y-131006000D01*
X160314254Y-131008286D01*
X160475863Y-131170177D01*
X160687124Y-131257900D01*
X160915873Y-131258100D01*
X161127286Y-131170746D01*
X161289177Y-131009137D01*
X161376900Y-130797876D01*
X161377100Y-130569127D01*
X161289746Y-130357714D01*
X161128137Y-130195823D01*
X160962995Y-130127250D01*
X166131000Y-130127250D01*
X166131000Y-130650429D01*
X166210926Y-130843389D01*
X166358611Y-130991074D01*
X166551571Y-131071000D01*
X167199750Y-131071000D01*
X167331000Y-130939750D01*
X167331000Y-129996000D01*
X167481000Y-129996000D01*
X167481000Y-130939750D01*
X167612250Y-131071000D01*
X168260429Y-131071000D01*
X168453389Y-130991074D01*
X168601074Y-130843389D01*
X168681000Y-130650429D01*
X168681000Y-130127250D01*
X168549750Y-129996000D01*
X167481000Y-129996000D01*
X167331000Y-129996000D01*
X166262250Y-129996000D01*
X166131000Y-130127250D01*
X160962995Y-130127250D01*
X160916876Y-130108100D01*
X160688127Y-130107900D01*
X160686965Y-130108380D01*
X160675000Y-130106000D01*
X159962346Y-130106000D01*
X159962346Y-129906000D01*
X159936198Y-129767034D01*
X159854069Y-129639401D01*
X159728754Y-129553777D01*
X159580000Y-129523654D01*
X158080000Y-129523654D01*
X157941034Y-129549802D01*
X157813401Y-129631931D01*
X157727777Y-129757246D01*
X157697654Y-129906000D01*
X157262346Y-129906000D01*
X157236198Y-129767034D01*
X157154069Y-129639401D01*
X157028754Y-129553777D01*
X156880000Y-129523654D01*
X155380000Y-129523654D01*
X155241034Y-129549802D01*
X155113401Y-129631931D01*
X155027777Y-129757246D01*
X154997654Y-129906000D01*
X154997654Y-130156382D01*
X154875802Y-130237802D01*
X153145604Y-131968000D01*
X153128346Y-131968000D01*
X153128346Y-131818000D01*
X153102198Y-131679034D01*
X153020069Y-131551401D01*
X152894754Y-131465777D01*
X152746000Y-131435654D01*
X151546000Y-131435654D01*
X151407034Y-131461802D01*
X151279401Y-131543931D01*
X151193777Y-131669246D01*
X151163654Y-131818000D01*
X151163654Y-133018000D01*
X151189802Y-133156966D01*
X151271931Y-133284599D01*
X151397246Y-133370223D01*
X151546000Y-133400346D01*
X152746000Y-133400346D01*
X152884966Y-133374198D01*
X153012599Y-133292069D01*
X153098223Y-133166754D01*
X153128346Y-133018000D01*
X153128346Y-132868000D01*
X153332000Y-132868000D01*
X153504208Y-132833746D01*
X153650198Y-132736198D01*
X155030704Y-131355692D01*
X155105931Y-131472599D01*
X155231246Y-131558223D01*
X155296317Y-131571400D01*
X155241034Y-131581802D01*
X155113401Y-131663931D01*
X155027777Y-131789246D01*
X154997654Y-131938000D01*
X154997654Y-132401950D01*
X153864604Y-133535000D01*
X151189396Y-133535000D01*
X150959830Y-133305434D01*
X150980599Y-133292069D01*
X151066223Y-133166754D01*
X151096346Y-133018000D01*
X151096346Y-131818000D01*
X151070198Y-131679034D01*
X150988069Y-131551401D01*
X150862754Y-131465777D01*
X150714000Y-131435654D01*
X149514000Y-131435654D01*
X149375034Y-131461802D01*
X149247401Y-131543931D01*
X149161777Y-131669246D01*
X149131654Y-131818000D01*
X149131654Y-133018000D01*
X149157802Y-133156966D01*
X149239931Y-133284599D01*
X149365246Y-133370223D01*
X149514000Y-133400346D01*
X149786546Y-133400346D01*
X149795802Y-133414198D01*
X150489838Y-134108234D01*
X149728473Y-133930654D01*
X147686855Y-133387768D01*
X145665592Y-132776582D01*
X143667123Y-132091195D01*
X141761661Y-131362239D01*
X139873991Y-130571645D01*
X138007680Y-129720512D01*
X136165524Y-128809680D01*
X134350305Y-127839931D01*
X132564836Y-126812120D01*
X130811885Y-125727038D01*
X129098274Y-124588172D01*
X127708879Y-123549644D01*
X126175016Y-122276285D01*
X124597121Y-120881485D01*
X123078626Y-119481858D01*
X121721613Y-118193149D01*
X120627455Y-117130552D01*
X119897201Y-116409029D01*
X119700793Y-116212763D01*
X119632498Y-116144106D01*
X119630619Y-116142843D01*
X119629348Y-116140973D01*
X119619359Y-116131139D01*
X119588852Y-116099556D01*
X119540306Y-116046651D01*
X119479483Y-115975922D01*
X119411712Y-115890676D01*
X119342320Y-115794426D01*
X119276631Y-115691323D01*
X119219773Y-115586155D01*
X119176240Y-115484568D01*
X119149074Y-115392967D01*
X119138573Y-115317539D01*
X119141491Y-115261179D01*
X119153817Y-115218448D01*
X119179161Y-115175453D01*
X119233385Y-115120404D01*
X119352565Y-115042422D01*
X120199205Y-114582481D01*
X120200408Y-114581480D01*
X120201896Y-114581006D01*
X121838619Y-113676486D01*
X121839782Y-113675504D01*
X121841228Y-113675032D01*
X124017412Y-112452342D01*
X124018875Y-112451089D01*
X124020700Y-112450475D01*
X126500992Y-111027735D01*
X126503025Y-111025963D01*
X126505570Y-111025071D01*
X129054623Y-109520361D01*
X129057706Y-109517604D01*
X129061584Y-109516162D01*
X131444051Y-108047621D01*
X131449349Y-108042698D01*
X131456038Y-108039952D01*
X133436564Y-106725683D01*
X133447837Y-106714481D01*
X133462053Y-106707378D01*
X134805295Y-105665468D01*
X134820685Y-105647733D01*
X134840418Y-105635006D01*
X135830573Y-104676466D01*
X135835811Y-104668896D01*
X135843330Y-104663579D01*
X136888494Y-103561619D01*
X136892309Y-103555569D01*
X136898007Y-103551250D01*
X137948673Y-102367339D01*
X137951907Y-102361812D01*
X137956892Y-102357796D01*
X138963551Y-101153396D01*
X138966735Y-101147566D01*
X138971777Y-101143241D01*
X139884920Y-99979821D01*
X139888588Y-99972583D01*
X139894544Y-99967073D01*
X140664665Y-98906083D01*
X140669697Y-98895156D01*
X140678058Y-98886505D01*
X141255649Y-97989425D01*
X141264211Y-97967719D01*
X141278511Y-97949279D01*
X141614063Y-97277569D01*
X141629563Y-97220891D01*
X141651503Y-97166389D01*
X141701433Y-96901589D01*
X141700699Y-96827978D01*
X141703247Y-96754404D01*
X141661357Y-96497654D01*
X141639133Y-96438266D01*
X141622553Y-96377065D01*
X141498397Y-96127045D01*
X141470197Y-96090504D01*
X141448825Y-96049588D01*
X141251939Y-95804978D01*
X141227873Y-95784842D01*
X141209432Y-95759446D01*
X140949361Y-95518916D01*
X140931448Y-95507933D01*
X140917504Y-95492222D01*
X140603789Y-95254452D01*
X140591239Y-95248356D01*
X140581318Y-95238539D01*
X140223504Y-95002189D01*
X140215149Y-94998780D01*
X140208474Y-94992706D01*
X139816102Y-94756476D01*
X139811081Y-94754668D01*
X139807046Y-94751175D01*
X139389660Y-94513725D01*
X139387402Y-94512975D01*
X139385584Y-94511435D01*
X138953097Y-94271652D01*
X138516657Y-94029106D01*
X138088356Y-93783999D01*
X137677822Y-93535404D01*
X137295232Y-93283038D01*
X136950840Y-93027340D01*
X136646891Y-92762872D01*
X136101178Y-92231879D01*
X135659517Y-91765303D01*
X135356243Y-91373930D01*
X135208711Y-91075839D01*
X135188882Y-90876285D01*
X135265413Y-90685638D01*
X135524670Y-90420063D01*
X136044416Y-90090663D01*
X136226512Y-90000351D01*
X136458613Y-89886490D01*
X136720391Y-89758517D01*
X136720512Y-89758425D01*
X136720658Y-89758386D01*
X137010122Y-89616626D01*
X137010509Y-89616330D01*
X137010982Y-89616204D01*
X137326273Y-89460914D01*
X137326874Y-89460453D01*
X137327602Y-89460256D01*
X137667186Y-89291526D01*
X137667963Y-89290926D01*
X137668909Y-89290665D01*
X138031248Y-89108575D01*
X138032168Y-89107858D01*
X138033292Y-89107541D01*
X138416851Y-88912191D01*
X138417904Y-88911361D01*
X138419193Y-88910989D01*
X138822433Y-88702459D01*
X138823596Y-88701531D01*
X138825024Y-88701108D01*
X139246412Y-88479508D01*
X139247689Y-88478474D01*
X139249258Y-88477997D01*
X139687256Y-88243407D01*
X139688631Y-88242277D01*
X139690331Y-88241744D01*
X140143401Y-87994264D01*
X140144879Y-87993029D01*
X140146710Y-87992437D01*
X140613319Y-87732147D01*
X140614893Y-87730807D01*
X140616853Y-87730153D01*
X141095463Y-87457143D01*
X141097130Y-87455696D01*
X141099218Y-87454976D01*
X141588291Y-87169346D01*
X141590056Y-87167783D01*
X141592272Y-87166991D01*
X142090275Y-86868831D01*
X142092131Y-86867150D01*
X142094481Y-86866280D01*
X142599876Y-86555689D01*
X142601833Y-86553875D01*
X142604323Y-86552918D01*
X143115572Y-86229978D01*
X143117628Y-86228025D01*
X143120261Y-86226973D01*
X143635829Y-85891773D01*
X143637985Y-85889671D01*
X143640767Y-85888514D01*
X144159118Y-85541144D01*
X144161376Y-85538880D01*
X144164307Y-85537610D01*
X144683904Y-85178170D01*
X144686265Y-85175731D01*
X144689359Y-85174333D01*
X145208665Y-84802913D01*
X145211132Y-84800284D01*
X145214391Y-84798745D01*
X145731873Y-84415435D01*
X145734445Y-84412601D01*
X145737879Y-84410904D01*
X146251996Y-84015804D01*
X146254680Y-84012739D01*
X146258298Y-84010866D01*
X146767517Y-83604046D01*
X146770309Y-83600734D01*
X146774111Y-83598668D01*
X147276894Y-83180228D01*
X147279788Y-83176652D01*
X147283782Y-83174370D01*
X147778592Y-82744420D01*
X147781593Y-82740546D01*
X147785794Y-82738018D01*
X148271097Y-82296628D01*
X148274198Y-82292432D01*
X148278600Y-82289636D01*
X148752858Y-81836906D01*
X148756051Y-81832360D01*
X148760662Y-81829262D01*
X149222339Y-81365282D01*
X149225615Y-81360353D01*
X149230437Y-81356918D01*
X149677997Y-80881777D01*
X149681343Y-80876430D01*
X149686372Y-80872622D01*
X150118277Y-80386412D01*
X150119937Y-80383579D01*
X150122523Y-80381558D01*
X150526637Y-79912489D01*
X150893012Y-79487343D01*
X150893013Y-79487341D01*
X151223488Y-79103972D01*
X151223488Y-79103971D01*
X151519871Y-78760264D01*
X151783893Y-78454195D01*
X151783895Y-78454193D01*
X152017561Y-78183453D01*
X152017561Y-78183452D01*
X152222504Y-77946084D01*
X152222505Y-77946082D01*
X152400544Y-77740004D01*
X152553411Y-77563175D01*
X152553414Y-77563173D01*
X152683226Y-77413133D01*
X152683227Y-77413132D01*
X152791458Y-77288155D01*
X152880062Y-77185930D01*
X152880063Y-77185929D01*
X152950540Y-77104791D01*
X152950543Y-77104789D01*
X153005262Y-77041840D01*
X153045251Y-76995975D01*
X153047115Y-76993847D01*
X153052892Y-76988164D01*
X153055663Y-76984090D01*
X153071790Y-76965682D01*
X153074300Y-76963633D01*
X153077600Y-76959632D01*
X153077723Y-76959403D01*
X153083505Y-76954654D01*
X153090093Y-76946620D01*
X153096891Y-76938527D01*
X153098770Y-76935106D01*
X153098919Y-76934937D01*
X153099995Y-76933081D01*
X153102090Y-76931421D01*
X153105490Y-76927420D01*
X153107183Y-76924381D01*
X153110560Y-76921374D01*
X153117360Y-76912374D01*
X153118470Y-76910081D01*
X153137538Y-76887258D01*
X153180976Y-76835556D01*
X153180977Y-76835555D01*
X153239275Y-76766326D01*
X153313248Y-76678725D01*
X153393763Y-76584480D01*
X153471333Y-76495139D01*
X153546480Y-76409282D01*
X153546597Y-76409079D01*
X153546781Y-76408937D01*
X153618572Y-76326737D01*
X153619268Y-76325526D01*
X153620365Y-76324669D01*
X153687865Y-76246369D01*
X153689301Y-76243833D01*
X153691575Y-76242007D01*
X153754405Y-76167107D01*
X153756584Y-76163134D01*
X153760058Y-76160223D01*
X153817848Y-76088323D01*
X153820884Y-76082500D01*
X153825787Y-76078132D01*
X153878176Y-76008733D01*
X153882083Y-76000651D01*
X153888533Y-75994404D01*
X153935143Y-75927003D01*
X153939754Y-75916355D01*
X153947645Y-75907843D01*
X153988095Y-75842042D01*
X153993158Y-75828378D01*
X154002318Y-75817047D01*
X154036238Y-75752447D01*
X154041278Y-75735380D01*
X154051284Y-75720663D01*
X154078314Y-75656863D01*
X154082631Y-75636035D01*
X154092792Y-75617349D01*
X154112552Y-75553850D01*
X154115118Y-75529575D01*
X154124268Y-75506945D01*
X154136378Y-75443245D01*
X154136152Y-75416611D01*
X154142997Y-75390873D01*
X154147097Y-75326473D01*
X154143432Y-75299033D01*
X154147040Y-75271587D01*
X154142740Y-75206187D01*
X154135701Y-75179937D01*
X154135805Y-75152760D01*
X154122766Y-75085860D01*
X154113143Y-75062374D01*
X154110243Y-75037161D01*
X154088073Y-74968162D01*
X154076961Y-74948168D01*
X154071944Y-74925849D01*
X154040274Y-74854449D01*
X154028839Y-74838221D01*
X154022715Y-74819334D01*
X153981164Y-74745034D01*
X153970190Y-74732169D01*
X153963728Y-74716544D01*
X153911938Y-74638944D01*
X153901876Y-74628871D01*
X153895578Y-74616104D01*
X153833178Y-74534804D01*
X153824408Y-74527115D01*
X153818686Y-74516943D01*
X153745295Y-74431343D01*
X153737576Y-74425281D01*
X153732378Y-74416952D01*
X153647628Y-74326753D01*
X153641076Y-74322074D01*
X153636562Y-74315407D01*
X153540082Y-74220106D01*
X153534649Y-74216524D01*
X153530839Y-74211247D01*
X153422253Y-74110267D01*
X153417582Y-74107385D01*
X153414259Y-74103021D01*
X153293199Y-73996041D01*
X153289320Y-73993782D01*
X153286526Y-73990266D01*
X153152618Y-73876796D01*
X153149359Y-73874987D01*
X153146992Y-73872112D01*
X152999866Y-73751732D01*
X152997187Y-73750305D01*
X152995226Y-73747990D01*
X152834509Y-73620210D01*
X152832280Y-73619063D01*
X152830640Y-73617171D01*
X152655960Y-73481561D01*
X152654128Y-73480645D01*
X152652769Y-73479107D01*
X152463755Y-73335217D01*
X152458773Y-73332784D01*
X152454998Y-73328727D01*
X152242124Y-73175133D01*
X152031740Y-73016502D01*
X151820477Y-72850590D01*
X151609037Y-72678082D01*
X151397898Y-72499514D01*
X151187619Y-72315503D01*
X150978750Y-72126604D01*
X150771874Y-71933491D01*
X150567501Y-71736721D01*
X150446221Y-71616346D01*
X152232000Y-71616346D01*
X152370966Y-71590198D01*
X152498599Y-71508069D01*
X152584223Y-71382754D01*
X152614346Y-71234000D01*
X152614346Y-70134000D01*
X152588198Y-69995034D01*
X152506069Y-69867401D01*
X152380754Y-69781777D01*
X152232000Y-69751654D01*
X150432000Y-69751654D01*
X150293034Y-69777802D01*
X150165401Y-69859931D01*
X150079777Y-69985246D01*
X150049654Y-70134000D01*
X150049654Y-71209425D01*
X149974833Y-71130550D01*
X149785862Y-70925233D01*
X149602105Y-70719326D01*
X149424000Y-70513358D01*
X149252176Y-70308062D01*
X149087119Y-70103995D01*
X148929340Y-69901814D01*
X148779472Y-69702268D01*
X148637917Y-69505840D01*
X148505289Y-69313348D01*
X148382144Y-69125533D01*
X148269011Y-68943129D01*
X148166437Y-68766959D01*
X148074929Y-68597890D01*
X147995073Y-68436986D01*
X147927290Y-68285241D01*
X147872020Y-68144032D01*
X147829549Y-68014878D01*
X147799902Y-67899616D01*
X147782662Y-67800391D01*
X147776892Y-67723404D01*
X147777324Y-67716511D01*
X147778067Y-67713243D01*
X147781823Y-67703761D01*
X147792258Y-67685356D01*
X147812862Y-67657411D01*
X147845903Y-67620823D01*
X147892140Y-67577280D01*
X147951832Y-67528109D01*
X148024719Y-67474201D01*
X148110195Y-67416444D01*
X148207800Y-67355144D01*
X148316941Y-67290579D01*
X148437060Y-67222870D01*
X148497192Y-67190250D01*
X149907000Y-67190250D01*
X149907000Y-67638429D01*
X149986926Y-67831389D01*
X150134611Y-67979074D01*
X150327571Y-68059000D01*
X151125750Y-68059000D01*
X151257000Y-67927750D01*
X151257000Y-67059000D01*
X151407000Y-67059000D01*
X151407000Y-67927750D01*
X151538250Y-68059000D01*
X152336429Y-68059000D01*
X152529389Y-67979074D01*
X152677074Y-67831389D01*
X152757000Y-67638429D01*
X152757000Y-67190250D01*
X152625750Y-67059000D01*
X151407000Y-67059000D01*
X151257000Y-67059000D01*
X150038250Y-67059000D01*
X149907000Y-67190250D01*
X148497192Y-67190250D01*
X148568026Y-67151825D01*
X148709236Y-67077263D01*
X148860034Y-66999275D01*
X149020583Y-66917312D01*
X149190045Y-66831423D01*
X149368123Y-66741468D01*
X149368344Y-66741295D01*
X149368615Y-66741219D01*
X149554892Y-66646819D01*
X149555370Y-66646444D01*
X149555956Y-66646278D01*
X149749956Y-66547278D01*
X149750699Y-66546691D01*
X149751608Y-66546430D01*
X149907000Y-66466274D01*
X149907000Y-66777750D01*
X150038250Y-66909000D01*
X151257000Y-66909000D01*
X151257000Y-66040250D01*
X151407000Y-66040250D01*
X151407000Y-66909000D01*
X152625750Y-66909000D01*
X152757000Y-66777750D01*
X152757000Y-66329571D01*
X152677074Y-66136611D01*
X152529389Y-65988926D01*
X152336429Y-65909000D01*
X151538250Y-65909000D01*
X151407000Y-66040250D01*
X151257000Y-66040250D01*
X151125750Y-65909000D01*
X150941327Y-65909000D01*
X151081573Y-65829821D01*
X151083247Y-65828381D01*
X151085341Y-65827669D01*
X151328233Y-65687248D01*
X151329996Y-65685700D01*
X151332213Y-65684919D01*
X151426386Y-65629104D01*
X156054200Y-65605000D01*
X156054200Y-68148200D01*
G36*
X184197376Y-78213500D02*
X184695080Y-78790326D01*
X185322026Y-79517506D01*
X185322028Y-79517507D01*
X186092468Y-80411669D01*
X186095045Y-80413682D01*
X186096697Y-80416502D01*
X186528603Y-80902712D01*
X186533631Y-80906519D01*
X186536978Y-80911868D01*
X186984538Y-81387008D01*
X186989360Y-81390443D01*
X186992636Y-81395372D01*
X187454313Y-81859352D01*
X187458926Y-81862451D01*
X187462118Y-81866996D01*
X187936375Y-82319727D01*
X187940779Y-82322524D01*
X187943878Y-82326718D01*
X188429181Y-82768108D01*
X188433380Y-82770635D01*
X188436382Y-82774510D01*
X188931193Y-83204460D01*
X188935189Y-83206743D01*
X188938082Y-83210318D01*
X189440864Y-83628758D01*
X189444666Y-83630824D01*
X189447458Y-83634136D01*
X189956678Y-84040956D01*
X189960295Y-84042828D01*
X189962979Y-84045894D01*
X190477096Y-84440994D01*
X190480526Y-84442689D01*
X190483097Y-84445522D01*
X191000578Y-84828841D01*
X191003838Y-84830381D01*
X191006309Y-84833014D01*
X191525616Y-85204433D01*
X191528712Y-85205832D01*
X191531075Y-85208273D01*
X192050672Y-85567703D01*
X192053601Y-85568972D01*
X192055857Y-85571234D01*
X192574208Y-85918604D01*
X192576990Y-85919761D01*
X192579146Y-85921863D01*
X193094714Y-86257063D01*
X193097347Y-86258115D01*
X193099403Y-86260068D01*
X193610652Y-86583008D01*
X193613141Y-86583965D01*
X193615095Y-86585776D01*
X194120489Y-86896376D01*
X194122842Y-86897248D01*
X194124706Y-86898935D01*
X194622708Y-87197084D01*
X194624917Y-87197873D01*
X194626678Y-87199433D01*
X195115752Y-87485073D01*
X195117845Y-87485795D01*
X195119517Y-87487246D01*
X195598126Y-87760246D01*
X195600085Y-87760899D01*
X195601656Y-87762237D01*
X196068264Y-88022527D01*
X196070091Y-88023117D01*
X196071567Y-88024351D01*
X196524638Y-88271841D01*
X196526342Y-88272375D01*
X196527719Y-88273507D01*
X196965716Y-88508097D01*
X196967286Y-88508575D01*
X196968561Y-88509607D01*
X197389948Y-88731207D01*
X197391379Y-88731630D01*
X197392547Y-88732563D01*
X197795789Y-88941083D01*
X197797073Y-88941453D01*
X197798123Y-88942281D01*
X198181681Y-89137631D01*
X198182805Y-89137948D01*
X198183725Y-89138665D01*
X198546064Y-89320755D01*
X198547006Y-89321015D01*
X198547779Y-89321612D01*
X198887361Y-89490352D01*
X198888102Y-89490553D01*
X198888710Y-89491019D01*
X199204001Y-89646299D01*
X199204461Y-89646422D01*
X199204840Y-89646711D01*
X199494304Y-89788481D01*
X199494463Y-89788523D01*
X199494594Y-89788623D01*
X199756692Y-89916743D01*
X199988517Y-90030480D01*
X200178146Y-90124518D01*
X200470435Y-90293860D01*
X200695775Y-90451739D01*
X200856539Y-90594596D01*
X200958270Y-90717630D01*
X201012476Y-90818304D01*
X201035133Y-90903439D01*
X201036443Y-90991205D01*
X201013551Y-91099779D01*
X200957680Y-91236453D01*
X200863216Y-91399943D01*
X200729350Y-91586464D01*
X200557997Y-91793034D01*
X200352210Y-92017931D01*
X200115322Y-92260510D01*
X199850725Y-92520757D01*
X199565365Y-92795633D01*
X199419977Y-92928128D01*
X199265189Y-93056872D01*
X199098298Y-93185143D01*
X198920566Y-93312695D01*
X198733297Y-93439394D01*
X198537787Y-93565147D01*
X198335357Y-93689920D01*
X198127224Y-93813746D01*
X197914592Y-93936737D01*
X197698906Y-94058867D01*
X197480987Y-94180453D01*
X197262491Y-94301386D01*
X197262489Y-94301388D01*
X197044894Y-94421692D01*
X197044499Y-94422026D01*
X197044010Y-94422183D01*
X196828918Y-94541772D01*
X196828012Y-94542541D01*
X196826885Y-94542910D01*
X196615661Y-94661870D01*
X196614227Y-94663101D01*
X196612438Y-94663704D01*
X196406276Y-94782194D01*
X196405041Y-94783273D01*
X196403490Y-94783809D01*
X196352881Y-94813409D01*
X196352321Y-94813906D01*
X196351611Y-94814154D01*
X196301401Y-94843754D01*
X196300777Y-94844312D01*
X196299990Y-94844590D01*
X196250220Y-94874190D01*
X196249831Y-94874540D01*
X196249338Y-94874716D01*
X196200007Y-94904216D01*
X196199328Y-94904830D01*
X196198468Y-94905141D01*
X196149608Y-94934641D01*
X196148908Y-94935280D01*
X196148017Y-94935606D01*
X196099637Y-94965107D01*
X196098900Y-94965785D01*
X196097959Y-94966135D01*
X196050080Y-94995635D01*
X196049305Y-94996355D01*
X196048313Y-94996729D01*
X196000953Y-95026229D01*
X196000138Y-95026994D01*
X195999096Y-95027393D01*
X195952275Y-95056893D01*
X195951420Y-95057704D01*
X195950322Y-95058131D01*
X195904062Y-95087631D01*
X195903165Y-95088491D01*
X195902010Y-95088948D01*
X195856331Y-95118447D01*
X195855391Y-95119358D01*
X195854178Y-95119847D01*
X195809098Y-95149347D01*
X195806390Y-95152004D01*
X195802895Y-95153484D01*
X195628903Y-95271754D01*
X195624025Y-95276711D01*
X195617713Y-95279627D01*
X195454747Y-95398247D01*
X195448935Y-95404545D01*
X195441306Y-95408445D01*
X195290558Y-95527605D01*
X195283771Y-95535572D01*
X195274693Y-95540783D01*
X195137357Y-95660612D01*
X195129517Y-95670776D01*
X195118786Y-95677817D01*
X194996052Y-95798507D01*
X194987220Y-95811488D01*
X194974755Y-95821035D01*
X194867818Y-95942754D01*
X194858237Y-95959315D01*
X194844144Y-95972251D01*
X194754194Y-96095151D01*
X194744413Y-96116174D01*
X194729121Y-96133606D01*
X194657361Y-96257856D01*
X194648471Y-96284031D01*
X194633067Y-96306986D01*
X194580678Y-96432756D01*
X194574359Y-96464195D01*
X194560668Y-96493194D01*
X194528838Y-96620634D01*
X194527111Y-96656289D01*
X194517452Y-96690653D01*
X194507392Y-96819953D01*
X194511828Y-96857154D01*
X194508144Y-96894437D01*
X194521034Y-97025757D01*
X194531735Y-97061076D01*
X194534476Y-97097881D01*
X194571516Y-97231361D01*
X194582763Y-97253666D01*
X194587501Y-97278192D01*
X194645991Y-97421633D01*
X194652516Y-97431516D01*
X194655397Y-97443001D01*
X194731327Y-97603401D01*
X194736636Y-97610555D01*
X194739158Y-97619097D01*
X194831768Y-97795517D01*
X194836141Y-97800928D01*
X194838326Y-97807537D01*
X194946838Y-97998996D01*
X194950500Y-98003240D01*
X194952397Y-98008514D01*
X195076038Y-98214054D01*
X195079153Y-98217480D01*
X195080812Y-98221801D01*
X195218806Y-98440461D01*
X195221494Y-98443293D01*
X195222959Y-98446912D01*
X195374534Y-98677752D01*
X195376897Y-98680153D01*
X195378210Y-98683257D01*
X195542591Y-98925297D01*
X195547404Y-98930038D01*
X195550229Y-98936173D01*
X196320350Y-99997163D01*
X196326306Y-100002673D01*
X196329974Y-100009911D01*
X197243116Y-101173331D01*
X197248158Y-101177656D01*
X197251342Y-101183486D01*
X198258001Y-102387886D01*
X198262987Y-102391904D01*
X198266222Y-102397431D01*
X199316887Y-103581331D01*
X199322585Y-103585650D01*
X199326398Y-103591697D01*
X200371561Y-104693667D01*
X200379078Y-104698982D01*
X200384318Y-104706556D01*
X201374474Y-105665096D01*
X201388214Y-105673958D01*
X201398511Y-105686658D01*
X201975762Y-106166178D01*
X201987103Y-106172327D01*
X201995812Y-106181843D01*
X202761804Y-106744223D01*
X202768687Y-106747438D01*
X202774012Y-106752860D01*
X203699324Y-107383340D01*
X203703927Y-107385296D01*
X203707512Y-107388781D01*
X204762728Y-108072581D01*
X204766014Y-108073888D01*
X204768589Y-108076311D01*
X205924289Y-108798681D01*
X205926752Y-108799614D01*
X205928694Y-108801398D01*
X207155460Y-109547568D01*
X207157377Y-109548268D01*
X207158893Y-109549634D01*
X208427306Y-110304844D01*
X208428844Y-110305389D01*
X208430062Y-110306470D01*
X209710702Y-111055960D01*
X209711965Y-111056397D01*
X209712970Y-111057278D01*
X210976421Y-111786278D01*
X210977480Y-111786637D01*
X210978326Y-111787371D01*
X212195169Y-112481121D01*
X212196078Y-112481424D01*
X212196805Y-112482049D01*
X213337619Y-113125779D01*
X213338416Y-113126041D01*
X213339053Y-113126584D01*
X214374422Y-113705544D01*
X214375143Y-113705778D01*
X214375723Y-113706269D01*
X215276225Y-114205679D01*
X215276908Y-114205898D01*
X215277460Y-114206362D01*
X216013682Y-114611472D01*
X216014413Y-114611703D01*
X216014999Y-114612193D01*
X216557516Y-114908223D01*
X216558558Y-114908549D01*
X216559400Y-114909245D01*
X216844435Y-115062918D01*
X217027307Y-115210102D01*
X217066371Y-115299865D01*
X217060607Y-115429675D01*
X216991778Y-115619994D01*
X216870409Y-115826699D01*
X216733710Y-116007675D01*
X216624239Y-116131441D01*
X216581479Y-116175109D01*
X216317430Y-116439349D01*
X215587426Y-117160613D01*
X214493295Y-118223186D01*
X213136157Y-119512024D01*
X212662346Y-119948747D01*
X212662346Y-113000000D01*
X212636198Y-112861034D01*
X212554069Y-112733401D01*
X212428754Y-112647777D01*
X212280000Y-112617654D01*
X206280000Y-112617654D01*
X206141034Y-112643802D01*
X206013401Y-112725931D01*
X205927777Y-112851246D01*
X205897654Y-113000000D01*
X205897654Y-115975000D01*
X203839462Y-115975000D01*
X191125231Y-103260769D01*
X190954909Y-103146963D01*
X190754000Y-103107000D01*
X190370462Y-103107000D01*
X191073231Y-102404231D01*
X191187037Y-102233909D01*
X191227000Y-102033000D01*
X191227000Y-100442346D01*
X192702000Y-100442346D01*
X192840966Y-100416198D01*
X192968599Y-100334069D01*
X193054223Y-100208754D01*
X193084346Y-100060000D01*
X193084346Y-98060000D01*
X193058198Y-97921034D01*
X192976069Y-97793401D01*
X192850754Y-97707777D01*
X192702000Y-97677654D01*
X188702000Y-97677654D01*
X188665438Y-97684534D01*
X188655393Y-97684419D01*
X188646314Y-97688132D01*
X188563034Y-97703802D01*
X188435401Y-97785931D01*
X188424175Y-97802361D01*
X188374346Y-97835580D01*
X188374346Y-97060000D01*
X188348198Y-96921034D01*
X188266069Y-96793401D01*
X188257153Y-96787309D01*
X188986231Y-96058231D01*
X189100037Y-95887909D01*
X189140000Y-95687000D01*
X189140000Y-87185500D01*
X189100037Y-86984591D01*
X188986231Y-86814269D01*
X184060000Y-81888038D01*
X184060000Y-78232000D01*
X184020037Y-78031091D01*
X183952362Y-77929808D01*
X184197376Y-78213500D01*
X184197376Y-78213500D01*
G37*
X184197376Y-78213500D02*
X184695080Y-78790326D01*
X185322026Y-79517506D01*
X185322028Y-79517507D01*
X186092468Y-80411669D01*
X186095045Y-80413682D01*
X186096697Y-80416502D01*
X186528603Y-80902712D01*
X186533631Y-80906519D01*
X186536978Y-80911868D01*
X186984538Y-81387008D01*
X186989360Y-81390443D01*
X186992636Y-81395372D01*
X187454313Y-81859352D01*
X187458926Y-81862451D01*
X187462118Y-81866996D01*
X187936375Y-82319727D01*
X187940779Y-82322524D01*
X187943878Y-82326718D01*
X188429181Y-82768108D01*
X188433380Y-82770635D01*
X188436382Y-82774510D01*
X188931193Y-83204460D01*
X188935189Y-83206743D01*
X188938082Y-83210318D01*
X189440864Y-83628758D01*
X189444666Y-83630824D01*
X189447458Y-83634136D01*
X189956678Y-84040956D01*
X189960295Y-84042828D01*
X189962979Y-84045894D01*
X190477096Y-84440994D01*
X190480526Y-84442689D01*
X190483097Y-84445522D01*
X191000578Y-84828841D01*
X191003838Y-84830381D01*
X191006309Y-84833014D01*
X191525616Y-85204433D01*
X191528712Y-85205832D01*
X191531075Y-85208273D01*
X192050672Y-85567703D01*
X192053601Y-85568972D01*
X192055857Y-85571234D01*
X192574208Y-85918604D01*
X192576990Y-85919761D01*
X192579146Y-85921863D01*
X193094714Y-86257063D01*
X193097347Y-86258115D01*
X193099403Y-86260068D01*
X193610652Y-86583008D01*
X193613141Y-86583965D01*
X193615095Y-86585776D01*
X194120489Y-86896376D01*
X194122842Y-86897248D01*
X194124706Y-86898935D01*
X194622708Y-87197084D01*
X194624917Y-87197873D01*
X194626678Y-87199433D01*
X195115752Y-87485073D01*
X195117845Y-87485795D01*
X195119517Y-87487246D01*
X195598126Y-87760246D01*
X195600085Y-87760899D01*
X195601656Y-87762237D01*
X196068264Y-88022527D01*
X196070091Y-88023117D01*
X196071567Y-88024351D01*
X196524638Y-88271841D01*
X196526342Y-88272375D01*
X196527719Y-88273507D01*
X196965716Y-88508097D01*
X196967286Y-88508575D01*
X196968561Y-88509607D01*
X197389948Y-88731207D01*
X197391379Y-88731630D01*
X197392547Y-88732563D01*
X197795789Y-88941083D01*
X197797073Y-88941453D01*
X197798123Y-88942281D01*
X198181681Y-89137631D01*
X198182805Y-89137948D01*
X198183725Y-89138665D01*
X198546064Y-89320755D01*
X198547006Y-89321015D01*
X198547779Y-89321612D01*
X198887361Y-89490352D01*
X198888102Y-89490553D01*
X198888710Y-89491019D01*
X199204001Y-89646299D01*
X199204461Y-89646422D01*
X199204840Y-89646711D01*
X199494304Y-89788481D01*
X199494463Y-89788523D01*
X199494594Y-89788623D01*
X199756692Y-89916743D01*
X199988517Y-90030480D01*
X200178146Y-90124518D01*
X200470435Y-90293860D01*
X200695775Y-90451739D01*
X200856539Y-90594596D01*
X200958270Y-90717630D01*
X201012476Y-90818304D01*
X201035133Y-90903439D01*
X201036443Y-90991205D01*
X201013551Y-91099779D01*
X200957680Y-91236453D01*
X200863216Y-91399943D01*
X200729350Y-91586464D01*
X200557997Y-91793034D01*
X200352210Y-92017931D01*
X200115322Y-92260510D01*
X199850725Y-92520757D01*
X199565365Y-92795633D01*
X199419977Y-92928128D01*
X199265189Y-93056872D01*
X199098298Y-93185143D01*
X198920566Y-93312695D01*
X198733297Y-93439394D01*
X198537787Y-93565147D01*
X198335357Y-93689920D01*
X198127224Y-93813746D01*
X197914592Y-93936737D01*
X197698906Y-94058867D01*
X197480987Y-94180453D01*
X197262491Y-94301386D01*
X197262489Y-94301388D01*
X197044894Y-94421692D01*
X197044499Y-94422026D01*
X197044010Y-94422183D01*
X196828918Y-94541772D01*
X196828012Y-94542541D01*
X196826885Y-94542910D01*
X196615661Y-94661870D01*
X196614227Y-94663101D01*
X196612438Y-94663704D01*
X196406276Y-94782194D01*
X196405041Y-94783273D01*
X196403490Y-94783809D01*
X196352881Y-94813409D01*
X196352321Y-94813906D01*
X196351611Y-94814154D01*
X196301401Y-94843754D01*
X196300777Y-94844312D01*
X196299990Y-94844590D01*
X196250220Y-94874190D01*
X196249831Y-94874540D01*
X196249338Y-94874716D01*
X196200007Y-94904216D01*
X196199328Y-94904830D01*
X196198468Y-94905141D01*
X196149608Y-94934641D01*
X196148908Y-94935280D01*
X196148017Y-94935606D01*
X196099637Y-94965107D01*
X196098900Y-94965785D01*
X196097959Y-94966135D01*
X196050080Y-94995635D01*
X196049305Y-94996355D01*
X196048313Y-94996729D01*
X196000953Y-95026229D01*
X196000138Y-95026994D01*
X195999096Y-95027393D01*
X195952275Y-95056893D01*
X195951420Y-95057704D01*
X195950322Y-95058131D01*
X195904062Y-95087631D01*
X195903165Y-95088491D01*
X195902010Y-95088948D01*
X195856331Y-95118447D01*
X195855391Y-95119358D01*
X195854178Y-95119847D01*
X195809098Y-95149347D01*
X195806390Y-95152004D01*
X195802895Y-95153484D01*
X195628903Y-95271754D01*
X195624025Y-95276711D01*
X195617713Y-95279627D01*
X195454747Y-95398247D01*
X195448935Y-95404545D01*
X195441306Y-95408445D01*
X195290558Y-95527605D01*
X195283771Y-95535572D01*
X195274693Y-95540783D01*
X195137357Y-95660612D01*
X195129517Y-95670776D01*
X195118786Y-95677817D01*
X194996052Y-95798507D01*
X194987220Y-95811488D01*
X194974755Y-95821035D01*
X194867818Y-95942754D01*
X194858237Y-95959315D01*
X194844144Y-95972251D01*
X194754194Y-96095151D01*
X194744413Y-96116174D01*
X194729121Y-96133606D01*
X194657361Y-96257856D01*
X194648471Y-96284031D01*
X194633067Y-96306986D01*
X194580678Y-96432756D01*
X194574359Y-96464195D01*
X194560668Y-96493194D01*
X194528838Y-96620634D01*
X194527111Y-96656289D01*
X194517452Y-96690653D01*
X194507392Y-96819953D01*
X194511828Y-96857154D01*
X194508144Y-96894437D01*
X194521034Y-97025757D01*
X194531735Y-97061076D01*
X194534476Y-97097881D01*
X194571516Y-97231361D01*
X194582763Y-97253666D01*
X194587501Y-97278192D01*
X194645991Y-97421633D01*
X194652516Y-97431516D01*
X194655397Y-97443001D01*
X194731327Y-97603401D01*
X194736636Y-97610555D01*
X194739158Y-97619097D01*
X194831768Y-97795517D01*
X194836141Y-97800928D01*
X194838326Y-97807537D01*
X194946838Y-97998996D01*
X194950500Y-98003240D01*
X194952397Y-98008514D01*
X195076038Y-98214054D01*
X195079153Y-98217480D01*
X195080812Y-98221801D01*
X195218806Y-98440461D01*
X195221494Y-98443293D01*
X195222959Y-98446912D01*
X195374534Y-98677752D01*
X195376897Y-98680153D01*
X195378210Y-98683257D01*
X195542591Y-98925297D01*
X195547404Y-98930038D01*
X195550229Y-98936173D01*
X196320350Y-99997163D01*
X196326306Y-100002673D01*
X196329974Y-100009911D01*
X197243116Y-101173331D01*
X197248158Y-101177656D01*
X197251342Y-101183486D01*
X198258001Y-102387886D01*
X198262987Y-102391904D01*
X198266222Y-102397431D01*
X199316887Y-103581331D01*
X199322585Y-103585650D01*
X199326398Y-103591697D01*
X200371561Y-104693667D01*
X200379078Y-104698982D01*
X200384318Y-104706556D01*
X201374474Y-105665096D01*
X201388214Y-105673958D01*
X201398511Y-105686658D01*
X201975762Y-106166178D01*
X201987103Y-106172327D01*
X201995812Y-106181843D01*
X202761804Y-106744223D01*
X202768687Y-106747438D01*
X202774012Y-106752860D01*
X203699324Y-107383340D01*
X203703927Y-107385296D01*
X203707512Y-107388781D01*
X204762728Y-108072581D01*
X204766014Y-108073888D01*
X204768589Y-108076311D01*
X205924289Y-108798681D01*
X205926752Y-108799614D01*
X205928694Y-108801398D01*
X207155460Y-109547568D01*
X207157377Y-109548268D01*
X207158893Y-109549634D01*
X208427306Y-110304844D01*
X208428844Y-110305389D01*
X208430062Y-110306470D01*
X209710702Y-111055960D01*
X209711965Y-111056397D01*
X209712970Y-111057278D01*
X210976421Y-111786278D01*
X210977480Y-111786637D01*
X210978326Y-111787371D01*
X212195169Y-112481121D01*
X212196078Y-112481424D01*
X212196805Y-112482049D01*
X213337619Y-113125779D01*
X213338416Y-113126041D01*
X213339053Y-113126584D01*
X214374422Y-113705544D01*
X214375143Y-113705778D01*
X214375723Y-113706269D01*
X215276225Y-114205679D01*
X215276908Y-114205898D01*
X215277460Y-114206362D01*
X216013682Y-114611472D01*
X216014413Y-114611703D01*
X216014999Y-114612193D01*
X216557516Y-114908223D01*
X216558558Y-114908549D01*
X216559400Y-114909245D01*
X216844435Y-115062918D01*
X217027307Y-115210102D01*
X217066371Y-115299865D01*
X217060607Y-115429675D01*
X216991778Y-115619994D01*
X216870409Y-115826699D01*
X216733710Y-116007675D01*
X216624239Y-116131441D01*
X216581479Y-116175109D01*
X216317430Y-116439349D01*
X215587426Y-117160613D01*
X214493295Y-118223186D01*
X213136157Y-119512024D01*
X212662346Y-119948747D01*
X212662346Y-113000000D01*
X212636198Y-112861034D01*
X212554069Y-112733401D01*
X212428754Y-112647777D01*
X212280000Y-112617654D01*
X206280000Y-112617654D01*
X206141034Y-112643802D01*
X206013401Y-112725931D01*
X205927777Y-112851246D01*
X205897654Y-113000000D01*
X205897654Y-115975000D01*
X203839462Y-115975000D01*
X191125231Y-103260769D01*
X190954909Y-103146963D01*
X190754000Y-103107000D01*
X190370462Y-103107000D01*
X191073231Y-102404231D01*
X191187037Y-102233909D01*
X191227000Y-102033000D01*
X191227000Y-100442346D01*
X192702000Y-100442346D01*
X192840966Y-100416198D01*
X192968599Y-100334069D01*
X193054223Y-100208754D01*
X193084346Y-100060000D01*
X193084346Y-98060000D01*
X193058198Y-97921034D01*
X192976069Y-97793401D01*
X192850754Y-97707777D01*
X192702000Y-97677654D01*
X188702000Y-97677654D01*
X188665438Y-97684534D01*
X188655393Y-97684419D01*
X188646314Y-97688132D01*
X188563034Y-97703802D01*
X188435401Y-97785931D01*
X188424175Y-97802361D01*
X188374346Y-97835580D01*
X188374346Y-97060000D01*
X188348198Y-96921034D01*
X188266069Y-96793401D01*
X188257153Y-96787309D01*
X188986231Y-96058231D01*
X189100037Y-95887909D01*
X189140000Y-95687000D01*
X189140000Y-87185500D01*
X189100037Y-86984591D01*
X188986231Y-86814269D01*
X184060000Y-81888038D01*
X184060000Y-78232000D01*
X184020037Y-78031091D01*
X183952362Y-77929808D01*
X184197376Y-78213500D01*
M02*
