  0
SECTION
  2
HEADER
  9
$ACADVER
  1
AC1014
  9
$HANDSEED
  5
FFFF
  9
$MEASUREMENT
 70
     1
  0
ENDSEC
  0
SECTION
  2
TABLES
  0
TABLE
  2
VPORT
  5
8
330
0
100
AcDbSymbolTable
 70
     4
  0
VPORT
  5
2E
330
8
100
AcDbSymbolTableRecord
100
AcDbViewportTableRecord
  2
*ACTIVE
 70
     0
 10
0.0
 20
0.0
 11
1.0
 21
1.0
 12
210.0
 22
148.5
 13
0.0
 23
0.0
 14
10.0
 24
10.0
 15
10.0
 25
10.0
 16
0.0
 26
0.0
 36
1.0
 17
0.0
 27
0.0
 37
0.0
 40
341.0
 41
1.24
 42
50.0
 43
0.0
 44
0.0
 50
0.0
 51
0.0
 71
     0
 72
   100
 73
     1
 74
     3
 75
     0
 76
     0
 77
     0
 78
     0
  0
ENDTAB
  0
TABLE
  2
LTYPE
  5
5
330
0
100
AcDbSymbolTable
 70
     1
  0
LTYPE
  5
14
330
5
100
AcDbSymbolTableRecord
100
AcDbLinetypeTableRecord
  2
BYBLOCK
 70
     0
  3

 72
    65
 73
     0
 40
0.0
  0
LTYPE
  5
15
330
5
100
AcDbSymbolTableRecord
100
AcDbLinetypeTableRecord
  2
BYLAYER
 70
     0
  3

 72
    65
 73
     0
 40
0.0
  0
LTYPE
  5
16
330
5
100
AcDbSymbolTableRecord
100
AcDbLinetypeTableRecord
  2
CONTINUOUS
 70
     0
  3
Solid line
 72
    65
 73
     0
 40
0.0
  0
ENDTAB
  0
TABLE
  2
LAYER
  5
2
100
AcDbSymbolTable
 70
2
  0
LAYER
  5
50
100
AcDbSymbolTableRecord
100
AcDbLayerTableRecord
  2
0
 70
0
  6
CONTINUOUS
  0
LAYER
  5
51
100
AcDbSymbolTableRecord
100
AcDbLayerTableRecord
  2
Capa_1
 70
0
  6
CONTINUOUS
  0
ENDTAB
  0
TABLE
  2
STYLE
  5
3
330
0
100
AcDbSymbolTable
 70
     1
  0
STYLE
  5
11
330
3
100
AcDbSymbolTableRecord
100
AcDbTextStyleTableRecord
  2
STANDARD
 70
     0
 40
0.0
 41
1.0
 50
0.0
 71
     0
 42
2.5
  3
txt
  4

  0
ENDTAB
  0
TABLE
  2
VIEW
  5
6
330
0
100
AcDbSymbolTable
 70
     0
  0
ENDTAB
  0
TABLE
  2
UCS
  5
7
330
0
100
AcDbSymbolTable
 70
     0
  0
ENDTAB
  0
TABLE
  2
APPID
  5
9
330
0
100
AcDbSymbolTable
 70
     2
  0
APPID
  5
12
330
9
100
AcDbSymbolTableRecord
100
AcDbRegAppTableRecord
  2
ACAD
 70
     0
  0
ENDTAB
  0
TABLE
  2
DIMSTYLE
  5
A
330
0
100
AcDbSymbolTable
 70
     1
  0
DIMSTYLE
105
27
330
A
100
AcDbSymbolTableRecord
100
AcDbDimStyleTableRecord
  2
ISO-25
 70
     0
  3

  4

  5

  6

  7

 40
1.0
 41
2.5
 42
0.625
 43
3.75
 44
1.25
 45
0.0
 46
0.0
 47
0.0
 48
0.0
140
2.5
141
2.5
142
0.0
143
0.03937007874016
144
1.0
145
0.0
146
1.0
147
0.625
 71
     0
 72
     0
 73
     0
 74
     0
 75
     0
 76
     0
 77
     1
 78
     8
170
     0
171
     3
172
     1
173
     0
174
     0
175
     0
176
     0
177
     0
178
     0
270
     2
271
     2
272
     2
273
     2
274
     3
340
11
275
     0
280
     0
281
     0
282
     0
283
     0
284
     8
285
     0
286
     0
287
     3
288
     0
  0
ENDTAB
  0
TABLE
  2
BLOCK_RECORD
  5
1
330
0
100
AcDbSymbolTable
 70
     1
  0
BLOCK_RECORD
  5
1F
330
1
100
AcDbSymbolTableRecord
100
AcDbBlockTableRecord
  2
*MODEL_SPACE
  0
BLOCK_RECORD
  5
1B
330
1
100
AcDbSymbolTableRecord
100
AcDbBlockTableRecord
  2
*PAPER_SPACE
  0
ENDTAB
  0
ENDSEC
  0
SECTION
  2
BLOCKS
  0
BLOCK
  5
20
330
1F
100
AcDbEntity
  8
0
100
AcDbBlockBegin
  2
*MODEL_SPACE
 70
     0
 10
0.0
 20
0.0
 30
0.0
  3
*MODEL_SPACE
  1

  0
ENDBLK
  5
21
330
1F
100
AcDbEntity
  8
0
100
AcDbBlockEnd
  0
BLOCK
  5
1C
330
1B
100
AcDbEntity
 67
     1
  8
0
100
AcDbBlockBegin
  2
*PAPER_SPACE
  1

  0
ENDBLK
  5
1D
330
1B
100
AcDbEntity
 67
     1
  8
0
100
AcDbBlockEnd
  0
ENDSEC
  0
SECTION
  2
ENTITIES
  0
LWPOLYLINE
  5
100
100
AcDbEntity
  8
Capa_1
 62
7
100
AcDbPolyline
 90
761
 70
1
 10
53.640765
 20
83.047080
 30
0.0
 10
54.159724
 20
82.330070
 30
0.0
 10
54.678682
 20
81.613070
 30
0.0
 10
55.197640
 20
80.896060
 30
0.0
 10
55.716599
 20
80.179060
 30
0.0
 10
56.054401
 20
79.698240
 30
0.0
 10
56.488047
 20
79.143660
 30
0.0
 10
57.006103
 20
78.526850
 30
0.0
 10
57.597138
 20
77.859330
 30
0.0
 10
58.249720
 20
77.152610
 30
0.0
 10
58.952415
 20
76.418210
 30
0.0
 10
59.693791
 20
75.667650
 30
0.0
 10
60.462416
 20
74.912450
 30
0.0
 10
61.246857
 20
74.164120
 30
0.0
 10
62.035682
 20
73.434190
 30
0.0
 10
62.817459
 20
72.734180
 30
0.0
 10
63.580754
 20
72.075590
 30
0.0
 10
64.314136
 20
71.469960
 30
0.0
 10
65.006172
 20
70.928800
 30
0.0
 10
65.645429
 20
70.463620
 30
0.0
 10
66.220476
 20
70.085950
 30
0.0
 10
67.252724
 20
69.486910
 30
0.0
 10
68.185052
 20
68.996780
 30
0.0
 10
69.005620
 20
68.595610
 30
0.0
 10
69.702587
 20
68.263430
 30
0.0
 10
70.264112
 20
67.980280
 30
0.0
 10
70.490385
 20
67.850840
 30
0.0
 10
70.678356
 20
67.726170
 30
0.0
 10
70.826547
 20
67.603770
 30
0.0
 10
70.933478
 20
67.481150
 30
0.0
 10
70.997668
 20
67.355820
 30
0.0
 10
71.017638
 20
67.225260
 30
0.0
 10
71.008138
 20
67.106130
 30
0.0
 10
70.984458
 20
66.978040
 30
0.0
 10
70.947098
 20
66.841530
 30
0.0
 10
70.896568
 20
66.697120
 30
0.0
 10
70.833358
 20
66.545370
 30
0.0
 10
70.757978
 20
66.386800
 30
0.0
 10
70.670918
 20
66.221960
 30
0.0
 10
70.572678
 20
66.051390
 30
0.0
 10
70.344676
 20
65.695180
 30
0.0
 10
70.077967
 20
65.322490
 30
0.0
 10
69.776551
 20
64.937610
 30
0.0
 10
69.444426
 20
64.544860
 30
0.0
 10
69.085592
 20
64.148540
 30
0.0
 10
68.704047
 20
63.752960
 30
0.0
 10
68.303791
 20
63.362410
 30
0.0
 10
67.888822
 20
62.981200
 30
0.0
 10
67.463139
 20
62.613640
 30
0.0
 10
67.030742
 20
62.264040
 30
0.0
 10
66.595629
 20
61.936690
 30
0.0
 10
66.161800
 20
61.635900
 30
0.0
 10
65.490204
 20
61.140000
 30
0.0
 10
65.235214
 20
60.932820
 30
0.0
 10
65.030128
 20
60.748300
 30
0.0
 10
64.871972
 20
60.583070
 30
0.0
 10
64.757772
 20
60.433740
 30
0.0
 10
64.684552
 20
60.296910
 30
0.0
 10
64.649342
 20
60.169220
 30
0.0
 10
64.649157
 20
60.047260
 30
0.0
 10
64.681027
 20
59.927660
 30
0.0
 10
64.741977
 20
59.807020
 30
0.0
 10
64.829037
 20
59.681970
 30
0.0
 10
64.939224
 20
59.549120
 30
0.0
 10
65.069567
 20
59.405090
 30
0.0
 10
65.378820
 20
59.069910
 30
0.0
 10
65.512507
 20
58.920930
 30
0.0
 10
65.587517
 20
58.836830
 30
0.0
 10
65.618307
 20
58.801630
 30
0.0
 10
65.619307
 20
58.799630
 30
0.0
 10
65.604987
 20
58.814930
 30
0.0
 10
65.589787
 20
58.831630
 30
0.0
 10
65.588187
 20
58.833630
 30
0.0
 10
65.614567
 20
58.805630
 30
0.0
 10
65.683407
 20
58.731630
 30
0.0
 10
65.809152
 20
58.595650
 30
0.0
 10
66.006252
 20
58.381870
 30
0.0
 10
66.289155
 20
58.074460
 30
0.0
 10
66.672309
 20
57.657560
 30
0.0
 10
67.170162
 20
57.115340
 30
0.0
 10
67.797161
 20
56.431930
 30
0.0
 10
68.567753
 20
55.591500
 30
0.0
 10
68.999695
 20
55.134560
 30
0.0
 10
69.447293
 20
54.688020
 30
0.0
 10
69.909009
 20
54.251970
 30
0.0
 10
70.383307
 20
53.826490
 30
0.0
 10
70.868651
 20
53.411670
 30
0.0
 10
71.363504
 20
53.007600
 30
0.0
 10
71.866329
 20
52.614350
 30
0.0
 10
72.375591
 20
52.232020
 30
0.0
 10
72.889752
 20
51.860700
 30
0.0
 10
73.407277
 20
51.500460
 30
0.0
 10
73.926628
 20
51.151400
 30
0.0
 10
74.446269
 20
50.813600
 30
0.0
 10
74.964664
 20
50.487140
 30
0.0
 10
75.480276
 20
50.172120
 30
0.0
 10
75.991568
 20
49.868620
 30
0.0
 10
76.497005
 20
49.576720
 30
0.0
 10
76.995049
 20
49.296510
 30
0.0
 10
77.484164
 20
49.028070
 30
0.0
 10
77.962813
 20
48.771500
 30
0.0
 10
78.429461
 20
48.526880
 30
0.0
 10
78.882571
 20
48.294290
 30
0.0
 10
79.320605
 20
48.073820
 30
0.0
 10
79.742028
 20
47.865560
 30
0.0
 10
80.145303
 20
47.669590
 30
0.0
 10
80.528893
 20
47.486000
 30
0.0
 10
80.891263
 20
47.314870
 30
0.0
 10
81.230875
 20
47.156290
 30
0.0
 10
81.546193
 20
47.010350
 30
0.0
 10
81.835681
 20
46.877120
 30
0.0
 10
82.097802
 20
46.756710
 30
0.0
 10
82.331019
 20
46.649190
 30
0.0
 10
82.533796
 20
46.554690
 30
0.0
 10
82.853847
 20
46.380440
 30
0.0
 10
83.114293
 20
46.208960
 30
0.0
 10
83.317828
 20
46.039000
 30
0.0
 10
83.467146
 20
45.869300
 30
0.0
 10
83.564936
 20
45.698630
 30
0.0
 10
83.613896
 20
45.525740
 30
0.0
 10
83.616696
 20
45.349390
 30
0.0
 10
83.576076
 20
45.168330
 30
0.0
 10
83.494716
 20
44.981310
 30
0.0
 10
83.375294
 20
44.787080
 30
0.0
 10
83.220509
 20
44.584410
 30
0.0
 10
83.033056
 20
44.372050
 30
0.0
 10
82.815627
 20
44.148750
 30
0.0
 10
82.570916
 20
43.913270
 30
0.0
 10
82.301616
 20
43.664360
 30
0.0
 10
82.010422
 20
43.400770
 30
0.0
 10
81.853582
 20
43.266460
 30
0.0
 10
81.685102
 20
43.134770
 30
0.0
 10
81.506175
 20
43.005540
 30
0.0
 10
81.317993
 20
42.878630
 30
0.0
 10
81.121751
 20
42.753860
 30
0.0
 10
80.918641
 20
42.631090
 30
0.0
 10
80.709855
 20
42.510160
 30
0.0
 10
80.496587
 20
42.390920
 30
0.0
 10
80.280030
 20
42.273210
 30
0.0
 10
80.061376
 20
42.156870
 30
0.0
 10
79.841819
 20
42.041750
 30
0.0
 10
79.622552
 20
41.927700
 30
0.0
 10
79.404767
 20
41.814550
 30
0.0
 10
79.189657
 20
41.702160
 30
0.0
 10
78.978415
 20
41.590360
 30
0.0
 10
78.772235
 20
41.479000
 30
0.0
 10
78.721625
 20
41.451200
 30
0.0
 10
78.671415
 20
41.423400
 30
0.0
 10
78.621635
 20
41.395600
 30
0.0
 10
78.572305
 20
41.367900
 30
0.0
 10
78.523445
 20
41.340200
 30
0.0
 10
78.475065
 20
41.312500
 30
0.0
 10
78.427185
 20
41.284800
 30
0.0
 10
78.379825
 20
41.257100
 30
0.0
 10
78.333005
 20
41.229400
 30
0.0
 10
78.286745
 20
41.201700
 30
0.0
 10
78.241065
 20
41.174000
 30
0.0
 10
78.195985
 20
41.146300
 30
0.0
 10
78.021979
 20
41.035150
 30
0.0
 10
77.858999
 20
40.923670
 30
0.0
 10
77.708238
 20
40.811690
 30
0.0
 10
77.570889
 20
40.699070
 30
0.0
 10
77.448145
 20
40.585640
 30
0.0
 10
77.341199
 20
40.471250
 30
0.0
 10
77.251239
 20
40.355750
 30
0.0
 10
77.179469
 20
40.238980
 30
0.0
 10
77.127079
 20
40.120780
 30
0.0
 10
77.095249
 20
40.001010
 30
0.0
 10
77.085189
 20
39.879490
 30
0.0
 10
77.098079
 20
39.756080
 30
0.0
 10
77.135119
 20
39.630630
 30
0.0
 10
77.193619
 20
39.495830
 30
0.0
 10
77.269559
 20
39.345080
 30
0.0
 10
77.362179
 20
39.179280
 30
0.0
 10
77.470701
 20
38.999350
 30
0.0
 10
77.594352
 20
38.806180
 30
0.0
 10
77.732358
 20
38.600680
 30
0.0
 10
77.883946
 20
38.383740
 30
0.0
 10
78.048341
 20
38.156270
 30
0.0
 10
78.818527
 20
37.159150
 30
0.0
 10
79.731747
 20
36.065760
 30
0.0
 10
80.738491
 20
34.933860
 30
0.0
 10
81.789245
 20
33.821220
 30
0.0
 10
82.834497
 20
32.785590
 30
0.0
 10
83.824737
 20
31.884750
 30
0.0
 10
84.402037
 20
31.434090
 30
0.0
 10
85.168094
 20
30.905560
 30
0.0
 10
86.093485
 20
30.313040
 30
0.0
 10
87.148791
 20
29.670400
 30
0.0
 10
88.304589
 20
28.991510
 30
0.0
 10
89.531459
 20
28.290260
 30
0.0
 10
90.799980
 20
27.580510
 30
0.0
 10
92.080730
 20
26.876130
 30
0.0
 10
93.344288
 20
26.191020
 30
0.0
 10
94.561233
 20
25.539030
 30
0.0
 10
95.702145
 20
24.934050
 30
0.0
 10
96.737601
 20
24.389940
 30
0.0
 10
97.638180
 20
23.920590
 30
0.0
 10
98.374463
 20
23.539870
 30
0.0
 10
98.917026
 20
23.261660
 30
0.0
 10
99.236450
 20
23.099820
 30
0.0
 10
99.531258
 20
22.876850
 30
0.0
 10
99.651314
 20
22.617600
 30
0.0
 10
99.638364
 20
22.342410
 30
0.0
 10
99.534157
 20
22.071640
 30
0.0
 10
99.380437
 20
21.825620
 30
0.0
 10
99.218952
 20
21.624710
 30
0.0
 10
99.091447
 20
21.489240
 30
0.0
 10
99.039667
 20
21.439540
 30
0.0
 10
98.773114
 20
21.188880
 30
0.0
 10
98.040744
 20
20.508890
 30
0.0
 10
96.943495
 20
19.507520
 30
0.0
 10
95.582300
 20
18.292750
 30
0.0
 10
94.058096
 20
16.972530
 30
0.0
 10
92.471818
 20
15.654850
 30
0.0
 10
90.924402
 20
14.447670
 30
0.0
 10
89.516784
 20
13.458940
 30
0.0
 10
87.787519
 20
12.378950
 30
0.0
 10
86.022820
 20
11.352440
 30
0.0
 10
84.225474
 20
10.380150
 30
0.0
 10
82.398267
 20
9.462840
 30
0.0
 10
80.543985
 20
8.601270
 30
0.0
 10
78.665417
 20
7.796190
 30
0.0
 10
76.765347
 20
7.048370
 30
0.0
 10
74.846563
 20
6.358560
 30
0.0
 10
72.833466
 20
5.710150
 30
0.0
 10
70.797594
 20
5.132540
 30
0.0
 10
68.742420
 20
4.620080
 30
0.0
 10
66.671417
 20
4.167140
 30
0.0
 10
64.588057
 20
3.768080
 30
0.0
 10
62.495813
 20
3.417240
 30
0.0
 10
60.398156
 20
3.109000
 30
0.0
 10
58.298560
 20
2.837710
 30
0.0
 10
56.561392
 20
2.681700
 30
0.0
 10
54.844740
 20
2.618000
 30
0.0
 10
53.068903
 20
2.607300
 30
0.0
 10
51.154183
 20
2.610300
 30
0.0
 10
49.043175
 20
2.598800
 30
0.0
 10
46.791043
 20
2.603800
 30
0.0
 10
44.486940
 20
2.676400
 30
0.0
 10
42.220019
 20
2.866550
 30
0.0
 10
40.120124
 20
3.135360
 30
0.0
 10
38.022327
 20
3.442440
 30
0.0
 10
35.930064
 20
3.793120
 30
0.0
 10
33.846771
 20
4.192740
 30
0.0
 10
31.775884
 20
4.646640
 30
0.0
 10
29.720839
 20
5.160160
 30
0.0
 10
27.685071
 20
5.738630
 30
0.0
 10
25.672016
 20
6.387400
 30
0.0
 10
23.753232
 20
7.077210
 30
0.0
 10
21.853162
 20
7.825030
 30
0.0
 10
19.974593
 20
8.630110
 30
0.0
 10
18.120312
 20
9.491680
 30
0.0
 10
16.293105
 20
10.408990
 30
0.0
 10
14.495760
 20
11.381280
 30
0.0
 10
12.731062
 20
12.407790
 30
0.0
 10
11.001799
 20
13.487780
 30
0.0
 10
9.594181
 20
14.476510
 30
0.0
 10
8.046766
 20
15.683690
 30
0.0
 10
6.460489
 20
17.001380
 30
0.0
 10
4.936286
 20
18.321590
 30
0.0
 10
3.575093
 20
19.536360
 30
0.0
 10
2.477844
 20
20.537730
 30
0.0
 10
1.745475
 20
21.217720
 30
0.0
 10
1.547663
 20
21.403470
 30
0.0
 10
1.478922
 20
21.468370
 30
0.0
 10
1.465107
 20
21.481170
 30
0.0
 10
1.427143
 20
21.518070
 30
0.0
 10
1.370247
 20
21.576370
 30
0.0
 10
1.299638
 20
21.653570
 30
0.0
 10
1.220528
 20
21.747070
 30
0.0
 10
1.138152
 20
21.854440
 30
0.0
 10
1.057715
 20
21.973080
 30
0.0
 10
0.984431
 20
22.100460
 30
0.0
 10
0.923523
 20
22.234030
 30
0.0
 10
0.880223
 20
22.371230
 30
0.0
 10
0.859733
 20
22.509540
 30
0.0
 10
0.867273
 20
22.646420
 30
0.0
 10
0.908066
 20
22.779310
 30
0.0
 10
0.987328
 20
22.905670
 30
0.0
 10
1.110277
 20
23.022960
 30
0.0
 10
1.282133
 20
23.128640
 30
0.0
 10
2.144122
 20
23.568690
 30
0.0
 10
3.780985
 20
24.418760
 30
0.0
 10
5.957352
 20
25.567850
 30
0.0
 10
8.437855
 20
26.904950
 30
0.0
 10
10.987125
 20
28.319080
 30
0.0
 10
13.369793
 20
29.699220
 30
0.0
 10
15.350488
 20
30.934380
 30
0.0
 10
16.693844
 20
31.913570
 30
0.0
 10
17.684084
 20
32.814410
 30
0.0
 10
18.729337
 20
33.850040
 30
0.0
 10
19.780091
 20
34.962680
 30
0.0
 10
20.786835
 20
36.094580
 30
0.0
 10
21.700056
 20
37.187970
 30
0.0
 10
22.470242
 20
38.185090
 30
0.0
 10
23.047882
 20
39.028170
 30
0.0
 10
23.383463
 20
39.659450
 30
0.0
 10
23.433393
 20
39.908310
 30
0.0
 10
23.391503
 20
40.149600
 30
0.0
 10
23.267336
 20
40.384570
 30
0.0
 10
23.070434
 20
40.614460
 30
0.0
 10
22.810341
 20
40.840510
 30
0.0
 10
22.496600
 20
41.063970
 30
0.0
 10
22.138756
 20
41.286090
 30
0.0
 10
21.746351
 20
41.508100
 30
0.0
 10
21.328930
 20
41.731260
 30
0.0
 10
20.896035
 20
41.956800
 30
0.0
 10
20.457211
 20
42.185970
 30
0.0
 10
20.022001
 20
42.420020
 30
0.0
 10
19.599947
 20
42.660190
 30
0.0
 10
19.200595
 20
42.907730
 30
0.0
 10
18.833488
 20
43.163870
 30
0.0
 10
18.508168
 20
43.429870
 30
0.0
 10
17.947673
 20
43.942370
 30
0.0
 10
17.485532
 20
44.401160
 30
0.0
 10
17.143293
 20
44.816190
 30
0.0
 10
16.942505
 20
45.197430
 30
0.0
 10
16.904715
 20
45.554840
 30
0.0
 10
17.051473
 20
45.898400
 30
0.0
 10
17.404325
 20
46.238060
 30
0.0
 10
17.984821
 20
46.583790
 30
0.0
 10
18.187598
 20
46.678290
 30
0.0
 10
18.420816
 20
46.785810
 30
0.0
 10
18.682937
 20
46.906220
 30
0.0
 10
18.972425
 20
47.039450
 30
0.0
 10
19.287743
 20
47.185390
 30
0.0
 10
19.627355
 20
47.343970
 30
0.0
 10
19.989725
 20
47.515100
 30
0.0
 10
20.373316
 20
47.698690
 30
0.0
 10
20.776591
 20
47.894660
 30
0.0
 10
21.198014
 20
48.102920
 30
0.0
 10
21.636049
 20
48.323390
 30
0.0
 10
22.089158
 20
48.555980
 30
0.0
 10
22.555806
 20
48.800600
 30
0.0
 10
23.034456
 20
49.057170
 30
0.0
 10
23.523571
 20
49.325610
 30
0.0
 10
24.021615
 20
49.605820
 30
0.0
 10
24.527052
 20
49.897720
 30
0.0
 10
25.038344
 20
50.201220
 30
0.0
 10
25.553956
 20
50.516240
 30
0.0
 10
26.072351
 20
50.842700
 30
0.0
 10
26.591992
 20
51.180500
 30
0.0
 10
27.111343
 20
51.529560
 30
0.0
 10
27.628868
 20
51.889800
 30
0.0
 10
28.143029
 20
52.261120
 30
0.0
 10
28.652291
 20
52.643450
 30
0.0
 10
29.155116
 20
53.036700
 30
0.0
 10
29.649969
 20
53.440770
 30
0.0
 10
30.135313
 20
53.855590
 30
0.0
 10
30.609611
 20
54.281070
 30
0.0
 10
31.071327
 20
54.717120
 30
0.0
 10
31.518925
 20
55.163660
 30
0.0
 10
31.950867
 20
55.620600
 30
0.0
 10
32.355015
 20
56.061430
 30
0.0
 10
32.721459
 20
56.461030
 30
0.0
 10
33.052005
 20
56.821370
 30
0.0
 10
33.348458
 20
57.144440
 30
0.0
 10
33.612625
 20
57.432210
 30
0.0
 10
33.846311
 20
57.686660
 30
0.0
 10
34.051323
 20
57.909790
 30
0.0
 10
34.229465
 20
58.103560
 30
0.0
 10
34.382546
 20
58.269960
 30
0.0
 10
34.512369
 20
58.410970
 30
0.0
 10
34.620742
 20
58.528570
 30
0.0
 10
34.709472
 20
58.624770
 30
0.0
 10
34.780362
 20
58.701470
 30
0.0
 10
34.835222
 20
58.760770
 30
0.0
 10
34.875852
 20
58.804570
 30
0.0
 10
34.904062
 20
58.834870
 30
0.0
 10
34.921652
 20
58.853570
 30
0.0
 10
34.930452
 20
58.862570
 30
0.0
 10
34.932252
 20
58.864570
 30
0.0
 10
34.928852
 20
58.860570
 30
0.0
 10
34.922052
 20
58.852570
 30
0.0
 10
34.913652
 20
58.843570
 30
0.0
 10
34.905452
 20
58.834570
 30
0.0
 10
34.899352
 20
58.828570
 30
0.0
 10
34.897052
 20
58.826570
 30
0.0
 10
34.900352
 20
58.830570
 30
0.0
 10
34.911122
 20
58.843070
 30
0.0
 10
34.931142
 20
58.865770
 30
0.0
 10
34.962222
 20
58.900770
 30
0.0
 10
35.006162
 20
58.949970
 30
0.0
 10
35.064772
 20
59.015370
 30
0.0
 10
35.139852
 20
59.098970
 30
0.0
 10
35.222302
 20
59.189670
 30
0.0
 10
35.301582
 20
59.275470
 30
0.0
 10
35.377302
 20
59.356770
 30
0.0
 10
35.449102
 20
59.434070
 30
0.0
 10
35.516612
 20
59.507670
 30
0.0
 10
35.579452
 20
59.578070
 30
0.0
 10
35.637252
 20
59.645670
 30
0.0
 10
35.689642
 20
59.710870
 30
0.0
 10
35.736252
 20
59.774170
 30
0.0
 10
35.776702
 20
59.835970
 30
0.0
 10
35.810622
 20
59.896670
 30
0.0
 10
35.837652
 20
59.956670
 30
0.0
 10
35.857412
 20
60.016370
 30
0.0
 10
35.869522
 20
60.076270
 30
0.0
 10
35.873622
 20
60.136770
 30
0.0
 10
35.869322
 20
60.198270
 30
0.0
 10
35.856282
 20
60.261170
 30
0.0
 10
35.834112
 20
60.325970
 30
0.0
 10
35.802442
 20
60.393070
 30
0.0
 10
35.760892
 20
60.462870
 30
0.0
 10
35.709102
 20
60.535770
 30
0.0
 10
35.646692
 20
60.612170
 30
0.0
 10
35.573292
 20
60.692570
 30
0.0
 10
35.488532
 20
60.777370
 30
0.0
 10
35.392042
 20
60.866970
 30
0.0
 10
35.283447
 20
60.961870
 30
0.0
 10
35.162376
 20
61.062410
 30
0.0
 10
35.028457
 20
61.169050
 30
0.0
 10
34.881317
 20
61.282190
 30
0.0
 10
34.720586
 20
61.402280
 30
0.0
 10
34.545891
 20
61.529720
 30
0.0
 10
34.356861
 20
61.664950
 30
0.0
 10
34.140357
 20
61.811750
 30
0.0
 10
33.923032
 20
61.965740
 30
0.0
 10
33.705386
 20
62.126360
 30
0.0
 10
33.487919
 20
62.293090
 30
0.0
 10
33.271131
 20
62.465380
 30
0.0
 10
33.055522
 20
62.642690
 30
0.0
 10
32.841591
 20
62.824500
 30
0.0
 10
32.629839
 20
63.010250
 30
0.0
 10
32.420765
 20
63.199420
 30
0.0
 10
32.214869
 20
63.391460
 30
0.0
 10
32.012652
 20
63.585830
 30
0.0
 10
31.814612
 20
63.782010
 30
0.0
 10
31.621251
 20
63.979440
 30
0.0
 10
31.433067
 20
64.177590
 30
0.0
 10
31.250561
 20
64.375930
 30
0.0
 10
31.074232
 20
64.573910
 30
0.0
 10
30.904581
 20
64.771010
 30
0.0
 10
30.742107
 20
64.966660
 30
0.0
 10
30.587311
 20
65.160350
 30
0.0
 10
30.440691
 20
65.351540
 30
0.0
 10
30.302748
 20
65.539680
 30
0.0
 10
30.173982
 20
65.724230
 30
0.0
 10
30.054893
 20
65.904660
 30
0.0
 10
29.945980
 20
66.080440
 30
0.0
 10
29.847740
 20
66.251010
 30
0.0
 10
29.760680
 20
66.415850
 30
0.0
 10
29.685300
 20
66.574420
 30
0.0
 10
29.622090
 20
66.726170
 30
0.0
 10
29.571560
 20
66.870580
 30
0.0
 10
29.534200
 20
67.007090
 30
0.0
 10
29.510520
 20
67.135180
 30
0.0
 10
29.501020
 20
67.254310
 30
0.0
 10
29.505420
 20
67.320410
 30
0.0
 10
29.521020
 20
67.384910
 30
0.0
 10
29.547680
 20
67.448110
 30
0.0
 10
29.585210
 20
67.510310
 30
0.0
 10
29.633430
 20
67.571810
 30
0.0
 10
29.692140
 20
67.632910
 30
0.0
 10
29.761170
 20
67.694010
 30
0.0
 10
29.840330
 20
67.755310
 30
0.0
 10
29.929440
 20
67.817210
 30
0.0
 10
30.028310
 20
67.880010
 30
0.0
 10
30.136751
 20
67.944010
 30
0.0
 10
30.254582
 20
68.009510
 30
0.0
 10
30.381618
 20
68.076810
 30
0.0
 10
30.517675
 20
68.146210
 30
0.0
 10
30.662566
 20
68.218110
 30
0.0
 10
30.816108
 20
68.292710
 30
0.0
 10
30.978114
 20
68.370410
 30
0.0
 10
31.148401
 20
68.451510
 30
0.0
 10
31.326782
 20
68.536210
 30
0.0
 10
31.513074
 20
68.624910
 30
0.0
 10
31.707091
 20
68.717910
 30
0.0
 10
31.908648
 20
68.815610
 30
0.0
 10
32.117560
 20
68.918210
 30
0.0
 10
32.333642
 20
69.026060
 30
0.0
 10
32.556709
 20
69.139470
 30
0.0
 10
32.786575
 20
69.258760
 30
0.0
 10
33.023057
 20
69.384220
 30
0.0
 10
33.265969
 20
69.516190
 30
0.0
 10
33.515126
 20
69.654960
 30
0.0
 10
33.770343
 20
69.800840
 30
0.0
 10
34.031435
 20
69.954170
 30
0.0
 10
34.298217
 20
70.115230
 30
0.0
 10
34.576999
 20
70.292410
 30
0.0
 10
34.873264
 20
70.492900
 30
0.0
 10
35.185581
 20
70.715270
 30
0.0
 10
35.512521
 20
70.958080
 30
0.0
 10
35.852656
 20
71.219880
 30
0.0
 10
36.204557
 20
71.499240
 30
0.0
 10
36.566794
 20
71.794720
 30
0.0
 10
36.937939
 20
72.104870
 30
0.0
 10
37.316562
 20
72.428270
 30
0.0
 10
37.701234
 20
72.763460
 30
0.0
 10
38.090527
 20
73.109010
 30
0.0
 10
38.483011
 20
73.463470
 30
0.0
 10
38.877257
 20
73.825420
 30
0.0
 10
39.271836
 20
74.193400
 30
0.0
 10
39.665319
 20
74.565990
 30
0.0
 10
40.056277
 20
74.941730
 30
0.0
 10
40.443281
 20
75.319190
 30
0.0
 10
40.824902
 20
75.696930
 30
0.0
 10
41.199710
 20
76.073510
 30
0.0
 10
41.566278
 20
76.447490
 30
0.0
 10
41.923175
 20
76.817430
 30
0.0
 10
42.268973
 20
77.181890
 30
0.0
 10
42.602242
 20
77.539430
 30
0.0
 10
42.921554
 20
77.888610
 30
0.0
 10
43.225479
 20
78.227990
 30
0.0
 10
43.512589
 20
78.556130
 30
0.0
 10
43.781454
 20
78.871600
 30
0.0
 10
44.030645
 20
79.172940
 30
0.0
 10
44.258734
 20
79.458730
 30
0.0
 10
44.464291
 20
79.727520
 30
0.0
 10
44.645887
 20
79.977870
 30
0.0
 10
44.802093
 20
80.208340
 30
0.0
 10
45.003808
 20
80.487070
 30
0.0
 10
45.205524
 20
80.765810
 30
0.0
 10
45.407239
 20
81.044540
 30
0.0
 10
45.608954
 20
81.323270
 30
0.0
 10
45.810670
 20
81.602010
 30
0.0
 10
46.012385
 20
81.880740
 30
0.0
 10
46.214101
 20
82.159480
 30
0.0
 10
46.415816
 20
82.438210
 30
0.0
 10
46.617531
 20
82.716940
 30
0.0
 10
46.819247
 20
82.995680
 30
0.0
 10
47.020962
 20
83.274410
 30
0.0
 10
47.222677
 20
83.553140
 30
0.0
 10
47.424393
 20
83.831880
 30
0.0
 10
47.626108
 20
84.110610
 30
0.0
 10
47.827824
 20
84.389350
 30
0.0
 10
48.029539
 20
84.668080
 30
0.0
 10
48.104209
 20
84.842360
 30
0.0
 10
48.039819
 20
84.948100
 30
0.0
 10
47.871423
 20
85.005800
 30
0.0
 10
47.634083
 20
85.036100
 30
0.0
 10
47.362859
 20
85.059400
 30
0.0
 10
47.092808
 20
85.096400
 30
0.0
 10
46.858990
 20
85.167600
 30
0.0
 10
46.696462
 20
85.293460
 30
0.0
 10
46.627092
 20
85.495040
 30
0.0
 10
46.635292
 20
85.760910
 30
0.0
 10
46.700072
 20
86.062980
 30
0.0
 10
46.800322
 20
86.373140
 30
0.0
 10
46.914972
 20
86.663300
 30
0.0
 10
47.022951
 20
86.905340
 30
0.0
 10
47.103191
 20
87.071180
 30
0.0
 10
47.134621
 20
87.132680
 30
0.0
 10
47.134335
 20
87.133410
 30
0.0
 10
47.133482
 20
87.135410
 30
0.0
 10
47.132082
 20
87.139410
 30
0.0
 10
47.130082
 20
87.144410
 30
0.0
 10
47.127582
 20
87.150410
 30
0.0
 10
47.124582
 20
87.158410
 30
0.0
 10
47.120982
 20
87.167410
 30
0.0
 10
47.116882
 20
87.177810
 30
0.0
 10
47.066512
 20
87.306080
 30
0.0
 10
46.987602
 20
87.505650
 30
0.0
 10
46.884280
 20
87.764890
 30
0.0
 10
46.760672
 20
88.072190
 30
0.0
 10
46.620904
 20
88.415910
 30
0.0
 10
46.469102
 20
88.784430
 30
0.0
 10
46.309391
 20
89.166130
 30
0.0
 10
46.145898
 20
89.549370
 30
0.0
 10
45.982749
 20
89.922530
 30
0.0
 10
45.824070
 20
90.273990
 30
0.0
 10
45.673987
 20
90.592120
 30
0.0
 10
45.536626
 20
90.865290
 30
0.0
 10
45.469856
 20
90.999200
 30
0.0
 10
45.374446
 20
91.139310
 30
0.0
 10
45.146139
 20
91.359360
 30
0.0
 10
45.117249
 20
91.396160
 30
0.0
 10
45.101379
 20
91.435960
 30
0.0
 10
45.098779
 20
91.477660
 30
0.0
 10
45.109599
 20
91.520160
 30
0.0
 10
45.134089
 20
91.562360
 30
0.0
 10
45.172459
 20
91.603260
 30
0.0
 10
45.224929
 20
91.641760
 30
0.0
 10
45.291709
 20
91.676760
 30
0.0
 10
45.373019
 20
91.707260
 30
0.0
 10
45.469069
 20
91.732060
 30
0.0
 10
45.580077
 20
91.750160
 30
0.0
 10
45.706256
 20
91.760560
 30
0.0
 10
45.847822
 20
91.761560
 30
0.0
 10
46.004990
 20
91.753560
 30
0.0
 10
46.176574
 20
91.753040
 30
0.0
 10
46.359912
 20
91.777640
 30
0.0
 10
46.553007
 20
91.825240
 30
0.0
 10
46.753859
 20
91.893840
 30
0.0
 10
46.960471
 20
91.981340
 30
0.0
 10
47.170843
 20
92.085690
 30
0.0
 10
47.382978
 20
92.204830
 30
0.0
 10
47.594875
 20
92.336690
 30
0.0
 10
47.804538
 20
92.479210
 30
0.0
 10
48.009968
 20
92.630330
 30
0.0
 10
48.209165
 20
92.787980
 30
0.0
 10
48.400132
 20
92.950100
 30
0.0
 10
48.580870
 20
93.114630
 30
0.0
 10
48.749381
 20
93.279500
 30
0.0
 10
48.903665
 20
93.442650
 30
0.0
 10
49.041724
 20
93.602020
 30
0.0
 10
49.168201
 20
93.759430
 30
0.0
 10
49.288855
 20
93.917110
 30
0.0
 10
49.403362
 20
94.073640
 30
0.0
 10
49.511401
 20
94.227570
 30
0.0
 10
49.612649
 20
94.377450
 30
0.0
 10
49.706789
 20
94.521860
 30
0.0
 10
49.793489
 20
94.659340
 30
0.0
 10
49.872429
 20
94.788470
 30
0.0
 10
49.943289
 20
94.907800
 30
0.0
 10
50.005749
 20
95.015890
 30
0.0
 10
50.059479
 20
95.111290
 30
0.0
 10
50.104169
 20
95.192590
 30
0.0
 10
50.139489
 20
95.258290
 30
0.0
 10
50.165119
 20
95.306990
 30
0.0
 10
50.180729
 20
95.337290
 30
0.0
 10
50.186029
 20
95.347690
 30
0.0
 10
50.243789
 20
95.349690
 30
0.0
 10
50.301549
 20
95.351690
 30
0.0
 10
50.359309
 20
95.353690
 30
0.0
 10
50.417069
 20
95.355690
 30
0.0
 10
50.474829
 20
95.357690
 30
0.0
 10
50.532589
 20
95.359690
 30
0.0
 10
50.590349
 20
95.361690
 30
0.0
 10
50.648109
 20
95.363690
 30
0.0
 10
50.705869
 20
95.365690
 30
0.0
 10
50.763629
 20
95.367690
 30
0.0
 10
50.821389
 20
95.369690
 30
0.0
 10
50.879149
 20
95.371690
 30
0.0
 10
50.936909
 20
95.373690
 30
0.0
 10
50.994669
 20
95.375690
 30
0.0
 10
51.052429
 20
95.377690
 30
0.0
 10
51.110189
 20
95.379690
 30
0.0
 10
51.119389
 20
95.351390
 30
0.0
 10
51.146769
 20
95.270790
 30
0.0
 10
51.191889
 20
95.144290
 30
0.0
 10
51.254359
 20
94.978390
 30
0.0
 10
51.333759
 20
94.779570
 30
0.0
 10
51.429689
 20
94.554300
 30
0.0
 10
51.541732
 20
94.309050
 30
0.0
 10
51.669484
 20
94.050270
 30
0.0
 10
51.812536
 20
93.784450
 30
0.0
 10
51.970481
 20
93.518050
 30
0.0
 10
52.142910
 20
93.257530
 30
0.0
 10
52.329414
 20
93.009380
 30
0.0
 10
52.529585
 20
92.780040
 30
0.0
 10
52.743016
 20
92.576000
 30
0.0
 10
52.969297
 20
92.403730
 30
0.0
 10
53.208021
 20
92.269680
 30
0.0
 10
53.454159
 20
92.162980
 30
0.0
 10
53.701393
 20
92.067980
 30
0.0
 10
53.947381
 20
91.984080
 30
0.0
 10
54.189780
 20
91.910480
 30
0.0
 10
54.426247
 20
91.846680
 30
0.0
 10
54.654442
 20
91.791880
 30
0.0
 10
54.872020
 20
91.745480
 30
0.0
 10
55.076640
 20
91.706780
 30
0.0
 10
55.265960
 20
91.675080
 30
0.0
 10
55.437636
 20
91.649780
 30
0.0
 10
55.589328
 20
91.630180
 30
0.0
 10
55.718691
 20
91.615680
 30
0.0
 10
55.823385
 20
91.605580
 30
0.0
 10
55.901065
 20
91.599580
 30
0.0
 10
55.949395
 20
91.596580
 30
0.0
 10
55.966025
 20
91.595610
 30
0.0
 10
55.973025
 20
91.591610
 30
0.0
 10
55.992695
 20
91.579410
 30
0.0
 10
56.022855
 20
91.559710
 30
0.0
 10
56.061355
 20
91.533210
 30
0.0
 10
56.106035
 20
91.500410
 30
0.0
 10
56.154755
 20
91.461910
 30
0.0
 10
56.205365
 20
91.418310
 30
0.0
 10
56.255725
 20
91.370210
 30
0.0
 10
56.303675
 20
91.318110
 30
0.0
 10
56.347065
 20
91.262610
 30
0.0
 10
56.383755
 20
91.204410
 30
0.0
 10
56.411595
 20
91.143910
 30
0.0
 10
56.428425
 20
91.081810
 30
0.0
 10
56.432125
 20
91.018610
 30
0.0
 10
56.420505
 20
90.955010
 30
0.0
 10
56.391435
 20
90.891510
 30
0.0
 10
56.328265
 20
90.810410
 30
0.0
 10
56.220265
 20
90.696970
 30
0.0
 10
56.074187
 20
90.556410
 30
0.0
 10
55.896776
 20
90.393910
 30
0.0
 10
55.694781
 20
90.214650
 30
0.0
 10
55.474950
 20
90.023800
 30
0.0
 10
55.244030
 20
89.826560
 30
0.0
 10
55.008770
 20
89.628080
 30
0.0
 10
54.775916
 20
89.433560
 30
0.0
 10
54.552217
 20
89.248170
 30
0.0
 10
54.344420
 20
89.077100
 30
0.0
 10
54.159273
 20
88.925520
 30
0.0
 10
54.003524
 20
88.798600
 30
0.0
 10
53.883920
 20
88.701500
 30
0.0
 10
53.807210
 20
88.639500
 30
0.0
 10
53.780140
 20
88.617700
 30
0.0
 10
53.779222
 20
88.519600
 30
0.0
 10
53.778304
 20
88.421500
 30
0.0
 10
53.777386
 20
88.323400
 30
0.0
 10
53.776467
 20
88.225300
 30
0.0
 10
53.775549
 20
88.127200
 30
0.0
 10
53.774631
 20
88.029100
 30
0.0
 10
53.773713
 20
87.931000
 30
0.0
 10
53.772795
 20
87.832900
 30
0.0
 10
53.771877
 20
87.734800
 30
0.0
 10
53.770959
 20
87.636700
 30
0.0
 10
53.770041
 20
87.538600
 30
0.0
 10
53.769122
 20
87.440500
 30
0.0
 10
53.768204
 20
87.342400
 30
0.0
 10
53.767286
 20
87.244300
 30
0.0
 10
53.766368
 20
87.146200
 30
0.0
 10
53.765450
 20
87.048100
 30
0.0
 10
53.838800
 20
86.924320
 30
0.0
 10
54.000172
 20
86.624500
 30
0.0
 10
54.161545
 20
86.255910
 30
0.0
 10
54.234895
 20
85.925830
 30
0.0
 10
54.233911
 20
85.859130
 30
0.0
 10
54.230911
 20
85.796330
 30
0.0
 10
54.225911
 20
85.737130
 30
0.0
 10
54.218911
 20
85.681330
 30
0.0
 10
54.209811
 20
85.628630
 30
0.0
 10
54.198581
 20
85.578830
 30
0.0
 10
54.185211
 20
85.531730
 30
0.0
 10
54.169671
 20
85.487030
 30
0.0
 10
54.151931
 20
85.444430
 30
0.0
 10
54.131951
 20
85.403730
 30
0.0
 10
54.109711
 20
85.364630
 30
0.0
 10
54.085181
 20
85.326930
 30
0.0
 10
54.058331
 20
85.290430
 30
0.0
 10
54.029121
 20
85.254730
 30
0.0
 10
53.997531
 20
85.219730
 30
0.0
 10
53.963521
 20
85.185130
 30
0.0
 10
53.913901
 20
85.144230
 30
0.0
 10
53.858601
 20
85.111430
 30
0.0
 10
53.798771
 20
85.085630
 30
0.0
 10
53.735571
 20
85.065430
 30
0.0
 10
53.670141
 20
85.049730
 30
0.0
 10
53.603651
 20
85.037130
 30
0.0
 10
53.537241
 20
85.026430
 30
0.0
 10
53.472071
 20
85.016430
 30
0.0
 10
53.310924
 20
85.003730
 30
0.0
 10
53.124659
 20
85.004690
 30
0.0
 10
52.930121
 20
85.010690
 30
0.0
 10
52.744155
 20
85.011690
 30
0.0
 10
52.665075
 20
85.004690
 30
0.0
 10
52.603135
 20
84.985790
 30
0.0
 10
52.557185
 20
84.954590
 30
0.0
 10
52.526075
 20
84.910090
 30
0.0
 10
52.506065
 20
84.857390
 30
0.0
 10
52.495485
 20
84.796690
 30
0.0
 10
52.496292
 20
84.720290
 30
0.0
 10
52.510432
 20
84.620270
 30
0.0
 10
52.526502
 20
84.560770
 30
0.0
 10
52.552812
 20
84.496570
 30
0.0
 10
52.588742
 20
84.427570
 30
0.0
 10
52.633642
 20
84.353670
 30
0.0
 10
52.686882
 20
84.274770
 30
0.0
 10
52.747822
 20
84.190770
 30
0.0
 10
52.815832
 20
84.101670
 30
0.0
 10
52.890272
 20
84.007270
 30
0.0
 10
53.239567
 20
83.575180
 30
0.0
 10
53.640787
 20
83.051510
 30
0.0
  0
ENDSEC
  0
SECTION
  2
OBJECTS
  0
DICTIONARY
  5
C
330
0
100
AcDbDictionary
  3
ACAD_GROUP
350
D
  3
ACAD_MLINESTYLE
350
17
  0
DICTIONARY
  5
D
330
C
100
AcDbDictionary
  0
DICTIONARY
  5
1A
330
C
100
AcDbDictionary
  0
DICTIONARY
  5
17
330
C
100
AcDbDictionary
  3
STANDARD
350
18
  0
DICTIONARY
  5
19
330
C
100
AcDbDictionary
  0
ENDSEC
  0
EOF
