<?xml version="1.0" encoding="UTF-8" standalone="no"?>
<!-- Created with Inkscape (http://www.inkscape.org/) -->

<svg
   xmlns:dc="http://purl.org/dc/elements/1.1/"
   xmlns:cc="http://creativecommons.org/ns#"
   xmlns:rdf="http://www.w3.org/1999/02/22-rdf-syntax-ns#"
   xmlns:svg="http://www.w3.org/2000/svg"
   xmlns="http://www.w3.org/2000/svg"
   xmlns:sodipodi="http://sodipodi.sourceforge.net/DTD/sodipodi-0.dtd"
   xmlns:inkscape="http://www.inkscape.org/namespaces/inkscape"
   width="100mm"
   height="100mm"
   viewBox="0 0 100 100"
   version="1.1"
   id="svg8"
   inkscape:version="0.92.2pre0 (973e216, 2017-07-25)"
   sodipodi:docname="Tree.svg">
  <defs
     id="defs2" />
  <sodipodi:namedview
     id="base"
     pagecolor="#ffffff"
     bordercolor="#666666"
     borderopacity="1.0"
     inkscape:pageopacity="0.0"
     inkscape:pageshadow="2"
     inkscape:zoom="1.4672912"
     inkscape:cx="187.94321"
     inkscape:cy="188.40019"
     inkscape:document-units="mm"
     inkscape:current-layer="layer1"
     showgrid="false"
     inkscape:window-width="1366"
     inkscape:window-height="740"
     inkscape:window-x="0"
     inkscape:window-y="0"
     inkscape:window-maximized="1"
     showguides="true"
     inkscape:guide-bbox="true"
     inkscape:measure-start="202.737,313.879"
     inkscape:measure-end="202.737,13.1436" />
  <metadata
     id="metadata5">
    <rdf:RDF>
      <cc:Work
         rdf:about="">
        <dc:format>image/svg+xml</dc:format>
        <dc:type
           rdf:resource="http://purl.org/dc/dcmitype/StillImage" />
        <dc:title></dc:title>
      </cc:Work>
    </rdf:RDF>
  </metadata>
  <g
     inkscape:label="Capa 1"
     inkscape:groupmode="layer"
     id="layer1"
     transform="translate(0,-197)"
     style="display:inline">
    <path
       style="fill:none;stroke:#000000;stroke-width:0.27291366px;stroke-linecap:butt;stroke-linejoin:miter;stroke-opacity:1"
       d="m 53.213626,210.91263 0.518915,0.76294 0.518914,0.76292 0.518914,0.76294 0.518915,0.76292 0.337773,0.51162 0.433609,0.5901 0.518012,0.65632 0.590985,0.71027 0.652527,0.75199 0.702635,0.78144 0.741313,0.79863 0.76856,0.80357 0.784374,0.79627 0.788758,0.77668 0.781711,0.74484 0.76323,0.70078 0.73332,0.64442 0.691977,0.57582 0.639203,0.49498 0.574998,0.40186 1.03216,0.63741 0.932249,0.52152 0.820498,0.42686 0.696908,0.35346 0.561477,0.30129 0.226254,0.13773 0.187955,0.13265 0.148179,0.13024 0.106922,0.13048 0.06418,0.13335 0.01997,0.13893 -0.0095,0.12676 -0.02368,0.13629 -0.03736,0.14526 -0.05053,0.15366 -0.0632,0.16146 -0.07537,0.16873 -0.08705,0.1754 -0.09823,0.18149 -0.227982,0.37903 -0.266687,0.39656 -0.30139,0.40953 -0.332097,0.41791 -0.358804,0.4217 -0.381512,0.42092 -0.400222,0.41557 -0.414934,0.40562 -0.425647,0.39111 -0.43236,0.37199 -0.435076,0.34832 -0.433792,0.32005 -0.671539,0.52766 -0.254968,0.22046 -0.205069,0.19633 -0.158143,0.17582 -0.11419,0.15889 -0.07321,0.1456 -0.03521,0.13586 -1.85e-4,0.12978 0.03187,0.12726 0.06094,0.12836 0.08705,0.13306 0.110178,0.14136 0.130332,0.15326 0.309226,0.35665 0.133676,0.15852 0.075,0.0895 0.03079,0.0374 0.001,0.002 -0.01432,-0.0163 -0.0152,-0.0178 -0.0016,-0.002 0.02638,0.0298 0.06883,0.0787 0.125735,0.14469 0.197083,0.22748 0.282879,0.3271 0.383121,0.4436 0.497811,0.57695 0.626946,0.72718 0.770526,0.89426 0.431906,0.48621 0.44756,0.47514 0.461677,0.46398 0.474257,0.45273 0.485303,0.44139 0.494811,0.42995 0.502782,0.41844 0.509219,0.40682 0.514117,0.3951 0.517481,0.38332 0.519307,0.37142 0.519597,0.35943 0.518351,0.34737 0.515568,0.3352 0.511249,0.32294 0.505394,0.3106 0.498002,0.29815 0.489073,0.28564 0.478609,0.273 0.466608,0.26029 0.453071,0.24749 0.437997,0.23459 0.421387,0.2216 0.403241,0.20852 0.383558,0.19535 0.362339,0.18209 0.339583,0.16874 0.315291,0.15528 0.289464,0.14177 0.262098,0.12812 0.233198,0.11441 0.202759,0.10055 0.320024,0.18541 0.260424,0.18246 0.203518,0.18085 0.149305,0.18057 0.09778,0.1816 0.04896,0.18397 0.0028,0.18764 -0.04062,0.19266 -0.08135,0.199 -0.119412,0.20667 -0.154772,0.21565 -0.187437,0.22596 -0.217411,0.2376 -0.24469,0.25057 -0.269277,0.26485 -0.291169,0.28047 -0.156827,0.14292 -0.168466,0.14012 -0.178911,0.13751 -0.188166,0.13504 -0.196226,0.13276 -0.203093,0.13063 -0.208768,0.12868 -0.21325,0.12687 -0.216538,0.12525 -0.218636,0.1238 -0.219538,0.12249 -0.219248,0.12135 -0.217767,0.1204 -0.215092,0.11959 -0.211224,0.11896 -0.206162,0.11849 -0.05061,0.0296 -0.05021,0.0296 -0.04977,0.0296 -0.04933,0.0295 -0.04886,0.0295 -0.04838,0.0295 -0.04788,0.0295 -0.04736,0.0295 -0.04682,0.0295 -0.04626,0.0295 -0.04568,0.0295 -0.04508,0.0295 -0.173992,0.11827 -0.162966,0.11862 -0.150748,0.11916 -0.137337,0.11983 -0.122734,0.12069 -0.106937,0.12172 -0.08995,0.1229 -0.07176,0.12425 -0.05239,0.12577 -0.03183,0.12744 -0.01006,0.1293 0.01289,0.13132 0.03704,0.13348 0.05849,0.14344 0.07593,0.1604 0.09261,0.17642 0.108512,0.19146 0.123641,0.20554 0.137994,0.21866 0.151575,0.23084 0.164381,0.24204 0.770121,1.06099 0.913142,1.16342 1.006659,1.2044 1.050665,1.1839 1.045163,1.10197 0.990156,0.95854 0.577251,0.47952 0.765992,0.56238 0.925312,0.63048 1.055216,0.6838 1.1557,0.72237 1.226766,0.74617 1.268413,0.75521 1.280641,0.74949 1.263451,0.729 1.216842,0.69375 1.140815,0.64373 1.035368,0.57896 0.900502,0.49941 0.736221,0.40511 0.542517,0.29603 0.319401,0.1722 0.294777,0.23725 0.12005,0.27586 -0.013,0.29281 -0.1042,0.28812 -0.153707,0.26178 -0.16147,0.21377 -0.1275,0.14415 -0.0518,0.0529 -0.266527,0.26672 -0.732308,0.72354 -1.097156,1.06551 -1.361079,1.29258 -1.524075,1.40478 -1.586143,1.40208 -1.547284,1.2845 -1.407499,1.05206 -1.729118,1.14917 -1.764549,1.09225 -1.797193,1.03457 -1.827052,0.97607 -1.854125,0.91675 -1.878408,0.85665 -1.899909,0.79571 -1.918621,0.734 -2.012926,0.68994 -2.035699,0.61461 -2.054999,0.54528 -2.070827,0.48195 -2.083184,0.42462 -2.092066,0.37331 -2.097479,0.32799 -2.099417,0.28866 -1.737021,0.166 -1.716506,0.0678 -1.775686,0.0114 -1.914558,-0.003 -2.110828,0.0122 -2.251941,-0.005 -2.303907,-0.0772 -2.266729,-0.20232 -2.099716,-0.28603 -2.097619,-0.32675 -2.092086,-0.37314 -2.083116,-0.42522 -2.070711,-0.48297 -2.05487,-0.54641 -2.035595,-0.61552 -2.012884,-0.69033 -1.918621,-0.73399 -1.899909,-0.79572 -1.878409,-0.85665 -1.854124,-0.91675 -1.827052,-0.97607 -1.797192,-1.03456 -1.764548,-1.09226 -1.729116,-1.14917 -1.4074987,-1.05206 -1.5472837,-1.2845 -1.5861421,-1.40209 -1.5240734,-1.40477 -1.3610781,-1.29257 -1.0971557,-1.06551 -0.7323065,-0.72355 -0.1977951,-0.19765 -0.068735,-0.0691 -0.013814,-0.0136 -0.037961,-0.0393 -0.056891,-0.062 -0.070603,-0.0821 -0.079103,-0.0995 -0.082369,-0.11425 -0.08043,-0.12624 -0.073278,-0.13554 -0.060903,-0.14212 -0.043296,-0.14599 -0.020488,-0.14717 0.00754,-0.14565 0.040789,-0.1414 0.079255,-0.13445 0.12293907,-0.12481 0.171841,-0.11244 0.8619158,-0.46824 1.6367238,-0.90452 2.1761824,-1.22269 2.4802924,-1.42274 2.5490528,-1.50471 2.382466,-1.46854 1.980526,-1.31427 1.343242,-1.04191 0.990156,-0.95854 1.045164,-1.10196 1.050665,-1.18391 1.006659,-1.2044 0.913143,-1.16342 0.770121,-1.06099 0.577591,-0.89708 0.335552,-0.67171 0.04993,-0.2648 -0.04189,-0.25675 -0.124156,-0.25002 -0.196885,-0.24461 -0.260071,-0.24053 -0.313715,-0.23777 -0.357813,-0.23635 -0.392372,-0.23623 -0.417385,-0.23745 -0.432859,-0.23999 -0.438786,-0.24385 -0.435173,-0.24904 -0.422019,-0.25555 -0.399318,-0.2634 -0.367075,-0.27254 -0.325293,-0.28304 -0.560447,-0.54533 -0.462102,-0.48817 -0.34221,-0.44162 -0.200771,-0.40566 -0.03779,-0.3803 0.146746,-0.36556 0.352822,-0.36142 0.580447,-0.36787 0.202759,-0.10056 0.233199,-0.1144 0.262098,-0.12813 0.289464,-0.14176 0.315291,-0.15529 0.339583,-0.16873 0.362339,-0.18209 0.383559,-0.19535 0.40324,-0.20853 0.421388,-0.2216 0.437998,-0.23459 0.45307,-0.24748 0.466608,-0.26029 0.47861,-0.27301 0.489073,-0.28563 0.498002,-0.29816 0.505394,-0.31059 0.511249,-0.32294 0.515568,-0.3352 0.518351,-0.34737 0.519597,-0.35944 0.519306,-0.37142 0.517482,-0.38331 0.514117,-0.3951 0.509219,-0.40682 0.502782,-0.41844 0.494811,-0.42995 0.485303,-0.44139 0.474257,-0.45273 0.461677,-0.46398 0.44756,-0.47514 0.431905,-0.48621 0.404114,-0.46907 0.366413,-0.42519 0.330518,-0.38342 0.296428,-0.34376 0.264144,-0.30621 0.233666,-0.27074 0.204995,-0.23743 0.178127,-0.20618 0.153068,-0.17706 0.129812,-0.15004 0.108364,-0.12513 0.08872,-0.10236 0.07088,-0.0816 0.05485,-0.0631 0.04063,-0.0466 0.02821,-0.0322 0.01759,-0.0199 0.0088,-0.01 0.0018,-0.002 -0.0034,0.004 -0.0068,0.009 -0.0084,0.01 -0.0082,0.01 -0.0061,0.006 -0.0023,0.002 0.0033,-0.004 0.01077,-0.0133 0.02002,-0.0242 0.03108,-0.0372 0.04394,-0.0523 0.05861,-0.0696 0.07507,-0.0889 0.08244,-0.0965 0.07927,-0.0913 0.07571,-0.0865 0.07179,-0.0822 0.0675,-0.0783 0.06283,-0.0749 0.05779,-0.0719 0.05239,-0.0694 0.04661,-0.0674 0.04045,-0.0658 0.03392,-0.0646 0.02703,-0.0638 0.01976,-0.0635 0.01211,-0.0637 0.0041,-0.0644 -0.0043,-0.0654 -0.01304,-0.0669 -0.02217,-0.069 -0.03167,-0.0714 -0.04155,-0.0743 -0.05179,-0.0776 -0.0624,-0.0813 -0.07339,-0.0856 -0.08475,-0.0902 -0.09648,-0.0953 -0.108586,-0.10098 -0.12106,-0.10698 -0.133908,-0.11347 -0.147127,-0.12038 -0.160718,-0.12778 -0.17468,-0.13561 -0.189014,-0.14389 -0.216486,-0.1562 -0.217306,-0.16385 -0.217628,-0.17091 -0.217448,-0.17741 -0.21677,-0.18333 -0.21559,-0.18866 -0.213913,-0.19346 -0.211734,-0.19765 -0.209056,-0.20128 -0.205879,-0.20434 -0.2022,-0.20682 -0.198023,-0.20875 -0.193345,-0.21007 -0.188168,-0.21085 -0.18249,-0.21104 -0.176314,-0.21066 -0.169637,-0.20973 -0.16246,-0.20818 -0.154783,-0.20609 -0.146607,-0.20344 -0.137932,-0.20019 -0.128755,-0.19637 -0.119079,-0.19199 -0.108903,-0.18704 -0.09823,-0.18149 -0.08705,-0.1754 -0.07537,-0.16873 -0.0632,-0.16147 -0.05053,-0.15366 -0.03736,-0.14525 -0.02368,-0.13629 -0.0095,-0.12676 0.0044,-0.0703 0.0156,-0.0686 0.02666,-0.0673 0.03753,-0.0662 0.04822,-0.0654 0.0587,-0.065 0.06902,-0.065 0.07915,-0.0652 0.0891,-0.0659 0.09886,-0.0668 0.108432,-0.0681 0.117821,-0.0697 0.127025,-0.0716 0.136045,-0.0738 0.144879,-0.0765 0.153529,-0.0794 0.161992,-0.0827 0.170273,-0.0863 0.178365,-0.0901 0.186277,-0.0944 0.194,-0.099 0.20154,-0.10396 0.208894,-0.10917 0.216064,-0.11476 0.223048,-0.12067 0.229846,-0.12693 0.236462,-0.1335 0.242892,-0.14042 0.249136,-0.14766 0.255195,-0.15522 0.26107,-0.16315 0.266759,-0.17138 0.278758,-0.18853 0.29624,-0.21333 0.312291,-0.23661 0.326912,-0.25836 0.340106,-0.27857 0.351871,-0.29726 0.362206,-0.3144 0.371114,-0.33002 0.378591,-0.34411 0.384639,-0.35666 0.38926,-0.36768 0.392451,-0.37717 0.394212,-0.38513 0.394546,-0.39155 0.393449,-0.39645 0.390925,-0.39981 0.386971,-0.40164 0.381589,-0.40193 0.374776,-0.4007 0.366537,-0.39794 0.356866,-0.39363 0.345769,-0.38781 0.333241,-0.38044 0.319285,-0.37154 0.303899,-0.36112 0.287085,-0.34916 0.268843,-0.33567 0.249169,-0.32065 0.22807,-0.30409 0.20554,-0.28601 0.18158,-0.26638 0.156193,-0.24523 0.201698,-0.29659 0.201699,-0.29659 0.201698,-0.29658 0.201697,-0.29659 0.201699,-0.29659 0.201698,-0.29658 0.201699,-0.2966 0.201698,-0.29658 0.201698,-0.29658 0.201699,-0.2966 0.201697,-0.29658 0.201698,-0.29658 0.201699,-0.2966 0.201698,-0.29658 0.201699,-0.29659 0.201698,-0.29659 0.07466,-0.18544 -0.06438,-0.11251 -0.168382,-0.0614 -0.23732,-0.0322 -0.271201,-0.0248 -0.270028,-0.0394 -0.233798,-0.0758 -0.162514,-0.13392 -0.06936,-0.21449 0.0082,-0.2829 0.06477,-0.32142 0.100241,-0.33003 0.11464,-0.30874 0.10797,-0.25754 0.08023,-0.17647 0.03143,-0.0654 -2.86e-4,-7.7e-4 -8.53e-4,-0.002 -0.0014,-0.004 -0.002,-0.005 -0.0025,-0.006 -0.003,-0.009 -0.0036,-0.01 -0.0041,-0.0111 -0.05036,-0.13648 -0.0789,-0.21235 -0.103313,-0.27585 -0.123597,-0.32698 -0.139757,-0.36574 -0.151789,-0.39212 -0.159697,-0.40615 -0.163479,-0.40779 -0.163135,-0.39706 -0.158666,-0.37397 -0.15007,-0.33851 -0.137349,-0.29066 -0.06676,-0.14249 -0.0954,-0.14908 -0.228287,-0.23415 -0.02889,-0.0392 -0.01587,-0.0423 -0.0026,-0.0444 0.01082,-0.0452 0.02449,-0.0449 0.03837,-0.0435 0.05247,-0.041 0.06677,-0.0372 0.0813,-0.0325 0.09604,-0.0264 0.110999,-0.0193 0.126168,-0.0111 0.141554,-0.001 0.157155,0.009 0.171569,5.6e-4 0.183323,-0.0262 0.193078,-0.0506 0.200835,-0.073 0.206595,-0.0931 0.210354,-0.11103 0.212117,-0.12677 0.211879,-0.14031 0.209645,-0.15165 0.205412,-0.1608 0.199181,-0.16774 0.19095,-0.17251 0.180723,-0.17507 0.168497,-0.17543 0.154271,-0.1736 0.138047,-0.16957 0.126466,-0.1675 0.120644,-0.16778 0.114497,-0.16655 0.10803,-0.16379 0.101239,-0.15948 0.09413,-0.15366 0.08669,-0.14629 0.07893,-0.1374 0.07085,-0.12697 0.06245,-0.11501 0.05373,-0.10151 0.04469,-0.0865 0.03532,-0.0699 0.02563,-0.0518 0.01561,-0.0322 0.0053,-0.0111 0.05776,-0.002 0.05776,-0.002 0.05776,-0.002 0.05776,-0.002 0.05776,-0.002 0.05776,-0.002 0.05776,-0.002 0.05776,-0.002 0.05776,-0.002 0.05776,-0.002 0.05776,-0.002 0.05776,-0.002 0.05776,-0.002 0.05776,-0.002 0.05776,-0.002 0.05776,-0.002 0.0092,0.0301 0.02738,0.0858 0.04512,0.1346 0.06247,0.17653 0.07939,0.21155 0.09592,0.2397 0.112034,0.26096 0.127741,0.27536 0.14304,0.28284 0.157931,0.28346 0.172414,0.27721 0.186489,0.26405 0.200154,0.24402 0.213413,0.21711 0.226261,0.18331 0.238704,0.14263 0.246117,0.11354 0.247213,0.10108 0.245967,0.0893 0.242379,0.0783 0.236447,0.0679 0.228175,0.0583 0.21756,0.0494 0.204602,0.0412 0.189304,0.0337 0.171662,0.0269 0.151679,0.0209 0.129352,0.0154 0.104685,0.0108 0.07767,0.006 0.04833,0.003 0.01663,0.001 0.007,0.004 0.01967,0.013 0.03016,0.021 0.0385,0.0282 0.04468,0.0349 0.04872,0.041 0.05061,0.0464 0.05036,0.0512 0.04795,0.0554 0.04339,0.0591 0.03669,0.0619 0.02784,0.0644 0.01683,0.0661 0.0037,0.0673 -0.01162,0.0677 -0.02907,0.0676 -0.06316,0.0863 -0.107991,0.12071 -0.146065,0.14956 -0.177396,0.17291 -0.201978,0.19074 -0.219813,0.20308 -0.2309,0.20987 -0.23524,0.21119 -0.232834,0.20698 -0.22368,0.19727 -0.20778,0.18202 -0.185131,0.16129 -0.155736,0.13505 -0.119593,0.10332 -0.0767,0.066 -0.02707,0.0232 -9.18e-4,0.10438 -9.17e-4,0.10438 -9.18e-4,0.10439 -9.19e-4,0.10438 -9.18e-4,0.10438 -9.18e-4,0.10439 -9.18e-4,0.10438 -9.18e-4,0.10438 -9.18e-4,0.10439 -9.18e-4,0.10438 -9.18e-4,0.10438 -9.19e-4,0.10439 -9.18e-4,0.10438 -9.17e-4,0.10439 -9.18e-4,0.10438 -9.18e-4,0.10438 0.07334,0.13171 0.161359,0.31902 0.161359,0.3922 0.07334,0.35122 -9.84e-4,0.071 -0.003,0.0668 -0.005,0.063 -0.007,0.0594 -0.0091,0.0561 -0.01123,0.053 -0.01337,0.0501 -0.01554,0.0476 -0.01774,0.0453 -0.01998,0.0433 -0.02224,0.0416 -0.02453,0.0401 -0.02685,0.0388 -0.02921,0.038 -0.03159,0.0372 -0.03401,0.0368 -0.04962,0.0435 -0.05529,0.0349 -0.05983,0.0275 -0.0632,0.0215 -0.06542,0.0167 -0.06649,0.0134 -0.0664,0.0114 -0.06516,0.0106 -0.161134,0.0135 -0.186249,-0.001 -0.194521,-0.006 -0.185951,-0.001 -0.07907,0.007 -0.06193,0.0201 -0.04595,0.0332 -0.03111,0.0474 -0.02001,0.0561 -0.01058,0.0646 8.06e-4,0.0813 0.01414,0.10643 0.01607,0.0633 0.02631,0.0683 0.03593,0.0734 0.0449,0.0786 0.05324,0.084 0.06094,0.0894 0.068,0.0948 0.07443,0.10045 0.349265,0.45977 0.401186,0.55721 z"
       id="path468-3"
       inkscape:connector-curvature="0"
       sodipodi:nodetypes="cccccccccccccccccccccccccccccccccccccccccccccccccccccccccccccccccccccccccccccccccccccccccccccccccccccccccccccccccccccccccccccccccccccccccccccccccccccccccccccccccccccccccccccccccccccccccccccccccccccccccccccccccccccccccccccccccccccccccccccccccccccccccccccccccccccccccccccccccccccccccccccccccccccccccccccccccccccccccccccccccccccccccccccccccccccccccccccccccccccccccccccccccccccccccccccccccccccccccccccccccccccccccccccccccccccccccccccccccccccccccccccccccccccccccccccccccccccccccccccccccccccccccccccccccccccccccccccccccccccccccccccccccccccccccccccccccccccccccccccccccccccccccccccccccccccccccccccccccccccccccccccccccccccccccccccccccccccccccccccccccccccccccccccccccccccccccccccccccccccccccccccccccccccccccccccccccccccccccccccccccccccccccccccccccccccccccccccccccccccccccc" />
  </g>
  <g
     inkscape:groupmode="layer"
     id="layer3"
     inkscape:label="Estrella"
     style="display:inline">
    <path
       style="display:inline;fill:#000000;fill-opacity:1;stroke:#000000;stroke-width:0.24141122px;stroke-linecap:butt;stroke-linejoin:miter;stroke-opacity:1"
       d="m 47.602117,11.435907 -0.234415,-0.02247 -0.233404,-0.03549 -0.202085,-0.0684 -0.140472,-0.121224 -0.05996,-0.194165 0.0073,-0.256084 0.056,-0.290979 0.08662,-0.298743 0.09909,-0.2794939 0.09332,-0.2331465 0.06934,-0.159754 0.02716,-0.059036 -2.27e-4,-6.99e-4 -6.87e-4,-0.00215 -10e-4,-0.00322 -0.0017,-0.0043 -0.0019,-0.0043 -0.0023,-0.00645 -0.003,-0.00752 -0.0033,-0.00861 -0.04352,-0.1235585 -0.0682,-0.1922403 -0.0893,-0.2497285 L 46.848639,8.5181501 46.72784,8.1870608 46.59664,7.8320881 46.458604,7.4644263 46.317298,7.0952803 46.17629,6.735845 46.039146,6.3973139 45.909433,6.0908608 45.790713,5.827755 45.732986,5.6987668 45.650537,5.5637996 45.453215,5.3518482 l -0.02498,-0.035379 -0.01372,-0.03796 -0.0021,-0.040433 0.0094,-0.041078 0.02116,-0.040971 0.03316,-0.039251 0.04533,-0.036776 0.05775,-0.033658 0.07026,-0.029679 0.08303,-0.023766 0.09595,-0.017313 0.109058,-0.00861 0.122356,-9.57e-4 0.135837,0.00645 0.148297,4.838e-4 0.158456,-0.023657 0.166892,-0.04581 0.173591,-0.066134 0.178573,-0.084631 0.181823,-0.1004376 0.183343,-0.1145892 0.18314,-0.1269988 0.18121,-0.1373007 0.177549,-0.1455593 0.172165,-0.1518394 0.165048,-0.156173 0.156209,-0.1584851 0.145643,-0.1587968 0.133345,-0.1571733 0.119325,-0.1535061 0.10931,-0.1516458 0.104271,-0.1518502 0.09898,-0.150764 0.09337,-0.1482801 0.08751,-0.1443764 0.08136,-0.1391072 0.07494,-0.1324078 0.06823,-0.1244073 0.06124,-0.1146968 0.05398,-0.1038787 0.04641,-0.09162 0.03863,-0.078285 0.03053,-0.063553 0.02215,-0.046778 0.01346,-0.029464 0.0043,-0.00861 0.04994,-0.00215 0.04993,-0.00215 0.04993,-0.00215 0.04993,-0.00215 0.04994,-0.00215 0.04993,-0.00215 0.04993,-0.00215 0.04993,-0.00215 0.04993,-0.00215 0.04994,-0.00215 0.04993,-0.00215 0.04993,-0.00215 0.04992,-0.00215 0.04993,-0.00215 0.04993,-0.00215 0.04993,-0.00215 0.0081,0.026884 0.02369,0.077748 0.039,0.1218157 0.05399,0.1598076 0.06861,0.1914983 0.08293,0.2169841 0.09686,0.2362328 0.110417,0.2492876 0.123637,0.25603 0.136507,0.2566108 0.149026,0.2509329 0.161195,0.239018 0.173007,0.2209307 0.184465,0.1965416 0.195574,0.1659371 0.206323,0.1291281 0.212735,0.1025884 0.213679,0.091297 0.212604,0.080652 0.209505,0.070543 0.204374,0.061402 0.197226,0.053014 0.188048,0.044735 0.17685,0.036992 0.163628,0.030755 0.148375,0.024195 0.131109,0.019141 0.111805,0.013765 0.09047,0.00861 0.06714,0.0043 0.04178,0.00322 0.01435,9.57e-4 0.0064,0.00322 0.01698,0.012152 0.02607,0.019142 0.03326,0.025271 0.03862,0.031723 0.0421,0.036777 0.04377,0.042154 0.04351,0.04624 0.04143,0.050327 0.03748,0.053661 0.03173,0.056134 0.02406,0.058069 0.01456,0.059575 0.0031,0.060865 -0.01007,0.06108 -0.02512,0.060972 -0.05459,0.07807 -0.09333,0.1094169 -0.126254,0.1353757 -0.153332,0.1565602 -0.174581,0.1726689 -0.189998,0.1838095 -0.199581,0.1900036 -0.203332,0.1911972 -0.201253,0.1873363 -0.193338,0.1785834 -0.179596,0.1647974 -0.160022,0.1459998 -0.13461,0.1222566 -0.103369,0.093233 -0.06628,0.059467 -0.02337,0.021077 -6.85e-4,0.094953 -6.87e-4,0.094201 -6.88e-4,0.094739 -6.86e-4,0.094845 -6.84e-4,0.094307 -6.86e-4,0.094954 -6.85e-4,0.094632 -6.86e-4,0.094309 -6.87e-4,0.094845 -6.88e-4,0.094739 -6.83e-4,0.094201 -6.87e-4,0.094093 -6.86e-4,0.094739 -6.87e-4,0.094523 -6.85e-4,0.094739 -6.87e-4,0.094738 0.06338,0.1193423 0.139475,0.2887958 0.139469,0.3550493 0.06338,0.317927 -9.48e-4,0.06431 -0.0023,0.06043 -0.004,0.05689 -0.0064,0.05378 -0.008,0.05097 -0.0098,0.04774 -0.01155,0.04527 -0.0134,0.04312 -0.0153,0.04119 -0.01725,0.03946 -0.01923,0.03742 -0.02118,0.03613 -0.0232,0.03506 -0.02523,0.0343 -0.02729,0.03365 -0.02937,0.03344 -0.0429,0.03946 -0.04782,0.03172 -0.05173,0.02473 -0.05463,0.01968 -0.05655,0.01484 -0.05745,0.01215 -0.05738,0.0096 -0.05631,0.0086 -0.139277,0.01215 -0.160983,-9.14e-4 -0.168138,-0.0043 z"
       id="path468-3-3"
       inkscape:connector-curvature="0"
       sodipodi:nodetypes="cccccccccccccccccccccccccccccccccccccccccccccccccccccccccccccccccccccccccccccccccccccccccccccccccccccccccccccccccccccccccccccccccccccccccccccccccccccccccccccccccccccccccccccccccccccccccccccccccccccccccccccccccc"
       inkscape:export-xdpi="149.34941"
       inkscape:export-ydpi="149.34941" />
  </g>
  <g
     inkscape:groupmode="layer"
     id="layer2"
     inkscape:label="Sombra"
     style="display:inline">
    <path
       style="fill:#000000;fill-opacity:1;stroke:#000000;stroke-width:0.27298442px;stroke-linecap:butt;stroke-linejoin:miter;stroke-opacity:1"
       d="m 52.509294,13.57009 c -0.423763,0.305026 1.351913,7.534237 3.674317,12.914975 2.322404,5.380728 3.324228,7.513639 3.324228,7.513639 0,0 -3.125126,0.655857 -4.702066,0.886387 -1.960413,0.286588 -5.361688,0.567865 -5.908136,0.616332 -1.092896,0.09698 1.138434,1.599685 1.138434,1.599685 0,0 1.758827,1.180034 4.536606,1.422402 2.777778,0.242379 3.493298,0.09229 3.493298,0.09229 0,0 1.350789,5.271754 5.266998,12.058267 3.916212,6.786512 5.009108,7.852962 5.009108,7.852962 0,0 -4.518907,1.976544 -6.896878,2.503425 -2.514648,0.557155 -5.112824,0.576497 -7.679854,0.670228 -3.288026,0.120055 -6.579119,-0.117555 -9.869018,-0.138941 -1.31812,-0.0085 0,0 -3.954432,0.0043 -0.53456,0.511307 2.910482,1.70206 4.501827,2.13784 5.060488,1.385772 9.717856,1.959672 15.620513,1.399472 5.538362,-0.754101 6.627016,-0.914076 6.627016,-0.914076 0,0 2.963938,8.180811 5.153521,12.705383 2.189583,4.524562 6.093282,8.114396 6.151104,9.740567 0.02658,0.74749 -2.906099,2.390012 -4.543912,3.243964 -3.441409,1.794342 -7.128925,3.20117 -10.911975,3.851385 -9.345698,1.606286 -19.021522,1.371348 -28.400189,0 -2.760594,-0.403653 -10.625922,-4.456018 -8.04994,-2.399401 2.57598,2.056628 7.92114,4.661682 10.561521,5.347228 2.64038,0.685535 14.059678,3.182924 21.380642,2.467945 14.039095,-1.371082 22.951657,-6.80462 25.566611,-8.08938 4.604566,-2.262292 13.535873,-9.796997 14.95266,-11.990723 1.416791,-2.193737 -5.720083,-3.186576 -12.37668,-8.47269 -4.499211,-3.126633 -6.63876,-5.620562 -8.741645,-8.424393 -2.230379,-2.973833 -0.598257,-3.329838 0.441362,-3.947776 0.569747,-0.338654 4.160971,-1.465834 4.791238,-3.804664 0.220929,-0.819835 -0.777199,-1.634847 -1.525608,-1.977236 -8.939535,-4.08973 -12.691357,-8.484027 -14.220809,-10.124494 -1.530522,-1.641617 -2.919262,-3.547308 -3.063747,-4.201919 -0.200777,-0.909647 1.840156,-1.865111 1.936755,-1.899388 0.0966,-0.03428 5.195134,-4.255113 4.20524,-5.878856 -1.010143,-0.657624 -3.054395,-1.431493 -5.369871,-3.21717 -2.315475,-1.785688 -5.428717,-4.24187 -7.494,-7.145711 -4.321911,-6.076717 -4.624244,-6.402042 -4.624244,-6.402042 0.107533,0.305025 0,2.23e-4 0,2.23e-4 z"
       id="path969"
       inkscape:connector-curvature="0"
       sodipodi:nodetypes="cscaccccscaaacaccssaaaccssccssssssccssscc"
       inkscape:export-xdpi="96"
       inkscape:export-ydpi="96" />
    <path
       transform="translate(0,-197)"
       style="display:inline;opacity:0.43200001;fill:#000000;stroke-width:0.16758241"
       d="m 49.313154,295.35916 c -1.004843,-0.0355 -2.653444,-0.17691 -3.663565,-0.31422 -1.010118,-0.13728 -2.162534,-0.28471 -2.56092,-0.32755 -0.398385,-0.0428 -0.694282,-0.14596 -0.657544,-0.2292 0.03674,-0.0833 -0.05063,-0.1063 -0.194174,-0.0514 -0.274707,0.10533 -2.391236,-0.35595 -4.726676,-1.03 -1.450585,-0.4187 -3.2202,-1.09899 -4.806862,-1.84795 -0.514079,-0.24265 -1.157304,-0.54323 -1.429387,-0.66796 -0.272082,-0.12471 -0.459055,-0.30749 -0.415493,-0.40618 0.04356,-0.0985 0.01529,-0.1253 -0.0628,-0.0591 -0.151746,0.12854 -2.270576,-0.97793 -2.369028,-1.23713 -0.03227,-0.0851 -0.138344,-0.15243 -0.235731,-0.15 -0.237295,0.006 -0.96045,-0.66001 -0.862284,-0.79413 0.08801,-0.12027 0.892002,0.14191 2.587175,0.84361 1.929413,0.79868 5.442397,1.81903 7.483206,2.17346 0.506056,0.0878 1.335254,0.25301 1.842662,0.36699 0.507407,0.11395 1.678829,0.28472 2.60316,0.37951 0.924331,0.0948 2.436896,0.25032 3.361257,0.34569 2.695895,0.27811 8.375896,0.23218 11.544862,-0.0933 9.168443,-0.94188 15.564558,-2.97623 20.917319,-6.65291 2.801317,-1.92415 2.690512,-1.66279 1.349777,-3.18367 -0.619658,-0.7029 -1.489877,-1.79841 -1.933815,-2.43445 -0.443937,-0.63603 -0.862017,-1.18093 -0.929067,-1.21086 -0.06705,-0.03 -0.126665,-0.14617 -0.132472,-0.25818 -0.0059,-0.11203 -0.144312,-0.36786 -0.307785,-0.56853 -0.822401,-1.00948 -4.063472,-7.53409 -4.100872,-8.25551 -0.0068,-0.13222 -0.08163,-0.31586 -0.16616,-0.40806 -0.215314,-0.23485 -1.333352,-3.39891 -2.075887,-5.8748 -0.342973,-1.1436 -0.660063,-2.11907 -0.704637,-2.16768 -0.04457,-0.0486 -0.508611,0.0357 -1.031301,0.18547 -0.522639,0.15064 -2.19959,0.44492 -3.726555,0.65397 -5.059799,0.69272 -10.959694,0.35774 -16.064656,-0.91196 -3.362896,-0.83645 -7.328558,-2.54956 -6.023726,-2.60215 0.2418,-0.0104 1.428545,0.0346 7.879642,0.29336 2.352708,0.0945 11.284544,-0.39438 13.183973,-0.72147 2.232668,-0.38449 6.536665,-1.94036 7.636497,-2.76055 0.112716,-0.0841 -0.270911,-0.69275 -1.084927,-1.72144 -1.194999,-1.51008 -3.302965,-4.67413 -3.318905,-4.98163 -0.0041,-0.0787 -0.255637,-0.51498 -0.559,-0.96922 -0.543611,-0.81396 -3.874823,-7.80555 -4.124584,-8.65673 -0.07061,-0.24062 -0.426065,-1.116 -0.789907,-1.94531 l -0.661526,-1.5078 -0.849115,0.0512 c -0.467015,0.028 -0.819203,-0.0169 -0.782632,-0.0996 0.03657,-0.0829 -0.176914,-0.10087 -0.474403,-0.0403 -1.109305,0.22631 -4.073597,-0.45664 -5.481646,-1.26293 -1.03108,-0.59041 -1.968765,-1.52215 -1.78012,-1.76888 0.07851,-0.10275 2.10987,-0.33895 4.605357,-0.5357 3.690495,-0.29089 4.606481,-0.4165 5.281404,-0.72411 0.4491,-0.20467 0.829588,-0.38823 0.845533,-0.40793 0.01595,-0.0195 -0.18917,-0.52019 -0.455811,-1.11219 -0.266639,-0.59204 -0.697774,-1.56412 -0.958073,-2.16019 -0.742599,-1.70057 -1.533139,-3.4862 -2.238414,-5.05598 -0.356819,-0.79422 -0.843497,-1.97455 -1.081507,-2.62296 -1.76959,-4.82093 -2.437814,-6.82834 -2.662271,-7.99777 -0.135705,-0.70701 -0.124826,-0.75197 0.143655,-0.59419 0.27195,0.15984 0.856193,0.82315 0.864397,0.98139 0.0021,0.0395 0.180924,0.2986 0.397541,0.57649 0.923961,1.18511 1.683445,2.1715 2.294317,2.97976 1.599461,2.11631 2.521957,3.22505 4.390065,5.27623 1.710537,1.87818 3.38709,3.51835 4.203176,4.11192 0.317622,0.23102 0.614189,0.4683 0.659038,0.52729 0.206588,0.27168 1.759224,1.37647 2.639894,1.87836 l 0.975658,0.55607 -0.233688,0.56484 c -0.128527,0.31069 -0.373476,0.77344 -0.544332,1.02837 -0.170858,0.25496 -0.267638,0.46097 -0.215075,0.45779 0.09409,-0.006 -1.22848,1.75254 -1.755403,2.33358 -0.473996,0.52266 -1.75982,1.37911 -2.466514,1.64283 -0.376254,0.14042 -0.682439,0.2873 -0.680409,0.32642 0.0047,0.09 0.492609,1.02313 1.022242,1.95502 0.224127,0.39433 0.392443,0.78666 0.37403,0.87182 -0.01842,0.0851 0.01981,0.10969 0.08495,0.0544 0.06512,-0.0551 0.483028,0.38819 0.928665,0.98523 1.18396,1.58627 2.667516,3.1279 2.991304,3.10844 0.07968,-0.004 0.107044,0.0769 0.06082,0.18174 -0.04622,0.1047 -0.0018,0.18548 0.09866,0.17943 0.10049,-0.006 0.476846,0.25042 0.836348,0.56989 0.702673,0.62445 2.842216,2.14558 4.118668,2.9282 0.431634,0.26467 0.830478,0.55539 0.886314,0.64601 0.05581,0.0905 0.144934,0.15414 0.197999,0.14107 0.143246,-0.0353 1.236414,0.46157 1.338226,0.60822 0.04836,0.0695 1.002152,0.61383 2.119614,1.2094 1.325902,0.70665 2.055191,1.19706 2.099242,1.41159 0.07774,0.3786 -0.51838,1.55907 -1.63071,3.22919 -0.426508,0.64042 -0.794356,1.23989 -0.817428,1.33222 -0.02306,0.0923 -0.123386,0.17273 -0.222908,0.17872 -0.09952,0.006 -0.277513,0.16567 -0.395538,0.35487 -0.118012,0.1892 -0.521612,0.6097 -0.896875,0.93442 -0.388191,0.33592 -0.675193,0.72986 -0.665809,0.91385 0.009,0.17787 0.078,0.31972 0.153174,0.31521 0.07519,-0.004 0.220909,0.23697 0.323858,0.53664 0.102945,0.29971 0.258893,0.54059 0.34655,0.53531 0.08765,-0.005 0.16406,0.0806 0.16979,0.19122 0.01398,0.27032 0.898215,1.63784 1.864847,2.88422 0.434419,0.56016 0.761311,1.02015 0.726417,1.02227 -0.03487,0.002 0.307562,0.43243 0.760997,0.95634 0.453441,0.52385 0.939648,1.09942 1.080466,1.27902 0.317531,0.40496 1.887191,1.87443 2.080227,1.94745 0.078,0.0294 0.107237,0.13203 0.06495,0.22781 -0.04231,0.096 0.0129,0.16877 0.122514,0.16218 0.109669,-0.006 0.592779,0.33976 1.073588,0.76968 0.48081,0.42993 0.959902,0.7765 1.064647,0.7702 0.104747,-0.006 0.194651,0.0696 0.199783,0.16862 0.0051,0.099 0.203519,0.29819 0.440858,0.44258 0.237338,0.14438 0.619818,0.39467 0.84995,0.55615 0.96575,0.6777 1.915899,1.22322 2.11026,1.21153 0.114505,-0.006 0.211609,0.0538 0.215826,0.13527 0.0042,0.0815 0.586613,0.43252 1.294216,0.7805 0.707599,0.34798 1.392585,0.69945 1.522189,0.78101 0.129599,0.0815 0.340424,0.19076 0.468489,0.24263 0.128055,0.0518 0.373001,0.15963 0.544304,0.23942 0.171304,0.0797 0.699236,0.29083 1.173175,0.46896 1.586419,0.59619 1.589915,0.60804 0.628971,2.12531 -0.460216,0.72668 -0.963339,1.44889 -1.118043,1.60494 -0.154701,0.15607 -0.396919,0.44172 -0.538254,0.6348 -0.141339,0.19311 -0.287549,0.35296 -0.324916,0.3552 -0.0374,0.002 -0.24761,0.23404 -0.4672,0.51512 -0.399121,0.51088 -1.748674,1.95614 -2.177279,2.33172 -0.124917,0.10951 -0.648231,0.58329 -1.162911,1.05292 -0.514676,0.46967 -1.034323,0.81466 -1.15477,0.76668 -0.120451,-0.048 -0.175396,-0.0117 -0.122091,0.081 0.110862,0.19244 -1.328203,1.33603 -3.5725,2.83898 -2.76347,1.85061 -3.570649,2.30312 -3.753249,2.10394 -0.05181,-0.0564 -0.08972,-0.0161 -0.08421,0.0903 0.0055,0.10631 -0.20621,0.30949 -0.47049,0.45166 -0.264275,0.14215 -0.679385,0.37953 -0.922464,0.52751 -0.243076,0.14795 -0.775572,0.3933 -1.183316,0.54517 -0.407749,0.15192 -0.90798,0.39623 -1.111628,0.54297 -0.203649,0.14672 -0.472441,0.27464 -0.597322,0.28424 -0.124872,0.0104 -0.526974,0.16816 -0.893555,0.35236 -0.366574,0.18417 -0.868894,0.38825 -1.11626,0.4535 -0.24737,0.065 -0.548651,0.18974 -0.669526,0.27666 -0.120869,0.0869 -0.723811,0.32863 -1.339877,0.53725 -0.616059,0.20854 -1.814248,0.62819 -2.66264,0.93253 -0.848393,0.30434 -1.656943,0.53746 -1.796782,0.51804 -0.139844,-0.0194 -0.338263,0.037 -0.440941,0.12516 -0.102678,0.0882 -0.438364,0.20873 -0.745962,0.26787 -0.307599,0.0591 -0.93169,0.17902 -1.38687,0.26639 -0.455173,0.0877 -1.062341,0.24777 -1.349253,0.35641 -0.286915,0.10855 -1.030274,0.28005 -1.65192,0.38092 -0.621644,0.10086 -1.332873,0.23262 -1.580507,0.29274 -0.965213,0.23436 -10.995794,0.88006 -12.723002,0.81908 z"
       id="path161"
       inkscape:connector-curvature="0"
       sodipodi:nodetypes="cccccccscccccccccccccccccccccccccccccccccccccccccccccccccccccccccccccccccccccccccccccccccccccccccccccccccccccccccccccccccccccccccccccccccccccccc" />
  </g>
</svg>
