  0
SECTION
  2
HEADER
  9
$ACADVER
  1
AC1014
  9
$HANDSEED
  5
FFFF
  9
$MEASUREMENT
 70
     1
  0
ENDSEC
  0
SECTION
  2
TABLES
  0
TABLE
  2
VPORT
  5
8
330
0
100
AcDbSymbolTable
 70
     4
  0
VPORT
  5
2E
330
8
100
AcDbSymbolTableRecord
100
AcDbViewportTableRecord
  2
*ACTIVE
 70
     0
 10
0.0
 20
0.0
 11
1.0
 21
1.0
 12
210.0
 22
148.5
 13
0.0
 23
0.0
 14
10.0
 24
10.0
 15
10.0
 25
10.0
 16
0.0
 26
0.0
 36
1.0
 17
0.0
 27
0.0
 37
0.0
 40
341.0
 41
1.24
 42
50.0
 43
0.0
 44
0.0
 50
0.0
 51
0.0
 71
     0
 72
   100
 73
     1
 74
     3
 75
     0
 76
     0
 77
     0
 78
     0
  0
ENDTAB
  0
TABLE
  2
LTYPE
  5
5
330
0
100
AcDbSymbolTable
 70
     1
  0
LTYPE
  5
14
330
5
100
AcDbSymbolTableRecord
100
AcDbLinetypeTableRecord
  2
BYBLOCK
 70
     0
  3

 72
    65
 73
     0
 40
0.0
  0
LTYPE
  5
15
330
5
100
AcDbSymbolTableRecord
100
AcDbLinetypeTableRecord
  2
BYLAYER
 70
     0
  3

 72
    65
 73
     0
 40
0.0
  0
LTYPE
  5
16
330
5
100
AcDbSymbolTableRecord
100
AcDbLinetypeTableRecord
  2
CONTINUOUS
 70
     0
  3
Solid line
 72
    65
 73
     0
 40
0.0
  0
ENDTAB
  0
TABLE
  2
LAYER
  5
2
100
AcDbSymbolTable
 70
4
  0
LAYER
  5
50
100
AcDbSymbolTableRecord
100
AcDbLayerTableRecord
  2
0
 70
0
  6
CONTINUOUS
  0
LAYER
  5
51
100
AcDbSymbolTableRecord
100
AcDbLayerTableRecord
  2
Capa_1
 70
0
  6
CONTINUOUS
  0
LAYER
  5
52
100
AcDbSymbolTableRecord
100
AcDbLayerTableRecord
  2
Estrella
 70
0
  6
CONTINUOUS
  0
LAYER
  5
53
100
AcDbSymbolTableRecord
100
AcDbLayerTableRecord
  2
Sombra
 70
0
  6
CONTINUOUS
  0
ENDTAB
  0
TABLE
  2
STYLE
  5
3
330
0
100
AcDbSymbolTable
 70
     1
  0
STYLE
  5
11
330
3
100
AcDbSymbolTableRecord
100
AcDbTextStyleTableRecord
  2
STANDARD
 70
     0
 40
0.0
 41
1.0
 50
0.0
 71
     0
 42
2.5
  3
txt
  4

  0
ENDTAB
  0
TABLE
  2
VIEW
  5
6
330
0
100
AcDbSymbolTable
 70
     0
  0
ENDTAB
  0
TABLE
  2
UCS
  5
7
330
0
100
AcDbSymbolTable
 70
     0
  0
ENDTAB
  0
TABLE
  2
APPID
  5
9
330
0
100
AcDbSymbolTable
 70
     2
  0
APPID
  5
12
330
9
100
AcDbSymbolTableRecord
100
AcDbRegAppTableRecord
  2
ACAD
 70
     0
  0
ENDTAB
  0
TABLE
  2
DIMSTYLE
  5
A
330
0
100
AcDbSymbolTable
 70
     1
  0
DIMSTYLE
105
27
330
A
100
AcDbSymbolTableRecord
100
AcDbDimStyleTableRecord
  2
ISO-25
 70
     0
  3

  4

  5

  6

  7

 40
1.0
 41
2.5
 42
0.625
 43
3.75
 44
1.25
 45
0.0
 46
0.0
 47
0.0
 48
0.0
140
2.5
141
2.5
142
0.0
143
0.03937007874016
144
1.0
145
0.0
146
1.0
147
0.625
 71
     0
 72
     0
 73
     0
 74
     0
 75
     0
 76
     0
 77
     1
 78
     8
170
     0
171
     3
172
     1
173
     0
174
     0
175
     0
176
     0
177
     0
178
     0
270
     2
271
     2
272
     2
273
     2
274
     3
340
11
275
     0
280
     0
281
     0
282
     0
283
     0
284
     8
285
     0
286
     0
287
     3
288
     0
  0
ENDTAB
  0
TABLE
  2
BLOCK_RECORD
  5
1
330
0
100
AcDbSymbolTable
 70
     1
  0
BLOCK_RECORD
  5
1F
330
1
100
AcDbSymbolTableRecord
100
AcDbBlockTableRecord
  2
*MODEL_SPACE
  0
BLOCK_RECORD
  5
1B
330
1
100
AcDbSymbolTableRecord
100
AcDbBlockTableRecord
  2
*PAPER_SPACE
  0
ENDTAB
  0
ENDSEC
  0
SECTION
  2
BLOCKS
  0
BLOCK
  5
20
330
1F
100
AcDbEntity
  8
0
100
AcDbBlockBegin
  2
*MODEL_SPACE
 70
     0
 10
0.0
 20
0.0
 30
0.0
  3
*MODEL_SPACE
  1

  0
ENDBLK
  5
21
330
1F
100
AcDbEntity
  8
0
100
AcDbBlockEnd
  0
BLOCK
  5
1C
330
1B
100
AcDbEntity
 67
     1
  8
0
100
AcDbBlockBegin
  2
*PAPER_SPACE
  1

  0
ENDBLK
  5
1D
330
1B
100
AcDbEntity
 67
     1
  8
0
100
AcDbBlockEnd
  0
ENDSEC
  0
SECTION
  2
ENTITIES
  0
LWPOLYLINE
  5
100
100
AcDbEntity
  8
Capa_1
 62
7
100
AcDbPolyline
 90
761
 70
1
 10
53.213626
 20
86.087370
 30
0.0
 10
53.732541
 20
85.324430
 30
0.0
 10
54.251455
 20
84.561510
 30
0.0
 10
54.770369
 20
83.798570
 30
0.0
 10
55.289284
 20
83.035650
 30
0.0
 10
55.627057
 20
82.524030
 30
0.0
 10
56.060666
 20
81.933930
 30
0.0
 10
56.578678
 20
81.277610
 30
0.0
 10
57.169663
 20
80.567340
 30
0.0
 10
57.822190
 20
79.815350
 30
0.0
 10
58.524825
 20
79.033910
 30
0.0
 10
59.266138
 20
78.235280
 30
0.0
 10
60.034698
 20
77.431710
 30
0.0
 10
60.819072
 20
76.635440
 30
0.0
 10
61.607830
 20
75.858760
 30
0.0
 10
62.389541
 20
75.113920
 30
0.0
 10
63.152771
 20
74.413140
 30
0.0
 10
63.886091
 20
73.768720
 30
0.0
 10
64.578068
 20
73.192900
 30
0.0
 10
65.217271
 20
72.697920
 30
0.0
 10
65.792269
 20
72.296060
 30
0.0
 10
66.824429
 20
71.658650
 30
0.0
 10
67.756678
 20
71.137130
 30
0.0
 10
68.577176
 20
70.710270
 30
0.0
 10
69.274084
 20
70.356810
 30
0.0
 10
69.835561
 20
70.055520
 30
0.0
 10
70.061815
 20
69.917790
 30
0.0
 10
70.249770
 20
69.785140
 30
0.0
 10
70.397949
 20
69.654900
 30
0.0
 10
70.504871
 20
69.524420
 30
0.0
 10
70.569051
 20
69.391070
 30
0.0
 10
70.589021
 20
69.252140
 30
0.0
 10
70.579521
 20
69.125380
 30
0.0
 10
70.555841
 20
68.989090
 30
0.0
 10
70.518481
 20
68.843830
 30
0.0
 10
70.467951
 20
68.690170
 30
0.0
 10
70.404751
 20
68.528710
 30
0.0
 10
70.329381
 20
68.359980
 30
0.0
 10
70.242331
 20
68.184580
 30
0.0
 10
70.144101
 20
68.003090
 30
0.0
 10
69.916119
 20
67.624060
 30
0.0
 10
69.649432
 20
67.227500
 30
0.0
 10
69.348042
 20
66.817970
 30
0.0
 10
69.015945
 20
66.400060
 30
0.0
 10
68.657141
 20
65.978360
 30
0.0
 10
68.275629
 20
65.557440
 30
0.0
 10
67.875407
 20
65.141870
 30
0.0
 10
67.460473
 20
64.736250
 30
0.0
 10
67.034826
 20
64.345140
 30
0.0
 10
66.602466
 20
63.973150
 30
0.0
 10
66.167390
 20
63.624830
 30
0.0
 10
65.733598
 20
63.304780
 30
0.0
 10
65.062059
 20
62.777120
 30
0.0
 10
64.807091
 20
62.556660
 30
0.0
 10
64.602022
 20
62.360330
 30
0.0
 10
64.443879
 20
62.184510
 30
0.0
 10
64.329689
 20
62.025620
 30
0.0
 10
64.256479
 20
61.880020
 30
0.0
 10
64.221269
 20
61.744160
 30
0.0
 10
64.221084
 20
61.614380
 30
0.0
 10
64.252954
 20
61.487120
 30
0.0
 10
64.313894
 20
61.358760
 30
0.0
 10
64.400944
 20
61.225700
 30
0.0
 10
64.511122
 20
61.084340
 30
0.0
 10
64.641454
 20
60.931080
 30
0.0
 10
64.950680
 20
60.574430
 30
0.0
 10
65.084356
 20
60.415910
 30
0.0
 10
65.159356
 20
60.326410
 30
0.0
 10
65.190146
 20
60.289010
 30
0.0
 10
65.191146
 20
60.287010
 30
0.0
 10
65.176826
 20
60.303310
 30
0.0
 10
65.161626
 20
60.321110
 30
0.0
 10
65.160026
 20
60.323110
 30
0.0
 10
65.186406
 20
60.293310
 30
0.0
 10
65.255236
 20
60.214610
 30
0.0
 10
65.380971
 20
60.069920
 30
0.0
 10
65.578054
 20
59.842440
 30
0.0
 10
65.860933
 20
59.515340
 30
0.0
 10
66.244054
 20
59.071740
 30
0.0
 10
66.741865
 20
58.494790
 30
0.0
 10
67.368811
 20
57.767610
 30
0.0
 10
68.139337
 20
56.873350
 30
0.0
 10
68.571243
 20
56.387140
 30
0.0
 10
69.018803
 20
55.912000
 30
0.0
 10
69.480480
 20
55.448020
 30
0.0
 10
69.954737
 20
54.995290
 30
0.0
 10
70.440040
 20
54.553900
 30
0.0
 10
70.934851
 20
54.123950
 30
0.0
 10
71.437633
 20
53.705510
 30
0.0
 10
71.946852
 20
53.298690
 30
0.0
 10
72.460969
 20
52.903590
 30
0.0
 10
72.978450
 20
52.520270
 30
0.0
 10
73.497757
 20
52.148850
 30
0.0
 10
74.017354
 20
51.789420
 30
0.0
 10
74.535705
 20
51.442050
 30
0.0
 10
75.051273
 20
51.106850
 30
0.0
 10
75.562522
 20
50.783910
 30
0.0
 10
76.067916
 20
50.473310
 30
0.0
 10
76.565918
 20
50.175160
 30
0.0
 10
77.054991
 20
49.889520
 30
0.0
 10
77.533600
 20
49.616520
 30
0.0
 10
78.000208
 20
49.356230
 30
0.0
 10
78.453279
 20
49.108740
 30
0.0
 10
78.891276
 20
48.874150
 30
0.0
 10
79.312663
 20
48.652550
 30
0.0
 10
79.715904
 20
48.444030
 30
0.0
 10
80.099462
 20
48.248680
 30
0.0
 10
80.461801
 20
48.066590
 30
0.0
 10
80.801384
 20
47.897850
 30
0.0
 10
81.116675
 20
47.742570
 30
0.0
 10
81.406139
 20
47.600800
 30
0.0
 10
81.668237
 20
47.472680
 30
0.0
 10
81.901435
 20
47.358270
 30
0.0
 10
82.104194
 20
47.257720
 30
0.0
 10
82.424218
 20
47.072310
 30
0.0
 10
82.684642
 20
46.889850
 30
0.0
 10
82.888160
 20
46.709000
 30
0.0
 10
83.037465
 20
46.528430
 30
0.0
 10
83.135245
 20
46.346830
 30
0.0
 10
83.184205
 20
46.162860
 30
0.0
 10
83.187005
 20
45.975220
 30
0.0
 10
83.146385
 20
45.782560
 30
0.0
 10
83.065035
 20
45.583560
 30
0.0
 10
82.945623
 20
45.376890
 30
0.0
 10
82.790851
 20
45.161240
 30
0.0
 10
82.603414
 20
44.935280
 30
0.0
 10
82.386003
 20
44.697680
 30
0.0
 10
82.141313
 20
44.447110
 30
0.0
 10
81.872036
 20
44.182260
 30
0.0
 10
81.580867
 20
43.901790
 30
0.0
 10
81.424040
 20
43.758870
 30
0.0
 10
81.255574
 20
43.618750
 30
0.0
 10
81.076663
 20
43.481240
 30
0.0
 10
80.888497
 20
43.346200
 30
0.0
 10
80.692271
 20
43.213440
 30
0.0
 10
80.489178
 20
43.082810
 30
0.0
 10
80.280410
 20
42.954130
 30
0.0
 10
80.067160
 20
42.827260
 30
0.0
 10
79.850622
 20
42.702010
 30
0.0
 10
79.631986
 20
42.578210
 30
0.0
 10
79.412448
 20
42.455720
 30
0.0
 10
79.193200
 20
42.334370
 30
0.0
 10
78.975433
 20
42.213970
 30
0.0
 10
78.760341
 20
42.094380
 30
0.0
 10
78.549117
 20
41.975420
 30
0.0
 10
78.342955
 20
41.856930
 30
0.0
 10
78.292345
 20
41.827330
 30
0.0
 10
78.242135
 20
41.797730
 30
0.0
 10
78.192365
 20
41.768130
 30
0.0
 10
78.143035
 20
41.738630
 30
0.0
 10
78.094175
 20
41.709130
 30
0.0
 10
78.045795
 20
41.679630
 30
0.0
 10
77.997915
 20
41.650130
 30
0.0
 10
77.950555
 20
41.620630
 30
0.0
 10
77.903735
 20
41.591130
 30
0.0
 10
77.857475
 20
41.561630
 30
0.0
 10
77.811795
 20
41.532130
 30
0.0
 10
77.766715
 20
41.502630
 30
0.0
 10
77.592723
 20
41.384360
 30
0.0
 10
77.429757
 20
41.265740
 30
0.0
 10
77.279009
 20
41.146580
 30
0.0
 10
77.141672
 20
41.026750
 30
0.0
 10
77.018938
 20
40.906060
 30
0.0
 10
76.912001
 20
40.784340
 30
0.0
 10
76.822051
 20
40.661440
 30
0.0
 10
76.750291
 20
40.537190
 30
0.0
 10
76.697901
 20
40.411420
 30
0.0
 10
76.666071
 20
40.283980
 30
0.0
 10
76.656011
 20
40.154680
 30
0.0
 10
76.668901
 20
40.023360
 30
0.0
 10
76.705941
 20
39.889880
 30
0.0
 10
76.764431
 20
39.746440
 30
0.0
 10
76.840361
 20
39.586040
 30
0.0
 10
76.932971
 20
39.409620
 30
0.0
 10
77.041483
 20
39.218160
 30
0.0
 10
77.165124
 20
39.012620
 30
0.0
 10
77.303118
 20
38.793960
 30
0.0
 10
77.454693
 20
38.563120
 30
0.0
 10
77.619074
 20
38.321080
 30
0.0
 10
78.389195
 20
37.260090
 30
0.0
 10
79.302337
 20
36.096670
 30
0.0
 10
80.308996
 20
34.892270
 30
0.0
 10
81.359661
 20
33.708370
 30
0.0
 10
82.404824
 20
32.606400
 30
0.0
 10
83.394980
 20
31.647860
 30
0.0
 10
83.972231
 20
31.168340
 30
0.0
 10
84.738223
 20
30.605960
 30
0.0
 10
85.663535
 20
29.975480
 30
0.0
 10
86.718751
 20
29.291680
 30
0.0
 10
87.874451
 20
28.569310
 30
0.0
 10
89.101217
 20
27.823140
 30
0.0
 10
90.369630
 20
27.067930
 30
0.0
 10
91.650271
 20
26.318440
 30
0.0
 10
92.913722
 20
25.589440
 30
0.0
 10
94.130564
 20
24.895690
 30
0.0
 10
95.271379
 20
24.251960
 30
0.0
 10
96.306747
 20
23.673000
 30
0.0
 10
97.207249
 20
23.173590
 30
0.0
 10
97.943470
 20
22.768480
 30
0.0
 10
98.485987
 20
22.472450
 30
0.0
 10
98.805388
 20
22.300250
 30
0.0
 10
99.100165
 20
22.063000
 30
0.0
 10
99.220215
 20
21.787140
 30
0.0
 10
99.207215
 20
21.494330
 30
0.0
 10
99.103015
 20
21.206210
 30
0.0
 10
98.949308
 20
20.944430
 30
0.0
 10
98.787838
 20
20.730660
 30
0.0
 10
98.660338
 20
20.586510
 30
0.0
 10
98.608538
 20
20.533610
 30
0.0
 10
98.342011
 20
20.266890
 30
0.0
 10
97.609703
 20
19.543350
 30
0.0
 10
96.512547
 20
18.477840
 30
0.0
 10
95.151468
 20
17.185260
 30
0.0
 10
93.627393
 20
15.780480
 30
0.0
 10
92.041250
 20
14.378400
 30
0.0
 10
90.493966
 20
13.093900
 30
0.0
 10
89.086467
 20
12.041840
 30
0.0
 10
87.357349
 20
10.892670
 30
0.0
 10
85.592800
 20
9.800420
 30
0.0
 10
83.795607
 20
8.765850
 30
0.0
 10
81.968555
 20
7.789780
 30
0.0
 10
80.114430
 20
6.873030
 30
0.0
 10
78.236022
 20
6.016380
 30
0.0
 10
76.336113
 20
5.220670
 30
0.0
 10
74.417492
 20
4.486670
 30
0.0
 10
72.404566
 20
3.796730
 30
0.0
 10
70.368867
 20
3.182120
 30
0.0
 10
68.313868
 20
2.636840
 30
0.0
 10
66.243041
 20
2.154890
 30
0.0
 10
64.159857
 20
1.730270
 30
0.0
 10
62.067791
 20
1.356960
 30
0.0
 10
59.970312
 20
1.028970
 30
0.0
 10
57.870895
 20
0.740310
 30
0.0
 10
56.133874
 20
0.574310
 30
0.0
 10
54.417368
 20
0.506510
 30
0.0
 10
52.641682
 20
0.495110
 30
0.0
 10
50.727124
 20
0.498110
 30
0.0
 10
48.616296
 20
0.485910
 30
0.0
 10
46.364355
 20
0.490910
 30
0.0
 10
44.060448
 20
0.568110
 30
0.0
 10
41.793719
 20
0.770430
 30
0.0
 10
39.694003
 20
1.056460
 30
0.0
 10
37.596384
 20
1.383210
 30
0.0
 10
35.504298
 20
1.756350
 30
0.0
 10
33.421182
 20
2.181570
 30
0.0
 10
31.350471
 20
2.664540
 30
0.0
 10
29.295601
 20
3.210950
 30
0.0
 10
27.260006
 20
3.826470
 30
0.0
 10
25.247122
 20
4.516800
 30
0.0
 10
23.328501
 20
5.250790
 30
0.0
 10
21.428592
 20
6.046510
 30
0.0
 10
19.550183
 20
6.903160
 30
0.0
 10
17.696059
 20
7.819910
 30
0.0
 10
15.869007
 20
8.795980
 30
0.0
 10
14.071815
 20
9.830540
 30
0.0
 10
12.307267
 20
10.922800
 30
0.0
 10
10.578151
 20
12.071970
 30
0.0
 10
9.170652
 20
13.124030
 30
0.0
 10
7.623369
 20
14.408530
 30
0.0
 10
6.037227
 20
15.810620
 30
0.0
 10
4.513153
 20
17.215390
 30
0.0
 10
3.152075
 20
18.507960
 30
0.0
 10
2.054919
 20
19.573470
 30
0.0
 10
1.322613
 20
20.297020
 30
0.0
 10
1.124818
 20
20.494670
 30
0.0
 10
1.056083
 20
20.563770
 30
0.0
 10
1.042269
 20
20.577370
 30
0.0
 10
1.004308
 20
20.616670
 30
0.0
 10
0.947417
 20
20.678670
 30
0.0
 10
0.876814
 20
20.760770
 30
0.0
 10
0.797711
 20
20.860270
 30
0.0
 10
0.715342
 20
20.974520
 30
0.0
 10
0.634912
 20
21.100760
 30
0.0
 10
0.561634
 20
21.236300
 30
0.0
 10
0.500731
 20
21.378420
 30
0.0
 10
0.457435
 20
21.524410
 30
0.0
 10
0.436947
 20
21.671580
 30
0.0
 10
0.444487
 20
21.817230
 30
0.0
 10
0.485276
 20
21.958630
 30
0.0
 10
0.564531
 20
22.093080
 30
0.0
 10
0.687470
 20
22.217890
 30
0.0
 10
0.859311
 20
22.330330
 30
0.0
 10
1.721227
 20
22.798570
 30
0.0
 10
3.357950
 20
23.703090
 30
0.0
 10
5.534133
 20
24.925780
 30
0.0
 10
8.014425
 20
26.348520
 30
0.0
 10
10.563478
 20
27.853230
 30
0.0
 10
12.945944
 20
29.321770
 30
0.0
 10
14.926470
 20
30.636040
 30
0.0
 10
16.269712
 20
31.677950
 30
0.0
 10
17.259868
 20
32.636490
 30
0.0
 10
18.305032
 20
33.738450
 30
0.0
 10
19.355697
 20
34.922360
 30
0.0
 10
20.362356
 20
36.126760
 30
0.0
 10
21.275499
 20
37.290180
 30
0.0
 10
22.045620
 20
38.351170
 30
0.0
 10
22.623211
 20
39.248250
 30
0.0
 10
22.958763
 20
39.919960
 30
0.0
 10
23.008693
 20
40.184760
 30
0.0
 10
22.966803
 20
40.441510
 30
0.0
 10
22.842647
 20
40.691530
 30
0.0
 10
22.645762
 20
40.936140
 30
0.0
 10
22.385691
 20
41.176670
 30
0.0
 10
22.071976
 20
41.414440
 30
0.0
 10
21.714163
 20
41.650790
 30
0.0
 10
21.321791
 20
41.887020
 30
0.0
 10
20.904406
 20
42.124470
 30
0.0
 10
20.471547
 20
42.364460
 30
0.0
 10
20.032761
 20
42.608310
 30
0.0
 10
19.597588
 20
42.857350
 30
0.0
 10
19.175569
 20
43.112900
 30
0.0
 10
18.776251
 20
43.376300
 30
0.0
 10
18.409176
 20
43.648840
 30
0.0
 10
18.083883
 20
43.931880
 30
0.0
 10
17.523436
 20
44.477210
 30
0.0
 10
17.061334
 20
44.965380
 30
0.0
 10
16.719124
 20
45.407000
 30
0.0
 10
16.518353
 20
45.812660
 30
0.0
 10
16.480563
 20
46.192960
 30
0.0
 10
16.627309
 20
46.558520
 30
0.0
 10
16.980131
 20
46.919940
 30
0.0
 10
17.560578
 20
47.287810
 30
0.0
 10
17.763337
 20
47.388370
 30
0.0
 10
17.996536
 20
47.502770
 30
0.0
 10
18.258634
 20
47.630900
 30
0.0
 10
18.548098
 20
47.772660
 30
0.0
 10
18.863389
 20
47.927950
 30
0.0
 10
19.202972
 20
48.096680
 30
0.0
 10
19.565311
 20
48.278770
 30
0.0
 10
19.948870
 20
48.474120
 30
0.0
 10
20.352110
 20
48.682650
 30
0.0
 10
20.773498
 20
48.904250
 30
0.0
 10
21.211496
 20
49.138840
 30
0.0
 10
21.664566
 20
49.386320
 30
0.0
 10
22.131174
 20
49.646610
 30
0.0
 10
22.609784
 20
49.919620
 30
0.0
 10
23.098857
 20
50.205250
 30
0.0
 10
23.596859
 20
50.503410
 30
0.0
 10
24.102253
 20
50.814000
 30
0.0
 10
24.613502
 20
51.136940
 30
0.0
 10
25.129070
 20
51.472140
 30
0.0
 10
25.647421
 20
51.819510
 30
0.0
 10
26.167018
 20
52.178950
 30
0.0
 10
26.686324
 20
52.550370
 30
0.0
 10
27.203806
 20
52.933680
 30
0.0
 10
27.717923
 20
53.328780
 30
0.0
 10
28.227142
 20
53.735600
 30
0.0
 10
28.729924
 20
54.154040
 30
0.0
 10
29.224735
 20
54.583990
 30
0.0
 10
29.710038
 20
55.025380
 30
0.0
 10
30.184295
 20
55.478110
 30
0.0
 10
30.645972
 20
55.942090
 30
0.0
 10
31.093532
 20
56.417230
 30
0.0
 10
31.525437
 20
56.903440
 30
0.0
 10
31.929551
 20
57.372510
 30
0.0
 10
32.295964
 20
57.797700
 30
0.0
 10
32.626482
 20
58.181120
 30
0.0
 10
32.922910
 20
58.524880
 30
0.0
 10
33.187054
 20
58.831090
 30
0.0
 10
33.420720
 20
59.101830
 30
0.0
 10
33.625715
 20
59.339260
 30
0.0
 10
33.803842
 20
59.545440
 30
0.0
 10
33.956910
 20
59.722500
 30
0.0
 10
34.086722
 20
59.872540
 30
0.0
 10
34.195086
 20
59.997670
 30
0.0
 10
34.283806
 20
60.100030
 30
0.0
 10
34.354686
 20
60.181630
 30
0.0
 10
34.409536
 20
60.244730
 30
0.0
 10
34.450166
 20
60.291330
 30
0.0
 10
34.478376
 20
60.323530
 30
0.0
 10
34.495966
 20
60.343430
 30
0.0
 10
34.504766
 20
60.353430
 30
0.0
 10
34.506566
 20
60.355430
 30
0.0
 10
34.503166
 20
60.351430
 30
0.0
 10
34.496366
 20
60.342430
 30
0.0
 10
34.487966
 20
60.332430
 30
0.0
 10
34.479766
 20
60.322430
 30
0.0
 10
34.473666
 20
60.316430
 30
0.0
 10
34.471366
 20
60.314430
 30
0.0
 10
34.474666
 20
60.318430
 30
0.0
 10
34.485436
 20
60.331730
 30
0.0
 10
34.505456
 20
60.355930
 30
0.0
 10
34.536536
 20
60.393130
 30
0.0
 10
34.580476
 20
60.445430
 30
0.0
 10
34.639086
 20
60.515030
 30
0.0
 10
34.714156
 20
60.603930
 30
0.0
 10
34.796596
 20
60.700430
 30
0.0
 10
34.875866
 20
60.791730
 30
0.0
 10
34.951576
 20
60.878230
 30
0.0
 10
35.023366
 20
60.960430
 30
0.0
 10
35.090866
 20
61.038730
 30
0.0
 10
35.153696
 20
61.113630
 30
0.0
 10
35.211486
 20
61.185530
 30
0.0
 10
35.263876
 20
61.254930
 30
0.0
 10
35.310486
 20
61.322330
 30
0.0
 10
35.350936
 20
61.388130
 30
0.0
 10
35.384856
 20
61.452730
 30
0.0
 10
35.411886
 20
61.516530
 30
0.0
 10
35.431646
 20
61.580030
 30
0.0
 10
35.443756
 20
61.643730
 30
0.0
 10
35.447856
 20
61.708130
 30
0.0
 10
35.443556
 20
61.773530
 30
0.0
 10
35.430516
 20
61.840430
 30
0.0
 10
35.408346
 20
61.909430
 30
0.0
 10
35.376676
 20
61.980830
 30
0.0
 10
35.335126
 20
62.055130
 30
0.0
 10
35.283336
 20
62.132730
 30
0.0
 10
35.220936
 20
62.214030
 30
0.0
 10
35.147546
 20
62.299630
 30
0.0
 10
35.062796
 20
62.389830
 30
0.0
 10
34.966316
 20
62.485130
 30
0.0
 10
34.857730
 20
62.586110
 30
0.0
 10
34.736670
 20
62.693090
 30
0.0
 10
34.602762
 20
62.806560
 30
0.0
 10
34.455635
 20
62.926940
 30
0.0
 10
34.294917
 20
63.054720
 30
0.0
 10
34.120237
 20
63.190330
 30
0.0
 10
33.931223
 20
63.334220
 30
0.0
 10
33.714737
 20
63.490420
 30
0.0
 10
33.497431
 20
63.654270
 30
0.0
 10
33.279803
 20
63.825180
 30
0.0
 10
33.062355
 20
64.002590
 30
0.0
 10
32.845585
 20
64.185920
 30
0.0
 10
32.629995
 20
64.374580
 30
0.0
 10
32.416082
 20
64.568040
 30
0.0
 10
32.204348
 20
64.765690
 30
0.0
 10
31.995292
 20
64.966970
 30
0.0
 10
31.789413
 20
65.171310
 30
0.0
 10
31.587213
 20
65.378130
 30
0.0
 10
31.389190
 20
65.586880
 30
0.0
 10
31.195845
 20
65.796950
 30
0.0
 10
31.007677
 20
66.007800
 30
0.0
 10
30.825187
 20
66.218840
 30
0.0
 10
30.648873
 20
66.429500
 30
0.0
 10
30.479236
 20
66.639230
 30
0.0
 10
30.316776
 20
66.847410
 30
0.0
 10
30.161993
 20
67.053500
 30
0.0
 10
30.015386
 20
67.256940
 30
0.0
 10
29.877454
 20
67.457130
 30
0.0
 10
29.748699
 20
67.653500
 30
0.0
 10
29.629620
 20
67.845490
 30
0.0
 10
29.520717
 20
68.032530
 30
0.0
 10
29.422487
 20
68.214020
 30
0.0
 10
29.335437
 20
68.389420
 30
0.0
 10
29.260067
 20
68.558150
 30
0.0
 10
29.196867
 20
68.719620
 30
0.0
 10
29.146337
 20
68.873280
 30
0.0
 10
29.108977
 20
69.018530
 30
0.0
 10
29.085297
 20
69.154820
 30
0.0
 10
29.075797
 20
69.281580
 30
0.0
 10
29.080197
 20
69.351880
 30
0.0
 10
29.095797
 20
69.420480
 30
0.0
 10
29.122457
 20
69.487780
 30
0.0
 10
29.159987
 20
69.553980
 30
0.0
 10
29.208207
 20
69.619380
 30
0.0
 10
29.266907
 20
69.684380
 30
0.0
 10
29.335927
 20
69.749380
 30
0.0
 10
29.415077
 20
69.814580
 30
0.0
 10
29.504177
 20
69.880480
 30
0.0
 10
29.603037
 20
69.947280
 30
0.0
 10
29.711469
 20
70.015380
 30
0.0
 10
29.829290
 20
70.085080
 30
0.0
 10
29.956315
 20
70.156680
 30
0.0
 10
30.092360
 20
70.230480
 30
0.0
 10
30.237239
 20
70.306980
 30
0.0
 10
30.390768
 20
70.386380
 30
0.0
 10
30.552760
 20
70.469080
 30
0.0
 10
30.723033
 20
70.555380
 30
0.0
 10
30.901398
 20
70.645480
 30
0.0
 10
31.087675
 20
70.739880
 30
0.0
 10
31.281675
 20
70.838880
 30
0.0
 10
31.483215
 20
70.942840
 30
0.0
 10
31.692109
 20
71.052010
 30
0.0
 10
31.908173
 20
71.166770
 30
0.0
 10
32.131221
 20
71.287440
 30
0.0
 10
32.361067
 20
71.414370
 30
0.0
 10
32.597529
 20
71.547870
 30
0.0
 10
32.840421
 20
71.688290
 30
0.0
 10
33.089557
 20
71.835950
 30
0.0
 10
33.344752
 20
71.991170
 30
0.0
 10
33.605822
 20
72.154320
 30
0.0
 10
33.872581
 20
72.325700
 30
0.0
 10
34.151339
 20
72.514230
 30
0.0
 10
34.447579
 20
72.727560
 30
0.0
 10
34.759870
 20
72.964170
 30
0.0
 10
35.086782
 20
73.222530
 30
0.0
 10
35.426888
 20
73.501100
 30
0.0
 10
35.778759
 20
73.798360
 30
0.0
 10
36.140965
 20
74.112760
 30
0.0
 10
36.512079
 20
74.442780
 30
0.0
 10
36.890670
 20
74.786890
 30
0.0
 10
37.275309
 20
75.143550
 30
0.0
 10
37.664569
 20
75.511230
 30
0.0
 10
38.057020
 20
75.888400
 30
0.0
 10
38.451232
 20
76.273530
 30
0.0
 10
38.845778
 20
76.665080
 30
0.0
 10
39.239227
 20
77.061530
 30
0.0
 10
39.630152
 20
77.461340
 30
0.0
 10
40.017123
 20
77.862980
 30
0.0
 10
40.398712
 20
78.264910
 30
0.0
 10
40.773488
 20
78.665610
 30
0.0
 10
41.140025
 20
79.063550
 30
0.0
 10
41.496891
 20
79.457180
 30
0.0
 10
41.842660
 20
79.844990
 30
0.0
 10
42.175901
 20
80.225430
 30
0.0
 10
42.495186
 20
80.596970
 30
0.0
 10
42.799085
 20
80.958090
 30
0.0
 10
43.086170
 20
81.307250
 30
0.0
 10
43.355013
 20
81.642920
 30
0.0
 10
43.604182
 20
81.963570
 30
0.0
 10
43.832252
 20
82.267660
 30
0.0
 10
44.037792
 20
82.553670
 30
0.0
 10
44.219372
 20
82.820050
 30
0.0
 10
44.375565
 20
83.065280
 30
0.0
 10
44.577263
 20
83.361870
 30
0.0
 10
44.778962
 20
83.658460
 30
0.0
 10
44.980660
 20
83.955040
 30
0.0
 10
45.182357
 20
84.251630
 30
0.0
 10
45.384056
 20
84.548220
 30
0.0
 10
45.585754
 20
84.844800
 30
0.0
 10
45.787453
 20
85.141400
 30
0.0
 10
45.989151
 20
85.437980
 30
0.0
 10
46.190849
 20
85.734560
 30
0.0
 10
46.392548
 20
86.031160
 30
0.0
 10
46.594245
 20
86.327740
 30
0.0
 10
46.795943
 20
86.624320
 30
0.0
 10
46.997642
 20
86.920920
 30
0.0
 10
47.199340
 20
87.217500
 30
0.0
 10
47.401039
 20
87.514090
 30
0.0
 10
47.602737
 20
87.810680
 30
0.0
 10
47.677397
 20
87.996120
 30
0.0
 10
47.613017
 20
88.108630
 30
0.0
 10
47.444635
 20
88.170030
 30
0.0
 10
47.207315
 20
88.202230
 30
0.0
 10
46.936114
 20
88.227030
 30
0.0
 10
46.666086
 20
88.266430
 30
0.0
 10
46.432288
 20
88.342230
 30
0.0
 10
46.269774
 20
88.476150
 30
0.0
 10
46.200414
 20
88.690640
 30
0.0
 10
46.208614
 20
88.973540
 30
0.0
 10
46.273384
 20
89.294960
 30
0.0
 10
46.373625
 20
89.624990
 30
0.0
 10
46.488265
 20
89.933730
 30
0.0
 10
46.596235
 20
90.191270
 30
0.0
 10
46.676465
 20
90.367740
 30
0.0
 10
46.707895
 20
90.433140
 30
0.0
 10
46.707609
 20
90.433910
 30
0.0
 10
46.706756
 20
90.435910
 30
0.0
 10
46.705356
 20
90.439910
 30
0.0
 10
46.703356
 20
90.444910
 30
0.0
 10
46.700856
 20
90.450910
 30
0.0
 10
46.697856
 20
90.459910
 30
0.0
 10
46.694256
 20
90.469910
 30
0.0
 10
46.690156
 20
90.481010
 30
0.0
 10
46.639796
 20
90.617490
 30
0.0
 10
46.560896
 20
90.829840
 30
0.0
 10
46.457583
 20
91.105690
 30
0.0
 10
46.333986
 20
91.432670
 30
0.0
 10
46.194229
 20
91.798410
 30
0.0
 10
46.042440
 20
92.190530
 30
0.0
 10
45.882743
 20
92.596680
 30
0.0
 10
45.719264
 20
93.004470
 30
0.0
 10
45.556129
 20
93.401530
 30
0.0
 10
45.397463
 20
93.775500
 30
0.0
 10
45.247393
 20
94.114010
 30
0.0
 10
45.110044
 20
94.404670
 30
0.0
 10
45.043284
 20
94.547160
 30
0.0
 10
44.947884
 20
94.696240
 30
0.0
 10
44.719597
 20
94.930390
 30
0.0
 10
44.690707
 20
94.969590
 30
0.0
 10
44.674837
 20
95.011890
 30
0.0
 10
44.672237
 20
95.056290
 30
0.0
 10
44.683057
 20
95.101490
 30
0.0
 10
44.707547
 20
95.146390
 30
0.0
 10
44.745917
 20
95.189890
 30
0.0
 10
44.798387
 20
95.230890
 30
0.0
 10
44.865157
 20
95.268090
 30
0.0
 10
44.946457
 20
95.300590
 30
0.0
 10
45.042497
 20
95.326990
 30
0.0
 10
45.153496
 20
95.346290
 30
0.0
 10
45.279664
 20
95.357390
 30
0.0
 10
45.421218
 20
95.358390
 30
0.0
 10
45.578373
 20
95.349390
 30
0.0
 10
45.749942
 20
95.348830
 30
0.0
 10
45.933265
 20
95.375030
 30
0.0
 10
46.126343
 20
95.425630
 30
0.0
 10
46.327178
 20
95.498630
 30
0.0
 10
46.533773
 20
95.591730
 30
0.0
 10
46.744127
 20
95.702760
 30
0.0
 10
46.956244
 20
95.829530
 30
0.0
 10
47.168123
 20
95.969840
 30
0.0
 10
47.377768
 20
96.121490
 30
0.0
 10
47.583180
 20
96.282290
 30
0.0
 10
47.782361
 20
96.450030
 30
0.0
 10
47.973311
 20
96.622540
 30
0.0
 10
48.154034
 20
96.797610
 30
0.0
 10
48.322531
 20
96.973040
 30
0.0
 10
48.476802
 20
97.146640
 30
0.0
 10
48.614849
 20
97.316210
 30
0.0
 10
48.741315
 20
97.483710
 30
0.0
 10
48.861959
 20
97.651490
 30
0.0
 10
48.976456
 20
97.818040
 30
0.0
 10
49.084486
 20
97.981830
 30
0.0
 10
49.185725
 20
98.141310
 30
0.0
 10
49.279855
 20
98.294970
 30
0.0
 10
49.366545
 20
98.441260
 30
0.0
 10
49.445475
 20
98.578660
 30
0.0
 10
49.516325
 20
98.705630
 30
0.0
 10
49.578775
 20
98.820640
 30
0.0
 10
49.632505
 20
98.922150
 30
0.0
 10
49.677195
 20
99.008650
 30
0.0
 10
49.712515
 20
99.078550
 30
0.0
 10
49.738145
 20
99.130350
 30
0.0
 10
49.753755
 20
99.162550
 30
0.0
 10
49.759055
 20
99.173650
 30
0.0
 10
49.816815
 20
99.175650
 30
0.0
 10
49.874575
 20
99.177650
 30
0.0
 10
49.932335
 20
99.179650
 30
0.0
 10
49.990095
 20
99.181650
 30
0.0
 10
50.047855
 20
99.183650
 30
0.0
 10
50.105615
 20
99.185650
 30
0.0
 10
50.163375
 20
99.187650
 30
0.0
 10
50.221135
 20
99.189650
 30
0.0
 10
50.278895
 20
99.191650
 30
0.0
 10
50.336655
 20
99.193650
 30
0.0
 10
50.394415
 20
99.195650
 30
0.0
 10
50.452175
 20
99.197650
 30
0.0
 10
50.509935
 20
99.199650
 30
0.0
 10
50.567695
 20
99.201650
 30
0.0
 10
50.625455
 20
99.203650
 30
0.0
 10
50.683215
 20
99.205650
 30
0.0
 10
50.692415
 20
99.175550
 30
0.0
 10
50.719795
 20
99.089750
 30
0.0
 10
50.764915
 20
98.955150
 30
0.0
 10
50.827385
 20
98.778620
 30
0.0
 10
50.906775
 20
98.567070
 30
0.0
 10
51.002695
 20
98.327370
 30
0.0
 10
51.114729
 20
98.066410
 30
0.0
 10
51.242470
 20
97.791050
 30
0.0
 10
51.385510
 20
97.508210
 30
0.0
 10
51.543441
 20
97.224750
 30
0.0
 10
51.715855
 20
96.947540
 30
0.0
 10
51.902344
 20
96.683490
 30
0.0
 10
52.102498
 20
96.439470
 30
0.0
 10
52.315911
 20
96.222360
 30
0.0
 10
52.542172
 20
96.039050
 30
0.0
 10
52.780876
 20
95.896420
 30
0.0
 10
53.026993
 20
95.782880
 30
0.0
 10
53.274206
 20
95.681800
 30
0.0
 10
53.520173
 20
95.592500
 30
0.0
 10
53.762552
 20
95.514200
 30
0.0
 10
53.998999
 20
95.446300
 30
0.0
 10
54.227174
 20
95.388000
 30
0.0
 10
54.444734
 20
95.338600
 30
0.0
 10
54.649336
 20
95.297400
 30
0.0
 10
54.838640
 20
95.263700
 30
0.0
 10
55.010302
 20
95.236800
 30
0.0
 10
55.161981
 20
95.215900
 30
0.0
 10
55.291333
 20
95.200500
 30
0.0
 10
55.396018
 20
95.189700
 30
0.0
 10
55.473688
 20
95.183700
 30
0.0
 10
55.522018
 20
95.180700
 30
0.0
 10
55.538648
 20
95.179700
 30
0.0
 10
55.545648
 20
95.175700
 30
0.0
 10
55.565318
 20
95.162700
 30
0.0
 10
55.595478
 20
95.141700
 30
0.0
 10
55.633978
 20
95.113500
 30
0.0
 10
55.678658
 20
95.078600
 30
0.0
 10
55.727378
 20
95.037600
 30
0.0
 10
55.777988
 20
94.991200
 30
0.0
 10
55.828348
 20
94.940000
 30
0.0
 10
55.876298
 20
94.884600
 30
0.0
 10
55.919688
 20
94.825500
 30
0.0
 10
55.956378
 20
94.763600
 30
0.0
 10
55.984218
 20
94.699200
 30
0.0
 10
56.001048
 20
94.633100
 30
0.0
 10
56.004748
 20
94.565800
 30
0.0
 10
55.993128
 20
94.498100
 30
0.0
 10
55.964058
 20
94.430500
 30
0.0
 10
55.900898
 20
94.344200
 30
0.0
 10
55.792907
 20
94.223490
 30
0.0
 10
55.646842
 20
94.073930
 30
0.0
 10
55.469446
 20
93.901020
 30
0.0
 10
55.267468
 20
93.710280
 30
0.0
 10
55.047655
 20
93.507200
 30
0.0
 10
54.816755
 20
93.297330
 30
0.0
 10
54.581515
 20
93.086140
 30
0.0
 10
54.348681
 20
92.879160
 30
0.0
 10
54.125001
 20
92.681890
 30
0.0
 10
53.917221
 20
92.499870
 30
0.0
 10
53.732090
 20
92.338580
 30
0.0
 10
53.576354
 20
92.203530
 30
0.0
 10
53.456761
 20
92.100210
 30
0.0
 10
53.380061
 20
92.034210
 30
0.0
 10
53.352991
 20
92.011010
 30
0.0
 10
53.352073
 20
91.906630
 30
0.0
 10
53.351156
 20
91.802250
 30
0.0
 10
53.350238
 20
91.697860
 30
0.0
 10
53.349319
 20
91.593480
 30
0.0
 10
53.348401
 20
91.489100
 30
0.0
 10
53.347483
 20
91.384710
 30
0.0
 10
53.346565
 20
91.280330
 30
0.0
 10
53.345647
 20
91.175950
 30
0.0
 10
53.344729
 20
91.071560
 30
0.0
 10
53.343811
 20
90.967180
 30
0.0
 10
53.342893
 20
90.862800
 30
0.0
 10
53.341974
 20
90.758410
 30
0.0
 10
53.341056
 20
90.654030
 30
0.0
 10
53.340139
 20
90.549640
 30
0.0
 10
53.339221
 20
90.445260
 30
0.0
 10
53.338303
 20
90.340880
 30
0.0
 10
53.411643
 20
90.209170
 30
0.0
 10
53.573002
 20
89.890150
 30
0.0
 10
53.734361
 20
89.497950
 30
0.0
 10
53.807701
 20
89.146730
 30
0.0
 10
53.806717
 20
89.075730
 30
0.0
 10
53.803717
 20
89.008930
 30
0.0
 10
53.798717
 20
88.945930
 30
0.0
 10
53.791717
 20
88.886530
 30
0.0
 10
53.782617
 20
88.830430
 30
0.0
 10
53.771387
 20
88.777430
 30
0.0
 10
53.758017
 20
88.727330
 30
0.0
 10
53.742477
 20
88.679730
 30
0.0
 10
53.724737
 20
88.634430
 30
0.0
 10
53.704757
 20
88.591130
 30
0.0
 10
53.682517
 20
88.549530
 30
0.0
 10
53.657987
 20
88.509430
 30
0.0
 10
53.631137
 20
88.470630
 30
0.0
 10
53.601927
 20
88.432630
 30
0.0
 10
53.570337
 20
88.395430
 30
0.0
 10
53.536327
 20
88.358630
 30
0.0
 10
53.486707
 20
88.315130
 30
0.0
 10
53.431417
 20
88.280230
 30
0.0
 10
53.371587
 20
88.252730
 30
0.0
 10
53.308387
 20
88.231230
 30
0.0
 10
53.242967
 20
88.214530
 30
0.0
 10
53.176477
 20
88.201130
 30
0.0
 10
53.110077
 20
88.189730
 30
0.0
 10
53.044917
 20
88.179130
 30
0.0
 10
52.883783
 20
88.165630
 30
0.0
 10
52.697534
 20
88.166630
 30
0.0
 10
52.503013
 20
88.172630
 30
0.0
 10
52.317062
 20
88.173630
 30
0.0
 10
52.237992
 20
88.166630
 30
0.0
 10
52.176062
 20
88.146530
 30
0.0
 10
52.130112
 20
88.113330
 30
0.0
 10
52.099002
 20
88.065930
 30
0.0
 10
52.078992
 20
88.009830
 30
0.0
 10
52.068412
 20
87.945230
 30
0.0
 10
52.069218
 20
87.863930
 30
0.0
 10
52.083358
 20
87.757500
 30
0.0
 10
52.099428
 20
87.694200
 30
0.0
 10
52.125738
 20
87.625900
 30
0.0
 10
52.161668
 20
87.552500
 30
0.0
 10
52.206568
 20
87.473900
 30
0.0
 10
52.259808
 20
87.389900
 30
0.0
 10
52.320748
 20
87.300500
 30
0.0
 10
52.388748
 20
87.205700
 30
0.0
 10
52.463178
 20
87.105250
 30
0.0
 10
52.812443
 20
86.645480
 30
0.0
 10
53.213629
 20
86.088270
 30
0.0
  0
ENDSEC
  0
SECTION
  2
OBJECTS
  0
DICTIONARY
  5
C
330
0
100
AcDbDictionary
  3
ACAD_GROUP
350
D
  3
ACAD_MLINESTYLE
350
17
  0
DICTIONARY
  5
D
330
C
100
AcDbDictionary
  0
DICTIONARY
  5
1A
330
C
100
AcDbDictionary
  0
DICTIONARY
  5
17
330
C
100
AcDbDictionary
  3
STANDARD
350
18
  0
DICTIONARY
  5
19
330
C
100
AcDbDictionary
  0
ENDSEC
  0
EOF
