<?xml version="1.0" encoding="UTF-8" standalone="no"?>
<!-- Created with Inkscape (http://www.inkscape.org/) -->

<svg
   xmlns:dc="http://purl.org/dc/elements/1.1/"
   xmlns:cc="http://creativecommons.org/ns#"
   xmlns:rdf="http://www.w3.org/1999/02/22-rdf-syntax-ns#"
   xmlns:svg="http://www.w3.org/2000/svg"
   xmlns="http://www.w3.org/2000/svg"
   xmlns:sodipodi="http://sodipodi.sourceforge.net/DTD/sodipodi-0.dtd"
   xmlns:inkscape="http://www.inkscape.org/namespaces/inkscape"
   width="100mm"
   height="100mm"
   viewBox="0 0 100 100"
   version="1.1"
   id="svg8"
   inkscape:version="0.92.2pre0 (973e216, 2017-07-25)"
   sodipodi:docname="Tree.svg">
  <defs
     id="defs2" />
  <sodipodi:namedview
     id="base"
     pagecolor="#ffffff"
     bordercolor="#666666"
     borderopacity="1.0"
     inkscape:pageopacity="0.0"
     inkscape:pageshadow="2"
     inkscape:zoom="1.9711921"
     inkscape:cx="189.94372"
     inkscape:cy="185.16257"
     inkscape:document-units="mm"
     inkscape:current-layer="layer3"
     showgrid="false"
     inkscape:window-width="1280"
     inkscape:window-height="996"
     inkscape:window-x="1366"
     inkscape:window-y="0"
     inkscape:window-maximized="1"
     showguides="true"
     inkscape:guide-bbox="true"
     inkscape:measure-start="202.737,313.879"
     inkscape:measure-end="202.737,13.1436" />
  <metadata
     id="metadata5">
    <rdf:RDF>
      <cc:Work
         rdf:about="">
        <dc:format>image/svg+xml</dc:format>
        <dc:type
           rdf:resource="http://purl.org/dc/dcmitype/StillImage" />
        <dc:title />
      </cc:Work>
    </rdf:RDF>
  </metadata>
  <g
     inkscape:label="Capa 1"
     inkscape:groupmode="layer"
     id="layer1"
     transform="translate(0,-197)"
     style="display:inline">
    <path
       style="fill:none;stroke:#000000;stroke-width:0.26458332px;stroke-linecap:butt;stroke-linejoin:miter;stroke-opacity:1"
       d="m 53.640765,213.95292 0.518959,0.71701 0.518958,0.717 0.518958,0.71701 0.518959,0.717 0.337802,0.48082 0.433646,0.55458 0.518056,0.61681 0.591035,0.66752 0.652582,0.70672 0.702695,0.7344 0.741376,0.75056 0.768625,0.7552 0.784441,0.74833 0.788825,0.72993 0.781777,0.70001 0.763295,0.65859 0.733382,0.60563 0.692036,0.54116 0.639257,0.46518 0.575047,0.37767 1.032248,0.59904 0.932328,0.49013 0.820568,0.40117 0.696967,0.33218 0.561525,0.28315 0.226273,0.12944 0.187971,0.12467 0.148191,0.1224 0.106931,0.12262 0.06419,0.12533 0.01997,0.13056 -0.0095,0.11913 -0.02368,0.12809 -0.03736,0.13651 -0.05053,0.14441 -0.06321,0.15175 -0.07538,0.15857 -0.08706,0.16484 -0.09824,0.17057 -0.228002,0.35621 -0.266709,0.37269 -0.301416,0.38488 -0.332125,0.39275 -0.358834,0.39632 -0.381545,0.39558 -0.400256,0.39055 -0.414969,0.38121 -0.425683,0.36756 -0.432397,0.3496 -0.435113,0.32735 -0.433829,0.30079 -0.671596,0.4959 -0.25499,0.20718 -0.205086,0.18452 -0.158156,0.16523 -0.1142,0.14933 -0.07322,0.13683 -0.03521,0.12769 -1.85e-4,0.12196 0.03187,0.1196 0.06095,0.12064 0.08706,0.12505 0.110187,0.13285 0.130343,0.14403 0.309253,0.33518 0.133687,0.14898 0.07501,0.0841 0.03079,0.0352 0.001,0.002 -0.01432,-0.0153 -0.0152,-0.0167 -0.0016,-0.002 0.02638,0.028 0.06884,0.074 0.125745,0.13598 0.1971,0.21378 0.282903,0.30741 0.383154,0.4169 0.497853,0.54222 0.626999,0.68341 0.770592,0.84043 0.431942,0.45694 0.447598,0.44654 0.461716,0.43605 0.474298,0.42548 0.485344,0.41482 0.494853,0.40407 0.502825,0.39325 0.509262,0.38233 0.514161,0.37132 0.517525,0.36024 0.519351,0.34906 0.519641,0.3378 0.518395,0.32646 0.515612,0.31502 0.511292,0.3035 0.505437,0.2919 0.498044,0.28021 0.489115,0.26844 0.478649,0.25657 0.466648,0.24462 0.45311,0.23259 0.438034,0.22047 0.421423,0.20826 0.403275,0.19597 0.38359,0.18359 0.36237,0.17113 0.339612,0.15858 0.315318,0.14594 0.289488,0.13323 0.262121,0.12041 0.233217,0.10752 0.202777,0.0945 0.320051,0.17425 0.260446,0.17148 0.203535,0.16996 0.149318,0.1697 0.09779,0.17067 0.04896,0.17289 0.0028,0.17635 -0.04062,0.18106 -0.08136,0.18702 -0.119422,0.19423 -0.154785,0.20267 -0.187453,0.21236 -0.217429,0.2233 -0.244711,0.23548 -0.2693,0.24891 -0.291194,0.26359 -0.15684,0.13431 -0.16848,0.13169 -0.178927,0.12923 -0.188182,0.12691 -0.196242,0.12477 -0.20311,0.12277 -0.208786,0.12093 -0.213268,0.11924 -0.216557,0.11771 -0.218654,0.11634 -0.219557,0.11512 -0.219267,0.11405 -0.217785,0.11315 -0.21511,0.11239 -0.211242,0.1118 -0.20618,0.11136 -0.05061,0.0278 -0.05021,0.0278 -0.04978,0.0278 -0.04933,0.0277 -0.04886,0.0277 -0.04838,0.0277 -0.04788,0.0277 -0.04736,0.0277 -0.04682,0.0277 -0.04626,0.0277 -0.04568,0.0277 -0.04508,0.0277 -0.174006,0.11115 -0.16298,0.11148 -0.150761,0.11198 -0.137349,0.11262 -0.122744,0.11343 -0.106946,0.11439 -0.08996,0.1155 -0.07177,0.11677 -0.05239,0.1182 -0.03183,0.11977 -0.01006,0.12152 0.01289,0.12341 0.03704,0.12545 0.0585,0.1348 0.07594,0.15075 0.09262,0.1658 0.108522,0.17993 0.123651,0.19317 0.138006,0.2055 0.151588,0.21694 0.164395,0.22747 0.770186,0.99712 0.91322,1.09339 1.006744,1.1319 1.050754,1.11264 1.045252,1.03563 0.99024,0.90084 0.5773,0.45066 0.766057,0.52853 0.925391,0.59252 1.055306,0.64264 1.155798,0.67889 1.22687,0.70125 1.268521,0.70975 1.28075,0.70438 1.263558,0.68511 1.216945,0.65199 1.140912,0.60498 1.035456,0.54411 0.900579,0.46935 0.736283,0.38072 0.542563,0.27821 0.319424,0.16184 0.294808,0.22297 0.120056,0.25925 -0.01295,0.27519 -0.104207,0.27077 -0.15372,0.24602 -0.161485,0.20091 -0.127505,0.13547 -0.05178,0.0497 -0.266553,0.25066 -0.73237,0.67999 -1.097249,1.00137 -1.361195,1.21477 -1.524204,1.32022 -1.586278,1.31768 -1.547416,1.20718 -1.407618,0.98873 -1.729265,1.07999 -1.764699,1.02651 -1.797346,0.97229 -1.827207,0.91731 -1.854282,0.86157 -1.878568,0.80508 -1.90007,0.74782 -1.918784,0.68981 -2.013097,0.64841 -2.035872,0.57761 -2.055174,0.51246 -2.071003,0.45294 -2.08336,0.39906 -2.092244,0.35084 -2.097657,0.30824 -2.099596,0.27129 -1.737168,0.15601 -1.716652,0.0637 -1.775837,0.0107 -1.91472,-0.003 -2.111008,0.0115 -2.252132,-0.005 -2.304103,-0.0726 -2.266921,-0.19015 -2.099895,-0.26881 -2.097797,-0.30708 -2.092263,-0.35068 -2.083293,-0.39962 -2.070887,-0.4539 -2.055045,-0.51352 -2.035768,-0.57847 -2.013055,-0.64877 -1.918784,-0.68981 -1.90007,-0.74782 -1.878569,-0.80508 -1.854281,-0.86157 -1.827207,-0.91731 -1.797345,-0.97229 -1.764698,-1.02651 -1.729263,-1.07999 -1.407618,-0.98873 -1.5474151,-1.20718 -1.5862768,-1.31769 -1.5242029,-1.32021 -1.3611937,-1.21477 -1.0972489,-1.00137 -0.7323687,-0.67999 -0.1978119,-0.18575 -0.068741,-0.0649 -0.013815,-0.0128 -0.037964,-0.0369 -0.056896,-0.0583 -0.070609,-0.0772 -0.07911,-0.0935 -0.082376,-0.10737 -0.080437,-0.11864 -0.0732837,-0.12738 -0.0609084,-0.13357 -0.0432999,-0.1372 -0.0204897,-0.13831 0.00754,-0.13688 0.0407925,-0.13289 0.0792619,-0.12636 0.1229495,-0.11729 0.1718556,-0.10568 0.861989,-0.44005 1.6368628,-0.85007 2.1763673,-1.14909 2.480503,-1.3371 2.5492701,-1.41413 2.382668,-1.38014 1.980695,-1.23516 1.343356,-0.97919 0.99024,-0.90084 1.045253,-1.03563 1.050754,-1.11264 1.006744,-1.1319 0.913221,-1.09339 0.770186,-0.99712 0.57764,-0.84308 0.335581,-0.63128 0.04993,-0.24886 -0.04189,-0.24129 -0.124167,-0.23497 -0.196902,-0.22989 -0.260093,-0.22605 -0.313741,-0.22346 -0.357844,-0.22212 -0.392405,-0.22201 -0.417421,-0.22316 -0.432895,-0.22554 -0.438824,-0.22917 -0.43521,-0.23405 -0.422054,-0.24017 -0.399352,-0.24754 -0.367107,-0.25614 -0.32532,-0.266 -0.560495,-0.5125 -0.462141,-0.45879 -0.342239,-0.41503 -0.200788,-0.38124 -0.03779,-0.35741 0.146758,-0.34356 0.352852,-0.33966 0.580496,-0.34573 0.202777,-0.0945 0.233218,-0.10752 0.262121,-0.12041 0.289488,-0.13323 0.315318,-0.14594 0.339612,-0.15858 0.36237,-0.17113 0.383591,-0.18359 0.403275,-0.19597 0.421423,-0.20826 0.438035,-0.22047 0.453109,-0.23259 0.466648,-0.24462 0.47865,-0.25657 0.489115,-0.26844 0.498044,-0.28021 0.505437,-0.2919 0.511292,-0.3035 0.515612,-0.31502 0.518395,-0.32646 0.519641,-0.3378 0.519351,-0.34906 0.517525,-0.36024 0.514161,-0.37132 0.509262,-0.38233 0.502825,-0.39325 0.494853,-0.40407 0.485344,-0.41482 0.474298,-0.42548 0.461716,-0.43605 0.447598,-0.44654 0.431942,-0.45694 0.404148,-0.44083 0.366444,-0.3996 0.330546,-0.36034 0.296453,-0.32307 0.264167,-0.28777 0.233686,-0.25445 0.205012,-0.22313 0.178142,-0.19377 0.153081,-0.1664 0.129823,-0.14101 0.108373,-0.1176 0.08873,-0.0962 0.07089,-0.0767 0.05486,-0.0593 0.04063,-0.0438 0.02821,-0.0303 0.01759,-0.0187 0.0088,-0.009 0.0018,-0.002 -0.0034,0.004 -0.0068,0.008 -0.0084,0.009 -0.0082,0.009 -0.0061,0.006 -0.0023,0.002 0.0033,-0.004 0.01077,-0.0125 0.02002,-0.0227 0.03108,-0.035 0.04394,-0.0492 0.05861,-0.0654 0.07508,-0.0836 0.08245,-0.0907 0.07928,-0.0858 0.07572,-0.0813 0.0718,-0.0773 0.06751,-0.0736 0.06284,-0.0704 0.0578,-0.0676 0.05239,-0.0652 0.04661,-0.0633 0.04045,-0.0618 0.03392,-0.0607 0.02703,-0.06 0.01976,-0.0597 0.01211,-0.0599 0.0041,-0.0605 -0.0043,-0.0615 -0.01304,-0.0629 -0.02217,-0.0648 -0.03167,-0.0671 -0.04155,-0.0698 -0.05179,-0.0729 -0.06241,-0.0764 -0.0734,-0.0804 -0.08476,-0.0848 -0.09649,-0.0896 -0.108595,-0.0949 -0.121071,-0.10054 -0.133919,-0.10664 -0.14714,-0.11314 -0.160731,-0.12009 -0.174695,-0.12744 -0.18903,-0.13523 -0.216504,-0.1468 -0.217325,-0.15399 -0.217646,-0.16062 -0.217467,-0.16673 -0.216788,-0.17229 -0.215609,-0.17731 -0.213931,-0.18181 -0.211752,-0.18575 -0.209074,-0.18917 -0.205896,-0.19204 -0.202217,-0.19437 -0.19804,-0.19618 -0.193361,-0.19743 -0.188184,-0.19815 -0.182506,-0.19834 -0.176329,-0.19798 -0.169651,-0.1971 -0.162474,-0.19565 -0.154796,-0.19369 -0.14662,-0.19119 -0.137943,-0.18814 -0.128766,-0.18455 -0.119089,-0.18043 -0.108913,-0.17578 -0.09824,-0.17057 -0.08706,-0.16484 -0.07538,-0.15857 -0.06321,-0.15175 -0.05053,-0.14441 -0.03736,-0.13651 -0.02368,-0.12809 -0.0095,-0.11913 0.0044,-0.0661 0.0156,-0.0645 0.02666,-0.0632 0.03753,-0.0622 0.04822,-0.0615 0.05871,-0.0611 0.06903,-0.0611 0.07916,-0.0613 0.08911,-0.0619 0.09887,-0.0628 0.108441,-0.064 0.117831,-0.0655 0.127036,-0.0673 0.136057,-0.0694 0.144891,-0.0719 0.153542,-0.0746 0.162006,-0.0777 0.170287,-0.0811 0.178381,-0.0847 0.186292,-0.0887 0.194017,-0.093 0.201557,-0.0977 0.208912,-0.1026 0.216082,-0.10785 0.223067,-0.11341 0.229866,-0.11929 0.236482,-0.12546 0.242912,-0.13197 0.249157,-0.13877 0.255217,-0.14588 0.261092,-0.15333 0.266782,-0.16106 0.278782,-0.17718 0.296265,-0.20049 0.312317,-0.22237 0.32694,-0.24281 0.340135,-0.2618 0.351901,-0.27936 0.362237,-0.29548 0.371145,-0.31015 0.378623,-0.3234 0.384672,-0.33519 0.389293,-0.34555 0.392484,-0.35446 0.394246,-0.36195 0.394579,-0.36798 0.393483,-0.37259 0.390958,-0.37574 0.387004,-0.37746 0.381621,-0.37774 0.374808,-0.37658 0.366568,-0.37398 0.356897,-0.36994 0.345798,-0.36446 0.333269,-0.35754 0.319312,-0.34918 0.303925,-0.33938 0.28711,-0.32814 0.268865,-0.31547 0.249191,-0.30134 0.228089,-0.28579 0.205557,-0.26879 0.181596,-0.25035 0.156206,-0.23047 0.201715,-0.27873 0.201716,-0.27874 0.201715,-0.27873 0.201715,-0.27873 0.201716,-0.27874 0.201715,-0.27873 0.201716,-0.27874 0.201715,-0.27873 0.201715,-0.27873 0.201716,-0.27874 0.201715,-0.27873 0.201715,-0.27873 0.201716,-0.27874 0.201715,-0.27873 0.201716,-0.27874 0.201715,-0.27873 0.07467,-0.17428 -0.06439,-0.10574 -0.168396,-0.0577 -0.23734,-0.0303 -0.271224,-0.0233 -0.270051,-0.037 -0.233818,-0.0712 -0.162528,-0.12586 -0.06937,-0.20158 0.0082,-0.26587 0.06478,-0.30207 0.10025,-0.31016 0.11465,-0.29016 0.107979,-0.24204 0.08024,-0.16584 0.03143,-0.0615 -2.86e-4,-7.3e-4 -8.53e-4,-0.002 -0.0014,-0.004 -0.002,-0.005 -0.0025,-0.006 -0.003,-0.008 -0.0036,-0.009 -0.0041,-0.0104 -0.05037,-0.12827 -0.07891,-0.19957 -0.103322,-0.25924 -0.123608,-0.3073 -0.139768,-0.34372 -0.151802,-0.36852 -0.159711,-0.3817 -0.163493,-0.38324 -0.163149,-0.37316 -0.158679,-0.35146 -0.150083,-0.31813 -0.137361,-0.27317 -0.06677,-0.13391 -0.09541,-0.14011 -0.228307,-0.22005 -0.02889,-0.0368 -0.01587,-0.0398 -0.0026,-0.0417 0.01082,-0.0425 0.02449,-0.0422 0.03837,-0.0409 0.05247,-0.0385 0.06678,-0.035 0.08131,-0.0305 0.09605,-0.0248 0.111008,-0.0181 0.126179,-0.0104 0.141566,-0.001 0.157168,0.008 0.171584,5.2e-4 0.183338,-0.0246 0.193095,-0.0476 0.200852,-0.0686 0.206612,-0.0875 0.210372,-0.10435 0.212135,-0.11914 0.211897,-0.13186 0.209663,-0.14252 0.20543,-0.15112 0.199197,-0.15765 0.190967,-0.16212 0.180738,-0.16453 0.168511,-0.16487 0.154284,-0.16315 0.138059,-0.15937 0.126477,-0.15741 0.120654,-0.15768 0.114507,-0.15653 0.108039,-0.15393 0.101248,-0.14988 0.09414,-0.14441 0.0867,-0.13748 0.07894,-0.12913 0.07086,-0.11933 0.06246,-0.10809 0.05373,-0.0954 0.04469,-0.0813 0.03532,-0.0657 0.02563,-0.0487 0.01561,-0.0303 0.0053,-0.0104 0.05776,-0.002 0.05776,-0.002 0.05776,-0.002 0.05776,-0.002 0.05776,-0.002 0.05776,-0.002 0.05776,-0.002 0.05776,-0.002 0.05776,-0.002 0.05776,-0.002 0.05776,-0.002 0.05776,-0.002 0.05776,-0.002 0.05776,-0.002 0.05776,-0.002 0.05776,-0.002 0.0092,0.0283 0.02738,0.0806 0.04512,0.1265 0.06247,0.1659 0.0794,0.19882 0.09593,0.22527 0.112043,0.24525 0.127752,0.25878 0.143052,0.26582 0.157945,0.2664 0.172429,0.26052 0.186504,0.24815 0.200171,0.22934 0.213431,0.20404 0.226281,0.17227 0.238724,0.13405 0.246138,0.1067 0.247234,0.095 0.245988,0.0839 0.242399,0.0736 0.236467,0.0638 0.228195,0.0548 0.217578,0.0464 0.20462,0.0387 0.18932,0.0317 0.171676,0.0253 0.151692,0.0196 0.129363,0.0145 0.104694,0.0101 0.07768,0.006 0.04833,0.003 0.01663,9.7e-4 0.007,0.004 0.01967,0.0122 0.03016,0.0197 0.0385,0.0265 0.04468,0.0328 0.04872,0.0385 0.05061,0.0436 0.05036,0.0481 0.04795,0.0521 0.04339,0.0555 0.03669,0.0582 0.02784,0.0605 0.01683,0.0621 0.0037,0.0632 -0.01162,0.0636 -0.02907,0.0635 -0.06317,0.0811 -0.108,0.11344 -0.146078,0.14056 -0.177411,0.1625 -0.201995,0.17926 -0.219831,0.19085 -0.23092,0.19724 -0.23526,0.19848 -0.232854,0.19452 -0.223699,0.18539 -0.207797,0.17107 -0.185147,0.15158 -0.155749,0.12692 -0.119604,0.0971 -0.07671,0.062 -0.02707,0.0218 -9.18e-4,0.0981 -9.18e-4,0.0981 -9.18e-4,0.0981 -9.19e-4,0.0981 -9.18e-4,0.0981 -9.18e-4,0.0981 -9.18e-4,0.0981 -9.18e-4,0.0981 -9.18e-4,0.0981 -9.18e-4,0.0981 -9.18e-4,0.0981 -9.19e-4,0.0981 -9.18e-4,0.0981 -9.18e-4,0.0981 -9.18e-4,0.0981 -9.18e-4,0.0981 0.07335,0.12378 0.161372,0.29982 0.161373,0.36859 0.07335,0.33008 -9.84e-4,0.0667 -0.003,0.0628 -0.005,0.0592 -0.007,0.0558 -0.0091,0.0527 -0.01123,0.0498 -0.01337,0.0471 -0.01554,0.0447 -0.01774,0.0426 -0.01998,0.0407 -0.02224,0.0391 -0.02453,0.0377 -0.02685,0.0365 -0.02921,0.0357 -0.03159,0.035 -0.03401,0.0346 -0.04962,0.0409 -0.0553,0.0328 -0.05983,0.0258 -0.0632,0.0202 -0.06543,0.0157 -0.06649,0.0126 -0.06641,0.0107 -0.06517,0.01 -0.161147,0.0127 -0.186265,-9.6e-4 -0.194538,-0.006 -0.185966,-10e-4 -0.07908,0.007 -0.06194,0.0189 -0.04595,0.0312 -0.03111,0.0445 -0.02001,0.0527 -0.01058,0.0607 8.07e-4,0.0764 0.01414,0.10002 0.01607,0.0595 0.02631,0.0642 0.03593,0.069 0.0449,0.0739 0.05324,0.0789 0.06094,0.084 0.06801,0.0891 0.07444,0.0944 0.349295,0.43209 0.40122,0.52367 z"
       id="path468-3"
       inkscape:connector-curvature="0"
       sodipodi:nodetypes="cccccccccccccccccccccccccccccccccccccccccccccccccccccccccccccccccccccccccccccccccccccccccccccccccccccccccccccccccccccccccccccccccccccccccccccccccccccccccccccccccccccccccccccccccccccccccccccccccccccccccccccccccccccccccccccccccccccccccccccccccccccccccccccccccccccccccccccccccccccccccccccccccccccccccccccccccccccccccccccccccccccccccccccccccccccccccccccccccccccccccccccccccccccccccccccccccccccccccccccccccccccccccccccccccccccccccccccccccccccccccccccccccccccccccccccccccccccccccccccccccccccccccccccccccccccccccccccccccccccccccccccccccccccccccccccccccccccccccccccccccccccccccccccccccccccccccccccccccccccccccccccccccccccccccccccccccccccccccccccccccccccccccccccccccccccccccccccccccccccccccccccccccccccccccccccccccccccccccccccccccccccccccccccccccccccccccccccccccccccccccc" />
    <path
       style="opacity:0.43200001;fill:#000000;stroke-width:0.16213968"
       d="m 48.224928,293.11085 c -1.004929,-0.0333 -2.65367,-0.16559 -3.663876,-0.29411 -1.010204,-0.12851 -2.162718,-0.2665 -2.561138,-0.30659 -0.398419,-0.04 -0.694341,-0.13663 -0.6576,-0.21454 0.03674,-0.078 -0.05063,-0.0995 -0.19419,-0.0481 -0.274731,0.0986 -2.391439,-0.33317 -4.727078,-0.9641 -1.450708,-0.39191 -3.220473,-1.02867 -4.80727,-1.72972 -0.514123,-0.22712 -1.157402,-0.50847 -1.429508,-0.62521 -0.272106,-0.11674 -0.459094,-0.28783 -0.415529,-0.38021 0.04356,-0.0922 0.01529,-0.11728 -0.06281,-0.0553 -0.151759,0.12032 -2.270769,-0.91536 -2.369229,-1.15798 -0.03227,-0.0797 -0.138356,-0.14268 -0.235751,-0.14039 -0.237316,0.006 -0.960532,-0.61779 -0.862358,-0.74333 0.08802,-0.11257 0.892078,0.13283 2.587395,0.78964 1.929577,0.74758 5.442859,1.70264 7.483842,2.03439 0.506099,0.0822 1.335367,0.23683 1.842818,0.34351 0.50745,0.10666 1.678972,0.26651 2.603381,0.35523 0.92441,0.0887 2.437103,0.23431 3.361543,0.32357 2.696124,0.26032 8.376607,0.21733 11.545843,-0.0874 9.169221,-0.88162 15.56588,-2.7858 20.919095,-6.22725 2.801555,-1.80104 2.690741,-1.55641 1.349892,-2.97997 -0.619711,-0.65794 -1.490004,-1.68335 -1.933979,-2.2787 -0.443975,-0.59534 -0.862091,-1.10537 -0.929146,-1.1334 -0.06706,-0.028 -0.126676,-0.1368 -0.132484,-0.24166 -0.0059,-0.10485 -0.144324,-0.34431 -0.307811,-0.53215 -0.822471,-0.94489 -4.063817,-7.05206 -4.10122,-7.72732 -0.0068,-0.12376 -0.08164,-0.29564 -0.166174,-0.38194 -0.215332,-0.21983 -1.333465,-3.18146 -2.076063,-5.49894 -0.343003,-1.07043 -0.660119,-1.98349 -0.704697,-2.02899 -0.04457,-0.0455 -0.508654,0.0335 -1.031389,0.1736 -0.522683,0.14101 -2.199777,0.41646 -3.726871,0.61214 -5.060229,0.64839 -10.960625,0.33484 -16.066021,-0.85362 -3.363182,-0.78294 -7.32918,-2.38644 -6.024238,-2.43566 0.241821,-0.009 1.428667,0.0323 7.880312,0.27458 2.352908,0.0884 11.285502,-0.36914 13.185093,-0.6753 2.232857,-0.35989 6.53722,-1.81622 7.637145,-2.58394 0.112726,-0.0787 -0.270934,-0.64842 -1.085019,-1.61129 -1.1951,-1.41347 -3.303246,-4.37508 -3.319187,-4.66291 -0.0041,-0.0737 -0.255659,-0.48203 -0.559047,-0.9072 -0.543658,-0.76189 -3.875152,-7.30615 -4.124935,-8.10287 -0.07062,-0.22523 -0.426101,-1.0446 -0.789974,-1.82085 l -0.661582,-1.41134 -0.849187,0.0479 c -0.467055,0.0262 -0.819273,-0.0159 -0.782699,-0.0932 0.03657,-0.0776 -0.176929,-0.0944 -0.474443,-0.0377 -1.109399,0.21183 -4.073943,-0.42742 -5.482111,-1.18213 -1.031168,-0.55264 -1.968933,-1.42477 -1.780272,-1.6557 0.07852,-0.0962 2.11005,-0.31727 4.605748,-0.50144 3.690809,-0.27228 4.606873,-0.38985 5.281853,-0.67777 0.449138,-0.19157 0.829659,-0.3634 0.845605,-0.38184 0.01595,-0.0183 -0.189186,-0.4869 -0.45585,-1.04103 -0.266661,-0.55415 -0.697833,-1.46404 -0.958154,-2.02198 -0.742662,-1.59176 -1.533269,-3.26315 -2.238604,-4.7325 -0.35685,-0.74339 -0.843569,-1.84821 -1.081599,-2.45513 -1.76974,-4.51249 -2.438021,-6.39147 -2.662497,-7.48607 -0.135717,-0.66178 -0.124837,-0.70387 0.143667,-0.55618 0.271973,0.14961 0.856266,0.77048 0.86447,0.9186 0.0021,0.0369 0.18094,0.2795 0.397575,0.5396 0.92404,1.10929 1.683588,2.03257 2.294512,2.78912 1.599597,1.98091 2.522171,3.01871 4.390438,4.93866 1.710682,1.75802 3.387378,3.29324 4.203533,3.84884 0.317649,0.21624 0.614241,0.43833 0.659094,0.49355 0.206605,0.2543 1.759373,1.28839 2.640118,1.75818 l 0.975741,0.52049 -0.233708,0.5287 c -0.128538,0.29081 -0.373508,0.72396 -0.544378,0.96259 -0.170873,0.23863 -0.267661,0.43146 -0.215093,0.42849 0.0941,-0.006 -1.228585,1.64041 -1.755553,2.18427 -0.474036,0.48923 -1.759969,1.29088 -2.466723,1.53772 -0.376286,0.13144 -0.682497,0.26893 -0.680467,0.30554 0.0047,0.0842 0.492651,0.95767 1.022329,1.82993 0.224146,0.36911 0.392476,0.73634 0.374062,0.81605 -0.01842,0.0797 0.01981,0.10267 0.08496,0.0509 0.06513,-0.0516 0.483069,0.36335 0.928744,0.9222 1.18406,1.48477 2.667742,2.92777 2.991558,2.90956 0.07969,-0.004 0.107053,0.0721 0.06083,0.17011 -0.04622,0.098 -0.0018,0.17361 0.09867,0.16795 0.100498,-0.006 0.476886,0.2344 0.836419,0.53343 0.702732,0.58449 2.842457,2.0083 4.119017,2.74085 0.431671,0.24773 0.830549,0.51985 0.88639,0.60468 0.05581,0.0848 0.144946,0.14427 0.198015,0.13203 0.143259,-0.033 1.23652,0.43204 1.33834,0.56932 0.04836,0.0651 1.002237,0.57456 2.119794,1.13202 1.326015,0.66144 2.055366,1.12046 2.099421,1.32127 0.07775,0.35438 -0.518425,1.45932 -1.630849,3.02259 -0.426544,0.59945 -0.794423,1.16057 -0.817497,1.24698 -0.02306,0.0864 -0.123397,0.16169 -0.222927,0.1673 -0.09953,0.006 -0.277537,0.15505 -0.395572,0.33215 -0.118022,0.1771 -0.521656,0.5707 -0.896951,0.87464 -0.388224,0.31443 -0.67525,0.68316 -0.665866,0.85538 0.009,0.16649 0.07801,0.29926 0.153187,0.29504 0.0752,-0.004 0.220928,0.22181 0.323886,0.50231 0.102954,0.28053 0.258915,0.506 0.346579,0.50107 0.08766,-0.005 0.164074,0.0755 0.169805,0.17897 0.01398,0.25304 0.898291,1.53306 1.865005,2.69969 0.434456,0.52432 0.761376,0.95488 0.726479,0.95687 -0.03487,0.002 0.307588,0.40476 0.761061,0.89515 0.45348,0.49034 0.939728,1.02909 1.080558,1.19719 0.317558,0.37905 1.887351,1.7545 2.080404,1.82285 0.07801,0.0275 0.107246,0.12359 0.06495,0.21324 -0.04231,0.0898 0.0129,0.15797 0.122525,0.1518 0.109678,-0.006 0.592829,0.31801 1.073679,0.72043 0.480851,0.40242 0.959984,0.72682 1.064737,0.72092 0.104756,-0.006 0.194668,0.0652 0.1998,0.15783 0.0051,0.0927 0.203537,0.27912 0.440896,0.41427 0.237358,0.13514 0.61987,0.36942 0.850022,0.52057 0.965832,0.63434 1.916062,1.14495 2.110439,1.13401 0.114515,-0.006 0.211627,0.0504 0.215845,0.12662 0.0042,0.0762 0.586662,0.40485 1.294326,0.73056 0.707659,0.32572 1.392703,0.6547 1.522318,0.73104 0.12961,0.0763 0.340453,0.17856 0.468529,0.22712 0.128066,0.0485 0.373032,0.14941 0.54435,0.22409 0.171318,0.0746 0.699295,0.27223 1.173275,0.43896 1.586553,0.55804 1.59005,0.56913 0.629024,1.98933 -0.460255,0.68018 -0.963421,1.35618 -1.118138,1.50225 -0.154714,0.14608 -0.396953,0.41346 -0.5383,0.59419 -0.141351,0.18075 -0.287573,0.33037 -0.324943,0.33247 -0.0374,0.002 -0.247631,0.21906 -0.46724,0.48217 -0.399155,0.47818 -1.748823,1.83098 -2.177464,2.18254 -0.124928,0.1025 -0.648286,0.54596 -1.16301,0.98554 -0.514719,0.43962 -1.034411,0.76254 -1.154868,0.71764 -0.120461,-0.0449 -0.175411,-0.0109 -0.122101,0.0758 0.110871,0.18012 -1.328316,1.25054 -3.572804,2.65734 -2.763704,1.73221 -3.570952,2.15576 -3.753567,1.96933 -0.05181,-0.0528 -0.08973,-0.015 -0.08422,0.0845 0.0055,0.0995 -0.206227,0.28968 -0.47053,0.42276 -0.264297,0.13305 -0.679442,0.35524 -0.922542,0.49375 -0.243097,0.13849 -0.775638,0.36814 -1.183416,0.5103 -0.407784,0.14219 -0.908058,0.37087 -1.111723,0.50823 -0.203666,0.13733 -0.472481,0.25706 -0.597373,0.26605 -0.124882,0.009 -0.527018,0.1574 -0.89363,0.32982 -0.366606,0.17239 -0.868968,0.3634 -1.116355,0.42448 -0.247391,0.0609 -0.548698,0.1776 -0.669583,0.25896 -0.120879,0.0813 -0.723873,0.30761 -1.339991,0.50287 -0.616111,0.19521 -1.814402,0.58801 -2.662866,0.87287 -0.848465,0.28487 -1.657084,0.50307 -1.796935,0.4849 -0.139856,-0.0182 -0.338291,0.0346 -0.440978,0.11715 -0.102687,0.0826 -0.438401,0.19538 -0.746026,0.25073 -0.307625,0.0554 -0.931769,0.16757 -1.386987,0.24935 -0.455212,0.082 -1.062432,0.23192 -1.349368,0.3336 -0.286939,0.10162 -1.030361,0.26214 -1.65206,0.35656 -0.621697,0.0944 -1.332987,0.21773 -1.580642,0.27401 -0.965295,0.21936 -10.996728,0.82375 -12.724082,0.76668 z"
       id="path161"
       inkscape:connector-curvature="0"
       sodipodi:nodetypes="cccccccscccccccccccccccccccccccccccccccccccccccccccccccccccccccccccccccccccccccccccccccccccccccccccccccccccccccccccccccccccccccccccccccccccccccc" />
  </g>
  <g
     inkscape:groupmode="layer"
     id="layer3"
     inkscape:label="Estrella"
     style="display:inline">
    <path
       transform="translate(0,-197)"
       style="display:inline;fill:#000000;fill-opacity:1;stroke:#000000;stroke-width:0.23080175px;stroke-linecap:butt;stroke-linejoin:miter;stroke-opacity:1"
       d="m 48.06104,211.60996 -0.230409,-0.0209 -0.229415,-0.033 -0.198631,-0.0636 -0.138071,-0.11273 -0.05894,-0.18056 0.0072,-0.23814 0.05504,-0.27059 0.08514,-0.27781 0.0974,-0.25991 0.09172,-0.21681 0.06815,-0.14856 0.0267,-0.0549 -2.24e-4,-6.5e-4 -6.75e-4,-0.002 -10e-4,-0.003 -0.0017,-0.004 -0.0019,-0.004 -0.0023,-0.006 -0.0029,-0.007 -0.0032,-0.008 -0.04278,-0.1149 -0.06703,-0.17877 -0.08776,-0.23223 -0.105015,-0.27525 -0.118735,-0.30789 -0.128957,-0.3301 -0.135677,-0.3419 -0.138891,-0.34328 -0.138598,-0.33425 -0.1348,-0.31481 -0.127496,-0.28498 -0.116691,-0.24467 -0.05674,-0.11995 -0.08104,-0.12551 -0.193949,-0.1971 -0.02455,-0.0329 -0.01349,-0.0353 -0.0021,-0.0376 0.0092,-0.0382 0.0208,-0.0381 0.03259,-0.0365 0.04456,-0.0342 0.05676,-0.0313 0.06906,-0.0276 0.08161,-0.0221 0.09431,-0.0161 0.107194,-0.008 0.120264,-8.9e-4 0.133516,0.006 0.145762,4.5e-4 0.155748,-0.022 0.164039,-0.0426 0.170625,-0.0615 0.17552,-0.0787 0.178716,-0.0934 0.180209,-0.10656 0.18001,-0.1181 0.178113,-0.12768 0.174514,-0.13536 0.169223,-0.1412 0.162227,-0.14523 0.153539,-0.14738 0.143154,-0.14767 0.131066,-0.14616 0.117285,-0.14275 0.107442,-0.14102 0.102489,-0.14121 0.09729,-0.1402 0.09177,-0.13789 0.08601,-0.13426 0.07997,-0.12936 0.07366,-0.12313 0.06706,-0.11569 0.06019,-0.10666 0.05306,-0.0966 0.04562,-0.0852 0.03797,-0.0728 0.03001,-0.0591 0.02177,-0.0435 0.01323,-0.0274 0.0042,-0.008 0.04909,-0.002 0.04908,-0.002 0.04908,-0.002 0.04908,-0.002 0.04909,-0.002 0.04908,-0.002 0.04908,-0.002 0.04908,-0.002 0.04908,-0.002 0.04909,-0.002 0.04908,-0.002 0.04908,-0.002 0.04907,-0.002 0.04908,-0.002 0.04908,-0.002 0.04908,-0.002 0.008,0.025 0.02329,0.0723 0.03833,0.11328 0.05307,0.14861 0.06744,0.17808 0.08151,0.20178 0.0952,0.21968 0.10853,0.23182 0.121524,0.23809 0.134174,0.23863 0.146479,0.23335 0.15844,0.22227 0.17005,0.20545 0.181312,0.18277 0.192231,0.15431 0.202797,0.12008 0.209099,0.0954 0.210027,0.0849 0.20897,0.075 0.205924,0.0656 0.200881,0.0571 0.193855,0.0493 0.184834,0.0416 0.173828,0.0344 0.160831,0.0286 0.145839,0.0225 0.128868,0.0178 0.109894,0.0128 0.08892,0.008 0.06599,0.004 0.04107,0.003 0.0141,8.9e-4 0.0063,0.003 0.01669,0.0113 0.02562,0.0178 0.03269,0.0235 0.03796,0.0295 0.04138,0.0342 0.04302,0.0392 0.04277,0.043 0.04072,0.0468 0.03684,0.0499 0.03119,0.0522 0.02365,0.054 0.01431,0.0554 0.003,0.0566 -0.0099,0.0568 -0.02469,0.0567 -0.05366,0.0726 -0.09174,0.10175 -0.124096,0.12589 -0.150712,0.14559 -0.171597,0.16057 -0.18675,0.17093 -0.19617,0.17669 -0.199857,0.1778 -0.197813,0.17421 -0.190034,0.16607 -0.176526,0.15325 -0.157287,0.13577 -0.13231,0.11369 -0.101602,0.0867 -0.06515,0.0553 -0.02297,0.0196 -6.74e-4,0.0883 -6.75e-4,0.0876 -6.76e-4,0.0881 -6.75e-4,0.0882 -6.72e-4,0.0877 -6.74e-4,0.0883 -6.73e-4,0.088 -6.75e-4,0.0877 -6.75e-4,0.0882 -6.76e-4,0.0881 -6.72e-4,0.0876 -6.75e-4,0.0875 -6.74e-4,0.0881 -6.75e-4,0.0879 -6.74e-4,0.0881 -6.75e-4,0.0881 0.0623,0.11098 0.137091,0.26856 0.137085,0.33017 0.0623,0.29565 -9.32e-4,0.0598 -0.0023,0.0562 -0.0039,0.0529 -0.0063,0.05 -0.0079,0.0474 -0.0096,0.0444 -0.01135,0.0421 -0.01317,0.0401 -0.01504,0.0383 -0.01696,0.0367 -0.0189,0.0348 -0.02082,0.0336 -0.0228,0.0326 -0.0248,0.0319 -0.02682,0.0313 -0.02887,0.0311 -0.04217,0.0367 -0.047,0.0295 -0.05085,0.023 -0.0537,0.0183 -0.05558,0.0138 -0.05647,0.0113 -0.0564,0.009 -0.05535,0.008 -0.136897,0.0113 -0.158232,-8.5e-4 -0.165264,-0.004 z"
       id="path468-3-3"
       inkscape:connector-curvature="0"
       sodipodi:nodetypes="cccccccccccccccccccccccccccccccccccccccccccccccccccccccccccccccccccccccccccccccccccccccccccccccccccccccccccccccccccccccccccccccccccccccccccccccccccccccccccccccccccccccccccccccccccccccccccccccccccccccccccccccccc"
       inkscape:export-xdpi="149.34941"
       inkscape:export-ydpi="149.34941" />
  </g>
  <g
     inkscape:groupmode="layer"
     id="layer2"
     inkscape:label="Sombra"
     style="display:inline"
     sodipodi:insensitive="true">
    <path
       transform="translate(0,-197)"
       style="fill:#000000;fill-opacity:1;stroke:#000000;stroke-width:0.26458332px;stroke-linecap:butt;stroke-linejoin:miter;stroke-opacity:1"
       d="m 53.338432,213.64731 c -0.423763,0.28654 1.351913,7.07764 3.674317,12.13229 2.322404,5.05464 3.324228,7.05829 3.324228,7.05829 0,0 -3.125126,0.61611 -4.702066,0.83267 -1.960413,0.26922 -5.361688,0.53345 -5.908136,0.57898 -1.092896,0.0911 1.138434,1.50274 1.138434,1.50274 0,0 1.758827,1.10852 4.536606,1.3362 2.777778,0.22769 3.493298,0.0867 3.493298,0.0867 0,0 1.350789,4.95227 5.266998,11.3275 3.916212,6.37523 5.009108,7.37705 5.009108,7.37705 0,0 -4.518907,1.85676 -6.896878,2.35171 -2.514648,0.52339 -5.112824,0.54156 -7.679854,0.62961 -3.288026,0.11278 -6.579119,-0.11043 -9.869018,-0.13052 -1.31812,-0.008 0,0 -3.954432,0.004 -0.53456,0.48032 2.910482,1.59891 4.501827,2.00828 5.060488,1.30179 9.717856,1.84091 15.620513,1.31466 5.538362,-0.7084 6.627016,-0.85868 6.627016,-0.85868 0,0 2.963938,7.68503 5.153521,11.9354 2.189583,4.25036 6.093282,7.62264 6.151104,9.15026 0.02658,0.70219 -2.906099,2.24517 -4.543912,3.04737 -3.441409,1.6856 -7.128925,3.00717 -10.911975,3.61798 -9.345698,1.50894 -19.021522,1.28824 -28.400189,0 -2.760594,-0.37919 -10.625922,-4.18597 -8.04994,-2.25399 2.57598,1.93199 7.92114,4.37917 10.561521,5.02317 2.64038,0.64399 14.059678,2.99003 21.380642,2.31838 14.039095,-1.28799 22.951657,-6.39224 25.566611,-7.59914 4.604566,-2.12519 13.535873,-9.20327 14.952661,-11.26405 1.416793,-2.06079 -5.720084,-2.99346 -12.376681,-7.95922 -4.499211,-2.93715 -6.63876,-5.27994 -8.741645,-7.91385 -2.230379,-2.79361 -0.598257,-3.12804 0.441362,-3.70853 0.569747,-0.31813 4.160971,-1.377 4.791238,-3.57409 0.220929,-0.77015 -0.777199,-1.53577 -1.525608,-1.85741 -8.939535,-3.84188 -12.691357,-7.96987 -14.220809,-9.51092 -1.530522,-1.54213 -2.919262,-3.33233 -3.063747,-3.94727 -0.200777,-0.85452 1.840156,-1.75208 1.936755,-1.78428 0.0966,-0.0322 5.195134,-3.99724 4.20524,-5.52258 -1.010143,-0.61777 -3.054395,-1.34474 -5.369871,-3.0222 -2.315475,-1.67747 -5.428717,-3.9848 -7.494,-6.71266 -4.321911,-5.70845 -4.624244,-6.01406 -4.624244,-6.01406 0.107533,0.28654 0,2.1e-4 0,2.1e-4 z"
       id="path969"
       inkscape:connector-curvature="0"
       sodipodi:nodetypes="cscaccccscaaacaccssaaaccssccssssssccssscc"
       inkscape:export-xdpi="96"
       inkscape:export-ydpi="96" />
  </g>
</svg>
